<?xml version="1.0" encoding="utf-8"?>
<!-- Generator: Adobe Illustrator 19.2.1, SVG Export Plug-In . SVG Version: 6.00 Build 0)  -->
<svg version="1.1" id="Layer_1" xmlns="http://www.w3.org/2000/svg" xmlns:xlink="http://www.w3.org/1999/xlink" x="0px" y="0px"
	 width="198.5px" height="224px" viewBox="0 0 198.5 224" style="enable-background:new 0 0 198.5 224;" xml:space="preserve">
<style type="text/css">
	.st0{fill:#46230F;}
	.st1{fill:#CE0A24;}
	.st2{fill:#FAA500;}
	.st3{fill:#96C31E;}
	.st4{fill:#5A642D;}
	.st5{fill:#F7F5E9;}
</style>
<g>
	<g>
		<g>
			<path class="st0" d="M163,68v-0.1v-0.1c-1.5-8-4.1-15-8.1-20.8c-5.2-6.7-11.3-11.9-18.3-15.4c-1.7-1.2-3.3-2.3-4.7-3.4
				c-2.8-2.2-4.2-4.6-4.2-7.2v-0.1l0,0c0-0.6,0.1-1.2,0.2-1.8c0-0.1,0.1-0.2,0.1-0.4v-0.2c0.6-3.2,2.3-9.2,7.2-13.1l0.1-0.1l0.1-0.1
				c0.4-0.5,0.5-1,0.3-1.5c-0.1-0.4-0.4-0.7-0.8-0.8l-6.1-2.7c-0.3-0.1-0.7-0.2-1-0.1h-0.1c-4.2,1.1-7.9,3.8-10.5,7.9
				c-2.2,3.4-3.9,7.5-5.1,12.3l0,0c-0.9,2.2-2.8,3.9-5.8,5.1c-1.1,0.5-2.4,0.9-4,1.4h-0.1c-0.7,0.1-1.4,0.3-2.1,0.4
				c-1.7,0.3-7.7,2.3-8.3,2.5l-0.4,0.1l0,0c-0.1,0-0.2,0.1-0.3,0.1c-2.3,1-4.6,2-5.4,2.6c-1.4,0.7-16.9,9.4-19.3,33.7l20.3,4.6l0,0
				l77.2,3.4C163.6,72.2,163.3,70.1,163,68z"/>
			<path class="st1" d="M163.8,74.5L86.6,71l0,0l1,0.2L66,72.3c0,4.6,0.4,9.5,1.2,14.6c0,0.9,0.1,1.9,0.1,2.9V90v0.1
				c1.2,5.8,2.3,12.9,3,20.9l29.6,2.5l0,0l60.7,0.1c1-4.4,1.6-7.5,1.6-7.6C164.1,94.3,164.7,83.8,163.8,74.5z"/>
			<path class="st2" d="M160.6,113.6l-60.6-0.1l0,0l0,0l-29.2,3.4c0.6,10.5,0.4,22-1.1,33.8l23.4,4l51.8,2.5
				c1.4-2.7,2.8-5.6,4.5-9.3l4.8-12.4C156.9,128.7,159.2,119.8,160.6,113.6z"/>
			<path class="st3" d="M92.6,154.6l1.1,0.2l-25,2.6c-1.8,10.9-4.8,21.8-9.3,31.9l17.5,3l-63.5-4.6v0.5l101.3,7.2
				c0.3-0.2,0.5-0.4,0.8-0.7c1.9-1.6,3.6-3.2,4.8-4.4c5.9-5.7,7.7-8,12-13.6l0.1-0.2c0.7-1,1.6-2.2,2.4-3.3c1.3-1.7,2.5-3.3,3-4.3
				c3-4.5,5.1-7.9,7.1-11.8L92.6,154.6z"/>
			<path class="st4" d="M77,192.3L2.5,187l-0.6,6.6l10.4,7.8L0.6,209L0,215.9l47.9,2.6c0.5,0.9,1.1,1.9,2,2.8c1.8,1.8,4.4,2.7,8,2.7
				c5.2,0,12.7-2.3,14.9-3.5l0,0c5.9-2,15.5-6.1,27.8-14.3c5.2-3.5,9.5-6.8,12.9-9.8c0.4-0.3,0.7-0.6,1.1-0.9L77,192.3z"/>
		</g>
	</g>
	<g>
		<path class="st0" d="M152.5,28.6l0.6-1.5c0.1-0.4,0.4-0.9,0.6-1.2c0.3-0.3,0.5-0.7,0.7-1.1l0.7-1.2c0.1-0.1,0.2-0.3,0.3-0.4
			c0.1-0.3,0.4-0.9,0.4-0.9c0.1-0.1,0.3-0.5,0.3-0.6s0.1-0.4,0.2-0.4c0.2-0.2,0.3-0.5,0.5-0.8s0.4-0.5,0.7-0.8
			c0.1-0.2,0.2-0.3,0.4-0.4l1.2-1.3c0-0.1,0.5-0.4,0.5-0.4c0-0.1,0.4-0.3,0.4-0.4c0.1,0,0.4-0.2,0.5-0.3c0.3-0.3,1.8-1.7,2.2-2
			c0.5-0.4,1-0.7,1.6-1.2c0.4-0.3,0.8-0.6,1.3-0.9c0-0.1,0.7-0.5,0.7-0.5c0.4-0.5,1-0.9,1.6-1.3c0-0.1,0.5-0.3,0.6-0.3
			c0-0.1,0.4-0.3,0.5-0.4c0.3-0.1,0.7-0.1,1,0c0.2,0.2,0.2,1.2,0.3,1.5l0.2,0.1c0.3,0.1,0.5,0.2,0.8,0.4c0.3,0.1,0.6,0.2,0.8,0.4
			c0,0,0.3,0.2,0.4,0.2c0.3,0.3,0.6,0.5,0.9,0.8c0.3,0.3,0.6,0.6,0.9,0.9c0.6,0.8,1.1,1.6,1.5,2.6l0.3,0.6c0.3,0.8,0.7,1.6,0.8,2.5
			c0,0.5,0.1,1.1,0.1,1.6l-0.1,1.6v0.6c0,0.6-0.6,1-0.8,1.5c0,0-0.2,0.4-0.2,0.5s-0.3,0.3-0.3,0.4c-0.3,0.4-0.7,0.8-1.2,1
			c-0.6,0.3-1.2,0.5-1.9,0.8c-0.4,0.1-0.8,0.4-1.1,0.5c0,0.1-0.7,0-0.8-0.1c-0.6,0.1-1.2,0-1.8,0l-1.2-0.2c-0.3-0.1-0.6-0.2-0.9-0.3
			c-0.6-0.3-1.2-0.7-1.7-1.1c-0.1-0.1-0.3-0.4-0.3-0.4c-0.1,0-0.3-0.4-0.4-0.5l-0.5-0.9c-0.1,0-0.5-0.7-0.6-0.6
			c-0.4,0.4-0.6,0.9-1,1.2c-0.7,0.4-1.1,1-1.8,1.3c-0.2,0.2-0.4,0.2-0.7,0.5l-0.5,0.3c-0.1,0-0.3,0.2-0.4,0.3l-0.2,0.2
			c-0.3,0.3-0.7,0.7-1.2,0.9l-0.4,0.1l-0.7,0.5c0,0-0.5,0.2-0.6,0.3c-0.5,0.2-1,0.5-1.6,0.7c-0.1,0-0.5,0.1-0.6,0.2
			c-0.2,0-0.5,0.3-0.7,0.5c-0.2-0.1-0.4,0-0.6,0c-0.1,0-0.3-0.1-0.4-0.2c-0.1-0.1-0.1-0.3-0.1-0.4l0.6-1.8
			C152.4,29.1,152.4,28.8,152.5,28.6z M165.1,23.1c0.2,0.2,0.4,0.6,0.6,0.8l0.3,0.2c0.2,0.1,0.3,0.3,0.6,0.4
			c0.1,0.1,0.6,0.1,0.8,0.1c0.2,0.1,0.4,0.2,0.6,0.2c0.2,0.1,1.4,0.2,1.5,0.1l0.4-0.1c0.4,0,0.7-0.3,1.1-0.5c0.4-0.2,0.7-0.4,1-0.6
			l0.6-0.7c0.4-0.4,0.6-0.7,0.9-1.2l0.2-0.7c0.1-0.3,0.2-0.4,0.2-0.6c0-0.1,0-0.2,0-0.3c0.2-0.2-0.1-0.7,0-0.8
			c0-0.6-0.2-1.2-0.4-1.8c-0.2-0.2-0.3-0.6-0.5-0.8c0-0.1-0.1-0.3-0.3-0.5l-0.2-0.2l-0.9-0.8c-0.1-0.1-0.4-0.2-0.4-0.2
			c-0.1,0-0.4-0.3-0.5-0.3s-0.3-0.2-0.4-0.1c-0.3,0.3-0.5,0.7-0.7,1c0,0.1-0.2,0.3-0.3,0.5l-0.4,0.8c0,0.1-0.3,0.4-0.4,0.6
			c0,0.1-0.6,0.9-0.8,1.1c-0.1,0.1-0.2,0.3-0.3,0.5c-0.3,0.5-0.7,1-1.1,1.6c0,0.1-0.4,0.5-0.4,0.6c-0.3,0.3-0.7,0.6-1,1
			C164.7,22.8,164.9,22.9,165.1,23.1z"/>
		<path class="st0" d="M163.8,46.2c-0.3-0.5-1.2-1.3-1.2-1.5l-0.5-1c0-0.2-0.5-1.1-0.7-1.4l-0.4-0.8l-0.7-1.3
			c-0.1-0.2-0.2-0.3-0.3-0.6c0-0.1,0.1-0.5,0.1-0.6c0.1-0.1,0.3-0.4,0.4-0.5c0.1-0.1,0.4-0.3,1.1-0.7c0.2-0.1,1.3-0.9,1.5-1
			c0.3-0.2,2.5-2,2.8-2.3c0.1,0,0.3-0.2,0.4-0.3l0.9-0.5c1.2-0.7,2.4-1.3,3.6-2l1-0.6c0.2-0.2,0.4-0.3,0.6-0.4
			c0.4-0.2,0.6-0.3,0.8-0.4c0.4-0.2,0.9-0.3,1.3-0.6c0,0,0.2,0,0.5-0.2l2.4-1c0.1-0.1,0.5-0.2,0.6-0.2c0.2-0.1,0.3-0.2,0.5-0.3
			c0.5-0.3,0.9-0.2,1.3-0.4l0.6-0.1l1-0.2h0.7c0.3,0,0.4,0.1,0.8,0c0.2,0,0.4,0.2,0.6,0.3c0.1,0.1,0.2,0.2,0.2,0.3l0.9,1.3l0.2,0.4
			l0.7,1.9c0,0.1,0.2,0.4,0.3,0.6c0.4,0.5,0.6,1.1,1,1.6c0,0,0.2,0.4,0.2,0.5c0.2,0.2,0.1,0.5,0.2,0.8c0.1,0.1,0.2,0.6,0.3,0.7
			c0.4,0.8,0.8,2,1.3,2.8c0.1,0.2,0.4,0.5,0.6,0.8c0,0.1,0.1,0.3,0.1,0.4v0.9c0,0.1-0.1,0.4-0.1,0.4l-0.1,0.1c-0.1,0-0.3,0.1-0.9,0
			c-0.4-0.1-0.7-0.5-0.9-0.9c0,0-0.2-0.3-0.3-0.3c-0.4-0.4-0.5-0.8-1-1.1c-0.3-0.6-0.6-1.1-1.2-1.7c-0.4-0.5-1-1.5-1.1-1.6l-0.6-1.4
			l-0.6-0.2l-0.5,0.4c-0.1,0.1-0.1,0.2-0.4,0.3c0,0.1-0.5,0.5-0.5,0.6c-0.1,0.1-0.2,0.2-0.3,0.2c0,0-0.2,0.1-0.3,0.1l-1.9,1.1
			c-0.1,0.1-0.4,0.1-0.4,0.1c-0.2,0.1-0.2,0.3-1.2,0.9c-0.1,0.1-0.6,0.3-0.7,0.3c0.1,0.4,0.3,0.8,0.4,1.2c0.2,0.3,0.3,0.9,0.4,1.4
			l0.3,1c0.1,0.2,0.2,0.4,0.3,0.6s0.3,0.4,0.5,0.5c0.1,0.1,0.3,0.4,0.3,0.5l0.5,0.9c0.1,0.1,0.2,0.4,0.3,0.5c0.1,0.2,0,0.6,0,0.9
			c-0.2,0.1,0,0.3-0.4,0.6c-0.1,0-0.1,0-0.2,0.1c-0.3,0-1-0.4-1.1-0.5l-0.3-0.6c0,0-0.2-0.1-0.2-0.2c0,0-0.3-0.5-0.4-0.5
			c-0.1-0.1-0.7-0.8-0.8-0.9l-0.4-0.4c-0.1-0.2-0.3-0.5-0.5-0.7l-1.1-2c0,0-0.1-0.2-0.2-0.2c-0.1-0.1-0.4-0.6-0.7-0.4
			c-0.6,0.4-2.2,1.4-2.3,1.5c-0.1,0-0.5,0.4-0.5,0.4c-0.7,0.4-0.9,0.5-0.9,0.5c-0.2,0-0.4,0.1-0.6,0c-0.3,0.2-1.7,0.8-2,1l-0.4,0.2
			c-0.1,0.1-0.3,0.1-0.5,0.2c0.2,0.5,0.1,1,0.3,1.5l0.9,2.2c0.1,0.2,0.2,0.4,0.2,0.5c0.1,0.2,0,0.3,0.2,0.4c0.3,0.4,0.4,1,0.7,1.2
			c0,0.1,0.3,0.4,0.4,0.5c0.1,0.2,0.3,0.5,0.6,0.7l0.3,0.8c0.1,0.1,0.2,0.2,0.3,0.4c0.2,0.5-0.1,0.5-0.5,0.7
			c-0.4,0.1-0.5,0.1-0.9,0.1c0,0-0.2,0-0.4,0c-0.6-0.3-0.7-0.4-0.7-0.4c-0.2-0.1-0.5-0.6-0.6-0.8l-0.2-0.4c-0.1-0.1-0.2-0.3-0.3-0.6
			l-0.5-1.1c-0.1-0.2-0.4-0.4-0.6-0.6c-0.1-0.1-0.5-0.7-0.6-0.9c-0.1-0.1-0.2-0.6-0.3-0.7L163.8,46.2z"/>
		<path class="st0" d="M176.4,64.4c0,0,0.1-0.2,0-0.2c0-0.1,0.1-0.9,0.1-1c0.1-0.3,0.3-0.6,0.4-0.9c0,0,0.1-0.3,0.1-0.4
			s0.1-0.6,0.1-0.6s0-0.1,0.1-0.1c0.1-0.3,0.3-0.6,0.4-0.9l0.2-0.8c0.1-0.2,0.2-0.3,0.3-0.5l0.3-0.4c0.5-0.6,0.9-1.9,1.3-2.6l-3,0.7
			c0,0-0.2,0-0.3,0s-0.1,0-0.3,0h-0.6c-0.1,0-0.3-0.1-0.5,0h-0.1h-0.3l-0.9,0.2c-0.2,0.1-0.5,0.1-0.5,0.1c-0.3,0.1-0.7,0.3-1.1,0.3
			c-0.2,0-0.4,0-0.7,0c0,0-0.4,0.1-0.4,0.2c-0.2,0.1-0.6,0-0.8,0c-0.1,0-0.6,0.1-0.6,0.1c-0.2-0.1-0.3-0.1-0.5-0.3l0.2-0.5
			c0.1-0.2,0.3-0.3,0.3-0.4l0.9-0.9l0.2-0.1c0.3-0.1,0.4-0.3,0.5-0.6c0.1,0,0.3-0.3,0.3-0.3c0.1-0.1,0.3-0.3,0.5-0.5
			c0,0,0-0.1,0.1-0.1s0.3-0.2,0.4-0.3l0.2-0.2c0,0,0.1-0.2,0.4-0.3c0.3-0.2,0.4-0.4,0.7-0.6c0.4-0.5,0.9-0.9,1.4-1.3
			c0.1-0.1,1.2-0.7,1.4-0.8c0,0,0.3-0.3,0.4-0.3c0.1,0,0.9-0.5,1-0.5l1.7-1.2c0,0,0.4-0.2,0.6-0.3l0.8-0.4c0.1-0.1,0.4-0.1,0.5-0.2
			l0.3-0.2c0,0,0.3-0.1,0.3-0.2l0.3-0.2c0.1,0,0.9-0.3,1-0.3l0.5-0.2c0.1,0,0.6-0.2,0.6-0.3c0,0,0.3,0,0.4,0c0,0,0.1-0.1,0.2-0.1
			c0.2-0.1,0.5-0.1,0.7-0.2h0.2c0.2-0.1,0.4,0,0.5-0.1l0.5-0.2l0.2-0.1c0.2,0.1,0.4,0,0.6,0c0.7-0.2,1.4-0.2,2.1-0.2
			c0.2,0,0.4-0.1,0.7-0.1c0,0,0.3,0.1,0.4,0.1c0.2-0.1,0.6-0.2,0.6-0.2h0.2c0.1,0,0.4,0.1,0.4,0.2c0.1,0.3,0.1,0.5,0.3,0.9
			c0.1,0,0.4,0.4,0.4,0.5c0.1,0.1,0.3,0.4,0.4,0.4l0.2,0.4c0,0,0.3,0.4,0.4,0.4c0.2,0.4,0.5,0.7,0.8,1.2c0.1,0.2,0.2,0.2,0.2,0.3
			c0.1,0.2,0.2,0.3,0.4,0.8c0,0.1,0.2,0.3,0.2,0.3c0.1,0.2,0.2,0.4,0.5,1c0.1,0.2,0.2,0.4,0.2,0.9c0.2,0.5,0.3,1.1,0.2,1.7v0.1
			c-0.1,0.1,0,0.3-0.1,0.4c0,0.3-0.2,0.5-0.2,0.8v0.6c0,0.2-0.2,0.5-0.1,0.7l-0.2,0.9c-0.1,0.1-0.1,0.3-0.1,0.5l-0.2,0.4
			c0,0-0.4,0.4-0.4,0.5c-0.2,0.2-0.2,0.4-0.4,0.5l-0.3,0.2c0,0.1-0.4,0.4-0.5,0.4l-0.2,0.1c0,0-0.2,0.2-0.3,0.2c0,0-0.2,0.1-0.3,0.2
			l-0.3,0.2l-1.1,0.4l-1,0.2c-0.5,0.1-0.8-0.1-1.3-0.1c-0.1,0-0.8-0.1-0.8-0.1c-0.3,0-0.6-0.1-1-0.2l-0.4-0.3
			c-0.3-0.1-0.5-0.1-0.8-0.2c-0.2,0-0.3-0.2-0.5-0.3c-0.3-0.2-0.6-0.3-0.9-0.5l-0.3-0.3c-0.2-0.1-0.2-0.2-0.3-0.3
			c0,0-0.5-0.5-0.5-0.6s-0.3-0.3-0.4-0.2l-0.2,2c-0.2,0.2-0.7,1.1-0.8,1.4c-0.1,0.2-0.7,1.5-0.8,1.6l-0.6,1
			c-0.1,0.1-0.3,0.4-0.3,0.4l-0.1,0.2c-0.2,0.2-0.4,0.4-0.5,0.6c-0.1,0-0.3,0.3-0.4,0.4l-1.3,1.2c-0.1,0-0.3,0.3-0.3,0.3l-0.4,0.5
			l-0.5,0.8l-0.1,0.1l-0.6,0.7l-0.1,0.1c0,0-0.4,0.5-0.4,0.6c-0.1,0.1-0.2,0.1-0.3,0.2c-0.3,0.1-0.4,0.2-0.6,0.2
			c-0.1,0-0.2-0.2-0.3-0.3c0-0.1-0.1-0.3-0.1-0.4c0-0.3,0.1-0.4,0.2-0.6c0.1-0.2,0.1-0.3,0.1-0.5c0.1-0.8,0.5-1.4,0.8-2.2
			L176.4,64.4z M184.5,54.2c0,0,0.1,0.5,0.3,0.9l0.1,0.3c0.1,0,0.4,0.6,0.5,0.7l0.1,0.1c0.2,0.1,0.7,0.6,0.8,0.6l0.9,0.5
			c0.3,0.1,0.7,0.2,1,0.2h1c0.2,0,0.4-0.1,0.6-0.1c0.1,0,0.5-0.1,0.6-0.2c0.2-0.1,0.8-0.4,1-0.5c0.2-0.2,0.5-0.3,0.7-0.5l0.7-0.8
			c0,0,0.3-0.6,0.4-0.9c0.1-0.2,0.4-1,0.5-1.2l-0.1-0.8c0-0.1,0-0.7,0-0.7c0-0.1-0.2-0.6-0.2-0.7l-0.1-0.3c-0.6-0.6-1.3-1.4-1.3-1.4
			c-0.3,0.1-0.6,0.3-0.9,0.6c0,0.1-0.5,0.4-0.6,0.5c0,0-0.2,0.1-0.3,0.1l-0.1,0.1l-0.4,0.2c-0.3,0.2-0.6,0.4-0.9,0.5
			c-0.2,0.1-0.4,0.1-0.5,0.2c-0.3,0.2-0.6,0.4-0.9,0.6l-0.8,0.4c-0.2,0.1-0.8,0.4-0.8,0.4c-0.1,0-0.4,0.2-0.4,0.2s-0.1,0.1-0.2,0.1
			c0,0-0.1,0.1-0.8,0.4L184.5,54.2z"/>
		<path class="st0" d="M179,70.2c0.2-0.2,0.5-0.3,0.8-0.4l1.3-1l0.2-0.1l2.5-1.6c0.1,0,0.4-0.3,0.5-0.3c0.1-0.1,0.8-0.3,1-0.4
			l0.4-0.1c0.2,0,0.4-0.1,0.5-0.2l1.6-0.4c0,0,0.2,0,0.3-0.1c0.7-0.1,1.3,0.1,1.9,0.1l0.4,0.1c0.2-0.1,0.5,0,0.6,0.1
			c0.1,0,0.3,0.1,0.3,0.1l0.4,0.1c0.1,0,0.3,0.1,0.4,0.2l0.3,0.1h0.2l0.2,0.1v0.2c0,0.1-0.1,0.1-0.2,0.2c0,0.1-0.1,0.2-0.1,0.2
			c-0.1,0-0.1,0.2-0.1,0.3l-0.4,0.7c-0.4,0.3-0.6,0.7-1,1l-0.1,0.2c-0.3,0.3-0.8,0.4-1.1,0.6l-0.5,0.3c-0.1,0.1-0.6,0.3-0.6,0.3
			c-0.2,0.1-0.4,0.1-0.7,0.2c-0.1,0-0.5,0-0.6,0c-0.2,0.1-1.4,0.4-1.8,0.4l-0.7,0.2c-0.1,0-1,0.1-1.4,0.2c-0.3,0-0.5,0-0.8,0
			c-0.1,0-0.3,0-0.4-0.1c-0.1,0-0.7-0.1-0.8-0.2c-0.1,0-0.6,0-0.6,0h-0.1c0,0-0.1,0-0.2,0.1c-0.1,0-0.3,0-0.3,0
			c-0.3-0.1-0.7-0.1-1-0.1c-0.1,0-0.5,0.1-0.6,0.1c-0.2,0-0.7,0.1-0.7,0c-0.1,0-0.2-0.1-0.3-0.1c0-0.1-0.1-0.2-0.1-0.2
			s-0.1-0.2,0.1-0.3c0.2-0.1,0.3-0.2,0.5-0.2c0.1,0,0.3-0.2,0.4-0.2C178.8,70.4,178.9,70.2,179,70.2z M194.9,64.9
			c0-0.1,0.4-0.6,0.4-0.7c0,0,0.2-0.2,0.3-0.2l0.2-0.1c0.1,0,0.2-0.1,0.4-0.1c0,0,0.3-0.1,0.4-0.1l0.3-0.1c0.1,0,0.2,0,0.2,0h0.2
			c0,0,0.2,0,0.3,0c0,0,0.3,0.1,0.4,0.1c0.2,0,0.3,0.3,0.3,0.3c0,0.1,0,0.3,0,0.4c0,0.2,0.2,0.3,0.2,0.5c0.1,0.2,0,0.5,0,0.7
			s0,0.4-0.1,0.5c0,0,0,0.1-0.1,0.2l-0.1,0.3c-0.1,0.2-0.2,0.2-0.3,0.4l-0.1,0.1c-0.1,0.1-0.2,0.2-0.4,0.2c-0.3,0.1-0.6,0.1-1,0.1
			c-0.1,0-0.3,0.1-0.5,0c-0.1,0-0.2,0-0.3-0.1c-0.1,0-0.5-0.1-0.5-0.1c-0.1-0.1-0.3-0.2-0.3-0.2l-0.1-0.2c-0.1-0.1-0.1-0.2-0.2-0.3
			c0-0.2,0-0.2,0-0.4c0,0,0-0.2,0-0.3v-0.4c0,0,0-0.1,0-0.2L194.9,64.9z"/>
		<path class="st0" d="M185.4,73.6c0,0,0.3,0,0.4,0c0.1,0,0.2,0.1,0.3,0.2c0,0,0.2,0.1,0.2,0.2c0.2,0.1,0.4,0.4,0.5,0.6
			c0,0.1,0.1,0.4,0.1,0.5c0,0,0,0.1,0,0.2c0,0.1,0.1,0.2,0.1,0.2l0.1,0.2c0,0.1,0,0.1,0,0.1s0,0.1,0.1,0.2c0,0,0.4,1.5,0.4,2.2
			c0,0,0.1,0.4,0.2,0.6c0,0-0.1,0.1-0.1,0.3v0.3c0,0.1,0,0.1,0,0.2c0,0.1,0,0.2,0,0.2c0,0.2,0.1,0.8,0.1,0.8c0,0.1,0,0.2,0,0.3
			s0,0.3,0,0.4l0.1,0.4c0,0.1,0,0.3,0,0.3s0,0.2-0.1,0.3c0,0.1,0,0.2,0,0.2c-0.1,0.3,0.1,0.2-0.1,0.4l-0.3,0.4v0.1
			c-0.2,0.2-0.2,0.4-0.4,0.4h-0.3c-0.1,0-0.2-0.1-0.2-0.1l-0.2-0.3l-0.3-0.3c-0.1-0.1-0.2-0.2-0.2-0.3s-0.1-0.1-0.1-0.1l-0.1-0.2
			c-0.1-0.1-0.2-0.4-0.2-0.4c0-0.1-0.3-0.6-0.3-0.8c0,0,0-0.1,0-0.2c0-0.3,0.1-0.5,0-0.7c0-0.1,0-0.3,0-0.3c0-0.1-0.1-0.2-0.2-0.4
			c-0.1-0.4,0-0.8,0-1.1c0-0.1,0-0.3,0-0.3c0-0.1-0.1-0.5-0.1-0.5s0-0.1,0-0.2c0-0.1,0-0.5,0-0.5c0-0.1,0-0.1,0-0.2
			c0-0.3,0-0.5,0-0.8c0-0.2,0-0.4,0.1-0.6v-0.2v-0.1L185,75c0,0,0.1-0.1,0.1-0.2c0-0.1,0-0.2,0-0.3C185.1,74.4,185,73.7,185.4,73.6z
			"/>
		<path class="st0" d="M175.4,98.5c0-0.1-0.1-0.5-0.1-0.6s0-0.6,0-0.6V97c-0.1-0.3-0.1-0.6,0-1c0-0.1,0.1-0.3,0-0.4l0.1-0.8
			c0.1-0.3,0.2-0.7,0.4-1l0.3-0.8c0-0.2,0.2-0.6,0.3-0.9c0-0.1,0.1-0.4,0.2-0.6l0.4-0.8l1-1.1l0.6-0.6c0.8-0.7,1.6-1.3,2.5-1.7
			l1.8-0.6c0,0,0.3-0.1,0.4-0.1c0.2-0.1,0.5-0.1,0.8-0.1c0.4,0,0.8,0,1.2,0c0.2-0.1,0.7-0.1,0.7-0.1c0.1,0,0.3,0,0.4,0l0.4,0.2
			l0.5,0.1c0.4,0.1,0.9,0.4,1.3,0.4l1,0.4c0,0,0.4,0.3,0.5,0.2l1.2,0.5l0.9,0.5c0,0,0.7,0.5,1,0.7c0.2,0.2,0.6,0.3,0.8,0.5
			c0.2,0.1,0.4,0.7,0.5,0.9l0.5,1.5c0,0.1,0.2,0.3,0.2,0.4l0.4,0.5c0,0.1,0.1,0.1,0.1,0.3c0.1,0.3,0.1,0.5,0.1,0.8
			c0.1,0.3,0.2,0.8,0.2,1.1s-0.1,0.6-0.1,0.9v0.3l0.1,0.3c0,0.1,0,0.2,0.1,0.5c0,0.1,0.1,0.3,0.2,0.6c0,0.2,0,1.5,0,1.5
			c-0.1,0.9-0.2,1.7-0.5,2.6c-0.3,0.6-1,1.4-1.2,1.8l-0.2,0.1l-0.4,0.5l-0.2,0.2l-1,0.9c-0.3,0.2-0.6,0.3-0.9,0.5l-0.6,0.4
			c0,0,0,0.1-0.7,0.3L190,107c-0.2,0-0.3,0-0.5,0.1l-3.4,0.6c-0.1,0-0.3,0-0.3,0l-0.9-0.1c-0.4,0-2.2,0-2.6,0
			c-0.2-0.1-0.5-0.1-0.8-0.1l-1-0.3c-0.2-0.1-1.2-0.5-1.3-0.6s-0.8-0.6-0.9-0.7c0,0-0.1,0-0.2-0.1l-0.2-0.2
			c-0.2-0.2-0.5-0.3-0.6-0.6c-0.1-0.1-0.2-0.4-0.2-0.5s-0.1-0.2-0.2-0.5c-0.1-0.1-0.2-0.5-0.2-0.5l-0.8-1.3
			c-0.1-0.3-0.2-0.6-0.3-0.9l-0.1-0.4c-0.1-0.4-0.2-0.7-0.2-1C175.5,99.5,175.4,98.9,175.4,98.5z M180.5,96.4c0,0.1-0.3,0.5-0.3,0.6
			c-0.2,0.2-0.4,0.6-0.5,0.9c0,0.1-0.1,0.5-0.1,0.6l0.1,0.3c0,0.2,0.2,0.6,0.2,0.6l-0.1,0.8c0,0,0,0.5,0.1,0.6c0,0,0.1,0.3,0.2,0.5
			l0.1,0.5c0.1,0.1,0.3,0.6,0.4,0.7c0.1,0.2,0.7,1.1,0.8,1.3c0.3,0.3,0.6,0.7,1,0.8c0.3,0,1.4,0.4,1.6,0.5c0.1,0.1,0.7,0.2,0.8,0.3
			c0.1,0,0.3,0,0.3,0c0.2,0,1.3,0,1.6,0l0.9-0.1c0.3-0.1,0.6-0.1,0.9-0.2l1.5-0.5c0.1,0,0.5-0.2,0.5-0.2s0.3-0.2,0.4-0.3
			c0.2-0.1,0.7-0.4,0.7-0.5l1.4-1.4c0.2-0.2,0.4-0.4,0.5-0.7c0.1-0.1,0-0.3,0.2-0.4l0.1-0.4c-0.1-0.1,0-0.3,0.1-0.4l0.2-0.6
			c0-0.1,0.2-0.5,0.2-0.6c0,0,0-0.5-0.1-0.6c0-0.1-0.1-0.7-0.2-0.8c-0.1-0.4,0.1-0.9-0.1-1.4c0-0.1-0.1-0.2-0.1-0.2l-0.5-0.5
			c-0.2-0.2-0.5-0.5-0.9-0.7l-0.7-0.1l-0.8-0.4l-0.3-0.1c-0.7-0.2-1.5-0.3-2.1-0.4l-1.6,0.1h-0.2h-0.4c0,0-0.2,0-0.3,0
			c-0.7,0-1.4,0.1-2.1,0.4c-0.5,0.2-0.8,0.3-1.2,0.5c-0.2,0-1.1,0.6-1.4,0.7c-0.3,0.1-0.5,0.4-0.5,0.7
			C180.7,96.2,180.6,96.4,180.5,96.4z"/>
		<path class="st0" d="M175,117.3c0.1,0,0.5,0,0.6,0s0.1,0,0.4,0c0.2,0,0.3,0,0.5,0s0.3,0,0.5,0.1l0.6,0.1c0.6,0.1,1.1,0.2,1.6,0.4
			c0,0,0.2,0.1,0.3,0.1c0,0,0,0,0.4,0.1c0.1,0,0.7,0.2,0.8,0.2l0.9,0.2c0.4,0.1,0.7,0,1.1,0.1c0.1,0,0.5,0.1,0.6,0.1s0.1,0,0.6,0.1
			h0.2c0,0,0.3,0,0.4,0c0.2,0,0.4,0,0.6,0.1c0.2,0,0.5,0,0.8,0c0.1,0,0.6,0,0.7,0c0.1,0,0.6-0.2,0.7-0.2c0.4-0.3,0.5-0.3,0.5-0.3
			c0.2-0.1,0.3-0.2,0.4-0.4c0-0.1,0.1-0.4,0-0.6l-0.4-0.7c-0.1-0.1,0-0.3-0.3-0.5l-0.6-0.8c-0.1,0-0.4-0.4-0.5-0.5s-0.2-0.2-0.3-0.3
			l-0.7-0.5c-0.2-0.2-0.5-0.2-0.7-0.3c-0.1,0-0.3,0-0.5,0l-0.4-0.1c-0.1,0-1.1-0.1-1.2-0.2c-2.3-0.5-2.8-0.7-3.3-1
			c-0.6-0.4-1.2-0.8-1.8-1.2l-0.1-0.1c-0.1-0.1-0.3-0.2-0.5-0.3c-0.1,0-0.3-0.1-0.4-0.1c-0.2-0.1-0.5-0.3-0.5-0.5c0-0.1,0-0.2,0-0.2
			c0-0.1,0.1-0.1,0.1-0.3l0.9-0.2c0.1,0,0.3-0.1,0.4,0l1.6,0.2c0.1,0,0.6,0,0.7,0h0.3c0.1,0,0.4,0,0.4,0c0.1,0,0.9-0.1,1-0.1
			s0.6,0,0.7,0.1c0.1,0,0.9,0.2,1,0.1l0.4,0.1c0.1,0,1.1,0.2,1.3,0.2c0.4,0,0.6,0.1,1,0.2c0.8,0.2,1.6,0.4,2.4,0.7l1.3,0.5
			c0.2,0.1,0.4,0.1,0.6,0.2c0.2,0.1,0.5,0.2,0.6,0.4c0,0.1,0.1,0.2,0.1,0.4s-0.1,0.4-0.3,0.5c0,0.1-0.4,0.2-0.4,0.2l-0.6,0.3
			c-0.1,0.1-0.6,0.3-0.8,0.3l-0.9,0.3c-0.1,0-0.3,0.1-0.4,0.1c0.4,0.3,0.7,0.8,0.8,1c0.1,0.1,0.3,0.3,0.4,0.5
			c0.3,0.5,0.5,0.9,0.7,1.4c0,0.1,0.1,0.2,0.1,0.3l0.2,0.6c0,0.1,0,0.2,0,0.4s-0.2,0.4-0.3,0.7c-0.1,0.1-0.2,0.5-0.2,0.6l-0.1,0.1
			l-0.9,1.3c-0.1,0.1-0.2,0.4-0.5,0.5l-0.1,0.1c-0.1,0-0.3,0.3-0.3,0.4c-0.2,0.1-0.5,0.3-0.7,0.5c-0.1,0.1-0.5,0.4-0.6,0.4
			c0,0.1,0,0.1,0,0.2c0.2,0.2,0.4,0.5,0.7,0.8l0.2,0.4c0,0.1,0.2,0.3,0.2,0.4l0.3,0.4c0.3,0.6,0.8,1.1,1.2,1.6
			c0,0.1,0.1,0.3,0.1,0.4c0,0.1,0,0.3,0,0.5c0,0.1-0.1,0.4-0.2,0.5l-0.3,0.5c-0.1,0.1-0.1,0.3-0.2,0.4c-0.1,0.2-0.3,0.5-0.4,0.7
			l-0.7,0.7c-0.2,0.2-0.4,0.6-0.7,0.8c-0.2,0.2-1.3,0.9-1.5,1l-0.5,0.3l-0.5,0.2c-0.2,0.1-0.3,0.2-0.5,0.3l-0.7,0.2l-1.6,0.4
			c0,0-0.3,0.1-0.4,0.1c-0.4,0-0.8,0.1-1.2,0c-0.2-0.1-0.5-0.2-0.7-0.2s-0.5,0-0.7-0.1c-0.1,0-0.1,0-0.1,0s-0.5-0.3-0.7-0.3
			c-0.1,0-0.2-0.1-0.3-0.1c0,0-0.2-0.1-0.3-0.1c-0.2-0.1-0.5-0.4-0.7-0.5c-0.1-0.1-0.2-0.2-0.3-0.4c0,0-0.3-0.4-0.4-0.4
			c-0.5-0.6-0.7-1.3-0.9-2c0-0.2-0.1-0.5-0.2-0.7l-1.3-2c0-0.2-0.3-0.3-0.2-0.6v-0.1c0.2,0,0.3,0,0.6,0.1l0.4,0.1
			c0.2,0,0.4,0.1,0.7,0.1c0.2,0,0.4,0.1,0.5,0.2c0,0,0.2,0.1,0.3,0.1l2.5,0.6l0.6,0.2c0.3,0.2,0.6,0.2,0.9,0.3l0.6,0.1
			c0.2,0,0.4,0.1,0.7,0.2c0.3,0,0.6,0.1,0.8,0.1c1.7,0.2,1.7,0.2,1.7,0.2c0.2,0.1,0.9,0.1,0.9,0.1c0.1,0,0.4,0,0.4,0
			c0.2-0.1,0.5-0.1,0.6-0.1c0.2-0.1,0.3-0.2,0.6-0.3c0.2-0.2,0.5-0.3,0.5-0.6c0.1-0.2-0.1-0.5-0.2-0.8c-0.3-0.4-0.4-1.1-0.8-1.7
			l-0.6-0.7c-0.1-0.1-0.1-0.1-0.3-0.2h-0.3c-0.3,0-0.5,0-0.9,0.1h-0.2l-0.4-0.1c-0.3,0-0.6,0.1-0.9,0.1h-0.2c-0.1,0-0.6-0.1-0.7-0.1
			c-0.1,0-0.3-0.1-0.4-0.2c-0.2-0.1-0.4-0.2-0.5-0.4l-0.7-0.4l-0.1-0.1c-0.4-0.4-0.6-0.7-0.9-1.2c-0.1,0-0.5-0.4-0.5-0.5
			c0,0-0.1,0-0.1-0.1l-0.4-0.3l-0.8-0.8c0,0-0.3-0.4-0.4-0.5l-0.1-0.1l-0.5-0.4l-0.4-0.4c-0.1,0-0.5-0.3-0.6-0.4
			c-0.1-0.2-0.4-0.4-0.4-0.7c0-0.2,0.2-0.3,0.4-0.3c0.1,0,0.3-0.1,0.4-0.1C174.6,117.3,174.9,117.2,175,117.3z"/>
		<path class="st0" d="M175.6,134.7c0.8,0.4,0.8,0.5,0.8,0.5c0.1,0,0.2,0.1,0.2,0.2c0.1,0.1,0.3,0.2,0.4,0.3l0.7,0.6
			c0.2,0.2,0.4,0.3,0.6,0.5l0.4,0.5c0.1,0,0.3,0.3,0.4,0.5c0.1,0.1,0.4,0.7,0.5,0.9l0.2,0.3c0.1,0.2,0.5,0.9,0.6,1
			c0.1,0.2,0.3,0.4,0.5,0.7l0.2,0.4c0,0.2,0,0.3,0,0.4c0.2,0.7,0.3,1.4,0.2,2.2c0,0.1-0.1,0.4,0,0.4c-0.1,0.4-0.2,0.7-0.2,1.1
			l-0.3,1.1c0,0.1,0,0.2-0.1,0.4c-0.1,0.4-0.3,0.7-0.5,1l-0.5,0.9c-0.1,0.3-0.4,0.6-0.7,0.9c-0.1,0.2-0.3,0.5-0.5,0.7l-0.6,0.5
			c-0.2,0-0.2,0.2-0.4,0.3c-0.4,0.2-0.7,0.5-1.1,0.6l-1.1,0.3c-0.2,0-0.7,0.1-0.9,0.1c-0.1,0-0.5-0.1-0.7-0.1
			c-0.2-0.1-0.7-0.3-0.7-0.3c-0.1,0-0.5-0.2-0.7-0.3c-0.3-0.2-0.7-0.4-1-0.7l-0.1-0.1c0,0-0.2-0.2-0.3-0.2l-0.1-0.2l-0.1-0.4
			c-0.1,0-0.2-0.4-0.3-0.5s0-0.3,0-0.5c0-0.1,0.1-0.3,0.1-0.4l-0.1-0.4c0-0.1,0-0.2,0-0.3c0-0.2-0.1-0.4-0.1-0.5s0.1-0.7,0.1-0.8
			v-0.2c0-0.3,0-0.5,0.1-0.8c0-0.1,0-0.5,0-0.6c0.1-0.2,0.1-0.4,0.2-0.8c0.1-0.3,0.2-0.6,0.4-0.9c0.2-0.6,0.5-1,0.9-1.6
			c0,0-0.1-0.1-0.2-0.1c-0.1,0-0.2-0.1-0.4-0.2c-0.1,0-0.1,0-0.2,0c-0.2,0-0.4-0.1-0.6-0.2l-1.4-0.2c-0.4-0.1-0.8,0-1.2,0.1
			l-0.1,0.1c-0.2,0.1-0.5-0.1-1.2,0.5c-0.1,0-0.9,0.8-1.1,1.2c-0.2,0.3-0.5,0.7-0.6,1c0,0.2-0.2,0.4-0.2,0.6c0,0.1,0,0.2,0,0.2
			s-0.1,0.4,0,0.5c0,0.1,0,0.2,0,0.3l0.2,0.5c0.2,0.4,0.4,0.8,0.6,1.2c0.1,0.1,0.2,0.1,0.3,0.3c0.1,0.1,0.2,0.2,0.2,0.3
			s0.2,0.1,0.2,0.1c0.2,0.1,0.5,0,0.5,0c0.2,0.1,0.2-0.1,0.4-0.3s0.5-0.2,0.7-0.1c0.1,0,0.3,0.1,0.3,0.2c0.1,0.3,0.3,0.6,0.2,0.9
			c0,0.1-0.1,0.4-0.1,0.5v0.2v0.2l-0.3,0.5c-0.2,0.3-0.6,0.6-1,0.6l-0.2,0.1c-0.1,0-0.2,0.1-0.4,0l-0.3-0.1
			c-0.5-0.1-0.7-0.4-1.1-0.8l-0.3-0.2c0-0.1-0.3-0.2-0.3-0.3c-0.4-0.5-0.6-1-0.8-1.5c0-0.1-0.1-0.2-0.1-0.4l-0.1-0.4v-0.2l-0.1-1.4
			c0-0.4,0.1-0.8,0.1-1.2c0.1-1.1,0.2-1.4,0.2-1.5s0,0,0.1-0.3c0.1-0.2,0.2-0.6,0.3-0.7l0.4-0.9c0-0.1,0.5-1.2,0.5-1.4
			c0,0,0.2-0.4,0.3-0.5c0.4-0.7,0.8-1.3,1.4-1.8c0.2-0.2,0.5-0.5,0.8-0.6l1.9-1c0.1,0,0.3-0.1,0.4-0.1c0.3-0.2,0.7-0.3,1.1-0.4
			c0.3-0.1,0.7-0.2,1-0.2c0.1,0,0.3,0,0.5,0c0.1,0,0.3,0,0.3,0l2.1,0.3L175.6,134.7z M173.7,142.1c0,0-0.3,0.4-0.3,0.5
			c-0.1,0.1-0.2,0.2-0.3,0.3c-0.1,0.2-0.2,0.5-0.3,0.8s-0.2,0.6-0.3,1.1c0,0.3-0.1,0.6-0.1,0.8l-0.1,1c-0.1,0.2,0.1,0.4,0,0.6
			c0,0.2,0,0.3,0,0.5l0.2,1.8c0,0.1,0.2,0.2,0.3,0.2s0.3,0.2,0.3,0.2h0.2c0.4,0,0.8,0.1,1.1,0c0,0,0.2,0,0.2-0.1
			c0.5-0.1,0.9-0.1,1.4-0.3c0.3-0.2,0.6-0.3,0.8-0.6c0-0.1,0.2-0.2,0.3-0.4c0.1-0.5,0.2-0.9,0.3-1.3c0-0.1,0-0.2,0-0.3v-0.7
			c0-0.1,0-0.3-0.1-0.4l-0.3-0.6c-0.5-0.8-1-1.4-1.7-2l-0.8-0.7c-0.2-0.2-0.3-0.5-0.7-0.6C173.7,142,173.7,142,173.7,142.1z"/>
		<path class="st0" d="M165.3,151.5l0.4,0.3c0.1,0.1,0.3,0.2,0.5,0.3c0.7,0.6,0.8,0.6,0.8,0.6l1.2,0.9l0.3,0.3
			c0.1,0.1,0,0.1,0.1,0.2l0.7,0.6c0.3-0.2,0.5-0.4,0.7-0.7l0.5-0.7c0.1-0.1,0.3-0.2,0.5-0.2c0,0,0.1,0,0.2,0.1
			c0.1,0.1,0.1,0.1,0.2,0.3c0.1,0.1,0.2,0.3,0.1,0.5l-0.1,0.1c-0.2,0.2-0.1,0.2-0.5,0.7l-0.2,0.3l-0.5,0.6c0,0,0.5,0.6,0.6,0.8
			c0,0,0.1,0.1,0.1,0.2c0,0,0.4,0.4,0.5,0.4c0.2,0.2,0.4,0.5,0.4,0.7c0,0.1,0.1,0.1,0.2,0.2c0.1,0.2,0.3,0.3,0.4,0.6
			c0.1,0.1,0.4,0.5,0.4,0.6l0.1,0.3l0.3,0.4c0.1,0.1,0.2,0.2,0.3,0.2c0.2,0.2,0.3,0.6,0.3,0.8c0,0.1,0,0.1,0,0.2c0,0-0.1,0-0.1,0.1
			l-0.1,0.1c-0.1,0.1-0.2,0.1-0.3,0.2l-1,0.1H172c-0.2,0.1-0.3,0-0.5,0s-1.1-0.2-1.2-0.2c-0.1,0-0.3-0.1-0.4-0.1
			c0,0-0.5-0.3-0.6-0.3c-0.2-0.1-0.4-0.2-0.6-0.2c0,0.1-0.3-0.1-0.3-0.1l-0.2-0.1c0,0-0.5-0.3-0.6-0.3l-0.6-0.4c0,0-0.4,0.6-0.7,1
			c-0.1,0.2-0.3,0.3-0.3,0.4c0,0-0.4,0.4-0.4,0.5c-0.2,0.2-0.5,0.5-0.8,0.5c0,0-0.2,0-0.3,0s-0.2-0.1-0.3-0.1l-0.1-0.1V162
			c0-0.2,0.1-0.5,0.2-0.6l0.1-0.1c0,0,0.3-0.2,0.3-0.3l0.2-0.3c0-0.1,0.4-0.7,0.5-0.9c0-0.1,0.1-0.2,0.2-0.3
			c0.1-0.1,0.2-0.3,0.3-0.3l0.1-0.1c-0.1,0-0.3-0.3-0.3-0.3c-0.2-0.2-0.2-0.3-0.5-0.5c-0.2-0.1-0.3-0.3-0.4-0.3
			c-0.2-0.2-0.3-0.4-0.5-0.6c-0.1,0-0.1-0.1-0.2-0.1c0,0-0.1,0-0.1-0.1s-0.2-0.3-0.2-0.4l-0.1-0.2l-0.3-0.5l-0.2-0.2
			c-0.1-0.1-0.6-0.3-0.7-0.4l-0.3-0.2l-1.4-1.2c-0.3,0-0.4-0.2-0.7-0.2h-0.3c-0.1,0-0.4,0.1-0.5,0.2c-0.1,0-0.2,0.1-0.3,0.2
			l-0.1,0.1c-0.1,0.1-0.2,0.2-0.2,0.2s-0.1,0.3-0.1,0.4v0.1c0,0.2,0.1,0.5,0.1,0.7c0.1,0.2,0.4,0.7,0.5,0.8s0.2,0.3,0.2,0.3
			c0.1,0,0.3,0.1,0.3,0.1l0.1-0.1c0.2-0.2,0.4-0.4,0.7-0.2h0.1c0.1,0.1,0.2,0.2,0.2,0.4s-0.2,0.5-0.3,0.6s-0.2,0.1-0.3,0.1l-0.5,0.2
			c-0.1,0.1-0.3,0.1-0.4,0c-0.2,0-0.4-0.1-0.6-0.3c-0.3-0.2-0.5-0.5-0.8-0.7c-0.1-0.2-0.4-0.4-0.4-0.6l-0.1-0.5
			c-0.1-0.1-0.1-0.3-0.2-0.4c-0.1-0.3-0.1-0.6-0.1-0.9c0-0.1,0.1-0.3,0.1-0.4c0.1-0.2,0.1-0.6,0.2-0.7c0.1-0.1,0.1-0.2,0.1-0.3v-0.1
			c0.1-0.1,0.4-0.5,0.4-0.6s0.2-0.4,0.2-0.4l0.1-0.2c0.3-0.3,0.6-0.6,0.9-0.8l0.2-0.1l0.7-0.3l0.3-0.1l0.3-0.1
			c0.2-0.1,0.4-0.2,0.7-0.2c0.1,0,0.8,0,0.9,0h0.2l0.7,0.1c0,0,0.1,0,1.6,0.7C165.1,151.4,165.2,151.6,165.3,151.5z"/>
		<path class="st0" d="M160.7,160.7c0.5,0.5,0.5,0.5,0.5,0.5s0.1,0.1,0.1,0.2c0,0.1,0.2,0.2,0.2,0.3l0.4,0.6
			c0.1,0.2,0.3,0.3,0.3,0.5l0.2,0.5c0.1,0.1,0.1,0.3,0.2,0.4c0,0.1,0.1,0.6,0.2,0.7l0.1,0.3c0,0.2,0.2,0.7,0.2,0.9
			c0.1,0.2,0.2,0.4,0.2,0.6v0.3c0,0.1-0.1,0.2-0.1,0.3c0,0.6-0.1,1.1-0.3,1.6l-0.1,0.3c-0.1,0.3-0.3,0.5-0.4,0.8l-0.5,0.8
			c0,0.1,0,0.1-0.1,0.3c-0.2,0.3-0.3,0.4-0.6,0.7l-0.6,0.6c-0.2,0.2-0.4,0.4-0.7,0.5c-0.1,0.1-0.3,0.3-0.5,0.4l-0.5,0.2
			c-0.1,0-0.2,0.1-0.4,0.2c-0.3,0.1-0.6,0.2-0.9,0.2h-0.9c-0.1,0-0.5,0-0.7-0.1c-0.1,0-0.4-0.2-0.5-0.2c-0.1-0.1-0.5-0.3-0.5-0.4
			c0,0-0.3-0.3-0.5-0.4c-0.2-0.2-0.4-0.5-0.6-0.7v-0.1c0,0-0.1-0.2-0.2-0.2c0,0,0-0.1,0-0.2v-0.3l-0.1-0.4c0-0.1,0-0.2,0.1-0.3
			c0,0,0.1-0.2,0.2-0.3v-0.3c0-0.1,0-0.1,0-0.2c0-0.1,0-0.3,0.1-0.4c0-0.1,0.2-0.5,0.2-0.6c0,0,0.1-0.1,0.1-0.2
			c0-0.2,0.1-0.4,0.2-0.6c0-0.1,0.1-0.4,0.2-0.5c0.1-0.1,0.1-0.3,0.3-0.6c0.1-0.2,0.3-0.4,0.4-0.6c0.2-0.4,0.6-0.7,1-1l-0.1-0.1
			c-0.1-0.1-0.1-0.1-0.3-0.2c-0.1,0-0.1,0-0.2-0.1c-0.1-0.1-0.2-0.2-0.4-0.3l-1-0.4c-0.3-0.1-0.6-0.2-0.9-0.2h-0.1
			c-0.1,0-0.3-0.2-1,0.2c-0.1,0-0.8,0.5-1.1,0.7c-0.2,0.2-0.5,0.4-0.7,0.7c-0.1,0.2-0.2,0.3-0.3,0.4l-0.1,0.1l-0.1,0.3v0.2v0.4
			c0,0.3,0.2,0.7,0.2,1c0.1,0.1,0.1,0.1,0.2,0.3c0,0.1,0.1,0.2,0.1,0.3s0.1,0.1,0.1,0.1c0.1,0.1,0.3,0.1,0.3,0.1
			c0.1,0.1,0.2-0.1,0.3-0.1c0.2-0.1,0.4-0.1,0.5,0c0.1,0,0.2,0.1,0.2,0.2c0.1,0.2,0.1,0.5,0,0.8c0,0-0.1,0.3-0.2,0.3v0.1l-0.1,0.1
			l-0.3,0.3c-0.2,0.2-0.6,0.4-0.9,0.2h-0.2c-0.1,0-0.2,0-0.3,0l-0.2-0.1c-0.3-0.2-0.5-0.5-0.7-0.8l-0.2-0.2c0-0.1-0.1-0.2-0.2-0.3
			c-0.2-0.4-0.2-0.9-0.3-1.3c0.1-0.1,0-0.2,0-0.3v-0.4v-0.1l0.2-1.1c0-0.3,0.2-0.6,0.3-0.9c0.3-0.8,0.4-1,0.4-1.1s0,0,0.1-0.2
			c0.1-0.1,0.3-0.4,0.4-0.5l0.5-0.6c0.1-0.1,0.6-0.8,0.7-0.9c0,0,0.2-0.3,0.3-0.3c0.4-0.4,0.9-0.8,1.4-1.1c0.2-0.1,0.5-0.2,0.7-0.3
			l1.6-0.4c0.1,0,0.2,0,0.3,0c0.3-0.1,0.6-0.1,0.9-0.1c0.3,0,0.5,0,0.8,0c0.1,0.1,0.2,0.1,0.4,0.1h0.2l1.5,0.6L160.7,160.7z
			 M157.8,165.8l-0.3,0.3c-0.1,0.1-0.2,0.1-0.3,0.2c-0.1,0.1-0.2,0.3-0.4,0.5c-0.1,0.2-0.2,0.4-0.4,0.8c-0.1,0.2-0.2,0.4-0.3,0.6
			l-0.2,0.7c-0.1,0.1,0,0.3-0.1,0.4c0,0.1-0.1,0.2-0.1,0.4l-0.2,1.4c0,0.1,0.1,0.2,0.2,0.2c0.1,0,0.2,0.2,0.2,0.2l0.1,0.1
			c0.3,0.1,0.6,0.2,0.8,0.2h0.1c0.4,0,0.7,0.1,1.1,0c0.2-0.1,0.5-0.1,0.7-0.3c0.1-0.1,0.2-0.1,0.3-0.2c0.2-0.3,0.3-0.6,0.5-0.9
			c0-0.1,0-0.2,0-0.2l0.1-0.5c0-0.1,0-0.3,0-0.3l-0.1-0.5c-0.2-0.7-0.5-1.3-0.9-1.8l-0.5-0.6C158,166.3,158,166.1,157.8,165.8
			C157.9,165.7,157.8,165.8,157.8,165.8z"/>
		<path class="st0" d="M145.4,168.7l0.3,0.2c0,0,0.1,0,0.2,0.1c0.1,0.1,0.2,0.1,0.3,0.2c0,0,0.3,0.1,0.4,0.1c0,0,0.2,0.1,0.2,0.2
			c0.1,0,0.4,0.3,0.6,0.4c0.1,0.1,0.3,0.3,0.4,0.3l1.4,0.9c0.1,0.1,0.3,0.3,0.5,0.4c0.1,0.1,0.4,0.5,0.4,0.5l0.5,0.8
			c0.2,0.2,0.3,0.4,0.5,0.7l0.3,0.3c0,0.1,0.2,0.3,0.2,0.3l0.6,0.9c0.1,0.1,0.3,0.5,0.3,0.5l0.3,0.3c0.2,0.3,0.3,0.6,0.5,0.9
			c0.2,0.3,0.4,0.6,0.3,1c-0.1,0.1-0.1,0.2-0.2,0.3c-0.1,0.1-0.1,0.1-0.2,0.1c-0.2,0.1-0.4,0-0.6-0.1l-0.3-0.1
			c-0.2-0.1-0.6-0.2-0.6-0.2s0,0.2-0.1,0.2v0.2l-0.1,0.7c0,0.1-0.1,0.3-0.1,0.3c0,0.1-0.1,0.3-0.2,0.4c0,0-0.1,0.1-0.1,0.2
			c0,0.1-0.2,0.3-0.2,0.3l-0.1,0.2l-0.2,0.2c-0.1,0.1-0.3,0.2-0.4,0.3l-0.3,0.3c-0.1,0.1-0.3,0.1-0.5,0.1h-0.1c-0.2,0-0.4,0-0.6,0
			c-0.1,0-0.1-0.1-0.2-0.1c-0.1,0-0.3-0.1-0.3-0.2c-0.1-0.1-0.3-0.2-0.2-0.4c0-0.3,0-0.4,0.3-0.7c0.2-0.3,0.4-0.3,0.7-0.2
			c0,0,0.1,0,0.2,0c0.1,0,0.2,0,0.3,0c0,0,0.2-0.1,0.3-0.2c0.1-0.2,0.2-0.4,0.3-0.6v-0.4c-0.1-0.2,0-0.2,0-0.4c0-0.1,0-0.2,0-0.3
			v-0.4c0-0.1,0-0.2,0-0.2c0-0.1-0.1-0.2-0.1-0.3c-0.1-0.1-0.1-0.1-0.2-0.1l-0.5-0.4l-0.5-0.2l-0.7-0.4c-0.1,0-0.4-0.3-0.5-0.4
			l-0.9-0.8c-0.3-0.3-0.6-0.7-0.9-1c0,0-0.1-0.1-0.1-0.2c0-0.2-0.1-0.4-0.2-0.7l-0.1-0.2c-0.1-0.1-0.1-0.3-0.2-0.4
			c0-0.4,0-0.6,0-0.9c0-0.1-0.1-0.2,0-0.7c0-0.1-0.1-0.3-0.1-0.5s-0.2-0.3-0.2-0.5V169c0-0.1,0-0.1,0-0.2c0-0.1,0.1-0.1,0.1-0.2
			c0,0,0.2-0.1,0.3-0.1L145.4,168.7z"/>
	</g>
	<g>
		<g>
			<path class="st5" d="M90.8,134c0.1-0.6,0.1-0.7,0.1-0.7s0-0.2,0.1-0.2c0.1-0.1,0-0.3,0.1-0.3l0.2-0.6c0.1-0.2,0.1-0.4,0.2-0.5
				l0.2-0.4c0-0.1,0.2-0.3,0.2-0.4c0-0.1,0.4-0.4,0.5-0.5l0.2-0.2c0.1-0.1,0.5-0.5,0.5-0.6c0.1-0.1,0.2-0.3,0.4-0.5l0.2-0.2
				c0.1-0.1,0.2,0,0.3-0.1c0.4-0.3,0.9-0.5,1.4-0.7l0.3-0.1c0.3-0.1,0.5-0.1,0.8-0.1h0.8c0.1,0,0.1,0,0.3,0c0.3,0,0.5,0,0.8,0.1
				l0.8,0.1c0.2,0,0.5,0.1,0.8,0.3c0.2,0,0.4,0.1,0.6,0.1l0.4,0.3c0.1,0.1,0.2,0.1,0.3,0.2c0.2,0.2,0.5,0.4,0.7,0.6l0.5,0.7
				c0,0.1,0.2,0.4,0.3,0.6c0,0.1,0.1,0.4,0.1,0.5s0,0.5,0,0.6c0,0,0,0.4,0,0.5c0,0.3-0.1,0.5-0.3,0.8v0.1l-0.1,0.2l-0.1,0.1
				l-0.2,0.2c0,0-0.2,0.2-0.3,0.3s-0.2,0.1-0.3,0.1c0,0-0.2,0-0.3,0l-0.2,0.1c-0.1,0-0.1,0-0.2,0.1c-0.1,0.1-0.2,0.2-0.3,0.2
				s-0.5,0.1-0.6,0.1c0,0-0.1,0-0.2,0c-0.2,0.1-0.4,0.1-0.6,0.1l-0.4,0.1c-0.2,0-0.3,0.1-0.6,0.1c-0.2,0-0.5,0-0.7,0
				c-0.4,0-0.8-0.1-1.3-0.2v0.1c0,0.1,0,0.2,0,0.3s0,0.1,0,0.2c0,0.1,0,0.3,0,0.5l0.2,1c0.1,0.3,0.2,0.6,0.3,0.8c0,0,0.1,0,0.1,0.1
				c0.1,0.1,0.1,0.3,0.6,0.6c0,0.1,0.8,0.4,1,0.5c0.2,0,0.5,0.2,0.8,0.2c0.2,0,0.3,0,0.4,0h0.1c0,0,0.3,0,0.3-0.1l0.2-0.1l0.3-0.2
				c0.2-0.2,0.4-0.5,0.6-0.7c0-0.1,0-0.2,0.1-0.3c0-0.1,0.1-0.2,0.1-0.2c0.1,0,0-0.1,0-0.2c0-0.1-0.1-0.3-0.1-0.3
				c0-0.1-0.1-0.1-0.3-0.2c-0.1-0.1-0.3-0.2-0.3-0.4c0-0.1,0-0.2,0-0.3c0.1-0.2,0.3-0.4,0.6-0.4h0.3l0.1-0.1h0.1l0.4,0.1
				c0.3,0.1,0.6,0.3,0.6,0.5l0.1,0.1c0,0.1,0.1,0.1,0.1,0.2v0.2c0,0.4-0.1,0.6-0.3,0.9c0,0,0,0.2-0.1,0.2c0,0-0.1,0.2-0.1,0.3
				c-0.2,0.3-0.5,0.6-0.8,0.9c-0.1,0-0.1,0.1-0.2,0.2l-0.3,0.2H101l-0.9,0.4c-0.2,0.1-0.6,0.1-0.8,0.2c-0.8,0.2-1,0.2-1,0.2
				c-0.1,0,0,0-0.2,0c-0.1,0-0.4,0-0.6,0l-0.7-0.1c-0.1,0-0.9,0-1,0c0,0-0.3,0-0.4-0.1c-0.5-0.1-1.1-0.2-1.5-0.5
				c-0.2-0.1-0.4-0.2-0.6-0.4l-1.1-1c0-0.1-0.1-0.2-0.1-0.2c-0.2-0.2-0.3-0.4-0.5-0.6c-0.1-0.2-0.3-0.4-0.4-0.6c0-0.1,0-0.2-0.1-0.3
				l-0.1-0.2l-0.3-1.4L90.8,134z M96.1,133.5c0,0,0.3,0.1,0.4,0.1s0.2,0.1,0.3,0.1c0.2,0,0.3,0,0.6,0c0.2,0,0.5,0,0.8-0.1
				c0.2-0.1,0.4-0.1,0.6-0.1l0.7-0.2c0.1,0,0.2-0.2,0.4-0.2c0.1,0,0.2,0,0.3-0.1l1.1-0.6c0,0,0.1-0.1,0.1-0.2c0-0.1,0-0.2,0-0.2
				v-0.1c-0.1-0.3-0.1-0.5-0.2-0.8l-0.1-0.1c-0.2-0.3-0.3-0.6-0.5-0.9c-0.2-0.1-0.3-0.3-0.6-0.4c-0.1,0-0.2-0.1-0.3-0.1
				c-0.3,0-0.6,0.1-0.9,0.1c-0.1,0-0.1,0.1-0.2,0.1l-0.5,0.2c-0.1,0-0.2,0.1-0.3,0.1l-0.3,0.3c-0.4,0.5-0.7,1-0.9,1.6l-0.2,0.7
				C96.2,133,96,133.2,96.1,133.5L96.1,133.5z"/>
			<path class="st5" d="M110.7,139.5c0-0.1,0-0.1,0-0.2c0,0,0-0.3,0-0.4l-0.2,0.1c-0.1,0.1-0.5,0.2-0.6,0.2
				c-0.2,0.1-0.5,0.1-0.7,0.1c0,0-0.7,0.1-1.3,0.1c0,0-0.8-0.2-1.1-0.2c-0.1,0-0.2-0.1-0.3-0.1c-0.3-0.1-0.6-0.3-0.8-0.5
				c-0.1-0.1-0.4-0.4-0.4-0.5c-0.1-0.2-0.2-0.4-0.3-0.6c-0.1-0.3-0.3-0.6-0.4-0.9v-0.4c0-0.2-0.1-0.3-0.2-0.5c0-0.1,0-0.3,0-0.4
				v-0.2c0-0.1,0-0.3,0.1-0.5c0.1-0.1,0.1-0.3,0.2-0.4c0.1-0.2,0.2-0.4,0.2-0.6c0.1-0.1,0.1-0.3,0.2-0.3c0-0.1,0.1-0.2,0.1-0.2
				c0.2-0.3,0.5-0.6,0.8-0.7l0.2-0.1l0.6-0.3c0.1-0.1,0.4-0.1,0.5-0.1c0.3-0.1,0.7-0.1,1-0.2c0,0,0,0,0.1,0c0.3,0,0.4,0.1,0.5,0.1
				h0.3c0.1,0,0.4,0.1,0.4,0.1c0.1,0,0.4,0.1,0.4,0.1c0.1,0,0.3,0,0.4,0.1V132l0.1-0.8c0,0,0.2-1.1,0.3-1.5c0,0,0.1-0.3,0.1-0.4
				c0-0.1,0.1-0.3,0.1-0.5c0.1-0.2,0.1-0.5,0.2-0.7l0.1-1.2l0.1-0.3v-0.5c0-0.2,0.2-0.5,0.4-0.6c0-0.1,0-0.1,0.1-0.2
				c0,0,0.1-0.2,0.1-0.3l0.1-0.2l0.1-0.1c0.1-0.1,0.2-0.1,0.3-0.1s0.1,0,0.2,0.1c0.1,0.1,0.2,0.2,0.2,0.4c0,0,0,0.2,0.1,0.3l0.1,0.1
				c0,0.1,0.1,0.1,0.1,0.1c0.3,0.5,0.3,0.5,0.3,0.5s0.1,0.2,0.1,0.3c0.1,0.3,0.2,0.6,0.2,0.9c0.1,0.3,0.1,0.7,0.1,1
				c0,0,0.1,0.2,0.1,0.3s0,0.1,0,0.2c0,0.1,0,0.1,0,0.2c0.1,0.1,0,0.2,0,0.3v0.2c0,0.1,0,0.5,0,0.5c0,0.2,0,0.3,0,0.5
				c0,0.1,0.1,0.6,0,0.6c0,0,0,0.1,0,0.2c0,0.3-0.1,0.7-0.1,1c0,0,0,0.5,0,0.6v0.5v0.5l-0.1,0.3c0,0.3-0.1,0.5-0.2,0.8l-0.2,0.4
				c0,0.2-0.1,0.3-0.1,0.5c-0.1,0.2,0,0.4-0.1,0.6l-0.2,0.3l-0.2,0.2c-0.1,0.1-0.1,0.3-0.2,0.4c-0.1,0.1-0.2,0.2-0.2,0.4
				c0,0.1-0.1,0.3-0.1,0.4l-0.1,0.2c-0.1,0.2-0.2,0.4-0.3,0.6l-0.2,0.3c0,0.1-0.1,0.2-0.2,0.2c-0.2,0.2-0.2,0.2-0.3,0.4l-0.2,0.2
				c0,0.1-0.1,0.1-0.1,0.1h-0.2c-0.1-0.1-0.1-0.2-0.1-0.2C110.7,139.9,110.7,139.7,110.7,139.5z M106.6,136.3c0,0,0,0.2,0,0.3
				c0,0,0,0.4,0,0.5l0.1,0.3c0,0,0.1,0.2,0.1,0.3c0.2,0.3,0.4,0.5,0.7,0.6c0,0.1,0.4,0.1,0.5,0.2c0.1,0,0.2,0,0.3,0
				c0.3,0,0.6,0,0.9-0.1c0.1,0,0.3-0.1,0.4-0.1c0,0,0.2-0.1,0.2-0.2c0.2-0.1,0.6-0.4,0.7-0.4v-0.1c0.1-0.8-0.1-1.6-0.1-2.5v-0.2
				c0,0,0-0.4-0.1-0.4c0-0.3-0.1-0.6-0.1-0.9c0-0.1,0-0.2,0-0.4c0-0.1,0-0.3,0.1-0.4c0,0-0.1,0-0.2,0h-0.3c-0.2,0-0.3,0.2-0.6,0.2
				c-0.1,0-0.2,0.1-0.3,0.1l-0.2,0.1c0,0-0.3,0.1-0.3,0.2c-0.3,0.2-0.6,0.2-0.8,0.4l-0.5,0.6l-0.5,0.4c0,0.2-0.2,0.4-0.2,0.5
				c0,0,0,0.1,0,0.2c0,0.1,0,0.2,0,0.4C106.6,135.9,106.7,136.2,106.6,136.3z"/>
			<path class="st5" d="M116.6,140.3c-0.1-0.2-0.1-0.4-0.1-0.6l-0.4-1.1l-0.1-0.1l-0.6-2c0-0.1-0.1-0.4-0.1-0.4
				c0-0.1-0.1-0.6-0.1-0.8V135c0-0.1,0-0.3,0-0.4v-1.2c0,0,0-0.1,0-0.2c0.1-0.5,0.3-0.9,0.5-1.3l0.1-0.2c0-0.1,0.1-0.3,0.2-0.4
				c0-0.1,0.2-0.2,0.2-0.2l0.1-0.3c0-0.1,0.1-0.2,0.2-0.3l0.1-0.2l0.1-0.1l0.1-0.1c0,0,0.1,0,0.2,0c0.1,0,0.1,0.1,0.1,0.2
				c0.1,0,0.1,0.2,0.1,0.2c0,0.1,0.1,0.1,0.2,0.2l0.4,0.4c0.1,0.3,0.3,0.6,0.5,0.9l0.1,0.2c0.1,0.3,0.1,0.6,0.2,0.9l0.1,0.4
				c0,0.1,0.1,0.4,0.1,0.5c0,0.2,0,0.3,0,0.5c0,0.1-0.1,0.4-0.1,0.4c0,0.2-0.1,1.1-0.1,1.3v0.5c0,0.1-0.1,0.7-0.2,1
				c0,0.2-0.1,0.4-0.2,0.5c-0.1,0.1-0.1,0.2-0.2,0.3c0,0.1-0.2,0.4-0.3,0.5c0,0.1-0.1,0.4-0.1,0.5v0.1v0.1c0,0.1,0,0.2-0.1,0.2
				c-0.1,0.2-0.2,0.4-0.3,0.6c0,0.1-0.1,0.4-0.1,0.4c0,0.1-0.1,0.5-0.1,0.5c0,0.1-0.1,0.1-0.2,0.2c-0.1,0-0.1,0-0.1,0
				s-0.2,0-0.2-0.1c0-0.2,0-0.3-0.1-0.4c0-0.1,0-0.2,0-0.3C116.7,140.5,116.6,140.4,116.6,140.3z M116.3,128.3
				c-0.1,0-0.3-0.4-0.4-0.4l-0.1-0.2c0,0,0-0.1,0-0.2c0-0.1,0-0.2,0-0.3c0,0,0-0.2,0-0.3v-0.3c0-0.1,0.1-0.2,0.1-0.2s0-0.1,0-0.2
				c0,0,0-0.2,0.1-0.2c0,0,0.1-0.2,0.2-0.2c0-0.1,0.2-0.2,0.3-0.2s0.2,0.1,0.3,0.1s0.2-0.1,0.4-0.1s0.3,0.1,0.5,0.1
				c0.1,0,0.3,0.1,0.4,0.2c0,0,0.1,0,0.1,0.1l0.2,0.1c0.1,0.1,0.1,0.2,0.2,0.3l0.1,0.1c0,0.1,0.1,0.2,0.1,0.3c0,0.2-0.1,0.4-0.2,0.7
				c0,0.1,0,0.2-0.1,0.3c0,0-0.1,0.1-0.1,0.2c0,0.1-0.2,0.3-0.2,0.3c-0.1,0-0.2,0.2-0.2,0.2h-0.1c-0.1,0-0.1,0-0.3,0
				c-0.1,0-0.2,0-0.3-0.1c0,0-0.1,0-0.2,0l-0.3-0.1c0,0-0.1,0-0.2,0L116.3,128.3z"/>
			<path class="st5" d="M126.9,140.2c0-0.1,0-0.4,0-0.5s0-0.2,0-0.3v-0.1l-0.6,0.2l-0.5,0.3l-0.3,0.2c-0.1,0.1-0.3,0.2-0.4,0.3
				c-0.1,0-0.4,0.3-0.5,0.4l-0.3,0.1c-0.1,0-0.3,0.1-0.4,0.1c-0.1,0-0.3,0-0.3,0c-0.2,0-0.5-0.1-0.7-0.1c0-0.1-0.5-0.2-0.6-0.4
				c-0.1,0-0.2-0.1-0.3-0.2l-0.4-0.4c-0.2-0.1-0.3-0.3-0.5-0.5l-0.3-0.5l-0.1-0.2c-0.1-0.2-0.1-0.4-0.2-0.7l-0.1-0.5
				c0,0,0-0.3-0.1-0.3V137c0-0.1-0.1-0.3-0.1-0.4c0-0.1,0-0.2,0-0.3s0-0.7,0-0.9V135v-0.1V134c0-0.1,0-0.3,0-0.4l0.1-0.9
				c0-0.1,0.1-0.3,0.1-0.3s0.1-0.3,0.2-0.4c0-0.1,0.1-0.3,0.2-0.4l0.2-0.3v-0.2c0.1,0,0-0.2,0.2-0.3v-0.1c0.1-0.2,0.4-1,0.5-1.1
				c0.1-0.3,0.3-0.6,0.6-0.7c0.1,0,0.2-0.1,0.3-0.1c0.2,0,0.3,0.2,0.4,0.4v0.1c0,0.1,0.1,0.2,0.1,0.3v0.3c0,0.2,0,0.4,0,0.6
				c0.1,0.1,0.1,0.2,0.2,0.3c0,0,0,0.1,0.1,0.1l0.1,0.4c0,0.1,0,0.2,0,0.2c0,0.1-0.1,0.4-0.1,0.5v0.1c0,0.1-0.2,0.6-0.2,0.7
				c0,0.1,0,0.2-0.1,0.2l-0.1,0.1c-0.1,0.2-0.1,0.5-0.2,0.7l-0.1,0.6v0.5l-0.2,1.8v0.9v0.1c0,0.3,0.2,0.6,0.3,0.9l0.1,0.1
				c0,0,0.4,0.3,0.5,0.3c0.1,0.1,0.3,0.1,0.4,0.2c0.3,0,0.5,0,0.8,0c0.1,0,0.2,0,0.2,0s0.4-0.1,1.5-0.7l0.2-0.2l0.6-0.4
				c0.1-0.1,0.1-0.1,0.1-0.1v-0.2c0-0.2,0-0.5,0-0.7c0-0.3,0-0.5,0-0.9c0,0,0,0,0-0.1c0-0.2,0.1-0.4,0.1-0.5v-0.2
				c0.1-0.3,0.1-0.6,0.1-0.9c0-0.1,0.1-1,0.2-1.1V133v-0.3c0-0.1,0.1-0.5,0.1-0.6c0-0.3,0.1-0.9,0.1-0.9c0-0.1,0.1-0.3,0.1-0.4
				l0.1-0.5c0-0.1,0.1-0.1,0.1-0.3l0.2-0.7c0,0,0.1-0.1,0.1-0.2c0.1-0.1,0.2-0.3,0.3-0.3c0,0,0.2-0.1,0.3-0.1c0.2,0,0.6,0.3,0.7,0.4
				c0.1,0.1,0.3,0.3,0.4,0.4l0.3,0.4l0.1,0.2c0.1,0.1,0.1,0.2,0.2,0.4c0.1,0.1,0.4,0.5,0.4,0.6l0.1,0.1l0.2,0.3
				c0.2,0.3,0.3,0.7,0.3,1v0.1c0,0.1,0.1,0.2,0.1,0.2v0.2c0,0,0.1,0.6,0.1,0.7v0.1c0,0.3,0,0.6,0,0.9c0,0-0.1,0.2-0.1,0.3l-0.1,0.4
				c0,0.4-0.2,0.7-0.2,1c0,0.1-0.1,0.3-0.1,0.3v0.3l-0.1,0.2l-0.1,0.2l-0.1,0.1v0.2c0,0.2-0.1,0.3-0.2,0.4c0,0.1-0.2,0.3-0.3,0.3
				l-0.3,0.3l-0.2,0.3c-0.2,0.2-0.4,0.3-0.6,0.5c0,0-0.1,0-0.1,0.1s-0.3,0.4-0.3,0.5s-0.1,0.2-0.1,0.2c-0.1,0.1-0.3,0.3-0.4,0.4
				c0,0-0.2,0.2-0.3,0.2c-0.1,0.1-0.1,0-0.1,0.1c-0.2,0.2-0.3,0.3-0.6,0.4h-0.1c-0.4,0-0.4-0.3-0.5-0.6L126.9,140.2z"/>
			<path class="st5" d="M138.4,139.5c0-0.1,0-0.4,0-0.4s0-0.1,0-0.2c0-0.1,0-0.2,0-0.3s0-0.2,0-0.4v-0.4c0-0.4,0-0.7,0.1-1v-0.2
				c0,0,0,0,0-0.3c0-0.1,0-0.5,0-0.5v-0.6c0-0.2,0-0.5-0.1-0.7c0-0.1,0-0.4,0-0.4c0-0.1,0-0.1,0-0.4v-0.1v-0.2c0-0.1,0-0.3,0-0.4
				c0-0.1-0.1-0.3-0.1-0.5c0-0.1-0.1-0.4-0.1-0.4c0-0.1-0.2-0.4-0.2-0.4c-0.2-0.3-0.2-0.3-0.2-0.3c-0.1-0.1-0.1-0.2-0.3-0.2
				c-0.1,0-0.3,0-0.4,0.1l-0.4,0.3c0,0.1-0.2,0-0.3,0.3l-0.4,0.4c0,0.1-0.2,0.3-0.3,0.4c-0.1,0.1-0.1,0.1-0.2,0.2l-0.3,0.5
				c-0.1,0.2-0.1,0.3-0.2,0.5c0,0.1,0,0.2,0,0.3v0.2c0,0.1,0,0.7,0,0.8c-0.1,1.5-0.2,1.9-0.3,2.2c-0.2,0.5-0.4,0.8-0.6,1.3l-0.1,0.1
				c-0.1,0.1-0.1,0.2-0.1,0.3c0,0,0,0.2-0.1,0.3c0,0.1-0.1,0.3-0.2,0.4c-0.1,0-0.1,0-0.2,0c-0.1,0-0.1,0-0.2,0l-0.2-0.6
				c0-0.1-0.1-0.2-0.1-0.3v-1c0,0-0.1-0.4-0.1-0.5v-0.2c0-0.1,0-0.2,0-0.3s-0.1-0.6-0.2-0.7c0-0.1,0-0.4,0-0.4c0-0.1,0-0.6,0-0.6
				v-0.3c0-0.1,0-0.7,0-0.8c0-0.2,0-0.4,0-0.7c0-0.5,0.1-1.1,0.2-1.6l0.2-0.9c0.1-0.1,0.1-0.3,0.1-0.4c0-0.1,0.1-0.4,0.2-0.4
				c0,0,0.1-0.1,0.2-0.1c0.1,0,0.3,0.1,0.3,0.1l0.2,0.2l0.2,0.3c0.1,0.1,0.2,0.3,0.3,0.5l0.2,0.5c0,0.1,0.1,0.2,0.1,0.3
				c0.1-0.3,0.5-0.5,0.5-0.6c0.1-0.1,0.2-0.2,0.3-0.3c0.3-0.2,0.5-0.4,0.8-0.6c0.1,0,0.1-0.1,0.2-0.1l0.4-0.2c0.1,0,0.1,0,0.3,0
				c0.1,0,0.3,0.1,0.5,0.1c0.1,0,0.4,0.1,0.4,0.1h0.1l0.9,0.5c0.1,0,0.3,0.1,0.4,0.3l0.1,0.1c0,0,0.2,0.2,0.3,0.2
				c0.1,0.1,0.2,0.3,0.4,0.4c0.1,0,0.3,0.3,0.3,0.3h0.1c0.1-0.2,0.3-0.3,0.5-0.5l0.2-0.2c0,0,0.2-0.1,0.2-0.2l0.2-0.2
				c0.3-0.3,0.6-0.6,0.9-0.9c0.1,0,0.2-0.1,0.2-0.1c0.1,0,0.2,0,0.3,0s0.2,0,0.3,0.1l0.3,0.2c0.1,0.1,0.2,0,0.3,0.1
				c0.2,0.1,0.3,0.2,0.5,0.2l0.5,0.4c0.2,0.1,0.4,0.2,0.5,0.4c0.1,0.1,0.7,0.7,0.8,0.9l0.3,0.3l0.2,0.3c0.1,0.1,0.2,0.2,0.2,0.3
				l0.2,0.4l0.4,1l0.1,0.2c0.1,0.2,0.2,0.5,0.1,0.8c0,0.2-0.1,0.3-0.1,0.5c0,0.1,0,0.3,0,0.4v0.1c0,0-0.1,0.4-0.2,0.5
				c0,0.1,0,0.1,0,0.2v0.2c0,0.2-0.2,0.3-0.3,0.5c-0.1,0.1-0.1,0.1-0.2,0.2c0,0-0.2,0.2-0.2,0.3c-0.3,0.3-0.8,0.6-1.2,0.8
				c-0.1,0-0.3,0.1-0.4,0.2l-1.1,1c-0.1,0-0.2,0.2-0.4,0.2h-0.1c0-0.1,0-0.2,0-0.4V140c0-0.1,0-0.3,0-0.4c0-0.1,0-0.2,0.1-0.4
				c0,0,0-0.1,0.1-0.2l0.2-1.7l0.1-0.4c0.1-0.2,0.1-0.4,0.1-0.6v-0.4c0-0.1,0-0.3,0.1-0.5c0-0.2,0-0.4,0-0.5c0-1.1,0-1.1,0-1.1
				c0-0.2,0-0.6,0-0.6c0-0.1,0-0.2,0-0.3c-0.1-0.1-0.1-0.3-0.1-0.4c-0.1-0.1-0.2-0.2-0.2-0.3c-0.1-0.1-0.3-0.3-0.5-0.3
				s-0.3,0.1-0.5,0.2c-0.3,0.2-0.6,0.4-1,0.7l-0.4,0.5c-0.1,0.1-0.1,0.1-0.1,0.2v0.2c0,0.2,0.1,0.3,0.1,0.5v0.1v0.3
				c0,0.2,0.1,0.4,0.2,0.5v0.1c0,0.1,0,0.4,0,0.4c0,0.1-0.1,0.2-0.1,0.3c-0.1,0.1-0.1,0.3-0.2,0.4l-0.2,0.5v0.1
				c-0.2,0.3-0.4,0.4-0.7,0.7c0,0.1-0.2,0.4-0.3,0.4v0.1l-0.2,0.3l-0.1,0.3c0,0-0.2,0.2-0.3,0.3l-0.1,0.1l-0.2,0.4l-0.2,0.3
				c0,0.1-0.1,0.4-0.2,0.4c-0.1,0.1-0.2,0.3-0.4,0.3c-0.1,0-0.2-0.1-0.2-0.2l-0.1-0.2C138.5,139.8,138.4,139.6,138.4,139.5z"/>
			<g>
				<path class="st5" d="M88.3,138.1c0,0,0-0.3-0.1-0.3c-0.1-0.3-0.5-1.8-0.6-2.1c0-0.1-0.2-0.4-0.2-0.4l-0.1-0.2l-0.3-1
					c-0.1-0.1-0.1-0.2-0.2-0.3l-0.6,1.3v0.1c-0.2,0.4-0.4,0.8-0.6,1.2c-0.1,0.3-0.2,0.6-0.3,0.8c-0.1,0.3-0.5,0.5-0.5,0.8
					c-0.1,0-0.2,0.2-0.3,0.2c0,0-0.1,0-0.2,0c0,0,0,0-0.1,0c-0.2,0-0.3-0.1-0.4-0.1c-0.2-0.1-0.3-0.3-0.5-0.5c0,0-0.1-0.1-0.1-0.2
					l-0.2-0.3c-0.1-0.1-0.2-0.3-0.2-0.4l-0.4-0.7l-0.1-0.2c0,0-0.1-0.3-0.1-0.4c-0.2-0.3-0.3-0.7-0.5-1c0,0-0.2-0.4-0.3-0.5
					c0-0.1,0-0.2-0.1-0.2c0-0.1-0.2-0.4-0.3-0.5l-0.1-0.2c0-0.1-0.2-0.3-0.2-0.3v0.2c-0.1,0.3-0.1,0.4-0.1,0.4c0,0.1,0,0.3-0.1,0.4
					c0,0,0,0.3,0,0.4l-0.1,0.8l-0.1,0.3c0,0.1,0,0.6,0,0.6l-0.1,0.5l-0.2,1.8c-0.1,0.1,0,0.3-0.1,0.5l-0.2,0.7l-0.1,0.3
					c0,0.1-0.2,0.6-0.3,0.8c-0.1,0.2-0.2,0.3-0.3,0.4c-0.1,0.1-0.3,0.1-0.4,0.2l-0.2,0.1l-0.3,0.2h-0.3c-0.1,0-0.2-0.1-0.3-0.1
					c0,0-0.1-0.1-0.1-0.2c0-0.1,0-0.1,0-0.2c0-0.1-0.2-0.7-0.2-0.9s-0.1-0.8-0.1-0.9l0.1-2.1l0.2-1.2v-0.2c0.1-0.5,0.2-1,0.3-1.5
					c0,0,0.1-0.2,0.1-0.3l0.1-0.6c0.1-0.2,0.1-0.4,0.1-0.6c0-0.3,0.1-0.6,0.2-0.9l0.3-1.5c0,0,0.1-0.4,0.1-0.5
					c0.1-0.4,0.2-0.8,0.3-1.3l0.1-0.2c0.1-0.2,0.2-0.4,0.2-0.5l0.1-0.2l0.2-0.5c0.1,0,0.1-0.1,0.1-0.2c0.1-0.2,0.2-0.3,0.5-0.3
					c0.2,0,0.5,0.2,0.5,0.3s0.1,0.2,0.1,0.3c0.1,0.1,0.1,0.3,0.2,0.4l0.1,0.2c0,0.1,0.2,0.2,0.2,0.2c0.1,0.2,0.2,0.4,0.3,0.7
					c0,0,0,0.2,0.1,0.2s0.2,0.4,0.2,0.5l0.4,0.7l0.2,0.4l0.1,0.2c0,0,0.1,0.3,0.2,0.4c0.1,0.1,0.2,0.3,0.3,0.4l0.1,0.1
					c0.2,0.5,0.4,1,0.6,1.5c0.1,0.1,0.2,0.4,0.3,0.5c0-0.4,0.1-0.6,0.2-1l0.2-0.8c0,0,0.1-0.4,0.1-0.5c0-0.3,0-0.6,0.1-0.8
					c0-0.1,0.1-0.3,0.1-0.4l0.1-0.7l0.1-0.3c0.1-0.3,0-0.6,0.1-0.8s0.1-0.3,0.2-0.5l0.1-0.2c0,0,0-0.1,0-0.2
					c0.1-0.4,0.1-0.5,0.1-0.5c0-0.1,0.1-0.3,0.1-0.4l0.1-0.1c0,0,0-0.1,0.1-0.1s0.2-0.1,0.3-0.2c0.1,0,0.2,0,0.3,0.1l0.2,0.2
					c0,0,0.1,0,0.2,0.1s0.3,0.3,0.3,0.3l0.1,0.1c0.1,0.2,0.2,0.5,0.3,0.6l0.1,0.2c0,0,0.1,0.1,0.1,0.2c0.1,0.1,0.1,0.2,0.1,0.4
					L88,129c0,0.2,0.1,0.4,0.1,0.5c0,0.2,0.1,0.1,0.2,0.2c0,0.1,0.1,0.2,0.1,0.3l0.6,2.1c0,0,0,0.2,0,0.3s0.1,0.2,0.2,0.3
					c0.3,0.3,0.3,1.2,0.3,1.2c0,0.1,0.1,0.2,0.1,0.3c0.1,0.1,0,0.4,0.1,0.5c0,0,0,0.3,0.1,0.4c0,0.2,0.1,0.4,0.2,0.5v0.1
					c0.2,1,0.2,2,0.3,3c0,0.2,0.1,0.5,0.1,0.7c0,0.1,0,0.3,0,0.4c0,0.1,0,0.2,0,0.3c0,0.2,0,0.4-0.1,0.6c0,0.1-0.1,0.1-0.3,0.1
					c-0.1,0-0.2,0-0.2,0c-0.1,0-0.1,0-0.1-0.1c-0.4-0.2-0.5-0.6-0.6-1c0-0.1,0-0.2-0.1-0.3L88.3,138.1z"/>
			</g>
		</g>
		<g>
			<path class="st5" d="M96.8,181c-0.1-0.2-0.1-0.4-0.1-0.7l-0.4-1.2l-0.1-0.2l-0.6-2.3c0-0.1-0.1-0.4-0.1-0.5s0-0.7-0.1-0.9v-0.3
				c0-0.1,0-0.4,0-0.5l0.1-1.4v-0.2c0.1-0.6,0.4-1,0.6-1.5l0.1-0.3c0-0.2,0.1-0.4,0.3-0.5c0-0.1,0.2-0.2,0.2-0.2l0.1-0.3
				c0-0.1,0.2-0.2,0.2-0.3l0.1-0.2l0.1-0.2l0.1-0.1c0,0,0.2,0,0.2,0.1c0.1,0,0.1,0.1,0.1,0.2c0.1,0,0.1,0.2,0.1,0.2
				c0,0.1,0.1,0.1,0.2,0.2l0.4,0.5c0.1,0.4,0.4,0.7,0.6,1c0,0,0.1,0.2,0.2,0.2c0.1,0.3,0.2,0.7,0.2,1l0.1,0.5c0,0.1,0.1,0.5,0.1,0.5
				c0,0.2,0,0.4,0,0.6c0,0.1-0.1,0.4-0.1,0.5c0,0.2-0.1,1.2-0.1,1.5v0.6c0,0.1-0.2,0.8-0.2,1.1c0,0.2-0.1,0.4-0.2,0.6
				c-0.1,0.1-0.1,0.2-0.2,0.3c0,0.1-0.3,0.5-0.3,0.6s-0.1,0.4-0.1,0.5v0.1c0,0,0,0.1,0,0.2c0,0.1-0.1,0.2-0.1,0.3
				c-0.1,0.2-0.3,0.5-0.3,0.7c0,0.1-0.1,0.4-0.1,0.5s-0.1,0.5-0.2,0.6c0,0.1-0.2,0.2-0.2,0.2c-0.1,0-0.2,0.1-0.2,0.1s-0.2,0-0.2-0.1
				c0-0.2,0-0.3-0.1-0.5c0-0.1,0-0.2,0-0.4C96.9,181.2,96.8,181.1,96.8,181z M96.6,167.4c-0.1,0-0.4-0.4-0.4-0.5
				c0,0-0.1-0.2-0.1-0.3c0,0,0-0.2-0.1-0.2c0-0.1,0-0.2,0-0.3c0,0,0-0.2,0-0.3v-0.3c0-0.1,0.1-0.2,0.1-0.2v-0.2l0.1-0.2
				c0,0,0.1-0.2,0.2-0.3c0-0.1,0.3-0.2,0.3-0.2c0.1,0,0.3,0.1,0.3,0.1c0.1,0,0.3-0.1,0.5-0.1s0.3,0.1,0.5,0.1c0.1,0,0.3,0.1,0.4,0.2
				c0,0,0.1,0,0.1,0.1l0.2,0.1c0.1,0.1,0.1,0.2,0.2,0.4l0.1,0.1c0,0.1,0.1,0.2,0.1,0.4s-0.1,0.5-0.2,0.8c0,0.1,0,0.2-0.1,0.4
				c0,0-0.1,0.1-0.1,0.2c0,0.1-0.2,0.4-0.2,0.4c-0.1,0-0.2,0.2-0.2,0.2h-0.2c-0.1,0-0.2,0.1-0.3,0c-0.1,0-0.2-0.1-0.3-0.1h-0.2
				l-0.3-0.1c0,0-0.1,0-0.2-0.1L96.6,167.4z"/>
			<path class="st5" d="M102,182.8c-0.1-0.2-0.1-0.4-0.2-0.6c-0.2-0.4-0.5-1.4-0.5-1.7c0,0,0-0.4-0.1-0.4c-0.1-0.1,0-0.4-0.1-0.5
				c0-0.2,0-0.4,0-0.6c0-0.2,0-0.3,0-0.6l0.1-1.6c0-0.5-0.1-0.9-0.1-1.4V175c0-0.1,0-0.7,0-0.8c0-0.2,0-0.4-0.1-0.6V173
				c0-1,0.1-2.3,0.1-2.3v-0.3l0.1-0.8c0-0.2,0.2-0.6,0.2-0.6v-0.4c0-0.1,0-0.3,0-0.3c0-0.2,0.1-1.4,0.2-1.5c0-0.2,0.2-1.1,0.3-1.3
				l0.3-1c0-0.2,0.2-0.5,0.4-0.7c0.1-0.1,0.1-0.2,0.1-0.3c0.1-0.1,0.1-0.3,0.1-0.4c0.1-0.1,0.3-0.4,0.5-0.4c0.1,0,0.1,0,0.2,0.1
				c0.1,0.1,0.2,0.2,0.3,0.3c0.3,0.4,0.3,0.6,0.4,0.7l0.2,0.4c0.1,0.3,0.1,0.6,0.2,0.7v0.1l0.3,0.4c0.2,0.2,0.3,0.7,0.4,0.9
				c0,0,0.1,0.3,0.1,0.6v0.4l-0.1,1.8c0.1,0.3,0.1,0.6,0.1,0.9c0,0.1,0,0.3,0,0.3v0.5v0.4c0,0.1,0,0.2,0,0.3l-0.1,0.9
				c0,0.1,0,0.2,0,0.4c0,0.1-0.1,0.3-0.1,0.3v0.6c0,0.2-0.2,1.3-0.2,1.5l-0.3,0.9c0,0-0.1,0.2-0.1,0.3s-0.2,0.2-0.2,0.3
				c-0.1,0.3-0.2,0.5-0.4,0.7c-0.1,0.2-0.1,0.4-0.2,0.5l-0.2,0.3c-0.1,0.2-0.1,0.4-0.1,0.7c0,0.2-0.2,1.2-0.3,1.5
				c0,0.2-0.1,0.6-0.3,0.8l-0.1,0.2c-0.1,0.1-0.1,0.4-0.2,0.5c0,0-0.1,0.3-0.1,0.4c0,0.1,0,0.2,0,0.3c-0.1,0.2-0.1,0.5-0.3,0.5h-0.1
				C102.2,183.1,102.1,182.9,102,182.8z"/>
			<path class="st5" d="M113.8,182.6c0-0.1,0-0.2,0-0.3c0,0-0.1-0.4,0-0.5l-0.3,0.1c-0.2,0.1-0.6,0.3-0.6,0.3
				c-0.2,0.1-0.5,0.2-0.8,0.2c0,0-0.8,0.1-1.6,0.1c0,0-1-0.2-1.3-0.3c-0.1,0-0.3-0.1-0.4-0.2c-0.3-0.1-0.7-0.4-1-0.6
				c-0.1-0.1-0.4-0.5-0.5-0.6c-0.2-0.2-0.3-0.5-0.4-0.8c-0.2-0.3-0.4-0.7-0.5-1c0,0-0.1-0.4,0-0.5c0-0.2-0.2-0.3-0.3-0.5
				c0-0.1,0-0.3,0-0.5c0,0,0-0.2,0-0.3c0-0.2,0-0.4,0-0.5c0.1-0.1,0.1-0.4,0.2-0.5c0.1-0.3,0.2-0.5,0.3-0.7c0.1-0.1,0.1-0.3,0.2-0.4
				c0-0.1,0.1-0.2,0.2-0.3c0.3-0.3,0.5-0.7,0.9-0.9l0.3-0.2l0.7-0.3c0.1-0.1,0.4-0.1,0.6-0.1c0.4-0.1,0.8-0.2,1.2-0.2c0,0,0,0,0.1,0
				c0.4,0,0.5,0,0.6,0.1h0.4c0.1,0,0.5,0,0.5,0c0.1,0,0.4,0.1,0.5,0.1c0.2,0,0.3,0,0.5,0v-0.1v-0.9c0,0,0.2-1.3,0.3-1.8
				c0,0,0.1-0.4,0.1-0.5c0-0.2,0.1-0.4,0.1-0.6c0.1-0.3,0.1-0.6,0.2-0.8l0.1-1.4l0.1-0.3v-0.5c0-0.3,0.2-0.6,0.4-0.8
				c0-0.1,0.1-0.1,0.1-0.2l0.1-0.3l0.1-0.2l0.1-0.1c0.1-0.1,0.2-0.1,0.4-0.1c0.1,0,0.1,0,0.2,0.1c0.1,0.1,0.2,0.2,0.3,0.4
				c0,0,0.1,0.2,0.2,0.3c0,0,0.1,0.1,0.1,0.2c0,0.1,0.1,0.1,0.1,0.1c0.3,0.6,0.3,0.6,0.3,0.6s0.1,0.2,0.1,0.3
				c0.1,0.3,0.3,0.7,0.3,1.1c0.1,0.4,0.2,0.8,0.1,1.2l0.1,0.3c0,0.1,0,0.2,0,0.2c0,0.1,0,0.2,0.1,0.2c0.1,0.1,0,0.3,0.1,0.4l0.1,0.2
				c0,0.1,0,0.5,0.1,0.6c0,0.2,0,0.4,0,0.6c0,0.1,0.1,0.7,0.1,0.8v0.2c0,0.4-0.1,0.8-0.1,1.2c0,0,0,0.6,0,0.7v0.6v0.6l-0.1,0.4
				c0,0.3-0.1,0.6-0.2,1l-0.2,0.5c0,0.2-0.1,0.3-0.1,0.6c-0.1,0.2,0,0.4-0.2,0.7l-0.2,0.4l-0.2,0.2c-0.1,0.2-0.1,0.4-0.2,0.5
				c-0.1,0.2-0.2,0.3-0.2,0.5c0,0.1-0.1,0.4-0.1,0.4l-0.1,0.3c-0.1,0.3-0.2,0.5-0.3,0.7l-0.3,0.4c0,0.1-0.2,0.3-0.2,0.3
				c-0.2,0.2-0.2,0.2-0.4,0.5l-0.2,0.3c-0.1,0.1-0.1,0.1-0.1,0.1h-0.2c-0.1-0.1-0.2-0.2-0.2-0.3C113.8,183,113.8,182.8,113.8,182.6z
				 M108.9,179v0.3v0.5l0.2,0.3l0.1,0.3c0.2,0.4,0.4,0.5,0.9,0.7c0,0.1,0.5,0.1,0.6,0.2c0.1,0,0.3,0,0.4,0c0.3,0,0.7-0.1,1-0.1
				c0.1,0,0.4-0.1,0.5-0.2c0,0,0.2-0.2,0.3-0.2c0.3-0.1,0.7-0.4,0.8-0.5v-0.1c0-1-0.1-1.9-0.2-2.9c0,0,0-0.2,0-0.3l-0.1-0.5
				c0-0.3-0.1-0.8-0.2-1.1c0-0.1,0-0.2,0-0.5c0-0.2,0-0.4,0-0.5c0,0-0.1,0-0.2,0h-0.4c-0.2,0-0.4,0.2-0.7,0.2
				c-0.1,0-0.2,0.1-0.3,0.1l-0.2,0.2l-0.3,0.2c-0.3,0.2-0.7,0.3-0.9,0.5l-0.6,0.8l-0.5,0.5c0,0.2-0.2,0.5-0.2,0.6c0,0,0,0.1,0,0.3
				c0,0.1,0,0.3,0.1,0.4C108.9,178.5,108.9,178.8,108.9,179z"/>
			<g>
				<path class="st5" d="M91.7,179.8c0,0,0-0.3-0.1-0.4c-0.1-0.4-0.5-2.3-0.6-2.6c0-0.1-0.2-0.5-0.2-0.6s-0.1-0.2-0.1-0.3l-0.2-1.3
					c-0.1-0.2-0.1-0.3-0.2-0.4l-0.9,1.6v0.1c-0.3,0.5-0.6,1-0.9,1.5c-0.2,0.3-0.3,0.7-0.5,1c-0.1,0.3-0.6,0.6-0.7,0.9
					c-0.1,0-0.3,0.3-0.4,0.3s-0.2,0-0.2,0h-0.1c-0.2,0-0.4-0.1-0.5-0.2c-0.2-0.2-0.4-0.4-0.5-0.7l-0.1-0.2c0-0.1-0.2-0.4-0.2-0.4
					c-0.1-0.1-0.3-0.4-0.3-0.5l-0.4-0.9c0,0-0.1-0.2-0.1-0.3c0,0-0.1-0.4-0.1-0.5c-0.2-0.4-0.3-0.9-0.5-1.3c0-0.1-0.3-0.6-0.3-0.7
					c0-0.1,0-0.3-0.1-0.3c0-0.1-0.2-0.5-0.3-0.7c0,0-0.1-0.2-0.1-0.3s-0.2-0.4-0.2-0.4l-0.1,0.2c-0.2,0.3-0.2,0.4-0.2,0.5
					s-0.1,0.4-0.2,0.5c0,0-0.1,0.4-0.1,0.5l-0.2,1l-0.1,0.3c0,0.1,0,0.7,0,0.8l-0.1,0.6l-0.5,2.2c-0.1,0.1-0.1,0.4-0.2,0.6l-0.3,0.9
					l-0.2,0.3c0,0.1-0.4,0.8-0.5,0.9c-0.1,0.2-0.2,0.3-0.4,0.5c-0.2,0.1-0.4,0.1-0.6,0.2l-0.3,0.1c-0.1,0-0.4,0.2-0.4,0.2h-0.4
					c-0.1,0-0.3-0.1-0.4-0.2l-0.1-0.2c0-0.1,0-0.1,0-0.2c0-0.2-0.2-0.9-0.2-1.2c0-0.2,0-1,0-1.2l0.3-2.6l0.3-1.6v-0.2
					c0.2-0.6,0.3-1.2,0.5-1.8c0.1,0,0.1-0.2,0.1-0.4l0.2-0.7c0.1-0.2,0.1-0.5,0.2-0.7c0.1-0.3,0.2-0.7,0.3-1.1l0.5-1.8
					c0,0,0.1-0.4,0.2-0.6c0.2-0.5,0.4-1,0.5-1.5c0.1,0,0.2-0.2,0.2-0.2c0.1-0.2,0.2-0.4,0.4-0.7l0.1-0.3l0.3-0.7
					c0.1,0,0.1-0.1,0.2-0.2c0.2-0.2,0.3-0.3,0.6-0.3c0.2,0,0.6,0.2,0.7,0.4c0,0.1,0.1,0.3,0.2,0.4c0.1,0.1,0.1,0.3,0.2,0.5l0.2,0.2
					c0,0.1,0.2,0.2,0.2,0.3c0.1,0.3,0.2,0.6,0.3,0.9c0,0,0,0.2,0.1,0.3c0.1,0,0.2,0.6,0.2,0.7l0.5,0.9l0.2,0.5
					c0,0.1,0.1,0.2,0.1,0.3c0,0,0.2,0.4,0.2,0.5c0.2,0.1,0.2,0.3,0.3,0.5c0,0,0.1,0.1,0.1,0.2c0.2,0.6,0.4,1.3,0.6,1.9
					c0.2,0.2,0.2,0.5,0.3,0.6c0-0.5,0.2-0.8,0.4-1.2l0.3-0.9c0,0,0.1-0.4,0.2-0.6c0-0.3,0.1-0.7,0.2-1c0-0.1,0.1-0.3,0.1-0.5
					l0.1-0.8c0,0,0.1-0.3,0.1-0.4c0.1-0.3,0.1-0.7,0.1-1c0.1-0.2,0.2-0.4,0.3-0.6l0.2-0.2c0-0.1,0.1-0.2,0.1-0.2
					c0.1-0.5,0.1-0.6,0.1-0.6c0-0.1,0.1-0.3,0.2-0.5l0.2-0.1c0.1,0,0-0.1,0.1-0.1c0.2,0,0.3-0.2,0.4-0.2c0.2,0,0.3,0.1,0.4,0.2
					l0.3,0.2c0,0,0.1,0.1,0.3,0.1c0.1,0.1,0.3,0.4,0.3,0.4l0.1,0.1c0.1,0.2,0.1,0.7,0.3,0.8l0.1,0.3c0,0,0.1,0.2,0.1,0.3
					c0.1,0.1,0.1,0.3,0.1,0.5l0.3,1.1c0,0.2,0.1,0.6,0.1,0.6c0,0.2,0.1,0.2,0.2,0.3c0,0.1,0.1,0.3,0.1,0.4l0.6,2.7v0.3
					c0,0.1,0.2,0.3,0.2,0.4c0.3,0.4,0.3,1.5,0.3,1.5c0,0.1,0.1,0.3,0.2,0.4c0.1,0.1,0,0.4,0.1,0.6c0,0.1,0,0.4,0.1,0.5
					c0,0.2,0.1,0.5,0.2,0.7v0.2c0.1,1.2,0,2.5,0.1,3.7c0,0.3,0.1,0.6,0.1,0.9c0,0.2,0,0.3,0,0.5c0,0.1,0,0.2,0,0.3
					c0,0.2-0.1,0.5-0.2,0.7c0,0.1-0.2,0.1-0.3,0.2c-0.1,0-0.2,0-0.3,0s-0.1,0-0.1-0.1c-0.5-0.3-0.5-0.8-0.7-1.3c0-0.2,0-0.3-0.2-0.4
					L91.7,179.8z"/>
			</g>
		</g>
		<g>
			<path class="st5" d="M80.8,99.3l-0.2-0.4L79.8,97c0,0-0.3-1.7-0.4-2.4c0,0-0.1-0.5-0.1-0.6v-0.3c0-0.3,0-0.5-0.2-0.7
				c-0.2-1.1-0.3-2.3-0.3-3.4l-0.1-1.4c0-0.1,0-1.1,0-1.2v-1.1c0-0.1,0-0.4,0.1-0.5c0-0.1,0.5-1.3,0.5-1.5c0.2-0.5,0.8-2.7,0.9-3.2
				c0.1-0.2,0.2-0.3,0.2-0.5c0.1-0.2,0.1-0.4,0.2-0.6c0-0.2,0.4-0.3,0.4-0.5c0.2-0.2,0.5-0.5,0.9-0.5c0.3,0,0.8,0.3,0.9,0.5
				c0.5,0.4,1,1.4,1.2,2c0.1,0.3,0.1,0.6,0.2,0.9l0.4,1.3c0,0,0.1,0.3,0.1,0.4l0.5,0.8c0,0,0,0.1,0,0.2c0.2,0.9,0.3,1.7,0.3,2.6
				c0,0.5,0,0.8,0,0.8c0,0.5,0.1,0.6,0.4,0.6l3.1-0.1c0.1,0,1.8,0.1,2.6,0.2c0.2,0,0.4,0.1,0.7,0v-2.5c0.1-0.4,0.4-2.1,0.5-2.5
				c0,0,0-0.6,0-0.7c0.1-0.1,0.1-0.8,0.3-1c0-0.1,0.3-0.7,0.3-0.8c0,0,0.1-0.5,0.1-0.7c0-0.3,0.1-0.7,0.2-1s0-0.7,0.1-1.1
				c0.2-0.3,0.5-0.6,0.5-1c0.1-0.2,0.3-0.2,0.4-0.2c0.2,0,0.2,0,0.3,0.1l0.7,0.3c0.2,0.1,0.9,0.8,1,1c0.3,0.3,0.5,0.7,0.8,1
				c0,0,0.5,0.4,0.5,0.5s0.5,0.7,0.6,0.8c0.2,0.3,0.4,0.4,0.4,0.7s0.1,0.7,0.2,0.9c0,0.2,0.1,0.4,0.2,0.6c0,0.2,0.2,0.7,0.3,1v0.7
				c0,0.6,0,1.1,0.3,1.7l0.3,2.4c0,0.4,0,0.8,0,1.2c0,0.2-0.1,0.4,0,0.6c0,0.2,0,0.2,0.1,0.9c0,0.5,0,0.8,0,1.2s-0.2,1.1-0.2,1.5
				c-0.1,0.4-0.2,0.7-0.3,1.2c0,0.1-0.2,0.5-0.2,0.7c0,0.3-0.2,0.8-0.3,1.2l-0.3,0.2c-0.5,1-0.7,2.2-1,3.3c-0.1,0.6-0.5,1.3-0.5,2
				c0,0.1-0.1,0.6-0.1,0.7v0.2l-0.3,0.7c0,0.1-0.3,0.4-0.5,0.4c-0.3,0-0.4-0.3-0.5-0.5l0,0l-0.2-0.4c-0.2-0.3-0.1-0.8-0.3-1.1
				l-0.4-0.6l-0.4-0.7c0-0.1-0.2-0.6-0.2-0.6c0-0.3-0.3-0.6-0.3-0.9c0-0.2-0.2-0.4-0.2-0.8c-0.1-0.3-0.6-1.6-0.7-1.9
				c0-0.1-0.4-1-0.4-1.1s-0.2-0.6-0.2-0.7c-0.1-0.1-0.2-0.8-0.2-1v-1c0,0-0.1-0.4-0.1-1.1c-0.1-0.2,0-0.4-0.2-0.6
				c-0.2-0.1-1.2-0.3-1.4-0.3c-0.3,0-0.6,0-0.8,0c-0.6,0-1,0.2-1.5,0.4l-1.6,0.1c-0.5,0.2-0.5,0.2-0.5,0.2c0,0.1,0.1,0.3,0.1,1.3
				c0,0.9,0,1.3,0,1.4c0,0.3,0,0.7-0.1,1l0.1,1.9c0,0.1,0,1-0.1,1.3c0,0.3-0.1,0.5-0.2,0.7l-0.2,0.5c-0.1,0.2-0.1,0.5-0.2,0.7
				c0,0.1-0.1,1-0.2,1.1c0,0.1-0.1,0.4-0.1,0.4c0,0.1-0.2,0.6-0.2,0.7c0,0-0.2,0.7-0.2,0.8c-0.1,0.3-0.1,0.6-0.3,0.8
				c-0.1,0.2-0.3,0.4-0.5,0.6c-0.1,0.2-0.3,0.5-0.5,0.6c-0.1,0-0.1,0.1-0.3,0.1c-0.1,0-0.3-0.1-0.4-0.3c-0.2-0.2-0.1-0.7-0.3-0.9
				c-0.1-0.5-0.1-0.9-0.3-1.3l-0.4-0.6c-0.1-0.3-0.1-0.5-0.2-0.9c-0.1-0.3-0.3-0.5-0.4-0.8C81.7,101.2,81,99.6,80.8,99.3z"/>
			<path class="st5" d="M116.9,107.3c-0.1,0-0.7-0.1-0.9-0.1c-0.1,0-0.8-0.2-0.8-0.2c-0.1,0-0.3-0.1-0.4-0.1c-0.4,0-0.9-0.1-1.4-0.2
				c-0.1,0-0.4-0.2-0.6-0.2l-1.1-0.4c-0.5-0.2-0.9-0.5-1.3-0.8l-1-0.7c-0.2,0-0.8-0.4-1.1-0.6c-0.1,0-0.6-0.3-0.7-0.5l-1-0.8
				l-1.3-1.7l-0.7-1c-0.7-1.3-1.3-2.6-1.6-4l-0.3-2.6c0,0,0-0.5,0-0.6c0-0.3,0-0.7,0.1-1.1c0.1-0.5,0.3-1.1,0.3-1.6c0-0.3,0-1,0-1
				c0-0.2,0.1-0.4,0.2-0.6c0-0.1,0.3-0.5,0.3-0.5l0.3-0.7c0.2-0.6,0.8-1.2,0.9-1.7l0.9-1.3c0-0.1,0.5-0.4,0.5-0.6l1-1.6l0.9-1.1
				c0,0,0.9-0.8,1.3-1.2c0.3-0.3,0.6-0.7,1-0.9c0.2-0.2,1.1-0.3,1.4-0.4l2.2-0.2c0.1,0,0.4-0.2,0.6-0.2l0.9-0.4
				c0.1,0,0.2-0.1,0.4-0.1c0.4,0,0.7,0,1.1,0.1c0.4-0.1,1.1,0,1.6,0c0.4,0.1,0.8,0.3,1.2,0.4c0.1,0,0.4,0.1,0.4,0.1h0.5
				c0.2,0,0.3,0,0.7,0c0.2,0,0.5-0.1,0.8-0.1c0.2,0,2,0.4,2.1,0.4c1.2,0.4,2.3,0.8,3.4,1.5c0.7,0.6,1.7,1.7,2.2,2.3l0.1,0.2l0.6,0.8
				c0,0,0.2,0.3,0.2,0.4l0.9,1.6c0.2,0.4,0.3,1,0.5,1.5l0.4,1c0.1,0,0.1,0.1,0.2,1.1l0.1,0.8c0,0.2,0,0.4,0,0.7l-0.1,4.8
				c0,0.1,0,0.4,0,0.4l-0.4,1.2c-0.1,0.5-0.6,3-0.7,3.6c-0.2,0.3-0.3,0.7-0.4,1l-0.7,1.3c-0.2,0.3-1.1,1.4-1.3,1.5
				c-0.2,0.2-1.1,0.9-1.3,1.1c0,0.1,0,0.2-0.2,0.3c0,0-0.3,0.2-0.4,0.2c-0.3,0.2-0.6,0.6-1,0.6c-0.1,0.1-0.7,0.2-0.7,0.2
				c-0.1,0-0.3,0.1-0.7,0.1c-0.1,0.1-0.7,0.1-0.8,0.1l-2,0.7c-0.4,0.1-0.9,0.1-1.3,0.2l-0.5,0.1c-0.5,0-1,0.1-1.5,0
				C118.3,107.4,117.5,107.4,116.9,107.3z M115.5,99.6c0.1,0.1,0.6,0.6,0.7,0.6c0.2,0.3,0.7,0.7,1,0.9c0.1,0.1,0.6,0.3,0.8,0.3
				l0.4-0.1c0.2,0,0.9,0,0.9,0l1.1,0.4c0.1,0,0.6,0.1,0.8,0.1c0,0,0.5,0,0.7-0.1h0.8c0.2-0.1,1-0.2,1.1-0.3c0.3-0.1,1.8-0.6,2-0.7
				c0.5-0.3,1.1-0.6,1.4-1.1c0.1-0.4,1-1.8,1.1-2c0.1-0.1,0.5-0.9,0.6-1.1c0-0.1,0.1-0.4,0.1-0.4c0-0.3,0.4-1.8,0.4-2.2l0.1-1.3
				c0-0.4,0-0.8,0-1.3l-0.3-2.2c0-0.2-0.1-0.7-0.1-0.8c0,0-0.2-0.5-0.3-0.6c-0.1-0.3-0.4-1.1-0.4-1.2l-1.6-2.3
				c-0.3-0.3-0.4-0.6-0.8-0.9c-0.2-0.1-0.4-0.1-0.5-0.4l-0.5-0.3c-0.1,0.1-0.4-0.1-0.5-0.2l-0.7-0.5c-0.1,0-0.7-0.4-0.8-0.4
				c0,0-0.7-0.1-0.8-0.1s-0.9-0.1-1.1,0c-0.6,0-1.3-0.4-1.9-0.3c-0.1,0-0.2,0.1-0.3,0.1l-0.7,0.5c-0.3,0.3-0.8,0.6-1.3,1.1l-0.4,1
				l-0.8,0.9c0,0-0.2,0.4-0.2,0.5c-0.5,0.9-0.9,1.9-1.2,2.8l-0.3,2.2c0,0,0,0.2,0,0.3c0,0-0.2,0.5-0.2,0.6c0,0-0.1,0.3-0.1,0.4
				c-0.2,1-0.2,1.9-0.1,3c0.1,0.7,0.1,1.2,0.3,1.9c0,0.2,0.4,1.7,0.5,2.1c0.1,0.4,0.5,0.8,0.8,0.9C115.3,99.3,115.5,99.5,115.5,99.6
				z"/>
			<path class="st5" d="M137.8,96.9V96c0-0.3,0-0.7-0.1-0.9c0.1-1.5,0.2-1.6,0.2-1.6l0.1-2.6l0.1-0.7c0-0.3,0.1-0.1,0.2-0.4l0.2-1.5
				c-0.5-0.2-1-0.3-1.6-0.4l-1.5-0.1c-0.3-0.1-0.6-0.3-0.7-0.6c0,0-0.1-0.1-0.1-0.4c0-0.2,0.1-0.3,0.2-0.5c0.1-0.2,0.3-0.5,0.6-0.6
				h0.3c0.5,0.1,0.5,0,1.4,0h0.6l1.4,0.2c0,0,0.4-1.3,0.5-1.6c0,0,0.1-0.3,0.1-0.4c0-0.1,0.2-1,0.1-1c0.2-0.4,0.4-1,0.7-1.3
				c0.1-0.1,0-0.3,0.2-0.4c0.2-0.4,0.1-0.8,0.4-1.1c0-0.2,0.4-1,0.5-1.1c0,0,0.3-0.4,0.4-0.5l0.3-0.7c0-0.2,0.1-0.4,0.1-0.6
				c0.1-0.4,0.6-0.9,0.9-1.2c0.1-0.1,0.2-0.1,0.3-0.1c0,0,0.1,0.1,0.2,0.1h0.3c0.2,0,0.3,0.1,0.5,0.3l1.1,1.3c0,0,0.3,0.4,0.4,0.5
				c0.2,0.2,0.3,0.4,0.4,0.7c0.1,0.2,0.7,1.7,0.8,1.9s0.2,0.5,0.2,0.7c0,0.1,0.1,1,0.1,1.1c0,0.4,0.2,0.7,0.2,1.1
				c0.1,0,0.2,0.4,0.1,0.6c0,0.1,0,0.4,0,0.5c0,0,0.1,1,0.1,1.1V87c0,0,1.2,0,2.1,0c0.4,0,0.7,0.1,0.9,0.1c0.1,0,1,0.2,1,0.2
				c0.5,0.1,1.1,0.3,1.5,0.6c0,0,0.3,0.3,0.3,0.4c0.1,0.1,0.1,0.3,0.1,0.5c0,0.1,0,0.2-0.1,0.2c0,0-0.1,0.2-0.2,0.2
				c-0.2,0.2-0.8,0.3-1.1,0.3l-0.2-0.1c-0.1,0-0.6-0.2-0.7-0.2l-0.6-0.1c-0.2,0.1-1.4,0.1-1.7,0.1c-0.1,0-0.4,0-0.7,0
				s-0.6,0-0.7-0.1c-0.1,0-0.3,0.1-0.3,0.1c0,0.1-0.1,0.6-0.1,0.7c-0.1,0.5-0.2,0.6-0.3,1.1c0,0.3-0.1,0.8-0.1,0.9
				c-0.1,0.4-0.4,0.8-0.5,1.3c0,0.1,0,0.3,0,0.4c0,0,0,0.1-0.1,0.2c-0.1,0.1-0.3,0.6-0.3,0.7l-0.2,0.3l-0.4,0.9v0.5
				c0,0.2,0.1,1.2,0.1,1.3v0.7l-0.4,3.1c0.2,0.4,0.1,0.7,0.3,1.1c0,0,0.2,0.4,0.3,0.5c0.1,0.2,0.5,0.4,0.7,0.5
				c0.1,0.1,0.4,0.2,0.6,0.2h0.3c0.2,0,0.4,0.1,0.4,0.1s0.5-0.1,0.6-0.2l0.2-0.1c0.3-0.2,0.7-0.5,0.9-0.7c0.1-0.3,0.7-1.2,0.7-1.4
				s0.2-0.6,0.2-0.6c0-0.1-0.1-0.4-0.2-0.5h-0.2c-0.4-0.1-0.9-0.2-1-0.8v-0.1c0.1-0.3,0.1-0.5,0.4-0.7c0.2-0.2,0.9-0.2,1.2-0.2
				c0.2,0,0.4,0.1,0.5,0.3l0.7,0.5c0.2,0.1,0.4,0.3,0.4,0.6c0.1,0.3,0.2,0.7,0.1,1.1c-0.1,0.6-0.2,1.2-0.3,1.8
				c-0.1,0.4-0.3,0.9-0.5,1.2l-0.6,0.6c0,0.2-0.3,0.3-0.4,0.5c-0.3,0.3-0.8,0.7-1.2,0.9c-0.2,0.1-0.4,0.1-0.6,0.2
				c-0.3,0.1-0.9,0.4-1.2,0.4c-0.2,0-0.3,0-0.5,0.1H147c-0.2,0-1.1,0-1.3-0.1c-0.1,0-0.7,0-0.7,0.1h-0.4c-0.7-0.1-1.3-0.3-2-0.6
				c0,0-0.3-0.1-0.4-0.1l-1-0.8l-0.4-0.4l-0.4-0.3c-0.4-0.2-0.6-0.5-0.9-0.9c-0.2-0.1-0.7-1.1-0.8-1.2c0,0-0.1-0.3-0.1-0.4l-0.5-1.2
				c0,0-0.1-0.2-0.4-3C137.8,97.3,137.9,97,137.8,96.9z"/>
		</g>
		<g>
			<path class="st5" d="M91.2,62.2L91,61.9l-0.6-1.5c0,0-0.2-1.3-0.3-1.8v-0.4v-0.3c0-0.2,0-0.4-0.1-0.6c-0.2-0.9-0.2-1.8-0.2-2.7
				v-1.1c0-0.1,0-0.8,0-0.9v-0.8v-0.4c0-0.1,0.4-1,0.4-1.1c0.2-0.4,0.7-2.1,0.7-2.5c0.1-0.1,0.1-0.2,0.2-0.4c0.1-0.1,0-0.3,0.2-0.4
				c0-0.1,0.3-0.2,0.3-0.4c0.2-0.2,0.4-0.4,0.7-0.4c0.2,0,0.6,0.2,0.7,0.4c0.4,0.3,0.7,1.1,0.8,1.5c0.1,0.2,0.1,0.5,0.2,0.7l0.3,1
				v0.3l0.4,0.6v0.1c0.2,0.7,0.2,1.3,0.2,2c0,0.4,0,0.6,0,0.6c0,0.4,0,0.5,0.3,0.5l2.4-0.1c0.1,0,1.4,0.1,1.9,0.2
				c0.1,0,0.3,0.1,0.5,0v-1.9c0.1-0.3,0.3-1.6,0.4-1.9v-0.6c0.1-0.1,0.1-0.6,0.2-0.8l0.2-0.6c0,0,0.1-0.4,0.1-0.5
				c0-0.2,0.1-0.5,0.2-0.7c0-0.3,0-0.6,0.1-0.9s0.4-0.5,0.4-0.8c0.1-0.1,0.2-0.2,0.3-0.2s0.2,0,0.3,0.1l0.5,0.2
				c0.1,0.1,0.6,0.7,0.8,0.8c0.2,0.2,0.4,0.5,0.6,0.8c0,0,0.4,0.3,0.4,0.4s0.4,0.6,0.4,0.7c0.1,0.2,0.3,0.3,0.3,0.6
				c0,0.2,0,0.5,0.2,0.7c0,0.1,0.1,0.3,0.1,0.4c0,0.2,0.1,0.6,0.2,0.8v0.5c0,0.4,0,0.9,0.2,1.3l0.2,1.9c0,0.3,0,0.6,0,0.9
				c0,0.1,0,0.3,0,0.5c0,0.1,0,0.2,0.1,0.7c0,0.4,0,0.6,0,0.9s-0.2,0.8-0.2,1.1c0,0.3-0.2,0.6-0.3,0.9c0,0.1-0.2,0.4-0.2,0.5
				c0,0.3-0.1,0.6-0.2,0.9l-0.2,0.2c-0.4,0.8-0.6,1.7-0.8,2.5c-0.1,0.4-0.4,1-0.4,1.5c0,0.1,0,0.4-0.1,0.5v0.1l-0.3,0.6
				c0,0.1-0.2,0.3-0.4,0.3s-0.3-0.2-0.4-0.4l0,0l-0.2-0.3c-0.1-0.2-0.1-0.6-0.2-0.9l-0.3-0.5l-0.3-0.6l-0.2-0.5
				c0-0.2-0.2-0.5-0.2-0.7c0-0.1-0.1-0.3-0.1-0.6c-0.1-0.2-0.4-1.2-0.5-1.5c0-0.1-0.3-0.8-0.3-0.9l-0.2-0.5
				c-0.1-0.1-0.1-0.6-0.1-0.8v-0.8c0,0,0-0.3-0.1-0.8c-0.1-0.1,0-0.3-0.1-0.4c-0.2-0.1-0.9-0.2-1.1-0.3c-0.2,0-0.4,0-0.6,0
				c-0.4,0-0.7,0.1-1.1,0.3l-1.2,0.1c-0.4,0.1-0.4,0.2-0.4,0.2c0,0.1,0,0.2,0.1,1c0,0.7,0,1,0,1.1c0,0.3,0,0.6-0.1,0.8v1.5
				c0,0.1,0,0.8-0.1,1c0,0.2,0,0.4-0.2,0.5L95,62.8c-0.1,0.2-0.1,0.4-0.2,0.5c0,0.1-0.1,0.8-0.1,0.9v0.3L94.6,65
				c0,0-0.1,0.5-0.1,0.6c-0.1,0.2-0.1,0.4-0.2,0.6s-0.2,0.3-0.4,0.4c-0.1,0.1-0.2,0.4-0.4,0.4c-0.1,0-0.1,0.1-0.2,0.1
				S93.1,67,93,66.9c-0.2-0.2-0.1-0.6-0.2-0.7c-0.1-0.3-0.1-0.7-0.2-1l-0.3-0.5c-0.1-0.3-0.1-0.4-0.2-0.7c-0.1-0.2-0.2-0.4-0.3-0.6
				C91.9,63.7,91.4,62.4,91.2,62.2"/>
			<path class="st5" d="M116.9,67.3c-0.1,0-0.5-0.1-0.6-0.1l-0.6-0.2l-0.3-0.1c-0.3,0-0.6-0.1-1-0.3c-0.1,0-0.3-0.2-0.4-0.2
				l-0.8-0.4c-0.3-0.2-0.6-0.5-0.9-0.7l-0.6-0.6c-0.2,0-0.6-0.4-0.8-0.5c-0.1,0-0.4-0.3-0.5-0.4l-0.7-0.7l-0.8-1.3l-0.4-0.8
				c-0.4-1-0.8-2-0.9-3v-1.9v-0.4c0-0.3,0.1-0.5,0.1-0.8c0.1-0.4,0.3-0.8,0.3-1.2c0-0.3,0.1-0.7,0.1-0.8c0-0.1,0.1-0.3,0.2-0.4
				l0.3-0.3l0.2-0.5c0.2-0.4,0.6-0.8,0.8-1.2l0.7-0.9c0,0,0.4-0.3,0.4-0.4l0.8-1.1l0.7-0.8c0,0,0.7-0.5,1-0.7s0.4-0.5,0.8-0.6
				c0.1-0.1,0.8-0.2,1-0.2h1.6c0.1,0,0.3-0.1,0.4-0.1l0.6-0.3c0.1,0,0.1,0,0.3,0c0.3,0,0.5,0,0.8,0.1c0.3,0,0.8,0.1,1.1,0.1
				c0.3,0.1,0.6,0.2,0.8,0.4l0.3,0.1h0.4c0.1,0,0.2,0,0.5,0c0.1,0,0.4,0,0.6,0c0.2,0,1.4,0.4,1.5,0.4c0.8,0.4,1.6,0.8,2.3,1.3
				c0.5,0.5,1.1,1.4,1.4,1.8l0.1,0.2l0.4,0.6l0.1,0.3l0.5,1.3c0.1,0.3,0.1,0.7,0.2,1.1l0.2,0.7c0,0,0.1,0.1,0.1,0.8v0.6
				c0,0.2,0,0.3,0,0.5l-0.4,3.5v0.3l-0.4,0.8c-0.1,0.4-0.7,2.2-0.8,2.6c-0.2,0.2-0.2,0.5-0.3,0.7l-0.6,0.9c-0.2,0.2-0.9,1-1,1
				c-0.1,0.1-0.8,0.6-1,0.7c0,0,0,0.1-0.2,0.2l-0.3,0.1c-0.3,0.1-0.4,0.4-0.7,0.4L123,67c-0.1,0-0.2,0-0.5,0c-0.1,0-0.5,0-0.6,0
				l-1.5,0.4c-0.3,0-0.7,0-0.9,0h-0.4c-0.4,0-0.7,0-1.1-0.1C117.9,67.5,117.4,67.4,116.9,67.3 M116.5,61.6c0.1,0.1,0.4,0.5,0.5,0.5
				c0.1,0.2,0.5,0.6,0.7,0.8c0.1,0.1,0.4,0.3,0.5,0.3h0.3c0.2,0,0.6,0,0.7,0l0.8,0.4c0,0,0.5,0.1,0.6,0.1c0,0,0.4,0,0.5,0h0.6
				c0.1,0,0.7-0.1,0.8-0.1c0.2,0,1.3-0.3,1.5-0.4c0.4-0.2,0.8-0.4,1.1-0.7c0.1-0.2,0.8-1.2,0.9-1.4c0.1-0.1,0.4-0.6,0.5-0.7l0.1-0.3
				c0-0.3,0.4-1.3,0.5-1.6l0.2-0.9c0-0.3,0.1-0.6,0.1-1V55c0-0.1,0-0.5,0-0.6l-0.2-0.4c-0.1-0.2-0.2-0.8-0.2-0.9l-1-1.8
				c-0.2-0.3-0.3-0.5-0.5-0.7c-0.1-0.1-0.2-0.1-0.3-0.3l-0.3-0.3c-0.1,0-0.2-0.1-0.3-0.2l-0.5-0.4l-0.5-0.3c0,0-0.5-0.1-0.6-0.1
				s-0.7-0.1-0.8-0.1c-0.5,0-0.9-0.4-1.4-0.4h-0.2l-0.7,0.4c-0.3,0.2-0.6,0.4-1,0.7l-0.3,0.7l-0.6,0.6l-0.2,0.3
				c-0.4,0.6-0.8,1.3-1,2l-0.4,1.6V55l-0.2,0.4l-0.1,0.2c-0.2,0.7-0.3,1.4-0.3,2.2c0,0.5,0,0.9,0.1,1.4c0,0.2,0.2,1.3,0.2,1.6
				c0,0.3,0.3,0.6,0.5,0.7L116.5,61.6"/>
			<path class="st5" d="M132.8,59.7v-0.6c0-0.2,0-0.5,0-0.7c0.1-1.1,0.1-1.2,0.1-1.2l0.1-1.8l0.1-0.5c0-0.2,0.1,0,0.1-0.3l0.2-1
				c-0.4-0.1-0.7-0.2-1.1-0.3h-1.1c-0.2-0.1-0.4-0.2-0.5-0.4c0,0-0.1-0.1,0-0.3c0-0.1,0.1-0.2,0.1-0.4c0.1-0.2,0.2-0.4,0.4-0.4h0.2
				c0.3,0,0.3,0,1,0h0.4l1,0.1c0,0,0.3-0.9,0.4-1.1l0.1-0.3l0.1-0.7c0.1-0.3,0.3-0.7,0.5-0.9c0.1-0.1,0-0.2,0.1-0.3
				c0.2-0.3,0.1-0.6,0.3-0.8c0-0.1,0.3-0.7,0.4-0.8l0.2-0.3l0.2-0.5c0-0.2,0.1-0.3,0.1-0.4c0-0.3,0.4-0.6,0.6-0.9l0.2-0.1h0.1h0.2
				c0.1,0,0.2,0.1,0.4,0.2l0.7,0.9l0.3,0.3c0.2,0.1,0.2,0.3,0.3,0.5s0.5,1.2,0.6,1.3c0,0.1,0.1,0.3,0.1,0.5l0.1,0.8
				c0,0.3,0.1,0.5,0.1,0.8c0.1,0,0.1,0.3,0.1,0.4v0.3l0.1,0.8v0.9c0,0,0.8,0,1.4,0c0.3,0,0.5,0.1,0.6,0.1l0.7,0.1
				c0.4,0.1,0.7,0.2,1,0.5l0.2,0.3c0,0.1,0.1,0.2,0.1,0.3L144,54l-0.1,0.1c-0.1,0.1-0.6,0.2-0.8,0.2H143l-0.5-0.1l-0.4-0.1
				c-0.2,0-1,0.1-1.2,0.1c-0.1,0-0.3,0-0.5,0s-0.4,0-0.5-0.1h-0.2c0,0.1-0.1,0.4-0.1,0.5c0,0.4-0.2,0.4-0.2,0.8
				c0,0.2-0.1,0.6-0.1,0.6c-0.1,0.3-0.3,0.6-0.3,0.9c0,0.1,0,0.2,0,0.3v0.1l-0.2,0.5l-0.2,0.2l-0.3,0.6v0.3c0,0.2,0,0.8,0,0.9v0.5
				l-0.3,2.2c0.1,0.3,0.1,0.5,0.2,0.8l0.2,0.3c0.1,0.1,0.3,0.3,0.5,0.4c0.1,0.1,0.3,0.2,0.4,0.2h0.2h0.3c0,0,0.3-0.1,0.4-0.2
				l0.1-0.1c0.2-0.1,0.5-0.4,0.6-0.5c0.1-0.2,0.5-0.8,0.5-1s0.2-0.5,0.2-0.5c0-0.1-0.1-0.3-0.1-0.4h-0.1c-0.3,0-0.7-0.1-0.7-0.6
				v-0.1c0.1-0.2,0.1-0.3,0.3-0.5c0.1-0.1,0.6-0.1,0.8-0.1c0.1,0,0.3,0.1,0.3,0.2l0.5,0.3c0.1,0.1,0.3,0.2,0.3,0.4
				c0.1,0.2,0.1,0.5,0.1,0.8c-0.1,0.4-0.2,0.8-0.2,1.3c-0.1,0.3-0.2,0.6-0.4,0.9l-0.4,0.5c0,0.1-0.2,0.2-0.3,0.4
				c-0.2,0.2-0.5,0.5-0.8,0.6c-0.2,0.1-0.3,0.1-0.4,0.2c-0.2,0.1-0.6,0.3-0.8,0.3c-0.1,0-0.2,0-0.4,0.1h-0.1c-0.1,0-0.7,0-0.9-0.1
				l-0.5,0.1h-0.3c-0.5-0.1-0.9-0.2-1.4-0.4l-0.3-0.1l-0.7-0.6l-0.3-0.3l-0.3-0.2c-0.2-0.2-0.4-0.4-0.6-0.7
				c-0.1-0.1-0.5-0.8-0.6-0.9l-0.1-0.3l-0.3-0.8c0,0,0-0.1-0.3-2.1L132.8,59.7"/>
			<path class="st5" d="M101.3,43.4c-0.3,0-0.7,0.2-0.8,0.1H100c-0.1,0-0.5-0.1-0.7-0.1h-0.4h-0.6c-0.1,0-0.2,0-0.3,0l-0.2-0.2
				l-0.1-0.3c0,0,0-0.2,0-0.6c0-0.1-0.1-0.7-0.1-0.8c0-0.2-0.2-1.4-0.2-1.6v-0.2v-0.5c0-0.6,0-1.2,0-1.8v-0.5c0-0.1,0-0.2,0-0.3
				c0-0.2,0-0.3,0-0.4c0-0.2,0.1-0.4,0.1-0.6c0,0,0-0.1,0-0.3l0.1-1.1l0.1-0.3c0-0.1,0-0.2,0-0.3c0-0.2,0.1-0.4,0.1-0.6l0.1-0.3
				l0.1-0.4l0.2-0.3c0.1-0.1,0.1-0.1,0.2-0.3l0.2-0.1h0.2l0.7-0.1h0.2l0.9,0.1h0.3c0.3,0,0.5,0,0.8,0h0.2c0.1,0,0.2,0.1,0.4,0.1
				l0.3,0.1c0.4,0,0.9,0.1,1.3,0.1c0.1,0,0.3,0,0.4,0h0.2l0.4,0.2l0.1,0.1v0.1c0,0,0,0.1-0.2,0.3c-0.1,0.1-0.4,0.2-0.5,0.1h-0.2
				c-0.2,0.1-0.4,0-0.6,0.1c-0.3,0-0.5,0-0.9,0.1c-0.3,0-0.8,0-0.9,0.1l-0.6-0.1l-0.2,0.2v0.3c0,0.1,0,0.1,0,0.2l0.1,0.3v0.2v0.1v1
				v0.2c0,0.1,0,0.1,0.1,0.7v0.3c0.2,0,0.4,0,0.5,0.1c0.2,0,0.4,0.1,0.6,0.2l0.4,0.1c0.1,0,0.2,0,0.3,0s0.2,0,0.3-0.1h0.2h0.5h0.3
				c0.1,0,0.2,0.1,0.3,0.2c0,0.1,0.1,0.1,0.1,0.3v0.1c0,0.1-0.4,0.3-0.4,0.3h-0.3h-0.1h-0.3l-0.5,0.1l-0.2,0.1c-0.1,0-0.2,0-0.4,0
				h-1h-0.1c0,0-0.3,0-0.3,0.2c0,0.3,0.1,1.1,0.1,1.2v0.3c0,0.4,0,0.5,0,0.5c0,0.1-0.1,0.2-0.1,0.2c0,0.2,0,0.8,0,1v0.2
				c0,0.1,0,0.2,0,0.2c0.2,0,0.4,0.2,0.6,0.2l1,0.2h0.2c0.1,0,0.1,0.1,0.2,0c0.2,0,0.4,0.1,0.6,0h0.3c0.1,0,0.3,0,0.4-0.1l0.4,0.1
				h0.2c0.2,0,0.1,0.2,0.2,0.3c0,0.2-0.1,0.2-0.2,0.4c0,0,0,0.1-0.1,0.2c-0.2,0.1-0.3,0.2-0.3,0.2c-0.1,0-0.3,0-0.4,0.1h-0.2
				c-0.1,0-0.2,0-0.3,0h-0.5c-0.1,0-0.2,0.1-0.4,0.1h-0.5h-0.3h-0.6V43.4z"/>
			<path class="st5" d="M110.5,42l-0.3-0.3l-0.2-0.3l-0.1-0.2l-0.1-0.1c-0.2-0.2-0.3-0.5-0.6-0.7l-0.5,0.5l-0.1,0.2l-0.1,0.1
				c0,0.1-0.1,0.3-0.2,0.4l-0.5,0.6l-0.2,0.2l-0.1,0.2l-0.1,0.2v0.1l-0.4,0.4v0.1l-0.1,0.1h-0.2h-0.3h-0.2l-0.4-0.2
				c-0.1-0.1-0.2-0.2-0.2-0.3v-0.1l0.1-0.2l0.1-0.1l0.3-0.3l0,0l0.2-0.3l0.4-0.6l0.4-0.4c0.1-0.1,0.1-0.2,0.2-0.3l0.3-0.3
				c0.1-0.1,0.2-0.2,0.3-0.4l0.2-0.3l0.4-0.4l-0.1-0.1l-0.2-0.2c-0.1-0.1-0.2-0.2-0.3-0.3l-0.2-0.3c-0.6-0.7-0.6-0.8-0.6-0.8
				l-0.5-0.8v-0.1c-0.1-0.1-0.1-0.2-0.2-0.3l-0.2-0.2c-0.1-0.2-0.1-0.4-0.2-0.6v-0.2v-0.2v-0.1v-0.2c0.1-0.1,0.1-0.1,0.2-0.1h0.1
				l0.3,0.2l0.2,0.1l0.2,0.2l0.6,0.2c0.1,0,0.2,0,0.3,0.1h0.1l0.2,0.1l0.2,0.1l0.1,0.1l0.4,0.2c0.1,0.1,0.1,0.1,0.2,0.2l0.1,0.1
				c0.1,0.1,0.2,0.1,0.3,0.2l0.5,0.3l0.2,0.1c0.1-0.1,0.2-0.2,0.3-0.4l0.2-0.2l0.2-0.3l0.2-0.3l0.1-0.1l0.5-0.5L112,35l0.1-0.1
				l0.2-0.3l0.1-0.1l0,0c0-0.1,0.2-0.2,0.4-0.2h0.1v0.1v0.1v0.1v0.1c0,0.4-0.2,0.7-0.2,1.2c0,0.1,0,0.2,0,0.3c0,0.3-0.1,0.5-0.3,0.6
				l-0.1,0.1l-0.1,0.4c0,0.1-0.2,0.4-0.2,0.4v0.1c0,0-0.1,0.1-0.1,0.2l0.1,0.1l0.4,0.4l0.4,0.3c0.1,0.1,0.2,0.2,0.3,0.4l0.2,0.2
				c0.2,0.2,0.2,0.5,0.2,0.8v0.1l0.1,0.1c0.1,0.1,0.1,0.2,0.1,0.3l0.1,1.5v0.1l0.1,0.2V43v0.1c-0.1,0.2-0.2,0.3-0.4,0.3
				c-0.1,0-0.2-0.1-0.4-0.2l-0.2-0.1h-0.1c-0.1-0.1-0.3-0.1-0.4-0.2l-0.1-0.1l-0.2-0.2L110.5,42z"/>
			<path class="st5" d="M114.9,40.8v-0.3c0-0.1,0-0.3-0.1-0.3c0-0.6,0-0.6,0-0.6l-0.1-1v-0.3c0-0.1,0,0,0-0.2v-0.5
				c-0.2,0-0.4-0.1-0.6-0.1h-0.6c-0.1,0-0.2-0.1-0.3-0.2c0,0,0,0,0-0.2c0-0.1,0-0.1,0-0.2s0.1-0.2,0.2-0.2h0.1c0.2,0,0.2,0,0.5,0
				h0.2h0.5c0,0,0.1-0.5,0.1-0.6V36v-0.4c0-0.2,0.1-0.4,0.2-0.5v-0.2c0.1-0.2,0-0.3,0.1-0.4l0.1-0.4l0.1-0.2l0.1-0.3v-0.2
				c0-0.2,0.2-0.4,0.3-0.5h0.1h0.1h0.1l0.2,0.1l0.4,0.4l0.2,0.2c0.1,0,0.1,0.1,0.2,0.2l0.4,0.7l0.1,0.2l0.1,0.4
				c0,0.1,0.1,0.3,0.1,0.4l0.1,0.2v0.2l0.1,0.4l0.1,0.5c0,0,0.4-0.1,0.7-0.1c0.1,0,0.3,0,0.3,0h0.4c0.2,0,0.4,0,0.6,0.2l0.1,0.1
				l0.1,0.2v0.1v0.1c-0.1,0.1-0.3,0.2-0.4,0.2h-0.1h-0.2h-0.2c-0.1,0-0.5,0.1-0.6,0.1c0,0-0.1,0-0.2,0s-0.2,0-0.3,0h-0.1V38
				c0,0.2-0.1,0.2-0.1,0.4c0,0.1,0,0.3,0,0.3c0,0.2-0.1,0.3-0.1,0.5v0.1v0.1l-0.1,0.3l-0.1,0.1l-0.1,0.3v0.2c0,0.1,0.1,0.4,0.1,0.5
				V41v1.2c0.1,0.1,0.1,0.2,0.2,0.4l0.1,0.2l0.3,0.2l0.2,0.1h0.1h0.2L119,43l0.1-0.1c0.1-0.1,0.2-0.2,0.3-0.3c0-0.1,0.2-0.5,0.2-0.5
				l0.1-0.3l-0.1-0.2h-0.1c-0.2,0-0.4,0-0.4-0.2l0,0c0-0.1,0-0.2,0.1-0.3c0.1-0.1,0.3-0.1,0.4-0.1l0.2,0.1l0.3,0.1
				c0.1,0,0.2,0.1,0.2,0.2c0.1,0.1,0.1,0.3,0.1,0.4c0,0.2,0,0.5,0,0.7c0,0.1-0.1,0.3-0.1,0.5l-0.2,0.3l-0.1,0.2
				c-0.1,0.1-0.2,0.3-0.4,0.4l-0.2,0.1c-0.1,0-0.3,0.2-0.4,0.2l-0.2,0.1l0,0h-0.5l-0.3,0.1h-0.1c-0.2,0-0.5,0-0.7-0.1h-0.1l-0.4-0.3
				l-0.2-0.1l-0.2-0.1c-0.1-0.1-0.2-0.2-0.4-0.3l-0.4-0.4l-0.1-0.1l-0.2-0.4c0,0,0-0.1-0.3-1.1L114.9,40.8"/>
			<path class="st5" d="M121.6,42.9l-0.1-0.2v-0.1c0-0.1-0.1-0.2-0.1-0.3l-0.1-0.2v-0.2c0,0-0.1-0.4-0.1-0.5s0-0.3-0.1-0.3l-0.3-1.2
				c0-0.1,0-0.3,0-0.5c0-0.1,0-0.4,0-0.5l0.1-0.6c0-0.2,0-0.4,0.1-0.6v-0.3v-0.2l0.1-0.8l0.1-0.4v-0.3c0-0.2,0.1-0.5,0.2-0.7
				c0.1-0.3,0.1-0.5,0.3-0.7c0.1,0,0.1-0.1,0.2-0.1h0.2c0.2,0.1,0.2,0.2,0.3,0.3l0.1,0.2c0.1,0.1,0.2,0.4,0.2,0.4l0.1-0.1l0.1-0.1
				l0.4-0.3l0.2-0.1l0.3-0.1h0.1l0.2-0.1h0.2h0.2c0.1,0,0.2,0,0.4,0h0.3c0.1,0,0.2,0.1,0.3,0.2h0.1c0.1,0.1,0.2,0.2,0.3,0.3v0.1
				l0.1,0.3c0,0.1,0,0.2-0.1,0.3c-0.2,0.2-0.2,0.2-0.5,0.2c-0.2,0-0.3,0-0.4-0.2l-0.1-0.1c0,0-0.1-0.1-0.2-0.1h-0.2
				c-0.2,0-0.3,0.1-0.5,0.2l-0.2,0.3c-0.1,0.1-0.1,0.1-0.2,0.2l-0.2,0.2l-0.2,0.2l-0.1,0.1l-0.1,0.2v0.2l0.1,0.5l0.2,0.4l0.1,0.5
				l0.1,0.4v0.9c0,0.3,0,0.6,0,0.9v0.1c-0.1,0.1-0.2,0.3-0.2,0.5v0.2c0,0.1,0,0.2-0.1,0.3c-0.2,0.2-0.3,0.3-0.4,0.5
				c-0.1,0.1-0.1,0.2-0.3,0.4c0,0.1-0.1,0.2-0.2,0.3c-0.1,0.1,0,0.3-0.1,0.4l-0.1,0.2l-0.1,0.1h-0.1l-0.2-0.1L121.6,42.9z"/>
			<path class="st5" d="M130.3,43l-0.2,0.2l-0.2,0.1l-0.2,0.1c-0.3,0.1-0.6,0.2-0.9,0.1h-0.2c0,0,0,0-0.2,0c-0.1,0-0.2,0-0.3,0
				l-0.8-0.2h-0.1c-0.2,0-0.4-0.2-0.6-0.2c-0.2,0-0.3-0.2-0.5-0.3c-0.3-0.2-0.5-0.5-0.6-0.9v-0.2c-0.1-0.2-0.3-0.5-0.4-0.7v-0.1
				l-0.1-0.3c-0.1-0.3-0.1-0.6-0.1-0.9v-0.2c0.1-0.2,0.1-0.4,0.2-0.6c0,0,0.2-0.3,0.2-0.5l0.1-0.2c0.2-0.2,0.4-0.4,0.6-0.6l0.1-0.2
				c0.2-0.1,0.3-0.2,0.4-0.3c0.1-0.1,0.3-0.1,0.4-0.1l0.2-0.1h0.3h0.6h0.6h0.3c0.4,0,0.8,0.1,1.2,0.2l0.2,0.1c0.1,0,0.2,0.1,0.3,0.1
				v-0.1V37v-0.2l-0.1-0.5v-0.5l-0.1-0.3c-0.1-0.2-0.5-0.7-0.7-0.8h-0.2h-0.8h-0.2l-0.2,0.1l-0.4,0.2h-0.1h-0.2l-0.2,0.1l-0.1,0.1
				c-0.1,0.1-0.1,0.1-0.3,0.1l-0.1-0.1c-0.1-0.1-0.1-0.1-0.1-0.1v-0.2v-0.1c0-0.2,0.1-0.2,0.2-0.3l0.2-0.1h0.1l0.4-0.3
				c0.2-0.1,0.4-0.1,0.6-0.2h0.2h0.2h0.1h0.3c0,0,0,0,0.2,0c0.1,0,0.2,0,0.3,0l0.7,0.2l0.3,0.1h0.1l0.1,0.1h0.1
				c0.3,0.1,0.6,0.2,0.9,0.5l0.4,0.5l0.2,0.2c0.1,0.1,0.1,0.1,0.2,0.2l0.1,0.1l0.1,0.2c0.4,0.7,0.4,0.7,0.4,0.7
				c0.1,0.2,0.2,0.4,0.2,0.5v0.2c0,0.2,0.2,0.3,0.2,0.4v0.1v0.2c0.1,0.2,0.1,0.5,0.1,0.7v0.1V39l0.1,0.3v0.2v0.2l0.1,0.7v0.1
				c0,0.2-0.1,0.3-0.2,0.5l-0.1,0.3l-0.3,0.3c-0.1,0.1-0.2,0.2-0.2,0.3l-0.2,0.3l-0.2,0.2l-0.1,0.2l-0.4,0.3
				c-0.1,0.1-0.1,0.1-0.2,0.2c-0.1,0.1-0.2,0.1-0.3,0.2v0.1l-0.2,0.3c-0.1,0.1-0.2,0.2-0.3,0.3h-0.1H131c-0.2-0.1-0.2-0.2-0.3-0.4
				v0.1v-0.5v-0.3l-0.1-0.2C130.7,42.8,130.5,42.9,130.3,43 M127.2,41.1l0.1,0.2v0.3c0,0.1,0.1,0.2,0.1,0.3l0.3,0.3
				c0.1,0,0.1,0.1,0.2,0.1h0.2h0.2l0.2,0.1h0.2h0.2h0.3h0.1l0.1-0.1c0.2,0,0.3-0.1,0.5-0.2l0.7-0.6c0-0.3,0,0,0-1.1V40v-0.2v-0.3
				c0-0.1,0-0.6,0.1-0.7c-0.1-0.3-0.1-0.3-0.1-0.3v-0.1l-0.4-0.2h-0.1l-0.4-0.1h-0.1c-0.1,0-0.3,0-0.4,0H129l-0.2,0.2l-0.4,0.1
				c-0.1,0-0.3,0.1-0.3,0.1c-0.2,0.1-0.3,0.2-0.5,0.2l-0.1,0.1c-0.1,0.1-0.3,0.3-0.3,0.4s-0.1,0.2-0.1,0.3c0,0.1,0,0.2,0,0.3v0.4
				v0.2l-0.1,0.3L127.2,41.1"/>
		</g>
		<path class="st5" d="M72.1,211.6c0-0.2-0.1-0.3-0.1-0.5l-0.3-1V210l-0.4-1.8l-0.1-0.4c0-0.1,0-0.5,0-0.7v-0.3c0-0.1,0-0.3,0-0.4
			l0.1-1v-0.2c0.1-0.4,0.3-0.7,0.5-1.1l0.1-0.2c0-0.1,0.1-0.3,0.2-0.3l0.1-0.2l0.1-0.2l0.2-0.2l0.1-0.1l0.1-0.1l0.1-0.1h0.1l0.1,0.1
			l0.1,0.1l0.1,0.1l0.3,0.4c0.1,0.3,0.3,0.5,0.4,0.8l0.1,0.1c0.1,0.2,0.1,0.5,0.1,0.7l0.1,0.3v0.4c0,0.1,0,0.3,0,0.4l-0.1,0.3
			c0,0.1-0.1,0.9-0.1,1.1v0.4c0,0.1-0.2,0.6-0.2,0.8c0,0.2-0.1,0.3-0.2,0.4l-0.1,0.2l-0.3,0.4l0,1v0.1v0.1l-0.1,0.2
			c-0.1,0.2-0.2,0.4-0.3,0.5l-0.1,0.4c0,0.1-0.1,0.4-0.1,0.4l-0.1,0.2h-0.1l-0.1-0.1c0-0.1,0-0.2,0-0.3v-0.3L72.1,211.6 M72.5,201.4
			l-0.3-0.4l-0.1-0.2v-0.2v-0.2v-0.2V200l0.1-0.1v-0.1l0.1-0.2l0.1-0.2l0.2-0.1l0.2,0.1c0.1,0,0.2,0,0.4,0c0.1,0,0.2,0.1,0.4,0.1
			l0.3,0.2l0.1,0.1l0.2,0.1l0.2,0.3l0.1,0.1v0.3c0,0.2-0.1,0.4-0.2,0.6l-0.1,0.3l-0.1,0.1l-0.1,0.3l-0.2,0.1h-0.1h-0.2
			c-0.1,0-0.1,0-0.3-0.1H73l-0.2-0.1h-0.1L72.5,201.4z"/>
		<path class="st5" d="M76.7,212.3c0-0.1-0.1-0.2-0.1-0.4c-0.1-0.2-0.3-0.9-0.3-1.1v-0.3v-0.3c0-0.1,0-0.3,0-0.4s0-0.2,0-0.3l0.1-1
			c0-0.3,0-0.6,0-0.9v-0.3v-0.5c0-0.1,0-0.2,0-0.4V206c0-0.6,0.1-1.4,0.1-1.4v-0.2l0.1-0.5c0-0.1,0.1-0.4,0.1-0.4v-0.3V203
			c0-0.1,0.1-0.9,0.1-1s0.2-0.7,0.2-0.8l0.2-0.6c0-0.2,0.2-0.3,0.2-0.4l0.1-0.2l0.1-0.3c0-0.1,0.2-0.3,0.3-0.3H78l0.2,0.2
			c0.2,0.2,0.2,0.4,0.2,0.5l0.1,0.2c0.1,0.2,0,0.4,0.1,0.5v0.1l0.2,0.2c0.1,0.1,0.2,0.4,0.2,0.6c0,0,0,0.2,0,0.4v0.3l-0.1,1.2
			c0.1,0.2,0.1,0.4,0.1,0.6v0.2v0.3v0.3v0.2l-0.1,0.6c0,0.1,0,0.1,0,0.3v0.2v0.4c0,0.1-0.1,0.8-0.2,0.9l-0.2,0.5l-0.1,0.2l-0.1,0.2
			c-0.1,0.2-0.2,0.3-0.3,0.4l-0.1,0.3l-0.1,0.2c-0.1,0.2-0.1,0.3-0.1,0.5s-0.1,0.8-0.2,0.9c0,0.2-0.1,0.4-0.2,0.5v0.1l-0.1,0.3
			l-0.1,0.3v0.2c-0.1,0.1-0.1,0.3-0.2,0.3h-0.1L76.7,212.3"/>
		<path class="st5" d="M85.4,210.9v-0.2v-0.3h-0.2c-0.1,0.1-0.5,0.1-0.5,0.1c-0.2,0-0.4,0.1-0.6,0.1c0,0-0.6,0.1-1.1,0
			c0,0-0.7-0.2-0.9-0.3l-0.3-0.1c-0.2-0.1-0.5-0.3-0.7-0.5l-0.3-0.5c-0.1-0.2-0.2-0.4-0.2-0.6c-0.1-0.2-0.2-0.5-0.3-0.8v-0.4
			c0-0.1-0.1-0.3-0.2-0.4c0-0.1,0-0.2,0-0.4v-0.2c0-0.1,0-0.3,0.1-0.4l0.2-0.4c0.1-0.2,0.1-0.3,0.2-0.5l0.2-0.3l0.1-0.2
			c0.2-0.2,0.4-0.5,0.7-0.6l0.2-0.1l0.5-0.2l0.4-0.1c0.3-0.1,0.6-0.1,0.9-0.1h0.1c0.3,0,0.3,0.1,0.4,0.1h0.3l0.4,0.1l0.3,0.1
			c0.1,0,0.2,0.1,0.4,0.1v-0.1l0.1-0.7c0,0,0.3-1,0.4-1.3l0.1-0.3c0-0.1,0.1-0.3,0.1-0.4c0.1-0.2,0.1-0.4,0.2-0.6l0.1-1l0.1-0.3
			l0.1-0.4c0-0.2,0.2-0.4,0.3-0.5l0.1-0.1l0.1-0.2l0.1-0.2l0.1-0.1l0.3-0.1l0.1,0.1c0.1,0.1,0.1,0.2,0.2,0.3l0.1,0.2l0.1,0.1
			l0.1,0.1c0.2,0.5,0.2,0.5,0.2,0.5l0.1,0.2c0,0.3,0.2,0.5,0.2,0.8s0.1,0.6,0,0.9v0.2v0.2v0.2c0,0.1,0,0.2,0,0.3v0.1v0.5
			c0,0.2,0,0.3,0,0.5v0.6v0.2c0,0.3-0.1,0.6-0.2,0.9v0.5l-0.1,0.4l-0.1,0.4l-0.1,0.3c0,0.2-0.1,0.5-0.2,0.7l-0.1,0.3
			c0,0.1-0.1,0.2-0.1,0.4c-0.1,0.2,0,0.3-0.2,0.5l-0.2,0.3l-0.1,0.1c-0.1,0.1-0.1,0.3-0.2,0.4S87,209,87,209.1l-0.1,0.3l-0.1,0.2
			c-0.1,0.2-0.1,0.3-0.3,0.5l-0.2,0.3l-0.2,0.2c-0.2,0.1-0.2,0.2-0.3,0.3l-0.2,0.2h-0.1h-0.1L85.4,210.9
			C85.4,211.2,85.4,211,85.4,210.9 M82.1,207.8v0.2v0.4l0.1,0.2l0.1,0.2c0.1,0.3,0.3,0.4,0.6,0.6l0.4,0.2l0.3,0.1c0.2,0,0.5,0,0.8,0
			l0.4-0.1l0.2-0.1c0.2-0.1,0.5-0.3,0.6-0.3v-0.1c0.1-0.7,0-1.4,0.1-2.2v-0.2v-0.4c0-0.2,0-0.6,0-0.8c0-0.1,0-0.2,0-0.3
			c0-0.1,0-0.3,0.1-0.3h-0.2l-0.3-0.1c-0.2,0-0.3,0.1-0.6,0.1l-0.2,0.1l-0.2,0.1l-0.2,0.1c-0.2,0.1-0.5,0.2-0.7,0.3l-0.5,0.5
			l-0.4,0.4c0,0.1-0.2,0.3-0.2,0.5c0,0,0,0.1,0,0.2s0,0.2,0,0.3L82.1,207.8"/>
		<path class="st5" d="M68.1,210.3V210c0-0.3-0.4-1.8-0.5-2l-0.2-0.4l-0.1-0.2l-0.2-1c-0.1-0.1-0.1-0.2-0.1-0.3l-0.7,1.2v0.1
			c-0.2,0.4-0.5,0.8-0.7,1.1c-0.2,0.2-0.2,0.5-0.4,0.8c-0.1,0.3-0.5,0.5-0.5,0.7l-0.3,0.2h-0.2h-0.1c-0.2,0-0.3-0.1-0.4-0.2
			c-0.2-0.1-0.3-0.3-0.4-0.6l-0.1-0.2l-0.2-0.3l-0.2-0.4l-0.3-0.7l-0.1-0.2l-0.1-0.4c-0.2-0.3-0.2-0.7-0.4-1c0,0-0.2-0.4-0.3-0.6
			l-0.1-0.2l-0.2-0.5l-0.1-0.2l-0.2-0.3v0.2c-0.1,0.3-0.2,0.3-0.1,0.4c0,0.1-0.1,0.3-0.2,0.4l-0.1,0.4l-0.2,0.8l-0.1,0.3v0.6
			l-0.1,0.5l-0.4,1.7c-0.1,0.1-0.1,0.3-0.1,0.5l-0.2,0.7l-0.1,0.2c0,0.1-0.3,0.6-0.4,0.7s-0.2,0.3-0.3,0.4c-0.1,0.1-0.3,0.1-0.4,0.2
			h-0.2l-0.3,0.1h-0.3l-0.3-0.1v-0.2V212c0-0.1-0.1-0.7-0.1-0.9c0-0.2,0-0.8,0-0.9l0.2-2l0.3-1.2v-0.2c0.2-0.5,0.2-0.9,0.4-1.4
			c0,0,0.1-0.1,0.1-0.3l0.1-0.6c0.1-0.1,0.1-0.4,0.2-0.6c0.1-0.3,0.1-0.6,0.2-0.8l0.4-1.4c0,0,0.1-0.3,0.2-0.5
			c0.2-0.4,0.3-0.8,0.4-1.2l0.1-0.2c0.1-0.2,0.2-0.3,0.3-0.5l0.1-0.2l0.2-0.5l0.1-0.2c0.1-0.1,0.3-0.3,0.5-0.2
			c0.2,0,0.4,0.2,0.5,0.3l0.1,0.3c0.1,0.1,0.1,0.3,0.2,0.4l0.1,0.2l0.4,0.3c0.1,0.2,0.1,0.4,0.2,0.7v0.2l0.2,0.5l0.3,0.7l0.1,0.4
			l0.1,0.2l0.1,0.4c0.1,0.1,0.2,0.3,0.2,0.4l0.1,0.1c0.2,0.5,0.3,1,0.5,1.5c0.1,0.1,0.1,0.4,0.2,0.5c0-0.4,0.1-0.6,0.3-0.9l0.2-0.7
			l0.1-0.4c0-0.3,0.1-0.5,0.1-0.8c0-0.1,0.1-0.3,0.1-0.4l0.1-0.6l0.1-0.3c0.1-0.2,0-0.5,0.1-0.8c0.1-0.2,0.1-0.3,0.2-0.5l0.1-0.2
			v-0.2c0.1-0.4,0.1-0.4,0.1-0.5s0.1-0.2,0.1-0.4l0.1-0.1l0.1-0.1c0.1,0,0.2-0.1,0.3-0.1c0.1,0,0.2,0,0.3,0.1l0.2,0.2l0.2,0.1
			l0.2,0.3l0.1,0.1c0.1,0.2,0.1,0.5,0.3,0.6l0.1,0.2l0.1,0.2c0.1,0.1,0,0.2,0.1,0.4l0.2,0.9c0,0.2,0.1,0.4,0.1,0.5
			c0,0.2,0.1,0.1,0.1,0.2l0.1,0.3l0.4,2.1v0.3l0.2,0.3c0.3,0.3,0.2,1.2,0.2,1.2l0.1,0.3l0.1,0.4l0.1,0.4c0,0.2,0.1,0.4,0.1,0.5v0.1
			c0.1,1,0,1.9,0.1,2.9c0,0.2,0.1,0.5,0,0.7c0,0.1,0,0.2,0,0.4v0.3c0,0.2-0.1,0.4-0.2,0.5c0,0.1-0.1,0.1-0.3,0.1H69l-0.1-0.1
			c-0.3-0.2-0.4-0.6-0.5-1c0-0.1,0-0.2-0.1-0.3L68.1,210.3z"/>
		<path class="st5" d="M20.9,209c-0.3,0-0.8,0.2-0.8,0.1h-0.5c-0.1,0-0.5-0.1-0.7,0h-0.4h-0.6c-0.1,0-0.2,0-0.3,0l-0.2-0.2l-0.1-0.3
			c0,0,0-0.2,0-0.6c0-0.1-0.1-0.7-0.1-0.8c0-0.2-0.3-1.4-0.3-1.6v-0.2v-0.5c0-0.6,0-1.3,0-1.9v-0.5c0-0.1,0-0.2,0-0.3
			c0-0.2,0-0.3,0-0.4c0-0.2,0.1-0.4,0.1-0.6c0,0,0-0.1,0-0.3l0.1-1.2l0.1-0.3c0-0.1,0-0.2,0-0.3c0-0.3,0.1-0.4,0.1-0.6l0.1-0.3
			l0.1-0.4l0.2-0.3c0.1-0.1,0.1-0.1,0.2-0.3l0.2-0.2h0.2l0.7-0.1h0.2l0.9,0.1h0.3c0.3-0.1,0.6,0,0.8,0h0.2c0.1,0,0.2,0.1,0.4,0.1
			l0.3,0.1c0.4,0,0.9,0.1,1.4,0.1c0.1,0,0.3-0.1,0.4-0.1h0.2l0.4,0.2l0.1,0.1v0.1c0,0,0,0.1-0.2,0.3c-0.1,0.1-0.4,0.2-0.5,0.2h-0.2
			c-0.2,0.1-0.4,0-0.6,0.2c-0.3,0-0.6,0-0.9,0.1c-0.3,0-0.8,0.1-0.9,0.1h-0.7l-0.2,0.2l0.1,0.3c0,0.1,0,0.1,0,0.2l0.1,0.3v0.2v0.1v1
			v0.2c0,0.1,0.1,0.1,0.1,0.7v0.4c0.2,0,0.4,0,0.6,0.1c0.2,0,0.4,0.1,0.6,0.2l0.4,0.1c0.1,0,0.2,0,0.3,0l0.3-0.1h0.3h0.5H24l0.3,0.2
			c0,0.1,0.1,0.1,0.1,0.3v0.1c0,0.1-0.4,0.3-0.4,0.3h-0.3h-0.1l-0.3,0.1l-0.5,0.1l-0.2,0.1c-0.1,0-0.2,0-0.4,0h-1h-0.1
			c0,0-0.3,0.1-0.3,0.2c0,0.3,0.1,1.2,0.1,1.2l0.1,0.3c0,0.4,0,0.5,0,0.5l-0.1,0.2c0,0.2,0,0.8,0,1v0.2v0.3c0.2,0,0.4,0.2,0.6,0.2
			l1.1,0.1h0.3c0.1,0,0.1,0.1,0.2,0c0.2,0,0.5,0.1,0.6,0l0.3-0.1c0.1,0,0.3,0,0.4-0.1l0.4,0.1H25c0.2,0,0.1,0.2,0.2,0.3
			c0,0.2-0.1,0.2-0.1,0.4c0,0,0,0.1-0.1,0.2c-0.2,0.1-0.3,0.2-0.3,0.2l-0.4,0.1h-0.2c-0.1,0-0.2,0-0.3,0h-0.5
			c-0.1,0-0.2,0.1-0.4,0.1h-0.5h-0.3L20.9,209z"/>
		<path class="st5" d="M30.4,207.4l-0.3-0.3l-0.3-0.3l-0.1-0.2l-0.1-0.1c-0.2-0.2-0.4-0.5-0.6-0.7l-0.5,0.5l-0.1,0.2l-0.1,0.1
			c0,0.1-0.1,0.3-0.2,0.4l-0.5,0.6l-0.2,0.2l-0.1,0.2l-0.1,0.2v0.1l-0.4,0.4v0.1l-0.1,0.1l-0.2,0.1l-0.3,0.1h-0.3l-0.4-0.2l-0.2-0.3
			v-0.1l0.1-0.2l0.1-0.1l0.3-0.3l0,0l0.2-0.3l0.4-0.6l0.4-0.5c0.1-0.1,0.1-0.2,0.2-0.4l0.2-0.4c0.1-0.1,0.2-0.2,0.3-0.4l0.2-0.3
			l0.4-0.4l-0.1-0.1l-0.2-0.2c-0.1-0.1-0.2-0.2-0.3-0.3l-0.2-0.3c-0.6-0.7-0.6-0.8-0.6-0.8l-0.5-0.8l-0.1-0.1
			c-0.1-0.1-0.1-0.2-0.2-0.3l-0.2-0.2c-0.1-0.2-0.1-0.4-0.2-0.6v-0.2v-0.2l-0.1-0.1v-0.2c0.1-0.1,0.1-0.1,0.2-0.1h0.1l0.3,0.2
			l0.2,0.1l0.3,0.2l0.6,0.1c0.1,0,0.2,0,0.3,0.1h0.1l0.2,0.1l0.2,0.1l0.1,0.1l0.4,0.2c0.1,0.1,0.1,0.1,0.2,0.2l0.1,0.1
			c0.1,0.1,0.2,0.1,0.3,0.2l0.5,0.3l0.2,0.1c0.1-0.1,0.2-0.2,0.3-0.4l0.2-0.2l0.2-0.3l0.2-0.3l0.2-0.2l0.5-0.5l0.3-0.2l0.1-0.1
			l0.2-0.3l0.1-0.1l0,0c0-0.1,0.2-0.2,0.4-0.2h0.1l0.1,0.1v0.1v0.1v0.1c0,0.4-0.2,0.8-0.2,1.2c0,0.1,0,0.2,0,0.3
			c0,0.3-0.1,0.5-0.3,0.7l-0.1,0.1l-0.1,0.4c0,0.1-0.2,0.4-0.2,0.5v0.1l-0.1,0.2l0.1,0.1l0.4,0.4l0.4,0.3c0.1,0.1,0.2,0.3,0.3,0.4
			l0.3,0.2c0.2,0.2,0.2,0.5,0.2,0.8v0.1l0.1,0.1c0.1,0.1,0.1,0.2,0.1,0.3l0.1,1.6v0.1l0.1,0.3v0.5v0.1c-0.1,0.2-0.2,0.3-0.4,0.3
			c-0.1,0-0.3-0.1-0.4-0.2l-0.2-0.1h-0.1c-0.1-0.1-0.3-0.1-0.4-0.2l-0.1-0.1l-0.2-0.2L30.4,207.4z"/>
		<path class="st5" d="M34.9,206l-0.1-0.3c0-0.1,0-0.3-0.1-0.4c0-0.6,0-0.6,0-0.6l-0.1-1v-0.3c0-0.1,0,0,0-0.2v-0.6
			c-0.2,0-0.4-0.1-0.6-0.1l-0.6,0.1c-0.1,0-0.2-0.1-0.3-0.2c0,0,0,0-0.1-0.2c0-0.1,0-0.1,0-0.2s0.1-0.2,0.2-0.2h0.1
			c0.2,0,0.2,0,0.5-0.1H34h0.5c0,0,0.1-0.5,0.1-0.6V201v-0.4c0-0.2,0.1-0.4,0.2-0.5v-0.2c0.1-0.2,0-0.3,0.1-0.5L35,199l0.1-0.2
			l0.1-0.3v-0.2c0-0.2,0.2-0.4,0.3-0.5l0.1-0.1h0.1h0.1l0.2,0.1l0.5,0.4l0.2,0.2l0.2,0.2l0.4,0.7l0.1,0.2l0.1,0.4
			c0,0.1,0.1,0.3,0.1,0.4l0.1,0.2v0.2l0.1,0.4l0.1,0.5c0,0,0.4-0.1,0.8-0.1c0.1,0,0.3,0,0.3,0h0.4c0.2,0,0.4,0,0.6,0.2l0.1,0.1
			l0.1,0.2v0.1v0.1l-0.4,0.2h-0.1h-0.3h-0.2l-0.6,0.1c0,0-0.1,0-0.3,0c-0.1,0-0.2,0-0.3,0h-0.1v0.3c0,0.2-0.1,0.2-0.1,0.5
			c0,0.1,0,0.3,0,0.4c0,0.2-0.1,0.3-0.1,0.5v0.1v0.1l-0.1,0.3l-0.1,0.1l-0.1,0.4v0.2l0.1,0.5v0.3v1.2c0.1,0.1,0.1,0.3,0.2,0.4
			l0.5-0.1l0.3,0.2l0.3,0.1h0.1h0.2l0.2-0.1l0.1-0.1c0.1-0.1,0.2-0.2,0.3-0.3c0-0.1,0.2-0.5,0.2-0.6l0.1-0.3l-0.1-0.2h-0.1
			c-0.2,0-0.4,0-0.4-0.2l0,0c0-0.1,0-0.2,0.1-0.3l0.4-0.1l0.2,0.1l0.3,0.1c0.1,0,0.2,0.1,0.2,0.2c0.1,0.1,0.1,0.3,0.1,0.4
			c0,0.2,0,0.5,0,0.7c0,0.1-0.1,0.4-0.1,0.5l-0.2,0.3l-0.1,0.2c-0.1,0.1-0.2,0.3-0.4,0.4l-0.2,0.1c-0.1,0.1-0.3,0.2-0.4,0.2
			l-0.2,0.1l0,0h-0.5l-0.3,0.1h-0.1c-0.3,0-0.5,0-0.8-0.1h-0.1l-0.4-0.3l-0.2-0.1l-0.2-0.1c-0.1-0.1-0.3-0.2-0.4-0.3l-0.4-0.4
			l-0.1-0.1l-0.2-0.4c0,0,0-0.1-0.3-1.1L34.9,206"/>
		<path class="st5" d="M41.8,208l-0.1-0.2v-0.1c0-0.1-0.1-0.2-0.1-0.3l-0.1-0.2V207c0,0-0.1-0.4-0.1-0.5s-0.1-0.3-0.1-0.3L41,205
			c0-0.1,0-0.3-0.1-0.5V204l0.1-0.7c0-0.2,0-0.4,0.1-0.6v-0.3v-0.2l0.1-0.8l0.1-0.4v-0.3c0-0.2,0.1-0.5,0.2-0.7
			c0.1-0.3,0.1-0.5,0.3-0.7c0.1,0,0.1-0.1,0.3-0.1h0.2c0.2,0.1,0.2,0.2,0.3,0.3l0.1,0.2c0.1,0.1,0.2,0.4,0.3,0.4l0.1-0.1l0.1-0.1
			l0.4-0.3l0.2-0.1l0.3-0.1l0.1-0.1l0.2-0.1h0.2h0.2c0.1,0,0.3,0,0.4,0h0.3c0.1,0,0.2,0.1,0.3,0.2h0.1c0.1,0.1,0.2,0.2,0.3,0.3
			l0.1,0.1l0.1,0.3l-0.1,0.3c-0.2,0.2-0.2,0.2-0.5,0.3c-0.3,0-0.3,0-0.4-0.2l-0.1-0.1l-0.2-0.1h-0.2c-0.2,0-0.3,0.1-0.5,0.2
			l-0.2,0.3c-0.1,0.1-0.1,0.1-0.2,0.2l-0.2,0.2l-0.2,0.2l-0.1,0.1l-0.1,0.2l0.1,0.2l0.1,0.5l0.2,0.4l0.2,0.5l0.1,0.4l0.1,0.9
			c0,0.3,0,0.7,0,1v0.1c-0.1,0.1-0.2,0.3-0.2,0.5v0.2c0,0.1,0,0.2-0.1,0.3c-0.2,0.2-0.3,0.3-0.4,0.5c-0.1,0.1-0.1,0.2-0.3,0.4
			c0,0.1-0.1,0.2-0.1,0.3c-0.1,0.1,0,0.3-0.1,0.4l-0.1,0.2l-0.1,0.1h-0.1l-0.2-0.1L41.8,208z"/>
		<path class="st5" d="M50.8,208l-0.2,0.2l-0.2,0.1l-0.2,0.1c-0.3,0.2-0.6,0.2-0.9,0.2h-0.2c0,0,0,0-0.2,0c-0.1,0-0.2,0-0.3,0
			l-0.8-0.1h-0.1c-0.3,0-0.4-0.2-0.6-0.2s-0.3-0.2-0.5-0.3c-0.3-0.2-0.5-0.6-0.7-0.9v-0.2c-0.1-0.3-0.3-0.5-0.4-0.7v-0.1l-0.1-0.3
			c-0.1-0.3-0.1-0.6-0.1-0.9v-0.2c0.1-0.2,0.1-0.4,0.2-0.6c0,0,0.2-0.3,0.2-0.5l0.1-0.2c0.2-0.2,0.4-0.4,0.6-0.6l0.1-0.2
			c0.2-0.1,0.3-0.2,0.4-0.3c0.1-0.1,0.3-0.1,0.5-0.1l0.2-0.1h0.3h0.6h0.6h0.3c0.4,0,0.8,0.1,1.2,0.2l0.2,0.1c0.1,0,0.3,0.1,0.3,0.1
			v-0.1v-0.2V202l-0.1-0.5V201l-0.1-0.3c-0.1-0.2-0.5-0.8-0.7-0.8H50h-0.8H49l-0.2,0.1l-0.4,0.2h-0.1l-0.2,0.1l-0.2,0.1l-0.1,0.1
			c-0.1,0.1-0.1,0.1-0.3,0.1l-0.1-0.1c-0.1-0.1-0.1-0.1-0.1-0.1v-0.3V200c0-0.2,0.1-0.2,0.2-0.3l0.2-0.1h0.1l0.4-0.3
			c0.2-0.1,0.4-0.2,0.6-0.2H49l0.2-0.1h0.1h0.3c0,0,0,0,0.2,0c0.1,0,0.2,0,0.3,0l0.7,0.2l0.3,0.1h0.1l0.1,0.1h0.1
			c0.3,0.1,0.7,0.2,0.9,0.5l0.4,0.5l0.2,0.2l0.2,0.2l0.1-0.1l0.1,0.2c0.4,0.7,0.4,0.7,0.4,0.7c0.1,0.2,0.2,0.4,0.2,0.6v0.2
			c0,0.2,0.2,0.3,0.2,0.4v0.1v0.2c0.1,0.2,0.1,0.5,0.1,0.7v0.1v0.1l0.1,0.3v0.2v0.2l0.1,0.7v0.1c0,0.2-0.1,0.3-0.2,0.5l-0.1,0.3
			l-0.3,0.4l-0.2,0.3l-0.2,0.3l-0.2,0.2l-0.1,0.2l-0.4,0.4l-0.2,0.2l-0.3,0.2v0.1l-0.2,0.3c-0.1,0.1-0.2,0.2-0.3,0.3l-0.1,0.1h-0.1
			c-0.2-0.1-0.2-0.2-0.3-0.4v-0.1v-0.5V208l-0.1-0.2C51.2,207.8,50.9,207.8,50.8,208 M47.5,206l0.1,0.2v0.3c0,0.1,0.1,0.2,0.1,0.3
			l0.3,0.3l0.2,0.1h0.2h0.2l0.3,0.1h0.2h0.2h0.3h0.1l0.1-0.1c0.2-0.1,0.3-0.1,0.5-0.2l0.8-0.6c0-0.3,0,0,0-1.1v-0.4v-0.2v-0.3
			c0-0.1,0-0.7,0-0.8c-0.1-0.3-0.1-0.3-0.1-0.3v-0.1l-0.4-0.2h-0.1l-0.4-0.1H50c-0.1,0-0.3,0-0.4,0h-0.2l-0.2,0.2l-0.4,0.1
			c-0.1,0-0.3,0.1-0.3,0.1c-0.2,0.1-0.3,0.2-0.5,0.2l-0.1,0.1c-0.1,0.1-0.3,0.3-0.3,0.4s-0.1,0.2-0.1,0.3c0,0.1,0,0.2,0,0.3v0.4v0.2
			l-0.1,0.3L47.5,206"/>
	</g>
</g>
</svg>
