<?xml version="1.0" encoding="utf-8"?>
<!-- Generator: Adobe Illustrator 19.2.1, SVG Export Plug-In . SVG Version: 6.00 Build 0)  -->
<svg version="1.1" id="Layer_1" xmlns="http://www.w3.org/2000/svg" xmlns:xlink="http://www.w3.org/1999/xlink" x="0px" y="0px"
	 width="178.2px" height="224.1px" viewBox="0 0 178.2 224.1" style="enable-background:new 0 0 178.2 224.1;" xml:space="preserve"
	>
<style type="text/css">
	.st0{fill:#5A642D;}
	.st1{fill:#96C31E;}
	.st2{fill:#FAA500;}
	.st3{fill:#CE0A24;}
	.st4{fill:#46230F;}
	.st5{fill:#F7F5E9;}
</style>
<g>
	<g>
		<g>
			<path class="st0" d="M56.7,192.4l-19.9,2.1c-2.3,4.5-5,8.8-8,12.8c-0.1,0.1-5.4,7.6,1,14.1c1.8,1.8,4.4,2.7,8,2.7
				c5.2,0,12.7-2.3,14.9-3.5l0,0c5.9-2,15.5-6.1,27.8-14.3c5.2-3.5,9.5-6.8,12.9-9.8c0.5-0.4,0.9-0.8,1.4-1.3L56.7,192.4z"/>
			<path class="st1" d="M72.7,155l-24.2,2.5c-1.8,10.9-4.8,21.8-9.3,31.9l17.5,3l-0.9,0.1l38.7,3c0.2-0.2,0.5-0.4,0.7-0.6
				c1.9-1.6,3.6-3.2,4.8-4.4c5.9-5.7,7.7-8,12-13.6l0.1-0.2c0.7-1,1.6-2.2,2.4-3.3c1.3-1.7,2.5-3.3,3-4.3c3-4.5,5.1-7.9,7.1-11.8
				L72.7,155z"/>
			<path class="st2" d="M140.4,113.7l-60.6-0.1l-3.1,0.2l-74.2,0.4l-0.8,11.6l9.7,7.3l-10.6,6.8L0,151.7l63.4,2.9l9.4,0.4h-0.1
				l52,2.4c1.4-2.7,2.8-5.6,4.5-9.3l4.8-12.4C136.7,128.9,139,120,140.4,113.7z"/>
			<path class="st3" d="M143.6,74.7l-77.2-3.5l0,0l1,0.2l-21.5,1.1c0,4.6,0.4,9.5,1.2,14.6c0,0.9,0.1,1.9,0.1,2.9v0.2v0.1
				c1.2,5.8,2.3,12.9,3,20.9l29.6,2.5l0,0l60.7,0.1c1-4.4,1.6-7.5,1.6-7.6C143.9,94.5,144.4,83.9,143.6,74.7z"/>
			<path class="st4" d="M142.7,68.1V68v-0.1c-1.5-8-4.1-15-8.1-20.8c-5.2-6.7-11.3-11.9-18.3-15.4c-1.7-1.2-3.3-2.3-4.7-3.4
				c-2.8-2.2-4.2-4.6-4.2-7.2V21l0,0c0-0.6,0.1-1.2,0.2-1.8c0-0.1,0.1-0.2,0.1-0.4v-0.2c0.6-3.2,2.3-9.2,7.2-13.1l0.1-0.1l0.1-0.1
				c0.4-0.5,0.5-1,0.3-1.5c-0.1-0.4-0.4-0.7-0.8-0.8l-6.1-2.7c-0.3-0.1-0.7-0.2-1-0.1h-0.1c-4.2,1.1-7.9,3.8-10.5,7.9
				c-2.2,3.4-3.9,7.5-5.1,12.3l0,0c-0.9,2.2-2.8,3.9-5.8,5.1c-1.1,0.5-2.4,0.9-4,1.4h-0.1c-0.7,0.1-1.4,0.3-2.1,0.4
				c-1.7,0.3-7.7,2.3-8.3,2.5l-0.4,0.1l0,0c-0.1,0-0.2,0.1-0.3,0.1c-2.3,1-4.6,2-5.4,2.6C64,33.3,48.5,42,46.1,66.3l20.3,4.6l0,0
				l77.2,3.4C143.4,72.4,143.1,70.2,142.7,68.1z"/>
		</g>
	</g>
	<g>
		<g>
			<path class="st5" d="M38.2,134c0.1-0.9,0.1-0.9,0.1-0.9c0-0.1,0.1-0.2,0.1-0.2c0.1-0.1,0.1-0.4,0.2-0.5l0.3-0.9
				c0.1-0.2,0.1-0.5,0.3-0.7l0.3-0.5c0-0.1,0.2-0.4,0.3-0.5c0.1-0.1,0.5-0.6,0.6-0.7l0.3-0.3c0.1-0.1,0.6-0.7,0.8-0.8
				c0.2-0.2,0.3-0.4,0.5-0.7l0.3-0.3c0.1-0.1,0.3-0.1,0.4-0.2c0.6-0.4,1.2-0.7,1.9-0.9c0.1,0,0.4-0.1,0.4-0.1
				c0.4-0.1,0.7-0.1,1.1-0.2l1.2-0.1c0.1,0,0.2-0.1,0.4-0.1c0.4,0,0.7,0.1,1.1,0.1l1,0.2c0.3,0,0.7,0.2,1.1,0.4
				c0.2,0,0.5,0.1,0.8,0.2l0.6,0.4c0.1,0.1,0.2,0.2,0.4,0.3c0.3,0.3,0.7,0.5,0.9,0.8l0.7,0.9c0.1,0.2,0.3,0.6,0.4,0.8
				c0,0.1,0.1,0.5,0.1,0.6c0,0.2,0,0.7,0,0.8s-0.1,0.5-0.1,0.7c-0.1,0.4-0.2,0.8-0.4,1.1l-0.1,0.1l-0.1,0.3c0,0-0.1,0.1-0.2,0.2
				l-0.3,0.3c0,0.1-0.3,0.3-0.4,0.4c-0.1,0.1-0.3,0.1-0.4,0.2c-0.1,0-0.3,0-0.4,0l-0.3,0.2c-0.1,0-0.1,0.1-0.2,0.1
				c-0.2,0.1-0.3,0.2-0.5,0.2c-0.1,0-0.7,0.1-0.8,0.2c0,0-0.2,0-0.2,0.1c-0.3,0.1-0.5,0.2-0.8,0.2c-0.1,0.1-0.5,0.2-0.6,0.2
				c-0.2,0-0.4,0.1-0.8,0.1c-0.3,0-0.6,0-0.9-0.1c-0.6,0-1.1-0.1-1.8-0.3c0,0-0.1,0.1-0.1,0.2c0,0.1-0.1,0.3,0,0.4
				c0,0.1,0,0.1,0.1,0.2c0,0.2,0,0.4,0,0.7l0.3,1.3c0.1,0.4,0.3,0.8,0.5,1.1l0.1,0.1c0.1,0.1,0.1,0.5,0.9,0.9c0,0.1,1.1,0.5,1.4,0.6
				s0.8,0.2,1.2,0.2c0.2,0,0.4,0,0.6,0c0.1,0,0.2,0,0.2,0l0.4-0.1c0.1,0,0.2-0.1,0.3-0.1l0.4-0.3c0.3-0.3,0.6-0.6,0.9-1
				c0-0.1,0.1-0.3,0.2-0.4c0.1-0.1,0.1-0.2,0.2-0.3s0.1-0.2,0.1-0.3c0-0.2-0.1-0.5-0.1-0.5c0-0.2-0.2-0.2-0.4-0.3
				c-0.2-0.1-0.4-0.3-0.4-0.6c0-0.1,0-0.3,0-0.4c0.2-0.2,0.5-0.5,0.8-0.5c0.1,0,0.4-0.1,0.5-0.1l0.1-0.1h0.2l0.5,0.1
				c0.4,0.1,0.8,0.4,0.9,0.8l0.2,0.2c0.1,0.1,0.2,0.2,0.2,0.3v0.3c0,0.5-0.2,0.8-0.4,1.3l-0.1,0.3c-0.1,0.1-0.1,0.3-0.2,0.4
				c-0.3,0.5-0.7,0.9-1.2,1.3c-0.1,0-0.2,0.2-0.3,0.2l-0.4,0.3l-0.1,0.1l-1.3,0.5c-0.3,0.2-0.8,0.2-1.1,0.3c-1,0.3-1.4,0.3-1.4,0.3
				c-0.1,0-0.1,0-0.3,0c-0.2,0-0.6,0-0.8,0l-1-0.1c-0.1,0-1.3,0-1.4,0l-0.5-0.1c-0.7-0.1-1.5-0.3-2.1-0.7c-0.3-0.1-0.6-0.3-0.8-0.5
				l-1.6-1.4c0-0.1-0.1-0.2-0.2-0.3c-0.3-0.3-0.5-0.6-0.7-0.9c-0.2-0.3-0.4-0.5-0.5-0.8c0-0.1-0.1-0.3-0.2-0.4
				c0-0.1-0.1-0.2-0.1-0.2l-0.5-2L38.2,134z M45.7,133.4c0.1,0,0.5,0.1,0.5,0.1c0.1,0,0.3,0.1,0.4,0.1c0.2,0,0.5,0,0.8,0
				s0.6-0.1,1.1-0.1c0.3-0.1,0.6-0.1,0.8-0.2l0.9-0.3c0.2,0,0.3-0.2,0.5-0.2c0.2-0.1,0.3-0.1,0.5-0.1l1.6-0.8
				c0.1-0.1,0.1-0.2,0.1-0.3s0.1-0.3,0.1-0.3v-0.2c-0.1-0.4-0.2-0.7-0.3-1l-0.1-0.1c-0.3-0.4-0.4-0.8-0.7-1.2
				c-0.3-0.2-0.5-0.4-0.8-0.6c-0.1,0-0.3-0.1-0.4-0.1c-0.5,0-0.9,0.1-1.3,0.1c-0.1,0-0.2,0.1-0.3,0.1l-0.6,0.2
				c-0.1,0.1-0.3,0.1-0.4,0.2l-0.4,0.5c-0.6,0.7-1,1.4-1.3,2.2l-0.3,1c-0.2,0.2-0.3,0.5-0.3,0.8C45.6,133.4,45.6,133.4,45.7,133.4z"
				/>
			<path class="st5" d="M65.9,141.8c0-0.1,0-0.2,0-0.3s0-0.5,0-0.5l-0.3,0.1c-0.2,0.1-0.7,0.3-0.8,0.3c-0.3,0.1-0.6,0.2-0.9,0.2
				c0,0-1,0.1-1.9,0.1c-0.1,0-1.1-0.3-1.5-0.3c-0.1,0-0.3-0.1-0.4-0.2c-0.4-0.2-0.8-0.5-1.2-0.8c-0.1-0.1-0.5-0.6-0.6-0.7
				c-0.2-0.2-0.3-0.6-0.4-0.9c-0.2-0.4-0.4-0.8-0.5-1.2c0-0.1,0-0.5,0-0.6c0-0.2-0.2-0.4-0.3-0.6c0-0.2,0-0.4,0-0.6c0,0,0-0.2,0-0.3
				c0-0.2,0-0.4,0.1-0.6c0.1-0.1,0.1-0.4,0.2-0.6c0.1-0.3,0.2-0.5,0.3-0.8c0.1-0.1,0.1-0.4,0.2-0.4c0-0.1,0.1-0.2,0.2-0.3
				c0.3-0.4,0.6-0.8,1.1-1l0.3-0.2l0.8-0.4c0.1-0.1,0.5-0.1,0.7-0.1c0.5-0.1,0.9-0.2,1.4-0.3c0,0,0.1,0,0.2,0c0.5,0,0.6,0.1,0.7,0.1
				h0.4c0.1,0,0.6,0.1,0.6,0.1c0.2,0,0.5,0.2,0.5,0.2c0.2,0,0.4,0.1,0.6,0.1v-0.2l0.1-1.1c0,0,0.3-1.6,0.4-2.1c0,0,0.1-0.4,0.1-0.5
				c0-0.2,0.1-0.4,0.2-0.7c0.2-0.3,0.2-0.7,0.3-1l0.1-1.6c0-0.1,0.1-0.4,0.1-0.4v-0.6c0-0.3,0.3-0.7,0.5-0.9c0-0.1,0.1-0.2,0.1-0.2
				c0-0.1,0.1-0.3,0.1-0.4l0.2-0.3l0.1-0.1c0.1-0.1,0.3-0.1,0.4-0.1s0.2,0,0.2,0.1c0.1,0.1,0.3,0.3,0.3,0.5c0.1,0,0.1,0.3,0.2,0.3
				c0,0.1,0.1,0.2,0.1,0.2c0,0.1,0.1,0.1,0.1,0.2c0.4,0.7,0.4,0.8,0.4,0.8c0.1,0.1,0.1,0.3,0.2,0.4c0.1,0.4,0.3,0.8,0.3,1.3
				c0.1,0.4,0.2,0.9,0.1,1.4c0,0.1,0.1,0.3,0.1,0.4c0,0.1,0,0.2,0,0.3s0,0.2,0.1,0.3c0.1,0.2,0,0.3,0,0.5l0.1,0.2
				c0,0.1,0,0.6,0.1,0.8c0,0.3,0,0.5,0,0.7c0,0.1,0.1,0.8,0.1,0.9c0,0,0,0.2,0,0.3c0,0.5-0.1,0.9-0.2,1.4c0,0.1,0,0.8,0,0.8
				l-0.1,0.7l-0.1,0.7c0,0.1-0.1,0.4-0.1,0.5c0,0.4-0.1,0.7-0.3,1.1l-0.2,0.5c0,0.2-0.2,0.4-0.2,0.7c-0.1,0.3,0,0.5-0.2,0.8
				c0,0.1-0.2,0.4-0.3,0.5l-0.2,0.2c-0.1,0.2-0.1,0.4-0.3,0.6c-0.1,0.2-0.3,0.3-0.3,0.6c0,0.1-0.2,0.5-0.2,0.5
				c0,0.1-0.1,0.3-0.1,0.3c-0.1,0.3-0.2,0.6-0.4,0.8l-0.3,0.4c0,0.1-0.2,0.3-0.3,0.3c-0.3,0.2-0.2,0.3-0.5,0.6L66,143
				c-0.1,0.1-0.1,0.1-0.2,0.1h-0.2c-0.1-0.1-0.2-0.2-0.2-0.3C65.9,142.2,65.9,142,65.9,141.8z M60.3,137.3c0,0,0,0.3,0,0.4
				c0.1,0.1,0,0.6,0,0.6l0.2,0.4c0,0.1,0.1,0.3,0.1,0.4c0.2,0.4,0.5,0.6,1,0.8c0,0.2,0.6,0.2,0.7,0.3c0.1,0,0.3,0.1,0.5,0.1
				c0.4,0,0.8,0,1.2-0.1c0.1,0,0.5-0.1,0.6-0.2l0.3-0.2c0.3-0.1,0.9-0.5,1-0.6v-0.1c0.1-1.2-0.1-2.2-0.1-3.5v-0.3
				c0-0.1-0.1-0.6-0.1-0.6c0-0.4-0.1-0.9-0.2-1.3c0-0.1,0-0.3,0-0.6c0-0.2,0-0.4,0.1-0.6c0,0-0.2,0-0.3,0l-0.4-0.1
				c-0.3,0-0.5,0.2-0.9,0.2c-0.1,0-0.3,0.1-0.4,0.1l-0.3,0.2c-0.1,0-0.4,0.2-0.4,0.2c-0.4,0.2-0.8,0.3-1.1,0.6l-0.7,0.9l-0.6,0.6
				c0,0.2-0.2,0.6-0.3,0.8c0,0.1,0,0.1-0.1,0.3c0,0.2,0,0.3,0,0.5C60.3,136.7,60.3,137.1,60.3,137.3z"/>
			<path class="st5" d="M74.1,142.8c-0.1-0.3-0.2-0.5-0.1-0.9l-0.6-1.5l-0.1-0.2l-0.8-2.8c0-0.1-0.1-0.5-0.1-0.6s-0.1-0.9-0.1-1.1
				v-0.4c0-0.2,0-0.5-0.1-0.6l0.1-1.7c0,0,0-0.2,0-0.3c0.1-0.7,0.4-1.2,0.7-1.8l0.2-0.3c0-0.2,0.2-0.5,0.3-0.6
				c0-0.1,0.2-0.2,0.2-0.3l0.2-0.3c0-0.2,0.2-0.3,0.3-0.4l0.2-0.2l0.1-0.2c0,0,0.1-0.1,0.2-0.1s0.2,0,0.2,0.1c0.1,0,0.1,0.2,0.1,0.2
				c0.1,0,0.2,0.2,0.2,0.2c0,0.1,0.1,0.2,0.2,0.2l0.5,0.6c0.2,0.4,0.5,0.8,0.7,1.2l0.2,0.2c0.2,0.4,0.2,0.9,0.2,1.2l0.1,0.6
				c0,0.2,0.1,0.6,0.1,0.7c0,0.2,0,0.5,0,0.7c0,0.1-0.1,0.5-0.1,0.6c0,0.2-0.1,1.5-0.1,1.8v0.7c0,0.1-0.2,1-0.2,1.4
				c0,0.3-0.1,0.5-0.2,0.7c-0.1,0.1-0.1,0.3-0.2,0.4c0,0.2-0.3,0.6-0.4,0.7c0,0.1-0.2,0.6-0.2,0.6l-0.1,0.1c0,0.1,0,0.1,0,0.2
				c0,0.1-0.1,0.3-0.1,0.3c-0.1,0.3-0.3,0.6-0.4,0.9c0,0.1-0.1,0.5-0.1,0.6c0,0.2-0.1,0.7-0.2,0.7c0,0.1-0.2,0.2-0.2,0.3
				c-0.1,0-0.2,0.1-0.2,0.1s-0.2,0-0.2-0.2s-0.1-0.4-0.1-0.6c0-0.1-0.1-0.3-0.1-0.5C74.2,143.1,74.1,143,74.1,142.8z M73.6,126.1
				c-0.1-0.1-0.5-0.5-0.6-0.6c0,0-0.1-0.2-0.1-0.3c0,0,0-0.2-0.1-0.3c0-0.2,0-0.3,0-0.4c0,0,0-0.3,0-0.4v-0.4c0-0.1,0.1-0.2,0.1-0.2
				v-0.2c0,0,0.1-0.2,0.1-0.3s0.1-0.3,0.2-0.3c0.1-0.2,0.3-0.2,0.4-0.2s0.3,0.1,0.4,0.1c0.2,0,0.3-0.1,0.6-0.1
				c0.2,0,0.4,0.2,0.7,0.2c0.2,0,0.4,0.1,0.5,0.2c0.1,0,0.1,0,0.2,0.1l0.3,0.2c0.1,0.2,0.2,0.3,0.3,0.4l0.1,0.2
				c0,0.1,0.1,0.3,0.1,0.4c0,0.3-0.1,0.6-0.2,1c0,0.1,0,0.3-0.1,0.5c-0.1,0-0.1,0.2-0.2,0.2c0,0.1-0.2,0.4-0.2,0.5
				c-0.1,0-0.3,0.2-0.3,0.2h-0.2c-0.1,0-0.2,0.1-0.4,0.1c-0.2,0-0.2-0.1-0.4-0.1c0,0-0.2,0-0.3,0c0,0-0.3-0.1-0.4-0.2
				c-0.1,0-0.1,0-0.2-0.1L73.6,126.1z"/>
			<path class="st5" d="M88.5,142.7c0-0.1,0-0.5,0.1-0.6c0-0.2,0-0.3,0-0.5c0-0.1,0-0.1,0-0.1l-0.8,0.3l-0.7,0.4l-0.5,0.2
				c-0.2,0.1-0.5,0.3-0.6,0.4c-0.1,0-0.6,0.4-0.7,0.5l-0.4,0.1c-0.1,0-0.4,0.1-0.5,0.1c-0.2,0-0.4,0-0.4,0c-0.3,0-0.7-0.1-1-0.2
				c0-0.1-0.7-0.3-0.9-0.5c-0.1,0-0.3-0.1-0.4-0.2l-0.5-0.5c-0.2-0.2-0.4-0.4-0.7-0.7l-0.5-0.7l-0.1-0.3c-0.2-0.3-0.1-0.6-0.2-1
				l-0.2-0.6c0,0-0.1-0.4-0.1-0.5l-0.1-0.2c0-0.2-0.1-0.4-0.1-0.6c-0.1-0.1,0-0.3,0-0.5c0-0.1,0-1,0-1.2v-0.5c0-0.1,0-0.2,0-0.2
				v-1.3c0-0.2,0-0.4,0-0.6l0.2-1.2c0-0.1,0.1-0.4,0.1-0.4s0.2-0.4,0.2-0.6c0-0.1,0.2-0.4,0.3-0.5l0.3-0.5v-0.2
				c0.1-0.1,0-0.3,0.2-0.4v-0.1c0.1-0.3,0.6-1.3,0.7-1.5c0.2-0.4,0.4-0.9,0.8-1c0.1-0.1,0.2-0.1,0.4-0.1s0.5,0.3,0.5,0.5l0.1,0.2
				c0,0.1,0.1,0.3,0.1,0.4v0.4c0,0.2,0,0.6,0,0.8c0.1,0.1,0.1,0.3,0.2,0.5c0,0,0,0.2,0.1,0.2l0.1,0.5c0,0.1,0,0.3,0,0.3
				c0,0.2-0.2,0.6-0.2,0.6v0.1c0,0.1-0.3,0.9-0.3,1s-0.1,0.2-0.1,0.3l-0.2,0.2c-0.2,0.3-0.2,0.6-0.3,1l-0.1,0.9
				c0,0.1-0.1,0.7-0.1,0.7l-0.3,2.4v1.2c0,0,0,0.1,0,0.2c-0.1,0.5,0.3,0.9,0.4,1.3c0,0,0.1,0.1,0.2,0.1c0.1,0,0.5,0.4,0.7,0.4
				c0.2,0.2,0.4,0.2,0.6,0.2c0.4,0.1,0.7,0,1.1,0c0.1,0,0.2,0,0.3,0c0,0,0.6-0.1,2.1-1l0.3-0.2c0.1,0,0.8-0.5,0.9-0.6
				c0.1-0.1,0.1-0.1,0.2-0.2v-0.2c0-0.3,0-0.7,0-1c0-0.4,0-0.7,0-1.2v-0.1c0.1-0.3,0.1-0.5,0.1-0.7v-0.3c0.1-0.4,0.1-0.8,0.1-1.3
				c0-0.2,0.2-1.4,0.2-1.6l0.1-0.3l0.1-0.4c0-0.1,0.2-0.7,0.2-0.8c0-0.4,0.2-1.2,0.2-1.2c0-0.2,0.1-0.4,0.1-0.6l0.1-0.8
				c0-0.1,0.1-0.2,0.1-0.4l0.3-1c0-0.1,0.1-0.1,0.1-0.2c0.1-0.2,0.2-0.4,0.4-0.4c0,0,0.2-0.1,0.4-0.1c0.3,0,0.8,0.3,1,0.6
				c0.2,0.2,0.4,0.3,0.5,0.6l0.4,0.6c0,0.1,0.2,0.2,0.2,0.3c0.1,0.1,0.1,0.3,0.2,0.5c0.1,0.2,0.5,0.8,0.5,0.8c0.1,0,0.1,0.2,0.1,0.2
				l0.3,0.5c0.2,0.4,0.4,0.9,0.5,1.4v0.2c0,0.1,0.1,0.2,0.1,0.3v0.3c0,0.1,0.1,0.9,0.1,1v0.2c0,0.4,0.1,0.8,0,1.2
				c0,0-0.1,0.3-0.1,0.4l-0.1,0.6c-0.1,0.5-0.2,1-0.3,1.4c0,0.1-0.1,0.4-0.1,0.5l-0.1,0.4c0,0-0.1,0.2-0.1,0.3l-0.2,0.3
				c0,0.1-0.1,0.2-0.1,0.2v0.3c-0.1,0.2-0.2,0.4-0.3,0.6c-0.1,0.1-0.3,0.4-0.4,0.4L93,141l-0.2,0.4c-0.2,0.3-0.6,0.4-0.9,0.7
				c0,0-0.1,0-0.1,0.1c-0.1,0.1-0.4,0.6-0.4,0.6c0,0.1-0.2,0.3-0.2,0.3c-0.1,0.1-0.4,0.4-0.5,0.5c0,0-0.3,0.3-0.4,0.3
				c-0.1,0.1-0.2,0.1-0.2,0.1c-0.2,0.2-0.4,0.5-0.8,0.5h-0.2c-0.5-0.1-0.6-0.5-0.6-0.9L88.5,142.7z"/>
			<path class="st5" d="M104.4,141.8c0-0.1,0-0.5,0-0.5c0-0.1,0-0.1,0-0.3s-0.1-0.3-0.1-0.4c0-0.2,0-0.3,0-0.5v-0.6
				c0-0.5,0.1-1,0.1-1.5c0,0,0.1-0.2,0.1-0.3s0,0,0-0.4c0-0.1,0.1-0.7,0.1-0.7v-0.8c0-0.3-0.1-0.7-0.1-1c0-0.1,0-0.5,0-0.5
				c0-0.1,0-0.1,0-0.6v-0.2v-0.3c0-0.2,0-0.4,0-0.6c0-0.2-0.1-0.5-0.1-0.7c0-0.1-0.1-0.5-0.1-0.6s-0.2-0.5-0.2-0.6
				c-0.3-0.3-0.3-0.4-0.3-0.4c-0.1-0.2-0.2-0.2-0.4-0.3c-0.1,0-0.4,0-0.5,0.1l-0.6,0.5c-0.1,0.1-0.2,0.1-0.4,0.4l-0.6,0.6
				c0,0.1-0.3,0.4-0.4,0.5c-0.1,0.1-0.1,0.2-0.2,0.3l-0.4,0.7c-0.1,0.2-0.1,0.5-0.2,0.6c0,0.1,0,0.3,0,0.4v0.3c0,0.1,0,1,0,1.1
				c-0.1,2.1-0.3,2.6-0.4,3.1c-0.2,0.6-0.6,1.2-0.9,1.7l-0.1,0.1c-0.1,0.1-0.1,0.3-0.2,0.4c0,0.1,0,0.3-0.1,0.4
				c0,0.2-0.2,0.5-0.3,0.5s-0.2,0-0.2,0c-0.1,0-0.1,0-0.3-0.1l-0.3-0.8c0-0.1-0.1-0.2-0.1-0.4V139c0-0.1-0.1-0.6-0.1-0.6
				s0-0.2,0-0.3s0-0.3,0-0.4c0-0.1-0.2-0.8-0.3-0.9c0-0.1,0-0.6,0-0.6c0-0.1,0-0.8,0-0.9v-0.4c0-0.1,0-1,0-1.2c0-0.3,0-0.6,0-0.9
				c0-0.7,0.1-1.5,0.3-2.2l0.3-1.2c0.1-0.2,0.1-0.4,0.1-0.6c0-0.2,0.1-0.5,0.3-0.6c0.1,0,0.2-0.1,0.3-0.1c0.2,0,0.4,0.1,0.5,0.2
				c0.1,0,0.2,0.3,0.2,0.3l0.3,0.5c0.1,0.1,0.3,0.5,0.4,0.7l0.3,0.7c0,0.1,0.1,0.3,0.1,0.4c0.2-0.4,0.6-0.7,0.7-0.9
				c0.1-0.1,0.2-0.3,0.4-0.4c0.4-0.3,0.7-0.6,1.1-0.8c0.1,0,0.2-0.1,0.3-0.1l0.5-0.3c0.1,0,0.2,0,0.4,0s0.4,0.1,0.7,0.1
				c0.1,0,0.5,0.1,0.5,0.1l0.1,0.1l1.3,0.7c0.1,0,0.4,0.2,0.5,0.4l0.1,0.1c0,0.1,0.3,0.2,0.4,0.3c0.1,0.2,0.3,0.4,0.5,0.5
				c0.1,0,0.4,0.4,0.5,0.4s0.1,0,0.2-0.1c0.2-0.2,0.4-0.5,0.7-0.7l0.3-0.2c0.1,0,0.3-0.2,0.3-0.2l0.3-0.3c0.5-0.4,0.8-0.8,1.3-1.3
				c0.1,0,0.2-0.1,0.3-0.1s0.3-0.1,0.4-0.1c0.1,0,0.3,0,0.5,0.1l0.4,0.2c0.1,0.1,0.3,0,0.4,0.1c0.2,0.1,0.4,0.2,0.7,0.3l0.7,0.6
				c0.2,0.2,0.5,0.3,0.8,0.5c0.2,0.2,0.9,1,1.1,1.2l0.4,0.4l0.2,0.4c0.1,0.2,0.2,0.3,0.3,0.4l0.3,0.6l0.6,1.4l0.1,0.3
				c0.1,0.3,0.2,0.7,0.2,1.1c0,0.2-0.1,0.5-0.1,0.7s0,0.4,0,0.6c0,0.1,0,0.1,0,0.1s-0.2,0.5-0.2,0.7c0,0.1-0.1,0.2-0.1,0.3
				c0,0,0,0.2,0,0.3c0,0.2-0.3,0.5-0.3,0.7c-0.1,0.1-0.1,0.2-0.3,0.3c0,0-0.3,0.3-0.3,0.4c-0.5,0.5-1.1,0.8-1.6,1.1
				c-0.2,0-0.5,0.2-0.6,0.2l-1.6,1.4c-0.2,0-0.3,0.3-0.5,0.3h-0.1c0-0.1,0-0.3,0-0.5v-0.4c0-0.2,0-0.4,0-0.6c0-0.2,0-0.3,0.1-0.5
				c0,0,0.1-0.2,0.1-0.3l0.2-2.3l0.1-0.6c0.1-0.3,0.1-0.6,0.1-0.8v-0.6c0-0.2,0-0.4,0.1-0.7c-0.1-0.2,0-0.5-0.1-0.7
				c-0.1-1.5-0.1-1.5-0.1-1.5c0-0.2,0-0.8,0-0.8c0-0.1-0.1-0.3-0.1-0.4c-0.1-0.1-0.1-0.4-0.2-0.5c-0.1-0.1-0.2-0.3-0.3-0.5
				c-0.2-0.2-0.4-0.4-0.6-0.4c-0.2,0-0.5,0.2-0.7,0.3c-0.3,0.3-0.9,0.5-1.4,0.9l-0.5,0.6c-0.1,0.1-0.1,0.1-0.1,0.2v0.3
				c0,0.3,0.1,0.5,0.2,0.8v0.2v0.4c0,0.3,0.1,0.5,0.2,0.8v0.2c0,0.1,0,0.5,0,0.6s-0.1,0.3-0.1,0.4c-0.1,0.2-0.1,0.4-0.3,0.5
				l-0.3,0.7l-0.1,0.1c-0.3,0.4-0.5,0.6-0.9,0.9c0,0.1-0.3,0.5-0.4,0.5c0,0,0,0.1-0.1,0.1l-0.2,0.4l-0.6,0.8c0,0-0.3,0.3-0.4,0.4
				l-0.1,0.1l-0.3,0.5l-0.3,0.4c0,0.1-0.2,0.5-0.3,0.5c-0.2,0.1-0.3,0.4-0.6,0.4c-0.2,0-0.3-0.1-0.3-0.3c0-0.1-0.1-0.3-0.2-0.3
				C104.5,142.1,104.4,141.9,104.4,141.8z"/>
			<g>
				<path class="st5" d="M34.8,139.8l-0.1-0.4c-0.1-0.5-0.8-2.4-0.9-2.9c0-0.1-0.2-0.5-0.3-0.6c0-0.1-0.1-0.2-0.2-0.3l-0.4-1.4
					c-0.1-0.2-0.2-0.3-0.2-0.4l-0.8,1.8v0.1c-0.3,0.6-0.6,1.1-0.9,1.7c-0.2,0.4-0.2,0.8-0.4,1.2c-0.1,0.4-0.6,0.7-0.7,1.1
					c-0.1,0.1-0.3,0.3-0.4,0.3s-0.2,0-0.3,0h-0.1c-0.3,0-0.4-0.1-0.5-0.2c-0.3-0.2-0.5-0.5-0.7-0.7l-0.1-0.2c0-0.1-0.3-0.4-0.3-0.5
					c-0.1-0.1-0.3-0.4-0.3-0.6l-0.5-1c0,0-0.1-0.2-0.1-0.3l-0.2-0.5c-0.3-0.5-0.4-1-0.7-1.4c0-0.1-0.3-0.6-0.4-0.8
					c0-0.1-0.1-0.3-0.1-0.3c0-0.1-0.3-0.6-0.4-0.7c0,0-0.1-0.2-0.1-0.3s-0.3-0.4-0.3-0.4v0.2c-0.2,0.4-0.2,0.5-0.2,0.5
					c0,0.2,0,0.5-0.2,0.6c0,0.1,0,0.4,0,0.6l-0.2,1.2l-0.1,0.4c0,0.1,0.1,0.8,0.1,0.8l-0.1,0.7l-0.3,2.5c-0.1,0.2-0.1,0.5-0.1,0.7
					l-0.2,1l-0.2,0.4c0,0.2-0.3,0.9-0.5,1.1c-0.1,0.2-0.2,0.4-0.4,0.6c-0.2,0.1-0.4,0.2-0.6,0.3l-0.3,0.1c-0.1,0-0.4,0.2-0.4,0.2
					h-0.4c-0.1,0-0.3-0.1-0.4-0.2l-0.1-0.2c0-0.1,0-0.1,0-0.3c-0.1-0.2-0.3-0.9-0.3-1.3c0-0.3-0.1-1.1-0.1-1.3l0.1-2.9l0.2-1.7
					c0,0,0-0.2,0-0.3c0.2-0.7,0.3-1.3,0.4-2c0.1-0.1,0.1-0.2,0.1-0.4l0.1-0.8c0.1-0.2,0.1-0.6,0.2-0.8c0.1-0.4,0.1-0.8,0.2-1.2
					l0.4-2c0,0,0.1-0.5,0.2-0.7c0.2-0.6,0.3-1.2,0.4-1.7c0.1,0,0.2-0.2,0.2-0.3c0.1-0.3,0.2-0.5,0.3-0.8c0-0.1,0.1-0.3,0.1-0.3
					l0.2-0.7c0.1-0.1,0.1-0.2,0.2-0.3c0.2-0.2,0.3-0.4,0.7-0.4c0.3,0,0.6,0.2,0.8,0.4c0,0.1,0.1,0.3,0.2,0.4
					c0.1,0.1,0.2,0.4,0.3,0.5l0.2,0.2c0,0.1,0.3,0.2,0.3,0.3c0.1,0.3,0.3,0.6,0.4,0.9l0.1,0.3c0.1,0,0.3,0.6,0.3,0.7l0.6,1l0.2,0.5
					c0,0.1,0.1,0.2,0.1,0.3l0.2,0.5c0.2,0.1,0.3,0.3,0.3,0.6c0,0,0.1,0.1,0.1,0.2c0.3,0.7,0.5,1.4,0.8,2.1c0.2,0.2,0.2,0.5,0.4,0.7
					c0-0.5,0.1-0.9,0.3-1.3l0.2-1c0-0.1,0.1-0.5,0.1-0.6c0-0.4,0-0.8,0.1-1.1c0-0.1,0.1-0.4,0.1-0.6l0.1-0.9l0.1-0.4
					c0.1-0.4,0-0.8,0.1-1.1c0.1-0.2,0.1-0.4,0.3-0.7l0.2-0.3c0-0.1,0-0.2,0-0.2c0.1-0.6,0.1-0.6,0.1-0.7c0-0.1,0.1-0.4,0.1-0.6
					l0.2-0.1c0.1,0,0-0.1,0.1-0.1c0.2,0,0.3-0.2,0.5-0.2s0.3,0,0.4,0.2l0.3,0.2c0.1,0,0.2,0,0.3,0.1c0.1,0.1,0.4,0.4,0.4,0.4
					l0.1,0.1c0.2,0.2,0.2,0.7,0.4,0.9l0.2,0.3c0,0,0.1,0.2,0.1,0.3c0.1,0.1,0.1,0.3,0.1,0.5l0.4,1.2c0,0.2,0.2,0.6,0.2,0.7
					c0,0.2,0.1,0.2,0.2,0.3s0.1,0.3,0.2,0.5l0.9,2.9c0,0,0.1,0.3,0.1,0.4c0,0.1,0.2,0.3,0.3,0.5c0.4,0.4,0.4,1.6,0.4,1.6
					c0,0.1,0.2,0.3,0.2,0.5c0.1,0.1,0.1,0.5,0.1,0.6s0.1,0.4,0.1,0.5c0,0.2,0.2,0.5,0.3,0.7l0.1,0.2c0.3,1.4,0.3,2.7,0.5,4.1
					c0,0.3,0.1,0.7,0.1,1c0,0.2,0,0.4,0,0.6c0,0.1,0.1,0.2,0.1,0.4c0,0.3-0.1,0.5-0.2,0.8c0,0.2-0.2,0.2-0.4,0.2
					c-0.1,0-0.2,0.1-0.3,0.1s-0.2,0-0.2-0.1c-0.5-0.3-0.6-0.9-0.9-1.3c-0.1-0.2-0.1-0.3-0.2-0.5L34.8,139.8z"/>
			</g>
		</g>
		<g>
			<path class="st5" d="M76.6,181.1c-0.1-0.2-0.1-0.4-0.1-0.7l-0.4-1.2L76,179l-0.6-2.3c0-0.1-0.1-0.4-0.1-0.5s0-0.7-0.1-0.9V175
				c0-0.1,0-0.4,0-0.5l0.1-1.4v-0.2c0.1-0.6,0.4-1,0.6-1.5l0.1-0.3c0-0.2,0.1-0.4,0.3-0.5c0-0.1,0.2-0.2,0.2-0.2l0.1-0.3
				c0-0.1,0.2-0.2,0.2-0.3l0.1-0.2l0.1-0.2l0.1-0.1c0,0,0.2,0,0.2,0.1c0.1,0,0.1,0.1,0.1,0.2c0.1,0,0.1,0.2,0.1,0.2
				c0,0.1,0.1,0.1,0.2,0.2l0.4,0.5c0.1,0.4,0.4,0.7,0.6,1c0,0,0.1,0.2,0.2,0.2c0.1,0.3,0.2,0.7,0.2,1l0.1,0.5c0,0.1,0.1,0.5,0.1,0.5
				c0,0.2,0,0.4,0,0.6c0,0.1-0.1,0.4-0.1,0.5c0,0.2-0.1,1.2-0.1,1.5v0.6c0,0.1-0.2,0.8-0.2,1.1c0,0.2-0.1,0.4-0.2,0.6
				c-0.1,0.1-0.1,0.2-0.2,0.3c0,0.1-0.3,0.5-0.3,0.6s-0.1,0.4-0.1,0.5v0.1c0,0,0,0.1,0,0.2c0,0.1-0.1,0.2-0.1,0.3
				c-0.1,0.2-0.3,0.5-0.3,0.7c0,0.1-0.1,0.4-0.1,0.5s-0.1,0.5-0.2,0.6c0,0.1-0.2,0.2-0.2,0.2c-0.1,0-0.2,0.1-0.2,0.1s-0.2,0-0.2-0.1
				c0-0.2,0-0.3-0.1-0.5c0-0.1,0-0.2,0-0.4C76.7,181.3,76.6,181.2,76.6,181.1z M76.4,167.6c-0.1,0-0.4-0.4-0.4-0.5
				c0,0-0.1-0.2-0.1-0.3c0,0,0-0.2-0.1-0.2c0-0.1,0-0.2,0-0.3c0,0,0-0.2,0-0.3v-0.3c0-0.1,0.1-0.2,0.1-0.2v-0.2l0.1-0.2
				c0,0,0.1-0.2,0.2-0.3c0-0.1,0.3-0.2,0.3-0.2c0.1,0,0.3,0.1,0.3,0.1c0.1,0,0.3-0.1,0.5-0.1s0.3,0.1,0.5,0.1c0.1,0,0.3,0.1,0.4,0.2
				c0,0,0.1,0,0.1,0.1l0.2,0.1c0.1,0.1,0.1,0.2,0.2,0.4l0.1,0.1c0,0.1,0.1,0.2,0.1,0.4s-0.1,0.5-0.2,0.8c0,0.1,0,0.2-0.1,0.4
				c0,0-0.1,0.1-0.1,0.2c0,0.1-0.2,0.4-0.2,0.4c-0.1,0-0.2,0.2-0.2,0.2h-0.2c-0.1,0-0.2,0.1-0.3,0c-0.1,0-0.2-0.1-0.3-0.1h-0.2
				l-0.3-0.1c0,0-0.1,0-0.2-0.1L76.4,167.6z"/>
			<path class="st5" d="M81.8,183c-0.1-0.2-0.1-0.4-0.2-0.6c-0.2-0.4-0.5-1.4-0.5-1.7c0,0,0-0.4-0.1-0.4c-0.1-0.1,0-0.4-0.1-0.5
				c0-0.2,0-0.4,0-0.6c0-0.2,0-0.3,0-0.6L81,177c0-0.5-0.1-0.9-0.1-1.4v-0.4c0-0.1,0-0.7,0-0.8c0-0.2,0-0.4-0.1-0.6v-0.6
				c0-1,0.1-2.3,0.1-2.3v-0.3l0.1-0.8c0-0.2,0.2-0.6,0.2-0.6v-0.4c0-0.1,0-0.3,0-0.3c0-0.2,0.1-1.4,0.2-1.5c0-0.2,0.2-1.1,0.3-1.3
				l0.3-1c0-0.2,0.2-0.5,0.4-0.7c0.1-0.1,0.1-0.2,0.1-0.3c0.1-0.1,0.1-0.3,0.1-0.4c0.1-0.1,0.3-0.4,0.5-0.4c0.1,0,0.1,0,0.2,0.1
				c0.1,0.1,0.2,0.2,0.3,0.3c0.3,0.4,0.3,0.6,0.4,0.7l0.2,0.4c0.1,0.3,0.1,0.6,0.2,0.7v0.1l0.3,0.4c0.2,0.2,0.3,0.7,0.4,0.9
				c0,0,0.1,0.3,0.1,0.6v0.4l-0.1,1.8c0.1,0.3,0.1,0.6,0.1,0.9c0,0.1,0,0.3,0,0.3v0.5v0.4c0,0.1,0,0.2,0,0.3l-0.1,0.9
				c0,0.1,0,0.2,0,0.4c0,0.1-0.1,0.3-0.1,0.3v0.6c0,0.2-0.2,1.3-0.2,1.5l-0.3,0.9c0,0-0.1,0.2-0.1,0.3s-0.2,0.2-0.2,0.3
				c-0.1,0.3-0.2,0.5-0.4,0.7c-0.1,0.2-0.1,0.4-0.2,0.5l-0.2,0.3c-0.1,0.2-0.1,0.4-0.1,0.7c0,0.2-0.2,1.2-0.3,1.4
				c0,0.2-0.1,0.6-0.3,0.8l-0.1,0.2c-0.1,0.1-0.1,0.4-0.2,0.5c0,0-0.1,0.3-0.1,0.4c0,0.1,0,0.2,0,0.3c-0.1,0.2-0.1,0.5-0.3,0.5h-0.1
				C82,183.2,81.8,183.1,81.8,183z"/>
			<path class="st5" d="M93.6,182.8c0-0.1,0-0.2,0-0.3c0,0-0.1-0.4,0-0.5l-0.3,0.1c-0.2,0.1-0.6,0.3-0.6,0.3
				c-0.2,0.1-0.5,0.2-0.8,0.2c0,0-0.8,0.1-1.6,0.1c0,0-1-0.2-1.3-0.3c-0.1,0-0.3-0.1-0.4-0.2c-0.3-0.1-0.7-0.4-1-0.6
				c-0.1-0.1-0.4-0.5-0.5-0.6c-0.2-0.2-0.3-0.5-0.4-0.7c-0.2-0.3-0.4-0.7-0.5-1c0,0-0.1-0.4,0-0.5c0-0.2-0.2-0.3-0.3-0.5
				c0-0.1,0-0.3,0-0.5c0,0,0-0.2,0-0.3c0-0.2,0-0.4,0-0.5c0.1-0.1,0.1-0.4,0.2-0.5c0.1-0.3,0.2-0.5,0.3-0.7c0.1-0.1,0.1-0.3,0.2-0.4
				c0-0.1,0.1-0.2,0.2-0.3c0.3-0.3,0.5-0.7,0.9-0.9L88,174l0.7-0.3c0.1-0.1,0.4-0.1,0.6-0.1c0.4-0.1,0.8-0.2,1.2-0.2c0,0,0,0,0.1,0
				c0.4,0,0.5,0,0.6,0.1h0.4c0.1,0,0.5,0,0.5,0c0.1,0,0.4,0.1,0.5,0.1c0.2,0,0.3,0,0.5,0v-0.1v-0.9c0,0,0.2-1.3,0.3-1.8
				c0,0,0.1-0.4,0.1-0.5c0-0.2,0.1-0.4,0.1-0.6c0.1-0.3,0.1-0.6,0.2-0.8l0.1-1.4l0.1-0.3v-0.5c0-0.3,0.2-0.6,0.4-0.8
				c0-0.1,0.1-0.1,0.1-0.2l0.1-0.3l0.1-0.2l0.1-0.1c0.1-0.1,0.2-0.1,0.4-0.1c0.1,0,0.1,0,0.2,0.1c0.1,0.1,0.2,0.2,0.3,0.4
				c0,0,0.1,0.2,0.2,0.3c0,0,0.1,0.1,0.1,0.2c0,0.1,0.1,0.1,0.1,0.1c0.3,0.6,0.3,0.6,0.3,0.6s0.1,0.2,0.1,0.3
				c0.1,0.3,0.3,0.7,0.3,1.1c0.1,0.4,0.2,0.8,0.1,1.2l0.1,0.3c0,0.1,0,0.2,0,0.2c0,0.1,0,0.2,0.1,0.2c0.1,0.1,0,0.3,0.1,0.4l0.1,0.2
				c0,0.1,0,0.5,0.1,0.6c0,0.2,0,0.4,0,0.6c0,0.1,0.1,0.7,0.1,0.8v0.2c0,0.4-0.1,0.8-0.1,1.2c0,0,0,0.6,0,0.7v0.6v0.6l-0.1,0.4
				c0,0.3-0.1,0.6-0.2,1l-0.2,0.5c0,0.2-0.1,0.3-0.1,0.6c-0.1,0.2,0,0.4-0.2,0.7l-0.2,0.4l-0.2,0.2c-0.1,0.2-0.1,0.4-0.2,0.5
				c-0.1,0.2-0.2,0.3-0.2,0.5c0,0.1-0.1,0.4-0.1,0.4l-0.1,0.3c-0.1,0.3-0.2,0.5-0.3,0.7l-0.3,0.4c0,0.1-0.2,0.3-0.2,0.3
				c-0.2,0.2-0.2,0.2-0.4,0.5l-0.2,0.3c-0.1,0.1-0.1,0.1-0.1,0.1h-0.2c-0.1-0.1-0.2-0.2-0.2-0.3C93.5,183.2,93.6,183,93.6,182.8z
				 M88.7,179.1v0.3v0.5l0.2,0.3l0.1,0.3c0.2,0.4,0.4,0.5,0.9,0.7c0,0.1,0.5,0.1,0.6,0.2c0.1,0,0.3,0,0.4,0c0.3,0,0.7-0.1,1-0.1
				c0.1,0,0.4-0.1,0.5-0.2c0,0,0.2-0.2,0.3-0.2c0.3-0.1,0.7-0.4,0.8-0.5v-0.1c0-1-0.1-1.9-0.2-2.9c0,0,0-0.2,0-0.3l-0.1-0.5
				c0-0.3-0.1-0.8-0.2-1.1c0-0.1,0-0.2,0-0.5c0-0.2,0-0.4,0-0.5c0,0-0.1,0-0.2,0h-0.4c-0.2,0-0.4,0.2-0.7,0.2
				c-0.1,0-0.2,0.1-0.3,0.1l-0.2,0.2l-0.3,0.2c-0.3,0.2-0.7,0.3-0.9,0.5l-0.6,0.8l-0.5,0.5c0,0.2-0.2,0.5-0.2,0.6c0,0,0,0.1,0,0.3
				c0,0.1,0,0.3,0.1,0.4C88.7,178.6,88.7,179,88.7,179.1z"/>
			<g>
				<path class="st5" d="M71.5,179.9c0,0,0-0.3-0.1-0.4c-0.1-0.4-0.5-2.3-0.6-2.6c0-0.1-0.2-0.5-0.2-0.6s-0.1-0.2-0.1-0.3l-0.2-1.3
					c-0.1-0.2-0.1-0.3-0.2-0.4l-0.9,1.6v0.1c-0.3,0.5-0.6,1-0.9,1.5c-0.2,0.3-0.3,0.7-0.5,1c-0.1,0.3-0.6,0.6-0.7,0.9
					c-0.1,0-0.3,0.3-0.4,0.3s-0.2,0-0.2,0h-0.1c-0.2,0-0.4-0.1-0.5-0.2c-0.2-0.2-0.4-0.4-0.5-0.7l-0.1-0.2c0-0.1-0.2-0.4-0.2-0.4
					c-0.1-0.1-0.3-0.4-0.3-0.5l-0.4-0.9c0,0-0.1-0.2-0.1-0.3c0,0-0.1-0.4-0.1-0.5c-0.2-0.4-0.3-0.9-0.5-1.3c0-0.1-0.3-0.6-0.3-0.7
					c0-0.1,0-0.3-0.1-0.3c0-0.1-0.2-0.5-0.3-0.7c0,0-0.1-0.2-0.1-0.3s-0.2-0.4-0.2-0.4l-0.1,0.2c-0.2,0.3-0.2,0.4-0.2,0.5
					s-0.1,0.4-0.2,0.5c0,0-0.1,0.4-0.1,0.5l-0.2,1l-0.1,0.3c0,0.1,0,0.7,0,0.8l-0.1,0.6l-0.5,2.2c-0.1,0.1-0.1,0.4-0.2,0.6l-0.3,0.9
					l-0.2,0.3c0,0.1-0.4,0.8-0.5,0.9c-0.1,0.2-0.2,0.3-0.4,0.5c-0.2,0.1-0.4,0.1-0.6,0.2l-0.3,0.1c-0.1,0-0.4,0.2-0.4,0.2h-0.4
					c-0.1,0-0.3-0.1-0.4-0.2l-0.1-0.2c0-0.1,0-0.1,0-0.2c0-0.2-0.2-0.9-0.2-1.2c0-0.2,0-1,0-1.2l0.3-2.6l0.3-1.6v-0.2
					c0.2-0.6,0.3-1.2,0.5-1.8c0.1,0,0.1-0.2,0.1-0.4l0.2-0.7c0.1-0.2,0.1-0.5,0.2-0.7c0.1-0.3,0.2-0.7,0.3-1.1l0.5-1.8
					c0,0,0.1-0.4,0.2-0.6c0.2-0.5,0.4-1,0.5-1.5c0.1,0,0.2-0.2,0.2-0.2c0.1-0.2,0.2-0.4,0.4-0.7l0.1-0.3l0.3-0.7
					c0.1,0,0.1-0.1,0.2-0.2c0.2-0.2,0.3-0.3,0.6-0.3c0.2,0,0.6,0.2,0.7,0.4c0,0.1,0.1,0.3,0.2,0.4c0.1,0.1,0.1,0.3,0.2,0.5l0.2,0.2
					c0,0.1,0.2,0.2,0.2,0.3c0.1,0.3,0.2,0.6,0.3,0.9c0,0,0,0.2,0.1,0.3c0.1,0,0.2,0.6,0.2,0.7l0.5,0.9l0.2,0.5
					c0,0.1,0.1,0.2,0.1,0.3c0,0,0.2,0.4,0.2,0.5c0.2,0.1,0.2,0.3,0.3,0.5c0,0,0.1,0.1,0.1,0.2c0.2,0.6,0.4,1.3,0.6,1.9
					c0.2,0.2,0.2,0.5,0.3,0.6c0-0.5,0.2-0.8,0.4-1.2l0.3-0.9c0,0,0.1-0.4,0.2-0.6c0-0.3,0.1-0.7,0.2-1c0-0.1,0.1-0.3,0.1-0.5
					l0.1-0.8c0,0,0.1-0.3,0.1-0.4c0.1-0.3,0.1-0.7,0.1-1c0.1-0.2,0.2-0.4,0.3-0.6l0.2-0.2c0-0.1,0.1-0.2,0.1-0.2
					c0.1-0.5,0.1-0.6,0.1-0.6c0-0.1,0.1-0.3,0.2-0.5l0.2-0.1c0.1,0,0-0.1,0.1-0.1c0.2,0,0.3-0.2,0.4-0.2c0.2,0,0.3,0.1,0.4,0.2
					l0.3,0.2c0,0,0.1,0.1,0.3,0.1c0.1,0.1,0.3,0.4,0.3,0.4l0.1,0.1c0.1,0.2,0.1,0.7,0.3,0.8l0.1,0.3c0,0,0.1,0.2,0.1,0.3
					c0.1,0.1,0.1,0.3,0.1,0.5l0.3,1.1c0,0.2,0.1,0.6,0.1,0.6c0,0.2,0.1,0.2,0.2,0.3c0,0.1,0.1,0.3,0.1,0.4l0.6,2.7v0.3
					c0,0.1,0.2,0.3,0.2,0.4c0.3,0.4,0.3,1.5,0.3,1.5c0,0.1,0.1,0.3,0.2,0.4c0.1,0.1,0,0.4,0.1,0.6c0,0.1,0,0.4,0.1,0.5
					c0,0.2,0.1,0.5,0.2,0.7v0.2c0.1,1.2,0,2.5,0.1,3.7c0,0.3,0.1,0.6,0.1,0.9c0,0.2,0,0.3,0,0.5c0,0.1,0,0.2,0,0.3
					c0,0.2-0.1,0.5-0.2,0.7c0,0.1-0.2,0.1-0.3,0.2c-0.1,0-0.2,0-0.3,0s-0.1,0-0.1-0.1c-0.5-0.3-0.5-0.8-0.7-1.3c0-0.2,0-0.3-0.2-0.4
					L71.5,179.9z"/>
			</g>
		</g>
		<g>
			<path class="st5" d="M60.6,99.5l-0.2-0.4l-0.8-1.9c0,0-0.3-1.7-0.4-2.4c0,0-0.1-0.5-0.1-0.6v-0.3c0-0.3,0-0.5-0.2-0.7
				c-0.2-1.1-0.3-2.3-0.3-3.4l-0.1-1.4c0-0.1,0-1.1,0-1.2v-1.1c0-0.1,0-0.4,0.1-0.5c0-0.1,0.5-1.3,0.5-1.5c0.2-0.5,0.8-2.7,0.9-3.2
				c0.1-0.2,0.2-0.3,0.2-0.5c0.1-0.2,0.1-0.4,0.2-0.6c0-0.2,0.4-0.3,0.4-0.5c0.2-0.2,0.5-0.5,0.9-0.5c0.3,0,0.8,0.3,0.9,0.5
				c0.5,0.4,1,1.4,1.2,2c0.1,0.3,0.1,0.6,0.2,0.9l0.4,1.3c0,0,0.1,0.3,0.1,0.4l0.5,0.8c0,0,0,0.1,0,0.2c0.2,0.9,0.3,1.7,0.3,2.6
				c0,0.5,0,0.8,0,0.8c0,0.5,0.1,0.6,0.4,0.6l3.1-0.1c0.1,0,1.8,0.1,2.6,0.2c0.2,0,0.4,0.1,0.7,0v-2.5c0.1-0.4,0.4-2.1,0.5-2.5
				c0,0,0-0.6,0-0.7c0.1-0.1,0.1-0.8,0.3-1c0-0.1,0.3-0.7,0.3-0.8c0,0,0.1-0.5,0.1-0.7c0-0.3,0.1-0.7,0.2-1s0-0.7,0.1-1.1
				c0.2-0.3,0.5-0.6,0.5-1c0.1-0.2,0.3-0.2,0.4-0.2c0.2,0,0.2,0,0.3,0.1l0.7,0.3c0.2,0.1,0.9,0.8,1,1c0.3,0.3,0.5,0.7,0.8,1
				c0,0,0.5,0.4,0.5,0.5s0.5,0.7,0.6,0.8c0.2,0.3,0.4,0.4,0.4,0.7s0.1,0.7,0.2,0.9c0,0.2,0.1,0.4,0.2,0.6c0,0.2,0.2,0.7,0.3,1v0.7
				c0,0.6,0,1.1,0.3,1.7l0.3,2.4c0,0.4,0,0.8,0,1.2c0,0.2-0.1,0.4,0,0.6c0,0.2,0,0.2,0.1,0.9c0,0.5,0,0.8,0,1.2S80,94.2,80,94.6
				c-0.1,0.4-0.2,0.7-0.3,1.2c0,0.1-0.2,0.5-0.2,0.7c0,0.3-0.2,0.8-0.3,1.2l-0.3,0.2c-0.5,1-0.7,2.2-1,3.3c-0.1,0.6-0.5,1.3-0.5,2
				c0,0.1-0.1,0.6-0.1,0.7v0.2l-0.3,0.7c0,0.1-0.3,0.4-0.5,0.4c-0.3,0-0.4-0.3-0.5-0.5l0,0l-0.2-0.4c-0.2-0.3-0.1-0.8-0.3-1.1
				l-0.4-0.6l-0.4-0.7c0-0.1-0.2-0.6-0.2-0.6c0-0.3-0.3-0.6-0.3-0.9c0-0.2-0.2-0.4-0.2-0.8c-0.1-0.3-0.6-1.6-0.7-1.9
				c0-0.1-0.4-1-0.4-1.1s-0.2-0.6-0.2-0.7c-0.1-0.1-0.1-0.8-0.2-1v-1c0,0-0.1-0.4-0.1-1.1c-0.1-0.2,0-0.4-0.2-0.6
				c-0.2-0.1-1.2-0.3-1.4-0.3c-0.3,0-0.6,0-0.8,0c-0.6,0-1,0.2-1.5,0.4l-1.6,0.1c-0.5,0.2-0.5,0.2-0.5,0.2c0,0.1,0.1,0.3,0.1,1.2
				s0,1.3,0,1.4c0,0.3,0,0.7-0.1,1l0.1,1.9c0,0.1,0,1-0.1,1.3c0,0.3-0.1,0.5-0.2,0.7l-0.2,0.5c-0.1,0.2-0.1,0.5-0.2,0.7
				c0,0.1-0.1,1-0.2,1.1c0,0.1-0.1,0.4-0.1,0.4c0,0.1-0.2,0.6-0.2,0.7c0,0-0.2,0.7-0.2,0.8c-0.1,0.3-0.1,0.6-0.3,0.8
				c-0.1,0.2-0.3,0.4-0.5,0.6c-0.1,0.2-0.3,0.5-0.5,0.6c-0.1,0-0.1,0.1-0.3,0.1c-0.1,0-0.3-0.1-0.4-0.3c-0.2-0.2-0.1-0.7-0.3-0.9
				c-0.1-0.5-0.1-0.9-0.3-1.3l-0.4-0.6c-0.1-0.3-0.1-0.5-0.2-0.9c-0.1-0.3-0.3-0.5-0.4-0.8C61.5,101.4,60.7,99.8,60.6,99.5z"/>
			<path class="st5" d="M96.7,107.4c-0.1,0-0.7-0.1-0.9-0.1c-0.1,0-0.8-0.2-0.8-0.2c-0.1,0-0.3-0.1-0.4-0.1c-0.4,0-0.9-0.1-1.4-0.2
				c-0.1,0-0.4-0.2-0.6-0.2l-1.1-0.4c-0.5-0.2-0.9-0.5-1.3-0.8l-1-0.7c-0.2,0-0.8-0.4-1.1-0.6c-0.1,0-0.6-0.3-0.7-0.5l-1-0.8
				l-1.3-1.7l-0.7-1c-0.7-1.3-1.3-2.6-1.6-4l-0.3-2.6c0,0,0-0.5,0-0.6c0-0.3,0-0.7,0.1-1.1c0.1-0.5,0.3-1.1,0.3-1.6c0-0.3,0-1,0-1
				c0-0.2,0.1-0.4,0.2-0.6c0-0.1,0.3-0.5,0.3-0.5l0.3-0.7c0.2-0.6,0.8-1.2,0.9-1.7l0.9-1.3c0-0.1,0.5-0.4,0.5-0.6l1-1.6l0.9-1.1
				c0,0,0.9-0.8,1.3-1.2c0.3-0.3,0.6-0.7,1-0.9c0.2-0.2,1.1-0.3,1.4-0.4l2.2-0.2c0.1,0,0.4-0.2,0.6-0.2l0.9-0.4
				c0.1,0,0.2-0.1,0.4-0.1c0.4,0,0.7,0,1.1,0.1c0.4-0.1,1.1,0,1.6,0c0.4,0.1,0.8,0.3,1.2,0.4c0.1,0,0.4,0.1,0.4,0.1h0.5
				c0.2,0,0.3,0,0.7,0c0.2,0,0.5-0.1,0.8-0.1c0.2,0,2,0.4,2.1,0.4c1.2,0.4,2.3,0.8,3.4,1.5c0.7,0.6,1.7,1.7,2.2,2.3l0.1,0.2l0.6,0.8
				c0,0,0.2,0.3,0.2,0.4l0.9,1.6c0.2,0.4,0.3,1,0.5,1.5l0.4,1c0.1,0,0.1,0.1,0.2,1.1l0.1,0.8c0,0.2,0,0.4,0,0.7l-0.1,4.8
				c0,0.1,0,0.4,0,0.4l-0.4,1.2c-0.1,0.5-0.6,3-0.7,3.6c-0.2,0.3-0.3,0.7-0.4,1l-0.7,1.3c-0.2,0.3-1.1,1.4-1.3,1.5
				c-0.2,0.2-1.1,0.9-1.3,1.1c0,0.1,0,0.2-0.2,0.3c0,0-0.3,0.2-0.4,0.2c-0.3,0.2-0.6,0.6-1,0.6c-0.1,0.1-0.7,0.2-0.7,0.2
				c-0.1,0-0.3,0.1-0.7,0.1c-0.1,0.1-0.7,0.1-0.8,0.1l-2,0.7c-0.4,0.1-0.9,0.1-1.3,0.2l-0.5,0.1c-0.5,0-1,0.1-1.5,0
				C98.1,107.6,97.3,107.6,96.7,107.4z M95.3,99.8c0.1,0.1,0.6,0.6,0.7,0.6c0.2,0.3,0.7,0.7,1,0.9c0.1,0.1,0.6,0.3,0.8,0.3l0.4-0.1
				c0.2,0,0.9,0,0.9,0l1.1,0.4c0.1,0,0.6,0.1,0.8,0.1c0,0,0.5,0,0.7-0.1h0.8c0.2-0.1,1-0.2,1.1-0.3c0.3-0.1,1.7-0.6,2-0.7
				c0.5-0.3,1.1-0.6,1.4-1.1c0.1-0.4,1-1.8,1.1-2c0.1-0.1,0.5-0.9,0.6-1.1c0-0.1,0.1-0.4,0.1-0.4c0-0.3,0.4-1.8,0.4-2.2l0.1-1.3
				c0-0.4,0-0.8,0-1.3l-0.3-2.2c0-0.2-0.1-0.7-0.1-0.8c0,0-0.2-0.5-0.3-0.6c-0.1-0.3-0.4-1.1-0.4-1.2l-1.6-2.3
				c-0.3-0.3-0.4-0.6-0.8-0.9c-0.2-0.1-0.4-0.1-0.5-0.4l-0.5-0.3c-0.1,0.1-0.4-0.1-0.5-0.2l-0.7-0.5c-0.1,0-0.7-0.4-0.8-0.4
				c0,0-0.7-0.1-0.8-0.1s-0.9-0.1-1.1,0c-0.6,0-1.3-0.4-1.9-0.3c-0.1,0-0.2,0.1-0.3,0.1L97.8,82c-0.3,0.3-0.8,0.6-1.3,1.1l-0.4,1
				L95.3,85c0,0-0.2,0.4-0.2,0.5c-0.5,0.9-0.9,1.9-1.2,2.8l-0.3,2.2c0,0,0,0.2,0,0.3c0,0-0.2,0.5-0.2,0.6c0,0-0.1,0.3-0.1,0.4
				c-0.2,1-0.2,1.9-0.1,3c0.1,0.7,0.1,1.2,0.3,1.9c0,0.2,0.4,1.7,0.5,2.1c0.1,0.4,0.5,0.8,0.8,0.9C95,99.5,95.3,99.7,95.3,99.8z"/>
			<path class="st5" d="M117.6,97.1v-0.9c0-0.3,0-0.7-0.1-0.9c0.1-1.5,0.2-1.6,0.2-1.6l0.1-2.6l0.1-0.7c0-0.3,0.1-0.1,0.2-0.4
				l0.2-1.5c-0.5-0.2-1-0.3-1.6-0.4l-1.5-0.1c-0.3-0.1-0.6-0.3-0.7-0.6c0,0-0.1-0.1-0.1-0.4c0-0.2,0.1-0.3,0.2-0.5
				c0.1-0.2,0.3-0.5,0.6-0.6h0.3c0.5,0.1,0.5,0,1.4,0h0.6l1.4,0.2c0,0,0.4-1.3,0.5-1.6c0,0,0.1-0.3,0.1-0.4c0-0.1,0.2-1,0.1-1
				c0.2-0.4,0.4-1,0.7-1.3c0.1-0.1,0-0.3,0.2-0.4c0.2-0.4,0.1-0.8,0.4-1.1c0-0.2,0.4-1,0.5-1.1c0,0,0.3-0.4,0.4-0.5l0.3-0.7
				c0-0.2,0.1-0.4,0.1-0.6c0.1-0.4,0.6-0.9,0.9-1.2c0.1-0.1,0.2-0.1,0.3-0.1c0,0,0.1,0.1,0.2,0.1h0.3c0.2,0,0.3,0.1,0.5,0.3l1.1,1.3
				c0,0,0.3,0.4,0.4,0.5c0.2,0.2,0.3,0.4,0.4,0.7c0.1,0.2,0.7,1.7,0.8,1.9s0.2,0.5,0.2,0.7c0,0.1,0.1,1,0.1,1.1
				c0,0.4,0.2,0.7,0.2,1.1c0.1,0,0.2,0.4,0.1,0.6c0,0.1,0,0.4,0,0.5c0,0,0.1,1,0.1,1.1v1.2c0,0,1.2,0,2.1,0c0.4,0,0.7,0.1,0.9,0.1
				c0.1,0,1,0.2,1,0.2c0.5,0.1,1.1,0.3,1.5,0.6c0,0,0.3,0.3,0.3,0.4c0.1,0.1,0.1,0.3,0.1,0.5c0,0.1,0,0.2-0.1,0.2
				c0,0-0.1,0.2-0.2,0.2c-0.2,0.2-0.8,0.3-1.1,0.3l-0.2-0.1c-0.1,0-0.6-0.2-0.7-0.2l-0.6-0.1c-0.2,0.1-1.4,0.1-1.7,0.1
				c-0.1,0-0.4,0-0.7,0c-0.3,0-0.6,0-0.7-0.1c-0.1,0-0.3,0.1-0.3,0.1c0,0.1-0.1,0.6-0.1,0.7c-0.1,0.5-0.2,0.6-0.3,1.1
				c0,0.3-0.1,0.8-0.1,0.9c-0.1,0.4-0.4,0.8-0.5,1.3c0,0.1,0,0.3,0,0.4c0,0,0,0.1-0.1,0.2c-0.1,0.1-0.3,0.6-0.3,0.7l-0.2,0.3
				l-0.4,0.9v0.5c0,0.2,0.1,1.2,0.1,1.3v0.7l-0.4,3.1c0.2,0.4,0.1,0.7,0.3,1.1c0,0,0.2,0.4,0.3,0.5c0.1,0.2,0.5,0.4,0.7,0.5
				c0.1,0.1,0.4,0.2,0.6,0.2h0.3c0.2,0,0.4,0.1,0.4,0.1s0.5-0.1,0.6-0.2l0.2-0.1c0.3-0.2,0.7-0.5,0.9-0.7c0.1-0.3,0.7-1.2,0.7-1.4
				s0.2-0.6,0.2-0.6c0-0.1-0.1-0.4-0.2-0.5h-0.2c-0.4-0.1-0.9-0.2-1-0.8v-0.1c0.1-0.3,0.1-0.5,0.4-0.7c0.2-0.2,0.9-0.2,1.2-0.2
				c0.2,0,0.4,0.1,0.5,0.3l0.7,0.5c0.2,0.1,0.4,0.3,0.4,0.6c0.1,0.3,0.2,0.7,0.1,1.1c-0.1,0.6-0.2,1.2-0.3,1.8
				c-0.1,0.4-0.3,0.9-0.5,1.2l-0.6,0.6c0,0.2-0.3,0.3-0.4,0.5c-0.3,0.3-0.8,0.7-1.2,0.9c-0.2,0.1-0.4,0.1-0.6,0.2
				c-0.3,0.1-0.9,0.4-1.2,0.4c-0.2,0-0.3,0-0.5,0.1h-0.1c-0.2,0-1.1,0-1.3-0.1c-0.1,0-0.7,0-0.7,0.1h-0.4c-0.7-0.1-1.3-0.3-2-0.6
				c0,0-0.3-0.1-0.4-0.1l-1-0.8l-0.4-0.4l-0.4-0.3c-0.4-0.2-0.6-0.5-0.9-0.9c-0.2-0.1-0.7-1.1-0.8-1.2c0,0-0.1-0.3-0.1-0.4l-0.5-1.2
				c0,0-0.1-0.2-0.4-3C117.6,97.5,117.6,97.2,117.6,97.1z"/>
		</g>
		<g>
			<path class="st5" d="M71,62.4l-0.2-0.3l-0.6-1.5c0,0-0.2-1.3-0.3-1.8v-0.4v-0.3c0-0.2,0-0.4-0.1-0.6c-0.2-0.9-0.2-1.8-0.2-2.7
				v-1.1c0-0.1,0-0.8,0-0.9V52v-0.4c0-0.1,0.4-1,0.4-1.1c0.2-0.4,0.7-2.1,0.7-2.5c0.1-0.1,0.1-0.2,0.2-0.4c0.1-0.1,0-0.3,0.2-0.4
				c0-0.1,0.3-0.2,0.3-0.4c0.2-0.2,0.4-0.4,0.7-0.4c0.2,0,0.6,0.2,0.7,0.4c0.4,0.3,0.7,1.1,0.8,1.5c0.1,0.2,0.1,0.5,0.2,0.7l0.3,1
				v0.3l0.4,0.6V51c0.2,0.7,0.2,1.3,0.2,2c0,0.4,0,0.6,0,0.6c0,0.4,0,0.5,0.3,0.5l2.3-0.1c0.1,0,1.4,0.1,1.9,0.2
				c0.1,0,0.3,0.1,0.5,0v-1.9c0.1-0.3,0.3-1.6,0.4-1.9v-0.6c0.1-0.1,0.1-0.6,0.2-0.8l0.2-0.6c0,0,0.1-0.4,0.1-0.5
				c0-0.2,0.1-0.5,0.2-0.7c0-0.3,0-0.6,0.1-0.9s0.4-0.5,0.4-0.8c0.1-0.1,0.2-0.2,0.3-0.2s0.2,0,0.3,0.1l0.5,0.2
				c0.1,0.1,0.6,0.7,0.8,0.8c0.2,0.2,0.4,0.5,0.6,0.8c0,0,0.4,0.3,0.4,0.4s0.4,0.6,0.4,0.7c0.1,0.2,0.3,0.3,0.3,0.6
				c0,0.2,0,0.5,0.2,0.7c0,0.1,0.1,0.3,0.1,0.4c0,0.2,0.1,0.6,0.2,0.8v0.5c0,0.4,0,0.9,0.2,1.3l0.2,1.9c0,0.3,0,0.6,0,0.9
				c0,0.1,0,0.3,0,0.5c0,0.1,0,0.2,0.1,0.7c0,0.4,0,0.6,0,0.9s-0.2,0.8-0.2,1.1c0,0.3-0.2,0.6-0.3,0.9c0,0.1-0.2,0.4-0.2,0.5
				c0,0.3-0.1,0.6-0.2,0.9l-0.2,0.2c-0.4,0.8-0.6,1.7-0.8,2.5c-0.1,0.4-0.4,1-0.4,1.5c0,0.1,0,0.4-0.1,0.5v0.1l-0.3,0.6
				c0,0.1-0.2,0.3-0.4,0.3s-0.3-0.2-0.4-0.4l0,0l-0.2-0.3c-0.1-0.2-0.1-0.6-0.2-0.9l-0.3-0.5l-0.3-0.6l-0.2-0.5
				c0-0.2-0.2-0.5-0.2-0.7c0-0.1-0.1-0.3-0.1-0.6c-0.1-0.2-0.4-1.2-0.5-1.5c0-0.1-0.3-0.8-0.3-0.9l-0.2-0.5
				c-0.1-0.1-0.1-0.6-0.1-0.8v-0.8c0,0,0-0.3-0.1-0.8c-0.1-0.1,0-0.3-0.1-0.4c-0.2-0.1-0.9-0.2-1.1-0.3c-0.2,0-0.4,0-0.6,0
				c-0.4,0-0.7,0.1-1.1,0.3l-1.2,0.1c-0.4,0.1-0.4,0.2-0.4,0.2c0,0.1,0,0.2,0.1,1c0,0.7,0,1,0,1.1c0,0.3,0,0.6-0.1,0.8v1.5
				c0,0.1,0,0.8-0.1,1c0,0.2,0,0.4-0.2,0.5L74.7,63c-0.1,0.2-0.1,0.4-0.2,0.5c0,0.1-0.1,0.8-0.1,0.9v0.3l-0.1,0.5
				c0,0-0.1,0.5-0.1,0.6c-0.1,0.2-0.1,0.4-0.2,0.6s-0.2,0.3-0.4,0.4c-0.1,0.1-0.2,0.4-0.4,0.4c-0.1,0-0.1,0.1-0.2,0.1
				s-0.2-0.1-0.3-0.2c-0.2-0.2-0.1-0.6-0.2-0.7c-0.1-0.3-0.1-0.7-0.2-1L72,64.9c-0.1-0.3-0.1-0.4-0.2-0.7c-0.1-0.2-0.2-0.4-0.3-0.6
				C71.6,63.9,71.1,62.6,71,62.4"/>
			<path class="st5" d="M96.7,67.5c-0.1,0-0.5-0.1-0.6-0.1l-0.6-0.2l-0.3-0.1c-0.3,0-0.6-0.1-1-0.3c-0.1,0-0.3-0.2-0.4-0.2L93,66.2
				c-0.3-0.2-0.6-0.5-0.9-0.7l-0.6-0.6c-0.2,0-0.6-0.4-0.8-0.5c-0.1,0-0.4-0.3-0.5-0.4l-0.7-0.7L88.7,62l-0.4-0.8
				c-0.4-1-0.8-2-0.9-3v-1.9v-0.4c0-0.3,0.1-0.5,0.1-0.8c0.1-0.4,0.3-0.8,0.3-1.2c0-0.3,0.1-0.7,0.1-0.8c0-0.1,0.1-0.3,0.2-0.4
				l0.3-0.3l0.2-0.5c0.2-0.4,0.6-0.8,0.8-1.2l0.7-0.9c0,0,0.4-0.3,0.4-0.4l0.8-1.1l0.7-0.8c0,0,0.7-0.5,1-0.7s0.4-0.5,0.8-0.6
				c0.1-0.1,0.8-0.2,1-0.2h1.6c0.1,0,0.3-0.1,0.4-0.1l0.6-0.3c0.1,0,0.1,0,0.3,0c0.3,0,0.5,0,0.8,0.1c0.3,0,0.8,0.1,1.1,0.1
				c0.3,0.1,0.6,0.2,0.8,0.4l0.3,0.1h0.4c0.1,0,0.2,0,0.5,0c0.1,0,0.4,0,0.6,0c0.2,0,1.4,0.4,1.5,0.4c0.8,0.4,1.6,0.8,2.3,1.3
				c0.5,0.5,1.1,1.4,1.4,1.8l0.1,0.2l0.4,0.6l0.1,0.3l0.5,1.3c0.1,0.3,0.1,0.7,0.2,1.1l0.2,0.7c0,0,0.1,0.1,0.1,0.8v0.6
				c0,0.2,0,0.3,0,0.5l-0.4,3.5v0.3l-0.4,0.8c-0.1,0.4-0.7,2.2-0.8,2.6c-0.2,0.2-0.2,0.5-0.3,0.7l-0.6,0.9c-0.2,0.2-0.9,1-1,1
				c-0.1,0.1-0.8,0.6-1,0.7c0,0,0,0.1-0.2,0.2l-0.3,0.1c-0.3,0.1-0.4,0.4-0.7,0.4l-0.5,0.1c-0.1,0-0.2,0-0.5,0c-0.1,0-0.5,0-0.6,0
				l-1.5,0.4c-0.3,0-0.7,0-0.9,0h-0.4c-0.4,0-0.7,0-1.1-0.1C97.7,67.7,97.1,67.6,96.7,67.5 M96.2,61.8c0.1,0.1,0.4,0.5,0.5,0.5
				c0.1,0.2,0.5,0.6,0.7,0.8c0.1,0.1,0.4,0.3,0.5,0.3h0.3c0.2,0,0.6,0,0.7,0l0.8,0.4c0,0,0.5,0.1,0.6,0.1c0,0,0.4,0,0.5,0h0.6
				c0.1,0,0.7-0.1,0.8-0.1c0.2,0,1.3-0.3,1.5-0.4c0.4-0.2,0.8-0.4,1.1-0.7c0.1-0.2,0.8-1.2,0.9-1.4c0.1-0.1,0.4-0.6,0.5-0.7l0.1-0.3
				c0-0.3,0.4-1.3,0.5-1.6l0.2-0.9c0-0.3,0.1-0.6,0.1-1v-1.6c0-0.1,0-0.5,0-0.6l-0.2-0.4c-0.1-0.2-0.2-0.8-0.2-0.9l-1-1.8
				c-0.2-0.3-0.3-0.5-0.5-0.7c-0.1-0.1-0.2-0.1-0.3-0.3l-0.3-0.3c-0.1,0-0.2-0.1-0.3-0.2l-0.5-0.4l-0.5-0.3c0,0-0.5-0.1-0.6-0.1
				s-0.7-0.1-0.8-0.1c-0.5,0-0.9-0.4-1.4-0.4h-0.2l-0.7,0.4c-0.3,0.2-0.6,0.4-1,0.7l-0.3,0.7l-0.6,0.6l-0.2,0.3
				c-0.4,0.6-0.8,1.3-1,2L96.1,55v0.2l-0.2,0.4l-0.1,0.2c-0.2,0.7-0.3,1.4-0.3,2.2c0,0.5,0,0.9,0.1,1.4c0,0.2,0.2,1.3,0.2,1.6
				c0,0.3,0.3,0.6,0.5,0.7L96.2,61.8"/>
			<path class="st5" d="M112.5,59.9v-0.6c0-0.2,0-0.5,0-0.7c0.1-1.1,0.1-1.2,0.1-1.2l0.1-1.8l0.1-0.5c0-0.2,0.1,0,0.1-0.3l0.2-1
				c-0.4-0.1-0.7-0.2-1.1-0.3h-1.1c-0.2-0.1-0.4-0.2-0.5-0.4c0,0-0.1-0.1,0-0.3c0-0.1,0.1-0.2,0.1-0.4c0.1-0.2,0.2-0.4,0.4-0.4h0.2
				c0.3,0,0.3,0,1,0h0.4l1,0.1c0,0,0.3-0.9,0.4-1.1l0.1-0.3l0.1-0.7c0.1-0.3,0.3-0.7,0.5-0.9c0.1-0.1,0-0.2,0.1-0.3
				c0.2-0.3,0.1-0.6,0.3-0.8c0-0.1,0.3-0.7,0.4-0.8l0.2-0.3l0.2-0.5c0-0.2,0.1-0.3,0.1-0.4c0-0.3,0.4-0.6,0.6-0.9l0.2-0.1h0.1h0.2
				c0.1,0,0.2,0.1,0.4,0.2l0.7,0.9l0.3,0.3c0.2,0.1,0.2,0.3,0.3,0.5s0.5,1.2,0.6,1.3c0,0.1,0.1,0.3,0.1,0.5l0.1,0.8
				c0,0.3,0.1,0.5,0.1,0.8c0.1,0,0.1,0.3,0.1,0.4V51l0.1,0.8v0.9c0,0,0.8,0,1.4,0c0.3,0,0.5,0.1,0.6,0.1l0.7,0.1
				c0.4,0.1,0.7,0.2,1,0.5l0.2,0.3c0,0.1,0.1,0.2,0.1,0.3l-0.1,0.2l-0.1,0.1c-0.1,0.1-0.6,0.2-0.8,0.2h-0.1l-0.5-0.1l-0.4-0.1
				c-0.2,0-1,0.1-1.2,0.1c-0.1,0-0.3,0-0.5,0s-0.4,0-0.5-0.1h-0.2c0,0.1-0.1,0.4-0.1,0.5c0,0.4-0.2,0.4-0.2,0.8
				c0,0.2-0.1,0.6-0.1,0.6c-0.1,0.3-0.3,0.6-0.3,0.9c0,0.1,0,0.2,0,0.3v0.1l-0.2,0.5l-0.2,0.2l-0.3,0.6v0.3c0,0.2,0,0.8,0,0.9v0.5
				l-0.3,2.2c0.1,0.3,0.1,0.5,0.2,0.8l0.2,0.3c0.1,0.1,0.3,0.3,0.5,0.4c0.1,0.1,0.3,0.2,0.4,0.2h0.2h0.3c0,0,0.3-0.1,0.4-0.2
				l0.1-0.1c0.2-0.1,0.5-0.4,0.6-0.5c0.1-0.2,0.5-0.8,0.5-1s0.2-0.5,0.2-0.5c0-0.1-0.1-0.3-0.1-0.4h-0.1c-0.3,0-0.7-0.1-0.7-0.6V61
				c0.1-0.2,0.1-0.3,0.3-0.5c0.1-0.1,0.6-0.1,0.8-0.1c0.1,0,0.3,0.1,0.3,0.2l0.5,0.3c0.1,0.1,0.3,0.2,0.3,0.4
				c0.1,0.2,0.1,0.5,0.1,0.8c-0.1,0.4-0.2,0.8-0.2,1.3c-0.1,0.3-0.2,0.6-0.4,0.8l-0.4,0.5c0,0.1-0.2,0.2-0.3,0.4
				c-0.2,0.2-0.5,0.5-0.8,0.6c-0.2,0.1-0.3,0.1-0.4,0.2c-0.2,0.1-0.6,0.3-0.8,0.3c-0.1,0-0.2,0-0.4,0.1h-0.1c-0.1,0-0.7,0-0.9-0.1
				l-0.5,0.1h-0.3c-0.5-0.1-0.9-0.2-1.4-0.4l-0.3-0.1l-0.7-0.6l-0.3-0.3l-0.3-0.2c-0.2-0.2-0.4-0.4-0.6-0.7
				c-0.1-0.1-0.5-0.8-0.6-0.9l-0.1-0.3l-0.3-0.8c0,0,0-0.1-0.3-2.1L112.5,59.9"/>
			<path class="st5" d="M81,43.6c-0.3,0-0.7,0.2-0.8,0.1h-0.5c-0.1,0-0.5-0.1-0.7-0.1h-0.4H78c-0.1,0-0.2,0-0.3,0l-0.2-0.2l-0.1-0.3
				c0,0,0-0.2,0-0.6c0-0.1-0.1-0.7-0.1-0.8c0-0.2-0.2-1.4-0.2-1.6v-0.2v-0.5c0-0.6,0-1.2,0-1.8v-0.5c0-0.1,0-0.2,0-0.3
				c0-0.2,0-0.3,0-0.4c0-0.2,0.1-0.4,0.1-0.6c0,0,0-0.1,0-0.3l0.1-1.1l0.1-0.3c0-0.1,0-0.2,0-0.3c0-0.2,0.1-0.4,0.1-0.6l0.1-0.3
				l0.1-0.4l0.2-0.3c0.1-0.1,0.1-0.1,0.2-0.3l0.2-0.1h0.2l0.7-0.1h0.2l0.9,0.1h0.3c0.3,0,0.5,0,0.8,0h0.2c0.1,0,0.2,0.1,0.4,0.1
				l0.3,0.1c0.4,0,0.9,0.1,1.3,0.1c0.1,0,0.3,0,0.4,0h0.2l0.4,0.2l0.1,0.1v0.1c0,0,0,0.1-0.2,0.3c-0.1,0.1-0.4,0.2-0.5,0.1h-0.2
				c-0.2,0.1-0.4,0-0.6,0.1c-0.3,0-0.5,0-0.9,0.1c-0.3,0-0.8,0-0.9,0.1l-0.6-0.1l-0.2,0.2v0.3c0,0.1,0,0.1,0,0.2l0.1,0.3v0.2v0.1v1
				v0.2c0,0.1,0,0.1,0.1,0.7v0.3c0.2,0,0.4,0,0.5,0.1c0.2,0,0.4,0.1,0.6,0.2l0.4,0.1c0.1,0,0.2,0,0.3,0s0.2,0,0.3-0.1h0.2h0.5h0.3
				c0.1,0,0.2,0.1,0.3,0.2c0,0.1,0.1,0.1,0.1,0.3v0.1c0,0.1-0.4,0.3-0.4,0.3h-0.3h-0.1h-0.3l-0.5,0.1L82.5,38c-0.1,0-0.2,0-0.4,0h-1
				H81c0,0-0.3,0-0.3,0.2c0,0.3,0.1,1.1,0.1,1.2v0.3c0,0.4,0,0.5,0,0.5c0,0.1-0.1,0.2-0.1,0.2c0,0.2,0,0.8,0,1v0.2
				c0,0.1,0,0.2,0,0.2c0.2,0,0.4,0.2,0.6,0.2l1,0.2h0.2c0.1,0,0.1,0.1,0.2,0c0.2,0,0.4,0.1,0.6,0h0.3c0.1,0,0.3,0,0.4-0.1l0.4,0.1
				h0.2c0.2,0,0.1,0.2,0.2,0.3c0,0.2-0.1,0.2-0.2,0.4c0,0,0,0.1-0.1,0.2c-0.2,0.1-0.3,0.2-0.3,0.2c-0.1,0-0.3,0-0.4,0.1h-0.2
				c-0.1,0-0.2,0-0.3,0h-0.5c-0.1,0-0.2,0.1-0.4,0.1h-0.5h-0.3H81V43.6z"/>
			<path class="st5" d="M90.3,42.2L90,41.9l-0.2-0.3l-0.1-0.2l-0.1-0.1c-0.2-0.2-0.3-0.5-0.6-0.7l-0.5,0.5l-0.1,0.2l-0.1,0.1
				c0,0.1-0.1,0.3-0.2,0.4l-0.5,0.6l-0.2,0.2l-0.1,0.2L87.2,43v0.1l-0.4,0.4v0.1l-0.1,0.1h-0.2h-0.3h-0.3l-0.4-0.2
				c-0.1-0.1-0.2-0.2-0.2-0.3v-0.1l0.1-0.2l0.1-0.1l0.3-0.3l0,0l0.2-0.3l0.4-0.6l0.4-0.4c0.1-0.1,0.1-0.2,0.2-0.3l0.3-0.3
				c0.1-0.1,0.2-0.2,0.3-0.4l0.2-0.3l0.4-0.4l-0.1-0.1l-0.2-0.2c-0.1-0.1-0.2-0.2-0.3-0.3l-0.2-0.3c-0.6-0.7-0.6-0.8-0.6-0.8
				L86.3,37v-0.1c-0.1-0.1-0.1-0.2-0.2-0.3l-0.2-0.2c-0.1-0.2-0.1-0.4-0.2-0.6v-0.2v-0.2v-0.1v-0.2c0.1-0.1,0.1-0.1,0.2-0.1H86
				l0.3,0.2l0.2,0.1l0.2,0.2l0.6,0.2c0.1,0,0.2,0,0.3,0.1h0.1l0.2,0.1l0.2,0.1l0.1,0.1l0.4,0.2c0.1,0.1,0.1,0.1,0.2,0.2l0.1,0.1
				c0.1,0.1,0.2,0.1,0.3,0.2l0.5,0.3l0.2,0.1c0.1-0.1,0.2-0.2,0.3-0.4l0.2-0.2l0.2-0.3l0.2-0.3l0.2-0.2l0.5-0.5l0.3-0.2l0.1-0.1
				l0.2-0.3l0.1-0.1l0,0c0-0.1,0.2-0.2,0.4-0.2h0.1v0.1v0.1v0.1v0.1c0,0.4-0.2,0.7-0.2,1.2c0,0.1,0,0.2,0,0.3c0,0.3-0.1,0.5-0.3,0.6
				L92.1,37L92,37.4c0,0.1-0.2,0.4-0.2,0.4v0.1c0,0-0.1,0.1-0.1,0.2l0.1,0.1l0.4,0.4l0.4,0.3c0.1,0.1,0.2,0.2,0.3,0.4l0.2,0.2
				c0.2,0.2,0.2,0.5,0.2,0.8v0.1l0.1,0.1c0.1,0.1,0.1,0.2,0.1,0.3l0.1,1.5v0.1l0.1,0.2v0.5v0.1c-0.1,0.2-0.2,0.3-0.4,0.3
				c-0.1,0-0.2-0.1-0.4-0.2l-0.2-0.1h-0.1c-0.1-0.1-0.3-0.1-0.4-0.2l-0.1-0.1l-0.2-0.2L90.3,42.2z"/>
			<path class="st5" d="M94.7,41v-0.3c0-0.1,0-0.3-0.1-0.3c0-0.6,0-0.6,0-0.6l-0.1-1v-0.3c0-0.1,0,0,0-0.2v-0.5
				c-0.2,0-0.4-0.1-0.6-0.1h-0.6c-0.1,0-0.2-0.1-0.3-0.2c0,0,0,0,0-0.2c0-0.1,0-0.1,0-0.2s0.1-0.2,0.2-0.2h0.1c0.2,0,0.2,0,0.5,0H94
				h0.5c0,0,0.1-0.5,0.1-0.6v-0.1v-0.5c0-0.2,0.1-0.4,0.2-0.5V35c0.1-0.2,0-0.3,0.1-0.4l0.1-0.4l0.1-0.2l0.1-0.3v-0.2
				c0-0.2,0.2-0.4,0.3-0.5h0.1h0.1h0.1l0.2,0.1l0.4,0.4l0.2,0.2c0.1,0,0.1,0.1,0.2,0.2l0.4,0.7l0.1,0.2l0.1,0.4
				c0,0.1,0.1,0.3,0.1,0.4l0.1,0.2V36l0.1,0.4l0.1,0.5c0,0,0.4-0.1,0.7-0.1c0.1,0,0.3,0,0.3,0h0.4c0.2,0,0.4,0,0.6,0.2l0.1,0.1
				l0.1,0.2v0.1v0.1c-0.1,0.1-0.3,0.2-0.4,0.2h-0.1h-0.2h-0.2c-0.1,0-0.5,0.1-0.6,0.1c0,0-0.1,0-0.2,0c-0.1,0-0.2,0-0.3,0h-0.1v0.3
				c0,0.2-0.1,0.2-0.1,0.4c0,0.1,0,0.3,0,0.3c0,0.2-0.1,0.3-0.1,0.5v0.1v0.1l-0.1,0.3l-0.1,0.1l-0.1,0.3v0.2c0,0.1,0.1,0.4,0.1,0.5
				v0.2v1.2c0.1,0.1,0.1,0.2,0.2,0.4l0.1,0.2l0.3,0.2l0.2,0.1h0.1h0.2l0.2-0.1l0.1-0.1c0.1-0.1,0.2-0.2,0.3-0.3
				c0-0.1,0.2-0.5,0.2-0.5l0.1-0.3l-0.1-0.2h-0.1c-0.2,0-0.4,0-0.4-0.2l0,0c0-0.1,0-0.2,0.1-0.3c0.1-0.1,0.3-0.1,0.4-0.1l0.2,0.1
				l0.3,0.1c0.1,0,0.2,0.1,0.2,0.2c0.1,0.1,0.1,0.3,0.1,0.4c0,0.2,0,0.5,0,0.7c0,0.1-0.1,0.3-0.1,0.5l-0.2,0.3l-0.1,0.2
				c-0.1,0.1-0.2,0.3-0.4,0.4l-0.2,0.1c-0.1,0-0.3,0.2-0.4,0.2l-0.2,0.1l0,0h-0.5l-0.3,0.1h-0.1c-0.2,0-0.5,0-0.7-0.1h-0.1l-0.4-0.3
				L96.3,44l-0.2-0.1c-0.1-0.1-0.2-0.2-0.4-0.3l-0.4-0.4l-0.1-0.1L95,42.7c0,0,0-0.1-0.3-1.1L94.7,41"/>
			<path class="st5" d="M101.4,43.1l-0.1-0.2v-0.1c0-0.1-0.1-0.2-0.1-0.3l-0.1-0.2v-0.2c0,0-0.1-0.4-0.1-0.5s0-0.3-0.1-0.3l-0.3-1.2
				c0-0.1,0-0.3,0-0.5c0-0.1,0-0.4,0-0.5l0.1-0.6c0-0.2,0-0.4,0.1-0.6v-0.3v-0.2l0.1-0.8l0.1-0.4v-0.3c0-0.2,0.1-0.5,0.2-0.7
				c0.1-0.3,0.1-0.5,0.3-0.7c0.1,0,0.1-0.1,0.2-0.1h0.2c0.2,0.1,0.2,0.2,0.3,0.3l0.1,0.2c0.1,0.1,0.2,0.4,0.2,0.4l0.1-0.1l0.1-0.1
				l0.4-0.3l0.2-0.1l0.3-0.1h0.1l0.2-0.1h0.2h0.2c0.1,0,0.2,0,0.4,0h0.3c0.1,0,0.2,0.1,0.3,0.2h0.1c0.1,0.1,0.2,0.2,0.3,0.3v0.1
				l0.1,0.3c0,0.1,0,0.2-0.1,0.3c-0.2,0.2-0.2,0.2-0.5,0.2c-0.2,0-0.3,0-0.4-0.2l-0.1-0.1c0,0-0.1-0.1-0.2-0.1h-0.2
				c-0.2,0-0.3,0.1-0.5,0.2l-0.2,0.3c-0.1,0.1-0.1,0.1-0.2,0.2l-0.2,0.2l-0.2,0.2l-0.1,0.1l-0.1,0.2v0.2l0.1,0.5l0.2,0.4l0.1,0.5
				l0.1,0.4v0.9c0,0.3,0,0.6,0,0.9v0.1c-0.1,0.1-0.2,0.3-0.2,0.5v0.2c0,0.1,0,0.2-0.1,0.3c-0.2,0.2-0.3,0.3-0.4,0.5
				c-0.1,0.1-0.1,0.2-0.3,0.4c0,0.1-0.1,0.2-0.2,0.3c-0.1,0.1,0,0.3-0.1,0.4l-0.1,0.2l-0.1,0.1h-0.1l-0.2-0.1L101.4,43.1z"/>
			<path class="st5" d="M110.1,43.2l-0.2,0.2l-0.2,0.1l-0.2,0.1c-0.3,0.1-0.6,0.2-0.9,0.1h-0.2c0,0,0,0-0.2,0c-0.1,0-0.2,0-0.3,0
				l-0.8-0.2H107c-0.2,0-0.4-0.2-0.6-0.2c-0.2,0-0.3-0.2-0.5-0.3c-0.3-0.2-0.5-0.5-0.6-0.9v-0.2c-0.1-0.2-0.3-0.5-0.4-0.7v-0.1
				l-0.1-0.3c-0.1-0.3-0.1-0.6-0.1-0.9v-0.2c0.1-0.2,0.1-0.4,0.2-0.6c0,0,0.2-0.3,0.2-0.5l0.1-0.2c0.2-0.2,0.4-0.4,0.6-0.6l0.1-0.2
				c0.2-0.1,0.3-0.2,0.4-0.3c0.1-0.1,0.3-0.1,0.4-0.1l0.2-0.1h0.3h0.6h0.6h0.3c0.4,0,0.8,0.1,1.2,0.2l0.2,0.1c0.1,0,0.2,0.1,0.3,0.1
				v-0.1v-0.2V37l-0.1-0.5V36l-0.1-0.3c-0.1-0.2-0.5-0.7-0.7-0.8h-0.2h-0.8h-0.2l-0.2,0.1l-0.4,0.2h-0.1h-0.2l-0.2,0.1l-0.1,0.1
				c-0.1,0.1-0.1,0.1-0.3,0.1l-0.1-0.1c0.2,0.3,0.2,0.3,0.2,0.2v-0.2v-0.1c0-0.2,0.1-0.2,0.2-0.3l0.2-0.1h0.1l0.4-0.3
				c0.2-0.1,0.4-0.1,0.6-0.2h0.2h0.2h0.1h0.3c0,0,0,0,0.2,0c0.1,0,0.2,0,0.3,0l0.7,0.2l0.3,0.1h0.1h0.1h0.1c0.3,0.1,0.6,0.2,0.9,0.5
				l0.4,0.5l0.2,0.2c0.1,0.1,0.1,0.1,0.2,0.2l0.1,0.1l0.1,0.2c0.4,0.7,0.4,0.7,0.4,0.7c0.1,0.2,0.2,0.4,0.2,0.5v0.2
				c0,0.2,0.2,0.3,0.2,0.4v0.1v0.2c0.1,0.2,0.1,0.5,0.1,0.7v0.1v0.1l0.1,0.3v0.2v0.2l0.1,0.7v0.1c0,0.2-0.1,0.3-0.2,0.5l-0.1,0.3
				l-0.3,0.3c-0.1,0.1-0.2,0.2-0.2,0.3l-0.2,0.3l-0.2,0.2l-0.1,0.2l-0.4,0.3c-0.1,0.1-0.1,0.1-0.2,0.2c-0.1,0.1-0.2,0.1-0.3,0.2v0.1
				l-0.2,0.3c-0.1,0.1-0.2,0.2-0.3,0.3h-0.1h-0.1c-0.2-0.1-0.2-0.2-0.3-0.4v-0.1v-0.5v-0.3l-0.1-0.2C110.4,43,110.2,43.1,110.1,43.2
				 M106.9,41.3l0.1,0.2v0.3c0,0.1,0.1,0.2,0.1,0.3l0.3,0.3c0.1,0,0.1,0.1,0.2,0.1h0.2h0.2l0.2,0.1h0.2h0.2h0.3h0.1l0.1-0.1
				c0.2,0,0.3-0.1,0.5-0.2l0.7-0.6c0-0.3,0,0,0-1.1v-0.4V40v-0.3c0-0.1,0-0.6,0.1-0.7c-0.1-0.3-0.1-0.3-0.1-0.3v-0.1l-0.4-0.2h-0.1
				l-0.4-0.1h-0.1c-0.1,0-0.3,0-0.4,0h-0.2l-0.2,0.2l-0.4,0.1c-0.1,0-0.3,0.1-0.3,0.1c-0.2,0.1-0.3,0.2-0.5,0.2l-0.1,0.1
				c-0.1,0.1-0.3,0.3-0.3,0.4s-0.1,0.2-0.1,0.3c0,0.1,0,0.2,0,0.3v0.4v0.2l-0.1,0.3L106.9,41.3"/>
		</g>
		<g>
			<path class="st5" d="M47.2,217c0-0.1-0.1-0.2,0-0.4l-0.2-0.7v-0.1l-0.3-1.3v-0.3c0-0.1,0-0.4,0-0.5v-0.2c0-0.1,0-0.2,0-0.3
				l0.1-0.7v-0.1c0.1-0.3,0.2-0.5,0.3-0.8l0.1-0.1c0-0.1,0.1-0.2,0.2-0.2l0.1-0.1l0.1-0.2l0.1-0.2l0.1-0.1l0.1-0.1l0.1-0.1h0.1
				l0.1,0.1l0.1,0.1l0.1,0.1l0.2,0.3c0.1,0.2,0.2,0.4,0.3,0.6l0.1,0.1c0.1,0.2,0.1,0.4,0.1,0.5v0.3v0.3c0,0.1,0,0.2,0,0.3l-0.1,0.3
				c0,0.1-0.1,0.7-0.1,0.8v0.3c0,0-0.1,0.5-0.1,0.6s-0.1,0.2-0.1,0.3l-0.1,0.2l-0.2,0.3l-0.1,0.3v0.1v0.1v0.1
				c-0.1,0.1-0.2,0.3-0.2,0.4v0.3c0,0.1-0.1,0.3-0.1,0.3l-0.1,0.1h-0.1l-0.1-0.1c0-0.1,0-0.2,0-0.3v-0.2L47.2,217 M47.3,209.6
				l-0.2-0.3l-0.1-0.1v-0.1v-0.2v-0.2v-0.2l0.1-0.1v-0.1l0.1-0.1l0.1-0.1l0.2-0.1h0.2c0.1,0,0.1,0,0.3,0c0.1,0,0.2,0.1,0.3,0.1
				l0.2,0.1l0.1,0.1l0.1,0.1l0.1,0.2v0.1v0.2c0,0.1-0.1,0.3-0.1,0.4l-0.1,0.2l-0.1,0.1l-0.1,0.2l-0.1,0.1h-0.1H48
				c-0.1,0-0.1,0-0.2,0h-0.1l-0.2-0.1h-0.1L47.3,209.6z"/>
			<path class="st5" d="M50.6,217.5c0-0.1-0.1-0.2-0.1-0.3c-0.1-0.2-0.2-0.6-0.2-0.8v-0.2V216c0-0.1,0-0.2,0-0.3c0-0.1,0-0.2,0-0.3
				v-0.8c0-0.2,0-0.4,0-0.6v-0.2v-0.4c0-0.1,0-0.2,0-0.3v-0.3c0-0.5,0-1,0-1v-0.1v-0.4c0-0.1,0.1-0.3,0.1-0.3v-0.2v-0.2
				c0-0.1,0.1-0.6,0.1-0.7s0.1-0.5,0.1-0.6l0.1-0.4c0-0.1,0.1-0.2,0.2-0.3v-0.1l0.1-0.2c0-0.1,0.1-0.2,0.2-0.2h0.1l0.1,0.2
				c0.1,0.2,0.1,0.3,0.2,0.3l0.1,0.2c0.1,0.1,0,0.3,0.1,0.3v0.1l0.1,0.2c0.1,0.1,0.2,0.3,0.2,0.4c0,0,0,0.1,0,0.3v0.2v0.8
				c0,0.1,0.1,0.3,0.1,0.4v0.1v0.2v0.2v0.1v0.4c0,0.1,0,0.1,0,0.2v0.2v0.3c0,0.1-0.1,0.6-0.1,0.7l-0.1,0.4l-0.1,0.1l-0.1,0.2
				c0,0.1-0.1,0.2-0.2,0.3l-0.1,0.2l-0.1,0.1c0,0.1,0,0.2-0.1,0.3c0,0.1-0.1,0.6-0.1,0.7s-0.1,0.3-0.1,0.4v0.1l-0.1,0.2v0.2v0.1
				c0,0.1-0.1,0.2-0.2,0.2l0,0L50.6,217.5"/>
			<path class="st5" d="M56.8,216.3v-0.2v-0.2h-0.2c-0.1,0-0.3,0.1-0.3,0.1c-0.1,0-0.3,0.1-0.4,0.1c0,0-0.4,0-0.8,0
				c0,0-0.5-0.1-0.7-0.2l-0.2-0.1c-0.2-0.1-0.4-0.2-0.5-0.4l-0.2-0.3c-0.1-0.1-0.1-0.3-0.2-0.4c-0.1-0.2-0.2-0.4-0.2-0.6v-0.3
				c0-0.1-0.1-0.2-0.1-0.3c0-0.1,0-0.2,0-0.3v-0.1c0-0.1,0-0.2,0-0.3l0.1-0.3c0-0.1,0.1-0.2,0.2-0.4l0.1-0.2l0.1-0.1
				c0.1-0.2,0.3-0.3,0.5-0.4l0.1-0.1l0.4-0.1l0.3-0.1c0.2-0.1,0.4-0.1,0.6-0.1h0.1c0.2,0,0.2,0,0.3,0H56h0.3l0.2,0.1
				c0.1,0,0.2,0,0.3,0V211l0.1-0.5c0,0,0.2-0.7,0.2-1l0.1-0.2c0-0.1,0.1-0.2,0.1-0.3c0.1-0.1,0.1-0.3,0.1-0.4l0.1-0.7l0.1-0.2v-0.3
				c0-0.2,0.1-0.3,0.2-0.4v-0.1l0.1-0.2l0.1-0.1l0.1-0.1l0.2-0.1l0.1,0.1c0.1,0.1,0.1,0.1,0.1,0.2l0.1,0.2v0.1l0.1,0.1
				c0.2,0.3,0.2,0.4,0.2,0.4l0.1,0.2c0,0.2,0.1,0.4,0.1,0.6s0.1,0.4,0,0.6v0.2v0.1v0.1c0,0.1,0,0.1,0,0.2v0.1v0.3c0,0.1,0,0.2,0,0.3
				v0.4v0.1c0,0.2-0.1,0.4-0.1,0.6v0.4v0.3v0.3v0.2c0,0.2-0.1,0.3-0.1,0.5l-0.1,0.2c0,0.1-0.1,0.2-0.1,0.3c-0.1,0.1,0,0.2-0.1,0.3
				l-0.1,0.2l-0.1,0.1c0,0.1,0,0.2-0.1,0.3c0,0.1-0.1,0.2-0.1,0.2l-0.1,0.2l-0.1,0.1c-0.1,0.1-0.1,0.3-0.2,0.4l-0.1,0.2l-0.1,0.2
				c-0.1,0.1-0.1,0.1-0.2,0.3l-0.1,0.1h-0.1h-0.1l-0.1-0.2C56.8,216.5,56.8,216.4,56.8,216.3 M54.4,214.2v0.2v0.3l0.1,0.2l0.1,0.2
				c0.1,0.2,0.2,0.3,0.4,0.4l0.3,0.2h0.2c0.2,0,0.4,0,0.6,0l0.3-0.1l0.1-0.1c0.1-0.1,0.4-0.2,0.5-0.3v-0.1c0.1-0.5,0-1,0-1.6v-0.2
				V213c0-0.2,0-0.4,0-0.6c0,0,0-0.1,0-0.3c0-0.1,0-0.2,0-0.2h-0.1h-0.2c-0.1,0-0.2,0.1-0.4,0.1h-0.2l-0.1,0.1l-0.2,0.1
				c-0.2,0.1-0.4,0.1-0.5,0.3l-0.3,0.4l-0.3,0.3c0,0.1-0.1,0.3-0.2,0.3v0.1c0,0.1,0,0.2,0,0.2L54.4,214.2"/>
			<path class="st5" d="M44.3,216.2V216c0-0.2-0.3-1.3-0.4-1.5l-0.1-0.3l-0.1-0.1l-0.1-0.7c-0.1-0.1-0.1-0.1-0.1-0.2l-0.5,0.9l0,0
				c-0.1,0.3-0.3,0.6-0.5,0.8c-0.1,0.2-0.1,0.4-0.2,0.6s-0.3,0.4-0.4,0.5l-0.2,0.2h-0.1l0,0c-0.1,0-0.2-0.1-0.3-0.1
				c-0.1-0.1-0.2-0.2-0.3-0.4l-0.1-0.1l-0.1-0.2l-0.2-0.3l-0.2-0.5v-0.2l-0.1-0.3c-0.1-0.2-0.2-0.5-0.3-0.7c0,0-0.1-0.3-0.2-0.4
				v-0.2l-0.2-0.4l-0.1-0.2l-0.1-0.2v0.1c-0.1,0.2-0.1,0.2-0.1,0.3c0,0.1,0,0.2-0.1,0.3v0.3l-0.1,0.6l-0.1,0.2v0.4l-0.1,0.3
				l-0.2,1.2c0,0.1,0,0.2-0.1,0.3l-0.1,0.5l-0.1,0.2c0,0.1-0.2,0.4-0.3,0.5c-0.1,0.1-0.1,0.2-0.2,0.3c-0.1,0.1-0.2,0.1-0.3,0.1h-0.2
				l-0.2,0.1H37l-0.2-0.1v-0.1v-0.1c0-0.1-0.1-0.5-0.1-0.7c0-0.1,0-0.6,0-0.7l0.1-1.5l0.2-0.9v-0.1c0.1-0.3,0.2-0.7,0.3-1
				c0,0,0.1-0.1,0.1-0.2l0.1-0.4c0.1-0.1,0.1-0.3,0.1-0.4c0-0.2,0.1-0.4,0.1-0.6l0.3-1c0,0,0.1-0.2,0.1-0.3c0.1-0.3,0.2-0.6,0.3-0.9
				l0.1-0.1c0.1-0.1,0.1-0.2,0.2-0.4l0.1-0.2l0.1-0.4l0.1-0.1c0.1-0.1,0.2-0.2,0.3-0.2c0.1,0,0.3,0.1,0.4,0.2l0.1,0.2
				c0.1,0.1,0.1,0.2,0.1,0.3l0.1,0.1l0.1,0.2c0.1,0.2,0.1,0.3,0.2,0.5v0.2l0.1,0.4l0.3,0.5l0.1,0.3l0.1,0.1l0.1,0.3
				c0.1,0.1,0.1,0.2,0.2,0.3v0.1c0.1,0.3,0.2,0.7,0.4,1.1c0.1,0.1,0.1,0.3,0.2,0.4c0-0.3,0.1-0.4,0.2-0.7l0.1-0.5l0.1-0.3
				c0-0.2,0-0.4,0.1-0.6c0-0.1,0-0.2,0.1-0.3l0.1-0.5l0.1-0.2c0.1-0.2,0-0.4,0.1-0.6c0-0.1,0.1-0.2,0.1-0.3l0.1-0.1v-0.1
				C43,208,43,208,43,208c0-0.1,0.1-0.2,0.1-0.3l0.1-0.1v-0.1c0.1,0,0.1-0.1,0.2-0.1s0.1,0,0.2,0.1l0.2,0.1l0.2,0.1l0.2,0.2v0.1
				c0.1,0.1,0.1,0.4,0.2,0.5l0.1,0.2l0.1,0.1c0,0.1,0,0.2,0,0.3l0.2,0.6c0,0.1,0.1,0.3,0.1,0.3c0,0.1,0.1,0.1,0.1,0.2l0.1,0.2
				l0.4,1.5v0.2l0.1,0.2c0.2,0.2,0.2,0.8,0.2,0.8l0.1,0.2v0.3v0.3c0,0.1,0.1,0.3,0.1,0.4v0.1c0.1,0.7,0,1.4,0.1,2.1
				c0,0.2,0,0.3,0,0.5c0,0.1,0,0.2,0,0.3v0.2c0,0.1,0,0.3-0.1,0.4c0,0.1-0.1,0.1-0.2,0.1h-0.2h-0.1c-0.3-0.2-0.3-0.5-0.4-0.7
				c0-0.1,0-0.2-0.1-0.2L44.3,216.2z"/>
			<path class="st5" d="M42.8,206.5c-0.2,0-0.6,0.2-0.7,0.1h-0.4c-0.1,0-0.4,0-0.6,0h-0.3h-0.5c-0.1,0-0.1,0-0.2,0l-0.2-0.1
				l-0.1-0.2c0,0,0-0.2,0-0.5c0-0.1-0.1-0.6-0.1-0.7s-0.2-1.2-0.3-1.3v-0.2v-0.4c0-0.5,0-1-0.1-1.5v-0.4c0-0.1,0-0.2,0-0.3
				c0-0.2,0-0.2,0-0.3c0-0.2,0.1-0.3,0-0.5c0,0,0-0.1,0-0.2l0.1-0.9l0.1-0.2c0-0.1,0-0.1,0-0.2c0-0.2,0.1-0.3,0.1-0.5l0.1-0.2
				l0.1-0.3l0.1-0.2c0-0.1,0.1-0.1,0.1-0.3l0.2-0.1h0.1l0.6-0.4h0.2l0.7,0.1H42c0.2,0,0.4,0,0.7,0h0.2c0.1,0,0.2,0.1,0.3,0.1h0.3
				c0.3,0,0.8,0.1,1.1,0.1c0.1,0,0.2-0.1,0.3-0.1h0.2l0.3,0.1l0.1,0.1v0.1c0,0,0,0.1-0.1,0.3c-0.1,0.1-0.3,0.1-0.4,0.1h-0.2
				c-0.2,0.1-0.3,0-0.5,0.1c-0.2,0-0.4,0-0.8,0.1c-0.2,0-0.7,0.1-0.7,0.1h-0.5l-0.2,0.2v0.2c0,0.1,0,0.1,0,0.2l0.1,0.3v0.1v0.1v0.8
				v0.2c0,0.1,0,0.1,0.1,0.5v0.3c0.2,0,0.3,0,0.5,0.1c0.1,0,0.3,0.1,0.5,0.1l0.4,0.1c0.1,0,0.1,0,0.2,0l0.2-0.1h0.2h0.4h0.2l0.3,0.1
				c0,0.1,0.1,0,0.1,0.2v0.1c0,0.1-0.3,0.2-0.3,0.3h-0.2h-0.1h-0.2l-0.4,0.1l-0.2,0.1c-0.1,0-0.2,0-0.3,0h-0.8h-0.1
				c0,0-0.3,0.1-0.2,0.2c0,0.3,0.1,1,0.1,1v0.2c0,0.3,0,0.4,0,0.4l-0.1,0.2c0,0.1,0,0.7,0,0.8v0.2v0.2c0.2,0,0.3,0.1,0.5,0.1
				l0.9,0.1h0.2c0.1,0,0.1,0,0.2,0c0.2,0,0.4,0,0.5,0H45c0.1,0,0.2,0,0.3-0.1h0.3h0.2c0.2,0,0.1,0.1,0.2,0.3c0,0.1,0,0.2-0.1,0.3
				c0,0,0,0.1-0.1,0.1c-0.2,0.1-0.3,0.1-0.3,0.1l-0.3,0.1H45c-0.1,0-0.1,0-0.2,0h-0.4c-0.1,0-0.2,0.1-0.3,0.1h-0.4h-0.3L42.8,206.5z
				"/>
			<path class="st5" d="M50.5,205l-0.3-0.2l-0.2-0.2l-0.1-0.2l-0.1-0.1c-0.2-0.2-0.3-0.4-0.5-0.5l-0.4,0.4l-0.1,0.1l-0.1,0.1
				c0,0.1-0.1,0.2-0.2,0.3l-0.4,0.5l-0.1,0.1l-0.1,0.1l-0.1,0.2v0.1l-0.3,0.3v0.1l-0.1,0.1h-0.2H47h-0.2l-0.3-0.1l-0.2-0.2v-0.1
				v-0.2l0.1-0.1l0.2-0.2l0,0l0.1-0.3l0.3-0.5l0.3-0.4c0.1-0.1,0.1-0.2,0.2-0.3l0.4-0.1c0.1-0.1,0.1-0.2,0.2-0.3l0.1-0.2l0.3-0.4
				l-0.1-0.1l-0.2-0.2c-0.1-0.1-0.2-0.2-0.2-0.3l-0.1-0.2c-0.5-0.6-0.5-0.6-0.5-0.6l-0.5-0.6v-0.1c-0.1-0.1-0.1-0.2-0.2-0.2
				l-0.1-0.2c-0.1-0.1-0.1-0.3-0.1-0.5v-0.1v-0.1v-0.1v-0.2c0.1-0.1,0.1-0.1,0.2-0.1h0.1l0.2,0.1l0.1,0.1l0.2,0.1l0.5,0.1
				c0.1,0,0.2,0,0.2,0.1h0.1l0.2,0.1l0.1,0.1h0.1l0.3,0.2c0.1,0,0.1,0.1,0.2,0.1l0.1,0.1c0.1,0.1,0.2,0.1,0.3,0.2l0.4,0.3l0.1,0.1
				c0.1-0.1,0.2-0.2,0.3-0.3l0.1-0.2l0.2-0.2l0.2-0.3l0.1-0.2l0.4-0.4l0.2-0.1v-0.1l0.2-0.2l0.1-0.1l0,0c0-0.1,0.2-0.2,0.3-0.2h0.1
				v0.1v0.1v0.1v0.1c0,0.3-0.1,0.6-0.1,1c0,0.1,0,0.1,0,0.2c0,0.2,0,0.4-0.2,0.5l-0.1,0.1l-0.1,0.3c0,0.1-0.2,0.3-0.2,0.4v0.1
				l-0.1,0.2l0.1,0.1l0.3,0.4l0.3,0.2c0.1,0.1,0.1,0.2,0.2,0.3l0.2,0.2c0.2,0.2,0.2,0.4,0.2,0.7v0.1l0.1,0.1
				c0.1,0.1,0.1,0.1,0.1,0.2l0.1,1.3v0.1l0.1,0.2v0.4v0.1c-0.1,0.1-0.2,0.3-0.3,0.3c-0.1,0-0.2-0.1-0.3-0.2l-0.2-0.1h-0.1
				c-0.1-0.1-0.2-0.1-0.3-0.1h-0.1l-0.2-0.1L50.5,205z"/>
			<path class="st5" d="M54.1,203.9l-0.1-0.3c0-0.1,0-0.2-0.1-0.3c0-0.5,0-0.5,0-0.5l-0.1-0.8v-0.2c0-0.1,0,0,0-0.1v-0.5
				c-0.2,0-0.3-0.1-0.5,0l-0.5,0.1c-0.1,0-0.2-0.1-0.2-0.1s0,0,0-0.1s0-0.1,0-0.2s0.1-0.2,0.2-0.2h0.1c0.1,0,0.1,0,0.4-0.1h0.2h0.4
				c0,0,0.1-0.4,0.1-0.5V200v-0.3c0-0.1,0.1-0.3,0.1-0.4v-0.1c0-0.1,0-0.2,0.1-0.4l0.1-0.4l0.1-0.2l0.1-0.2v-0.2
				c0-0.1,0.1-0.3,0.2-0.4h0.1h0.1H55l0.2,0.1l0.4,0.3l0.1,0.1l0.1,0.2l0.3,0.5l0.1,0.2l0.1,0.3c0,0.1,0.1,0.2,0.1,0.3l0.1,0.2v0.1
				l0.1,0.3l0.1,0.4c0,0,0.4-0.1,0.6-0.1c0.1,0,0.2,0,0.3,0h0.3c0.2,0,0.3,0,0.5,0.1l0.1,0.1l0.1,0.1v0.1v0.1l-0.3,0.1h-0.1H58h-0.2
				l-0.5,0.1c0,0-0.1,0-0.2,0s-0.2,0-0.2,0h-0.1v0.2c0,0.2,0,0.2,0,0.4c0,0.1,0,0.2,0,0.3c0,0.1-0.1,0.3-0.1,0.4v0.1v0.1l-0.1,0.2
				l-0.1,0.1l-0.1,0.3v0.1l0.1,0.4v0.2v1c0.1,0.1,0.1,0.2,0.2,0.3l0.1,0.1l0.2,0.1h0.2h0.1h0.1l0.2-0.1v-0.1
				c0.1-0.1,0.2-0.2,0.2-0.3c0-0.1,0.1-0.4,0.1-0.5v-0.2l-0.1-0.2h-0.1c-0.1,0-0.3,0-0.3-0.2l0,0c0-0.1,0-0.2,0.1-0.2l0.3-0.1
				l0.2,0.1l0.2,0.1c0.1,0,0.1,0.1,0.1,0.2c0.1,0.1,0.1,0.2,0.1,0.3c0,0.2,0,0.4,0,0.6c0,0.1,0,0.3-0.1,0.4l-0.1,0.2l-0.1,0.2
				c-0.1,0.1-0.2,0.3-0.3,0.3l-0.2,0.1c-0.1,0-0.2,0.2-0.3,0.2l-0.2,0.1l0,0h-0.4l-0.2,0.1h-0.1c-0.2,0-0.4,0-0.6-0.1h-0.1l-0.4-0.2
				l-0.1-0.1l-0.1-0.1c-0.1,0-0.2-0.1-0.3-0.2l-0.3-0.3l-0.1-0.1l-0.2-0.3c0,0,0-0.1-0.3-0.9L54.1,203.9"/>
			<path class="st5" d="M59.8,205.3l-0.1-0.2V205c0-0.1-0.1-0.1-0.1-0.2l-0.1-0.2v-0.2c0,0-0.1-0.3-0.1-0.4s0-0.2-0.1-0.3l-0.3-1
				c0-0.1,0-0.2-0.1-0.4v-0.4l0.1-0.5c0-0.2,0-0.3,0-0.5v-0.2v-0.2l0.1-0.6v-0.4v-0.2c0-0.2,0.1-0.4,0.1-0.6s0-0.4,0.2-0.6
				c0.1,0,0.1-0.1,0.2-0.1h0.2c0.1,0,0.2,0.2,0.3,0.3l0.1,0.1c0.1,0.1,0.2,0.3,0.2,0.3l0.1-0.1l0.1-0.1l0.3-0.2l0.2-0.1l0.2-0.1h0.1
				l0.2-0.1h0.1h0.2c0.1,0,0.2,0,0.3,0h0.3c0.1,0,0.2,0.1,0.2,0.1h0.1c0.1,0.1,0.2,0.1,0.3,0.2v0.1l0.1,0.2l-0.1,0.2
				c-0.1,0.1-0.2,0.2-0.4,0.2c-0.2,0-0.3,0-0.4-0.2l-0.1-0.1l-0.1-0.1h-0.2c-0.1,0-0.3,0.1-0.4,0.2l-0.2,0.2c0,0.1-0.1,0.1-0.1,0.2
				l-0.1,0.1l-0.2,0.2l-0.1,0.1l-0.1,0.2v0.1l0.1,0.4l0.1,0.3L61,201l0.1,0.4l0.1,0.7c0,0.3,0,0.5,0,0.8v0.1
				c-0.1,0.1-0.1,0.2-0.2,0.4v0.1c0,0.1,0,0.2-0.1,0.3c-0.1,0.2-0.2,0.3-0.3,0.4c0,0.1-0.1,0.1-0.3,0.3c0,0.1-0.1,0.2-0.1,0.3
				c-0.1,0.1,0,0.2-0.1,0.3l-0.1,0.1L59.8,205.3L59.8,205.3l-0.2-0.1L59.8,205.3z"/>
			<path class="st5" d="M67.1,205.1l-0.1,0.1l-0.2,0.1l-0.2,0.1c-0.3,0.1-0.5,0.2-0.7,0.1h-0.2c0,0,0,0-0.2,0c-0.1,0-0.2,0-0.3,0
				l-0.7-0.1h-0.1c-0.2,0-0.3-0.1-0.5-0.2c-0.1,0-0.3-0.2-0.4-0.2c-0.3-0.2-0.4-0.4-0.6-0.7v-0.1c-0.1-0.2-0.2-0.4-0.3-0.6v-0.1
				l-0.1-0.2c-0.1-0.2-0.1-0.5-0.1-0.7v-0.2c0-0.2,0.1-0.3,0.1-0.5c0,0,0.1-0.3,0.2-0.4l0.1-0.1c0.1-0.2,0.3-0.3,0.4-0.5l0.1-0.1
				c0.1-0.1,0.2-0.2,0.3-0.2c0.1-0.1,0.3-0.1,0.4-0.1l0.2-0.1h0.2h0.5h0.5h0.2c0.3,0,0.7,0.1,1,0.2l0.2,0.1c0.1,0,0.2,0.1,0.3,0.1
				v-0.1v-0.1v-0.2L67,200v-0.4l-0.1-0.2c-0.1-0.2-0.4-0.6-0.6-0.6h-0.2h-0.7h-0.1l-0.2,0.1l-0.3,0.2h-0.1h-0.2l-0.2,0.1l-0.1,0.1
				c-0.1,0.1-0.1,0.1-0.2,0.1l-0.1-0.1c-0.1-0.1-0.1-0.1-0.1-0.1V199v-0.1c0-0.1,0.1-0.2,0.2-0.3l0.1-0.1h0.1l0.3-0.3
				c0.2-0.1,0.3-0.1,0.5-0.2h0.1h0.2h0.1h0.2c0,0,0,0,0.2,0c0.1,0,0.1,0,0.2,0l0.6,0.2l0.3,0.1H67l0.1,0.1h0.1
				c0.3,0.1,0.5,0.2,0.7,0.4l0.3,0.4l0.1,0.2l0.1,0.2l0.1,0.1l0.1,0.2c0.4,0.5,0.4,0.6,0.4,0.6c0.1,0.1,0.2,0.3,0.2,0.5v0.1
				c0,0.1,0.1,0.2,0.1,0.4v0.1v0.2c0.1,0.2,0.1,0.4,0.1,0.6v0.1v0.1l0.1,0.2v0.2v0.2l0.1,0.6v0.1c0,0.1-0.1,0.2-0.2,0.4l-0.1,0.3
				l-0.2,0.3l-0.2,0.3l-0.1,0.3l-0.2,0.2l-0.1,0.2l-0.3,0.3l-0.2,0.2l-0.2,0.2v0.1l-0.1,0.2c0,0.1-0.2,0.2-0.2,0.3h-0.1h-0.1
				c-0.1-0.1-0.2-0.2-0.2-0.3v-0.1v-0.4v-0.2L67,206C67.4,205,67.2,205,67.1,205.1 M64.3,203.6l0.1,0.2v0.2c0,0.1,0.1,0.2,0.1,0.2
				l0.3,0.2l0.2,0.1h0.1h0.1l0.2,0.1h0.2h0.2H66h0.1l0.1-0.1c0.1,0,0.3-0.1,0.4-0.2l0.6-0.5c0-0.2,0,0,0-0.9v-0.3v-0.2v-0.2
				c0-0.1,0-0.5,0-0.6c-0.1-0.2-0.1-0.3-0.1-0.3v-0.1l-0.4-0.1h-0.1l-0.3-0.1h-0.1c-0.1,0-0.2,0-0.3,0h-0.1l-0.2,0.2l-0.3,0.1
				c-0.1,0-0.2,0.1-0.2,0.1c-0.1,0.1-0.2,0.2-0.4,0.2l-0.1,0.1c-0.1,0.1-0.2,0.2-0.2,0.3c0,0.1-0.1,0.2-0.1,0.3c0,0.1,0,0.2,0,0.3
				v0.4v0.2l-0.1,0.3L64.3,203.6"/>
		</g>
	</g>
	<g>
		<path class="st4" d="M132.2,28.8l0.6-1.5c0.1-0.4,0.4-0.9,0.6-1.2c0.3-0.3,0.5-0.7,0.7-1.1l0.7-1.2c0.1-0.1,0.2-0.3,0.3-0.4
			c0.1-0.3,0.4-0.9,0.4-0.9c0.1-0.1,0.3-0.5,0.3-0.6s0.1-0.4,0.2-0.4c0.2-0.2,0.3-0.5,0.5-0.8c0.2-0.3,0.4-0.5,0.7-0.8
			c0.1-0.2,0.2-0.3,0.4-0.4l1.2-1.3c0-0.1,0.5-0.4,0.5-0.4c0-0.1,0.4-0.3,0.4-0.4c0.1,0,0.4-0.2,0.5-0.3c0.3-0.3,1.8-1.7,2.2-2
			c0.5-0.4,1-0.7,1.6-1.2c0.4-0.3,0.8-0.6,1.3-0.9c0-0.1,0.7-0.5,0.7-0.5c0.4-0.5,1-0.9,1.6-1.3c0-0.1,0.5-0.3,0.6-0.3
			c0-0.1,0.4-0.3,0.5-0.4c0.3-0.1,0.7-0.1,1,0c0.2,0.2,0.2,1.2,0.3,1.5l0.2,0.1c0.3,0.1,0.5,0.2,0.8,0.4c0.3,0.1,0.6,0.2,0.8,0.4
			c0,0,0.3,0.2,0.4,0.2c0.3,0.3,0.6,0.5,0.9,0.8s0.6,0.6,0.9,0.9c0.6,0.8,1.1,1.6,1.5,2.6l0.3,0.6c0.3,0.8,0.7,1.6,0.8,2.5
			c0,0.5,0.1,1.1,0.1,1.6l-0.1,1.6v0.6c0,0.6-0.6,1-0.8,1.5c0,0-0.2,0.4-0.2,0.5s-0.3,0.3-0.3,0.4c-0.3,0.4-0.7,0.8-1.2,1
			c-0.6,0.3-1.2,0.5-1.9,0.8c-0.4,0.1-0.8,0.4-1.1,0.5c0,0.1-0.7,0-0.8-0.1c-0.6,0.1-1.2,0-1.8,0l-1.2-0.2c-0.3-0.1-0.6-0.2-0.9-0.3
			c-0.6-0.3-1.2-0.7-1.7-1.1c-0.1-0.1-0.3-0.4-0.3-0.4c-0.1,0-0.3-0.4-0.4-0.5l-0.5-0.9c-0.1,0-0.5-0.7-0.6-0.6
			c-0.4,0.4-0.6,0.9-1,1.2c-0.7,0.4-1.1,1-1.8,1.3c-0.2,0.2-0.4,0.2-0.7,0.5l-0.5,0.3c-0.1,0-0.3,0.2-0.4,0.3l-0.2,0.2
			c-0.3,0.3-0.7,0.7-1.2,0.9l-0.4,0.1l-0.7,0.5c0,0-0.5,0.2-0.6,0.3c-0.5,0.2-1,0.5-1.6,0.7c-0.1,0-0.5,0.1-0.6,0.2
			c-0.2,0-0.5,0.3-0.7,0.5c-0.2-0.1-0.4,0-0.6,0c-0.1,0-0.3-0.1-0.4-0.2s-0.1-0.3-0.1-0.4l0.6-1.8C132.1,29.3,132.2,29,132.2,28.8z
			 M144.8,23.3c0.2,0.2,0.4,0.6,0.6,0.8l0.3,0.2c0.2,0.1,0.3,0.3,0.6,0.4c0.1,0.1,0.6,0.1,0.8,0.1c0.2,0.1,0.4,0.2,0.6,0.2
			c0.2,0.1,1.4,0.2,1.5,0.1l0.4-0.1c0.4,0,0.7-0.3,1.1-0.5s0.7-0.4,1-0.6l0.6-0.7c0.4-0.4,0.6-0.7,0.9-1.2l0.2-0.7
			c0.1-0.3,0.2-0.4,0.2-0.6c0-0.1,0-0.2,0-0.3c0.2-0.2-0.1-0.7,0-0.8c0-0.6-0.2-1.2-0.4-1.8c-0.2-0.2-0.3-0.6-0.5-0.8
			c0-0.1-0.1-0.3-0.3-0.5l-0.2-0.2l-0.9-0.8c-0.1-0.1-0.4-0.2-0.4-0.2c-0.1,0-0.4-0.3-0.5-0.3s-0.3-0.2-0.4-0.1
			c-0.3,0.3-0.5,0.7-0.7,1c0,0.1-0.2,0.3-0.3,0.5l-0.4,0.8c0,0.1-0.3,0.4-0.4,0.6c0,0.1-0.6,0.9-0.8,1.1c-0.1,0.1-0.2,0.3-0.3,0.5
			c-0.3,0.5-0.7,1-1.1,1.6c0,0.1-0.4,0.5-0.4,0.6c-0.3,0.3-0.7,0.6-1,1C144.4,23,144.7,23.1,144.8,23.3z"/>
		<path class="st4" d="M143.6,46.4c-0.3-0.5-1.2-1.3-1.2-1.5l-0.5-1c0-0.2-0.5-1.1-0.7-1.4l-0.3-0.8l-0.7-1.3
			c-0.1-0.2-0.2-0.3-0.3-0.6c0-0.1,0.1-0.5,0.1-0.6c0.1-0.1,0.3-0.4,0.4-0.5c0.1-0.1,0.4-0.3,1.1-0.7c0.2-0.1,1.3-0.9,1.5-1
			c0.3-0.2,2.5-2,2.8-2.3c0.1,0,0.3-0.2,0.4-0.3l0.9-0.5c1.2-0.7,2.4-1.3,3.6-2l1-0.6c0.2-0.2,0.4-0.3,0.6-0.4
			c0.4-0.2,0.6-0.3,0.8-0.4c0.4-0.2,0.9-0.3,1.3-0.6c0,0,0.2,0,0.5-0.2l2.4-1c0.1-0.1,0.5-0.2,0.6-0.2c0.2-0.1,0.3-0.2,0.5-0.3
			c0.5-0.3,0.9-0.2,1.3-0.4l0.6-0.1l1-0.2h0.7c0.3,0,0.4,0.1,0.8,0c0.2,0,0.4,0.2,0.6,0.3c0.1,0.1,0.2,0.2,0.2,0.3l0.9,1.3l0.2,0.4
			l0.7,1.9c0,0.1,0.2,0.4,0.3,0.6c0.4,0.5,0.6,1.1,1,1.6c0,0,0.2,0.4,0.2,0.5c0.2,0.2,0.1,0.5,0.2,0.8c0.1,0.1,0.2,0.6,0.3,0.7
			c0.4,0.8,0.8,2,1.3,2.8c0.1,0.2,0.4,0.5,0.6,0.8c0,0.1,0.1,0.3,0.1,0.4v0.9c0,0.1-0.1,0.4-0.1,0.4l-0.1,0.1c-0.1,0-0.3,0.1-0.9,0
			c-0.4-0.1-0.7-0.5-0.9-0.9c0,0-0.2-0.3-0.3-0.3c-0.4-0.4-0.5-0.8-1-1.1c-0.3-0.6-0.6-1.1-1.2-1.7c-0.4-0.5-1-1.5-1.1-1.6l-0.6-1.4
			l-0.6-0.2l-0.5,0.4c-0.1,0.1-0.1,0.2-0.4,0.3c0,0.1-0.5,0.5-0.5,0.6c-0.1,0.1-0.2,0.2-0.3,0.2c0,0-0.2,0.1-0.3,0.1l-1.9,1.1
			c-0.1,0.1-0.4,0.1-0.4,0.1c-0.2,0.1-0.2,0.2-1.2,0.9c-0.1,0.1-0.6,0.3-0.7,0.3c0.1,0.4,0.3,0.8,0.4,1.2c0.2,0.3,0.3,0.9,0.4,1.4
			l0.3,1c0.1,0.2,0.2,0.4,0.3,0.6s0.3,0.4,0.5,0.5c0.1,0.1,0.3,0.4,0.3,0.5l0.5,0.9c0.1,0.1,0.2,0.4,0.3,0.5c0.1,0.2,0,0.6,0,0.9
			c-0.2,0.1,0,0.3-0.4,0.6c-0.1,0-0.1,0-0.2,0.1c-0.3,0-1-0.4-1.1-0.5l-0.3-0.6c0,0-0.2-0.1-0.2-0.2c0,0-0.3-0.5-0.4-0.5
			c-0.1-0.1-0.7-0.8-0.8-0.9l-0.4-0.4c-0.1-0.2-0.3-0.5-0.5-0.7l-1.1-2c0,0-0.1-0.2-0.2-0.2c-0.1-0.1-0.4-0.6-0.7-0.4
			c-0.6,0.4-2.2,1.4-2.3,1.5c-0.1,0-0.5,0.4-0.5,0.4c-0.7,0.4-0.9,0.5-0.9,0.5c-0.2,0-0.4,0.1-0.6,0c-0.3,0.2-1.7,0.8-2,1l-0.4,0.2
			c-0.1,0.1-0.3,0.1-0.5,0.2c0.2,0.5,0.1,1,0.3,1.5l0.9,2.2c0.1,0.2,0.2,0.4,0.2,0.5c0.1,0.2,0,0.3,0.2,0.4c0.3,0.4,0.4,1,0.7,1.2
			c0,0.1,0.3,0.4,0.4,0.5c0.1,0.2,0.3,0.5,0.6,0.7l0.3,0.8c0.1,0.1,0.2,0.2,0.3,0.4c0.2,0.5-0.1,0.5-0.5,0.7
			c-0.4,0.1-0.5,0.1-0.9,0.1c0,0-0.2,0-0.4,0c-0.6-0.3-0.7-0.4-0.7-0.4c-0.2-0.1-0.5-0.6-0.6-0.8l-0.2-0.4c-0.1-0.1-0.2-0.3-0.3-0.6
			l-0.5-1.1c-0.1-0.2-0.4-0.4-0.6-0.6c-0.1-0.1-0.5-0.7-0.6-0.9c-0.1-0.1-0.2-0.6-0.3-0.7L143.6,46.4z"/>
		<path class="st4" d="M156.1,64.6c0,0,0.1-0.2,0-0.2c0-0.1,0.1-0.9,0.1-1c0.1-0.3,0.3-0.6,0.4-0.9c0,0,0.1-0.3,0.1-0.4
			s0.1-0.6,0.1-0.6s0-0.1,0.1-0.1c0.1-0.3,0.3-0.6,0.4-0.9l0.2-0.8c0.1-0.2,0.2-0.3,0.3-0.5l0.3-0.4c0.5-0.6,0.9-1.9,1.3-2.6l-3,0.7
			c0,0-0.2,0-0.3,0s-0.1,0-0.3,0h-0.6c-0.1,0-0.3-0.1-0.5,0h-0.1h-0.3l-0.9,0.2c-0.2,0.1-0.5,0.1-0.5,0.1c-0.3,0.1-0.7,0.3-1.1,0.3
			c-0.2,0-0.4,0-0.7,0c0,0-0.4,0.1-0.4,0.2c-0.2,0.1-0.6,0-0.8,0c-0.1,0-0.6,0.1-0.6,0.1c-0.2-0.1-0.3-0.1-0.5-0.3L149,57
			c0.1-0.2,0.3-0.3,0.3-0.4l0.9-0.9l0.2-0.1c0.3-0.1,0.4-0.3,0.5-0.6c0.1,0,0.3-0.3,0.3-0.3c0.1-0.1,0.3-0.3,0.5-0.5
			c0,0,0-0.1,0.1-0.1s0.3-0.2,0.4-0.3l0.2-0.2c0,0,0.1-0.2,0.4-0.3c0.3-0.2,0.4-0.4,0.7-0.6c0.4-0.5,0.9-0.9,1.4-1.3
			c0.1-0.1,1.2-0.7,1.4-0.8c0,0,0.3-0.3,0.4-0.3c0.1,0,0.9-0.5,1-0.5l1.7-1.2c0,0,0.4-0.2,0.6-0.3l0.8-0.4c0.1-0.1,0.4-0.1,0.5-0.2
			l0.3-0.2c0,0,0.3-0.1,0.3-0.2l0.3-0.2c0.1,0,0.9-0.3,1-0.3l0.5-0.2c0.1,0,0.6-0.2,0.6-0.3c0,0,0.3,0,0.4,0c0,0,0.1-0.1,0.2-0.1
			c0.2-0.1,0.5-0.1,0.7-0.2h0.2c0.2-0.1,0.4,0,0.5-0.1l0.5-0.2l0.2-0.1c0.2,0.1,0.4,0,0.6,0c0.7-0.2,1.4-0.2,2.1-0.2
			c0.2,0,0.4-0.1,0.7-0.1c0,0,0.3,0.1,0.4,0.1c0.2-0.1,0.6-0.2,0.6-0.2h0.2c0.1,0,0.4,0.1,0.4,0.2c0.1,0.3,0.1,0.5,0.3,0.9
			c0.1,0,0.4,0.4,0.4,0.5c0.1,0.1,0.3,0.4,0.4,0.4l0.2,0.4c0,0,0.3,0.4,0.4,0.4c0.2,0.4,0.5,0.7,0.8,1.2c0.1,0.2,0.2,0.2,0.2,0.3
			c0.1,0.2,0.2,0.3,0.4,0.8c0,0.1,0.2,0.3,0.2,0.3c0.1,0.2,0.2,0.4,0.5,1c0.1,0.2,0.2,0.4,0.2,0.9c0.2,0.5,0.3,1.1,0.2,1.7v0.1
			c-0.1,0.1,0,0.3-0.1,0.4c0,0.3-0.2,0.5-0.2,0.8v0.6c0,0.2-0.2,0.5-0.1,0.7l-0.2,0.9c-0.1,0.1-0.1,0.3-0.1,0.5l-0.2,0.4
			c0,0-0.4,0.4-0.4,0.5c-0.2,0.2-0.2,0.4-0.4,0.5l-0.3,0.2c0,0.1-0.4,0.4-0.5,0.4l-0.2,0.1c0,0-0.2,0.2-0.3,0.2c0,0-0.2,0.1-0.3,0.2
			l-0.3,0.2l-1.1,0.4l-1,0.2c-0.5,0.1-0.8-0.1-1.3-0.1c-0.1,0-0.8-0.1-0.8-0.1c-0.3,0-0.6-0.1-1-0.2l-0.4-0.3
			c-0.3-0.1-0.5-0.1-0.8-0.2c-0.2,0-0.3-0.2-0.5-0.3c-0.3-0.2-0.6-0.3-0.9-0.5l-0.3-0.3c-0.2-0.1-0.2-0.2-0.3-0.3
			c0,0-0.5-0.5-0.5-0.6s-0.3-0.3-0.4-0.2l-0.2,2c-0.2,0.2-0.7,1.1-0.8,1.4c-0.1,0.2-0.7,1.5-0.8,1.6l-0.6,1
			c-0.1,0.1-0.3,0.4-0.3,0.4l-0.1,0.2c-0.2,0.2-0.4,0.4-0.5,0.6c-0.1,0-0.3,0.3-0.4,0.4l-1.3,1.2c-0.1,0-0.3,0.3-0.3,0.3l-0.4,0.5
			l-0.5,0.8l-0.1,0.1l-0.6,0.7l-0.1,0.1c0,0-0.4,0.5-0.4,0.6c-0.1,0.1-0.2,0.1-0.3,0.2c-0.3,0.1-0.4,0.2-0.6,0.2
			c-0.1,0-0.2-0.2-0.3-0.3c0-0.1-0.1-0.3-0.1-0.4c0-0.3,0.1-0.4,0.2-0.6c0.1-0.2,0.1-0.3,0.1-0.5c0.1-0.8,0.5-1.4,0.8-2.2
			L156.1,64.6z M164.2,54.4c0,0,0.1,0.5,0.3,0.9l0.1,0.3c0.1,0,0.4,0.6,0.5,0.7l0.1,0.1c0.2,0.1,0.7,0.6,0.8,0.6l0.9,0.5
			c0.3,0.1,0.7,0.2,1,0.2h1c0.2,0,0.4-0.1,0.6-0.1c0.1,0,0.5-0.1,0.6-0.2c0.2-0.1,0.8-0.4,1-0.5c0.2-0.2,0.5-0.3,0.7-0.5l0.7-0.8
			c0,0,0.3-0.6,0.4-0.9c0.1-0.2,0.4-1,0.5-1.2l-0.1-0.8c0-0.1,0-0.7,0-0.7c0-0.1-0.2-0.6-0.2-0.7L173,51c-0.6-0.6-1.3-1.4-1.3-1.4
			c-0.3,0.1-0.6,0.3-0.9,0.6c0,0.1-0.5,0.4-0.6,0.5c0,0-0.2,0.1-0.3,0.1l-0.1,0.1l-0.4,0.2c-0.3,0.2-0.6,0.4-0.9,0.5
			c-0.2,0.1-0.4,0.1-0.5,0.2c-0.3,0.2-0.6,0.4-0.9,0.6l-0.8,0.4c-0.2,0.1-0.8,0.4-0.8,0.4c-0.1,0-0.4,0.2-0.4,0.2s-0.1,0.1-0.2,0.1
			c0,0-0.1,0.1-0.8,0.4L164.2,54.4z"/>
		<path class="st4" d="M158.8,70.4c0.2-0.2,0.5-0.3,0.8-0.4l1.3-1l0.2-0.1l2.5-1.6c0.1,0,0.4-0.3,0.5-0.3c0.1-0.1,0.8-0.3,1-0.4
			l0.4-0.1c0.2,0,0.4-0.1,0.5-0.2l1.6-0.4c0,0,0.2,0,0.3-0.1c0.7-0.1,1.3,0.1,1.9,0.1l0.4,0.1c0.2-0.1,0.5,0,0.6,0.1
			c0.1,0,0.3,0.1,0.3,0.1l0.4,0.1c0.1,0,0.3,0.1,0.4,0.2l0.3,0.1h0.2l0.2,0.1v0.2c0,0.1-0.1,0.1-0.2,0.2c0,0.1-0.1,0.2-0.1,0.2
			c-0.1,0-0.1,0.2-0.1,0.3l-0.4,0.7c-0.4,0.3-0.6,0.7-1,1l-0.1,0.2c-0.3,0.3-0.8,0.4-1.1,0.6l-0.5,0.3c-0.1,0.1-0.6,0.3-0.6,0.3
			c-0.2,0.1-0.4,0.1-0.7,0.2c-0.1,0-0.5,0-0.6,0c-0.2,0.1-1.4,0.4-1.8,0.4l-0.7,0.2c-0.1,0-1,0.1-1.4,0.2c-0.3,0-0.5,0-0.8,0
			c-0.1,0-0.3,0-0.4-0.1c-0.1,0-0.7-0.1-0.8-0.2c-0.1,0-0.6,0-0.6,0h-0.1c0,0-0.1,0-0.2,0.1c-0.1,0-0.3,0-0.3,0
			c-0.3-0.1-0.7-0.1-1-0.1c-0.1,0-0.5,0.1-0.6,0.1c-0.2,0-0.7,0.1-0.7,0c-0.1,0-0.2-0.1-0.3-0.1c0-0.1-0.1-0.2-0.1-0.2
			s-0.1-0.2,0.1-0.3s0.3-0.2,0.5-0.2c0.1,0,0.3-0.2,0.4-0.2C158.6,70.6,158.7,70.4,158.8,70.4z M174.6,65.1c0-0.1,0.4-0.6,0.4-0.7
			c0,0,0.2-0.2,0.3-0.2l0.2-0.1c0.1,0,0.2-0.1,0.4-0.1c0,0,0.3-0.1,0.4-0.1l0.3-0.1c0.1,0,0.2,0,0.2,0h0.2c0,0,0.2,0,0.3,0
			c0,0,0.3,0.1,0.4,0.1c0.2,0,0.3,0.3,0.3,0.3c0,0.1,0,0.3,0,0.4c0,0.2,0.2,0.3,0.2,0.5c0.1,0.2,0,0.5,0,0.7s0,0.4-0.1,0.5
			c0,0,0,0.1-0.1,0.2l-0.1,0.3c-0.1,0.2-0.2,0.2-0.3,0.4l-0.1,0.1c-0.1,0.1-0.2,0.2-0.4,0.2c-0.3,0.1-0.6,0.1-1,0.1
			c-0.1,0-0.3,0.1-0.5,0c-0.1,0-0.2,0-0.3-0.1c-0.1,0-0.5-0.1-0.5-0.1c-0.1-0.1-0.3-0.2-0.3-0.2l-0.1-0.2c-0.1-0.1-0.1-0.2-0.2-0.3
			c0-0.2,0-0.2,0-0.4c0,0,0-0.2,0-0.3v-0.4c0,0,0-0.1,0-0.2L174.6,65.1z"/>
		<path class="st4" d="M165.1,73.8c0,0,0.3,0,0.4,0s0.2,0.1,0.3,0.2c0,0,0.2,0.1,0.2,0.2c0.2,0.1,0.4,0.4,0.5,0.6
			c0,0.1,0.1,0.4,0.1,0.5c0,0,0,0.1,0,0.2c0,0.1,0.1,0.2,0.1,0.2l0.1,0.2c0,0.1,0,0.1,0,0.1s0,0.1,0.1,0.2c0,0,0.4,1.5,0.4,2.2
			c0,0,0.1,0.4,0.2,0.6c0,0-0.1,0.1-0.1,0.3v0.3c0,0.1,0,0.1,0,0.2c0,0.1,0,0.2,0,0.2c0,0.2,0.1,0.8,0.1,0.8c0,0.1,0,0.2,0,0.3
			s0,0.3,0,0.4l0.1,0.4c0,0.1,0,0.3,0,0.3s0,0.2-0.1,0.3c0,0.1,0,0.2,0,0.2c-0.1,0.3,0.1,0.2-0.1,0.4l-0.3,0.4v0.1
			c-0.2,0.2-0.2,0.4-0.4,0.4h-0.3c-0.1,0-0.2-0.1-0.2-0.1l-0.2-0.3l-0.3-0.3c-0.1-0.1-0.2-0.2-0.2-0.3s-0.1-0.1-0.1-0.1l-0.1-0.2
			c-0.1-0.1-0.2-0.4-0.2-0.4c0-0.1-0.3-0.6-0.3-0.8c0,0,0-0.1,0-0.2c0-0.3,0.1-0.5,0-0.7c0-0.1,0-0.3,0-0.3c0-0.1-0.1-0.2-0.2-0.4
			c-0.1-0.4,0-0.8,0-1.1c0-0.1,0-0.3,0-0.3c0-0.1-0.1-0.5-0.1-0.5s0-0.1,0-0.2c0-0.1,0-0.5,0-0.5c0-0.1,0-0.1,0-0.2
			c0-0.3,0-0.5,0-0.8c0-0.2,0-0.4,0.1-0.6v-0.2v-0.1l0.1-0.2c0,0,0.1-0.1,0.1-0.2c0-0.1,0-0.2,0-0.3
			C164.8,74.6,164.7,73.9,165.1,73.8z"/>
		<path class="st4" d="M155.2,98.7c0-0.1-0.1-0.5-0.1-0.6s0-0.6,0-0.6v-0.3c-0.1-0.3-0.1-0.6,0-1c0-0.1,0.1-0.3,0-0.4l0.1-0.8
			c0.1-0.3,0.2-0.7,0.4-1l0.3-0.8c0-0.2,0.2-0.6,0.3-0.9c0-0.1,0.1-0.4,0.2-0.6l0.4-0.8l1-1.1l0.6-0.6c0.8-0.7,1.6-1.3,2.5-1.7
			l1.8-0.6c0,0,0.3-0.1,0.4-0.1c0.2-0.1,0.5-0.1,0.8-0.1c0.4,0,0.8,0,1.2,0c0.2-0.1,0.7-0.1,0.7-0.1c0.1,0,0.3,0,0.4,0l0.4,0.2
			l0.5,0.1c0.4,0.1,0.9,0.4,1.3,0.4l1,0.4c0,0,0.4,0.3,0.5,0.2l1.2,0.5l0.9,0.5c0,0,0.7,0.5,1,0.7c0.2,0.2,0.6,0.3,0.8,0.5
			c0.2,0.1,0.4,0.7,0.5,0.9l0.5,1.5c0,0.1,0.2,0.3,0.2,0.4l0.4,0.5c0,0.1,0.1,0.1,0.1,0.3c0.1,0.3,0.1,0.5,0.1,0.8
			c0.1,0.3,0.2,0.8,0.2,1.1s-0.1,0.6-0.1,0.9v0.3l0.1,0.3c0,0.1,0,0.2,0.1,0.5c0,0.1,0.1,0.3,0.2,0.6c0,0.2,0,1.5,0,1.5
			c-0.1,0.9-0.2,1.7-0.5,2.6c-0.3,0.6-1,1.4-1.2,1.8l-0.2,0.1l-0.4,0.5l-0.2,0.2l-1,0.9c-0.3,0.2-0.6,0.3-0.9,0.5l-0.6,0.4
			c0,0,0,0.1-0.7,0.3l-0.6,0.2c-0.2,0-0.3,0-0.5,0.1l-3.4,0.6c-0.1,0-0.3,0-0.3,0l-0.9-0.1c-0.4,0-2.2,0-2.6,0
			c-0.2-0.1-0.5-0.1-0.8-0.1l-1-0.3c-0.2-0.1-1.2-0.5-1.3-0.6s-0.8-0.6-0.9-0.7c0,0-0.1,0-0.2-0.1l-0.2-0.2
			c-0.2-0.2-0.5-0.3-0.6-0.6c-0.1-0.1-0.2-0.4-0.2-0.5s-0.1-0.2-0.2-0.5c-0.1-0.1-0.2-0.5-0.2-0.5l-0.8-1.3
			c-0.1-0.3-0.2-0.6-0.3-0.9l-0.1-0.4c-0.1-0.4-0.2-0.7-0.2-1C155.3,99.6,155.1,99.1,155.2,98.7z M160.2,96.6c0,0.1-0.3,0.5-0.3,0.6
			c-0.2,0.2-0.4,0.6-0.5,0.9c0,0.1-0.1,0.5-0.1,0.6l0.1,0.3c0,0.2,0.2,0.6,0.2,0.6l-0.1,0.8c0,0,0,0.5,0.1,0.6c0,0,0.1,0.3,0.2,0.5
			l0.1,0.5c0.1,0.1,0.3,0.6,0.4,0.7c0.1,0.2,0.7,1.1,0.8,1.3c0.3,0.3,0.6,0.7,1,0.8c0.3,0,1.4,0.4,1.6,0.5c0.1,0.1,0.7,0.2,0.8,0.3
			c0.1,0,0.3,0,0.3,0c0.2,0,1.3,0,1.6,0l0.9-0.1c0.3-0.1,0.6-0.1,0.9-0.2l1.5-0.5c0.1,0,0.5-0.2,0.5-0.2s0.3-0.2,0.4-0.3
			c0.2-0.1,0.7-0.4,0.7-0.5l1.4-1.4c0.2-0.2,0.4-0.4,0.5-0.7c0.1-0.1,0-0.3,0.2-0.4l0.1-0.4c-0.1-0.1,0-0.3,0.1-0.4l0.2-0.6
			c0-0.1,0.2-0.5,0.2-0.6c0,0,0-0.5-0.1-0.6c0-0.1-0.1-0.7-0.2-0.8c-0.1-0.4,0.1-0.9-0.1-1.4c0-0.1-0.1-0.2-0.1-0.2l-0.5-0.5
			c-0.2-0.2-0.5-0.5-0.9-0.7l-0.7-0.1l-0.8-0.4l-0.3-0.1c-0.7-0.2-1.5-0.3-2.1-0.4l-1.6,0.1h-0.2H166c0,0-0.2,0-0.3,0
			c-0.7,0-1.4,0.1-2.1,0.4c-0.5,0.2-0.8,0.3-1.2,0.5c-0.2,0-1.1,0.6-1.4,0.7c-0.3,0.1-0.5,0.4-0.5,0.7
			C160.4,96.4,160.3,96.6,160.2,96.6z"/>
		<path class="st4" d="M154.7,117.4c0.1,0,0.5,0,0.6,0s0.1,0,0.4,0c0.2,0,0.3,0,0.5,0c0.2,0,0.3,0,0.5,0.1l0.6,0.1
			c0.6,0.1,1.1,0.2,1.6,0.4c0,0,0.2,0.1,0.3,0.1c0,0,0,0,0.4,0.1c0.1,0,0.7,0.2,0.8,0.2l0.9,0.2c0.4,0.1,0.7,0,1.1,0.1
			c0.1,0,0.5,0.1,0.6,0.1s0.1,0,0.6,0.1h0.2c0,0,0.3,0,0.4,0c0.2,0,0.4,0,0.6,0.1c0.2,0,0.5,0,0.8,0c0.1,0,0.6,0,0.7,0
			c0.1,0,0.6-0.2,0.7-0.2c0.4-0.3,0.5-0.3,0.5-0.3c0.2-0.1,0.3-0.2,0.4-0.4c0-0.1,0.1-0.4,0-0.6l-0.4-0.7c-0.1-0.1,0-0.3-0.3-0.5
			l-0.6-0.8c-0.1,0-0.4-0.4-0.5-0.5s-0.2-0.2-0.3-0.3l-0.7-0.5c-0.2-0.2-0.5-0.2-0.7-0.3c-0.1,0-0.3,0-0.5,0l-0.4-0.1
			c-0.1,0-1.1-0.1-1.2-0.2c-2.3-0.5-2.8-0.7-3.3-1c-0.6-0.4-1.2-0.8-1.8-1.2l-0.1-0.1c-0.1-0.1-0.3-0.2-0.5-0.3
			c-0.1,0-0.3-0.1-0.4-0.1c-0.2-0.1-0.5-0.3-0.5-0.5c0-0.1,0-0.2,0-0.2c0-0.1,0.1-0.1,0.1-0.3l0.9-0.2c0.1,0,0.3-0.1,0.4,0l1.6,0.2
			c0.1,0,0.6,0,0.7,0h0.3c0.1,0,0.4,0,0.4,0c0.1,0,0.9-0.1,1-0.1s0.6,0,0.7,0.1c0.1,0,0.9,0.2,1,0.1l0.4,0.1c0.1,0,1.1,0.2,1.3,0.2
			c0.4,0,0.6,0.1,1,0.2c0.8,0.2,1.6,0.4,2.4,0.7l1.3,0.5c0.2,0.1,0.4,0.1,0.6,0.2c0.2,0.1,0.5,0.2,0.6,0.4c0,0.1,0.1,0.2,0.1,0.4
			s-0.1,0.4-0.3,0.5c0,0.1-0.4,0.2-0.4,0.2l-0.6,0.3c-0.1,0.1-0.6,0.3-0.8,0.3l-0.9,0.3c-0.1,0-0.3,0.1-0.4,0.1
			c0.4,0.3,0.7,0.8,0.8,1c0.1,0.1,0.3,0.3,0.4,0.5c0.3,0.5,0.5,0.9,0.7,1.4c0,0.1,0.1,0.2,0.1,0.3l0.2,0.6c0,0.1,0,0.2,0,0.4
			s-0.2,0.4-0.3,0.7c-0.1,0.1-0.2,0.5-0.2,0.6l-0.1,0.1l-0.9,1.3c-0.1,0.1-0.2,0.4-0.5,0.5l-0.1,0.1c-0.1,0-0.3,0.3-0.3,0.4
			c-0.2,0.1-0.5,0.3-0.7,0.5c-0.1,0.1-0.5,0.4-0.6,0.4c0,0.1,0,0.1,0,0.2c0.2,0.2,0.4,0.5,0.7,0.8l0.2,0.4c0,0.1,0.2,0.3,0.2,0.4
			l0.3,0.4c0.3,0.6,0.8,1.1,1.2,1.6c0,0.1,0.1,0.3,0.1,0.4c0,0.1,0,0.3,0,0.5c0,0.1-0.1,0.4-0.2,0.5l-0.3,0.5
			c-0.1,0.1-0.1,0.3-0.2,0.4c-0.1,0.2-0.3,0.5-0.4,0.7l-0.7,0.7c-0.2,0.2-0.4,0.6-0.7,0.8c-0.2,0.2-1.3,0.9-1.5,1l-0.5,0.3l-0.5,0.2
			c-0.2,0.1-0.3,0.2-0.5,0.3l-0.7,0.2l-1.6,0.4c0,0-0.3,0.1-0.4,0.1c-0.4,0-0.8,0.1-1.2,0c-0.2-0.1-0.5-0.2-0.7-0.2
			c-0.2,0-0.5,0-0.7-0.1c-0.1,0-0.1,0-0.1,0s-0.5-0.3-0.7-0.3c-0.1,0-0.2-0.1-0.3-0.1c0,0-0.2-0.1-0.3-0.1c-0.2-0.1-0.5-0.4-0.7-0.5
			c-0.1-0.1-0.2-0.2-0.3-0.4c0,0-0.3-0.4-0.4-0.4c-0.5-0.6-0.7-1.3-0.9-2c0-0.2-0.1-0.5-0.2-0.7l-1.3-2c0-0.2-0.3-0.3-0.2-0.6v-0.1
			c0.2,0,0.3,0,0.6,0.1l0.4,0.1c0.2,0,0.4,0.1,0.7,0.1c0.2,0,0.4,0.1,0.5,0.2c0,0,0.2,0.1,0.3,0.1l2.5,0.6l0.6,0.2
			c0.3,0.2,0.6,0.2,0.9,0.3l0.6,0.1c0.2,0,0.4,0.1,0.7,0.2c0.3,0,0.6,0.1,0.8,0.1c1.7,0.2,1.7,0.2,1.7,0.2c0.2,0.1,0.9,0.1,0.9,0.1
			c0.1,0,0.4,0,0.4,0c0.2-0.1,0.5-0.1,0.6-0.1c0.2-0.1,0.3-0.2,0.6-0.3c0.2-0.2,0.5-0.3,0.5-0.6c0.1-0.2-0.1-0.5-0.2-0.8
			c-0.3-0.4-0.4-1.1-0.8-1.7l-0.6-0.7c-0.1-0.1-0.1-0.1-0.3-0.2h-0.3c-0.3,0-0.5,0-0.9,0.1h-0.2l-0.4-0.1c-0.3,0-0.6,0.1-0.9,0.1
			h-0.2c-0.1,0-0.6-0.1-0.7-0.1s-0.3-0.1-0.4-0.2c-0.2-0.1-0.4-0.2-0.5-0.4l-0.7-0.4l-0.1-0.1c-0.4-0.4-0.6-0.7-0.9-1.2
			c-0.1,0-0.5-0.4-0.5-0.5c0,0-0.1,0-0.1-0.1l-0.4-0.3l-0.8-0.8c0,0-0.3-0.4-0.4-0.5l-0.1-0.1l-0.5-0.4l-0.4-0.4
			c-0.1,0-0.5-0.3-0.6-0.4c-0.1-0.2-0.4-0.4-0.4-0.7c0-0.2,0.2-0.3,0.4-0.3c0.1,0,0.3-0.1,0.4-0.1
			C154.4,117.5,154.6,117.4,154.7,117.4z"/>
		<path class="st4" d="M155.4,134.9c0.8,0.4,0.8,0.5,0.8,0.5c0.1,0,0.2,0.1,0.2,0.2c0.1,0.1,0.3,0.2,0.4,0.3l0.7,0.6
			c0.2,0.2,0.4,0.3,0.6,0.5l0.4,0.5c0.1,0,0.3,0.3,0.4,0.5c0.1,0.1,0.4,0.7,0.5,0.9l0.2,0.3c0.1,0.2,0.5,0.9,0.6,1
			c0.1,0.2,0.3,0.4,0.5,0.7l0.2,0.4c0,0.2,0,0.3,0,0.4c0.2,0.7,0.3,1.4,0.2,2.2c0,0.1-0.1,0.4,0,0.4c-0.1,0.4-0.2,0.7-0.2,1.1
			l-0.3,1.1c0,0.1,0,0.2-0.1,0.4c-0.1,0.4-0.3,0.7-0.5,1l-0.5,0.9c-0.1,0.3-0.4,0.6-0.7,0.9c-0.1,0.2-0.3,0.5-0.5,0.7l-0.6,0.5
			c-0.2,0-0.2,0.2-0.4,0.3c-0.4,0.2-0.7,0.5-1.1,0.6l-1.1,0.3c-0.2,0-0.7,0.1-0.9,0.1c-0.1,0-0.5-0.1-0.7-0.1
			c-0.2-0.1-0.7-0.3-0.7-0.3c-0.1,0-0.5-0.2-0.7-0.3c-0.3-0.2-0.7-0.4-1-0.7l-0.1-0.1c0,0-0.2-0.2-0.3-0.2l-0.1-0.2l-0.1-0.4
			c-0.1,0-0.2-0.4-0.3-0.5s0-0.3,0-0.5c0-0.1,0.1-0.3,0.1-0.4l-0.1-0.4c0-0.1,0-0.2,0-0.3c0-0.2-0.1-0.4-0.1-0.5s0.1-0.7,0.1-0.8
			v-0.2c0-0.3,0-0.5,0.1-0.8c0-0.1,0-0.5,0-0.6c0.1-0.2,0.1-0.4,0.2-0.8c0.1-0.3,0.2-0.6,0.4-0.9c0.2-0.6,0.5-1,0.9-1.6
			c0,0-0.1-0.1-0.2-0.1s-0.2-0.1-0.4-0.2c-0.1,0-0.1,0-0.2,0c-0.2,0-0.4-0.1-0.6-0.2l-1.4-0.2c-0.4-0.1-0.8,0-1.2,0.1l-0.1,0.1
			c-0.2,0.1-0.5-0.1-1.2,0.5c-0.1,0-0.9,0.8-1.1,1.2c-0.2,0.3-0.5,0.7-0.6,1c0,0.2-0.2,0.4-0.2,0.6c0,0.1,0,0.2,0,0.2
			s-0.1,0.4,0,0.5c0,0.1,0,0.2,0,0.3l0.2,0.5c0.2,0.4,0.4,0.8,0.6,1.2c0.1,0.1,0.2,0.1,0.3,0.3c0.1,0.1,0.2,0.2,0.2,0.3
			s0.2,0.1,0.2,0.1c0.2,0.1,0.5,0,0.5,0c0.2,0.1,0.2-0.1,0.4-0.3c0.2-0.2,0.4-0.2,0.7-0.1c0.1,0,0.3,0.1,0.3,0.2
			c0.1,0.3,0.3,0.6,0.2,0.9c0,0.1-0.1,0.4-0.1,0.5v0.2v0.2l-0.3,0.5c-0.2,0.3-0.6,0.6-1,0.6l-0.2,0.1c-0.1,0-0.2,0.1-0.4,0l-0.3-0.1
			c-0.5-0.1-0.7-0.4-1.1-0.8l-0.3-0.2c0-0.1-0.3-0.2-0.3-0.3c-0.4-0.5-0.6-1-0.8-1.5c0-0.1-0.1-0.2-0.1-0.4l-0.1-0.4v-0.2l-0.1-1.4
			c0-0.4,0.1-0.8,0.1-1.2c0.1-1.1,0.2-1.4,0.2-1.5s0,0,0.1-0.3c0.1-0.2,0.2-0.6,0.3-0.7l0.4-0.9c0-0.1,0.5-1.2,0.5-1.4
			c0,0,0.2-0.4,0.3-0.5c0.4-0.7,0.8-1.3,1.4-1.8c0.2-0.2,0.5-0.5,0.8-0.6l1.9-1c0.1,0,0.3-0.1,0.4-0.1c0.3-0.2,0.7-0.3,1.1-0.4
			c0.3-0.1,0.7-0.2,1-0.2c0.1,0,0.3,0,0.5,0c0.1,0,0.3,0,0.3,0l2.1,0.3L155.4,134.9z M153.4,142.3c0,0-0.3,0.4-0.3,0.5
			c-0.1,0.1-0.2,0.2-0.3,0.3c-0.1,0.2-0.2,0.5-0.3,0.8s-0.2,0.6-0.3,1.1c0,0.3-0.1,0.6-0.1,0.8l-0.1,1c-0.1,0.2,0.1,0.4,0,0.6
			c0,0.2,0,0.3,0,0.5l0.2,1.8c0,0.1,0.2,0.2,0.3,0.2s0.3,0.2,0.3,0.2h0.2c0.4,0,0.8,0.1,1.1,0c0,0,0.2,0,0.2-0.1
			c0.5-0.1,0.9-0.1,1.4-0.3c0.3-0.2,0.6-0.3,0.8-0.6c0-0.1,0.2-0.2,0.3-0.4c0.1-0.5,0.2-0.9,0.3-1.3c0-0.1,0-0.2,0-0.3v-0.7
			c0-0.1,0-0.3-0.1-0.4l-0.3-0.6c-0.5-0.8-1-1.4-1.7-2l-0.8-0.7c-0.2-0.2-0.3-0.5-0.7-0.6C153.5,142.2,153.4,142.2,153.4,142.3z"/>
		<path class="st4" d="M145.1,151.7l0.4,0.3c0.1,0.1,0.3,0.2,0.5,0.3c0.7,0.6,0.8,0.6,0.8,0.6l1.2,0.9l0.3,0.3
			c0.1,0.1,0,0.1,0.1,0.2l0.7,0.6c0.3-0.2,0.5-0.4,0.7-0.7l0.5-0.7c0.1-0.1,0.3-0.2,0.5-0.2c0,0,0.1,0,0.2,0.1s0.1,0.1,0.2,0.3
			c0.1,0.1,0.2,0.3,0.1,0.5l-0.1,0.1c-0.2,0.2-0.1,0.2-0.5,0.7l-0.2,0.3l-0.5,0.6c0,0,0.5,0.6,0.6,0.8c0,0,0.1,0.1,0.1,0.2
			c0,0,0.4,0.4,0.5,0.4c0.2,0.2,0.4,0.5,0.4,0.7c0,0.1,0.1,0.1,0.2,0.2c0.1,0.2,0.3,0.3,0.4,0.6c0.1,0.1,0.4,0.5,0.4,0.6l0.1,0.3
			l0.3,0.4c0.1,0.1,0.2,0.2,0.3,0.2c0.2,0.2,0.3,0.6,0.3,0.8c0,0.1,0,0.1,0,0.2c0,0-0.1,0-0.1,0.1l-0.1,0.1
			c-0.1,0.1-0.2,0.1-0.3,0.2l-1,0.1h-0.3c-0.2,0.1-0.3,0-0.5,0c-0.2,0-1.1-0.2-1.2-0.2s-0.3-0.1-0.4-0.1c0,0-0.5-0.3-0.6-0.3
			c-0.2-0.1-0.4-0.2-0.6-0.2c0,0.1-0.3-0.1-0.3-0.1l-0.2-0.1c0,0-0.5-0.3-0.6-0.3l-0.6-0.4c0,0-0.4,0.6-0.7,1
			c-0.1,0.2-0.3,0.3-0.3,0.4c0,0-0.4,0.4-0.4,0.5c-0.2,0.2-0.5,0.5-0.8,0.5c0,0-0.2,0-0.3,0s-0.2-0.1-0.3-0.1l-0.1-0.1v-0.1
			c0-0.2,0.1-0.5,0.2-0.6l0.1-0.1c0,0,0.3-0.2,0.3-0.3l0.2-0.3c0-0.1,0.4-0.7,0.5-0.9c0-0.1,0.1-0.2,0.2-0.3s0.2-0.3,0.3-0.3
			l0.1-0.1c-0.1,0-0.3-0.3-0.3-0.3c-0.2-0.2-0.2-0.3-0.5-0.5c-0.2-0.1-0.3-0.3-0.4-0.3c-0.2-0.2-0.3-0.4-0.5-0.6
			c-0.1,0-0.1-0.1-0.2-0.1c0,0-0.1,0-0.1-0.1s-0.2-0.3-0.2-0.4l-0.1-0.2l-0.3-0.5l-0.2-0.2c-0.1-0.1-0.6-0.3-0.7-0.4l-0.3-0.2
			l-1.4-1.2c-0.3,0-0.4-0.2-0.7-0.2h-0.3c-0.1,0-0.4,0.1-0.5,0.2c-0.1,0-0.2,0.1-0.3,0.2l-0.1,0.1c-0.1,0.1-0.2,0.2-0.2,0.2
			s-0.1,0.3-0.1,0.4v0.1c0,0.2,0.1,0.5,0.1,0.7c0.1,0.2,0.4,0.7,0.5,0.8s0.2,0.3,0.2,0.3c0.1,0,0.3,0.1,0.3,0.1l0.1-0.1
			c0.2-0.2,0.4-0.4,0.7-0.2h0.1c0.1,0.1,0.2,0.2,0.2,0.4s-0.2,0.5-0.3,0.6s-0.2,0.1-0.3,0.1l-0.5,0.2c-0.1,0.1-0.3,0.1-0.4,0
			c-0.2,0-0.4-0.1-0.6-0.3c-0.3-0.2-0.5-0.5-0.8-0.7c-0.1-0.2-0.4-0.4-0.4-0.6l-0.1-0.5c-0.1-0.1-0.1-0.3-0.2-0.4
			c-0.1-0.3-0.1-0.6-0.1-0.9c0-0.1,0.1-0.3,0.1-0.4c0.1-0.2,0.1-0.6,0.2-0.7c0.1-0.1,0.1-0.2,0.1-0.3v-0.1c0.1-0.1,0.4-0.5,0.4-0.6
			s0.2-0.4,0.2-0.4l0.1-0.2c0.3-0.3,0.6-0.6,0.9-0.8l0.2-0.1l0.7-0.3l0.3-0.1l0.3-0.1c0.2-0.1,0.4-0.2,0.7-0.2c0.1,0,0.8,0,0.9,0
			h0.2l0.7,0.1c0,0,0.1,0,1.6,0.7C144.9,151.6,145,151.7,145.1,151.7z"/>
		<path class="st4" d="M140.4,160.9c0.5,0.5,0.5,0.5,0.5,0.5s0.1,0.1,0.1,0.2c0,0.1,0.2,0.2,0.2,0.3l0.4,0.6
			c0.1,0.2,0.3,0.3,0.3,0.5l0.2,0.5c0.1,0.1,0.1,0.3,0.2,0.4c0,0.1,0.1,0.6,0.2,0.7l0.1,0.3c0,0.2,0.2,0.7,0.2,0.9
			c0.1,0.2,0.2,0.4,0.2,0.6v0.3c0,0.1-0.1,0.2-0.1,0.3c0,0.6-0.1,1.1-0.3,1.6l-0.1,0.3c-0.1,0.3-0.3,0.5-0.4,0.8l-0.5,0.8
			c0,0.1,0,0.1-0.1,0.3c-0.2,0.3-0.3,0.4-0.6,0.7l-0.6,0.6c-0.2,0.2-0.4,0.4-0.7,0.5c-0.1,0.1-0.3,0.3-0.5,0.4l-0.5,0.2
			c-0.1,0-0.2,0.1-0.4,0.2c-0.3,0.1-0.6,0.2-0.9,0.2h-0.9c-0.1,0-0.5,0-0.7-0.1c-0.1,0-0.4-0.2-0.5-0.2c-0.1-0.1-0.5-0.3-0.5-0.4
			c0,0-0.3-0.3-0.5-0.4c-0.2-0.2-0.4-0.5-0.6-0.7v-0.1c0,0-0.1-0.2-0.2-0.2c0,0,0-0.1,0-0.2V171l-0.1-0.4c0-0.1,0-0.2,0.1-0.3
			c0,0,0.1-0.2,0.2-0.3v-0.3c0-0.1,0-0.1,0-0.2c0-0.1,0-0.3,0.1-0.4c0-0.1,0.2-0.5,0.2-0.6c0,0,0.1-0.1,0.1-0.2
			c0-0.2,0.1-0.4,0.2-0.6c0-0.1,0.1-0.4,0.2-0.5s0.1-0.3,0.3-0.6c0.1-0.2,0.3-0.4,0.4-0.6c0.2-0.4,0.6-0.7,1-1l-0.1-0.1
			c-0.1-0.1-0.1-0.1-0.3-0.2c-0.1,0-0.1,0-0.2-0.1s-0.2-0.2-0.4-0.3l-1-0.4c-0.3-0.1-0.6-0.2-0.9-0.2h-0.1c-0.1,0-0.3-0.2-1,0.2
			c-0.1,0-0.8,0.5-1.1,0.7c-0.2,0.2-0.5,0.4-0.7,0.7c-0.1,0.2-0.2,0.3-0.3,0.4l-0.1,0.1l-0.1,0.3v0.2v0.4c0,0.3,0.2,0.7,0.2,1
			c0.1,0.1,0.1,0.1,0.2,0.3c0,0.1,0.1,0.2,0.1,0.3s0.1,0.1,0.1,0.1c0.1,0.1,0.3,0.1,0.3,0.1c0.1,0.1,0.2-0.1,0.3-0.1
			c0.2-0.1,0.4-0.1,0.5,0c0.1,0,0.2,0.1,0.2,0.2c0.1,0.2,0.1,0.5,0,0.7c0,0-0.1,0.3-0.2,0.3v0.1l-0.1,0.1l-0.3,0.3
			c-0.2,0.2-0.6,0.4-0.9,0.2H130c-0.1,0-0.2,0-0.3,0l-0.2-0.1c-0.3-0.2-0.5-0.5-0.7-0.8l-0.2-0.2c0-0.1-0.1-0.2-0.2-0.3
			c-0.2-0.4-0.2-0.9-0.3-1.3c0.1-0.1,0-0.2,0-0.3v-0.4v-0.1l0.2-1.1c0-0.3,0.2-0.6,0.3-0.9c0.3-0.8,0.4-1,0.4-1.1s0,0,0.1-0.2
			c0.1-0.1,0.3-0.4,0.4-0.5l0.5-0.6c0.1-0.1,0.6-0.8,0.7-0.9c0,0,0.2-0.3,0.3-0.3c0.4-0.4,0.9-0.8,1.4-1.1c0.2-0.1,0.5-0.2,0.7-0.3
			l1.6-0.4c0.1,0,0.2,0,0.3,0c0.3-0.1,0.6-0.1,0.9-0.1c0.3,0,0.5,0,0.8,0c0.1,0.1,0.2,0.1,0.4,0.1h0.2l1.5,0.6L140.4,160.9z
			 M137.5,166l-0.3,0.3c-0.1,0.1-0.2,0.1-0.3,0.2c-0.1,0.1-0.2,0.3-0.4,0.5c-0.1,0.2-0.2,0.4-0.4,0.8c-0.1,0.2-0.2,0.4-0.3,0.6
			l-0.2,0.7c-0.1,0.1,0,0.3-0.1,0.4c0,0.1-0.1,0.2-0.1,0.4l-0.2,1.4c0,0.1,0.1,0.2,0.2,0.2c0.1,0,0.2,0.2,0.2,0.2l0.1,0.1
			c0.3,0.1,0.6,0.2,0.8,0.2h0.1c0.4,0,0.7,0.1,1.1,0c0.2-0.1,0.5-0.1,0.7-0.3c0.1-0.1,0.2-0.1,0.3-0.2c0.2-0.3,0.3-0.6,0.5-0.9
			c0-0.1,0-0.2,0-0.2l0.1-0.5c0-0.1,0-0.3,0-0.3l-0.1-0.5c-0.2-0.7-0.5-1.3-0.9-1.8l-0.5-0.6C137.7,166.5,137.7,166.3,137.5,166
			C137.6,165.9,137.6,165.9,137.5,166z"/>
		<path class="st4" d="M125.1,168.9l0.3,0.2c0,0,0.1,0,0.2,0.1c0.1,0.1,0.2,0.1,0.3,0.2c0,0,0.3,0.1,0.4,0.1c0,0,0.2,0.1,0.2,0.2
			c0.1,0,0.4,0.3,0.6,0.4c0.1,0.1,0.3,0.3,0.4,0.3l1.4,0.9c0.1,0.1,0.3,0.3,0.5,0.4c0.1,0.1,0.4,0.5,0.4,0.5l0.5,0.8
			c0.2,0.2,0.3,0.4,0.5,0.7l0.3,0.3c0,0.1,0.2,0.3,0.2,0.3l0.6,0.9c0.1,0.1,0.3,0.5,0.3,0.5l0.3,0.3c0.2,0.3,0.3,0.6,0.4,0.9
			c0.2,0.3,0.4,0.6,0.3,1c-0.1,0.1-0.1,0.2-0.2,0.3c-0.1,0.1-0.1,0.1-0.2,0.1c-0.2,0.1-0.4,0-0.6-0.1l-0.3-0.1
			c-0.2-0.1-0.6-0.2-0.6-0.2s0,0.2-0.1,0.2v0.2l-0.1,0.7c0,0.1-0.1,0.3-0.1,0.3c0,0.1-0.1,0.3-0.2,0.4c0,0-0.1,0.1-0.1,0.2
			c0,0.1-0.2,0.3-0.2,0.3l-0.1,0.2l-0.2,0.2c-0.1,0.1-0.3,0.2-0.4,0.3l-0.3,0.3c-0.1,0.1-0.3,0.1-0.5,0.1h-0.1c-0.2,0-0.4,0-0.6,0
			c-0.1,0-0.1-0.1-0.2-0.1c-0.1,0-0.3-0.1-0.3-0.2c-0.1-0.1-0.3-0.2-0.2-0.4c0-0.3,0-0.4,0.3-0.7c0.2-0.3,0.4-0.3,0.7-0.2
			c0,0,0.1,0,0.2,0s0.2,0,0.3,0c0,0,0.2-0.1,0.3-0.2c0.1-0.2,0.2-0.4,0.3-0.6v-0.4c-0.1-0.2,0-0.2,0-0.4c0-0.1,0-0.2,0-0.3v-0.4
			c0-0.1,0-0.2,0-0.2c0-0.1-0.1-0.2-0.1-0.3c-0.1-0.1-0.1-0.1-0.2-0.1l-0.5-0.4l-0.5-0.2l-0.7-0.4c-0.1,0-0.4-0.3-0.5-0.4l-0.9-0.8
			c-0.3-0.3-0.6-0.7-0.9-1c0,0-0.1-0.1-0.1-0.2c0-0.2-0.1-0.4-0.2-0.7l-0.1-0.2c-0.1-0.1-0.1-0.3-0.2-0.4c0-0.4,0-0.6,0-0.9
			c0-0.1-0.1-0.2,0-0.7c0-0.1-0.1-0.3-0.1-0.5s-0.2-0.3-0.2-0.5v-0.3c0-0.1,0-0.1,0-0.2c0-0.1,0.1-0.1,0.1-0.2c0,0,0.2-0.1,0.3-0.1
			L125.1,168.9z"/>
	</g>
</g>
</svg>
