<?xml version="1.0" encoding="utf-8"?>
<!-- Generator: Adobe Illustrator 19.2.1, SVG Export Plug-In . SVG Version: 6.00 Build 0)  -->
<svg version="1.1" id="Layer_1" xmlns="http://www.w3.org/2000/svg" xmlns:xlink="http://www.w3.org/1999/xlink" x="0px" y="0px"
	 width="180.4px" height="223.9px" viewBox="0 0 180.4 223.9" style="enable-background:new 0 0 180.4 223.9;" xml:space="preserve"
	>
<style type="text/css">
	.st0{fill:#CE0A24;}
	.st1{fill:#FAA500;}
	.st2{fill:#96C31E;}
	.st3{fill:#5A642D;}
	.st4{fill:#46230F;}
	.st5{fill:#F7F5E9;}
</style>
<g>
	<g>
		<g>
			<path class="st0" d="M145.8,74.4l-77.2-3.5l1,0.2L48,72.2c0,4.6,0.4,9.5,1.2,14.6c0,0.9,0.1,1.9,0.1,2.9v0.2V90
				c1.2,5.8,2.3,12.9,3,20.9l29.6,2.5l0,0l60.7,0.1c1-4.4,1.6-7.5,1.6-7.6C146.1,94.2,146.6,83.6,145.8,74.4z"/>
			<path class="st1" d="M142.6,113.4L82,113.3l0,0l0,0l-29.2,3.4c0.6,10.5,0.4,22-1.1,33.8l22.9,3.9l-5.4-0.2h0.1l57.6,2.8
				c1.4-2.7,2.8-5.6,4.5-9.3l4.8-12.4C138.9,128.6,141.2,119.7,142.6,113.4z"/>
			<path class="st2" d="M74.4,154.4l-72.3-2.8L1.5,162l9.9,7.4l-10.7,6.9L0,187.9l58.5,4.3l-2.2,0.2l40.3,2.9
				c0.3-0.2,0.5-0.4,0.8-0.7c1.9-1.6,3.6-3.2,4.8-4.4c5.9-5.7,7.7-8,12-13.6l0.1-0.2c0.7-1,1.6-2.2,2.4-3.3c1.3-1.7,2.5-3.3,3-4.3
				c3-4.5,5.1-7.9,7.1-11.8L74.4,154.4z"/>
			<path class="st3" d="M58.6,192.2l-19.7,2c-2.3,4.5-5,8.8-8,12.9c-0.1,0.1-5.4,7.6,1,14.1c1.8,1.8,4.4,2.7,8,2.7
				c5.2,0,12.7-2.3,14.9-3.5l0,0c5.9-2,15.5-6.1,27.8-14.3c5.2-3.5,9.5-6.8,12.9-9.8c0.5-0.4,0.9-0.8,1.4-1.2L58.6,192.2z"/>
			<path class="st4" d="M144.9,67.9v-0.1v-0.1c-1.5-8-4.1-15-8.1-20.8c-5.2-6.7-11.3-11.9-18.3-15.4c-1.7-1.2-3.3-2.3-4.7-3.4
				c-2.8-2.2-4.2-4.6-4.2-7.2v-0.1l0,0c0-0.6,0.1-1.2,0.2-1.8c0-0.1,0.1-0.2,0.1-0.4v-0.2c0.6-3.2,2.3-9.2,7.2-13.1l0.1-0.1l0.1-0.1
				c0.4-0.5,0.5-1,0.3-1.5c-0.1-0.4-0.4-0.7-0.8-0.8l-6.1-2.7c-0.3-0.1-0.7-0.2-1-0.1h-0.1c-4.2,1.1-7.9,3.8-10.5,7.9
				c-2.2,3.4-3.9,7.5-5.1,12.3l0,0c-0.9,2.2-2.8,3.9-5.8,5.1c-1.1,0.5-2.4,0.9-4,1.4h-0.1c-0.7,0.1-1.4,0.3-2.1,0.4
				c-1.7,0.3-7.7,2.3-8.3,2.5l-0.4,0.1l0,0c-0.1,0-0.2,0.1-0.3,0.1c-2.3,1-4.6,2-5.4,2.6c-1.4,0.7-16.9,9.4-19.3,33.7l20.3,4.6
				l77.2,3.4C145.5,72.1,145.3,70,144.9,67.9z"/>
		</g>
	</g>
	<g>
		<path d="M134.4,28.5L135,27c0.1-0.4,0.4-0.9,0.6-1.2c0.3-0.3,0.5-0.7,0.7-1.1l0.7-1.2c0.1-0.1,0.2-0.3,0.3-0.4
			c0.1-0.3,0.4-0.9,0.4-0.9c0.1-0.1,0.3-0.5,0.3-0.6s0.1-0.4,0.2-0.4c0.2-0.2,0.3-0.5,0.5-0.8c0.2-0.3,0.4-0.5,0.7-0.8
			c0.1-0.2,0.2-0.3,0.4-0.4l1.2-1.3c0-0.1,0.5-0.4,0.5-0.4c0-0.1,0.4-0.3,0.4-0.4c0.1,0,0.4-0.2,0.5-0.3c0.3-0.3,1.8-1.7,2.2-2
			c0.5-0.4,1-0.7,1.6-1.2c0.4-0.3,0.8-0.6,1.3-0.9c0-0.1,0.7-0.5,0.7-0.5c0.4-0.5,1-0.9,1.6-1.3c0-0.1,0.5-0.3,0.6-0.3
			c0-0.1,0.4-0.3,0.5-0.4c0.3-0.1,0.7-0.1,1,0c0.2,0.2,0.2,1.2,0.3,1.5l0.2,0.1c0.3,0.1,0.5,0.2,0.8,0.4c0.3,0.1,0.6,0.2,0.8,0.4
			c0,0,0.3,0.2,0.4,0.2c0.3,0.3,0.6,0.5,0.9,0.8c0.3,0.3,0.6,0.6,0.9,0.9c0.6,0.8,1.1,1.6,1.5,2.6l0.3,0.6c0.3,0.8,0.7,1.6,0.8,2.5
			c0,0.5,0.1,1.1,0.1,1.6l-0.1,1.6V24c0,0.6-0.6,1-0.8,1.5c0,0-0.2,0.4-0.2,0.5s-0.3,0.3-0.3,0.4c-0.3,0.4-0.7,0.8-1.2,1
			c-0.6,0.3-1.2,0.5-1.9,0.8c-0.4,0.1-0.8,0.4-1.1,0.5c0,0.1-0.7,0-0.8-0.1c-0.6,0.1-1.2,0-1.8,0l-1.2-0.2c-0.3-0.1-0.6-0.2-0.9-0.3
			c-0.6-0.3-1.2-0.7-1.7-1.1c-0.1-0.1-0.3-0.4-0.3-0.4c-0.1,0-0.3-0.4-0.4-0.5l-0.5-0.9c-0.1,0-0.5-0.7-0.6-0.6
			c-0.4,0.4-0.6,0.9-1,1.2c-0.7,0.4-1.1,1-1.8,1.3c-0.2,0.2-0.4,0.2-0.7,0.5l-0.5,0.3c-0.1,0-0.3,0.2-0.4,0.3l-0.2,0.2
			c-0.3,0.3-0.7,0.7-1.2,0.9l-0.4,0.1l-0.7,0.5c0,0-0.5,0.2-0.6,0.3c-0.5,0.2-1,0.5-1.6,0.7c-0.1,0-0.5,0.1-0.6,0.2
			c-0.2,0-0.5,0.3-0.7,0.5c-0.2-0.1-0.4,0-0.6,0c-0.1,0-0.3-0.1-0.4-0.2c-0.1-0.1-0.1-0.3-0.1-0.4l0.6-1.8
			C134.3,29,134.3,28.7,134.4,28.5z M147,23c0.2,0.2,0.4,0.6,0.6,0.8l0.3,0.2c0.2,0.1,0.3,0.3,0.6,0.4c0.1,0.1,0.6,0.1,0.8,0.1
			c0.2,0.1,0.4,0.2,0.6,0.2c0.2,0.1,1.4,0.2,1.5,0.1l0.4-0.1c0.4,0,0.7-0.3,1.1-0.5c0.4-0.2,0.7-0.4,1-0.6l0.6-0.7
			c0.4-0.4,0.6-0.7,0.9-1.2l0.2-0.7c0.1-0.3,0.2-0.4,0.2-0.6c0-0.1,0-0.2,0-0.3c0.2-0.2-0.1-0.7,0-0.8c0-0.6-0.2-1.2-0.4-1.8
			c-0.2-0.2-0.3-0.6-0.5-0.8c0-0.1-0.1-0.3-0.3-0.5l-0.2-0.2l-0.9-0.8c-0.1-0.1-0.4-0.2-0.4-0.2c-0.1,0-0.4-0.3-0.5-0.3
			s-0.3-0.2-0.4-0.1c-0.3,0.3-0.5,0.7-0.7,1c0,0.1-0.2,0.3-0.3,0.5l-0.4,0.8c0,0.1-0.3,0.4-0.4,0.6c0,0.1-0.6,0.9-0.8,1.1
			c-0.1,0.1-0.2,0.3-0.3,0.5c-0.3,0.5-0.7,1-1.1,1.6c0,0.1-0.4,0.5-0.4,0.6c-0.3,0.3-0.7,0.6-1,1C146.6,22.7,146.8,22.8,147,23z"/>
		<path d="M145.8,46c-0.3-0.5-1.2-1.3-1.2-1.5l-0.5-1c0-0.2-0.5-1.1-0.7-1.4l-0.4-0.8l-0.7-1.3c-0.1-0.2-0.2-0.3-0.3-0.6
			c0-0.1,0.1-0.5,0.1-0.6c0.1-0.1,0.3-0.4,0.4-0.5c0.1-0.1,0.4-0.3,1.1-0.7c0.2-0.1,1.3-0.9,1.5-1c0.3-0.2,2.5-2,2.8-2.3
			c0.1,0,0.3-0.2,0.4-0.3l0.9-0.5c1.2-0.7,2.4-1.3,3.6-2l1-0.6c0.2-0.2,0.4-0.3,0.6-0.4c0.4-0.2,0.6-0.3,0.8-0.4
			c0.4-0.2,0.9-0.3,1.3-0.6c0,0,0.2,0,0.5-0.2l2.4-1c0.1-0.1,0.5-0.2,0.6-0.2c0.2-0.1,0.3-0.2,0.5-0.3c0.5-0.3,0.9-0.2,1.3-0.4
			l0.6-0.1l1-0.2h0.7c0.3,0,0.4,0.1,0.8,0c0.2,0,0.4,0.2,0.6,0.3c0.1,0.1,0.2,0.2,0.2,0.3l0.9,1.3l0.2,0.4l0.7,1.9
			c0,0.1,0.2,0.4,0.3,0.6c0.4,0.5,0.6,1.1,1,1.6c0,0,0.2,0.4,0.2,0.5c0.2,0.2,0.1,0.5,0.2,0.8c0.1,0.1,0.2,0.6,0.3,0.7
			c0.4,0.8,0.8,2,1.3,2.8c0.1,0.2,0.4,0.5,0.6,0.8c0,0.1,0.1,0.3,0.1,0.4v0.9c0,0.1-0.1,0.4-0.1,0.4l-0.1,0.1c-0.1,0-0.3,0.1-0.9,0
			c-0.4-0.1-0.7-0.5-0.9-0.9c0,0-0.2-0.3-0.3-0.3c-0.4-0.4-0.5-0.8-1-1.1c-0.3-0.6-0.6-1.1-1.2-1.7c-0.4-0.5-1-1.5-1.1-1.6l-0.6-1.4
			l-0.6-0.2l-0.5,0.4c-0.1,0.1-0.1,0.2-0.4,0.3c0,0.1-0.5,0.5-0.5,0.6c-0.1,0.1-0.2,0.2-0.3,0.2c0,0-0.2,0.1-0.3,0.1l-1.9,1.1
			c-0.1,0.1-0.4,0.1-0.4,0.1c-0.2,0.1-0.2,0.3-1.2,0.9c-0.1,0.1-0.6,0.3-0.7,0.3c0.1,0.4,0.3,0.8,0.4,1.2c0.2,0.3,0.3,0.9,0.4,1.4
			l0.3,1c0.1,0.2,0.2,0.4,0.3,0.6s0.3,0.4,0.5,0.5c0.1,0.1,0.3,0.4,0.3,0.5l0.5,0.9c0.1,0.1,0.2,0.4,0.3,0.5c0.1,0.2,0,0.6,0,0.9
			c-0.2,0.1,0,0.3-0.4,0.6c-0.1,0-0.1,0-0.2,0.1c-0.3,0-1-0.4-1.1-0.5l-0.3-0.6c0,0-0.2-0.1-0.2-0.2c0,0-0.3-0.5-0.4-0.5
			c-0.1-0.1-0.7-0.8-0.8-0.9l-0.4-0.4c-0.1-0.2-0.3-0.5-0.5-0.7l-1.1-2c0,0-0.1-0.2-0.2-0.2c-0.1-0.1-0.4-0.6-0.7-0.4
			c-0.6,0.4-2.2,1.4-2.3,1.5c-0.1,0-0.5,0.4-0.5,0.4c-0.7,0.4-0.9,0.5-0.9,0.5c-0.2,0-0.4,0.1-0.6,0c-0.3,0.2-1.7,0.8-2,1l-0.4,0.2
			c-0.1,0.1-0.3,0.1-0.5,0.2c0.2,0.5,0.1,1,0.3,1.5l0.9,2.2c0.1,0.2,0.2,0.4,0.2,0.5c0.1,0.2,0,0.3,0.2,0.4c0.3,0.4,0.4,1,0.7,1.2
			c0,0.1,0.3,0.4,0.4,0.5c0.1,0.2,0.3,0.5,0.6,0.7l0.3,0.8c0.1,0.1,0.2,0.2,0.3,0.4c0.2,0.5-0.1,0.5-0.5,0.7
			c-0.4,0.1-0.5,0.1-0.9,0.1c0,0-0.2,0-0.4,0c-0.6-0.3-0.7-0.4-0.7-0.4c-0.2-0.1-0.5-0.6-0.6-0.8l-0.2-0.4c-0.1-0.1-0.2-0.3-0.3-0.6
			l-0.5-1.1c-0.1-0.2-0.4-0.4-0.6-0.6c-0.1-0.1-0.5-0.7-0.6-0.9c-0.1-0.1-0.2-0.6-0.3-0.7L145.8,46z"/>
		<path d="M158.3,64.3c0,0,0.1-0.2,0-0.2c0-0.1,0.1-0.9,0.1-1c0.1-0.3,0.3-0.6,0.4-0.9c0,0,0.1-0.3,0.1-0.4s0.1-0.6,0.1-0.6
			s0-0.1,0.1-0.1c0.1-0.3,0.3-0.6,0.4-0.9l0.2-0.8c0.1-0.2,0.2-0.3,0.3-0.5l0.3-0.4c0.5-0.6,0.9-1.9,1.3-2.6l-3,0.7c0,0-0.2,0-0.3,0
			s-0.1,0-0.3,0h-0.6c-0.1,0-0.3-0.1-0.5,0h-0.1h-0.3l-0.9,0.2c-0.2,0.1-0.5,0.1-0.5,0.1c-0.3,0.1-0.7,0.3-1.1,0.3
			c-0.2,0-0.4,0-0.7,0c0,0-0.4,0.1-0.4,0.2c-0.2,0.1-0.6,0-0.8,0c-0.1,0-0.6,0.1-0.6,0.1c-0.2-0.1-0.3-0.1-0.5-0.3l0.2-0.5
			c0.1-0.2,0.3-0.3,0.3-0.4l0.9-0.9l0.2-0.1c0.3-0.1,0.4-0.3,0.5-0.6c0.1,0,0.3-0.3,0.3-0.3c0.1-0.1,0.3-0.3,0.5-0.5
			c0,0,0-0.1,0.1-0.1s0.3-0.2,0.4-0.3l0.2-0.2c0,0,0.1-0.2,0.4-0.3c0.3-0.2,0.4-0.4,0.7-0.6c0.4-0.5,0.9-0.9,1.4-1.3
			c0.1-0.1,1.2-0.7,1.4-0.8c0,0,0.3-0.3,0.4-0.3s0.9-0.5,1-0.5l1.7-1.2c0,0,0.4-0.2,0.6-0.3l0.8-0.4c0.1-0.1,0.4-0.1,0.5-0.2
			l0.3-0.2c0,0,0.3-0.1,0.3-0.2l0.3-0.2c0.1,0,0.9-0.3,1-0.3l0.5-0.2c0.1,0,0.6-0.2,0.6-0.3c0,0,0.3,0,0.4,0c0,0,0.1-0.1,0.2-0.1
			c0.2-0.1,0.5-0.1,0.7-0.2h0.2c0.2-0.1,0.4,0,0.5-0.1l0.5-0.2l0.2-0.1c0.2,0.1,0.4,0,0.6,0c0.7-0.2,1.4-0.2,2.1-0.2
			c0.2,0,0.4-0.1,0.7-0.1c0,0,0.3,0.1,0.4,0.1c0.2-0.1,0.6-0.2,0.6-0.2h0.2c0.1,0,0.4,0.1,0.4,0.2c0.1,0.3,0.1,0.5,0.3,0.9
			c0.1,0,0.4,0.4,0.4,0.5c0.1,0.1,0.3,0.4,0.4,0.4l0.2,0.4c0,0,0.3,0.4,0.4,0.4c0.2,0.4,0.5,0.7,0.8,1.2c0.1,0.2,0.2,0.2,0.2,0.3
			c0.1,0.2,0.2,0.3,0.4,0.8c0,0.1,0.2,0.3,0.2,0.3c0.1,0.2,0.2,0.4,0.5,1c0.1,0.2,0.2,0.4,0.2,0.9c0.2,0.5,0.3,1.1,0.2,1.7V54
			c-0.1,0.1,0,0.3-0.1,0.4c0,0.3-0.2,0.5-0.2,0.8v0.6c0,0.2-0.2,0.5-0.1,0.7l-0.2,0.9c-0.1,0.1-0.1,0.3-0.1,0.5l-0.2,0.4
			c0,0-0.4,0.4-0.4,0.5c-0.2,0.2-0.2,0.4-0.4,0.5l-0.3,0.2c0,0.1-0.4,0.4-0.5,0.4l-0.2,0.1c0,0-0.2,0.2-0.3,0.2c0,0-0.2,0.1-0.3,0.2
			l-0.3,0.2l-1.1,0.4l-1,0.2c-0.5,0.1-0.8-0.1-1.3-0.1c-0.1,0-0.8-0.1-0.8-0.1c-0.3,0-0.6-0.1-1-0.2l-0.4-0.3
			c-0.3-0.1-0.5-0.1-0.8-0.2c-0.2,0-0.3-0.2-0.5-0.3c-0.3-0.2-0.6-0.3-0.9-0.5l-0.3-0.3c-0.2-0.1-0.2-0.2-0.3-0.3
			c0,0-0.5-0.5-0.5-0.6s-0.3-0.3-0.4-0.2l-0.2,2c-0.2,0.2-0.7,1.1-0.8,1.4c-0.1,0.2-0.7,1.5-0.8,1.6l-0.6,1
			c-0.1,0.1-0.3,0.4-0.3,0.4l-0.1,0.2c-0.2,0.2-0.4,0.4-0.5,0.6c-0.1,0-0.3,0.3-0.4,0.4l-1.3,1.2c-0.1,0-0.3,0.3-0.3,0.3l-0.4,0.5
			l-0.5,0.8l-0.1,0.1l-0.6,0.7l-0.1,0.1c0,0-0.4,0.5-0.4,0.6c-0.1,0.1-0.2,0.1-0.3,0.2c-0.3,0.1-0.4,0.2-0.6,0.2
			c-0.1,0-0.2-0.2-0.3-0.3c0-0.1-0.1-0.3-0.1-0.4c0-0.3,0.1-0.4,0.2-0.6c0.1-0.2,0.1-0.3,0.1-0.5c0.1-0.8,0.5-1.4,0.8-2.2
			L158.3,64.3z M166.4,54.1c0,0,0.1,0.5,0.3,0.9l0.1,0.3c0.1,0,0.4,0.6,0.5,0.7l0.1,0.1c0.2,0.1,0.7,0.6,0.8,0.6l0.9,0.5
			c0.3,0.1,0.7,0.2,1,0.2h1c0.2,0,0.4-0.1,0.6-0.1c0.1,0,0.5-0.1,0.6-0.2c0.2-0.1,0.8-0.4,1-0.5c0.2-0.2,0.5-0.3,0.7-0.5l0.7-0.8
			c0,0,0.3-0.6,0.4-0.9c0.1-0.2,0.4-1,0.5-1.2l-0.1-0.8c0-0.1,0-0.7,0-0.7c0-0.1-0.2-0.6-0.2-0.7l-0.1-0.3c-0.6-0.6-1.3-1.4-1.3-1.4
			c-0.3,0.1-0.6,0.3-0.9,0.6c0,0.1-0.5,0.4-0.6,0.5c0,0-0.2,0.1-0.3,0.1l-0.1,0.1l-0.4,0.2c-0.3,0.2-0.6,0.4-0.9,0.5
			c-0.2,0.1-0.4,0.1-0.5,0.2c-0.3,0.2-0.6,0.4-0.9,0.6l-0.8,0.4c-0.2,0.1-0.8,0.4-0.8,0.4c-0.1,0-0.4,0.2-0.4,0.2s-0.1,0.1-0.2,0.1
			c0,0-0.1,0.1-0.8,0.4L166.4,54.1z"/>
		<path d="M161,70.1c0.2-0.2,0.5-0.3,0.8-0.4l1.3-1l0.2-0.1l2.5-1.6c0.1,0,0.4-0.3,0.5-0.3c0.1-0.1,0.8-0.3,1-0.4l0.4-0.1
			c0.2,0,0.4-0.1,0.5-0.2l1.6-0.4c0,0,0.2,0,0.3-0.1c0.7-0.1,1.3,0.1,1.9,0.1l0.4,0.1c0.2-0.1,0.5,0,0.6,0.1c0.1,0,0.3,0.1,0.3,0.1
			l0.4,0.1c0.1,0,0.3,0.1,0.4,0.2l0.3,0.1h0.2l0.2,0.1v0.2c0,0.1-0.1,0.1-0.2,0.2c0,0.1-0.1,0.2-0.1,0.2c-0.1,0-0.1,0.2-0.1,0.3
			L174,68c-0.4,0.3-0.6,0.7-1,1l-0.1,0.2c-0.3,0.3-0.8,0.4-1.1,0.6l-0.5,0.3c-0.1,0.1-0.6,0.3-0.6,0.3c-0.2,0.1-0.4,0.1-0.7,0.2
			c-0.1,0-0.5,0-0.6,0c-0.2,0.1-1.4,0.4-1.8,0.4l-0.7,0.2c-0.1,0-1,0.1-1.4,0.2c-0.3,0-0.5,0-0.8,0c-0.1,0-0.3,0-0.4-0.1
			c-0.1,0-0.7-0.1-0.8-0.2c-0.1,0-0.6,0-0.6,0h-0.1c0,0-0.1,0-0.2,0.1c-0.1,0-0.3,0-0.3,0c-0.3-0.1-0.7-0.1-1-0.1
			c-0.1,0-0.5,0.1-0.6,0.1c-0.2,0-0.7,0.1-0.7,0c-0.1,0-0.2-0.1-0.3-0.1c0-0.1-0.1-0.2-0.1-0.2s-0.1-0.2,0.1-0.3
			c0.2-0.1,0.3-0.2,0.5-0.2c0.1,0,0.3-0.2,0.4-0.2C160.8,70.3,160.9,70.1,161,70.1z M176.8,64.8c0-0.1,0.4-0.6,0.4-0.7
			c0,0,0.2-0.2,0.3-0.2l0.2-0.1c0.1,0,0.2-0.1,0.4-0.1c0,0,0.3-0.1,0.4-0.1l0.3-0.1c0.1,0,0.2,0,0.2,0h0.2c0,0,0.2,0,0.3,0
			c0,0,0.3,0.1,0.4,0.1c0.2,0,0.3,0.3,0.3,0.3c0,0.1,0,0.3,0,0.4c0,0.2,0.2,0.3,0.2,0.5c0.1,0.2,0,0.5,0,0.7s0,0.4-0.1,0.5
			c0,0,0,0.1-0.1,0.2l-0.1,0.3c-0.1,0.2-0.2,0.2-0.3,0.4l-0.1,0.1c-0.1,0.1-0.2,0.2-0.4,0.2c-0.3,0.1-0.6,0.1-1,0.1
			c-0.1,0-0.3,0.1-0.5,0c-0.1,0-0.2,0-0.3-0.1c-0.1,0-0.5-0.1-0.5-0.1c-0.1-0.1-0.3-0.2-0.3-0.2l-0.1-0.2c-0.1-0.1-0.1-0.2-0.2-0.3
			c0-0.2,0-0.2,0-0.4c0,0,0-0.2,0-0.3v-0.4c0,0,0-0.1,0-0.2L176.8,64.8z"/>
		<path d="M167.3,73.4c0,0,0.3,0,0.4,0c0.1,0,0.2,0.1,0.3,0.2c0,0,0.2,0.1,0.2,0.2c0.2,0.1,0.4,0.4,0.5,0.6c0,0.1,0.1,0.4,0.1,0.5
			c0,0,0,0.1,0,0.2c0,0.1,0.1,0.2,0.1,0.2l0.1,0.2c0,0.1,0,0.1,0,0.1s0,0.1,0.1,0.2c0,0,0.4,1.5,0.4,2.2c0,0,0.1,0.4,0.2,0.6
			c0,0-0.1,0.1-0.1,0.3v0.3c0,0.1,0,0.1,0,0.2c0,0.1,0,0.2,0,0.2c0,0.2,0.1,0.8,0.1,0.8c0,0.1,0,0.2,0,0.3s0,0.3,0,0.4l0.1,0.4
			c0,0.1,0,0.3,0,0.3s0,0.2-0.1,0.3c0,0.1,0,0.2,0,0.2c-0.1,0.3,0.1,0.2-0.1,0.4l-0.3,0.4v0.1c-0.2,0.2-0.2,0.4-0.4,0.4h-0.3
			c-0.1,0-0.2-0.1-0.2-0.1l-0.2-0.3l-0.3-0.3c-0.1-0.1-0.2-0.2-0.2-0.3s-0.1-0.1-0.1-0.1l-0.1-0.2c-0.1-0.1-0.2-0.4-0.2-0.4
			c0-0.1-0.3-0.6-0.3-0.8c0,0,0-0.1,0-0.2c0-0.3,0.1-0.5,0-0.7c0-0.1,0-0.3,0-0.3c0-0.1-0.1-0.2-0.2-0.4c-0.1-0.4,0-0.8,0-1.1
			c0-0.1,0-0.3,0-0.3c0-0.1-0.1-0.5-0.1-0.5s0-0.1,0-0.2c0-0.1,0-0.5,0-0.5c0-0.1,0-0.1,0-0.2c0-0.3,0-0.5,0-0.8
			c0-0.2,0-0.4,0.1-0.6v-0.2V75l0.1-0.2c0,0,0.1-0.1,0.1-0.2c0-0.1,0-0.2,0-0.3C167,74.3,166.9,73.6,167.3,73.4z"/>
		<path d="M157.4,98.4c0-0.1-0.1-0.5-0.1-0.6s0-0.6,0-0.6v-0.3c-0.1-0.3-0.1-0.6,0-1c0-0.1,0.1-0.3,0-0.4l0.1-0.8
			c0.1-0.3,0.2-0.7,0.4-1l0.3-0.8c0-0.2,0.2-0.6,0.3-0.9c0-0.1,0.1-0.4,0.2-0.6l0.4-0.8l1-1.1l0.6-0.6c0.8-0.7,1.6-1.3,2.5-1.7
			l1.8-0.6c0,0,0.3-0.1,0.4-0.1c0.2-0.1,0.5-0.1,0.8-0.1c0.4,0,0.8,0,1.2,0c0.2-0.1,0.7-0.1,0.7-0.1c0.1,0,0.3,0,0.4,0l0.4,0.2
			l0.5,0.1c0.4,0.1,0.9,0.4,1.3,0.4l1,0.4c0,0,0.4,0.3,0.5,0.2l1.2,0.5l0.9,0.5c0,0,0.7,0.5,1,0.7c0.2,0.2,0.6,0.3,0.8,0.5
			c0.2,0.1,0.4,0.7,0.5,0.9l0.5,1.5c0,0.1,0.2,0.3,0.2,0.4l0.4,0.5c0,0.1,0.1,0.1,0.1,0.3c0.1,0.3,0.1,0.5,0.1,0.8
			c0.1,0.3,0.2,0.8,0.2,1.1s-0.1,0.6-0.1,0.9v0.3l0.1,0.3c0,0.1,0,0.2,0.1,0.5c0,0.1,0.1,0.3,0.2,0.6c0,0.2,0,1.5,0,1.5
			c-0.1,0.9-0.2,1.7-0.5,2.6c-0.3,0.6-1,1.4-1.2,1.8l-0.2,0.1l-0.4,0.5l-0.2,0.2l-1,0.9c-0.3,0.2-0.6,0.3-0.9,0.5l-0.6,0.4
			c0,0,0,0.1-0.7,0.3l-0.6,0.2c-0.2,0-0.3,0-0.5,0.1l-3.4,0.6c-0.1,0-0.3,0-0.3,0l-0.9-0.1c-0.4,0-2.2,0-2.6,0
			c-0.2-0.1-0.5-0.1-0.8-0.1l-1-0.3c-0.2-0.1-1.2-0.5-1.3-0.6s-0.8-0.6-0.9-0.7c0,0-0.1,0-0.2-0.1l-0.2-0.2
			c-0.2-0.2-0.5-0.3-0.6-0.6c-0.1-0.1-0.2-0.4-0.2-0.5s-0.1-0.2-0.2-0.5c-0.1-0.1-0.2-0.5-0.2-0.5l-0.8-1.3
			c-0.1-0.3-0.2-0.6-0.3-0.9l-0.1-0.4c-0.1-0.4-0.2-0.7-0.2-1C157.5,99.3,157.3,98.8,157.4,98.4z M162.4,96.3c0,0.1-0.3,0.5-0.3,0.6
			c-0.2,0.2-0.4,0.6-0.5,0.9c0,0.1-0.1,0.5-0.1,0.6l0.1,0.3c0,0.2,0.2,0.6,0.2,0.6l-0.1,0.8c0,0,0,0.5,0.1,0.6c0,0,0.1,0.3,0.2,0.5
			l0.1,0.5c0.1,0.1,0.3,0.6,0.4,0.7c0.1,0.2,0.7,1.1,0.8,1.3c0.3,0.3,0.6,0.7,1,0.8c0.3,0,1.4,0.4,1.6,0.5c0.1,0.1,0.7,0.2,0.8,0.3
			c0.1,0,0.3,0,0.3,0c0.2,0,1.3,0,1.6,0l0.9-0.1c0.3-0.1,0.6-0.1,0.9-0.2l1.5-0.5c0.1,0,0.5-0.2,0.5-0.2s0.3-0.2,0.4-0.3
			c0.2-0.1,0.7-0.4,0.7-0.5l1.4-1.4c0.2-0.2,0.4-0.4,0.5-0.7c0.1-0.1,0-0.3,0.2-0.4l0.1-0.4c-0.1-0.1,0-0.3,0.1-0.4l0.2-0.6
			c0-0.1,0.2-0.5,0.2-0.6c0,0,0-0.5-0.1-0.6c0-0.1-0.1-0.7-0.2-0.8c-0.1-0.4,0.1-0.9-0.1-1.4c0-0.1-0.1-0.2-0.1-0.2l-0.5-0.5
			c-0.2-0.2-0.5-0.5-0.9-0.7l-0.7-0.1l-0.8-0.4l-0.3-0.1c-0.7-0.2-1.5-0.3-2.1-0.4l-1.6,0.1h-0.2h-0.4c0,0-0.2,0-0.3,0
			c-0.7,0-1.4,0.1-2.1,0.4c-0.5,0.2-0.8,0.3-1.2,0.5c-0.2,0-1.1,0.6-1.4,0.7c-0.3,0.1-0.5,0.4-0.5,0.7
			C162.6,96,162.5,96.3,162.4,96.3z"/>
		<path d="M156.9,117.1c0.1,0,0.5,0,0.6,0s0.1,0,0.4,0c0.2,0,0.3,0,0.5,0c0.2,0,0.3,0,0.5,0.1l0.6,0.1c0.6,0.1,1.1,0.2,1.6,0.4
			c0,0,0.2,0.1,0.3,0.1c0,0,0,0,0.4,0.1c0.1,0,0.7,0.2,0.8,0.2l0.9,0.2c0.4,0.1,0.7,0,1.1,0.1c0.1,0,0.5,0.1,0.6,0.1s0.1,0,0.6,0.1
			h0.2c0,0,0.3,0,0.4,0c0.2,0,0.4,0,0.6,0.1c0.2,0,0.5,0,0.8,0c0.1,0,0.6,0,0.7,0s0.6-0.2,0.7-0.2c0.4-0.3,0.5-0.3,0.5-0.3
			c0.2-0.1,0.3-0.2,0.4-0.4c0-0.1,0.1-0.4,0-0.6l-0.4-0.7c-0.1-0.1,0-0.3-0.3-0.5l-0.6-0.8c-0.1,0-0.4-0.4-0.5-0.5s-0.2-0.2-0.3-0.3
			l-0.7-0.5c-0.2-0.2-0.5-0.2-0.7-0.3c-0.1,0-0.3,0-0.5,0l-0.4-0.1c-0.1,0-1.1-0.1-1.2-0.2c-2.3-0.5-2.8-0.7-3.3-1
			c-0.6-0.4-1.2-0.8-1.8-1.2l-0.1-0.1c-0.1-0.1-0.3-0.2-0.5-0.3c-0.1,0-0.3-0.1-0.4-0.1c-0.2-0.1-0.5-0.3-0.5-0.5c0-0.1,0-0.2,0-0.2
			c0-0.1,0.1-0.1,0.1-0.3l0.9-0.2c0.1,0,0.3-0.1,0.4,0l1.6,0.2c0.1,0,0.6,0,0.7,0h0.3c0.1,0,0.4,0,0.4,0c0.1,0,0.9-0.1,1-0.1
			s0.6,0,0.7,0.1c0.1,0,0.9,0.2,1,0.1l0.4,0.1c0.1,0,1.1,0.2,1.3,0.2c0.4,0,0.6,0.1,1,0.2c0.8,0.2,1.6,0.4,2.4,0.7l1.3,0.5
			c0.2,0.1,0.4,0.1,0.6,0.2c0.2,0.1,0.5,0.2,0.6,0.4c0,0.1,0.1,0.2,0.1,0.4s-0.1,0.4-0.3,0.5c0,0.1-0.4,0.2-0.4,0.2l-0.6,0.3
			c-0.1,0.1-0.6,0.3-0.8,0.3l-0.9,0.3c-0.1,0-0.3,0.1-0.4,0.1c0.4,0.3,0.7,0.8,0.8,1c0.1,0.1,0.3,0.3,0.4,0.5
			c0.3,0.5,0.5,0.9,0.7,1.4c0,0.1,0.1,0.2,0.1,0.3l0.2,0.6c0,0.1,0,0.2,0,0.4s-0.2,0.4-0.3,0.7c-0.1,0.1-0.2,0.5-0.2,0.6l-0.1,0.1
			L170,121c-0.1,0.1-0.2,0.4-0.5,0.5l-0.1,0.1c-0.1,0-0.3,0.3-0.3,0.4c-0.2,0.1-0.5,0.3-0.7,0.5c-0.1,0.1-0.5,0.4-0.6,0.4
			c0,0.1,0,0.1,0,0.2c0.2,0.2,0.4,0.5,0.7,0.8l0.2,0.4c0,0.1,0.2,0.3,0.2,0.4l0.3,0.4c0.3,0.6,0.8,1.1,1.2,1.6
			c0,0.1,0.1,0.3,0.1,0.4c0,0.1,0,0.3,0,0.5c0,0.1-0.1,0.4-0.2,0.5l-0.3,0.5c-0.1,0.1-0.1,0.3-0.2,0.4c-0.1,0.2-0.3,0.5-0.4,0.7
			l-0.7,0.7c-0.2,0.2-0.4,0.6-0.7,0.8c-0.2,0.2-1.3,0.9-1.5,1l-0.5,0.3l-0.5,0.2c-0.2,0.1-0.3,0.2-0.5,0.3l-0.7,0.2l-1.6,0.4
			c0,0-0.3,0.1-0.4,0.1c-0.4,0-0.8,0.1-1.2,0c-0.2-0.1-0.5-0.2-0.7-0.2c-0.2,0-0.5,0-0.7-0.1c-0.1,0-0.1,0-0.1,0s-0.5-0.3-0.7-0.3
			c-0.1,0-0.2-0.1-0.3-0.1c0,0-0.2-0.1-0.3-0.1c-0.2-0.1-0.5-0.4-0.7-0.5c-0.1-0.1-0.2-0.2-0.3-0.4c0,0-0.3-0.4-0.4-0.4
			c-0.5-0.6-0.7-1.3-0.9-2c0-0.2-0.1-0.5-0.2-0.7l-1.3-2c0-0.2-0.3-0.3-0.2-0.6v-0.1c0.2,0,0.3,0,0.6,0.1l0.4,0.1
			c0.2,0,0.4,0.1,0.7,0.1c0.2,0,0.4,0.1,0.5,0.2c0,0,0.2,0.1,0.3,0.1l2.5,0.6l0.6,0.2c0.3,0.2,0.6,0.2,0.9,0.3l0.6,0.1
			c0.2,0,0.4,0.1,0.7,0.2c0.3,0,0.6,0.1,0.8,0.1c1.7,0.2,1.7,0.2,1.7,0.2c0.2,0.1,0.9,0.1,0.9,0.1c0.1,0,0.4,0,0.4,0
			c0.2-0.1,0.5-0.1,0.6-0.1c0.2-0.1,0.3-0.2,0.6-0.3c0.2-0.2,0.5-0.3,0.5-0.6c0.1-0.2-0.1-0.5-0.2-0.8c-0.3-0.4-0.4-1.1-0.8-1.7
			l-0.6-0.7c-0.1-0.1-0.1-0.1-0.3-0.2h-0.3c-0.3,0-0.5,0-0.9,0.1h-0.2l-0.4-0.1c-0.3,0-0.6,0.1-0.9,0.1h-0.2c-0.1,0-0.6-0.1-0.7-0.1
			c-0.1,0-0.3-0.1-0.4-0.2c-0.2-0.1-0.4-0.2-0.5-0.4l-0.7-0.4l-0.1-0.1c-0.4-0.4-0.6-0.7-0.9-1.2c-0.1,0-0.5-0.4-0.5-0.5
			c0,0-0.1,0-0.1-0.1l-0.4-0.3l-0.8-0.8c0,0-0.3-0.4-0.4-0.5l-0.1-0.1l-0.5-0.4l-0.4-0.4c-0.1,0-0.5-0.3-0.6-0.4
			c-0.1-0.2-0.4-0.4-0.4-0.7c0-0.2,0.2-0.3,0.4-0.3c0.1,0,0.3-0.1,0.4-0.1C156.6,117.2,156.8,117.1,156.9,117.1z"/>
		<path d="M157.6,134.6c0.8,0.4,0.8,0.5,0.8,0.5c0.1,0,0.2,0.1,0.2,0.2c0.1,0.1,0.3,0.2,0.4,0.3l0.7,0.6c0.2,0.2,0.4,0.3,0.6,0.5
			l0.4,0.5c0.1,0,0.3,0.3,0.4,0.5c0.1,0.1,0.4,0.7,0.5,0.9l0.2,0.3c0.1,0.2,0.5,0.9,0.6,1c0.1,0.2,0.3,0.4,0.5,0.7l0.2,0.4
			c0,0.2,0,0.3,0,0.4c0.2,0.7,0.3,1.4,0.2,2.2c0,0.1-0.1,0.4,0,0.4c-0.1,0.4-0.2,0.7-0.2,1.1l-0.3,1.1c0,0.1,0,0.2-0.1,0.4
			c-0.1,0.4-0.3,0.7-0.5,1l-0.5,0.9c-0.1,0.3-0.4,0.6-0.7,0.9c-0.1,0.2-0.3,0.5-0.5,0.7l-0.6,0.5c-0.2,0-0.2,0.2-0.4,0.3
			c-0.4,0.2-0.7,0.5-1.1,0.6l-1.1,0.3c-0.2,0-0.7,0.1-0.9,0.1c-0.1,0-0.5-0.1-0.7-0.1c-0.2-0.1-0.7-0.3-0.7-0.3
			c-0.1,0-0.5-0.2-0.7-0.3c-0.3-0.2-0.7-0.4-1-0.7l-0.1-0.1c0,0-0.2-0.2-0.3-0.2l-0.1-0.2l-0.1-0.4c-0.1,0-0.2-0.4-0.3-0.5
			s0-0.3,0-0.5c0-0.1,0.1-0.3,0.1-0.4l-0.1-0.4c0-0.1,0-0.2,0-0.3c0-0.2-0.1-0.4-0.1-0.5s0.1-0.7,0.1-0.8V146c0-0.3,0-0.5,0.1-0.8
			c0-0.1,0-0.5,0-0.6c0.1-0.2,0.1-0.4,0.2-0.8c0.1-0.3,0.2-0.6,0.4-0.9c0.2-0.6,0.5-1,0.9-1.6c0,0-0.1-0.1-0.2-0.1
			c-0.1,0-0.2-0.1-0.4-0.2c-0.1,0-0.1,0-0.2,0c-0.2,0-0.4-0.1-0.6-0.2l-1.4-0.2c-0.4-0.1-0.8,0-1.2,0.1l-0.1,0.1
			c-0.2,0.1-0.5-0.1-1.2,0.5c-0.1,0-0.9,0.8-1.1,1.2c-0.2,0.3-0.5,0.7-0.6,1c0,0.2-0.2,0.4-0.2,0.6c0,0.1,0,0.2,0,0.2
			s-0.1,0.4,0,0.5c0,0.1,0,0.2,0,0.3l0.2,0.5c0.2,0.4,0.4,0.8,0.6,1.2c0.1,0.1,0.2,0.1,0.3,0.3c0.1,0.1,0.2,0.2,0.2,0.3
			s0.2,0.1,0.2,0.1c0.2,0.1,0.5,0,0.5,0c0.2,0.1,0.2-0.1,0.4-0.3c0.2-0.2,0.5-0.2,0.7-0.1c0.1,0,0.3,0.1,0.3,0.2
			c0.1,0.3,0.3,0.6,0.2,0.9c0,0.1-0.1,0.4-0.1,0.5v0.2v0.2l-0.3,0.5c-0.2,0.3-0.6,0.6-1,0.6l-0.2,0.1c-0.1,0-0.2,0.1-0.4,0l-0.3-0.1
			c-0.5-0.1-0.7-0.4-1.1-0.8l-0.3-0.2c0-0.1-0.3-0.2-0.3-0.3c-0.4-0.5-0.6-1-0.8-1.5c0-0.1-0.1-0.2-0.1-0.4l-0.1-0.4v-0.2l-0.3-1.8
			c0-0.4,0.1-0.8,0.1-1.2c0.1-1.1,0.2-1.4,0.2-1.5s0,0,0.1-0.3c0.1-0.2,0.2-0.6,0.3-0.7l0.4-0.9c0-0.1,0.5-1.2,0.5-1.4
			c0,0,0.2-0.4,0.3-0.5c0.4-0.7,0.8-1.3,1.4-1.8c0.2-0.2,0.5-0.5,0.8-0.6l1.9-1c0.1,0,0.3-0.1,0.4-0.1c0.3-0.2,0.7-0.3,1.1-0.4
			c0.3-0.1,0.7-0.2,1-0.2c0.1,0,0.3,0,0.5,0c0.1,0,0.3,0,0.3,0l2.1,0.3L157.6,134.6z M155.6,142c0,0-0.3,0.4-0.3,0.5
			c-0.1,0.1-0.2,0.2-0.3,0.3c-0.1,0.2-0.2,0.5-0.3,0.8s-0.2,0.6-0.3,1.1c0,0.3-0.1,0.6-0.1,0.8l-0.1,1c-0.1,0.2,0.1,0.4,0,0.6
			c0,0.2,0,0.3,0,0.5l0.2,1.8c0,0.1,0.2,0.2,0.3,0.2s0.3,0.2,0.3,0.2h0.2c0.4,0,0.8,0.1,1.1,0c0,0,0.2,0,0.2-0.1
			c0.5-0.1,0.9-0.1,1.4-0.3c0.3-0.2,0.6-0.3,0.8-0.6c0-0.1,0.2-0.2,0.3-0.4c0.1-0.5,0.2-0.9,0.3-1.3c0-0.1,0-0.2,0-0.3v-0.7
			c0-0.1,0-0.3-0.1-0.4l-0.3-0.6c-0.5-0.8-1-1.4-1.7-2l-0.8-0.7c-0.2-0.2-0.3-0.5-0.7-0.6C155.7,141.9,155.6,141.9,155.6,142z"/>
		<path d="M147.2,151.4l0.4,0.3c0.1,0.1,0.3,0.2,0.5,0.3c0.7,0.6,0.8,0.6,0.8,0.6l1.2,0.9l0.3,0.3c0.1,0.1,0,0.1,0.1,0.2l0.7,0.6
			c0.3-0.2,0.5-0.4,0.7-0.7l0.5-0.7c0.1-0.1,0.3-0.2,0.5-0.2c0,0,0.1,0,0.2,0.1s0.1,0.1,0.2,0.3c0.1,0.1,0.2,0.3,0.1,0.5l-0.1,0.1
			c-0.2,0.2-0.1,0.2-0.5,0.7l-0.2,0.3l-0.5,0.6c0,0,0.5,0.6,0.6,0.8c0,0,0.1,0.1,0.1,0.2c0,0,0.4,0.4,0.5,0.4
			c0.2,0.2,0.4,0.5,0.4,0.7c0,0.1,0.1,0.1,0.2,0.2c0.1,0.2,0.3,0.3,0.4,0.6c0.1,0.1,0.4,0.5,0.4,0.6l0.1,0.3l0.3,0.4
			c0.1,0.1,0.2,0.2,0.3,0.2c0.2,0.2,0.3,0.6,0.3,0.8c0,0.1,0,0.1,0,0.2c0,0-0.1,0-0.1,0.1l-0.1,0.1c-0.1,0.1-0.2,0.1-0.3,0.2l-1,0.1
			h-0.3c-0.2,0.1-0.3,0-0.5,0c-0.2,0-1.1-0.2-1.2-0.2s-0.3-0.1-0.4-0.1c0,0-0.5-0.3-0.6-0.3c-0.2-0.1-0.4-0.2-0.6-0.2
			c0,0.1-0.3-0.1-0.3-0.1l-0.2-0.1c0,0-0.5-0.3-0.6-0.3l-0.6-0.4c0,0-0.4,0.6-0.7,1c-0.1,0.2-0.3,0.3-0.3,0.4c0,0-0.4,0.4-0.4,0.5
			c-0.2,0.2-0.5,0.5-0.8,0.5c0,0-0.2,0-0.3,0s-0.2-0.1-0.3-0.1L146,162v-0.1c0-0.2,0.1-0.5,0.2-0.6l0.1-0.1c0,0,0.3-0.2,0.3-0.3
			l0.2-0.3c0-0.1,0.4-0.7,0.5-0.9c0-0.1,0.1-0.2,0.2-0.3s0.2-0.3,0.3-0.3l0.1-0.1c-0.1,0-0.3-0.3-0.3-0.3c-0.2-0.2-0.2-0.3-0.5-0.5
			c-0.2-0.1-0.3-0.3-0.4-0.3c-0.2-0.2-0.3-0.4-0.5-0.6c-0.1,0-0.1-0.1-0.2-0.1c0,0-0.1,0-0.1-0.1s-0.2-0.3-0.2-0.4l-0.1-0.2
			l-0.3-0.5l-0.2-0.2c-0.1-0.1-0.6-0.3-0.7-0.4l-0.3-0.2l-1.4-1.2c-0.3,0-0.4-0.2-0.7-0.2h-0.3c-0.1,0-0.4,0.1-0.5,0.2
			c-0.1,0-0.2,0.1-0.3,0.2l-0.1,0.1c-0.1,0.1-0.2,0.2-0.2,0.2s-0.1,0.3-0.1,0.4v0.1c0,0.2,0.1,0.5,0.1,0.7c0.1,0.2,0.4,0.7,0.5,0.8
			s0.2,0.3,0.2,0.3c0.1,0,0.3,0.1,0.3,0.1l0.1-0.1c0.2-0.2,0.4-0.4,0.7-0.2h0.1c0.1,0.1,0.2,0.2,0.2,0.4s-0.2,0.5-0.3,0.6
			s-0.2,0.1-0.3,0.1l-0.5,0.2c-0.1,0.1-0.3,0.1-0.4,0c-0.2,0-0.4-0.1-0.6-0.3c-0.3-0.2-0.5-0.5-0.8-0.7c-0.1-0.2-0.4-0.4-0.4-0.6
			l-0.1-0.5c-0.1-0.1-0.1-0.3-0.2-0.4c-0.1-0.3-0.1-0.6-0.1-0.9c0-0.1,0.1-0.3,0.1-0.4c0.1-0.2,0.1-0.6,0.2-0.7
			c0.1-0.1,0.1-0.2,0.1-0.3V153c0.1-0.1,0.4-0.5,0.4-0.6s0.2-0.4,0.2-0.4l0.1-0.2c0.3-0.3,0.6-0.6,0.9-0.8l0.2-0.1l0.7-0.3l0.3-0.1
			l0.3-0.1c0.2-0.1,0.4-0.2,0.7-0.2c0.1,0,0.8,0,0.9,0h0.2l0.7,0.1c0,0,0.1,0,1.6,0.7C147,151.3,147.2,151.4,147.2,151.4z"/>
		<path d="M142.6,160.6c0.5,0.5,0.5,0.5,0.5,0.5s0.1,0.1,0.1,0.2c0,0.1,0.2,0.2,0.2,0.3l0.4,0.6c0.1,0.2,0.3,0.3,0.3,0.5l0.2,0.5
			c0.1,0.1,0.1,0.3,0.2,0.4c0,0.1,0.1,0.6,0.2,0.7l0.1,0.3c0,0.2,0.2,0.7,0.2,0.9c0.1,0.2,0.2,0.4,0.2,0.6v0.3
			c0,0.1-0.1,0.2-0.1,0.3c0,0.6-0.1,1.1-0.3,1.6l-0.1,0.3c-0.1,0.3-0.3,0.5-0.4,0.8l-0.5,0.8c0,0.1,0,0.1-0.1,0.3
			c-0.2,0.3-0.3,0.4-0.6,0.7l-0.6,0.6c-0.2,0.2-0.4,0.4-0.7,0.5c-0.1,0.1-0.3,0.3-0.5,0.4l-0.5,0.2c-0.1,0-0.2,0.1-0.4,0.2
			c-0.3,0.1-0.6,0.2-0.9,0.2h-0.9c-0.1,0-0.5,0-0.7-0.1c-0.1,0-0.4-0.2-0.5-0.2c-0.1-0.1-0.5-0.3-0.5-0.4c0,0-0.3-0.3-0.5-0.4
			c-0.2-0.2-0.4-0.5-0.6-0.7v-0.1c0,0-0.1-0.2-0.2-0.2c0,0,0-0.1,0-0.2v-0.3l-0.1-0.4c0-0.1,0-0.2,0.1-0.3c0,0,0.1-0.2,0.2-0.3v-0.3
			c0-0.1,0-0.1,0-0.2c0-0.1,0-0.3,0.1-0.4c0-0.1,0.2-0.5,0.2-0.6c0,0,0.1-0.1,0.1-0.2c0-0.2,0.1-0.4,0.2-0.6c0-0.1,0.1-0.4,0.2-0.5
			c0.1-0.1,0.1-0.3,0.3-0.6c0.1-0.2,0.3-0.4,0.4-0.6c0.2-0.4,0.6-0.7,1-1l-0.1-0.1c-0.1-0.1-0.1-0.1-0.3-0.2c-0.1,0-0.1,0-0.2-0.1
			c-0.1-0.1-0.2-0.2-0.4-0.3l-1-0.4c-0.3-0.1-0.6-0.2-0.9-0.2h-0.1c-0.1,0-0.3-0.2-1,0.2c-0.1,0-0.8,0.5-1.1,0.7
			c-0.2,0.2-0.5,0.4-0.7,0.7c-0.1,0.2-0.2,0.3-0.3,0.4l-0.1,0.1l-0.1,0.3v0.2v0.4c0,0.3,0.2,0.7,0.2,1c0.1,0.1,0.1,0.1,0.2,0.3
			c0,0.1,0.1,0.2,0.1,0.3s0.1,0.1,0.1,0.1c0.1,0.1,0.3,0.1,0.3,0.1c0.1,0.1,0.2-0.1,0.3-0.1c0.2-0.1,0.4-0.1,0.5,0
			c0.1,0,0.2,0.1,0.2,0.2c0.1,0.2,0.1,0.5,0,0.8c0,0-0.1,0.3-0.2,0.3v0.1l-0.1,0.1l-0.3,0.3c-0.2,0.2-0.6,0.4-0.9,0.2h-0.2
			c-0.1,0-0.2,0-0.3,0l-0.2-0.1c-0.3-0.2-0.5-0.5-0.7-0.8l-0.2-0.2c0-0.1-0.1-0.2-0.2-0.3c-0.2-0.4-0.2-0.9-0.3-1.3
			c0.1-0.1,0-0.2,0-0.3v-0.4v-0.1l0.2-1.1c0-0.3,0.2-0.6,0.3-0.9c0.3-0.8,0.4-1,0.4-1.1s0,0,0.1-0.2c0.1-0.1,0.3-0.4,0.4-0.5
			l0.5-0.6c0.1-0.1,0.6-0.8,0.7-0.9c0,0,0.2-0.3,0.3-0.3c0.4-0.4,0.9-0.8,1.4-1.1c0.2-0.1,0.5-0.2,0.7-0.3l1.6-0.4
			c0.1,0,0.2,0,0.3,0c0.3-0.1,0.6-0.1,0.9-0.1s0.5,0,0.8,0c0.1,0.1,0.2,0.1,0.4,0.1h0.2l1.5,0.6L142.6,160.6z M139.7,165.7l-0.3,0.3
			c-0.1,0.1-0.2,0.1-0.3,0.2c-0.1,0.1-0.2,0.3-0.4,0.5c-0.1,0.2-0.2,0.4-0.4,0.8c-0.1,0.2-0.2,0.4-0.3,0.6l-0.2,0.7
			c-0.1,0.1,0,0.3-0.1,0.4c0,0.1-0.1,0.2-0.1,0.4l-0.2,1.4c0,0.1,0.1,0.2,0.2,0.2s0.2,0.2,0.2,0.2l0.1,0.1c0.3,0.1,0.6,0.2,0.8,0.2
			h0.1c0.4,0,0.7,0.1,1.1,0c0.2-0.1,0.5-0.1,0.7-0.3c0.1-0.1,0.2-0.1,0.3-0.2c0.2-0.3,0.3-0.6,0.5-0.9c0-0.1,0-0.2,0-0.2l0.1-0.5
			c0-0.1,0-0.3,0-0.3l-0.1-0.5c-0.2-0.7-0.5-1.3-0.9-1.8l-0.5-0.6C139.9,166.2,139.9,166,139.7,165.7
			C139.8,165.6,139.7,165.7,139.7,165.7z"/>
		<path d="M127.3,168.6l0.3,0.2c0,0,0.1,0,0.2,0.1c0.1,0.1,0.2,0.1,0.3,0.2c0,0,0.3,0.1,0.4,0.1c0,0,0.2,0.1,0.2,0.2
			c0.1,0,0.4,0.3,0.6,0.4c0.1,0.1,0.3,0.3,0.4,0.3l1.4,0.9c0.1,0.1,0.3,0.3,0.5,0.4c0.1,0.1,0.4,0.5,0.4,0.5l0.5,0.8
			c0.2,0.2,0.3,0.4,0.5,0.7l0.3,0.3c0,0.1,0.2,0.3,0.2,0.3l0.6,0.9c0.1,0.1,0.3,0.5,0.3,0.5l0.3,0.3c0.2,0.3,0.3,0.6,0.5,0.9
			c0.2,0.3,0.4,0.6,0.3,1c-0.1,0.1-0.1,0.2-0.2,0.3s-0.1,0.1-0.2,0.1c-0.2,0.1-0.4,0-0.6-0.1l-0.3-0.1c-0.2-0.1-0.6-0.2-0.6-0.2
			s0,0.2-0.1,0.2v0.2l-0.1,0.7c0,0.1-0.1,0.3-0.1,0.3c0,0.1-0.1,0.3-0.2,0.4c0,0-0.1,0.1-0.1,0.2c0,0.1-0.2,0.3-0.2,0.3l-0.1,0.2
			l-0.2,0.2c-0.1,0.1-0.3,0.2-0.4,0.3l-0.3,0.3c-0.1,0.1-0.3,0.1-0.5,0.1h-0.1c-0.2,0-0.4,0-0.6,0c-0.1,0-0.1-0.1-0.2-0.1
			c-0.1,0-0.3-0.1-0.3-0.2c-0.1-0.1-0.3-0.2-0.2-0.4c0-0.3,0-0.4,0.3-0.7c0.2-0.3,0.4-0.3,0.7-0.2c0,0,0.1,0,0.2,0
			c0.1,0,0.2,0,0.3,0c0,0,0.2-0.1,0.3-0.2c0.1-0.2,0.2-0.4,0.3-0.6v-0.4c-0.1-0.2,0-0.2,0-0.4c0-0.1,0-0.2,0-0.3v-0.4
			c0-0.1,0-0.2,0-0.2c0-0.1-0.1-0.2-0.1-0.3c-0.1-0.1-0.1-0.1-0.2-0.1l-0.5-0.4l-0.5-0.2l-0.7-0.4c-0.1,0-0.4-0.3-0.5-0.4l-0.9-0.8
			c-0.3-0.3-0.6-0.7-0.9-1c0,0-0.1-0.1-0.1-0.2c0-0.2-0.1-0.4-0.2-0.7l-0.1-0.2c-0.1-0.1-0.1-0.3-0.2-0.4c0-0.4,0-0.6,0-0.9
			c0-0.1-0.1-0.2,0-0.7c0-0.1-0.1-0.3-0.1-0.5s-0.2-0.3-0.2-0.5v-0.3c0-0.1,0-0.1,0-0.2c0-0.1,0.1-0.1,0.1-0.2c0,0,0.2-0.1,0.3-0.1
			L127.3,168.6z"/>
	</g>
	<g>
		<g>
			<path class="st5" d="M72.7,133.8c0.1-0.6,0.1-0.7,0.1-0.7s0-0.2,0.1-0.2c0.1-0.1,0-0.3,0.1-0.3l0.2-0.6c0.1-0.2,0.1-0.4,0.2-0.5
				l0.2-0.4c0-0.1,0.2-0.3,0.2-0.4c0-0.1,0.4-0.4,0.5-0.5l0.2-0.2c0.1-0.1,0.5-0.5,0.5-0.6c0.1-0.1,0.2-0.3,0.4-0.5l0.2-0.2
				c0.1-0.1,0.2,0,0.3-0.1c0.4-0.3,0.9-0.5,1.4-0.7l0.3-0.1c0.3-0.1,0.5-0.1,0.8-0.1h0.8c0.1,0,0.1,0,0.3,0c0.3,0,0.5,0,0.8,0.1
				l0.8,0.1c0.2,0,0.5,0.1,0.8,0.3c0.2,0,0.4,0.1,0.6,0.1l0.4,0.3c0.1,0.1,0.2,0.1,0.3,0.2c0.2,0.2,0.5,0.4,0.7,0.6l0.5,0.7
				c0,0.1,0.2,0.4,0.3,0.6c0,0.1,0.1,0.4,0.1,0.5s0,0.5,0,0.6c0,0,0,0.4,0,0.5c0,0.3-0.1,0.5-0.3,0.8v0.1l-0.1,0.2l-0.1,0.1
				l-0.2,0.2c0,0-0.2,0.2-0.3,0.3s-0.2,0.1-0.3,0.1c0,0-0.2,0-0.3,0l-0.2,0.1c-0.1,0-0.1,0-0.2,0.1c-0.1,0.1-0.2,0.2-0.3,0.2
				s-0.5,0.1-0.6,0.1c0,0-0.1,0-0.2,0c-0.2,0.1-0.4,0.1-0.6,0.1l-0.4,0.1c-0.2,0-0.3,0.1-0.6,0.1c-0.2,0-0.5,0-0.7,0
				c-0.4,0-0.8-0.1-1.3-0.2v0.1c0,0.1,0,0.2,0,0.3s0,0.1,0,0.2c0,0.1,0,0.3,0,0.5l0.2,1c0.1,0.3,0.2,0.6,0.3,0.8c0,0,0.1,0,0.1,0.1
				c0.1,0.1,0.1,0.3,0.6,0.6c0,0.1,0.8,0.4,1,0.5c0.2,0,0.5,0.2,0.8,0.2c0.2,0,0.3,0,0.4,0h0.1c0,0,0.3,0,0.3-0.1l0.2-0.1l0.3-0.2
				c0.2-0.2,0.4-0.5,0.6-0.7c0-0.1,0-0.2,0.1-0.3c0-0.1,0.1-0.2,0.1-0.2c0.1,0,0-0.1,0-0.2c0-0.1-0.1-0.3-0.1-0.3
				c0-0.1-0.1-0.1-0.3-0.2c-0.1-0.1-0.3-0.2-0.3-0.4c0-0.1,0-0.2,0-0.3c0.1-0.2,0.3-0.4,0.6-0.4h0.3l0.1-0.1h0.1l0.4,0.1
				c0.3,0.1,0.6,0.3,0.6,0.5l0.1,0.1c0,0.1,0.1,0.1,0.1,0.2v0.2c0,0.4-0.1,0.6-0.3,0.9c0,0,0,0.2-0.1,0.2c0,0-0.1,0.2-0.1,0.3
				c-0.2,0.3-0.5,0.6-0.8,0.9c-0.1,0-0.1,0.1-0.2,0.2l-0.3,0.2h-0.1l-0.9,0.4c-0.2,0.1-0.6,0.1-0.8,0.2c-0.8,0.2-1,0.2-1,0.2
				c-0.1,0,0,0-0.2,0c-0.1,0-0.4,0-0.6,0l-0.7-0.1c-0.1,0-0.9,0-1,0c0,0-0.3,0-0.4-0.1c-0.5-0.1-1.1-0.2-1.5-0.5
				c-0.2-0.1-0.4-0.2-0.6-0.4l-1.1-1c0-0.1-0.1-0.2-0.1-0.2c-0.2-0.2-0.3-0.4-0.5-0.6c-0.1-0.2-0.3-0.4-0.4-0.6c0-0.1,0-0.2-0.1-0.3
				l-0.1-0.2l-0.3-1.4L72.7,133.8z M78.1,133.4c0,0,0.3,0.1,0.4,0.1s0.2,0.1,0.3,0.1c0.2,0,0.3,0,0.6,0c0.2,0,0.5,0,0.8-0.1
				c0.2-0.1,0.4-0.1,0.6-0.1l0.7-0.2c0.1,0,0.2-0.2,0.4-0.2c0.1,0,0.2,0,0.3-0.1l1.1-0.6c0,0,0.1-0.1,0.1-0.2c0-0.1,0-0.2,0-0.2
				v-0.1c-0.1-0.3-0.1-0.5-0.2-0.8l-0.1-0.1c-0.2-0.3-0.3-0.6-0.5-0.9c-0.2-0.1-0.3-0.3-0.6-0.4c-0.1,0-0.2-0.1-0.3-0.1
				c-0.3,0-0.6,0.1-0.9,0.1c-0.1,0-0.1,0.1-0.2,0.1l-0.5,0.2c-0.1,0-0.2,0.1-0.3,0.1l-0.3,0.3c-0.4,0.5-0.7,1-0.9,1.6l-0.2,0.7
				C78.1,132.9,78,133.1,78.1,133.4C78,133.4,78,133.4,78.1,133.4z"/>
			<path class="st5" d="M92.6,139.4c0-0.1,0-0.1,0-0.2c0,0,0-0.3,0-0.4l-0.2,0.1c-0.1,0.1-0.5,0.2-0.6,0.2c-0.2,0.1-0.5,0.1-0.7,0.1
				c0,0-0.7,0.1-1.3,0.1c0,0-0.8-0.2-1.1-0.2c-0.1,0-0.2-0.1-0.3-0.1c-0.3-0.1-0.6-0.3-0.8-0.5c-0.1-0.1-0.4-0.4-0.4-0.5
				c-0.1-0.2-0.2-0.4-0.3-0.6c-0.1-0.3-0.3-0.6-0.4-0.9v-0.4c0-0.2-0.1-0.3-0.2-0.5c0-0.1,0-0.3,0-0.4V135c0-0.1,0-0.3,0.1-0.5
				c0.1-0.1,0.1-0.3,0.2-0.4c0.1-0.2,0.2-0.4,0.2-0.6c0.1-0.1,0.1-0.3,0.2-0.3c0-0.1,0.1-0.2,0.1-0.2c0.2-0.3,0.5-0.6,0.8-0.7
				l0.2-0.1l0.6-0.3c0.1-0.1,0.4-0.1,0.5-0.1c0.3-0.1,0.7-0.1,1-0.2c0,0,0,0,0.1,0c0.3,0,0.4,0.1,0.5,0.1h0.3c0.1,0,0.4,0.1,0.4,0.1
				c0.1,0,0.4,0.1,0.4,0.1c0.1,0,0.3,0,0.4,0.1v-0.1l0.1-0.8c0,0,0.2-1.1,0.3-1.5c0,0,0.1-0.3,0.1-0.4c0-0.1,0.1-0.3,0.1-0.5
				c0.1-0.2,0.1-0.5,0.2-0.7l0.1-1.2l0.1-0.3V126c0-0.2,0.2-0.5,0.4-0.6c0-0.1,0-0.1,0.1-0.2c0,0,0.1-0.2,0.1-0.3l0.1-0.2l0.1-0.1
				c0.1-0.1,0.2-0.1,0.3-0.1s0.1,0,0.2,0.1c0.1,0.1,0.2,0.2,0.2,0.4c0,0,0,0.2,0.1,0.3l0.1,0.1c0,0.1,0.1,0.1,0.1,0.1
				c0.3,0.5,0.3,0.5,0.3,0.5s0.1,0.2,0.1,0.3c0.1,0.3,0.2,0.6,0.2,0.9c0.1,0.3,0.1,0.7,0.1,1c0,0,0.1,0.2,0.1,0.3s0,0.1,0,0.2
				c0,0.1,0,0.1,0,0.2c0.1,0.1,0,0.2,0,0.3v0.2c0,0.1,0,0.5,0,0.5c0,0.2,0,0.3,0,0.5c0,0.1,0.1,0.6,0,0.6c0,0,0,0.1,0,0.2
				c0,0.3-0.1,0.7-0.1,1c0,0,0,0.5,0,0.6v0.5v0.5l-0.1,0.3c0,0.3-0.1,0.5-0.2,0.8l-0.2,0.4c0,0.2-0.1,0.3-0.1,0.5
				c-0.1,0.2,0,0.4-0.1,0.6l-0.2,0.3l-0.2,0.2c-0.1,0.1-0.1,0.3-0.2,0.4c-0.1,0.1-0.2,0.2-0.2,0.4c0,0.1-0.1,0.3-0.1,0.4l-0.1,0.2
				c-0.1,0.2-0.2,0.4-0.3,0.6l-0.2,0.3c0,0.1-0.1,0.2-0.2,0.2c-0.2,0.2-0.2,0.2-0.3,0.4l-0.2,0.2c0,0.1-0.1,0.1-0.1,0.1h-0.2
				c-0.1-0.1-0.1-0.2-0.1-0.2C92.6,139.7,92.6,139.6,92.6,139.4z M88.6,136.2c0,0,0,0.2,0,0.3c0,0,0,0.4,0,0.5l0.1,0.3
				c0,0,0.1,0.2,0.1,0.3c0.2,0.3,0.4,0.5,0.7,0.6c0,0.1,0.4,0.1,0.5,0.2c0.1,0,0.2,0,0.3,0c0.3,0,0.6,0,0.9-0.1
				c0.1,0,0.3-0.1,0.4-0.1c0,0,0.2-0.1,0.2-0.2c0.2-0.1,0.6-0.4,0.7-0.4v-0.1c0.1-0.8-0.1-1.6-0.1-2.5v-0.2c0,0,0-0.4-0.1-0.4
				c0-0.3-0.1-0.6-0.1-0.9c0-0.1,0-0.2,0-0.4c0-0.1,0-0.3,0.1-0.4c0,0-0.1,0-0.2,0h-0.3c-0.2,0-0.3,0.2-0.6,0.2
				c-0.1,0-0.2,0.1-0.3,0.1l-0.2,0.1c0,0-0.3,0.1-0.3,0.2c-0.3,0.2-0.6,0.2-0.8,0.4l-0.5,0.6l-0.5,0.4c0,0.2-0.2,0.4-0.2,0.5
				c0,0,0,0.1,0,0.2c0,0.1,0,0.2,0,0.4C88.6,135.7,88.6,136.1,88.6,136.2z"/>
			<path class="st5" d="M98.5,140.2c-0.1-0.2-0.1-0.4-0.1-0.6l-0.4-1.1l-0.1-0.1l-0.6-2c0-0.1-0.1-0.4-0.1-0.4
				c0-0.1-0.1-0.6-0.1-0.8v-0.3c0-0.1,0-0.3,0-0.4v-1.2c0,0,0-0.1,0-0.2c0.1-0.5,0.3-0.9,0.5-1.3l0.1-0.2c0-0.1,0.1-0.3,0.2-0.4
				c0-0.1,0.2-0.2,0.2-0.2l0.1-0.3c0-0.1,0.1-0.2,0.2-0.3l0.1-0.2l0.1-0.1l0.1-0.1c0,0,0.1,0,0.2,0c0.1,0,0.1,0.1,0.1,0.2
				c0.1,0,0.1,0.2,0.1,0.2c0,0.1,0.1,0.1,0.2,0.2l0.4,0.4c0.1,0.3,0.3,0.6,0.5,0.9l0.1,0.2c0.1,0.3,0.1,0.6,0.2,0.9l0.1,0.4
				c0,0.1,0.1,0.4,0.1,0.5c0,0.2,0,0.3,0,0.5c0,0.1-0.1,0.4-0.1,0.4c0,0.2-0.1,1.1-0.1,1.3v0.5c0,0.1-0.1,0.7-0.2,1
				c0,0.2-0.1,0.4-0.2,0.5c-0.1,0.1-0.1,0.2-0.2,0.3c0,0.1-0.2,0.4-0.3,0.5c0,0.1-0.1,0.4-0.1,0.5v0.1v0.1c0,0.1,0,0.2-0.1,0.2
				c-0.1,0.2-0.2,0.4-0.3,0.6c0,0.1-0.1,0.4-0.1,0.4c0,0.1-0.1,0.5-0.1,0.5c0,0.1-0.1,0.1-0.2,0.2c-0.1,0-0.1,0-0.1,0
				s-0.2,0-0.2-0.1c0-0.2,0-0.3-0.1-0.4c0-0.1,0-0.2,0-0.3C98.6,140.4,98.5,140.3,98.5,140.2z M98.2,128.1c-0.1,0-0.3-0.4-0.4-0.4
				l-0.1-0.2c0,0,0-0.1,0-0.2c0-0.1,0-0.2,0-0.3c0,0,0-0.2,0-0.3v-0.3c0-0.1,0.1-0.2,0.1-0.2s0-0.1,0-0.2c0,0,0-0.2,0.1-0.2
				c0,0,0.1-0.2,0.2-0.2c0-0.1,0.2-0.2,0.3-0.2s0.2,0.1,0.3,0.1s0.2-0.1,0.4-0.1s0.3,0.1,0.5,0.1c0.1,0,0.3,0.1,0.4,0.2
				c0,0,0.1,0,0.1,0.1l0.2,0.1c0.1,0.1,0.1,0.2,0.2,0.3l0.1,0.1c0,0.1,0.1,0.2,0.1,0.3c0,0.2-0.1,0.4-0.2,0.7c0,0.1,0,0.2-0.1,0.3
				c0,0-0.1,0.1-0.1,0.2c0,0.1-0.2,0.3-0.2,0.3c-0.1,0-0.2,0.2-0.2,0.2h-0.1c-0.1,0-0.1,0-0.3,0c-0.1,0-0.2,0-0.3-0.1
				c0,0-0.1,0-0.2,0l-0.3-0.1c0,0-0.1,0-0.2,0L98.2,128.1z"/>
			<path class="st5" d="M108.9,140.1c0-0.1,0-0.4,0-0.5s0-0.2,0-0.3v-0.1l-0.6,0.2l-0.5,0.3l-0.3,0.2c-0.1,0.1-0.3,0.2-0.4,0.3
				c-0.1,0-0.4,0.3-0.5,0.4l-0.3,0.1c-0.1,0-0.3,0.1-0.4,0.1c-0.1,0-0.3,0-0.3,0c-0.2,0-0.5-0.1-0.7-0.1c0-0.1-0.5-0.2-0.6-0.4
				c-0.1,0-0.2-0.1-0.3-0.2l-0.4-0.4c-0.2-0.1-0.3-0.3-0.5-0.5l-0.3-0.5l-0.1-0.2c-0.1-0.2-0.1-0.4-0.2-0.7l-0.1-0.5
				c0,0,0-0.3-0.1-0.3v-0.1c0-0.1-0.1-0.3-0.1-0.4c0-0.1,0-0.2,0-0.3s0-0.7,0-0.9v-0.4v-0.1v-0.9c0-0.1,0-0.3,0-0.4l0.1-0.9
				c0-0.1,0.1-0.3,0.1-0.3s0.1-0.3,0.2-0.4c0-0.1,0.1-0.3,0.2-0.4l0.2-0.3V131c0.1,0,0-0.2,0.2-0.3v-0.1c0.1-0.2,0.4-1,0.5-1.1
				c0.1-0.3,0.3-0.6,0.6-0.7c0.1,0,0.2-0.1,0.3-0.1c0.2,0,0.3,0.2,0.4,0.4v0.1c0,0.1,0.1,0.2,0.1,0.3v0.3c0,0.2,0,0.4,0,0.6
				c0.1,0.1,0.1,0.2,0.2,0.3c0,0,0,0.1,0.1,0.1l0.1,0.4c0,0.1,0,0.2,0,0.2c0,0.1-0.1,0.4-0.1,0.5v0.1c0,0.1-0.2,0.6-0.2,0.7
				c0,0.1,0,0.2-0.1,0.2L105,133c-0.1,0.2-0.1,0.5-0.2,0.7l-0.1,0.6v0.5l-0.2,1.8v0.9v0.1c0,0.3,0.2,0.6,0.3,0.9l0.1,0.1
				c0,0,0.4,0.3,0.5,0.3c0.1,0.1,0.3,0.1,0.4,0.2c0.3,0,0.5,0,0.8,0c0.1,0,0.2,0,0.2,0s0.4-0.1,1.5-0.7l0.2-0.2l0.6-0.4
				c0.1-0.1,0.1-0.1,0.1-0.1v-0.2c0-0.2,0-0.5,0-0.7c0-0.3,0-0.5,0-0.9c0,0,0,0,0-0.1c0-0.2,0.1-0.4,0.1-0.5v-0.2
				c0.1-0.3,0.1-0.6,0.1-0.9c0-0.1,0.1-1,0.2-1.1v-0.2v-0.3c0-0.1,0.1-0.5,0.1-0.6c0-0.3,0.1-0.9,0.1-0.9c0-0.1,0.1-0.3,0.1-0.4
				l0.1-0.5c0-0.1,0.1-0.1,0.1-0.3l0.2-0.7c0,0,0.1-0.1,0.1-0.2c0.1-0.1,0.2-0.3,0.3-0.3c0,0,0.2-0.1,0.3-0.1c0.2,0,0.6,0.3,0.7,0.4
				c0.1,0.1,0.3,0.3,0.4,0.4l0.3,0.4l0.1,0.2c0.1,0.1,0.1,0.2,0.2,0.4c0.1,0.1,0.4,0.5,0.4,0.6l0.1,0.1l0.2,0.3
				c0.2,0.3,0.3,0.7,0.3,1v0.1c0,0.1,0.1,0.2,0.1,0.2v0.2c0,0,0.1,0.6,0.1,0.7v0.1c0,0.3,0,0.6,0,0.9c0,0-0.1,0.2-0.1,0.3l-0.1,0.4
				c0,0.4-0.2,0.7-0.2,1c0,0.1-0.1,0.3-0.1,0.3v0.3l-0.1,0.2l-0.1,0.2l-0.1,0.1v0.2c0,0.2-0.1,0.3-0.2,0.4c0,0.1-0.2,0.3-0.3,0.3
				l-0.3,0.3l-0.2,0.3c-0.2,0.2-0.4,0.3-0.6,0.5c0,0-0.1,0-0.1,0.1s-0.3,0.4-0.3,0.5s-0.1,0.2-0.1,0.2c-0.1,0.1-0.3,0.3-0.4,0.4
				c0,0-0.2,0.2-0.3,0.2c-0.1,0.1-0.1,0-0.1,0.1c-0.2,0.2-0.3,0.3-0.6,0.4h-0.1c-0.4,0-0.4-0.3-0.5-0.6L108.9,140.1z"/>
			<path class="st5" d="M120.4,139.4c0-0.1,0-0.4,0-0.4s0-0.1,0-0.2c0-0.1,0-0.2,0-0.3s0-0.2,0-0.4v-0.4c0-0.4,0-0.7,0.1-1v-0.2
				c0,0,0,0,0-0.3c0-0.1,0-0.5,0-0.5v-0.6c0-0.2,0-0.5-0.1-0.7c0-0.1,0-0.4,0-0.4c0-0.1,0-0.1,0-0.4v-0.1v-0.2c0-0.1,0-0.3,0-0.4
				c0-0.1-0.1-0.3-0.1-0.5c0-0.1-0.1-0.4-0.1-0.4c0-0.1-0.2-0.4-0.2-0.4c-0.2-0.3-0.2-0.3-0.2-0.3c-0.1-0.1-0.1-0.2-0.3-0.2
				c-0.1,0-0.3,0-0.4,0.1l-0.4,0.3c0,0.1-0.2,0-0.3,0.3l-0.4,0.4c0,0.1-0.2,0.3-0.3,0.4c-0.1,0.1-0.1,0.1-0.2,0.2l-0.3,0.5
				c-0.1,0.2-0.1,0.3-0.2,0.5c0,0.1,0,0.2,0,0.3v0.2c0,0.1,0,0.7,0,0.8c-0.1,1.5-0.2,1.9-0.3,2.2c-0.2,0.5-0.4,0.8-0.6,1.3l-0.1,0.1
				c-0.1,0.1-0.1,0.2-0.1,0.3c0,0,0,0.2-0.1,0.3c0,0.1-0.1,0.3-0.2,0.4c-0.1,0-0.1,0-0.2,0c-0.1,0-0.1,0-0.2,0l-0.2-0.6
				c0-0.1-0.1-0.2-0.1-0.3v-1c0,0-0.1-0.4-0.1-0.5v-0.2c0-0.1,0-0.2,0-0.3s-0.1-0.6-0.2-0.7c0-0.1,0-0.4,0-0.4c0-0.1,0-0.6,0-0.6
				v-0.3c0-0.1,0-0.7,0-0.8c0-0.2,0-0.4,0-0.7c0-0.5,0.1-1.1,0.2-1.6l0.2-0.9c0.1-0.1,0.1-0.3,0.1-0.4c0-0.1,0.1-0.4,0.2-0.4
				c0,0,0.1-0.1,0.2-0.1c0.1,0,0.3,0.1,0.3,0.1l0.2,0.2l0.2,0.3c0.1,0.1,0.2,0.3,0.3,0.5l0.2,0.5c0,0.1,0.1,0.2,0.1,0.3
				c0.1-0.3,0.5-0.5,0.5-0.6c0.1-0.1,0.2-0.2,0.3-0.3c0.3-0.2,0.5-0.4,0.8-0.6c0.1,0,0.1-0.1,0.2-0.1l0.4-0.2c0.1,0,0.1,0,0.3,0
				c0.1,0,0.3,0.1,0.5,0.1c0.1,0,0.4,0.1,0.4,0.1h0.1l0.9,0.5c0.1,0,0.3,0.1,0.4,0.3l0.1,0.1c0,0,0.2,0.2,0.3,0.2
				c0.1,0.1,0.2,0.3,0.4,0.4c0.1,0,0.3,0.3,0.3,0.3h0.1c0.1-0.2,0.3-0.3,0.5-0.5l0.2-0.2c0,0,0.2-0.1,0.2-0.2l0.2-0.2
				c0.3-0.3,0.6-0.6,0.9-0.9c0.1,0,0.2-0.1,0.2-0.1c0.1,0,0.2,0,0.3,0s0.2,0,0.3,0.1l0.3,0.2c0.1,0.1,0.2,0,0.3,0.1
				c0.2,0.1,0.3,0.2,0.5,0.2l0.5,0.4c0.2,0.1,0.4,0.2,0.6,0.4c0.1,0.1,0.7,0.7,0.8,0.9l0.3,0.3l0.2,0.3c0.1,0.1,0.2,0.2,0.2,0.3
				l0.2,0.4l0.4,1l0.1,0.2c0.1,0.2,0.2,0.5,0.1,0.8c0,0.2-0.1,0.3-0.1,0.5c0,0.1,0,0.3,0,0.4v0.1c0,0-0.1,0.4-0.2,0.5
				c0,0.1,0,0.1,0,0.2v0.2c0,0.2-0.2,0.3-0.3,0.5c-0.1,0.1-0.1,0.1-0.2,0.2c0,0-0.2,0.2-0.2,0.3c-0.3,0.3-0.8,0.6-1.2,0.8
				c-0.1,0-0.3,0.1-0.4,0.2l-1.1,1c-0.1,0-0.2,0.2-0.4,0.2h-0.1c0-0.1,0-0.2,0-0.4v-0.3c0-0.1,0-0.3,0-0.4c0-0.1,0-0.2,0.1-0.4
				c0,0,0-0.1,0.1-0.2l0.2-1.7l0.1-0.4c0.1-0.2,0.1-0.4,0.1-0.6v-0.4c0-0.1,0-0.3,0.1-0.5c0-0.2,0-0.4,0-0.5c0-1.1,0-1.1,0-1.1
				c0-0.2,0-0.6,0-0.6c0-0.1,0-0.2,0-0.3c-0.1-0.1-0.1-0.3-0.1-0.4c-0.1-0.1-0.2-0.2-0.2-0.3c-0.1-0.1-0.3-0.3-0.5-0.3
				s-0.3,0.1-0.5,0.2c-0.3,0.2-0.6,0.4-1,0.7l-0.4,0.5c-0.1,0.1-0.1,0.1-0.1,0.2v0.2c0,0.2,0.1,0.3,0.1,0.5v0.1v0.3
				c0,0.2,0.1,0.4,0.2,0.5v0.1c0,0.1,0,0.4,0,0.4c0,0.1-0.1,0.2-0.1,0.3c-0.1,0.1-0.1,0.3-0.2,0.4l-0.2,0.5v0.1
				c-0.2,0.3-0.4,0.4-0.7,0.7c0,0.1-0.2,0.4-0.3,0.4v0.1l-0.2,0.3l-0.4,0.6c0,0-0.2,0.2-0.3,0.3l-0.1,0.1l-0.2,0.4l-0.2,0.3
				c0,0.1-0.1,0.4-0.2,0.4c-0.1,0.1-0.2,0.3-0.4,0.3c-0.1,0-0.2-0.1-0.2-0.2l-0.1-0.2C120.4,139.7,120.4,139.5,120.4,139.4z"/>
			<g>
				<path class="st5" d="M70.3,138c0,0,0-0.3-0.1-0.3c-0.1-0.3-0.5-1.8-0.6-2.1c0-0.1-0.2-0.4-0.2-0.4l-0.1-0.2l-0.3-1
					c-0.1-0.1-0.1-0.2-0.2-0.3l-0.6,1.3v0.1c-0.2,0.4-0.4,0.8-0.6,1.2c-0.1,0.3-0.2,0.6-0.3,0.8c-0.1,0.3-0.5,0.5-0.5,0.8
					c-0.1,0-0.2,0.2-0.3,0.2c0,0-0.1,0-0.2,0c0,0,0,0-0.1,0c-0.2,0-0.3-0.1-0.4-0.1c-0.2-0.1-0.3-0.3-0.5-0.5c0,0-0.1-0.1-0.1-0.2
					L65,137c-0.1-0.1-0.2-0.3-0.2-0.4l-0.4-0.7l-0.1-0.2c0,0-0.1-0.3-0.1-0.4c-0.2-0.3-0.3-0.7-0.5-1c0,0-0.2-0.4-0.3-0.5
					c0-0.1,0-0.2-0.1-0.2c0-0.1-0.2-0.4-0.3-0.5l-0.1-0.2c0-0.1-0.2-0.3-0.2-0.3v0.2c-0.1,0.3-0.1,0.4-0.1,0.4c0,0.1,0,0.3-0.1,0.4
					c0,0,0,0.3,0,0.4l-0.1,0.8l-0.1,0.3c0,0.1,0,0.6,0,0.6l-0.1,0.5L62,138c-0.1,0.1,0,0.3-0.1,0.5l-0.2,0.7l-0.1,0.3
					c0,0.1-0.2,0.6-0.3,0.8c-0.1,0.2-0.2,0.3-0.3,0.4c-0.1,0.1-0.3,0.1-0.4,0.2l-0.2,0.1l-0.3,0.2h-0.3c-0.1,0-0.2-0.1-0.3-0.1
					c0,0-0.1-0.1-0.1-0.2c0-0.1,0-0.1,0-0.2c0-0.1-0.2-0.7-0.2-0.9s-0.1-0.8-0.1-0.9l0.1-2.1l0.2-1.3v-0.2c0.1-0.5,0.2-1,0.3-1.5
					c0,0,0.1-0.2,0.1-0.3l0.1-0.6c0.1-0.2,0.1-0.4,0.1-0.6c0-0.3,0.1-0.6,0.2-0.9l0.3-1.5c0,0,0.1-0.4,0.1-0.5
					c0.1-0.4,0.2-0.8,0.3-1.3l0.1-0.2c0.1-0.2,0.2-0.4,0.2-0.5l0.1-0.2l0.2-0.5c0.1,0,0.1-0.1,0.1-0.2c0.1-0.2,0.2-0.3,0.5-0.3
					c0.2,0,0.5,0.2,0.5,0.3s0.1,0.2,0.1,0.3c0.1,0.1,0.1,0.3,0.2,0.4l0.1,0.2c0,0.1,0.2,0.2,0.2,0.2c0.1,0.2,0.2,0.4,0.3,0.7
					c0,0,0,0.2,0.1,0.2s0.2,0.4,0.2,0.5l0.4,0.7l0.2,0.4l0.1,0.2c0,0,0.1,0.3,0.2,0.4c0.1,0.1,0.2,0.3,0.3,0.4l0.1,0.1
					c0.2,0.5,0.4,1,0.6,1.5c0.1,0.1,0.2,0.4,0.3,0.5c0-0.4,0.1-0.6,0.2-1l0.2-0.8c0,0,0.1-0.4,0.1-0.5c0-0.3,0-0.6,0.1-0.8
					c0-0.1,0.1-0.3,0.1-0.4l0.1-0.7l0.1-0.3c0.1-0.3,0-0.6,0.1-0.8c0.1-0.2,0.1-0.3,0.2-0.5l0.1-0.2c0,0,0-0.1,0-0.2
					c0.1-0.4,0.1-0.5,0.1-0.5c0-0.1,0.1-0.3,0.1-0.4l0.1-0.1c0,0,0-0.1,0.1-0.1s0.2-0.1,0.3-0.2c0.1,0,0.2,0,0.3,0.1l0.2,0.2
					c0,0,0.1,0,0.2,0.1s0.3,0.3,0.3,0.3l0.1,0.1c0.1,0.2,0.2,0.5,0.3,0.6l0.1,0.2c0,0,0.1,0.1,0.1,0.2c0.1,0.1,0.1,0.2,0.1,0.4
					l0.3,0.9c0,0.2,0.1,0.4,0.1,0.5c0,0.2,0.1,0.1,0.2,0.2c0,0.1,0.1,0.2,0.1,0.3l0.6,2.1c0,0,0,0.2,0,0.3s0.1,0.2,0.2,0.3
					c0.3,0.3,0.3,1.2,0.3,1.2c0,0.1,0.1,0.2,0.1,0.3c0.1,0.1,0,0.4,0.1,0.5c0,0,0,0.3,0.1,0.4c0,0.2,0.1,0.4,0.2,0.5v0.1
					c0.2,1,0.2,2,0.3,3c0,0.2,0.1,0.5,0.1,0.7c0,0.1,0,0.3,0,0.4c0,0.1,0,0.2,0,0.3c0,0.2,0,0.4-0.1,0.6c0,0.1-0.1,0.1-0.3,0.1
					c-0.1,0-0.2,0-0.2,0c-0.1,0-0.1,0-0.1-0.1c-0.4-0.2-0.5-0.6-0.6-1c0-0.1,0-0.2-0.1-0.3L70.3,138z"/>
			</g>
		</g>
		<g>
			<path class="st5" d="M45.3,182.4c-0.1-0.3-0.1-0.6-0.1-1l-0.5-1.7l-0.1-0.2l-0.7-3.2c0-0.1-0.1-0.6-0.1-0.7c0-0.1,0-1-0.1-1.2
				v-0.5c0-0.2,0-0.5,0-0.7l0.2-1.9c0,0,0-0.2,0.1-0.3c0.2-0.7,0.5-1.3,0.9-2l0.2-0.4c0-0.2,0.2-0.5,0.4-0.6c0-0.1,0.2-0.3,0.3-0.3
				l0.2-0.4c0-0.2,0.2-0.3,0.3-0.4l0.2-0.3l0.1-0.2l0.2-0.1c0,0,0.2,0,0.2,0.1c0.1,0,0.1,0.2,0.1,0.2c0.1,0,0.2,0.2,0.2,0.2
				c0,0.1,0.2,0.2,0.2,0.2l0.6,0.6c0.2,0.5,0.5,0.9,0.7,1.4l0.2,0.2c0.2,0.4,0.2,1,0.2,1.3l0.1,0.6c0,0.2,0.1,0.7,0.1,0.7
				c0,0.3,0,0.5,0,0.8c0,0.1-0.2,0.6-0.2,0.6c0,0.3-0.2,1.7-0.2,2l-0.1,0.8c0,0.1-0.3,1.1-0.3,1.5c-0.1,0.3-0.2,0.6-0.3,0.8
				c-0.1,0.1-0.1,0.3-0.3,0.4c0,0.2-0.4,0.6-0.5,0.8c0,0.1-0.2,0.6-0.2,0.7l-0.1,0.1c0,0.1,0,0.1,0,0.2c0,0.1-0.1,0.3-0.1,0.4
				c-0.2,0.3-0.4,0.7-0.5,1c0,0.1-0.1,0.6-0.1,0.7c0,0.2-0.1,0.7-0.2,0.8c0,0.1-0.2,0.2-0.3,0.3c-0.1,0-0.2,0.1-0.2,0.1
				s-0.3,0-0.2-0.2c0-0.3,0-0.4-0.1-0.6c0-0.1-0.1-0.3,0-0.5C45.4,182.6,45.2,182.5,45.3,182.4z M45.7,163.8
				c-0.1-0.1-0.5-0.6-0.6-0.7c0,0-0.1-0.3-0.1-0.4c0,0,0-0.2-0.1-0.3c0-0.2,0-0.3,0-0.4c0,0,0-0.3,0-0.4v-0.4c0-0.1,0.1-0.2,0.1-0.2
				s0-0.2,0-0.3c0,0,0.1-0.2,0.1-0.3s0.2-0.3,0.3-0.3c0.1-0.2,0.4-0.2,0.4-0.2c0.1,0,0.4,0.1,0.4,0.1c0.2,0,0.3-0.1,0.7-0.1
				c0.3,0,0.5,0.2,0.7,0.2s0.4,0.1,0.5,0.3c0.1,0,0.1,0,0.2,0.1l0.3,0.2c0.2,0.2,0.2,0.3,0.3,0.5l0.1,0.2c0,0.1,0.1,0.3,0.1,0.5
				c0,0.3-0.2,0.7-0.3,1.1c0,0.1-0.1,0.3-0.2,0.5c-0.1,0.1-0.1,0.2-0.2,0.3c0,0.1-0.3,0.5-0.3,0.5c-0.1,0-0.3,0.2-0.3,0.2h-0.2
				c-0.1,0-0.2,0.1-0.4,0c-0.2,0-0.2-0.1-0.5-0.1c0,0-0.2,0-0.3-0.1l-0.4-0.2c-0.1,0-0.1,0-0.2-0.1L45.7,163.8z"/>
			<path class="st5" d="M52.3,185.2c-0.1-0.2-0.1-0.5-0.2-0.8c-0.3-0.5-0.6-1.9-0.5-2.4c0-0.1,0-0.5-0.1-0.6c-0.1-0.2,0-0.5-0.1-0.7
				c0-0.3,0-0.6,0-0.8s0-0.5,0-0.8l0.2-2.3c0-0.7-0.1-1.3-0.1-1.9v-0.5c0-0.1,0-0.9,0-1.1c0-0.2,0-0.5,0-0.8l0.1-0.8
				c0.1-1.4,0.3-3.1,0.3-3.1v-0.4L52,167c0-0.3,0.3-0.8,0.3-0.8l0.1-0.6c0-0.2,0.1-0.5,0.1-0.5c0-0.2,0.3-1.9,0.3-2.1
				c0.1-0.3,0.4-1.5,0.5-1.7l0.4-1.3c0.1-0.3,0.4-0.6,0.5-0.9c0.1-0.1,0.1-0.3,0.2-0.4c0.1-0.2,0.2-0.5,0.2-0.6
				c0.1-0.2,0.4-0.6,0.7-0.6c0.1,0,0.1,0.1,0.3,0.1c0.2,0.1,0.2,0.3,0.4,0.5c0.4,0.5,0.4,0.8,0.5,1l0.3,0.5c0.2,0.4,0,0.8,0.2,1
				c0,0.1,0.1,0.1,0,0.2l0.4,0.5c0.2,0.3,0.4,0.9,0.5,1.2c0,0,0.1,0.4,0.1,0.8c0,0.1,0,0.5,0,0.6l-0.2,2.5c0.1,0.4,0.1,0.8,0.1,1.3
				c0,0.1,0,0.4,0,0.4l-0.1,0.6v0.6c0.1,0.1,0,0.3,0,0.3l-0.2,1.3c0,0.2,0,0.3,0,0.6c0,0.2-0.1,0.5-0.1,0.5l-0.1,0.8
				c0,0.2-0.3,1.7-0.4,2l-0.4,1.2c0,0-0.2,0.3-0.2,0.4c0,0.2-0.2,0.3-0.3,0.4c-0.1,0.4-0.4,0.7-0.6,1c-0.2,0.2-0.2,0.5-0.3,0.7
				l-0.2,0.3c-0.1,0.3-0.2,0.6-0.2,1c-0.1,0.3-0.3,1.6-0.5,2c-0.1,0.3-0.2,0.8-0.4,1.1c0,0-0.1,0.2-0.1,0.3
				c-0.1,0.1-0.2,0.5-0.2,0.6s-0.1,0.4-0.1,0.6c0,0.1,0,0.3,0,0.4c-0.1,0.3-0.2,0.7-0.5,0.7c0,0-0.1,0-0.1-0.1
				C52.6,185.5,52.3,185.3,52.3,185.2z"/>
			<path class="st5" d="M68.5,185.5c0-0.1,0-0.2,0-0.4c0-0.1-0.1-0.5,0-0.6l-0.4,0.1c-0.2,0.1-0.8,0.3-0.9,0.3
				c-0.3,0.1-0.7,0.2-1.1,0.2c0,0-1.1,0.2-2.1,0.1c-0.1,0-1.3-0.3-1.8-0.4c-0.1,0-0.3-0.2-0.5-0.2c-0.5-0.2-1-0.6-1.4-0.9
				c-0.1-0.1-0.6-0.7-0.6-0.8c-0.2-0.3-0.4-0.7-0.5-1c-0.2-0.4-0.5-0.9-0.6-1.4c0-0.1,0-0.6,0-0.7c0-0.3-0.2-0.5-0.3-0.7
				c0-0.2,0-0.5,0-0.7c0,0,0-0.3,0-0.4c0-0.2,0-0.5,0.1-0.7c0.2-0.1,0.2-0.5,0.3-0.7c0.1-0.3,0.2-0.6,0.4-0.9
				c0.1-0.1,0.1-0.4,0.3-0.5c0-0.1,0.1-0.3,0.2-0.4c0.4-0.5,0.8-0.9,1.3-1.2l0.4-0.2l1-0.4c0.1-0.1,0.6-0.1,0.8-0.2
				c0.6-0.1,1.1-0.2,1.7-0.3c0,0,0.1,0,0.2,0c0.5,0,0.6,0.1,0.8,0.1h0.5c0.2,0,0.7,0.1,0.7,0.1c0.2,0,0.6,0.2,0.6,0.2
				c0.2,0,0.4,0.1,0.7,0.1v-0.2l0.1-1.3c0,0,0.4-1.8,0.5-2.5c0,0,0.1-0.5,0.2-0.6c0-0.2,0.1-0.5,0.2-0.8c0.2-0.3,0.2-0.8,0.4-1.1
				l0.2-1.9c0-0.1,0.2-0.4,0.2-0.5l0.1-0.7c0-0.4,0.3-0.8,0.6-1c0-0.1,0.1-0.2,0.1-0.2c0-0.1,0.2-0.3,0.2-0.4l0.2-0.3
				c0,0,0.1-0.2,0.2-0.1c0.1-0.1,0.3-0.2,0.5-0.2c0.1,0,0.2,0,0.3,0.1c0.2,0.1,0.3,0.3,0.3,0.6c0.1,0,0.1,0.3,0.2,0.4
				c0,0.1,0.1,0.2,0.1,0.2c0,0.1,0.1,0.2,0.1,0.2c0.4,0.8,0.4,0.9,0.4,0.9c0.1,0.1,0.1,0.3,0.2,0.4c0.1,0.5,0.3,0.9,0.4,1.5
				c0.1,0.5,0.2,1.1,0.1,1.6c0,0.1,0.1,0.4,0.1,0.4c0,0.1-0.1,0.2-0.1,0.3s0,0.2,0.1,0.3c0.1,0.2,0,0.4,0,0.6l0.1,0.3
				c0,0.2-0.1,0.7,0.1,0.9c0,0.3,0,0.6,0,0.8c0,0.1,0.1,0.9,0.1,1c0,0,0,0.2,0,0.3c0,0.5-0.2,1.1-0.2,1.6c0,0.1,0,0.9,0,1l-0.1,0.8
				l-0.1,0.8c0,0.1-0.1,0.5-0.1,0.5c0,0.5-0.2,0.9-0.3,1.3l-0.2,0.6c0,0.3-0.2,0.5-0.2,0.8c-0.1,0.3-0.1,0.6-0.2,0.9
				c0,0.1-0.3,0.5-0.3,0.6l-0.3,0.3c-0.1,0.2-0.1,0.5-0.4,0.7c-0.1,0.2-0.3,0.4-0.3,0.7c0,0.1-0.2,0.5-0.2,0.6s-0.1,0.3-0.1,0.4
				c-0.1,0.3-0.3,0.7-0.5,1l-0.4,0.5c0,0.1-0.2,0.4-0.3,0.4c-0.3,0.3-0.3,0.3-0.5,0.7l-0.3,0.4c-0.1,0.1-0.1,0.1-0.2,0.1H69
				c-0.1-0.1-0.2-0.2-0.2-0.4C68.4,186.1,68.4,185.8,68.5,185.5z M62,180.2c0,0,0,0.4,0,0.5c0.1,0.1,0,0.7,0,0.7l0.2,0.4
				c0,0.1,0.1,0.4,0.2,0.4c0.3,0.5,0.6,0.7,1.1,1c0,0.2,0.7,0.2,0.8,0.4c0.2,0,0.4,0.1,0.5,0.1c0.5,0,1,0,1.4-0.1
				c0.1,0,0.6-0.1,0.7-0.2c0,0,0.3-0.2,0.4-0.3c0.4-0.2,1-0.6,1.2-0.7v-0.1c0.1-1.4-0.1-2.6-0.1-4c0,0,0-0.3,0-0.4
				c0-0.1-0.1-0.7-0.1-0.7c0-0.5-0.1-1-0.2-1.5c0-0.1,0-0.3,0-0.6c0-0.2,0-0.5,0.1-0.6c0,0-0.2,0-0.3,0l-0.5-0.1
				c-0.3,0-0.5,0.2-1,0.2c-0.1,0-0.3,0.1-0.5,0.1l-0.3,0.2c-0.1,0-0.4,0.2-0.4,0.3c-0.4,0.3-0.9,0.3-1.3,0.7l-0.8,1l-0.7,0.7
				c0,0.3-0.3,0.7-0.4,0.9c0,0.1,0,0.2-0.1,0.4c0,0.2,0,0.4,0,0.6C62,179.6,62,180.1,62,180.2z"/>
			<g>
				<path class="st5" d="M38.3,180.4c0,0,0-0.5-0.1-0.5c-0.1-0.6-0.6-3.1-0.7-3.6c0-0.1-0.2-0.7-0.3-0.8c0-0.1-0.1-0.3-0.2-0.4
					l-0.3-1.8c-0.1-0.2-0.2-0.4-0.2-0.5l-1.3,2.2v0.1c-0.4,0.7-0.9,1.3-1.3,2c-0.3,0.4-0.4,1-0.7,1.4c-0.2,0.5-0.9,0.8-1,1.3
					c-0.2,0.1-0.5,0.4-0.5,0.4c-0.1,0-0.2-0.1-0.3-0.1h-0.1c-0.3-0.1-0.5-0.2-0.6-0.3c-0.3-0.2-0.5-0.6-0.7-1c0,0-0.1-0.2-0.1-0.3
					s-0.3-0.5-0.3-0.6c-0.1-0.1-0.4-0.6-0.4-0.7l-0.5-1.3c0,0-0.1-0.3-0.1-0.4l-0.2-0.6c-0.3-0.6-0.3-1.3-0.6-1.9
					c0-0.1-0.3-0.8-0.4-1c0-0.1,0-0.4-0.1-0.4c0-0.1-0.3-0.7-0.3-0.9c0,0-0.1-0.3-0.1-0.4c0-0.2-0.3-0.5-0.3-0.5l-0.1,0.3
					c-0.3,0.5-0.3,0.6-0.3,0.6c0,0.2-0.1,0.6-0.3,0.7c0,0.1-0.1,0.5-0.1,0.7l-0.4,1.4c0,0-0.2,0.4-0.2,0.5s0,1,0,1.1l-0.2,0.8
					l-0.7,3c-0.1,0.2-0.1,0.6-0.3,0.8l-0.4,1.2l-0.2,0.4c-0.1,0.2-0.5,1-0.7,1.2c-0.2,0.3-0.3,0.5-0.6,0.7c-0.2,0.1-0.5,0.2-0.8,0.3
					c0,0-0.3,0.1-0.4,0.1s-0.5,0.2-0.6,0.2h-0.5c-0.1,0-0.4-0.2-0.5-0.2c0,0-0.1-0.2-0.1-0.3s0-0.2,0-0.3c-0.1-0.2-0.2-1.2-0.2-1.6
					c0-0.3,0-1.4,0-1.6l0.6-3.6l0.5-2.1l0.1-0.3c0.3-0.8,0.5-1.6,0.8-2.4c0.1-0.1,0.2-0.3,0.2-0.5l0.3-1c0.2-0.3,0.2-0.7,0.3-1
					c0.1-0.5,0.2-1,0.5-1.4l0.8-2.4c0,0,0.2-0.6,0.3-0.8c0.3-0.7,0.6-1.4,0.8-2.1c0.1,0,0.2-0.3,0.2-0.3c0.2-0.3,0.4-0.6,0.5-0.9
					c0-0.1,0.2-0.4,0.2-0.4l0.4-0.9c0.1-0.1,0.2-0.2,0.2-0.3c0.2-0.3,0.5-0.4,0.9-0.4c0.3,0,0.8,0.4,0.9,0.6c0,0.2,0.1,0.4,0.2,0.5
					c0.1,0.2,0.2,0.5,0.3,0.7l0.2,0.3c0,0.1,0.3,0.3,0.3,0.4c0.1,0.4,0.2,0.8,0.3,1.2c0,0,0,0.3,0.1,0.4c0.2,0,0.2,0.8,0.3,0.9
					l0.6,1.3L30,166c0,0.1,0.1,0.3,0.1,0.4c0,0,0.2,0.6,0.2,0.7c0.2,0.2,0.3,0.5,0.4,0.7l0.1,0.2c0.3,0.9,0.5,1.8,0.7,2.7
					c0.2,0.3,0.2,0.7,0.4,0.9c0.1-0.6,0.3-1,0.6-1.6l0.4-1.3c0-0.1,0.2-0.6,0.3-0.8c0.1-0.5,0.1-0.9,0.3-1.3c0-0.2,0.1-0.5,0.2-0.7
					l0.2-1.1l0.2-0.5c0.2-0.4,0.1-0.9,0.2-1.4c0.1-0.3,0.2-0.5,0.4-0.8c0,0,0.3-0.3,0.2-0.3c0-0.1,0.1-0.2,0.1-0.3
					c0.2-0.7,0.2-0.8,0.2-0.8c0-0.2,0.2-0.4,0.3-0.7c0,0,0.2-0.1,0.2-0.2c0.1,0,0-0.1,0.1-0.2c0.2,0,0.4-0.2,0.6-0.2
					s0.4,0.1,0.5,0.2l0.4,0.3c0.1,0,0.2,0.1,0.4,0.2c0.1,0.1,0.4,0.5,0.4,0.5l0.1,0.1c0.2,0.3,0.2,0.9,0.4,1.2l0.2,0.4
					c0,0,0.1,0.2,0.1,0.4c0.1,0.1,0.1,0.4,0.1,0.7l0.3,1.5c0,0.3,0.1,0.8,0.1,0.8c0,0.3,0.2,0.2,0.2,0.4c0.1,0.1,0.1,0.4,0.1,0.6
					l0.7,3.7c0,0,0,0.4,0,0.5c0,0.2,0.2,0.4,0.3,0.6c0.4,0.5,0.3,2.1,0.3,2.1c0,0.1,0.2,0.4,0.2,0.6c0.1,0.1,0,0.6,0.1,0.8
					c0,0.1,0,0.5,0.1,0.7c0,0.3,0.2,0.6,0.2,0.9l0.1,0.2c0.1,1.7-0.1,3.4,0,5.1c0,0.4,0.1,0.8,0,1.2c0,0.2,0,0.4-0.1,0.7
					c0,0.1,0,0.3,0,0.5c0,0.3-0.2,0.6-0.3,0.9c0,0.2-0.3,0.2-0.5,0.2s-0.3,0-0.4,0s-0.2,0-0.2-0.1c-0.6-0.4-0.7-1.1-0.9-1.8
					c-0.1-0.2,0-0.4-0.2-0.6L38.3,180.4z"/>
			</g>
		</g>
		<g>
			<path class="st5" d="M62.7,99.2l-0.2-0.4l-0.8-1.9c0,0-0.3-1.7-0.4-2.4c0,0-0.1-0.5-0.1-0.6v-0.3c0-0.3,0-0.5-0.2-0.7
				c-0.2-1.1-0.3-2.3-0.3-3.4l-0.1-1.4c0-0.1,0-1.1,0-1.2v-1.1c0-0.1,0-0.4,0.1-0.5c0-0.1,0.5-1.3,0.5-1.5c0.2-0.5,0.8-2.7,0.9-3.2
				c0.1-0.2,0.2-0.3,0.2-0.5c0.1-0.2,0.1-0.4,0.2-0.6c0-0.2,0.4-0.3,0.4-0.5c0.2-0.2,0.5-0.5,0.9-0.5c0.3,0,0.8,0.3,0.9,0.5
				c0.5,0.4,1,1.4,1.2,2c0.1,0.3,0.1,0.6,0.2,0.9l0.4,1.3c0,0,0.1,0.3,0.1,0.4l0.5,0.8c0,0,0,0.1,0,0.2c0.2,0.9,0.3,1.7,0.3,2.6
				c0,0.5,0,0.8,0,0.8c0,0.5,0.1,0.6,0.4,0.6l3.1-0.1c0.1,0,1.8,0.1,2.6,0.2c0.2,0,0.4,0.1,0.7,0v-2.5c0.1-0.4,0.4-2.1,0.5-2.5
				c0,0,0-0.6,0-0.7c0.1-0.1,0.1-0.8,0.3-1c0-0.1,0.3-0.7,0.3-0.8c0,0,0.1-0.5,0.1-0.7c0-0.3,0.1-0.7,0.2-1s0-0.7,0.1-1.1
				c0.2-0.3,0.5-0.6,0.5-1c0.1-0.2,0.3-0.2,0.4-0.2c0.2,0,0.2,0,0.3,0.1l0.7,0.3c0.2,0.1,0.9,0.8,1,1c0.3,0.3,0.5,0.7,0.8,1
				c0,0,0.5,0.4,0.5,0.5s0.5,0.7,0.6,0.8c0.2,0.3,0.4,0.4,0.4,0.7s0.1,0.7,0.2,0.9c0,0.2,0.1,0.4,0.2,0.6c0,0.2,0.2,0.7,0.3,1v0.7
				c0,0.6,0,1.1,0.3,1.7l0.3,2.4c0,0.4,0,0.8,0,1.2c0,0.2-0.1,0.4,0,0.6c0,0.2,0,0.2,0.1,0.9c0,0.5,0,0.8,0,1.2s-0.2,1.1-0.2,1.5
				c-0.1,0.4-0.2,0.7-0.3,1.2c0,0.1-0.2,0.5-0.2,0.7c0,0.3-0.2,0.8-0.3,1.2L81,97.6c-0.5,1-0.7,2.2-1,3.3c-0.1,0.6-0.5,1.3-0.5,2
				c0,0.1-0.1,0.6-0.1,0.7v0.2l-0.3,0.7c0,0.1-0.3,0.4-0.5,0.4c-0.3,0-0.4-0.3-0.5-0.5l0,0l-0.2-0.4c-0.2-0.3-0.1-0.8-0.3-1.1
				l-0.4-0.6l-0.4-0.7c0-0.1-0.2-0.6-0.2-0.6c0-0.3-0.3-0.6-0.3-0.9c0-0.2-0.2-0.4-0.2-0.8c-0.1-0.3-0.6-1.6-0.7-1.9
				c0-0.1-0.4-1-0.4-1.1s-0.2-0.6-0.2-0.7c-0.1-0.1-0.2-0.8-0.2-1v-1c0,0-0.1-0.4-0.1-1.1c-0.1-0.2,0-0.4-0.2-0.6
				c-0.2-0.1-1.2-0.3-1.4-0.3c-0.3,0-0.6,0-0.8,0c-0.6,0-1,0.2-1.5,0.4L69,92.1c-0.5,0.2-0.5,0.2-0.5,0.2c0,0.1,0.1,0.3,0.1,1.3
				c0,0.9,0,1.3,0,1.4c0,0.3,0,0.7-0.1,1l0.1,1.9c0,0.1,0,1-0.1,1.3c0,0.3-0.1,0.5-0.2,0.7l-0.2,0.5c-0.1,0.2-0.1,0.5-0.2,0.7
				c0,0.1-0.1,1-0.2,1.1c0,0.1-0.1,0.4-0.1,0.4c0,0.1-0.2,0.6-0.2,0.7c0,0-0.2,0.7-0.2,0.8c-0.1,0.3-0.1,0.6-0.3,0.8
				c-0.1,0.2-0.3,0.4-0.5,0.6c-0.1,0.2-0.3,0.5-0.5,0.6c-0.1,0-0.1,0.1-0.3,0.1c-0.1,0-0.3-0.1-0.4-0.3c-0.2-0.2-0.1-0.7-0.3-0.9
				c-0.1-0.5-0.1-0.9-0.3-1.3l-0.4-0.6c-0.1-0.3-0.1-0.5-0.2-0.9c-0.1-0.3-0.3-0.5-0.4-0.8C63.6,101.1,62.9,99.5,62.7,99.2z"/>
			<path class="st5" d="M98.8,107.1c-0.1,0-0.7-0.1-0.9-0.1c-0.1,0-0.8-0.2-0.8-0.2c-0.1,0-0.3-0.1-0.4-0.1c-0.4,0-0.9-0.1-1.4-0.2
				c-0.1,0-0.4-0.2-0.6-0.2l-1.1-0.4c-0.5-0.2-0.9-0.5-1.3-0.8l-1-0.7c-0.2,0-0.8-0.4-1.1-0.6c-0.1,0-0.6-0.3-0.7-0.5l-1-0.8
				l-1.3-1.7l-0.7-1c-0.7-1.3-1.3-2.6-1.6-4l-0.3-2.6c0,0,0-0.5,0-0.6c0-0.3,0-0.7,0.1-1.1c0.1-0.5,0.3-1.1,0.3-1.6c0-0.3,0-1,0-1
				c0-0.2,0.1-0.4,0.2-0.6c0-0.1,0.3-0.5,0.3-0.5l0.3-0.7c0.2-0.6,0.8-1.2,0.9-1.7l0.9-1.3c0-0.1,0.5-0.4,0.5-0.6l1-1.6l0.9-1.1
				c0,0,0.9-0.8,1.3-1.2c0.3-0.3,0.6-0.7,1-0.9c0.2-0.2,1.1-0.3,1.4-0.4l2.2-0.2c0.1,0,0.4-0.2,0.6-0.2l0.9-0.4
				c0.1,0,0.2-0.1,0.4-0.1c0.4,0,0.7,0,1.1,0.1c0.4-0.1,1.1,0,1.6,0c0.4,0.1,0.8,0.3,1.2,0.4c0.1,0,0.4,0.1,0.4,0.1h0.5
				c0.2,0,0.3,0,0.7,0c0.2,0,0.5-0.1,0.8-0.1c0.2,0,2,0.4,2.1,0.4c1.2,0.4,2.3,0.8,3.4,1.5c0.7,0.6,1.7,1.7,2.2,2.3l0.1,0.2l0.6,0.8
				c0,0,0.2,0.3,0.2,0.4l0.9,1.6c0.2,0.4,0.3,1,0.5,1.5l0.4,1c0.1,0,0.1,0.1,0.2,1.1l0.1,0.8c0,0.2,0,0.4,0,0.7l-0.1,4.8
				c0,0.1,0,0.4,0,0.4l-0.4,1.2c-0.1,0.5-0.6,3-0.7,3.6c-0.2,0.3-0.3,0.7-0.4,1l-0.7,1.3c-0.2,0.3-1.1,1.4-1.3,1.5
				c-0.2,0.2-1.1,0.9-1.3,1.1c0,0.1,0,0.2-0.2,0.3c0,0-0.3,0.2-0.4,0.2c-0.3,0.2-0.6,0.6-1,0.6c-0.1,0.1-0.7,0.2-0.7,0.2
				c-0.1,0-0.3,0.1-0.7,0.1c-0.1,0.1-0.7,0.1-0.8,0.1l-2,0.7c-0.4,0.1-0.9,0.1-1.3,0.2l-0.5,0.1c-0.5,0-1,0.1-1.5,0
				C100.2,107.3,99.4,107.3,98.8,107.1z M97.5,99.5c0.1,0.1,0.6,0.6,0.7,0.6c0.2,0.3,0.7,0.7,1,0.9c0.1,0.1,0.6,0.3,0.8,0.3l0.4-0.1
				c0.2,0,0.9,0,0.9,0l1.1,0.4c0.1,0,0.6,0.1,0.8,0.1c0,0,0.5,0,0.7-0.1h0.8c0.2-0.1,1-0.2,1.1-0.3c0.3-0.1,1.8-0.6,2-0.7
				c0.5-0.3,1.1-0.6,1.4-1.1c0.1-0.4,1-1.8,1.1-2c0.1-0.1,0.5-0.9,0.6-1.1c0-0.1,0.1-0.4,0.1-0.4c0-0.3,0.4-1.8,0.4-2.2l0.1-1.3
				c0-0.4,0-0.8,0-1.3l-0.3-2.2c0-0.2-0.1-0.7-0.1-0.8c0,0-0.2-0.5-0.3-0.6c-0.1-0.3-0.4-1.1-0.4-1.2l-1.6-2.3
				c-0.3-0.3-0.4-0.6-0.8-0.9c-0.2-0.1-0.4-0.1-0.5-0.4l-0.5-0.3c-0.1,0.1-0.4-0.1-0.5-0.2l-0.7-0.5c-0.1,0-0.7-0.4-0.8-0.4
				c0,0-0.7-0.1-0.8-0.1s-0.9-0.1-1.1,0c-0.6,0-1.3-0.4-1.9-0.3c-0.1,0-0.2,0.1-0.3,0.1l-0.8,0.5c-0.3,0.3-0.8,0.6-1.3,1.1l-0.4,1
				l-0.8,0.9c0,0-0.2,0.4-0.2,0.5c-0.5,0.9-0.9,1.9-1.2,2.8l-0.3,2.2c0,0,0,0.2,0,0.3c0,0-0.2,0.5-0.2,0.6c0,0-0.1,0.3-0.1,0.4
				c-0.2,1-0.2,1.9-0.1,3c0.1,0.7,0.1,1.2,0.3,1.9c0,0.2,0.4,1.7,0.5,2.1c0.1,0.4,0.5,0.8,0.8,0.9C97.2,99.2,97.5,99.4,97.5,99.5z"
				/>
			<path class="st5" d="M119.7,96.8v-0.9c0-0.3,0-0.7-0.1-0.9c0.1-1.5,0.2-1.6,0.2-1.6l0.1-2.6l0.1-0.7c0-0.3,0.1-0.1,0.2-0.4
				l0.2-1.5c-0.5-0.2-1-0.3-1.6-0.4l-1.5-0.1c-0.3-0.1-0.6-0.3-0.7-0.6c0,0-0.1-0.1-0.1-0.4c0-0.2,0.1-0.3,0.2-0.5
				c0.1-0.2,0.3-0.5,0.6-0.6h0.3c0.5,0.1,0.5,0,1.4,0h0.6l1.4,0.2c0,0,0.4-1.3,0.5-1.6c0,0,0.1-0.3,0.1-0.4c0-0.1,0.2-1,0.1-1
				c0.2-0.4,0.4-1,0.7-1.3c0.1-0.1,0-0.3,0.2-0.4c0.2-0.4,0.1-0.8,0.4-1.1c0-0.2,0.4-1,0.5-1.1c0,0,0.3-0.4,0.4-0.5l0.3-0.7
				c0-0.2,0.1-0.4,0.1-0.6c0.1-0.4,0.6-0.9,0.9-1.2c0.1-0.1,0.2-0.1,0.3-0.1c0,0,0.1,0.1,0.2,0.1h0.3c0.2,0,0.3,0.1,0.5,0.3l1.1,1.3
				c0,0,0.3,0.4,0.4,0.5c0.2,0.2,0.3,0.4,0.4,0.7c0.1,0.2,0.7,1.7,0.8,1.9s0.2,0.5,0.2,0.7c0,0.1,0.1,1,0.1,1.1
				c0,0.4,0.2,0.7,0.2,1.1c0.1,0,0.2,0.4,0.1,0.6c0,0.1,0,0.4,0,0.5c0,0,0.1,1,0.1,1.1v1.2c0,0,1.2,0,2.1,0c0.4,0,0.7,0.1,0.9,0.1
				c0.1,0,1,0.2,1,0.2c0.5,0.1,1.1,0.3,1.5,0.6c0,0,0.3,0.3,0.3,0.4c0.1,0.1,0.1,0.3,0.1,0.5c0,0.1,0,0.2-0.1,0.2
				c0,0-0.1,0.2-0.2,0.2c-0.2,0.2-0.8,0.3-1.1,0.3l-0.2-0.1c-0.1,0-0.6-0.2-0.7-0.2l-0.6-0.1c-0.2,0.1-1.4,0.1-1.7,0.1
				c-0.1,0-0.4,0-0.7,0c-0.3,0-0.6,0-0.7-0.1c-0.1,0-0.3,0.1-0.3,0.1c0,0.1-0.1,0.6-0.1,0.7c-0.1,0.5-0.2,0.6-0.3,1.1
				c0,0.3-0.1,0.8-0.1,0.9c-0.1,0.4-0.4,0.8-0.5,1.3c0,0.1,0,0.3,0,0.4c0,0,0,0.1-0.1,0.2c-0.1,0.1-0.3,0.6-0.3,0.7l-0.2,0.3
				l-0.4,0.9v0.5c0,0.2,0.1,1.2,0.1,1.3v0.7l-0.4,3.1c0.2,0.4,0.1,0.7,0.3,1.1c0,0,0.2,0.4,0.3,0.5c0.1,0.2,0.5,0.4,0.7,0.5
				c0.1,0.1,0.4,0.2,0.6,0.2h0.3c0.2,0,0.4,0.1,0.4,0.1s0.5-0.1,0.6-0.2l0.2-0.1c0.3-0.2,0.7-0.5,0.9-0.7c0.1-0.3,0.7-1.2,0.7-1.4
				s0.2-0.6,0.2-0.6c0-0.1-0.1-0.4-0.2-0.5H132c-0.4-0.1-0.9-0.2-1-0.8v-0.1c0.1-0.3,0.1-0.5,0.4-0.7c0.2-0.2,0.9-0.2,1.2-0.2
				c0.2,0,0.4,0.1,0.5,0.3l0.7,0.5c0.2,0.1,0.4,0.3,0.4,0.6c0.1,0.3,0.2,0.7,0.1,1.1c-0.1,0.6-0.2,1.2-0.3,1.8
				c-0.1,0.4-0.3,0.9-0.5,1.2l-0.6,0.6c0,0.2-0.3,0.3-0.4,0.5c-0.3,0.3-0.8,0.7-1.2,0.9c-0.2,0.1-0.4,0.1-0.6,0.2
				c-0.3,0.1-0.9,0.4-1.2,0.4c-0.2,0-0.3,0-0.5,0.1h-0.1c-0.2,0-1.1,0-1.3-0.1c-0.1,0-0.7,0-0.7,0.1h-0.4c-0.7-0.1-1.3-0.3-2-0.6
				c0,0-0.3-0.1-0.4-0.1l-1-0.8l-0.4-0.4l-0.4-0.3c-0.4-0.2-0.6-0.5-0.9-0.9c-0.2-0.1-0.7-1.1-0.8-1.2c0,0-0.1-0.3-0.1-0.4l-0.5-1.2
				c0,0-0.1-0.2-0.4-3C119.8,97.1,119.8,96.9,119.7,96.8z"/>
		</g>
		<g>
			<path class="st5" d="M73.2,62.1L73,61.8l-0.6-1.5c0,0-0.2-1.3-0.3-1.8v-0.4v-0.3c0-0.2,0-0.4-0.1-0.6c-0.2-0.9-0.2-1.8-0.2-2.7
				v-1.1c0-0.1,0-0.8,0-0.9v-0.8v-0.4c0-0.1,0.4-1,0.4-1.1c0.2-0.4,0.7-2.1,0.7-2.5c0.1-0.1,0.1-0.2,0.2-0.4c0.1-0.1,0-0.3,0.2-0.4
				c0-0.1,0.3-0.2,0.3-0.4c0.2-0.2,0.4-0.4,0.7-0.4c0.2,0,0.6,0.2,0.7,0.4c0.4,0.3,0.7,1.1,0.8,1.5c0.1,0.2,0.1,0.5,0.2,0.7l0.3,1
				V50l0.4,0.6v0.1c0.2,0.7,0.2,1.3,0.2,2c0,0.4,0,0.6,0,0.6c0,0.4,0,0.5,0.3,0.5l2.4-0.1c0.1,0,1.4,0.1,1.9,0.2
				c0.1,0,0.3,0.1,0.5,0V52c0.1-0.3,0.3-1.6,0.4-1.9v-0.6c0.1-0.1,0.1-0.6,0.2-0.8l0.2-0.6c0,0,0.1-0.4,0.1-0.5
				c0-0.2,0.1-0.5,0.2-0.7c0-0.3,0-0.6,0.1-0.9s0.4-0.5,0.4-0.8c0.1-0.1,0.2-0.2,0.3-0.2s0.2,0,0.3,0.1l0.5,0.2
				c0.1,0.1,0.6,0.7,0.8,0.8c0.2,0.2,0.4,0.5,0.6,0.8c0,0,0.4,0.3,0.4,0.4s0.4,0.6,0.4,0.7c0.1,0.2,0.3,0.3,0.3,0.6
				c0,0.2,0,0.5,0.2,0.7c0,0.1,0.1,0.3,0.1,0.4c0,0.2,0.1,0.6,0.2,0.8V51c0,0.4,0,0.9,0.2,1.3l0.2,1.9c0,0.3,0,0.6,0,0.9
				c0,0.1,0,0.3,0,0.5c0,0.1,0,0.2,0.1,0.7c0,0.4,0,0.6,0,0.9S88,58,88,58.3c0,0.3-0.2,0.6-0.3,0.9c0,0.1-0.2,0.4-0.2,0.5
				c0,0.3-0.1,0.6-0.2,0.9l-0.2,0.2c-0.4,0.8-0.6,1.7-0.8,2.5c-0.1,0.4-0.4,1-0.4,1.5c0,0.1,0,0.4-0.1,0.5v0.1L85.5,66
				c0,0.1-0.2,0.3-0.4,0.3s-0.3-0.2-0.4-0.4l0,0l-0.2-0.3c-0.1-0.2-0.1-0.6-0.2-0.9L84,64.2l-0.3-0.6l-0.2-0.5
				c0-0.2-0.2-0.5-0.2-0.7c0-0.1-0.1-0.3-0.1-0.6c-0.1-0.2-0.4-1.2-0.5-1.5c0-0.1-0.3-0.8-0.3-0.9l-0.2-0.5
				c-0.1-0.1-0.1-0.6-0.1-0.8v-0.8c0,0,0-0.3-0.1-0.8c-0.1-0.1,0-0.3-0.1-0.4c-0.2-0.1-0.9-0.2-1.1-0.3c-0.2,0-0.4,0-0.6,0
				c-0.4,0-0.7,0.1-1.1,0.3l-1.2,0.1c-0.4,0.1-0.4,0.2-0.4,0.2c0,0.1,0,0.2,0.1,1c0,0.7,0,1,0,1.1c0,0.3,0,0.6-0.1,0.8v1.5
				c0,0.1,0,0.8-0.1,1c0,0.2,0,0.4-0.2,0.5L77,62.7c-0.1,0.2-0.1,0.4-0.2,0.5c0,0.1-0.1,0.8-0.1,0.9v0.3l-0.1,0.5
				c0,0-0.1,0.5-0.1,0.6c-0.1,0.2-0.1,0.4-0.2,0.6s-0.2,0.3-0.4,0.4c-0.1,0.1-0.2,0.4-0.4,0.4c-0.1,0-0.1,0.1-0.2,0.1
				s-0.2-0.1-0.3-0.2c-0.2-0.2-0.1-0.6-0.2-0.7c-0.1-0.3-0.1-0.7-0.2-1l-0.3-0.5c-0.1-0.3-0.1-0.4-0.2-0.7c-0.1-0.2-0.2-0.4-0.3-0.6
				C73.8,63.6,73.3,62.3,73.2,62.1"/>
			<path class="st5" d="M98.9,67.2c-0.1,0-0.5-0.1-0.6-0.1l-0.6-0.2l-0.3-0.1c-0.3,0-0.6-0.1-1-0.3c-0.1,0-0.3-0.2-0.4-0.2l-0.8-0.4
				c-0.3-0.2-0.6-0.5-0.9-0.7l-0.6-0.6c-0.2,0-0.6-0.4-0.8-0.5c-0.1,0-0.4-0.3-0.5-0.4L91.7,63l-0.8-1.3l-0.4-0.8
				c-0.4-1-0.8-2-0.9-3V56v-0.4c0-0.3,0.1-0.5,0.1-0.8c0.1-0.4,0.3-0.8,0.3-1.2c0-0.3,0.1-0.7,0.1-0.8c0-0.1,0.1-0.3,0.2-0.4
				l0.3-0.3l0.2-0.5c0.2-0.4,0.6-0.8,0.8-1.2l0.7-0.9c0,0,0.4-0.3,0.4-0.4l0.8-1.1l0.7-0.8c0,0,0.7-0.5,1-0.7s0.4-0.5,0.8-0.6
				c0.1-0.1,0.8-0.2,1-0.2h1.6c0.1,0,0.3-0.1,0.4-0.1l0.6-0.3c0.1,0,0.1,0,0.3,0c0.3,0,0.5,0,0.8,0.1c0.3,0,0.8,0.1,1.1,0.1
				c0.3,0.1,0.6,0.2,0.8,0.4l0.3,0.1h0.4c0.1,0,0.2,0,0.5,0c0.1,0,0.4,0,0.6,0c0.2,0,1.4,0.4,1.5,0.4c0.8,0.4,1.6,0.8,2.3,1.3
				c0.5,0.5,1.1,1.4,1.4,1.8l0.1,0.2l0.4,0.6l0.1,0.3l0.5,1.3c0.1,0.3,0.1,0.7,0.2,1.1l0.2,0.7c0,0,0.1,0.1,0.1,0.8v0.6
				c0,0.2,0,0.3,0,0.5l-0.4,3.5v0.3l-0.4,0.8c-0.1,0.4-0.7,2.2-0.8,2.6c-0.2,0.2-0.2,0.5-0.3,0.7l-0.6,0.9c-0.2,0.2-0.9,1-1,1
				c-0.1,0.1-0.8,0.6-1,0.7c0,0,0,0.1-0.2,0.2l-0.3,0.1c-0.3,0.1-0.4,0.4-0.7,0.4l-0.5,0.1c-0.1,0-0.2,0-0.5,0c-0.1,0-0.5,0-0.6,0
				l-1.5,0.4c-0.3,0-0.7,0-0.9,0h-0.4c-0.4,0-0.7,0-1.1-0.1C99.9,67.3,99.3,67.3,98.9,67.2 M98.4,61.5c0.1,0.1,0.4,0.5,0.5,0.5
				c0.1,0.2,0.5,0.6,0.7,0.8c0.1,0.1,0.4,0.3,0.5,0.3h0.3c0.2,0,0.6,0,0.7,0l0.8,0.4c0,0,0.5,0.1,0.6,0.1c0,0,0.4,0,0.5,0h0.6
				c0.1,0,0.7-0.1,0.8-0.1c0.2,0,1.3-0.3,1.5-0.4c0.4-0.2,0.8-0.4,1.1-0.7c0.1-0.2,0.8-1.2,0.9-1.4c0.1-0.1,0.4-0.6,0.5-0.7l0.1-0.3
				c0-0.3,0.4-1.3,0.5-1.6l0.2-0.9c0-0.3,0.1-0.6,0.1-1v-1.6c0-0.1,0-0.5,0-0.6l-0.2-0.4c-0.1-0.2-0.2-0.8-0.2-0.9l-1-1.8
				c-0.2-0.3-0.3-0.5-0.5-0.7c-0.1-0.1-0.2-0.1-0.3-0.3l-0.3-0.3c-0.1,0-0.2-0.1-0.3-0.2l-0.5-0.4l-0.5-0.3c0,0-0.5-0.1-0.6-0.1
				s-0.7-0.1-0.8-0.1c-0.5,0-0.9-0.4-1.4-0.4h-0.2l-0.7,0.4c-0.3,0.2-0.6,0.4-1,0.7l-0.3,0.7l-0.6,0.6l-0.2,0.3
				c-0.4,0.6-0.8,1.3-1,2l-0.4,1.6v0.2l-0.2,0.4L98,55.5c-0.2,0.7-0.3,1.4-0.3,2.2c0,0.5,0,0.9,0.1,1.4c0,0.2,0.2,1.3,0.2,1.6
				c0,0.3,0.3,0.6,0.5,0.7L98.4,61.5"/>
			<path class="st5" d="M114.7,59.6V59c0-0.2,0-0.5,0-0.7c0.1-1.1,0.1-1.2,0.1-1.2l0.1-1.8l0.1-0.5c0-0.2,0.1,0,0.1-0.3l0.2-1
				c-0.4-0.1-0.7-0.2-1.1-0.3h-1.1c-0.2-0.1-0.4-0.2-0.5-0.4c0,0-0.1-0.1,0-0.3c0-0.1,0.1-0.2,0.1-0.4c0.1-0.2,0.2-0.4,0.4-0.4h0.2
				c0.3,0,0.3,0,1,0h0.4l1,0.1c0,0,0.3-0.9,0.4-1.1l0.1-0.3l0.1-0.7c0.1-0.3,0.3-0.7,0.5-0.9c0.1-0.1,0-0.2,0.1-0.3
				c0.2-0.3,0.1-0.6,0.3-0.8c0-0.1,0.3-0.7,0.4-0.8l0.2-0.3l0.2-0.5c0-0.2,0.1-0.3,0.1-0.4c0-0.3,0.4-0.6,0.6-0.9l0.2-0.1h0.1h0.2
				c0.1,0,0.2,0.1,0.4,0.2l0.7,0.9l0.3,0.3c0.2,0.1,0.2,0.3,0.3,0.5s0.5,1.2,0.6,1.3c0,0.1,0.1,0.3,0.1,0.5l0.1,0.8
				c0,0.3,0.1,0.5,0.1,0.8c0.1,0,0.1,0.3,0.1,0.4v0.3l0.1,0.8v0.9c0,0,0.8,0,1.4,0c0.3,0,0.5,0.1,0.6,0.1l0.7,0.1
				c0.4,0.1,0.7,0.2,1,0.5l0.2,0.3c0,0.1,0.1,0.2,0.1,0.3l-0.1,0.2l-0.1,0.1c-0.1,0.1-0.6,0.2-0.8,0.2h-0.1l-0.5-0.1L124,54
				c-0.2,0-1,0.1-1.2,0.1c-0.1,0-0.3,0-0.5,0s-0.4,0-0.5-0.1h-0.2c0,0.1-0.1,0.4-0.1,0.5c0,0.4-0.2,0.4-0.2,0.8
				c0,0.2-0.1,0.6-0.1,0.6c-0.1,0.3-0.3,0.6-0.3,0.9c0,0.1,0,0.2,0,0.3v0.1l-0.2,0.5l-0.2,0.2l-0.4,0.7v0.3c0,0.2,0,0.8,0,0.9v0.5
				l-0.3,2.2c0.1,0.3,0.1,0.5,0.2,0.8l0.2,0.3c0.1,0.1,0.3,0.3,0.5,0.4c0.1,0.1,0.3,0.2,0.4,0.2h0.2h0.3c0,0,0.3-0.1,0.4-0.2
				l0.1-0.1c0.2-0.1,0.5-0.4,0.6-0.5c0.1-0.2,0.5-0.8,0.5-1s0.2-0.5,0.2-0.5c0-0.1-0.1-0.3-0.1-0.4h-0.1c-0.3,0-0.7-0.1-0.7-0.6
				v-0.1c0.1-0.2,0.1-0.3,0.3-0.5c0.1-0.1,0.6-0.1,0.8-0.1c0.1,0,0.3,0.1,0.3,0.2l0.5,0.3c0.1,0.1,0.3,0.2,0.3,0.4
				c0.1,0.2,0.1,0.5,0.1,0.8c-0.1,0.4-0.2,0.8-0.2,1.3c-0.1,0.3-0.2,0.6-0.4,0.9l-0.4,0.5c0,0.1-0.2,0.2-0.3,0.4
				c-0.2,0.2-0.5,0.5-0.8,0.6c-0.2,0.1-0.3,0.1-0.4,0.2c-0.2,0.1-0.6,0.3-0.8,0.3c-0.1,0-0.2,0-0.4,0.1H121c-0.1,0-0.7,0-0.9-0.1
				l-0.5,0.1h-0.3c-0.5-0.1-0.9-0.2-1.4-0.4l-0.3-0.1l-0.7-0.6l-0.3-0.3l-0.3-0.2c-0.2-0.2-0.4-0.4-0.6-0.7
				c-0.1-0.1-0.5-0.8-0.6-0.9l-0.1-0.3l-0.3-0.8c0,0,0-0.1-0.3-2.1L114.7,59.6"/>
			<path class="st5" d="M83.2,43.2c-0.3,0-0.7,0.2-0.8,0.1h-0.5c-0.1,0-0.5-0.1-0.7-0.1h-0.4h-0.6c-0.1,0-0.2,0-0.3,0L79.7,43
				l-0.1-0.3c0,0,0-0.2,0-0.6c0-0.1-0.1-0.7-0.1-0.8c0-0.2-0.2-1.4-0.2-1.6v-0.2V39c0-0.6,0-1.2,0-1.8v-0.5c0-0.1,0-0.2,0-0.3
				c0-0.2,0-0.3,0-0.4c0-0.2,0.1-0.4,0.1-0.6c0,0,0-0.1,0-0.3l0.1-1.1l0.1-0.3c0-0.1,0-0.2,0-0.3c0-0.2,0.1-0.4,0.1-0.6l0.1-0.3
				l0.1-0.4l0.2-0.3c0.1-0.1,0.1-0.1,0.2-0.3l0.2-0.1h0.2l0.7-0.1h0.2l0.9,0.1h0.3c0.3,0,0.5,0,0.8,0h0.2c0.1,0,0.2,0.1,0.4,0.1
				l0.3,0.1c0.4,0,0.9,0.1,1.3,0.1c0.1,0,0.3,0,0.4,0h0.2l0.4,0.2l0.1,0.1v0.1c0,0,0,0.1-0.2,0.3c-0.1,0.1-0.4,0.2-0.5,0.1H86
				c-0.2,0.1-0.4,0-0.6,0.1c-0.3,0-0.5,0-0.9,0.1c-0.3,0-0.8,0-0.9,0.1L83,32.7l-0.2,0.2v0.3c0,0.1,0,0.1,0,0.2l0.1,0.3v0.2V34v1
				v0.2c0,0.1,0,0.1,0.1,0.7v0.3c0.2,0,0.4,0,0.5,0.1c0.2,0,0.4,0.1,0.6,0.2l0.4,0.1c0.1,0,0.2,0,0.3,0s0.2,0,0.3-0.1h0.2h0.5h0.3
				c0.1,0,0.2,0.1,0.3,0.2c0,0.1,0.1,0.1,0.1,0.3v0.1c0,0.1-0.4,0.3-0.4,0.3h-0.3h-0.1h-0.3l-0.5,0.1l-0.2,0.1c-0.1,0-0.2,0-0.4,0
				h-1h-0.1c0,0-0.3,0-0.3,0.2c0,0.3,0.1,1.1,0.1,1.2v0.3c0,0.4,0,0.5,0,0.5c0,0.1-0.1,0.2-0.1,0.2c0,0.2,0,0.8,0,1v0.2
				c0,0.1,0,0.2,0,0.2c0.2,0,0.4,0.2,0.6,0.2l1,0.2h0.2c0.1,0,0.1,0.1,0.2,0c0.2,0,0.4,0.1,0.6,0h0.3c0.1,0,0.3,0,0.4-0.1l0.4,0.1
				h0.2c0.2,0,0.1,0.2,0.2,0.3c0,0.2-0.1,0.2-0.2,0.4c0,0,0,0.1-0.1,0.2c-0.2,0.1-0.3,0.2-0.3,0.2c-0.1,0-0.3,0-0.4,0.1h-0.2
				c-0.1,0-0.2,0-0.3,0H85c-0.1,0-0.2,0.1-0.4,0.1h-0.5h-0.3h-0.6V43.2z"/>
			<path class="st5" d="M92.5,41.9l-0.3-0.3L92,41.3l-0.1-0.2L91.8,41c-0.2-0.2-0.3-0.5-0.6-0.7l-0.5,0.5L90.6,41l-0.1,0.1
				c0,0.1-0.1,0.3-0.2,0.4l-0.5,0.6l-0.2,0.2l-0.1,0.2l-0.1,0.2v0.1L89,43.2v0.1l-0.1,0.1h-0.2h-0.3h-0.3l-0.4-0.2
				c-0.1-0.1-0.2-0.2-0.2-0.3v-0.1l0.1-0.2l0.1-0.1l0.3-0.3l0,0l0.2-0.3l0.4-0.6l0.4-0.4c0.1-0.1,0.1-0.2,0.2-0.3l0.3-0.3
				c0.1-0.1,0.2-0.2,0.3-0.4l0.2-0.3l0.4-0.4l-0.1-0.1l-0.2-0.2c-0.1-0.1-0.2-0.2-0.3-0.3l-0.2-0.3C89,37.6,89,37.5,89,37.5
				l-0.5-0.8v-0.1c-0.1-0.1-0.1-0.2-0.2-0.3l-0.2-0.2c-0.1-0.2-0.1-0.4-0.2-0.6v-0.2v-0.2V35v-0.2c0.1-0.1,0.1-0.1,0.2-0.1h0.1
				l0.3,0.2l0.2,0.1l0.2,0.2l0.6,0.2c0.1,0,0.2,0,0.3,0.1h0.1l0.2,0.1l0.2,0.1l0.1,0.1l0.4,0.2c0.1,0.1,0.1,0.1,0.2,0.2l0.1,0.1
				c0.1,0.1,0.2,0.1,0.3,0.2l0.5,0.3l0.2,0.1c0.1-0.1,0.2-0.2,0.3-0.4l0.2-0.2l0.2-0.3l0.2-0.3l0.1-0.1l0.5-0.5l0.3-0.2l0.1-0.1
				l0.1-0.2l0.1-0.1l0,0c0-0.1,0.2-0.2,0.4-0.2h0.1v0.1v0.1v0.1v0.1c0,0.4-0.2,0.7-0.2,1.2c0,0.1,0,0.2,0,0.3c0,0.3-0.1,0.5-0.3,0.6
				l-0.1,0.1L94,37.3c0,0.1-0.2,0.4-0.2,0.4v0.1c0,0-0.1,0.1-0.1,0.2l0.1,0.1l0.4,0.4l0.4,0.3c0.1,0.1,0.2,0.2,0.3,0.4l0.2,0.2
				c0.2,0.2,0.2,0.5,0.2,0.8v0.1l0.1,0.1c0.1,0.1,0.1,0.2,0.1,0.3l0.1,1.5v0.1l0.1,0.2V43v0.1c-0.1,0.2-0.2,0.3-0.4,0.3
				c-0.1,0-0.2-0.1-0.4-0.2l-0.2-0.1h-0.1c-0.1-0.1-0.3-0.1-0.4-0.2l-0.1-0.1l-0.2-0.2L92.5,41.9z"/>
			<path class="st5" d="M96.9,40.7v-0.3c0-0.1,0-0.3-0.1-0.3c0-0.6,0-0.6,0-0.6l-0.1-1v-0.3c0-0.1,0,0,0-0.2v-0.5
				c-0.2,0-0.4-0.1-0.6-0.1h-0.6c-0.1,0-0.2-0.1-0.3-0.2c0,0,0,0,0-0.2c0-0.1,0-0.1,0-0.2s0.1-0.2,0.2-0.2h0.1c0.2,0,0.2,0,0.5,0
				h0.2h0.5c0,0,0.1-0.5,0.1-0.6v-0.1v-0.4c0-0.2,0.1-0.4,0.2-0.5v-0.2c0.1-0.2,0-0.3,0.1-0.4l0.1-0.4l0.1-0.2l0.1-0.3v-0.2
				c0-0.2,0.2-0.4,0.3-0.5h0.1h0.1H98l0.2,0.1l0.4,0.4l0.2,0.2c0.1,0,0.1,0.1,0.2,0.2l0.4,0.7l0.1,0.2l0.1,0.4
				c0,0.1,0.1,0.3,0.1,0.4l0.1,0.2v0.2l0.1,0.4l0.1,0.5c0,0,0.4-0.1,0.7-0.1c0.1,0,0.3,0,0.3,0h0.4c0.2,0,0.4,0,0.6,0.2l0.1,0.1
				l0.1,0.2v0.1v0.1c-0.1,0.1-0.3,0.2-0.4,0.2h-0.1h-0.2h-0.2c-0.1,0-0.5,0.1-0.6,0.1c0,0-0.1,0-0.2,0s-0.2,0-0.3,0h-0.1v0.3
				c0,0.2-0.1,0.2-0.1,0.4c0,0.1,0,0.3,0,0.3c0,0.2-0.1,0.3-0.1,0.5v0.1v0.1l-0.1,0.3l-0.1,0.1L99.6,40v0.2c0,0.1,0.1,0.4,0.1,0.5
				v0.2v1.2c0.1,0.1,0.1,0.2,0.2,0.4l0.1,0.2l0.3,0.2l0.2,0.1h0.1h0.2l0.2-0.1l0.1-0.1c0.1-0.1,0.2-0.2,0.3-0.3
				c0-0.1,0.2-0.5,0.2-0.5l0.1-0.3l-0.1-0.2h-0.1c-0.2,0-0.4,0-0.4-0.2l0,0c0-0.1,0-0.2,0.1-0.3c0.1-0.1,0.3-0.1,0.4-0.1l0.2,0.1
				l0.3,0.1c0.1,0,0.2,0.1,0.2,0.2c0.1,0.1,0.1,0.3,0.1,0.4c0,0.2,0,0.5,0,0.7c0,0.1-0.1,0.3-0.1,0.5l-0.2,0.3l-0.1,0.2
				c-0.1,0.1-0.2,0.3-0.4,0.4l-0.2,0.1c-0.1,0-0.3,0.2-0.4,0.2l-0.2,0.1l0,0h-0.5l-0.3,0.1h-0.1c-0.2,0-0.5,0-0.7-0.1h-0.1l-0.4-0.3
				l-0.2-0.1l-0.2-0.1c-0.1-0.1-0.2-0.2-0.4-0.3L97.5,43l-0.1-0.1l-0.2-0.4c0,0,0-0.1-0.3-1.1L96.9,40.7"/>
			<path class="st5" d="M103.5,42.8l-0.1-0.2v-0.1c0-0.1-0.1-0.2-0.1-0.3l-0.1-0.2v-0.2c0,0-0.1-0.4-0.1-0.5s0-0.3-0.1-0.3l-0.3-1.2
				c0-0.1,0-0.3,0-0.5c0-0.1,0-0.4,0-0.5l0.1-0.6c0-0.2,0-0.4,0.1-0.6v-0.3v-0.2l0.1-0.8l0.1-0.4v-0.3c0-0.2,0.1-0.5,0.2-0.7
				c0.1-0.3,0.1-0.5,0.3-0.7c0.1,0,0.1-0.1,0.2-0.1h0.2c0.2,0.1,0.2,0.2,0.3,0.3l0.1,0.2c0.1,0.1,0.2,0.4,0.2,0.4l0.1-0.1l0.1-0.1
				l0.4-0.3l0.2-0.1l0.3-0.1h0.1l0.2-0.1h0.2h0.2c0.1,0,0.2,0,0.4,0h0.3c0.1,0,0.2,0.1,0.3,0.2h0.1c0.1,0.1,0.2,0.2,0.3,0.3v0.1
				l0.1,0.3c0,0.1,0,0.2-0.1,0.3c-0.2,0.2-0.2,0.2-0.5,0.2c-0.2,0-0.3,0-0.4-0.2l-0.1-0.1c0,0-0.1-0.1-0.2-0.1h-0.2
				c-0.2,0-0.3,0.1-0.5,0.2l-0.2,0.3c-0.1,0.1-0.1,0.1-0.2,0.2l-0.2,0.2l-0.2,0.2l-0.1,0.1l-0.1,0.2v0.2l0.1,0.5l0.2,0.4l0.1,0.5
				l0.1,0.4v0.9c0,0.3,0,0.6,0,0.9v0.1c-0.1,0.1-0.2,0.3-0.2,0.5v0.2c0,0.1,0,0.2-0.1,0.3c-0.2,0.2-0.3,0.3-0.4,0.5
				c-0.1,0.1-0.1,0.2-0.3,0.4c0,0.1-0.1,0.2-0.2,0.3c-0.1,0.1,0,0.3-0.1,0.4l-0.1,0.2l-0.1,0.1h-0.1l-0.2-0.1L103.5,42.8z"/>
			<path class="st5" d="M112.3,42.9l-0.2,0.2l-0.2,0.1l-0.2,0.1c-0.3,0.1-0.6,0.2-0.9,0.1h-0.2c0,0,0,0-0.2,0c-0.1,0-0.2,0-0.3,0
				l-0.8-0.2h-0.1c-0.2,0-0.4-0.2-0.6-0.2c-0.2,0-0.3-0.2-0.5-0.3c-0.3-0.2-0.5-0.5-0.6-0.9v-0.2c-0.1-0.2-0.3-0.5-0.4-0.7v-0.1
				l-0.1-0.3c-0.1-0.3-0.1-0.6-0.1-0.9v-0.2c0.1-0.2,0.1-0.4,0.2-0.6c0,0,0.2-0.3,0.2-0.5l0.1-0.2c0.2-0.2,0.4-0.4,0.6-0.6l0.1-0.2
				c0.2-0.1,0.3-0.2,0.4-0.3c0.1-0.1,0.3-0.1,0.4-0.1l0.2-0.1h0.3h0.6h0.6h0.3c0.4,0,0.8,0.1,1.2,0.2l0.2,0.1c0.1,0,0.2,0.1,0.3,0.1
				v-0.1v-0.2v-0.2l-0.1-0.5v-0.5l-0.1-0.3c-0.1-0.2-0.5-0.7-0.7-0.8h-0.2h-0.8h-0.2l-0.2,0.1l-0.4,0.2h-0.1h-0.2l-0.2,0.1l-0.1,0.1
				c-0.1,0.1-0.1,0.1-0.3,0.1l-0.1-0.1c-0.1-0.1-0.1-0.1-0.1-0.1v-0.2v-0.1c0-0.2,0.1-0.2,0.2-0.3l0.2-0.1h0.1l0.4-0.3
				c0.2-0.1,0.4-0.1,0.6-0.2h0.2h0.2h0.1h0.3c0,0,0,0,0.2,0c0.1,0,0.2,0,0.3,0l0.7,0.2l0.3,0.1h0.1l0.1,0.1h0.1
				c0.3,0.1,0.6,0.2,0.9,0.5l0.4,0.5l0.2,0.2c0.1,0.1,0.1,0.1,0.2,0.2l0.1,0.1l0.1,0.2c0.4,0.7,0.4,0.7,0.4,0.7
				c0.1,0.2,0.2,0.4,0.2,0.5v0.2c0,0.2,0.2,0.3,0.2,0.4v0.1V38c0.1,0.2,0.1,0.5,0.1,0.7v0.1v0.1l0.1,0.3v0.2v0.2l0.1,0.7v0.1
				c0,0.2-0.1,0.3-0.2,0.5l-0.1,0.3l-0.3,0.3c-0.1,0.1-0.2,0.2-0.2,0.3l-0.2,0.3l-0.2,0.2l-0.1,0.2l-0.4,0.3
				c-0.1,0.1-0.1,0.1-0.2,0.2c-0.1,0.1-0.2,0.1-0.3,0.2v0.1l-0.2,0.3c-0.1,0.1-0.2,0.2-0.3,0.3h-0.1H113c-0.2-0.1-0.2-0.2-0.3-0.4
				v0.1v-0.5v-0.3l-0.1-0.2C112.6,42.7,112.4,42.8,112.3,42.9 M109.1,41l0.1,0.2v0.3c0,0.1,0.1,0.2,0.1,0.3l0.3,0.3
				c0.1,0,0.1,0.1,0.2,0.1h0.2h0.2l0.2,0.1h0.2h0.2h0.3h0.1l0.1-0.1c0.2,0,0.3-0.1,0.5-0.2l0.7-0.6c0-0.3,0,0,0-1.1v-0.4v-0.2v-0.3
				c0-0.1,0-0.6,0.1-0.7c-0.1-0.3-0.1-0.3-0.1-0.3v-0.1l-0.4-0.2H112l-0.4-0.1h-0.1c-0.1,0-0.3,0-0.4,0h-0.2l-0.2,0.2l-0.4,0.1
				c-0.1,0-0.3,0.1-0.3,0.1c-0.2,0.1-0.3,0.2-0.5,0.2l-0.1,0.1c-0.1,0.1-0.3,0.3-0.3,0.4s-0.1,0.2-0.1,0.3c0,0.1,0,0.2,0,0.3v0.4
				v0.2l-0.1,0.3L109.1,41"/>
		</g>
		<g>
			<path class="st5" d="M49.4,216.8c0-0.1-0.1-0.2,0-0.4l-0.2-0.7v-0.1l-0.3-1.3V214c0-0.1,0-0.4,0-0.5v-0.2c0-0.1,0-0.2,0-0.3
				l0.1-0.7v-0.1c0.1-0.3,0.2-0.5,0.3-0.8l0.1-0.1c0-0.1,0.1-0.2,0.2-0.2l0.1-0.1l0.1-0.2l0.1-0.2l0.1-0.1l0.1-0.1l0.1-0.1h0.1
				l0.1,0.1l-0.3,0.2l0.1,0.1l0.2,0.3c0.1,0.2,0.2,0.4,0.3,0.6l0.1,0.1c0.1,0.2,0.1,0.4,0.1,0.5v0.3v0.3c0,0.1,0,0.2,0,0.3l-0.1,0.3
				c0,0.1-0.1,0.7-0.1,0.8v0.3c0,0-0.1,0.5-0.1,0.6s-0.1,0.2-0.1,0.3l-0.1,0.2l-0.2,0.3l-0.1,0.3v0.1v0.1v0.1
				c-0.1,0.1-0.2,0.3-0.2,0.4v0.3c0,0.1-0.1,0.3-0.1,0.3l-0.1,0.1h-0.1l-0.1-0.1c0-0.1,0-0.2,0-0.3V217L49.4,216.8 M49.5,209.4
				l-0.2-0.3l-0.1-0.1v-0.1v-0.2v-0.2v-0.2l0.1-0.1v-0.1l0.1-0.1l0.1-0.1l0.2-0.1h0.2c0.1,0,0.1,0,0.3,0c0.1,0,0.2,0.1,0.3,0.1
				l0.2,0.1l0.1,0.1l0.1,0.1l0.1,0.2v0.1v0.2c0,0.1-0.1,0.3-0.1,0.4l-0.1,0.2l-0.1,0.1l-0.1,0.2l-0.1,0.1h-0.1h-0.2
				c-0.1,0-0.1,0-0.2,0h-0.1l-0.2-0.1h-0.1L49.5,209.4z"/>
			<path class="st5" d="M52.7,217.2c0-0.1-0.1-0.2-0.1-0.3c-0.1-0.2-0.2-0.6-0.2-0.8v-0.2v-0.2c0-0.1,0-0.2,0-0.3c0-0.1,0-0.2,0-0.3
				v-0.8c0-0.2,0-0.4,0-0.6v-0.2v-0.4c0-0.1,0-0.2,0-0.3v-0.3c0-0.5,0-1,0-1v-0.1V211c0-0.1,0.1-0.3,0.1-0.3v-0.2v-0.2
				c0-0.1,0.1-0.6,0.1-0.7s0.1-0.5,0.1-0.6l0.1-0.4c0-0.1,0.1-0.2,0.2-0.3v-0.1l0.1-0.2c0-0.1,0.1-0.2,0.2-0.2h0.1l0.1,0.2
				c0.1,0.2,0.1,0.3,0.2,0.3l0.1,0.2c0.1,0.1,0,0.3,0.1,0.3v0.1l0.1,0.2c0.1,0.1,0.2,0.3,0.2,0.4c0,0,0,0.1,0,0.3v0.2v0.8
				c0,0.1,0.1,0.3,0.1,0.4v0.1v0.2v0.2v0.1v0.4c0,0.1,0,0.1,0,0.2v0.2v0.3c0,0.1-0.1,0.6-0.1,0.7l-0.1,0.4l-0.1,0.1l-0.1,0.2
				c0,0.1-0.1,0.2-0.2,0.3l-0.1,0.2l-0.1,0.1c0,0.1,0,0.2-0.1,0.3c0,0.1-0.1,0.6-0.1,0.7s-0.1,0.3-0.1,0.4v0.1l-0.1,0.2v0.2v0.1
				c0,0.1-0.1,0.2-0.2,0.2l0,0L52.7,217.2"/>
			<path class="st5" d="M59,216.1v-0.2v-0.2h-0.2c-0.1,0-0.3,0.1-0.3,0.1c-0.1,0-0.3,0.1-0.4,0.1c0,0-0.4,0-0.8,0
				c0,0-0.5-0.1-0.7-0.2l-0.2-0.1c-0.2-0.1-0.4-0.2-0.5-0.4l-0.2-0.3c-0.1-0.1-0.1-0.3-0.2-0.4c-0.1-0.2-0.2-0.4-0.2-0.6v-0.3
				c0-0.1-0.1-0.2-0.1-0.3c0-0.1,0-0.2,0-0.3v-0.1c0-0.1,0-0.2,0-0.3l0.1-0.3c0-0.1,0.1-0.2,0.2-0.4l0.1-0.2l0.1-0.1
				c0.1-0.2,0.3-0.3,0.5-0.5l0.1-0.1l0.4-0.1l0.3-0.1c0.2-0.1,0.4-0.1,0.6-0.1h0.1c0.2,0,0.2,0,0.3,0h0.2h0.3l0.2,0.1
				c0.1,0,0.2,0,0.3,0v-0.1l0.1-0.5c0,0,0.2-0.7,0.2-1l0.1-0.2c0-0.1,0.1-0.2,0.1-0.3c0.1-0.1,0.1-0.3,0.1-0.4l0.1-0.7l0.1-0.2v-0.3
				c0-0.2,0.1-0.3,0.2-0.4v-0.1l0.1-0.2l0.1-0.1l0.1-0.1l0.2-0.1l0.1,0.1c0.1,0.1,0.1,0.1,0.1,0.2l0.1,0.2v0.1l0.1,0.1
				c0.2,0.3,0.2,0.4,0.2,0.4l0.1,0.2c0,0.2,0.1,0.4,0.1,0.6s0.1,0.4,0,0.6v0.2v0.1v0.1c0,0.1,0,0.1,0,0.2v0.1v0.3c0,0.1,0,0.2,0,0.3
				v0.4v0.1c0,0.2-0.1,0.4-0.1,0.6v0.4v0.3v0.3v0.2c0,0.2-0.1,0.3-0.1,0.5l-0.1,0.2c0,0.1-0.1,0.2-0.1,0.3c-0.1,0.1,0,0.2-0.1,0.3
				l-0.1,0.2l-0.1,0.1c0,0.1,0,0.2-0.1,0.3c0,0.1-0.1,0.2-0.1,0.2l-0.1,0.2l-0.1,0.1c-0.1,0.1-0.1,0.3-0.2,0.4l-0.1,0.2l-0.1,0.2
				c-0.1,0.1-0.1,0.1-0.2,0.3l-0.1,0.1h-0.1h-0.1l-0.1-0.2C58.9,216.3,59,216.2,59,216.1 M56.6,213.9v0.2v0.3l0.1,0.2l0.1,0.2
				c0.1,0.2,0.2,0.3,0.4,0.4l0.3,0.2h0.2c0.2,0,0.4,0,0.6,0l0.3-0.1l0.1-0.1c0.1-0.1,0.4-0.2,0.5-0.3v-0.1c0.1-0.5,0-1,0-1.6V213
				v-0.3c0-0.2,0-0.4,0-0.6c0,0,0-0.1,0-0.3c0-0.1,0-0.2,0-0.2h-0.1h-0.2c-0.1,0-0.2,0.1-0.4,0.1h-0.2l-0.1,0.1l-0.2,0.1
				c-0.2,0.1-0.4,0.1-0.5,0.3l-0.3,0.4l-0.3,0.3c0,0.1-0.1,0.3-0.2,0.3v0.1c0,0.1,0,0.2,0,0.2L56.6,213.9"/>
			<path class="st5" d="M46.5,215.9v-0.2c0-0.2-0.3-1.3-0.4-1.5l-0.1-0.3l-0.1-0.1l-0.1-0.7c-0.1-0.1-0.1-0.1-0.1-0.2l-0.5,0.9l0,0
				c-0.1,0.3-0.3,0.6-0.5,0.8c-0.1,0.2-0.1,0.4-0.2,0.6s-0.3,0.4-0.4,0.5l-0.2,0.2h-0.1l0,0c-0.1,0-0.2-0.1-0.3-0.1
				c-0.1-0.1-0.2-0.2-0.3-0.4l-0.1-0.1l-0.1-0.2l-0.2-0.3l-0.2-0.5v-0.2l-0.1-0.3c-0.1-0.2-0.2-0.5-0.3-0.7c0,0-0.1-0.3-0.2-0.4
				v-0.2l-0.2-0.4l-0.1-0.2l-0.1-0.2v0.1c-0.1,0.2-0.1,0.2-0.1,0.3c0,0.1,0,0.2-0.1,0.3v0.3l-0.1,0.6l-0.1,0.2v0.4l-0.1,0.3
				l-0.2,1.2c0,0.1,0,0.2-0.1,0.3l-0.1,0.5l-0.1,0.2c0,0.1-0.2,0.4-0.3,0.5c-0.1,0.1-0.1,0.2-0.2,0.3c-0.1,0.1-0.2,0.1-0.3,0.1h-0.2
				l-0.2,0.1h-0.2l-0.2-0.1v-0.1v-0.1c0-0.1-0.1-0.5-0.1-0.7c0-0.1,0-0.6,0-0.7l0.1-1.5l0.2-0.9v-0.1c0.1-0.3,0.2-0.7,0.3-1
				c0,0,0.1-0.1,0.1-0.2l0.1-0.4c0.1-0.1,0.1-0.3,0.1-0.4c0-0.2,0.1-0.4,0.1-0.6l0.3-1c0,0,0.1-0.2,0.1-0.3c0.1-0.3,0.2-0.6,0.3-0.9
				l0.1-0.1c0.1-0.1,0.1-0.2,0.2-0.4l0.1-0.2l0.1-0.4l0.1-0.1c0.1-0.1,0.2-0.2,0.3-0.2c0.1,0,0.3,0.1,0.4,0.2l0.1,0.2
				c0.1,0.1,0.1,0.2,0.1,0.3l0.1,0.1l0.1,0.2c0.1,0.2,0.1,0.3,0.2,0.5v0.2l0.1,0.4l0.3,0.5l0.1,0.3l0.1,0.1l0.1,0.3
				c0.1,0.1,0.1,0.2,0.2,0.3v0.1c0.1,0.3,0.2,0.7,0.4,1.1c0.1,0.1,0.1,0.3,0.2,0.4c0-0.3,0.1-0.4,0.2-0.7l0.1-0.5l0.1-0.3
				c0-0.2,0-0.4,0.1-0.6c0-0.1,0-0.2,0.1-0.3l0.1-0.5l0.1-0.2c0.1-0.2,0-0.4,0.1-0.6c0-0.1,0.1-0.2,0.1-0.3l0.1-0.1V208
				c0.1-0.3,0.1-0.3,0.1-0.3c0-0.1,0.1-0.2,0.1-0.3l0.1-0.1v-0.1c0.1,0,0.1-0.1,0.2-0.1s0.1,0,0.2,0.1l0.2,0.1l0.2,0.1l0.2,0.2v0.1
				c0.1,0.1,0.1,0.4,0.2,0.5l0.1,0.2l0.1,0.1c0,0.1,0,0.2,0,0.3l0.2,0.6c0,0.1,0.1,0.3,0.1,0.3c0,0.1,0.1,0.1,0.1,0.2l0.1,0.2
				l0.4,1.5v0.2l0.1,0.2c0.2,0.2,0.2,0.8,0.2,0.8l0.1,0.2v0.3v0.3c0,0.1,0.1,0.3,0.1,0.4v0.1c0.1,0.7,0,1.4,0.1,2.1
				c0,0.2,0,0.3,0,0.5c0,0.1,0,0.2,0,0.3v0.2c0,0.1,0,0.3-0.1,0.4c0,0.1-0.1,0.1-0.2,0.1h-0.2h-0.1c-0.3-0.2-0.3-0.5-0.4-0.7
				c0-0.1,0-0.2-0.1-0.2L46.5,215.9z"/>
			<path class="st5" d="M45,206.2c-0.2,0-0.6,0.2-0.7,0.1h-0.4c-0.1,0-0.4,0-0.6,0H43h-0.5c-0.1,0-0.1,0-0.2,0l-0.2-0.1L42,206
				c0,0,0-0.2,0-0.5c0-0.1-0.1-0.6-0.1-0.7s-0.2-1.2-0.3-1.3v-0.2v-0.4c0-0.5,0-1-0.1-1.5V201c0-0.1,0-0.2,0-0.3c0-0.2,0-0.2,0-0.3
				c0-0.2,0.1-0.3,0-0.5c0,0,0-0.1,0-0.2l0.1-0.9l0.1-0.2c0-0.1,0-0.1,0-0.2c0-0.2,0.1-0.3,0.1-0.5l0.1-0.2l0.1-0.3l0.1-0.2
				c0-0.1,0.1-0.1,0.1-0.3l0.2-0.1h0.1l0.6-0.1h0.2l0.7,0.1h0.2c0.2,0,0.4,0,0.7,0h0.2c0.1,0,0.2,0.1,0.3,0.1h0.3
				c0.3,0,0.8,0.1,1.1,0.1c0.1,0,0.2-0.1,0.3-0.1h0.2l0.3,0.1l0.1,0.1v0.1c0,0,0,0.1-0.1,0.3c-0.1,0.1-0.3,0.1-0.4,0.1H47
				c-0.2,0.1-0.3,0-0.5,0.1c-0.2,0-0.4,0-0.8,0.1c-0.2,0-0.7,0.1-0.7,0.1h-0.5l-0.2,0.2v0.2c0,0.1,0,0.1,0,0.2l0.1,0.3v0.1v0.1v0.8
				v0.2c0,0.1,0,0.1,0.1,0.5v0.3c0.2,0,0.3,0,0.5,0.1c0.1,0,0.3,0.1,0.5,0.1l0.4,0.1c0.1,0,0.1,0,0.2,0l0.2-0.1h0.2h0.4h0.2l0.3,0.1
				c0,0.1,0.1,0,0.1,0.2v0.1c0,0.1-0.3,0.2-0.3,0.3H47h-0.1h-0.2l-0.4,0.1l-0.2,0.1c-0.1,0-0.2,0-0.3,0H45h-0.1c0,0-0.3,0.1-0.2,0.2
				c0,0.3,0.1,1,0.1,1v0.2c0,0.3,0,0.4,0,0.4l-0.1,0.2c0,0.1,0,0.7,0,0.8v0.2v0.2c0.2,0,0.3,0.1,0.5,0.1l0.9,0.1h0.2
				c0.1,0,0.1,0,0.2,0c0.2,0,0.4,0,0.5,0h0.2c0.1,0,0.2,0,0.3-0.1h0.3H48c0.2,0,0.1,0.1,0.2,0.3c0,0.1,0,0.2-0.1,0.3
				c0,0,0,0.1-0.1,0.1c-0.2,0.1-0.3,0.1-0.3,0.1l-0.3,0.1h-0.2c-0.1,0-0.1,0-0.2,0h-0.4c-0.1,0-0.2,0.1-0.3,0.1h-0.4h-0.3L45,206.2z
				"/>
			<path class="st5" d="M52.7,204.7l-0.3-0.2l-0.2-0.2l-0.1-0.2L52,204c-0.2-0.2-0.3-0.4-0.5-0.5l-0.4,0.4L51,204l-0.1,0.1
				c0,0.1-0.1,0.2-0.2,0.3l-0.4,0.5l-0.1,0.1l-0.1,0.1l-0.1,0.2v0.1l-0.3,0.3v0.1l-0.1,0.1h-0.2h-0.2H49l-0.3-0.1l-0.2-0.2v-0.1
				v-0.2l0.1-0.1l0.2-0.2l0,0l0.1-0.3l0.3-0.5l0.3-0.4c0.1-0.1,0.1-0.2,0.2-0.3l0.2-0.3c0.1-0.1,0.1-0.2,0.2-0.3l0.1-0.2l0.3-0.4
				l-0.1-0.1l-0.2-0.2c-0.1-0.1-0.2-0.2-0.2-0.3l-0.1-0.2c-0.5-0.6-0.5-0.6-0.5-0.6l-0.5-0.6v-0.1c-0.1-0.1-0.1-0.2-0.2-0.2
				l-0.1-0.2c-0.1-0.1-0.1-0.3-0.1-0.5v-0.1v-0.1V199v-0.2c0.1-0.1,0.1-0.1,0.2-0.1h0.1l0.2,0.1l0.1,0.1l0.2,0.1l0.5,0.1
				c0.1,0,0.2,0,0.2,0.1h0.1l0.2,0.1l0.1,0.1h0.1l0.3,0.2c0.1,0,0.1,0.1,0.2,0.1l0.1,0.1c0.1,0.1,0.2,0.1,0.3,0.2l0.4,0.3l0.3,0.3
				c0.1-0.1,0.2-0.2,0.3-0.3l0.1-0.2l0.2-0.2l0.2-0.3l0.1-0.2l0.4-0.4l0.2-0.1v-0.1l0.2-0.2l0.1-0.1l0,0c0-0.1,0.2-0.2,0.3-0.2h0.1
				v0.1v0.1v0.1v0.1c0,0.3-0.1,0.6-0.1,1c0,0.1,0,0.1,0,0.2c0,0.2,0,0.4-0.2,0.5l-0.1,0.1l-0.1,0.3c0,0.1-0.2,0.3-0.2,0.4v0.1
				l-0.1,0.2l0.1,0.1l0.3,0.4l0.3,0.2c0.1,0.1,0.1,0.2,0.2,0.3l0.2,0.2c0.2,0.2,0.2,0.4,0.2,0.7v0.1l0.1,0.1
				c0.1,0.1,0.1,0.1,0.1,0.2l0.1,1.3v0.1l0.1,0.2v0.4v0.1c-0.1,0.1-0.2,0.3-0.3,0.3c-0.1,0-0.2-0.1-0.3-0.2l-0.2-0.1h-0.1
				c-0.1-0.1-0.2-0.1-0.3-0.1h-0.1l-0.2-0.1L52.7,204.7z"/>
			<path class="st5" d="M56.3,203.6l-0.1-0.3c0-0.1,0-0.2-0.1-0.3c0-0.5,0-0.5,0-0.5l-0.1-0.8v-0.2c0-0.1,0,0,0-0.1v-0.5
				c-0.2,0-0.3-0.1-0.5,0L55,201c-0.1,0-0.2-0.1-0.2-0.1s0,0,0-0.1s0-0.1,0-0.2s0.1-0.2,0.2-0.2h0.1c0.1,0,0.1,0,0.4-0.1h0.2h0.4
				c0,0,0.1-0.4,0.1-0.5v-0.1v-0.3c0-0.1,0.1-0.3,0.1-0.4v-0.1c0-0.1,0-0.2,0.1-0.4l0.1-0.4l0.1-0.2l0.1-0.2v-0.2
				c0-0.1,0.1-0.3,0.2-0.4H57h0.1h0.1l0.2,0.1l0.4,0.3l0.1,0.1l0.1,0.2l0.3,0.5l0.1,0.2l0.1,0.3c0,0.1,0.1,0.2,0.1,0.3l0.1,0.2v0.1
				l0.1,0.3l0.1,0.4c0,0,0.4-0.1,0.6-0.1c0.1,0,0.2,0,0.3,0h0.3c0.2,0,0.3,0,0.5,0.1l0.1,0.1l0.1,0.1v0.1v0.1l-0.3,0.1h-0.1h-0.2H60
				l-0.5,0.1c0,0-0.1,0-0.2,0s-0.2,0-0.2,0H59v0.2c0,0.2,0,0.2,0,0.4c0,0.1,0,0.2,0,0.3c0,0.1-0.1,0.3-0.1,0.4v0.1v0.1l-0.1,0.2
				l-0.1,0.1l-0.1,0.3v0.1l0.1,0.4v0.2v1c0.1,0.1,0.1,0.2,0.2,0.3l0.1,0.1l0.2,0.1h0.2h0.1h0.1l0.2-0.1v-0.1
				c0.1-0.1,0.2-0.2,0.2-0.3c0-0.1,0.1-0.4,0.1-0.5v-0.2l-0.1-0.2h-0.1c-0.1,0-0.3,0-0.3-0.2l0,0c0-0.1,0-0.2,0.1-0.2l0.3-0.1
				l0.2,0.1l0.2,0.1c0.1,0,0.1,0.1,0.1,0.2c0.1,0.1,0.1,0.2,0.1,0.3c0,0.2,0,0.4,0,0.6c0,0.1,0,0.3-0.1,0.4l-0.1,0.2l-0.1,0.2
				c-0.1,0.1-0.2,0.3-0.3,0.3l-0.2,0.1c-0.1,0-0.2,0.2-0.3,0.2l-0.2,0.1l0,0h-0.4l-0.2,0.1h-0.1c-0.2,0-0.4,0-0.6-0.1h-0.1l-0.4-0.2
				l-0.1-0.1l-0.1-0.1c-0.1,0-0.2-0.1-0.3-0.2l-0.3-0.3l-0.1-0.1l-0.2-0.3c0,0,0-0.1-0.3-0.9L56.3,203.6"/>
			<path class="st5" d="M61.9,205.1l-0.1-0.2v-0.1c0-0.1-0.1-0.1-0.1-0.2l-0.1-0.2v-0.2c0,0-0.1-0.3-0.1-0.4s0-0.2-0.1-0.3l-0.3-1
				c0-0.1,0-0.2-0.1-0.4v-0.4l0.1-0.5c0-0.2,0-0.3,0-0.5v-0.2v-0.2l0.1-0.6v-0.4v-0.2c0-0.2,0.1-0.4,0.1-0.6s0-0.4,0.2-0.6
				c0.1,0,0.1-0.1,0.2-0.1h0.2c0.1,0,0.2,0.2,0.3,0.3l0.1,0.1c0.1,0.1,0.2,0.3,0.2,0.3l0.1-0.1l0.1-0.1l0.3-0.2l0.2-0.1l0.2-0.1h0.1
				l0.2-0.1h0.1H64c0.1,0,0.2,0,0.3,0h0.3c0.1,0,0.2,0.1,0.2,0.1h0.1c0.1,0.1,0.2,0.1,0.3,0.2v0.1l0.1,0.2l-0.1,0.2
				c-0.1,0.1-0.2,0.2-0.4,0.2c-0.2,0-0.3,0-0.4-0.2l-0.1-0.1l-0.1-0.1H64c-0.1,0-0.3,0.1-0.4,0.2l-0.2,0.2c0,0.1-0.1,0.1-0.1,0.2
				l-0.1,0.1l-0.2,0.2l-0.1,0.1l-0.1,0.2v0.1l0.1,0.4l0.1,0.3l0.1,0.4l0.1,0.4l0.1,0.7c0,0.3,0,0.5,0,0.8v0.1
				c-0.1,0.1-0.1,0.2-0.2,0.4v0.1c0,0.1,0,0.2-0.1,0.3c-0.1,0.2-0.2,0.3-0.3,0.4c0,0.1-0.1,0.1-0.3,0.3c0,0.1-0.1,0.2-0.1,0.3
				c-0.1,0.1,0,0.2-0.1,0.3l-0.1,0.1L61.9,205.1L61.9,205.1l-0.2-0.1L61.9,205.1z"/>
			<path class="st5" d="M69.3,204.9l-0.1,0.1l-0.2,0.1l-0.2,0.1c-0.3,0.1-0.5,0.2-0.7,0.1h-0.2c0,0,0,0-0.2,0c-0.1,0-0.2,0-0.3,0
				l-0.7-0.1h-0.1c-0.2,0-0.3-0.1-0.5-0.2c-0.1,0-0.3-0.2-0.4-0.2c-0.3-0.2-0.4-0.4-0.6-0.7V204c-0.1-0.2-0.2-0.4-0.3-0.6v-0.1
				l-0.1-0.2c-0.1-0.2-0.1-0.5-0.1-0.7v-0.2c0-0.2,0.1-0.3,0.1-0.5c0,0,0.1-0.3,0.2-0.4l0.1-0.1c0.1-0.2,0.3-0.3,0.4-0.5l0.1-0.1
				c0.1-0.1,0.2-0.2,0.3-0.2c0.1-0.1,0.3-0.1,0.4-0.1l0.2-0.1h0.2h0.5h0.5h0.2c0.3,0,0.7,0.1,1,0.2l0.2,0.1c0.1,0,0.2,0.1,0.3,0.1
				v-0.1v-0.1v-0.2l-0.1-0.4v-0.4l-0.1-0.2c-0.1-0.2-0.4-0.6-0.6-0.6h-0.2h-0.7h-0.1l-0.2,0.1l-0.3,0.2h-0.1h-0.2l-0.2,0.1l-0.1,0.1
				c-0.1,0.1-0.1,0.1-0.2,0.1l-0.1-0.1C66,199,66,199,66,199v-0.2v-0.1c0-0.1,0.1-0.2,0.2-0.3l0.1-0.1h0.1l0.3-0.3
				c0.2-0.1,0.3-0.1,0.5-0.2h0.1h0.2h0.1h0.2c0,0,0,0,0.2,0c0.1,0,0.1,0,0.2,0l0.6,0.2l0.3,0.1h0.1l0.1,0.1h0.1
				c0.3,0.1,0.5,0.2,0.7,0.4l0.3,0.4l0.1,0.2l0.1,0.2l0.1,0.1l0.1,0.2c0.4,0.5,0.4,0.6,0.4,0.6c0.1,0.1,0.2,0.3,0.2,0.5v0.1
				c0,0.1,0.1,0.2,0.1,0.4v0.1v0.2c0.1,0.2,0.1,0.4,0.1,0.6v0.1v0.1l0.1,0.2v0.2v0.2l0.1,0.6v0.1c0,0.1-0.1,0.2-0.2,0.4l-0.1,0.3
				l-0.2,0.3l-0.2,0.3l-0.1,0.3l-0.2,0.2l-0.1,0.2l-0.3,0.3l-0.2,0.2l-0.2,0.2v0.1l-0.1,0.2c0,0.1-0.2,0.2-0.2,0.3h-0.1h-0.1
				c-0.1-0.1-0.2-0.2-0.2-0.3v-0.1v-0.4V206l-0.1-0.2C69.5,204.7,69.4,204.8,69.3,204.9 M66.5,203.4l0.1,0.2v0.2
				c0,0.1,0.1,0.2,0.1,0.2l0.3,0.2l0.2,0.1h0.1h0.1l0.2,0.1h0.2H68h0.2h0.1l0.1-0.1c0.1,0,0.3-0.1,0.4-0.2l0.6-0.5c0-0.2,0,0,0-0.9
				v-0.3v-0.2V202c0-0.1,0-0.5,0-0.6c-0.1-0.2-0.1-0.3-0.1-0.3V201l-0.4-0.1h-0.1l-0.3-0.1h-0.1c-0.1,0-0.2,0-0.3,0H68l-0.2,0.2
				l-0.3,0.1c-0.1,0-0.2,0.1-0.2,0.1c-0.1,0.1-0.2,0.2-0.4,0.2l-0.1,0.1c-0.1,0.1-0.2,0.2-0.2,0.3c0,0.1-0.1,0.2-0.1,0.3
				c0,0.1,0,0.2,0,0.3v0.4v0.2l-0.1,0.3L66.5,203.4"/>
		</g>
	</g>
</g>
</svg>
