<?xml version="1.0" encoding="utf-8"?>
<!-- Generator: Adobe Illustrator 19.2.1, SVG Export Plug-In . SVG Version: 6.00 Build 0)  -->
<svg version="1.1" id="Layer_1" xmlns="http://www.w3.org/2000/svg" xmlns:xlink="http://www.w3.org/1999/xlink" x="0px" y="0px"
	 width="176px" height="224.3px" viewBox="0 0 176 224.3" style="enable-background:new 0 0 176 224.3;" xml:space="preserve">
<style type="text/css">
	.st0{fill:#46230F;}
	.st1{fill:#CE0A24;}
	.st2{fill:#FAA500;}
	.st3{fill:#96C31E;}
	.st4{fill:#5A642D;}
	.st5{fill:#F7F5E9;}
</style>
<g>
	<g>
		<g>
			<path class="st0" d="M140.5,68.1V68v-0.1c-1.5-8-4.2-15-8.1-20.8c-5.2-6.7-11.4-11.9-18.4-15.5c-1.7-1.2-3.3-2.3-4.7-3.4
				c-2.8-2.2-4.2-4.6-4.2-7.3v-0.1l0,0c0-0.6,0.1-1.2,0.2-1.8c0-0.1,0.1-0.2,0.1-0.4v-0.2c0.6-3.2,2.3-9.2,7.2-13.1l0.1-0.1l0.1-0.1
				c0.4-0.5,0.5-1,0.3-1.5c-0.1-0.4-0.4-0.7-0.8-0.8l-6.1-2.7c-0.3-0.1-0.7-0.2-1-0.1h-0.1c-4.3,1.1-7.9,3.8-10.5,7.9
				c-2.2,3.4-3.9,7.5-5.1,12.3l0,0c-0.9,2.2-2.8,3.9-5.8,5.1c-1.1,0.5-2.4,0.9-4,1.4h-0.1c-0.7,0.1-1.4,0.3-2.1,0.4
				c-1.7,0.3-7.7,2.3-8.4,2.5l-0.4,0.1l0,0c-0.1,0-0.2,0.1-0.3,0.1c-2.3,1-4.6,2-5.4,2.6c-1.4,0.7-16.9,9.4-19.3,33.8L64,70.9
				l77.3,3.4C141.1,72.3,140.8,70.2,140.5,68.1z"/>
			<path class="st1" d="M141.3,74.6L64,71.1L4,67.7c0,0-0.7,6.9-1.6,16.7l9.1,6.8L1.2,97.8c-0.4,4.8-0.8,9.7-1.2,14.5
				c10.5,0.4,44.6,0.9,75.9,1.3H138c1-4.4,1.6-7.5,1.6-7.6C141.6,94.4,142.2,83.9,141.3,74.6z"/>
			<path class="st2" d="M138.1,113.7l-78.2-0.2c5.4,0.1,10.8,0.2,16.1,0.2L48.1,117c0.6,10.5,0.4,22.1-1.1,33.8l24,4.1l0,0l51.3,2.3
				c1.4-2.7,2.8-5.6,4.4-9.2l4.8-12.4C134.4,128.9,136.7,119.9,138.1,113.7z"/>
			<path class="st3" d="M71,155l-24.8,2.5c-1.8,10.9-4.8,21.8-9.3,31.9l17.5,3h-0.3l38.2,2.9c0.2-0.2,0.4-0.3,0.6-0.5
				c1.9-1.6,3.6-3.2,4.8-4.4c6-5.7,7.7-8,12-13.6l0.1-0.2c0.7-1,1.6-2.2,2.4-3.3c1.3-1.7,2.5-3.3,3-4.3c3.1-4.5,5.1-8,7.2-11.9
				L71,155z"/>
			<path class="st4" d="M54.3,192.5l-20,2.1c-2.3,4.5-5,8.8-8,12.9c-0.1,0.1-5.4,7.7,1,14.1c1.8,1.8,4.4,2.7,8,2.7
				c5.2,0,12.7-2.3,14.9-3.5l0,0c5.9-2,15.5-6.1,27.8-14.4c5.2-3.5,9.5-6.8,13-9.8c0.5-0.4,0.9-0.8,1.4-1.3L54.3,192.5z"/>
		</g>
	</g>
	<g>
		<g>
			<path class="st5" d="M68.2,134.1c0.1-0.6,0.1-0.7,0.1-0.7s0-0.2,0.1-0.2c0.1-0.1,0-0.3,0.1-0.3l0.2-0.6c0.1-0.2,0.1-0.4,0.2-0.5
				l0.2-0.4c0-0.1,0.2-0.3,0.2-0.4c0-0.1,0.4-0.4,0.5-0.5l0.2-0.2c0.1-0.1,0.5-0.5,0.5-0.6c0.1-0.1,0.2-0.3,0.4-0.5l0.2-0.2
				c0.1-0.1,0.2,0,0.3-0.1c0.4-0.3,0.9-0.5,1.4-0.7l0.3-0.1c0.3-0.1,0.5-0.1,0.8-0.1h0.8c0.1,0,0.1,0,0.3,0c0.3,0,0.5,0,0.8,0.1
				l0.8,0.1c0.2,0,0.5,0.1,0.8,0.3c0.2,0,0.4,0.1,0.6,0.1l0.4,0.3c0.1,0.1,0.2,0.1,0.3,0.2c0.2,0.2,0.5,0.4,0.7,0.6l0.5,0.7
				c0,0.1,0.2,0.4,0.3,0.6c0,0.1,0.1,0.4,0.1,0.5s0,0.5,0,0.6c0,0,0,0.4,0,0.5c0,0.3-0.1,0.6-0.3,0.8v0.1l-0.1,0.2l-0.1,0.1
				l-0.2,0.2c0,0-0.2,0.2-0.3,0.3s-0.2,0.1-0.3,0.1c0,0-0.2,0-0.3,0l-0.2,0.1c-0.1,0-0.1,0-0.2,0.1c-0.1,0.1-0.2,0.2-0.3,0.2
				s-0.5,0.1-0.6,0.1c0,0-0.1,0-0.2,0c-0.2,0.1-0.4,0.1-0.6,0.1l-0.4,0.1c-0.2,0-0.3,0.1-0.6,0.1c-0.2,0-0.5,0-0.7,0
				c-0.4,0-0.8-0.1-1.3-0.2v0.1c0,0.1,0,0.2,0,0.3s0,0.1,0,0.2c0,0.1,0,0.3,0,0.5l0.2,1c0.1,0.3,0.2,0.6,0.3,0.8c0,0,0.1,0,0.1,0.1
				c0.1,0.1,0.1,0.3,0.6,0.7c0,0.1,0.8,0.4,1,0.5c0.2,0,0.5,0.2,0.8,0.2c0.2,0,0.3,0,0.4,0h0.1c0,0,0.3,0,0.3-0.1l0.2-0.1l0.3-0.2
				c0.2-0.2,0.4-0.5,0.6-0.7c0-0.1,0-0.2,0.1-0.3c0-0.1,0.1-0.2,0.1-0.2c0.1,0,0-0.1,0-0.2c0-0.1-0.1-0.3-0.1-0.3
				c0-0.1-0.1-0.1-0.3-0.2c-0.1-0.1-0.3-0.2-0.3-0.4c0-0.1,0-0.2,0-0.3c0.1-0.2,0.3-0.4,0.6-0.4h0.3l0.1-0.1h0.1l0.4,0.1
				c0.3,0.1,0.6,0.3,0.6,0.5l0.1,0.1c0,0.1,0.1,0.1,0.1,0.2v0.2c0,0.4-0.1,0.6-0.3,0.9c0,0,0,0.2-0.1,0.2c0,0-0.1,0.2-0.1,0.3
				c-0.2,0.3-0.5,0.6-0.8,0.9c-0.1,0-0.1,0.1-0.2,0.2l-0.3,0.2h-0.1l-0.9,0.4c-0.2,0.1-0.6,0.1-0.8,0.2c-0.8,0.2-1,0.2-1,0.2
				c-0.1,0,0,0-0.2,0c-0.1,0-0.4,0-0.6,0l-0.7-0.1c-0.1,0-0.9,0-1,0c0,0-0.3,0-0.4-0.1c-0.5-0.1-1.1-0.2-1.5-0.5
				c-0.2-0.1-0.4-0.2-0.6-0.4l-1.1-1c0-0.1-0.1-0.2-0.1-0.2c-0.2-0.2-0.3-0.4-0.5-0.6c-0.1-0.2-0.3-0.4-0.4-0.6c0-0.1,0-0.2-0.1-0.3
				l-0.1-0.2l-0.3-1.4L68.2,134.1z M73.6,133.7c0,0,0.3,0.1,0.4,0.1s0.2,0.1,0.3,0.1c0.2,0,0.3,0,0.6,0c0.2,0,0.5,0,0.8-0.1
				c0.2-0.1,0.4-0.1,0.6-0.1l0.7-0.2c0.1,0,0.2-0.2,0.4-0.2c0.1,0,0.2,0,0.3-0.1l1.1-0.6c0,0,0.1-0.1,0.1-0.2c0-0.1,0-0.2,0-0.2
				v-0.1c-0.1-0.3-0.1-0.5-0.2-0.8l-0.1-0.1c-0.2-0.3-0.3-0.6-0.5-0.9c-0.2-0.1-0.3-0.3-0.6-0.4c-0.1,0-0.2-0.1-0.3-0.1
				c-0.3,0-0.6,0.1-0.9,0.1c-0.1,0-0.1,0.1-0.2,0.1l-0.5,0.2c-0.1,0-0.2,0.1-0.3,0.1l-0.3,0.3c-0.4,0.5-0.7,1-0.9,1.6l-0.2,0.7
				C73.6,133.2,73.5,133.3,73.6,133.7C73.5,133.6,73.5,133.7,73.6,133.7z"/>
			<path class="st5" d="M88.1,139.7c0-0.1,0-0.1,0-0.2c0,0,0-0.3,0-0.4l-0.2,0.1c-0.1,0.1-0.5,0.2-0.6,0.2c-0.2,0.1-0.5,0.1-0.7,0.2
				c0,0-0.7,0.1-1.3,0.1c0,0-0.8-0.2-1.1-0.2c-0.1,0-0.2-0.1-0.3-0.1c-0.3-0.1-0.6-0.3-0.8-0.6c-0.1-0.1-0.4-0.4-0.4-0.5
				c-0.1-0.2-0.2-0.4-0.3-0.6c-0.1-0.3-0.3-0.6-0.4-0.9v-0.4c0-0.2-0.1-0.3-0.2-0.5c0-0.1,0-0.3,0-0.4v-0.2c0-0.1,0-0.3,0.1-0.5
				c0.1-0.1,0.1-0.3,0.2-0.4c0.1-0.2,0.2-0.4,0.2-0.6c0.1-0.1,0.1-0.3,0.2-0.3c0-0.1,0.1-0.2,0.1-0.2c0.2-0.3,0.5-0.6,0.8-0.7
				l0.2-0.1l0.6-0.3c0.1-0.1,0.4-0.1,0.5-0.1c0.4-0.1,0.7-0.1,1-0.2c0,0,0,0,0.1,0c0.3,0,0.4,0.1,0.5,0.1h0.3c0.1,0,0.4,0.1,0.4,0.1
				c0.1,0,0.4,0.1,0.4,0.1c0.1,0,0.3,0,0.4,0.1v-0.1l0.1-0.8c0,0,0.2-1.1,0.3-1.5c0,0,0.1-0.3,0.1-0.4c0-0.1,0.1-0.3,0.1-0.5
				c0.1-0.2,0.1-0.5,0.2-0.7l0.1-1.2l0.1-0.3v-0.5c0-0.2,0.2-0.5,0.4-0.6c0-0.1,0-0.1,0.1-0.2c0,0,0.1-0.2,0.1-0.3l0.1-0.2l0.1-0.1
				c0.1-0.1,0.2-0.1,0.3-0.1s0.1,0,0.2,0.1c0.1,0.1,0.2,0.2,0.2,0.4c0,0,0,0.2,0.1,0.3l0.1,0.1c0,0.1,0.1,0.1,0.1,0.1
				c0.3,0.5,0.3,0.5,0.3,0.5s0.1,0.2,0.1,0.3c0.1,0.3,0.2,0.6,0.2,0.9c0.1,0.3,0.1,0.7,0.1,1c0,0,0.1,0.2,0.1,0.3s0,0.1,0,0.2
				c0,0.1,0,0.1,0,0.2c0.1,0.1,0,0.2,0,0.3v0.2c0,0.1,0,0.5,0,0.5c0,0.2,0,0.3,0,0.5c0,0.1,0.1,0.6,0,0.6c0,0,0,0.1,0,0.2
				c0,0.3-0.1,0.7-0.1,1c0,0,0,0.5,0,0.6v0.5v0.5l-0.1,0.3c0,0.3-0.1,0.5-0.2,0.8l-0.2,0.4c0,0.2-0.1,0.3-0.1,0.5
				c-0.1,0.2,0,0.4-0.1,0.6l-0.2,0.3l-0.2,0.2c-0.1,0.1-0.1,0.3-0.2,0.4c-0.1,0.1-0.2,0.2-0.2,0.4c0,0.1-0.1,0.3-0.1,0.4l-0.1,0.2
				c-0.1,0.2-0.2,0.4-0.3,0.6l-0.2,0.3c0,0.1-0.1,0.2-0.2,0.2c-0.2,0.2-0.2,0.2-0.3,0.4l-0.2,0.2c0,0.1-0.1,0.1-0.1,0.1h-0.2
				c-0.1-0.1-0.1-0.2-0.1-0.2C88.1,140,88.1,139.9,88.1,139.7z M84.1,136.4c0,0,0,0.2,0,0.3c0,0,0,0.4,0,0.5l0.1,0.3
				c0,0,0.1,0.2,0.1,0.3c0.2,0.3,0.4,0.5,0.7,0.6c0,0.1,0.4,0.1,0.5,0.2c0.1,0,0.2,0,0.3,0c0.3,0,0.6,0,0.9-0.1
				c0.1,0,0.3-0.1,0.4-0.1c0,0,0.2-0.1,0.2-0.2c0.2-0.1,0.6-0.4,0.7-0.4v-0.1c0.1-0.8-0.1-1.6-0.1-2.5V135c0,0,0-0.4-0.1-0.4
				c0-0.3-0.1-0.7-0.1-0.9c0-0.1,0-0.2,0-0.4c0-0.1,0-0.3,0.1-0.4c0,0-0.1,0-0.2,0h-0.3c-0.2,0-0.3,0.2-0.6,0.2
				c-0.1,0-0.2,0.1-0.3,0.1l-0.2,0.1c0,0-0.3,0.1-0.3,0.2c-0.3,0.2-0.6,0.2-0.8,0.4l-0.5,0.6l-0.5,0.4c0,0.2-0.2,0.4-0.2,0.5
				c0,0,0,0.1,0,0.2c0,0.1,0,0.2,0,0.4C84.1,136,84.1,136.3,84.1,136.4z"/>
			<path class="st5" d="M94,140.5c-0.1-0.2-0.1-0.4-0.1-0.6l-0.4-1.1l-0.1-0.1l-0.6-2.1c0-0.1-0.1-0.4-0.1-0.4
				c0-0.1-0.1-0.6-0.1-0.8v-0.3c0-0.1,0-0.3,0-0.4v-1.2c0,0,0-0.1,0-0.2c0.1-0.5,0.3-0.9,0.5-1.3l0.1-0.2c0-0.1,0.1-0.3,0.2-0.4
				c0-0.1,0.2-0.2,0.2-0.2l0.1-0.3c0-0.1,0.1-0.2,0.2-0.3l0.1-0.2l0.1-0.1l0.1-0.1c0,0,0.1,0,0.2,0c0.1,0,0.1,0.1,0.1,0.2
				c0.1,0,0.1,0.2,0.1,0.2c0,0.1,0.1,0.1,0.2,0.2l0.4,0.4c0.1,0.3,0.3,0.6,0.5,0.9l0.1,0.2c0.1,0.3,0.1,0.6,0.2,0.9l0.1,0.4
				c0,0.1,0.1,0.4,0.1,0.5c0,0.2,0,0.3,0,0.5c0,0.1-0.1,0.4-0.1,0.4c0,0.2-0.1,1.1-0.1,1.3v0.5c0,0.1-0.1,0.7-0.2,1
				c0,0.2-0.1,0.4-0.2,0.5c-0.1,0.1-0.1,0.2-0.2,0.3c0,0.1-0.2,0.4-0.3,0.5c0,0.1-0.1,0.4-0.1,0.5v0.1v0.1c0,0.1,0,0.2-0.1,0.2
				c-0.1,0.2-0.2,0.4-0.3,0.6c0,0.1-0.1,0.4-0.1,0.4c0,0.1-0.1,0.5-0.1,0.5c0,0.1-0.1,0.1-0.2,0.2c-0.1,0-0.1,0-0.1,0
				s-0.2,0-0.2-0.1c0-0.2,0-0.3-0.1-0.4c0-0.1,0-0.2,0-0.3C94.1,140.6,94,140.5,94,140.5z M93.7,128.4c-0.1,0-0.3-0.4-0.4-0.4
				l-0.1-0.2c0,0,0-0.1,0-0.2c0-0.1,0-0.2,0-0.3c0,0,0-0.2,0-0.3v-0.3c0-0.1,0.1-0.2,0.1-0.2s0-0.1,0-0.2c0,0,0-0.2,0.1-0.2
				c0,0,0.1-0.2,0.2-0.2c0-0.1,0.2-0.2,0.3-0.2s0.2,0.1,0.3,0.1s0.2-0.1,0.4-0.1s0.3,0.1,0.5,0.1c0.1,0,0.3,0.1,0.4,0.2
				c0,0,0.1,0,0.1,0.1l0.2,0.1c0.1,0.1,0.1,0.2,0.2,0.3l0.1,0.1c0,0.1,0.1,0.2,0.1,0.3c0,0.2-0.1,0.4-0.2,0.7c0,0.1,0,0.2-0.1,0.3
				c0,0-0.1,0.1-0.1,0.2c0,0.1-0.2,0.3-0.2,0.3c-0.1,0-0.2,0.2-0.2,0.2h-0.1c-0.1,0-0.1,0-0.3,0c-0.1,0-0.2,0-0.3-0.1
				c0,0-0.1,0-0.2,0l-0.3-0.1c0,0-0.1,0-0.2,0L93.7,128.4z"/>
			<path class="st5" d="M104.4,140.4c0-0.1,0-0.4,0-0.5s0-0.2,0-0.3v-0.1l-0.6,0.2l-0.5,0.3l-0.3,0.2c-0.1,0.1-0.3,0.2-0.4,0.3
				c-0.1,0-0.4,0.3-0.5,0.4l-0.3,0.1c-0.1,0-0.3,0.1-0.4,0.1c-0.1,0-0.3,0-0.3,0c-0.2,0-0.5-0.1-0.7-0.1c0-0.1-0.5-0.2-0.6-0.4
				c-0.1,0-0.2-0.1-0.3-0.2l-0.4-0.4c-0.2-0.1-0.3-0.3-0.5-0.5l-0.3-0.5l-0.1-0.2c-0.1-0.2-0.1-0.4-0.2-0.7l-0.1-0.5
				c0,0,0-0.3-0.1-0.3v-0.1c0-0.1-0.1-0.3-0.1-0.4c0-0.1,0-0.2,0-0.3s0-0.7,0-0.9v-0.4v-0.1v-0.9c0-0.1,0-0.3,0-0.4l0.1-0.9
				c0-0.1,0.1-0.3,0.1-0.3s0.1-0.3,0.2-0.4c0-0.1,0.1-0.3,0.2-0.4l0.2-0.3v-0.2c0.1,0,0-0.2,0.2-0.3v-0.1c0.1-0.2,0.4-1,0.5-1.1
				c0.1-0.3,0.3-0.6,0.6-0.7c0.1,0,0.2-0.1,0.3-0.1c0.2,0,0.3,0.2,0.4,0.4v0.1c0,0.1,0.1,0.2,0.1,0.3v0.3c0,0.2,0,0.4,0,0.6
				c0.1,0.1,0.1,0.2,0.2,0.3c0,0,0,0.1,0.1,0.1l0.1,0.4c0,0.1,0,0.2,0,0.2c0,0.1-0.1,0.4-0.1,0.5v0.1c0,0.1-0.2,0.6-0.2,0.7
				c0,0.1,0,0.2-0.1,0.2l-0.1,0.1c-0.1,0.2-0.1,0.5-0.2,0.7l-0.1,0.6v0.5l-0.2,1.8v0.9v0.1c0,0.3,0.2,0.6,0.3,0.9l0.1,0.1
				c0,0,0.4,0.3,0.5,0.3c0.1,0.1,0.3,0.1,0.4,0.2c0.3,0,0.5,0,0.8,0c0.1,0,0.2,0,0.2,0s0.4-0.1,1.5-0.7l0.2-0.2l0.6-0.4
				c0.1-0.1,0.1-0.1,0.1-0.1v-0.2c0-0.2,0-0.5,0-0.7c0-0.3,0-0.5,0-0.9c0,0,0,0,0-0.1c0-0.2,0.1-0.4,0.1-0.5v-0.2
				c0.1-0.3,0.1-0.6,0.1-0.9c0-0.1,0.1-1,0.2-1.1v-0.2v-0.3c0-0.1,0.1-0.5,0.1-0.6c0-0.3,0.1-0.9,0.1-0.9c0-0.1,0.1-0.3,0.1-0.4
				l0.1-0.5c0-0.1,0.1-0.1,0.1-0.3l0.2-0.7c0,0,0.1-0.1,0.1-0.2c0.1-0.1,0.2-0.3,0.3-0.3c0,0,0.2-0.1,0.3-0.1c0.2,0,0.6,0.3,0.7,0.4
				c0.1,0.1,0.3,0.3,0.4,0.4l0.3,0.4l0.1,0.2c0.1,0.1,0.1,0.2,0.2,0.4c0.1,0.1,0.4,0.5,0.4,0.6l0.1,0.1l0.2,0.3
				c0.2,0.3,0.3,0.7,0.3,1v0.1c0,0.1,0.1,0.2,0.1,0.2v0.2c0,0,0.1,0.6,0.1,0.7v0.1c0,0.3,0,0.6,0,0.9c0,0-0.1,0.2-0.1,0.3l-0.1,0.4
				c0,0.4-0.2,0.7-0.2,1c0,0.1-0.1,0.3-0.1,0.3v0.3l-0.1,0.2l-0.1,0.2l-0.1,0.1v0.2c0,0.2-0.1,0.3-0.2,0.4c0,0.1-0.2,0.3-0.3,0.3
				l-0.3,0.3l-0.2,0.3c-0.2,0.2-0.4,0.3-0.6,0.5c0,0-0.1,0-0.1,0.1s-0.3,0.4-0.3,0.5s-0.1,0.2-0.1,0.2c-0.1,0.1-0.3,0.3-0.4,0.4
				c0,0-0.2,0.2-0.3,0.2c-0.1,0.1-0.1,0-0.1,0.1c-0.2,0.2-0.3,0.3-0.6,0.4H105c-0.4,0-0.4-0.3-0.5-0.6L104.4,140.4z"/>
			<path class="st5" d="M115.9,139.7c0-0.1,0-0.4,0-0.4s0-0.1,0-0.2c0-0.1,0-0.2,0-0.3s0-0.2,0-0.4V138c0-0.4,0-0.7,0.1-1v-0.2
				c0,0,0,0,0-0.3c0-0.1,0-0.5,0-0.5v-0.6c0-0.2,0-0.5-0.1-0.7c0-0.1,0-0.4,0-0.4c0-0.1,0-0.1,0-0.4v-0.1v-0.2c0-0.1,0-0.3,0-0.4
				c0-0.1-0.1-0.3-0.1-0.5c0-0.1-0.1-0.4-0.1-0.4c0-0.1-0.2-0.4-0.2-0.4c-0.2-0.3-0.2-0.3-0.2-0.3c-0.1-0.1-0.1-0.2-0.3-0.2
				c-0.1,0-0.3,0-0.4,0.1l-0.4,0.3c0,0.1-0.2,0-0.3,0.3l-0.4,0.4c0,0.1-0.2,0.3-0.3,0.4c-0.1,0.1-0.1,0.1-0.2,0.2l-0.3,0.5
				c-0.1,0.2-0.1,0.3-0.2,0.5c0,0.1,0,0.2,0,0.3v0.2c0,0.1,0,0.7,0,0.8c-0.1,1.5-0.2,1.9-0.3,2.2c-0.2,0.5-0.4,0.8-0.6,1.3l-0.1,0.1
				c-0.1,0.1-0.1,0.2-0.1,0.3c0,0,0,0.2-0.1,0.3c0,0.1-0.1,0.3-0.2,0.4c-0.1,0-0.1,0-0.2,0c-0.1,0-0.1,0-0.2,0l-0.2-0.6
				c0-0.1-0.1-0.2-0.1-0.3v-1c0,0-0.1-0.4-0.1-0.5v-0.2c0-0.1,0-0.2,0-0.3s-0.1-0.6-0.2-0.7c0-0.1,0-0.4,0-0.4c0-0.1,0-0.6,0-0.6
				v-0.3c0-0.1,0-0.7,0-0.8c0-0.2,0-0.4,0-0.7c0-0.5,0.1-1.1,0.2-1.6l0.2-0.9c0.1-0.1,0.1-0.3,0.1-0.4c0-0.1,0.1-0.4,0.2-0.4
				c0,0,0.1-0.1,0.2-0.1c0.1,0,0.3,0.1,0.3,0.1l0.2,0.2l0.2,0.3c0.1,0.1,0.2,0.3,0.3,0.5l0.2,0.5c0,0.1,0.1,0.2,0.1,0.3
				c0.1-0.3,0.5-0.5,0.5-0.6c0.1-0.1,0.2-0.2,0.3-0.3c0.3-0.2,0.5-0.4,0.8-0.6c0.1,0,0.1-0.1,0.2-0.1l0.4-0.2c0.1,0,0.1,0,0.3,0
				s0.3,0.1,0.5,0.1c0.1,0,0.4,0.1,0.4,0.1h0.1l1,0.5c0.1,0,0.3,0.1,0.4,0.3l0.1,0.1c0,0,0.2,0.2,0.3,0.2c0.1,0.1,0.2,0.3,0.4,0.4
				c0.1,0,0.3,0.3,0.3,0.3h0.1c0.1-0.2,0.3-0.3,0.5-0.5l0.2-0.2c0,0,0.2-0.1,0.2-0.2l0.2-0.2c0.3-0.3,0.6-0.6,0.9-0.9
				c0.1,0,0.2-0.1,0.2-0.1c0.1,0,0.2,0,0.3,0s0.2,0,0.3,0.1l0.3,0.2c0.1,0.1,0.2,0,0.3,0.1c0.2,0.1,0.3,0.2,0.5,0.2l0.5,0.4
				c0.2,0.1,0.4,0.2,0.6,0.4c0.1,0.1,0.7,0.7,0.8,0.9l0.3,0.3l0.2,0.3c0.1,0.1,0.2,0.2,0.2,0.3l0.2,0.4l0.4,1l0.1,0.2
				c0.1,0.2,0.2,0.5,0.1,0.8c0,0.2-0.1,0.3-0.1,0.5c0,0.1,0,0.3,0,0.4v0.1c0,0-0.1,0.4-0.2,0.5c0,0.1,0,0.1,0,0.2v0.2
				c0,0.2-0.2,0.3-0.3,0.5c-0.1,0.1-0.1,0.1-0.2,0.2c0,0-0.2,0.2-0.2,0.3c-0.3,0.4-0.8,0.6-1.2,0.8c-0.1,0-0.3,0.1-0.4,0.2l-1.1,1
				c-0.1,0-0.2,0.2-0.4,0.2h-0.1c0-0.1,0-0.2,0-0.4v-0.3c0-0.1,0-0.3,0-0.4c0-0.1,0-0.2,0.1-0.4c0,0,0-0.1,0.1-0.2l0.2-1.7l0.1-0.4
				c0.1-0.2,0.1-0.4,0.1-0.6v-0.4c0-0.1,0-0.3,0.1-0.5c0-0.2,0-0.4,0-0.5c0-1.1,0-1.1,0-1.1c0-0.2,0-0.6,0-0.6c0-0.1,0-0.2,0-0.3
				c-0.1-0.1-0.1-0.3-0.1-0.4c-0.1-0.1-0.2-0.2-0.2-0.3c-0.1-0.1-0.3-0.3-0.5-0.3s-0.3,0.1-0.5,0.2c-0.3,0.2-0.6,0.4-1,0.7l-0.4,0.5
				c-0.1,0.1-0.1,0.1-0.1,0.2v0.2c0,0.2,0.1,0.3,0.1,0.5v0.1v0.3c0,0.2,0.1,0.4,0.2,0.5v0.1c0,0.1,0,0.4,0,0.4
				c0,0.1-0.1,0.2-0.1,0.3c-0.1,0.1-0.1,0.3-0.2,0.4l-0.2,0.5v0.1c-0.2,0.3-0.4,0.4-0.7,0.7c0,0.1-0.2,0.4-0.3,0.4v0.1l-0.2,0.3
				l-0.4,0.6c0,0-0.2,0.2-0.3,0.3l-0.1,0.1L117,140l-0.2,0.3c0,0.1-0.1,0.4-0.2,0.4c-0.1,0.1-0.2,0.3-0.4,0.3
				c-0.1,0-0.2-0.1-0.2-0.2l-0.1-0.2C116,139.9,115.9,139.8,115.9,139.7z"/>
			<g>
				<path class="st5" d="M65.7,138.3c0,0,0-0.3-0.1-0.3c-0.1-0.3-0.5-1.8-0.6-2.1c0-0.1-0.2-0.4-0.2-0.4l-0.1-0.2l-0.3-1
					c-0.1-0.1-0.1-0.2-0.2-0.3l-0.6,1.3v0.1c-0.2,0.4-0.4,0.8-0.6,1.2c-0.1,0.3-0.2,0.6-0.3,0.8c-0.1,0.3-0.5,0.5-0.5,0.8
					c-0.1,0-0.3,0.2-0.3,0.2s-0.1,0-0.2,0c0,0,0,0-0.1,0c-0.2,0-0.3-0.1-0.4-0.1c-0.2-0.1-0.3-0.3-0.5-0.5c0,0-0.1-0.1-0.1-0.2
					l-0.2-0.3c-0.1-0.1-0.2-0.3-0.2-0.4l-0.4-0.7l-0.1-0.2c0,0-0.1-0.3-0.1-0.4c-0.2-0.3-0.3-0.7-0.5-1c0,0-0.2-0.4-0.3-0.5
					c0-0.1,0-0.2-0.1-0.2c0-0.1-0.2-0.4-0.3-0.5l-0.1-0.2c0-0.1-0.2-0.3-0.2-0.3v0.2c-0.1,0.3-0.1,0.4-0.1,0.4c0,0.1,0,0.3-0.1,0.4
					c0,0,0,0.3,0,0.4l-0.1,0.8l-0.1,0.3c0,0.1,0,0.6,0,0.6l-0.1,0.5l-0.2,1.8c-0.1,0.1,0,0.3-0.1,0.5l-0.2,0.7l-0.1,0.3
					c0,0.1-0.2,0.6-0.3,0.8c-0.1,0.2-0.2,0.3-0.3,0.4c-0.1,0.1-0.3,0.1-0.4,0.2l-0.2,0.1l-0.3,0.2h-0.3c-0.1,0-0.2-0.1-0.3-0.1
					c0,0-0.1-0.1-0.1-0.2c0-0.1,0-0.1,0-0.2c0-0.1-0.2-0.7-0.2-0.9s-0.1-0.8-0.1-0.9l0.1-2.1l0.2-1.3v-0.2c0.1-0.5,0.2-1,0.3-1.5
					c0,0,0.1-0.2,0.1-0.3l0.1-0.6c0.1-0.2,0.1-0.4,0.1-0.6c0-0.3,0.1-0.6,0.2-0.9l0.3-1.5c0,0,0.1-0.4,0.1-0.5
					c0.1-0.4,0.2-0.8,0.3-1.3l0.1-0.2c0.1-0.2,0.2-0.4,0.2-0.5l0.1-0.2l0.2-0.5c0.1,0,0.1-0.1,0.1-0.2c0.1-0.2,0.2-0.3,0.5-0.3
					c0.2,0,0.5,0.2,0.5,0.3s0.1,0.2,0.1,0.3c0.1,0.1,0.1,0.3,0.2,0.4l0.1,0.2c0,0.1,0.2,0.2,0.2,0.2c0.1,0.2,0.2,0.4,0.3,0.7
					c0,0,0,0.2,0.1,0.2s0.2,0.4,0.2,0.5l0.4,0.7l0.2,0.4l0.1,0.2c0,0,0.1,0.3,0.2,0.4c0.1,0.1,0.2,0.3,0.3,0.4l0.1,0.1
					c0.2,0.5,0.4,1,0.6,1.5c0.1,0.1,0.2,0.4,0.3,0.5c0-0.4,0.1-0.6,0.2-1l0.2-0.8c0,0,0.1-0.4,0.1-0.5c0-0.3,0-0.6,0.1-0.8
					c0-0.1,0.1-0.3,0.1-0.4l0.1-0.7l0.1-0.3c0.1-0.3,0-0.6,0.1-0.8s0.1-0.3,0.2-0.5l0.1-0.2c0,0,0-0.1,0-0.2
					c0.1-0.4,0.1-0.5,0.1-0.5c0-0.1,0.1-0.3,0.1-0.4l0.1-0.1c0,0,0-0.1,0.1-0.1s0.2-0.1,0.3-0.2c0.1,0,0.2,0,0.3,0.1l0.2,0.2
					c0,0,0.1,0,0.2,0.1s0.3,0.3,0.3,0.3l0.1,0.1c0.1,0.2,0.2,0.5,0.3,0.6l0.1,0.2c0,0,0.1,0.1,0.1,0.2c0.1,0.1,0.1,0.2,0.1,0.4
					l0.3,0.9c0,0.2,0.1,0.4,0.1,0.5c0,0.2,0.1,0.1,0.2,0.2c0,0.1,0.1,0.2,0.1,0.3l0.6,2.1c0,0,0,0.2,0,0.3s0.1,0.2,0.2,0.3
					c0.3,0.3,0.3,1.2,0.3,1.2c0,0.1,0.1,0.2,0.1,0.3c0.1,0.1,0,0.4,0.1,0.5c0,0,0,0.3,0.1,0.4c0,0.2,0.1,0.4,0.2,0.5v0.1
					c0.2,1,0.2,2,0.3,3c0,0.2,0.1,0.5,0.1,0.7c0,0.1,0,0.3,0,0.4c0,0.1,0,0.2,0,0.3c0,0.2,0,0.4-0.1,0.6c0,0.1-0.1,0.1-0.3,0.1
					c-0.1,0-0.2,0-0.2,0c-0.1,0-0.1,0-0.1-0.1c-0.4-0.2-0.5-0.6-0.6-1c0-0.1,0-0.2-0.1-0.3L65.7,138.3z"/>
			</g>
		</g>
		<g>
			<path class="st5" d="M74.2,181.2c-0.1-0.2-0.1-0.4-0.1-0.7l-0.4-1.2l-0.1-0.2l-0.6-2.3c0-0.1-0.1-0.4-0.1-0.5s0-0.7-0.1-0.9v-0.3
				c0-0.1,0-0.4,0-0.5l0.1-1.4V173c0.1-0.6,0.4-1,0.6-1.5l0.1-0.3c0-0.2,0.1-0.4,0.3-0.5c0-0.1,0.2-0.2,0.2-0.2l0.1-0.3
				c0-0.1,0.2-0.2,0.2-0.3l0.1-0.2l0.1-0.2l0.1-0.1c0,0,0.2,0,0.2,0.1c0.1,0,0.1,0.1,0.1,0.2c0.1,0,0.1,0.2,0.1,0.2
				c0,0.1,0.1,0.1,0.2,0.2l0.4,0.5c0.1,0.4,0.4,0.7,0.6,1c0,0,0.1,0.2,0.2,0.2c0.1,0.3,0.2,0.7,0.2,1l0.1,0.5c0,0.1,0.1,0.5,0.1,0.5
				c0,0.2,0,0.4,0,0.6c0,0.1-0.1,0.4-0.1,0.5c0,0.2-0.1,1.2-0.1,1.5v0.6c0,0.1-0.2,0.8-0.2,1.1c0,0.2-0.1,0.4-0.2,0.6
				c-0.1,0.1-0.1,0.2-0.2,0.3c0,0.1-0.3,0.5-0.3,0.6s-0.1,0.4-0.1,0.5v0.1c0,0,0,0.1,0,0.2c0,0.1-0.1,0.2-0.1,0.3
				c-0.1,0.2-0.3,0.5-0.3,0.7c0,0.1-0.1,0.4-0.1,0.5s-0.1,0.5-0.2,0.6c0,0.1-0.2,0.2-0.2,0.2c-0.1,0-0.2,0.1-0.2,0.1s-0.2,0-0.2-0.1
				c0-0.2,0-0.3-0.1-0.5c0-0.1,0-0.2,0-0.4C74.3,181.4,74.2,181.3,74.2,181.2z M74.1,167.6c-0.1,0-0.4-0.4-0.4-0.5
				c0,0-0.1-0.2-0.1-0.3c0,0,0-0.2-0.1-0.2c0-0.1,0-0.2,0-0.3c0,0,0-0.2,0-0.3v-0.3c0-0.1,0.1-0.2,0.1-0.2v-0.2l0.1-0.2
				c0,0,0.1-0.2,0.2-0.3c0-0.1,0.3-0.2,0.3-0.2c0.1,0,0.3,0.1,0.3,0.1c0.1,0,0.3-0.1,0.5-0.1s0.3,0.1,0.5,0.1c0.1,0,0.3,0.1,0.4,0.2
				c0,0,0.1,0,0.1,0.1l0.2,0.1c0.1,0.1,0.1,0.2,0.2,0.4l0.1,0.1c0,0.1,0.1,0.2,0.1,0.4s-0.1,0.5-0.2,0.8c0,0.1,0,0.2-0.1,0.4
				c0,0-0.1,0.1-0.1,0.2c0,0.1-0.2,0.4-0.2,0.4c-0.1,0-0.2,0.2-0.2,0.2h-0.2c-0.1,0-0.2,0.1-0.3,0c-0.1,0-0.2-0.1-0.3-0.1h-0.2
				l-0.3-0.1c0,0-0.1,0-0.2-0.1L74.1,167.6z"/>
			<path class="st5" d="M79.5,183c-0.1-0.2-0.1-0.4-0.2-0.6c-0.2-0.4-0.5-1.4-0.5-1.7c0,0,0-0.4-0.1-0.4c-0.1-0.1,0-0.4-0.1-0.5
				c0-0.2,0-0.4,0-0.6c0-0.2,0-0.4,0-0.6l0.1-1.6c0-0.5-0.1-0.9-0.1-1.4v-0.4c0-0.1,0-0.7,0-0.8c0-0.2,0-0.4-0.1-0.6v-0.6
				c0-1,0.1-2.3,0.1-2.3v-0.3l0.1-0.8c0-0.2,0.2-0.6,0.2-0.6v-0.4c0-0.1,0-0.3,0-0.3c0-0.2,0.1-1.4,0.2-1.5c0-0.2,0.2-1.1,0.3-1.3
				l0.3-1c0-0.2,0.2-0.5,0.4-0.7c0.1-0.1,0.1-0.2,0.1-0.3c0.1-0.1,0.1-0.3,0.1-0.4c0.1-0.1,0.3-0.4,0.5-0.4c0.1,0,0.1,0,0.2,0.1
				c0.1,0.1,0.2,0.2,0.3,0.3c0.3,0.4,0.3,0.6,0.4,0.7l0.2,0.4c0.1,0.3,0.1,0.6,0.2,0.7v0.1l0.3,0.4c0.2,0.2,0.3,0.7,0.4,0.9
				c0,0,0.1,0.3,0.1,0.6v0.4l-0.1,1.8c0.1,0.3,0.1,0.6,0.1,0.9c0,0.1,0,0.3,0,0.3v0.5v0.4c0,0.1,0,0.2,0,0.3l-0.1,0.9
				c0,0.1,0,0.2,0,0.4c0,0.1-0.1,0.3-0.1,0.3v0.6c0,0.2-0.2,1.3-0.2,1.5l-0.3,0.9c0,0-0.1,0.2-0.1,0.3s-0.2,0.2-0.2,0.3
				c-0.1,0.3-0.2,0.5-0.4,0.7c-0.1,0.2-0.1,0.4-0.2,0.5l-0.2,0.3c-0.1,0.2-0.1,0.4-0.1,0.7c0,0.2-0.2,1.2-0.3,1.5
				c0,0.2-0.1,0.6-0.3,0.8l-0.1,0.2c-0.1,0.1-0.1,0.4-0.2,0.5c0,0-0.1,0.3-0.1,0.4c0,0.1,0,0.2,0,0.3c-0.1,0.2-0.1,0.5-0.3,0.5h-0.1
				C79.7,183.3,79.5,183.1,79.5,183z"/>
			<path class="st5" d="M91.3,182.9c0-0.1,0-0.2,0-0.3c0,0-0.1-0.4,0-0.5l-0.3,0.1c-0.2,0.1-0.6,0.3-0.7,0.3
				c-0.2,0.1-0.5,0.2-0.8,0.2c0,0-0.8,0.1-1.6,0.1c0,0-1-0.2-1.3-0.3c-0.1,0-0.3-0.1-0.4-0.2c-0.3-0.1-0.7-0.4-1-0.6
				c-0.1-0.1-0.4-0.5-0.5-0.6c-0.2-0.2-0.3-0.5-0.4-0.8c-0.2-0.3-0.4-0.7-0.5-1c0,0-0.1-0.4,0-0.5c0-0.2-0.2-0.3-0.3-0.5
				c0-0.1,0-0.3,0-0.5c0,0,0-0.2,0-0.3c0-0.2,0-0.4,0-0.5c0.1-0.1,0.1-0.4,0.2-0.5c0.1-0.3,0.2-0.5,0.3-0.7c0.1-0.1,0.1-0.3,0.2-0.4
				c0-0.1,0.1-0.2,0.2-0.3c0.3-0.3,0.5-0.7,0.9-0.9l0.3-0.2l0.7-0.3c0.1-0.1,0.4-0.1,0.6-0.1c0.4-0.1,0.8-0.2,1.2-0.2c0,0,0,0,0.1,0
				c0.4,0,0.5,0,0.6,0.1h0.4c0.1,0,0.5,0,0.5,0c0.1,0,0.4,0.1,0.5,0.1c0.2,0,0.3,0,0.5,0v-0.1v-0.9c0,0,0.2-1.3,0.3-1.8
				c0,0,0.1-0.4,0.1-0.5c0-0.2,0.1-0.4,0.1-0.6c0.1-0.3,0.1-0.6,0.2-0.8l0.1-1.4l0.1-0.3v-0.5c0-0.3,0.2-0.6,0.4-0.8
				c0-0.1,0.1-0.1,0.1-0.2l0.1-0.3l0.1-0.2l0.1-0.1c0.1-0.1,0.2-0.1,0.4-0.1c0.1,0,0.1,0,0.2,0.1c0.1,0.1,0.2,0.2,0.3,0.4
				c0,0,0.1,0.2,0.2,0.3c0,0,0.1,0.1,0.1,0.2c0,0.1,0.1,0.1,0.1,0.1c0.3,0.6,0.3,0.6,0.3,0.6s0.1,0.2,0.1,0.3
				c0.1,0.3,0.3,0.7,0.3,1.1c0.1,0.4,0.2,0.8,0.1,1.2l0.1,0.3c0,0.1,0,0.2,0,0.2c0,0.1,0,0.2,0.1,0.2c0.1,0.1,0,0.3,0.1,0.4l0.1,0.2
				c0,0.1,0,0.5,0.1,0.6c0,0.2,0,0.4,0,0.6c0,0.1,0.1,0.7,0.1,0.8v0.2c0,0.4-0.1,0.8-0.1,1.2c0,0,0,0.6,0,0.7v0.6v0.6l-0.1,0.4
				c0,0.3-0.1,0.6-0.2,1l-0.2,0.5c0,0.2-0.1,0.3-0.1,0.6c-0.1,0.2,0,0.4-0.2,0.7l-0.2,0.4l-0.2,0.2c-0.1,0.2-0.1,0.4-0.2,0.5
				c-0.1,0.2-0.2,0.3-0.2,0.5c0,0.1-0.1,0.4-0.1,0.4l-0.1,0.3c-0.1,0.3-0.2,0.5-0.3,0.7l-0.3,0.4c0,0.1-0.2,0.3-0.2,0.3
				c-0.2,0.2-0.2,0.3-0.4,0.5l-0.2,0.3c-0.1,0.1-0.1,0.1-0.1,0.1h-0.2c-0.1-0.1-0.2-0.2-0.2-0.3C91.2,183.2,91.2,183.1,91.3,182.9z
				 M86.4,179.2v0.3v0.5l0.2,0.3l0.1,0.3c0.2,0.4,0.4,0.5,0.9,0.7c0,0.1,0.5,0.1,0.6,0.2c0.1,0,0.3,0,0.4,0c0.3,0,0.7-0.1,1-0.1
				c0.1,0,0.4-0.1,0.5-0.2c0,0,0.2-0.2,0.3-0.2c0.3-0.1,0.7-0.4,0.8-0.5v-0.1c0-1-0.1-1.9-0.2-2.9c0,0,0-0.2,0-0.3l-0.1-0.5
				c0-0.3-0.1-0.8-0.2-1.1c0-0.1,0-0.2,0-0.5c0-0.2,0-0.4,0-0.5c0,0-0.1,0-0.2,0h-0.4c-0.2,0-0.4,0.2-0.7,0.2
				c-0.1,0-0.2,0.1-0.3,0.1l-0.2,0.2l-0.3,0.2c-0.3,0.2-0.7,0.3-0.9,0.5l-0.6,0.8l-0.5,0.5c0,0.2-0.2,0.5-0.2,0.6c0,0,0,0.1,0,0.3
				c0,0.1,0,0.3,0.1,0.4C86.4,178.7,86.4,179.1,86.4,179.2z"/>
			<g>
				<path class="st5" d="M69.2,180c0,0,0-0.4-0.1-0.4c-0.1-0.4-0.5-2.3-0.6-2.6c0-0.1-0.2-0.5-0.2-0.6s-0.1-0.2-0.1-0.3l-0.2-1.3
					c-0.1-0.2-0.1-0.3-0.2-0.4l-0.9,1.6v0.1c-0.3,0.5-0.6,1-0.9,1.5c-0.2,0.3-0.3,0.7-0.5,1c-0.1,0.3-0.6,0.6-0.7,0.9
					c-0.1,0-0.3,0.3-0.4,0.3s-0.2,0-0.2,0h-0.1c-0.2,0-0.4-0.1-0.5-0.2c-0.2-0.2-0.4-0.4-0.5-0.7l-0.1-0.2c0-0.1-0.2-0.4-0.2-0.4
					c-0.1-0.1-0.3-0.4-0.3-0.5l-0.4-0.9c0,0-0.1-0.2-0.1-0.3c0,0-0.1-0.4-0.1-0.5c-0.2-0.4-0.3-0.9-0.5-1.3c0-0.1-0.3-0.6-0.3-0.7
					c0-0.1,0-0.3-0.1-0.3c0-0.1-0.2-0.5-0.3-0.7c0,0-0.1-0.2-0.1-0.3s-0.2-0.4-0.2-0.4l-0.1,0.2c-0.2,0.3-0.2,0.4-0.2,0.5
					s-0.1,0.4-0.2,0.5c0,0-0.1,0.4-0.1,0.5l-0.2,1l-0.1,0.3c0,0.1,0,0.7,0,0.8l-0.1,0.6l-0.5,2.2c-0.1,0.1-0.1,0.4-0.2,0.6l-0.3,0.9
					l-0.2,0.3c0,0.1-0.4,0.8-0.5,0.9c-0.1,0.2-0.2,0.3-0.4,0.5c-0.2,0.1-0.4,0.1-0.6,0.3l-0.3,0.1c-0.1,0-0.4,0.2-0.4,0.2h-0.4
					c-0.1,0-0.3-0.1-0.4-0.2l-0.1-0.2c0-0.1,0-0.1,0-0.2c0-0.2-0.2-0.9-0.2-1.2c0-0.2,0-1,0-1.2l0.3-2.6l0.3-1.6v-0.2
					c0.2-0.6,0.3-1.2,0.5-1.8c0.1,0,0.1-0.2,0.1-0.4l0.2-0.7c0.1-0.2,0.1-0.5,0.2-0.7c0.1-0.3,0.2-0.7,0.3-1.1l0.5-1.8
					c0,0,0.1-0.4,0.2-0.6c0.2-0.5,0.4-1,0.5-1.5c0.1,0,0.2-0.2,0.2-0.2c0.1-0.2,0.2-0.4,0.4-0.7l0.1-0.3l0.3-0.7
					c0.1,0,0.1-0.1,0.2-0.2c0.2-0.2,0.3-0.3,0.6-0.3c0.2,0,0.6,0.2,0.7,0.4c0,0.1,0.1,0.3,0.2,0.4c0.1,0.1,0.1,0.3,0.2,0.5l0.2,0.2
					c0,0.1,0.2,0.2,0.2,0.3c0.1,0.3,0.2,0.6,0.3,0.9c0,0,0,0.2,0.1,0.3c0.1,0,0.2,0.6,0.2,0.7l0.5,0.9l0.2,0.5
					c0,0.1,0.1,0.2,0.1,0.3c0,0,0.2,0.4,0.2,0.5c0.2,0.1,0.2,0.3,0.3,0.5c0,0,0.1,0.1,0.1,0.2c0.2,0.6,0.4,1.3,0.6,1.9
					c0.2,0.2,0.2,0.5,0.3,0.6c0-0.5,0.2-0.8,0.4-1.2l0.3-0.9c0,0,0.1-0.4,0.2-0.6c0-0.3,0.1-0.7,0.2-1c0-0.1,0.1-0.3,0.1-0.5
					l0.1-0.8c0,0,0.1-0.3,0.1-0.4c0.1-0.3,0.1-0.7,0.1-1c0.1-0.2,0.2-0.4,0.3-0.6l0.2-0.2c0-0.1,0.1-0.2,0.1-0.2
					c0.1-0.5,0.1-0.6,0.1-0.6c0-0.1,0.1-0.3,0.2-0.5l0.2-0.1c0.1,0,0-0.1,0.1-0.1c0.2,0,0.3-0.2,0.4-0.2c0.2,0,0.3,0.1,0.4,0.2
					L68,165c0,0,0.1,0.1,0.3,0.1c0.1,0.1,0.3,0.4,0.3,0.4l0.1,0.1c0.1,0.2,0.1,0.7,0.3,0.8l0.1,0.3c0,0,0.1,0.2,0.1,0.3
					c0.1,0.1,0.1,0.3,0.1,0.5l0.3,1.1c0,0.2,0.1,0.6,0.1,0.6c0,0.2,0.1,0.2,0.2,0.3c0,0.1,0.1,0.3,0.1,0.4l0.6,2.7c0,0,0,0.3,0,0.4
					c0,0.1,0.2,0.3,0.2,0.4c0.3,0.4,0.3,1.5,0.3,1.5c0,0.1,0.1,0.3,0.2,0.4c0.1,0.1,0,0.4,0.1,0.6c0,0.1,0,0.4,0.1,0.5
					c0,0.2,0.1,0.5,0.2,0.7v0.2c0.1,1.3,0,2.5,0.1,3.7c0,0.3,0.1,0.6,0.1,0.9c0,0.2,0,0.3,0,0.5c0,0.1,0,0.2,0,0.4s-0.1,0.5-0.2,0.7
					c0,0.1-0.2,0.1-0.3,0.2c-0.1,0-0.2,0-0.3,0c-0.1,0-0.1,0-0.1-0.1c-0.5-0.3-0.5-0.8-0.7-1.3c0-0.2,0-0.3-0.2-0.4L69.2,180z"/>
			</g>
		</g>
		<g>
			<path class="st5" d="M21.4,99.1l-0.2-0.4l-0.8-1.9c0,0-0.3-1.7-0.4-2.4c0,0-0.1-0.5-0.1-0.6v-0.3c0-0.3,0-0.5-0.2-0.7
				c-0.2-1.1-0.3-2.3-0.3-3.4L19.3,88c0-0.1,0-1.1,0-1.2v-1.1c0-0.1,0-0.4,0.1-0.5c0-0.1,0.5-1.3,0.5-1.5c0.2-0.5,0.8-2.7,0.9-3.2
				c0.1-0.2,0.2-0.3,0.2-0.5c0.1-0.2,0.1-0.4,0.2-0.6c0-0.2,0.4-0.3,0.4-0.6c0.2-0.2,0.5-0.5,0.9-0.5c0.3,0,0.8,0.3,0.9,0.5
				c0.5,0.4,1,1.4,1.2,2c0.1,0.3,0.1,0.6,0.2,0.9l0.4,1.3c0,0,0.1,0.3,0.1,0.4l0.5,0.8c0,0,0,0.1,0,0.2c0.2,0.9,0.3,1.7,0.3,2.6
				c0,0.5,0,0.8,0,0.8c0,0.5,0.1,0.6,0.4,0.6l3.1-0.1c0.1,0,1.8,0.1,2.6,0.2c0.2,0,0.4,0.1,0.7,0V86c0.1-0.4,0.4-2.1,0.5-2.5
				c0,0,0-0.6,0-0.7c0.1-0.1,0.1-0.8,0.3-1c0-0.1,0.3-0.7,0.3-0.8c0,0,0.1-0.5,0.1-0.7c0-0.3,0.1-0.7,0.2-1s0-0.7,0.1-1.1
				c0.2-0.4,0.5-0.6,0.5-1C35,77,35.2,77,35.3,77c0.2,0,0.2,0,0.3,0.1l0.7,0.3c0.2,0.1,0.9,0.8,1,1c0.3,0.3,0.5,0.7,0.8,1
				c0,0,0.5,0.4,0.5,0.5s0.5,0.7,0.6,0.9c0.2,0.3,0.4,0.4,0.4,0.7s0.1,0.7,0.2,0.9c0,0.2,0.1,0.4,0.2,0.6c0,0.2,0.2,0.7,0.3,1v0.7
				c0,0.6,0,1.1,0.3,1.7l0.3,2.4c0,0.4,0,0.8,0,1.2c0,0.2-0.1,0.4,0,0.6c0,0.2,0,0.2,0.1,0.9c0,0.5,0,0.8,0,1.2s-0.2,1.1-0.2,1.5
				c-0.1,0.4-0.2,0.7-0.3,1.2c0,0.1-0.2,0.5-0.2,0.7c0,0.3-0.2,0.8-0.3,1.2l-0.3,0.2c-0.5,1-0.7,2.2-1,3.3c-0.1,0.6-0.5,1.3-0.5,2
				c0,0.1-0.1,0.6-0.1,0.7v0.2l-0.3,0.7c0,0.1-0.3,0.4-0.5,0.4c-0.3,0-0.4-0.3-0.5-0.5l0,0l-0.2-0.4c-0.2-0.3-0.1-0.8-0.3-1.1
				l-0.4-0.6l-0.4-0.7c0-0.1-0.2-0.6-0.2-0.6c0-0.3-0.3-0.6-0.3-0.9c0-0.2-0.2-0.4-0.2-0.8c-0.1-0.3-0.6-1.6-0.7-1.9
				c0-0.1-0.4-1-0.4-1.1s-0.2-0.6-0.2-0.7c-0.1-0.1-0.2-0.8-0.2-1v-1c0,0-0.1-0.4-0.1-1.1c-0.1-0.2,0-0.4-0.2-0.6
				c-0.2-0.1-1.2-0.3-1.4-0.3c-0.3,0-0.6,0-0.8,0c-0.6,0-1,0.2-1.5,0.4L27.7,92c-0.5,0.2-0.5,0.2-0.5,0.2c0,0.1,0.1,0.3,0.1,1.3
				c0,0.9,0,1.3,0,1.4c0,0.3,0,0.7-0.1,1l0.1,1.9c0,0.1,0,1-0.1,1.3c0,0.3-0.1,0.5-0.2,0.7l-0.2,0.5c-0.1,0.2-0.1,0.5-0.2,0.7
				c0,0.1-0.1,1-0.2,1.1c0,0.1-0.1,0.4-0.1,0.4c0,0.1-0.2,0.6-0.2,0.7c0,0-0.2,0.7-0.2,0.8c-0.1,0.3-0.1,0.6-0.3,0.8
				c-0.1,0.2-0.3,0.4-0.5,0.6c-0.1,0.2-0.3,0.5-0.5,0.6c-0.1,0-0.1,0.1-0.3,0.1c-0.1,0-0.3-0.1-0.4-0.3c-0.2-0.2-0.1-0.7-0.3-0.9
				c-0.1-0.5-0.1-0.9-0.3-1.3l-0.4-0.6c-0.1-0.3-0.1-0.5-0.2-0.9c-0.1-0.3-0.3-0.5-0.4-0.8C22.3,101,21.6,99.4,21.4,99.1z"/>
			<path class="st5" d="M57.5,107c-0.1,0-0.7-0.1-0.9-0.1c-0.1,0-0.8-0.2-0.8-0.2c-0.1,0-0.4-0.1-0.4-0.1c-0.4,0-0.9-0.1-1.4-0.2
				c-0.1,0-0.4-0.2-0.6-0.2l-1.1-0.4c-0.5-0.2-0.9-0.5-1.3-0.8l-1-0.7c-0.2,0-0.8-0.4-1.1-0.6c-0.1,0-0.6-0.3-0.7-0.5l-1-0.8
				l-1.3-1.7l-0.7-1c-0.7-1.3-1.3-2.6-1.6-4l-0.3-2.6c0,0,0-0.5,0-0.6c0-0.3,0-0.7,0.1-1.1c0.1-0.5,0.3-1.1,0.3-1.6c0-0.3,0-1,0-1
				c0-0.2,0.1-0.4,0.2-0.6c0-0.1,0.3-0.5,0.3-0.5l0.3-0.7c0.2-0.6,0.8-1.2,0.9-1.7l0.9-1.3c0-0.1,0.5-0.4,0.5-0.6l1-1.6l0.9-1.1
				c0,0,0.9-0.8,1.3-1.2c0.3-0.3,0.6-0.7,1-0.9c0.2-0.2,1.1-0.3,1.4-0.4l2.2-0.2c0.1,0,0.4-0.2,0.6-0.2l0.9-0.4
				c0.1,0,0.2-0.1,0.4-0.1c0.4,0,0.7,0,1.1,0.1c0.4-0.1,1.1,0,1.6,0c0.4,0.1,0.8,0.3,1.2,0.4c0.1,0,0.4,0.1,0.4,0.1h0.5
				c0.2,0,0.3,0,0.7,0c0.2,0,0.5-0.1,0.8-0.1c0.2,0,2,0.4,2.1,0.4c1.2,0.4,2.3,0.8,3.4,1.5c0.7,0.6,1.7,1.7,2.2,2.3l0.1,0.2l0.6,0.8
				c0,0,0.2,0.3,0.2,0.4l0.9,1.6c0.2,0.4,0.3,1,0.5,1.5l0.4,1c0.1,0,0.1,0.1,0.2,1.1l0.1,0.8c0,0.2,0,0.4,0,0.7L73.4,95
				c0,0.1,0,0.4,0,0.4L73,96.6c-0.1,0.6-0.6,3-0.7,3.6c-0.2,0.3-0.3,0.7-0.4,1l-0.7,1.3c-0.2,0.3-1.1,1.4-1.3,1.5
				c-0.2,0.2-1.1,0.9-1.3,1.1c0,0.1,0,0.2-0.2,0.3c0,0-0.3,0.2-0.4,0.2c-0.3,0.2-0.6,0.6-1,0.6c-0.1,0.1-0.7,0.2-0.7,0.2
				c-0.1,0-0.3,0.1-0.7,0.1c-0.1,0.1-0.7,0.1-0.8,0.1l-2,0.7c-0.4,0.1-0.9,0.1-1.3,0.2l-0.5,0.1c-0.5,0-1,0.1-1.5,0
				C58.9,107.2,58.1,107.2,57.5,107z M56.2,99.4c0.1,0.1,0.6,0.6,0.7,0.6c0.2,0.3,0.7,0.7,1,0.9c0.1,0.1,0.6,0.3,0.8,0.3l0.4-0.1
				c0.2,0,0.9,0,0.9,0l1.1,0.4c0.1,0,0.6,0.1,0.8,0.1c0,0,0.5,0,0.7-0.1h0.8c0.2-0.1,1-0.2,1.1-0.3c0.3-0.1,1.8-0.6,2-0.7
				c0.5-0.3,1.1-0.6,1.4-1.1c0.1-0.4,1-1.8,1.1-2c0.1-0.1,0.5-0.9,0.6-1.1c0-0.1,0.1-0.4,0.1-0.4c0-0.3,0.4-1.9,0.4-2.2l0.1-1.3
				c0-0.4,0-0.8,0-1.3l-0.3-2.2c0-0.2-0.1-0.7-0.1-0.8c0,0-0.2-0.5-0.3-0.6c-0.1-0.3-0.4-1.1-0.4-1.2L67.5,84
				c-0.3-0.3-0.4-0.6-0.8-0.9c-0.2-0.1-0.4-0.1-0.5-0.4l-0.5-0.3c-0.1,0.1-0.4-0.1-0.5-0.2l-0.7-0.5c-0.1,0-0.7-0.4-0.8-0.4
				c0,0-0.7-0.1-0.8-0.1c-0.1,0-0.9-0.1-1.1,0c-0.6,0-1.3-0.4-1.9-0.3c-0.1,0-0.2,0.1-0.3,0.1l-0.9,0.6c-0.3,0.3-0.8,0.6-1.3,1.1
				l-0.4,1l-0.8,0.9c0,0-0.2,0.4-0.2,0.5c-0.5,0.9-0.9,1.9-1.2,2.8l-0.3,2.2c0,0,0,0.2,0,0.3c0,0-0.2,0.5-0.2,0.6
				c0,0-0.1,0.3-0.1,0.4c-0.2,1-0.2,1.9-0.1,3c0.1,0.7,0.1,1.2,0.3,1.9c0,0.2,0.4,1.7,0.5,2.1c0.1,0.4,0.5,0.8,0.8,1
				C55.9,99.1,56.2,99.3,56.2,99.4z"/>
			<path class="st5" d="M78.5,96.6v-0.9c0-0.3,0-0.7-0.1-0.9c0.1-1.5,0.2-1.6,0.2-1.6l0.1-2.6l0.1-0.7c0-0.3,0.1-0.1,0.2-0.4
				l0.2-1.5c-0.5-0.2-1-0.3-1.6-0.4l-1.5-0.1c-0.3-0.1-0.6-0.3-0.7-0.6c0,0-0.1-0.1-0.1-0.4c0-0.2,0.1-0.3,0.2-0.5s0.3-0.5,0.6-0.6
				h0.3c0.5,0.1,0.5,0,1.4,0h0.6l1.4,0.2c0,0,0.4-1.3,0.5-1.6c0,0,0.1-0.3,0.1-0.4c0-0.1,0.2-1,0.1-1c0.2-0.4,0.4-1,0.7-1.3
				c0.1-0.1,0-0.3,0.2-0.4c0.2-0.4,0.1-0.8,0.4-1.1c0-0.2,0.4-1,0.5-1.1c0,0,0.3-0.4,0.4-0.5l0.3-0.7c0-0.2,0.1-0.4,0.1-0.6
				c0.1-0.4,0.6-0.9,0.9-1.2c0.1-0.1,0.2-0.1,0.3-0.1c0,0,0.1,0.1,0.2,0.1h0.3c0.2,0,0.3,0.1,0.5,0.3l1.1,1.3c0,0,0.3,0.4,0.4,0.5
				c0.2,0.2,0.3,0.4,0.4,0.7c0.1,0.2,0.7,1.7,0.8,1.9s0.2,0.5,0.2,0.7c0,0.1,0.1,1,0.1,1.1c0,0.4,0.2,0.7,0.2,1.1
				c0.1,0,0.2,0.4,0.1,0.6c0,0.1,0,0.4,0,0.5c0,0,0.1,1,0.1,1.1v1.2c0,0,1.2,0,2.1,0c0.4,0,0.7,0.1,0.9,0.1c0.1,0,1,0.2,1,0.2
				c0.5,0.1,1.1,0.3,1.5,0.6c0,0,0.3,0.3,0.3,0.4c0.1,0.1,0.1,0.3,0.1,0.5c0,0.1,0,0.2-0.1,0.2c0,0-0.1,0.2-0.2,0.2
				c-0.2,0.2-0.8,0.3-1.1,0.3L93,89.1c-0.1,0-0.6-0.2-0.7-0.2l-0.7-0.2c-0.2,0.1-1.4,0.1-1.7,0.1c-0.1,0-0.4,0-0.7,0s-0.6,0-0.7-0.1
				c-0.1,0-0.3,0.1-0.3,0.1c0,0.1-0.1,0.6-0.1,0.7c-0.1,0.5-0.2,0.6-0.3,1.1c0,0.3-0.1,0.8-0.1,0.9c-0.1,0.4-0.4,0.8-0.5,1.3
				c0,0.1,0,0.3,0,0.4c0,0,0,0.1-0.1,0.2c-0.1,0.1-0.3,0.6-0.3,0.7l-0.2,0.3l-0.4,0.9v0.5c0,0.2,0.1,1.2,0.1,1.3v0.7l-0.4,3.1
				c0.2,0.4,0.1,0.7,0.3,1.1c0,0,0.2,0.4,0.3,0.5c0.1,0.2,0.5,0.4,0.7,0.5c0.1,0.1,0.4,0.2,0.6,0.2h0.3c0.2,0,0.4,0.1,0.4,0.1
				s0.5-0.1,0.6-0.2l0.2-0.1c0.3-0.2,0.7-0.5,0.9-0.7c0.1-0.3,0.7-1.2,0.7-1.4s0.2-0.6,0.2-0.6c0-0.1-0.1-0.4-0.2-0.5h-0.2
				c-0.4-0.1-0.9-0.2-1-0.8v-0.1c0.1-0.3,0.1-0.5,0.4-0.7C90.3,98,91,98,91.3,98c0.2,0,0.4,0.1,0.5,0.3l0.7,0.5
				c0.2,0.1,0.4,0.3,0.4,0.6c0.1,0.3,0.2,0.7,0.1,1.1c-0.1,0.6-0.2,1.2-0.3,1.8c-0.1,0.4-0.3,0.9-0.5,1.2l-0.6,0.6
				c0,0.2-0.3,0.3-0.4,0.5c-0.3,0.3-0.8,0.7-1.2,0.9c-0.2,0.1-0.4,0.1-0.6,0.2c-0.3,0.1-0.9,0.4-1.2,0.4c-0.2,0-0.3,0-0.5,0.1h-0.1
				c-0.2,0-1.1,0-1.3-0.1c-0.1,0-0.7,0-0.7,0.1h-0.4c-0.7-0.1-1.3-0.3-2-0.6c0,0-0.3-0.1-0.4-0.1l-1-0.8l-0.4-0.4L81,104
				c-0.4-0.2-0.6-0.5-0.9-0.9c-0.2-0.1-0.7-1.1-0.8-1.2c0,0-0.1-0.3-0.1-0.4l-0.5-1.2c0,0-0.1-0.2-0.4-3
				C78.5,97,78.5,96.7,78.5,96.6z"/>
		</g>
		<g>
			<path class="st5" d="M68.7,62.3L68.5,62l-0.6-1.5c0,0-0.2-1.3-0.3-1.8v-0.4V58c0-0.2,0-0.4-0.1-0.6c-0.2-0.9-0.2-1.8-0.2-2.7
				v-1.1c0-0.1,0-0.8,0-0.9v-0.9v-0.4c0-0.1,0.4-1,0.4-1.1c0.2-0.4,0.7-2.1,0.7-2.5c0.1-0.1,0.1-0.2,0.2-0.4c0.1-0.1,0-0.3,0.2-0.4
				c0-0.1,0.3-0.2,0.3-0.4c0.2-0.2,0.4-0.4,0.7-0.4c0.2,0,0.6,0.2,0.7,0.4c0.4,0.3,0.7,1.1,0.8,1.5c0.1,0.2,0.1,0.5,0.2,0.7l0.3,1
				v0.3l0.4,0.6v0.1c0.2,0.7,0.2,1.3,0.2,2c0,0.4,0,0.6,0,0.6c0,0.4,0,0.5,0.3,0.5l2.4-0.1c0.1,0,1.4,0.1,1.9,0.2
				c0.1,0,0.3,0.1,0.5,0v-1.9c0.1-0.3,0.3-1.6,0.4-1.9v-0.6c0.1-0.1,0.1-0.6,0.2-0.8l0.2-0.6c0,0,0.1-0.4,0.1-0.5
				c0-0.2,0.1-0.5,0.2-0.7c0-0.3,0-0.6,0.1-0.9s0.4-0.5,0.4-0.8c0.1-0.1,0.2-0.2,0.3-0.2s0.2,0,0.3,0.1l0.5,0.2
				c0.1,0.1,0.6,0.7,0.8,0.8c0.2,0.2,0.4,0.5,0.6,0.8c0,0,0.4,0.3,0.4,0.4s0.4,0.6,0.4,0.7c0.1,0.2,0.3,0.3,0.3,0.6
				c0,0.2,0,0.5,0.2,0.7c0,0.1,0.1,0.3,0.1,0.4c0,0.2,0.1,0.6,0.2,0.8v0.5c0,0.4,0,0.9,0.2,1.3l0.2,1.9c0,0.3,0,0.6,0,0.9
				c0,0.1,0,0.3,0,0.5c0,0.1,0,0.2,0.1,0.7c0,0.4,0,0.6,0,0.9s-0.2,0.8-0.2,1.1c0,0.3-0.2,0.6-0.3,0.9c0,0.1-0.2,0.4-0.2,0.5
				c0,0.3-0.1,0.6-0.2,0.9l-0.2,0.2c-0.4,0.8-0.6,1.7-0.8,2.5c-0.1,0.4-0.4,1-0.4,1.5c0,0.1,0,0.4-0.1,0.5v0.1L81,66.1
				c0,0.1-0.2,0.3-0.4,0.3s-0.3-0.2-0.4-0.4l0,0L80,65.7c-0.1-0.2-0.1-0.6-0.2-0.9l-0.3-0.5l-0.3-0.6L79,63.2c0-0.2-0.2-0.5-0.2-0.7
				c0-0.1-0.1-0.3-0.1-0.6c-0.1-0.2-0.4-1.2-0.5-1.5c0-0.1-0.3-0.8-0.3-0.9L77.7,59c-0.1-0.1-0.1-0.6-0.1-0.8v-0.8
				c0,0,0-0.3-0.1-0.8c-0.1-0.1,0-0.3-0.1-0.4c-0.2-0.1-0.9-0.2-1.1-0.3c-0.2,0-0.4,0-0.6,0c-0.4,0-0.7,0.1-1.1,0.3l-1.2,0.1
				C73,56.4,73,56.5,73,56.5c0,0.1,0,0.2,0.1,1c0,0.7,0,1,0,1.1c0,0.3,0,0.6-0.1,0.8v1.5c0,0.1,0,0.8-0.1,1c0,0.2,0,0.4-0.2,0.5
				l-0.2,0.4c-0.1,0.2-0.1,0.4-0.2,0.5c0,0.1-0.1,0.8-0.1,0.9v0.3L72.1,65c0,0-0.1,0.5-0.1,0.6c-0.1,0.2-0.1,0.4-0.2,0.6
				s-0.2,0.3-0.4,0.4C71.3,66.7,71.2,67,71,67c-0.1,0-0.1,0.1-0.2,0.1s-0.2-0.1-0.3-0.2c-0.2-0.2-0.1-0.6-0.2-0.7
				c-0.1-0.3-0.1-0.7-0.2-1l-0.3-0.5c-0.1-0.3-0.1-0.4-0.2-0.7c-0.1-0.2-0.2-0.4-0.3-0.6C69.3,63.8,68.8,62.5,68.7,62.3"/>
			<path class="st5" d="M94.4,67.4c-0.1,0-0.5-0.1-0.6-0.1l-0.6-0.2L92.9,67c-0.3,0-0.6-0.1-1-0.3c-0.1,0-0.3-0.2-0.4-0.2l-0.8-0.4
				c-0.3-0.2-0.6-0.5-0.9-0.7l-0.6-0.6c-0.2,0-0.6-0.4-0.8-0.5c-0.1,0-0.4-0.3-0.5-0.4l-0.7-0.7l-0.8-1.3L86,61.1
				c-0.4-1-0.8-2-0.9-3v-1.9v-0.4c0-0.3,0.1-0.5,0.1-0.8c0.1-0.4,0.3-0.8,0.3-1.2c0-0.3,0.1-0.7,0.1-0.8c0-0.1,0.1-0.3,0.2-0.4
				l0.3-0.3l0.2-0.5c0.2-0.4,0.6-0.8,0.8-1.2l0.7-0.9c0,0,0.4-0.3,0.4-0.4l0.8-1.1l0.7-0.8c0,0,0.7-0.5,1-0.7s0.4-0.5,0.8-0.6
				c0.1-0.1,0.8-0.2,1-0.2h1.6c0.1,0,0.3-0.1,0.4-0.1l0.6-0.3c0.1,0,0.1,0,0.3,0c0.3,0,0.5,0,0.8,0.1c0.3,0,0.8,0.1,1.1,0.1
				c0.3,0.1,0.6,0.2,0.8,0.4l0.3,0.1h0.4c0.1,0,0.2,0,0.5,0c0.1,0,0.4,0,0.6,0c0.2,0,1.4,0.4,1.5,0.4c0.8,0.4,1.6,0.8,2.3,1.3
				c0.5,0.5,1.1,1.4,1.4,1.8l0.1,0.2l0.4,0.6l0.1,0.3l0.5,1.3c0.1,0.3,0.1,0.7,0.2,1.1l0.2,0.7c0,0,0.1,0.1,0.1,0.8v0.6
				c0,0.2,0,0.3,0,0.5l-0.4,3.5v0.3l-0.4,0.8c-0.1,0.4-0.7,2.2-0.8,2.6c-0.2,0.2-0.2,0.5-0.4,0.7l-0.6,0.9c-0.2,0.2-0.9,1-1,1
				c-0.1,0.1-0.8,0.6-1,0.7c0,0,0,0.1-0.2,0.2l-0.3,0.1c-0.3,0.1-0.4,0.4-0.7,0.4l-0.5,0.1c-0.1,0-0.2,0-0.5,0c-0.1,0-0.5,0-0.6,0
				l-1.5,0.4c-0.3,0-0.7,0-0.9,0h-0.4c-0.4,0-0.7,0-1.1-0.1C95.4,67.5,94.8,67.5,94.4,67.4 M93.9,61.7c0.1,0.1,0.4,0.5,0.5,0.5
				c0.1,0.2,0.5,0.6,0.7,0.8c0.1,0.1,0.4,0.3,0.5,0.3h0.3c0.2,0,0.6,0,0.7,0l0.8,0.4c0,0,0.5,0.1,0.6,0.1c0,0,0.4,0,0.5,0h0.6
				c0.1,0,0.7-0.1,0.8-0.1c0.2,0,1.3-0.3,1.5-0.4c0.4-0.2,0.8-0.4,1.1-0.7c0.1-0.2,0.8-1.2,0.9-1.4c0.1-0.1,0.4-0.6,0.5-0.7l0.1-0.3
				c0-0.3,0.4-1.3,0.5-1.6l0.2-0.9c0-0.3,0.1-0.6,0.1-1v-1.6c0-0.1,0-0.5,0-0.6l-0.2-0.4c-0.1-0.2-0.2-0.8-0.2-0.9l-1-1.8
				c-0.2-0.3-0.3-0.5-0.5-0.7c-0.1-0.1-0.2-0.1-0.3-0.3l-0.3-0.3c-0.1,0-0.2-0.1-0.3-0.2l-0.5-0.4l-0.5-0.3c0,0-0.5-0.1-0.6-0.1
				S99.7,49,99.6,49c-0.5,0-0.9-0.4-1.4-0.4H98L97.3,49c-0.3,0.2-0.6,0.4-1,0.7L96,50.4L95.4,51l-0.2,0.3c-0.4,0.6-0.8,1.3-1,2
				l-0.4,1.6v0.2l-0.2,0.4l-0.1,0.2c-0.2,0.7-0.3,1.4-0.3,2.2c0,0.5,0,0.9,0.1,1.4c0,0.2,0.2,1.3,0.2,1.6c0,0.3,0.3,0.6,0.5,0.7
				L93.9,61.7"/>
			<path class="st5" d="M110.2,59.8v-0.6c0-0.2,0-0.5,0-0.7c0.1-1.1,0.1-1.2,0.1-1.2l0.1-1.8l0.1-0.5c0-0.2,0.1,0,0.1-0.3l0.2-1
				c-0.4-0.1-0.7-0.2-1.1-0.3h-1.1c-0.2-0.1-0.4-0.2-0.5-0.4c0,0-0.1-0.1,0-0.3c0-0.1,0.1-0.2,0.1-0.4c0.1-0.2,0.2-0.4,0.4-0.4h0.2
				c0.3,0,0.3,0,1,0h0.4l1,0.1c0,0,0.3-0.9,0.4-1.2l0.1-0.3l0.1-0.7c0.1-0.3,0.3-0.7,0.5-0.9c0.1-0.1,0-0.2,0.1-0.3
				c0.2-0.3,0.1-0.6,0.3-0.8c0-0.1,0.3-0.7,0.4-0.8l0.2-0.3l0.2-0.5c0-0.2,0.1-0.3,0.1-0.4c0-0.3,0.4-0.6,0.6-0.9l0.2-0.1h0.1h0.2
				c0.1,0,0.2,0.1,0.4,0.2l0.7,0.9l0.3,0.3c0.2,0.1,0.2,0.3,0.3,0.5s0.5,1.2,0.6,1.3c0,0.1,0.1,0.3,0.1,0.5l0.1,0.8
				c0,0.3,0.1,0.5,0.1,0.8c0.1,0,0.1,0.3,0.1,0.4v0.3l0.1,0.8v0.9c0,0,0.8,0,1.4,0c0.3,0,0.5,0.1,0.6,0.1l0.7,0.1
				c0.4,0.1,0.7,0.2,1,0.5l0.2,0.3c0,0.1,0.1,0.2,0.1,0.3l-0.1,0.2l-0.1,0.1c-0.1,0.1-0.6,0.2-0.8,0.2h-0.1l-0.5-0.1l-0.4-0.1
				c-0.2,0-1,0.1-1.2,0.1c-0.1,0-0.3,0-0.5,0s-0.4,0-0.5-0.1h-0.2c0,0.1-0.1,0.4-0.1,0.5c0,0.4-0.2,0.4-0.2,0.8
				c0,0.2-0.1,0.6-0.1,0.7c-0.1,0.3-0.3,0.6-0.3,0.9c0,0.1,0,0.2,0,0.3v0.1l-0.2,0.5l-0.2,0.2l-0.3,0.6V59c0,0.2,0,0.8,0,0.9v0.5
				l-0.3,2.2c0.1,0.3,0.1,0.5,0.2,0.8l0.2,0.3c0.1,0.1,0.3,0.3,0.5,0.4c0.1,0.1,0.3,0.2,0.4,0.2h0.2h0.3c0,0,0.3-0.1,0.4-0.2
				l0.1-0.1c0.2-0.1,0.5-0.4,0.6-0.5c0.1-0.2,0.5-0.8,0.5-1S119,62,119,62c0-0.1-0.1-0.3-0.1-0.4h-0.1c-0.3,0-0.7-0.1-0.7-0.6v-0.1
				c0.1-0.2,0.1-0.3,0.3-0.5c0.1-0.1,0.6-0.1,0.8-0.1c0.1,0,0.3,0.1,0.3,0.2l0.5,0.3c0.1,0.1,0.3,0.2,0.3,0.4
				c0.1,0.2,0.1,0.5,0.1,0.8c-0.1,0.4-0.2,0.8-0.2,1.3c-0.1,0.3-0.2,0.6-0.4,0.9l-0.4,0.5c0,0.1-0.2,0.2-0.3,0.4
				c-0.2,0.2-0.5,0.5-0.8,0.6c-0.2,0.1-0.3,0.1-0.4,0.2c-0.2,0.1-0.6,0.3-0.8,0.3c-0.1,0-0.2,0-0.4,0.1h-0.1c-0.1,0-0.7,0-0.9-0.1
				l-0.5,0.1h-0.3c-0.5-0.1-0.9-0.2-1.4-0.4l-0.3-0.1l-0.7-0.6l-0.3-0.3l-0.3-0.2c-0.2-0.2-0.4-0.4-0.6-0.7
				c-0.1-0.1-0.5-0.8-0.6-0.9l-0.1-0.3l-0.3-0.8c0,0,0-0.1-0.3-2.1L110.2,59.8"/>
			<path class="st5" d="M78.7,43.4c-0.3,0-0.7,0.2-0.8,0.1h-0.5c-0.1,0-0.5-0.1-0.7-0.1h-0.4h-0.6c-0.1,0-0.2,0-0.3,0l-0.2-0.2
				l-0.1-0.3c0,0,0-0.2,0-0.6c0-0.1-0.1-0.7-0.1-0.8c0-0.2-0.2-1.4-0.2-1.6v-0.2v-0.5c0-0.6,0-1.2,0-1.8v-0.5c0-0.1,0-0.2,0-0.3
				c0-0.2,0-0.3,0-0.4c0-0.2,0.1-0.4,0.1-0.6c0,0,0-0.1,0-0.3l0.1-1.1l0.1-0.3c0-0.1,0-0.2,0-0.3c0-0.2,0.1-0.4,0.1-0.6l0.1-0.3
				l0.1-0.4l0.2-0.3c0.1-0.1,0.1-0.1,0.2-0.3l0.2-0.1h0.2l0.7-0.1h0.2l0.9,0.1h0.3c0.3,0,0.5,0,0.8,0h0.2c0.1,0,0.2,0.1,0.4,0.1
				l0.3,0.1c0.4,0,0.9,0.1,1.3,0.1c0.1,0,0.3,0,0.4,0h0.2l0.4,0.2l0.1,0.1v0.1c0,0,0,0.1-0.2,0.3c-0.1,0.1-0.4,0.2-0.5,0.1h-0.2
				c-0.2,0.1-0.4,0-0.6,0.1c-0.3,0-0.5,0-0.9,0.1c-0.3,0-0.8,0-0.9,0.1l-0.6-0.1l-0.2,0.2v0.3c0,0.1,0,0.1,0,0.2l0.1,0.3v0.2v0.1v1
				v0.2c0,0.1,0,0.1,0.1,0.7v0.3c0.2,0,0.4,0,0.5,0.1c0.2,0,0.4,0.1,0.6,0.2l0.4,0.1c0.1,0,0.2,0,0.3,0s0.2,0,0.3-0.1h0.2h0.5h0.3
				c0.1,0,0.2,0.1,0.3,0.2c0,0.1,0.1,0.1,0.1,0.3v0.1c0,0.1-0.4,0.3-0.4,0.3h-0.3h-0.1h-0.3l-0.5,0.1l-0.2,0.1c-0.1,0-0.2,0-0.4,0
				h-1h-0.1c0,0-0.3,0-0.3,0.2c0,0.3,0.1,1.1,0.1,1.2v0.3c0,0.4,0,0.5,0,0.5c0,0.1-0.1,0.2-0.1,0.2c0,0.2,0,0.8,0,1v0.2
				c0,0.1,0,0.2,0,0.2c0.2,0,0.4,0.2,0.6,0.2l1,0.2h0.2c0.1,0,0.1,0.1,0.2,0c0.2,0,0.4,0.1,0.6,0h0.3c0.1,0,0.3,0,0.4-0.1l0.4,0.1
				h0.2c0.2,0,0.1,0.2,0.2,0.3c0,0.2-0.1,0.2-0.2,0.4c0,0,0,0.1-0.1,0.2c-0.2,0.1-0.3,0.2-0.3,0.2c-0.1,0-0.3,0-0.4,0.1h-0.2
				c-0.1,0-0.2,0-0.3,0h-0.5c-0.1,0-0.2,0.1-0.4,0.1h-0.5h-0.3h-0.6V43.4z"/>
			<path class="st5" d="M88,42.1l-0.3-0.3l-0.2-0.3l-0.1-0.2l-0.1-0.1c-0.2-0.2-0.3-0.5-0.6-0.7L86.2,41l-0.1,0.2L86,41.3
				c0,0.1-0.1,0.3-0.2,0.4l-0.5,0.6l-0.2,0.2L85,42.7l-0.1,0.2V43l-0.4,0.4v0.1l-0.1,0.1h-0.2h-0.3h-0.3l-0.4-0.2
				c-0.1-0.1-0.2-0.2-0.2-0.3V43l0.1-0.2l0.1-0.1l0.3-0.3l0,0l0.2-0.3l0.4-0.6l0.4-0.4c0.1-0.1,0.1-0.2,0.2-0.3l0.3-0.3
				c0.1-0.1,0.2-0.2,0.3-0.4l0.2-0.3l0.4-0.4l-0.1-0.1l-0.2-0.2c-0.1-0.1-0.2-0.2-0.3-0.3l-0.2-0.3c-0.6-0.7-0.6-0.8-0.6-0.8
				L84,36.9v-0.1c-0.1-0.1-0.1-0.2-0.2-0.3l-0.2-0.2c-0.1-0.2-0.1-0.4-0.2-0.6v-0.2v-0.2v-0.1V35c0.1-0.1,0.1-0.1,0.2-0.1h0.1
				l0.3,0.2l0.2,0.1l0.2,0.2l0.6,0.2c0.1,0,0.2,0,0.3,0.1h0.1l0.2,0.1l0.2,0.1l0.1,0.1l0.4,0.2c0.1,0.1,0.1,0.1,0.2,0.2l0.1,0.1
				c0.1,0.1,0.2,0.1,0.3,0.2l0.5,0.3l0.2,0.1c0.1-0.1,0.2-0.2,0.3-0.4l0.2-0.2l0.2-0.3l0.2-0.3l0.1-0.2l0.5-0.5l0.3-0.2l0.1-0.1
				l0.2-0.3l0.1-0.1l0,0c0-0.1,0.2-0.2,0.4-0.2h0.1v0.1v0.1v0.1v0.1c0,0.4-0.2,0.8-0.2,1.2c0,0.1,0,0.2,0,0.3c0,0.3-0.1,0.5-0.3,0.6
				l-0.1,0.1l-0.1,0.4c0,0.1-0.2,0.4-0.2,0.4v0.1c0,0-0.1,0.1-0.1,0.2l0.1,0.1l0.4,0.4l0.4,0.3c0.1,0.1,0.2,0.2,0.3,0.4l0.2,0.2
				c0.2,0.2,0.2,0.5,0.2,0.8v0.1l0.1,0.1c0.1,0.1,0.1,0.2,0.1,0.3l0.1,1.5v0.1l0.1,0.2V43v0.1c-0.1,0.2-0.2,0.3-0.4,0.3
				c-0.1,0-0.2-0.1-0.4-0.2l-0.2-0.1h-0.1c-0.1-0.1-0.3-0.1-0.4-0.2l-0.1-0.1l-0.2-0.2L88,42.1z"/>
			<path class="st5" d="M92.4,40.8v-0.3c0-0.1,0-0.3-0.1-0.3c0-0.6,0-0.6,0-0.6l-0.1-1v-0.3c0-0.1,0,0,0-0.2v-0.5
				c-0.2,0-0.4-0.1-0.6-0.1H91c-0.1,0-0.2-0.1-0.3-0.2c0,0,0,0,0-0.2c0-0.1,0-0.1,0-0.2s0.1-0.2,0.2-0.2H91c0.2,0,0.2,0,0.5,0h0.2
				h0.5c0,0,0.1-0.5,0.1-0.6V36v-0.4c0-0.2,0.1-0.4,0.2-0.5v-0.2c0.1-0.2,0-0.3,0.1-0.4l0.1-0.4l0.1-0.2l0.1-0.3v-0.2
				c0-0.2,0.2-0.4,0.3-0.5h0.1h0.1h0.1l0.2,0.1l0.4,0.4l0.2,0.2c0.1,0,0.1,0.1,0.2,0.2l0.4,0.7l0.1,0.2l0.1,0.4
				c0,0.1,0.1,0.3,0.1,0.4l0.1,0.2v0.2l0.1,0.4l0.1,0.5c0,0,0.4-0.1,0.8-0.1c0.1,0,0.3,0,0.3,0H97c0.2,0,0.4,0,0.6,0.2l0.1,0.1
				l0.1,0.2v0.1v0.1c-0.1,0.1-0.3,0.2-0.4,0.2h-0.1h-0.2h-0.2c-0.1,0-0.5,0.1-0.6,0.1c0,0-0.1,0-0.2,0c-0.1,0-0.2,0-0.3,0h-0.1V38
				c0,0.2-0.1,0.2-0.1,0.4c0,0.1,0,0.3,0,0.3c0,0.2-0.1,0.3-0.1,0.5v0.1v0.1l-0.1,0.3l-0.1,0.1l-0.1,0.3v0.2c0,0.1,0.1,0.4,0.1,0.5
				V41v1.2c0.1,0.1,0.1,0.2,0.2,0.4l0.1,0.2l0.3,0.2l0.2,0.1h0.1h0.2l0.2-0.1l0.1-0.1c0.1-0.1,0.2-0.2,0.3-0.3
				c0-0.1,0.2-0.5,0.2-0.5l0.1-0.3l-0.1-0.2h-0.1c-0.2,0-0.4,0-0.4-0.2l0,0c0-0.1,0-0.2,0.1-0.3c0.1-0.1,0.3-0.1,0.4-0.1l0.2,0.1
				l0.3,0.1c0.1,0,0.2,0.1,0.2,0.2c0.1,0.1,0.1,0.3,0.1,0.4c0,0.2,0,0.5,0,0.7c0,0.1-0.1,0.3-0.1,0.5l-0.2,0.3l-0.1,0.2
				c-0.1,0.1-0.2,0.3-0.4,0.4L97,44c-0.1,0-0.3,0.2-0.4,0.2l-0.2,0.1l0,0h-0.5l-0.3,0.1h-0.1c-0.2,0-0.5,0-0.7-0.1h-0.1L94.3,44
				l-0.2-0.1l-0.2-0.1c-0.1-0.1-0.2-0.2-0.4-0.3l-0.4-0.4L93,43l-0.2-0.4c0,0,0-0.1-0.3-1.1L92.4,40.8"/>
			<path class="st5" d="M99.1,42.9L99,42.7v-0.1c0-0.1-0.1-0.2-0.1-0.3l-0.1-0.2v-0.2c0,0-0.1-0.4-0.1-0.5s0-0.3-0.1-0.3l-0.3-1.2
				c0-0.1,0-0.3,0-0.5c0-0.1,0-0.4,0-0.5l0.1-0.6c0-0.2,0-0.4,0.1-0.6v-0.3v-0.2l0.1-0.8l0.1-0.4v-0.3c0-0.2,0.1-0.5,0.2-0.7
				c0.1-0.3,0.1-0.5,0.3-0.7c0.1,0,0.1-0.1,0.2-0.1h0.2c0.2,0.1,0.2,0.2,0.3,0.3l0.1,0.2c0.1,0.1,0.2,0.4,0.2,0.4l0.1-0.1l0.1-0.1
				l0.4-0.3l0.2-0.1l0.3-0.1h0.1l0.2-0.1h0.2h0.2c0.1,0,0.2,0,0.4,0h0.3c0.1,0,0.2,0.1,0.3,0.2h0.1c0.1,0.1,0.2,0.2,0.3,0.3v0.1
				l0.1,0.3c0,0.1,0,0.2-0.1,0.3c-0.2,0.2-0.2,0.2-0.5,0.2c-0.2,0-0.3,0-0.4-0.2l-0.1-0.1c0,0-0.1-0.1-0.2-0.1H102
				c-0.2,0-0.3,0.1-0.5,0.2l-0.2,0.3c-0.1,0.1-0.1,0.1-0.2,0.2l-0.2,0.2l-0.2,0.2l-0.1,0.1l-0.1,0.2v0.2l0.1,0.5l0.2,0.4l0.1,0.5
				l0.1,0.4v0.9c0,0.3,0,0.6,0,0.9v0.1c-0.1,0.1-0.2,0.3-0.2,0.5v0.2c0,0.1,0,0.2-0.1,0.3c-0.2,0.2-0.3,0.3-0.4,0.5
				c-0.1,0.1-0.1,0.2-0.3,0.4c0,0.1-0.1,0.2-0.2,0.3c-0.1,0.1,0,0.3-0.1,0.4l-0.1,0.2l-0.1,0.1h-0.1l-0.2-0.1L99.1,42.9z"/>
			<path class="st5" d="M107.8,43.1l-0.2,0.2l-0.2,0.1l-0.2,0.1c-0.3,0.1-0.6,0.2-0.9,0.1h-0.2c0,0,0,0-0.2,0c-0.1,0-0.2,0-0.3,0
				l-0.8-0.2h-0.1c-0.2,0-0.4-0.2-0.6-0.2c-0.2,0-0.3-0.2-0.5-0.3c-0.3-0.2-0.5-0.5-0.6-0.9v-0.2c-0.1-0.2-0.3-0.5-0.4-0.7V41
				l-0.1-0.3c-0.1-0.3-0.1-0.6-0.1-0.9v-0.2c0.1-0.2,0.1-0.4,0.2-0.6c0,0,0.2-0.3,0.2-0.5l0.1-0.2c0.2-0.2,0.4-0.4,0.6-0.6l0.1-0.2
				c0.2-0.1,0.3-0.2,0.4-0.3c0.1-0.1,0.3-0.1,0.4-0.1l0.2-0.1h0.3h0.6h0.6h0.3c0.4,0,0.8,0.1,1.2,0.2l0.2,0.1c0.1,0,0.2,0.1,0.3,0.1
				v-0.1v-0.2v-0.2l-0.1-0.5v-0.5l-0.1-0.3c-0.1-0.2-0.5-0.8-0.7-0.8H107h-0.8H106l-0.2,0.1l-0.4,0.2h-0.1h-0.2l-0.2,0.1l-0.1,0.1
				c-0.1,0.1-0.1,0.1-0.3,0.1l-0.1-0.1c-0.1-0.1-0.1-0.1-0.1-0.1V35v-0.1c0-0.2,0.1-0.2,0.2-0.3l0.2-0.1h0.1l0.4-0.3
				c0.2-0.1,0.4-0.1,0.6-0.2h0.2h0.2h0.1h0.3c0,0,0,0,0.2,0c0.1,0,0.2,0,0.3,0l0.7,0.2l0.3,0.1h0.1l0.1,0.1h0.1
				c0.3,0.1,0.6,0.2,0.9,0.5l0.4,0.5l0.2,0.2c0.1,0.1,0.1,0.1,0.2,0.2l0.1,0.1l0.1,0.2c0.4,0.7,0.4,0.7,0.4,0.7
				c0.1,0.2,0.2,0.4,0.2,0.5v0.2c0,0.2,0.2,0.3,0.2,0.4V38v0.2c0.1,0.2,0.1,0.5,0.1,0.7V39v0.1l0.1,0.3v0.2v0.2l0.1,0.7v0.1
				c0,0.2-0.1,0.3-0.2,0.5l-0.1,0.3l-0.3,0.3c-0.1,0.1-0.2,0.2-0.2,0.3l-0.2,0.3l-0.2,0.2l-0.1,0.2l-0.4,0.3
				c-0.1,0.1-0.1,0.1-0.2,0.2c-0.1,0.1-0.2,0.1-0.3,0.2v0.1l-0.2,0.3c-0.1,0.1-0.2,0.2-0.3,0.3h-0.1h-0.1c-0.2-0.1-0.2-0.2-0.3-0.4
				v-0.1v-0.5v-0.3l-0.1-0.2C108.2,42.9,107.9,42.9,107.8,43.1 M104.6,41.1l0.1,0.2v0.3c0,0.1,0.1,0.2,0.1,0.3l0.3,0.3
				c0.1,0,0.1,0.1,0.2,0.1h0.2h0.2l0.2,0.1h0.2h0.2h0.3h0.1l0.1-0.1c0.2,0,0.3-0.1,0.5-0.2l0.8-0.6c0-0.3,0,0,0-1.1V40v-0.2v-0.3
				c0-0.1,0-0.6,0.1-0.7c-0.1-0.3-0.1-0.3-0.1-0.3v-0.1l-0.4-0.2h-0.1l-0.4-0.1h-0.1c-0.1,0-0.3,0-0.4,0h-0.2l-0.2,0.2l-0.4,0.1
				c-0.1,0-0.3,0.1-0.3,0.1c-0.2,0.1-0.3,0.2-0.5,0.2l-0.1,0.1c-0.1,0.1-0.3,0.3-0.3,0.4s-0.1,0.2-0.1,0.3c0,0.1,0,0.2,0,0.3v0.4
				v0.2l-0.1,0.3L104.6,41.1"/>
		</g>
		<g>
			<path class="st5" d="M44.9,217.2c0-0.1-0.1-0.2,0-0.4l-0.2-0.7V216l-0.3-1.3v-0.3c0-0.1,0-0.4,0-0.5v-0.2c0-0.1,0-0.2,0-0.3
				l0.1-0.7v-0.1c0.1-0.3,0.2-0.5,0.3-0.8l0.1-0.1c0-0.1,0.1-0.2,0.2-0.2l0.1-0.1l0.1-0.2l0.1-0.2l0.1-0.1l0.1-0.1l0.1-0.1h0.1
				l0.1,0.1l0.1,0.1l0.1,0.1l0.2,0.3c0.1,0.2,0.2,0.4,0.3,0.6l0.1,0.1c0.1,0.2,0.1,0.4,0.1,0.5v0.3v0.3c0,0.1,0,0.2,0,0.3l-0.1,0.3
				c0,0.1-0.1,0.7-0.1,0.8v0.3c0,0-0.1,0.5-0.1,0.6s-0.1,0.2-0.1,0.3l-0.1,0.2l-0.2,0.3l-0.1,0.3v0.1v0.1v0.1
				c-0.1,0.1-0.2,0.3-0.2,0.4v0.3c0,0.1-0.1,0.3-0.1,0.3l-0.1,0.1h-0.1l-0.1-0.1c0-0.1,0-0.2,0-0.3v-0.2L44.9,217.2 M45,209.7
				l-0.2-0.3l-0.1-0.1v-0.1V209v-0.2v-0.2l0.1-0.1v-0.1l0.1-0.1l0.1-0.1l0.2-0.1h0.2c0.1,0,0.1,0,0.3,0c0.1,0,0.2,0.1,0.3,0.1
				l0.2,0.1l0.1,0.1l0.1,0.1l0.1,0.2v0.1v0.2c0,0.1-0.1,0.3-0.1,0.4l-0.1,0.2l-0.1,0.1l-0.1,0.2L46,210h-0.1h-0.2
				c-0.1,0-0.1,0-0.2,0h-0.1l-0.2-0.1h-0.1L45,209.7z"/>
			<path class="st5" d="M48.2,217.6c0-0.1-0.1-0.2-0.1-0.3c-0.1-0.2-0.2-0.6-0.2-0.8v-0.2v-0.2c0-0.1,0-0.2,0-0.3c0-0.1,0-0.2,0-0.3
				v-0.8c0-0.2,0-0.4,0-0.6v-0.2v-0.4c0-0.1,0-0.2,0-0.3v-0.3c0-0.5,0-1,0-1v-0.1v-0.4c0-0.1,0.1-0.3,0.1-0.3v-0.2v-0.2
				c0-0.1,0.1-0.6,0.1-0.7s0.1-0.5,0.1-0.6l0.1-0.4c0-0.1,0.1-0.2,0.2-0.3v-0.1l0.1-0.2c0-0.1,0.1-0.2,0.2-0.2h0.1l0.1,0.2
				c0.1,0.2,0.1,0.3,0.2,0.3l0.1,0.2c0.1,0.1,0,0.3,0.1,0.3v0.1l0.1,0.2c0.1,0.1,0.2,0.3,0.2,0.4c0,0,0,0.1,0,0.3v0.2v0.8
				c0,0.1,0.1,0.3,0.1,0.4v0.1v0.2v0.2v0.1v0.4c0,0.1,0,0.1,0,0.2v0.2v0.3c0,0.1-0.1,0.6-0.1,0.7l-0.1,0.4l-0.1,0.1l-0.1,0.2
				c0,0.1-0.1,0.2-0.2,0.3l-0.1,0.2l-0.1,0.1c0,0.1,0,0.2-0.1,0.3c0,0.1-0.1,0.6-0.1,0.7s-0.1,0.3-0.1,0.4v0.1l-0.1,0.2v0.2v0.1
				c0,0.1-0.1,0.2-0.2,0.2l0,0L48.2,217.6"/>
			<path class="st5" d="M54.4,216.4v-0.2V216h-0.2c-0.1,0-0.3,0.1-0.4,0.1s-0.3,0.1-0.4,0.1c0,0-0.4,0-0.8,0c0,0-0.5-0.1-0.7-0.2
				l-0.2-0.1c-0.2-0.1-0.4-0.2-0.5-0.4l-0.2-0.3c-0.1-0.1-0.1-0.3-0.2-0.4c-0.1-0.2-0.2-0.4-0.2-0.6v-0.3c0-0.1-0.1-0.2-0.1-0.3
				c0-0.1,0-0.2,0-0.3v-0.1c0-0.1,0-0.2,0-0.3l0.1-0.3c0-0.1,0.1-0.2,0.2-0.4l0.1-0.2l0.1-0.1c0.1-0.2,0.3-0.3,0.5-0.5l0.1-0.1
				l0.4-0.1l0.3-0.1c0.2-0.1,0.4-0.1,0.6-0.1H53c0.2,0,0.2,0,0.3,0h0.2h0.3l0.2,0.1c0.1,0,0.2,0,0.3,0V211l0.1-0.5
				c0,0,0.2-0.7,0.2-1l0.1-0.2c0-0.1,0.1-0.2,0.1-0.3c0.1-0.1,0.1-0.3,0.1-0.4l0.1-0.7l0.1-0.2v-0.3c0-0.2,0.1-0.3,0.2-0.4v-0.1
				l0.1-0.2l0.1-0.1l0.1-0.1l0.2-0.1l0.1,0.1c0.1,0.1,0.1,0.1,0.1,0.2l0.1,0.2v0.1l0.1,0.1c0.2,0.3,0.2,0.4,0.2,0.4l0.1,0.2
				c0,0.2,0.1,0.4,0.1,0.6s0.1,0.4,0,0.6v0.2v0.1v0.1c0,0.1,0,0.1,0,0.2v0.1v0.3c0,0.1,0,0.2,0,0.3v0.4v0.1c0,0.2-0.1,0.4-0.1,0.6
				v0.4v0.3v0.3v0.2c0,0.2-0.1,0.3-0.1,0.5l-0.1,0.2c0,0.1-0.1,0.2-0.1,0.3c-0.1,0.1,0,0.2-0.1,0.3L56,214l-0.1,0.1
				c0,0.1,0,0.2-0.1,0.3c0,0.1-0.1,0.2-0.1,0.2l-0.1,0.2l-0.1,0.1c-0.1,0.1-0.1,0.3-0.2,0.4l-0.1,0.2l-0.1,0.2
				c-0.1,0.1-0.1,0.1-0.2,0.3l-0.1,0.1h-0.1h-0.1l-0.1-0.2C54.4,216.6,54.4,216.5,54.4,216.4 M52,214.3v0.2v0.3l0.1,0.2l0.1,0.2
				c0.1,0.2,0.2,0.3,0.4,0.4l0.3,0.2h0.2c0.2,0,0.4,0,0.6,0l0.3-0.1l0.1-0.1c0.1-0.1,0.4-0.2,0.5-0.3v-0.1c0.1-0.5,0-1,0-1.6v-0.2
				v-0.3c0-0.2,0-0.4,0-0.6c0,0,0-0.1,0-0.3c0-0.1,0-0.2,0-0.2h-0.1h-0.2c-0.1,0-0.2,0.1-0.4,0.1h-0.2l-0.1,0.1l-0.2,0.1
				c-0.2,0.1-0.4,0.1-0.5,0.3l-0.3,0.4l-0.3,0.3c0,0.1-0.1,0.3-0.2,0.3v0.1c0,0.1,0,0.2,0,0.2L52,214.3"/>
			<path class="st5" d="M42,216.3v-0.2c0-0.2-0.3-1.3-0.4-1.5l-0.1-0.3l-0.1-0.1l-0.1-0.7c-0.1-0.1-0.1-0.1-0.1-0.2l-0.5,0.9l0,0
				c-0.1,0.3-0.3,0.6-0.5,0.8c-0.1,0.2-0.1,0.4-0.2,0.6s-0.3,0.4-0.4,0.5l-0.2,0.2h-0.1l0,0c-0.1,0-0.2-0.1-0.3-0.1
				c-0.1-0.1-0.2-0.2-0.3-0.4l-0.1-0.1l-0.1-0.2l-0.2-0.3l-0.2-0.5v-0.2l-0.1-0.3c-0.1-0.2-0.2-0.5-0.3-0.7c0,0-0.1-0.3-0.2-0.4
				v-0.2l-0.2-0.4l-0.1-0.2l-0.1-0.2v0.1c-0.1,0.2-0.1,0.2-0.1,0.3c0,0.1,0,0.2-0.1,0.3v0.3l-0.3,0.6l-0.1,0.2v0.4l-0.1,0.3
				l-0.2,1.2c0,0.1,0,0.2-0.1,0.3l-0.1,0.5l-0.1,0.2c0,0.1-0.2,0.4-0.3,0.5c-0.1,0.1-0.1,0.2-0.2,0.3c-0.1,0.1-0.2,0.1-0.3,0.1h-0.2
				l-0.2,0.1h-0.2l-0.2-0.1v-0.1v-0.1c0-0.1-0.1-0.5-0.1-0.7c0-0.1,0-0.6,0-0.7l0.1-1.5l0.2-0.9v-0.1c0.1-0.3,0.2-0.7,0.3-1
				c0,0,0.1-0.1,0.1-0.2L35,212c0.1-0.1,0.1-0.3,0.1-0.4c0-0.2,0.1-0.4,0.1-0.6l0.3-1c0,0,0.1-0.2,0.1-0.3c0.1-0.3,0.2-0.6,0.3-0.9
				l0.1-0.1c0.1-0.1,0.1-0.2,0.2-0.4l0.1-0.2l0.1-0.4l0.1-0.1c0.1-0.1,0.2-0.2,0.3-0.2c0.1,0,0.3,0.1,0.4,0.2l0.1,0.2
				c0.1,0.1,0.1,0.2,0.1,0.3l0.1,0.1l0.1,0.2c0.1,0.2,0.1,0.3,0.2,0.5v0.2l0.1,0.4l0.3,0.5l0.1,0.3l0.1,0.1l0.1,0.3
				c0.1,0.1,0.1,0.2,0.2,0.3v0.1c0.1,0.4,0.2,0.7,0.4,1.1c0.1,0.1,0.1,0.3,0.2,0.4c0-0.3,0.1-0.4,0.2-0.7l0.1-0.5l0.1-0.3
				c0-0.2,0-0.4,0.1-0.6c0-0.1,0-0.2,0.1-0.3l0.1-0.5l0.1-0.2c0.1-0.2,0-0.4,0.1-0.6c0-0.1,0.1-0.2,0.1-0.3l0.1-0.1v-0.1
				c0.1-0.3,0.1-0.3,0.1-0.3c0-0.1,0.1-0.2,0.1-0.3l0.1-0.1v-0.1c0.1,0,0.1-0.1,0.2-0.1s0.1,0,0.2,0.1l0.2,0.1l0.2,0.1l0.2,0.2v0.1
				c0.1,0.1,0.1,0.4,0.2,0.5l0.1,0.2l0.1,0.1c0,0.1,0,0.2,0,0.3l0.2,0.6c0,0.1,0.1,0.3,0.1,0.3c0,0.1,0.1,0.1,0.1,0.2l0.1,0.2
				L43,212v0.2l0.1,0.2c0.2,0.2,0.2,0.8,0.2,0.8l0.1,0.2v0.3v0.3c0,0.1,0.1,0.3,0.1,0.4v0.1c0.1,0.7,0,1.4,0.1,2.1
				c0,0.2,0,0.3,0,0.5c0,0.1,0,0.2,0,0.3v0.2c0,0.1,0,0.3-0.1,0.4c0,0.1-0.1,0.1-0.2,0.1h-0.2H43c-0.3-0.2-0.3-0.5-0.4-0.7
				c0-0.1,0-0.2-0.1-0.2L42,216.3z"/>
			<path class="st5" d="M40.4,206.6c-0.2,0-0.6,0.2-0.7,0.1h-0.4c-0.1,0-0.4,0-0.6,0h-0.3h-0.5c-0.1,0-0.1,0-0.2,0l-0.2-0.1
				l-0.1-0.2c0,0,0-0.2,0-0.5c0-0.1-0.1-0.6-0.1-0.7s-0.2-1.2-0.3-1.3v-0.2v-0.4c0-0.5,0-1-0.1-1.5v-0.4c0-0.1,0-0.2,0-0.3
				c0-0.2,0-0.2,0-0.3c0-0.2,0.1-0.3,0-0.5c0,0,0-0.1,0-0.2l0.1-0.9l0.1-0.2c0-0.1,0-0.1,0-0.2c0-0.2,0.1-0.3,0.1-0.5l0.1-0.2
				l0.1-0.3l0.1-0.2c0-0.1,0.1-0.1,0.1-0.3l0.2-0.1h0.1l0.6-0.1h0.2l0.7,0.1h0.2c0.2,0,0.4,0,0.7,0h0.2c0.1,0,0.2,0.1,0.3,0.1h0.3
				c0.3,0,0.8,0.1,1.1,0.1c0.1,0,0.2-0.1,0.3-0.1h0.2l0.3,0.1l0.1,0.1v0.1c0,0,0,0.1-0.1,0.3c-0.1,0.1-0.3,0.1-0.4,0.1h-0.2
				c-0.2,0.1-0.3,0-0.5,0.1c-0.2,0-0.4,0-0.8,0.1c-0.2,0-0.7,0.1-0.7,0.1h-0.5l-0.2,0.2v0.2c0,0.1,0,0.1,0,0.2l0.1,0.3v0.1v0.1v0.8
				v0.2c0,0.1,0,0.1,0.1,0.5v0.3c0.2,0,0.3,0,0.5,0.1c0.1,0,0.3,0.1,0.5,0.1l0.4,0.1c0.1,0,0.1,0,0.2,0l0.2-0.1h0.2h0.4h0.2l0.3,0.1
				c0,0.1,0.1,0,0.1,0.2v0.1c0,0.1-0.3,0.2-0.3,0.3h-0.2h-0.1h-0.2l-0.4,0.1l-0.2,0.1c-0.1,0-0.2,0-0.3,0h-0.8h-0.1
				c0,0-0.3,0.1-0.2,0.2c0,0.3,0.1,1,0.1,1v0.2c0,0.3,0,0.4,0,0.4l-0.1,0.2c0,0.1,0,0.7,0,0.8v0.2v0.2c0.2,0,0.3,0.1,0.5,0.1
				l0.9,0.1h0.2c0.1,0,0.1,0,0.2,0c0.2,0,0.4,0,0.5,0h0.2c0.1,0,0.2,0,0.3-0.1h0.3h0.2c0.2,0,0.1,0.1,0.2,0.3c0,0.1,0,0.2-0.1,0.3
				c0,0,0,0.1-0.1,0.1c-0.2,0.1-0.3,0.1-0.3,0.1l-0.3,0.1h-0.2c-0.1,0-0.1,0-0.2,0H42c-0.1,0-0.2,0.1-0.3,0.1h-0.4H41L40.4,206.6z"
				/>
			<path class="st5" d="M48.1,205.1l-0.3-0.2l-0.2-0.2l-0.1-0.2l-0.1-0.1c-0.2-0.2-0.3-0.4-0.5-0.5l-0.4,0.4l-0.1,0.1l-0.1,0.1
				c0,0.1-0.1,0.2-0.2,0.3l-0.4,0.5l-0.1,0.1l0,0.3l-0.1,0.2v0.1l-0.3,0.3v0.1l-0.1,0.1h-0.2h-0.2h-0.2l-0.3-0.1l-0.2-0.2v-0.1v-0.2
				l0.1-0.1l0.2-0.2l0,0l0.1-0.3l0.3-0.5l0.3-0.4c0.1-0.1,0.1-0.2,0.2-0.3l0.2-0.3c0.1-0.1,0.1-0.2,0.2-0.3l0.1-0.2l0.3-0.4
				l-0.1-0.1l-0.2-0.2c-0.1-0.1-0.2-0.2-0.2-0.3l-0.1-0.2c-0.5-0.6-0.5-0.6-0.5-0.6l-0.5-0.6v-0.1c-0.1-0.1-0.1-0.2-0.2-0.2
				l-0.1-0.2c-0.1-0.1-0.1-0.3-0.1-0.5v-0.1v-0.1v-0.1v-0.2c0.1-0.1,0.1-0.1,0.2-0.1h0.1l0.2,0.1l0.1,0.1l0.2,0.1l0.5,0.1
				c0.1,0,0.2,0,0.2,0.1h0.1l0.2,0.1l0.1,0.1H46l0.3,0.2c0.1,0,0.1,0.1,0.2,0.1l0.1,0.1c0.1,0.1,0.2,0.1,0.3,0.2l0.4,0.3l0.1,0.1
				c0.1-0.1,0.2-0.2,0.3-0.3l0.1-0.2l0.2-0.2l0.2-0.3l0.1-0.2l0.4-0.4l0.2-0.1v-0.1l0.2-0.2l0.1-0.1l0,0c0-0.1,0.2-0.2,0.3-0.2h0.1
				v0.1v0.1v0.1v0.1c0,0.3-0.1,0.6-0.1,1c0,0.1,0,0.1,0,0.2c0,0.2,0,0.4-0.2,0.5l-0.1,0.1l-0.1,0.3c0,0.1-0.2,0.3-0.2,0.4v0.1
				l-0.1,0.2l0.1,0.1l0.3,0.4l0.3,0.2c0.1,0.1,0.1,0.2,0.2,0.3l0.2,0.2c0.2,0.2,0.2,0.4,0.2,0.7v0.1l0.1,0.1
				c0.1,0.1,0.1,0.1,0.1,0.2l0.1,1.3v0.1l0.1,0.2v0.4v0.1c-0.1,0.1-0.2,0.3-0.3,0.3c-0.1,0-0.2-0.1-0.3-0.2l-0.2-0.1h-0.1
				c-0.1-0.1-0.2-0.1-0.3-0.1h-0.1l-0.2-0.1L48.1,205.1z"/>
			<path class="st5" d="M51.8,203.9l-0.1-0.3c0-0.1,0-0.2-0.1-0.3c0-0.5,0-0.5,0-0.5l-0.1-0.8v-0.2c0-0.1,0,0,0-0.1v-0.5
				c-0.2,0-0.3-0.1-0.5,0l-0.5,0.1c-0.1,0-0.2-0.1-0.3-0.1c0,0,0,0,0-0.1s0-0.1,0-0.2s0.1-0.2,0.2-0.2h0.1c0.1,0,0.1,0,0.4-0.1h0.2
				h0.4c0,0,0.1-0.4,0.1-0.5V200v-0.3c0-0.1,0.1-0.3,0.1-0.4v-0.1c0-0.1,0-0.2,0.1-0.4l0.1-0.4l0.1-0.2l0.1-0.2v-0.2
				c0-0.1,0.1-0.3,0.2-0.4h0.1h0.1h0.1l0.2,0.1l0.4,0.4l0.1,0.1l0.1,0.2l0.3,0.5l0.1,0.2l0.1,0.3c0,0.1,0.1,0.2,0.1,0.3l0.1,0.2v0.1
				l0.1,0.3l0.1,0.4c0,0,0.4-0.1,0.6-0.1c0.1,0,0.2,0,0.3,0h0.3c0.2,0,0.3,0,0.5,0.1l0.1,0.1l0.1,0.1v0.1v0.1l-0.3,0.1h-0.1h-0.2
				h-0.2l-0.5,0.1c0,0-0.1,0-0.2,0s-0.2,0-0.2,0h-0.1v0.2c0,0.2,0,0.2,0,0.4c0,0.1,0,0.2,0,0.3c0,0.1-0.1,0.3-0.1,0.4v0.1v0.1
				l-0.1,0.2l-0.1,0.1l-0.1,0.3v0.1l0.1,0.4v0.2v1c0.1,0.1,0.1,0.2,0.2,0.3l0.1,0.1l0.2,0.1h0.2h0.1H55l0.2-0.1v-0.1
				c0.1-0.1,0.2-0.2,0.2-0.3c0-0.1,0.1-0.4,0.1-0.5v-0.2l-0.1-0.2h-0.1c-0.1,0-0.3,0-0.3-0.2l0,0c0-0.1,0-0.2,0.1-0.2l0.3-0.1
				l0.2,0.1l0.2,0.1c0.1,0,0.1,0.1,0.1,0.2c0.1,0.1,0.1,0.2,0.1,0.3c0,0.2,0,0.4,0,0.6c0,0.1,0,0.3-0.1,0.4l-0.1,0.2l-0.1,0.2
				c-0.1,0.1-0.2,0.3-0.3,0.3l-0.2,0.1c-0.1,0-0.2,0.2-0.3,0.2l-0.2,0.1l0,0h-0.4l-0.2,0.1H54c-0.2,0-0.4,0-0.6-0.1h-0.1l-0.4-0.2
				l-0.1-0.1l-0.1-0.1c-0.1,0-0.2-0.1-0.3-0.2l-0.3-0.3l-0.1-0.1l-0.2-0.3c0,0,0-0.1-0.3-0.9L51.8,203.9"/>
			<path class="st5" d="M57.4,205.4l-0.1-0.2v-0.1c0-0.1-0.1-0.1-0.1-0.2l-0.1-0.2v-0.2c0,0-0.1-0.3-0.1-0.4s0-0.2-0.1-0.3l-0.3-1
				c0-0.1,0-0.2-0.1-0.4V202l0.1-0.5c0-0.2,0-0.3,0-0.5v-0.2v-0.2l0.1-0.6v-0.4v-0.2c0-0.2,0.1-0.4,0.1-0.6s0-0.4,0.2-0.6
				c0.1,0,0.1-0.1,0.2-0.1h0.2c0.1,0,0.2,0.2,0.3,0.3l0.1,0.1c0.1,0.1,0.2,0.3,0.2,0.3l0.1-0.1l0.1-0.1l0.3-0.2l0.2-0.1l0.2-0.1H59
				l0.2-0.1h0.1h0.2c0.1,0,0.2,0,0.3,0h0.3c0.1,0,0.2,0.1,0.2,0.1h0.1c0.1,0.1,0.2,0.1,0.3,0.2v0.1l0.1,0.2l-0.1,0.2
				c-0.1,0.1-0.2,0.2-0.4,0.2c-0.2,0-0.3,0-0.4-0.2l-0.1-0.1l-0.1-0.1h-0.2c-0.1,0-0.3,0.1-0.4,0.2l-0.2,0.2c0,0.1-0.1,0.1-0.1,0.2
				l-0.1,0.1l-0.2,0.2l-0.1,0.1l-0.1,0.2v0.1l0.1,0.4l0.1,0.3l0.1,0.4l0.1,0.4l0.1,0.7c0,0.3,0,0.5,0,0.8v0.1
				c-0.1,0.1-0.1,0.2-0.2,0.4v0.1c0,0.1,0,0.2-0.1,0.3c-0.1,0.2-0.2,0.3-0.3,0.4c0,0.1-0.1,0.1-0.3,0.3c0,0.1-0.1,0.2-0.1,0.3
				c-0.1,0.1,0,0.2-0.1,0.3l-0.1,0.1L57.4,205.4L57.4,205.4l0.2,0.3L57.4,205.4z"/>
			<path class="st5" d="M64.7,205.2l-0.1,0.2l-0.2,0.1l-0.2,0.1c-0.3,0.1-0.5,0.2-0.7,0.2h-0.2c0,0,0,0-0.2,0c-0.1,0-0.2,0-0.3,0
				l-0.7-0.1H62c-0.2,0-0.3-0.1-0.5-0.2c-0.1,0-0.3-0.2-0.4-0.2c-0.3-0.2-0.4-0.4-0.6-0.7v-0.1c-0.1-0.2-0.2-0.4-0.3-0.6v-0.1
				l-0.1-0.2c-0.1-0.2-0.1-0.5-0.1-0.7v-0.2c0-0.2,0.1-0.3,0.1-0.5c0,0,0.1-0.3,0.2-0.4l0.1-0.1c0.1-0.2,0.3-0.3,0.4-0.5l0.1-0.1
				c0.1-0.1,0.2-0.2,0.3-0.2c0.1-0.1,0.3-0.1,0.4-0.1l0.2-0.1H62h0.5H63h0.2c0.3,0,0.7,0.1,1,0.2l0.2,0.1c0.1,0,0.2,0.1,0.3,0.1V201
				v-0.1v-0.2l-0.1-0.4v-0.4l-0.1-0.2c-0.1-0.2-0.4-0.6-0.6-0.6h-0.2H63h-0.1l-0.2,0.1l-0.3,0.2h-0.1h-0.2l-0.2,0.1l-0.1,0.1
				c-0.1,0.1-0.1,0.1-0.2,0.1l-0.1-0.1c-0.1-0.1-0.1-0.1-0.1-0.1v-0.2v-0.1c0-0.1,0.1-0.2,0.2-0.3l0.1-0.1h0.1l0.3-0.3
				c0.2-0.1,0.3-0.1,0.5-0.2h0.1h0.2H63h0.2c0,0,0,0,0.2,0c0.1,0,0.1,0,0.2,0l0.6,0.2l0.3,0.1h0.1l0.1,0.1h0.1
				c0.3,0.1,0.5,0.2,0.7,0.4l0.3,0.4l0.1,0.2l0.1,0.2l0.1,0.1l0.1,0.2c0.4,0.5,0.4,0.6,0.4,0.6c0.1,0.1,0.2,0.3,0.2,0.5v0.1
				c0,0.1,0.1,0.2,0.1,0.4v0.1v0.2c0.1,0.2,0.1,0.4,0.1,0.6v0.1v0.1l0.1,0.2v0.2v0.2l0.1,0.6v0.1c0,0.1-0.1,0.2-0.2,0.4l-0.1,0.3
				l-0.2,0.3l-0.2,0.3l-0.1,0.3l-0.2,0.2l-0.1,0.2l-0.3,0.3l-0.2,0.2l-0.2,0.2v0.1l-0.1,0.2c0,0.1-0.2,0.2-0.2,0.3H65h-0.1
				c-0.1-0.1-0.2-0.2-0.2-0.3v-0.1v-0.4v-0.2l-0.1-0.2C65,205.1,64.8,205.1,64.7,205.2 M62,203.7l0.1,0.2v0.2c0,0.1,0.1,0.2,0.1,0.2
				l0.3,0.2l0.2,0.1h0.1h0.1l0.2,0.1h0.2h0.2h0.2h0.1l0.1-0.1c0.1,0,0.3-0.1,0.4-0.2l0.6-0.5c0-0.2,0,0,0-0.9v-0.3v-0.2v-0.2
				c0-0.1,0-0.5,0-0.6c-0.1-0.2-0.1-0.3-0.1-0.3v-0.1l-0.4-0.1h-0.1l-0.3-0.1h-0.1c-0.1,0-0.2,0-0.3,0h-0.1l-0.2,0.2l-0.3,0.1
				c-0.1,0-0.2,0.1-0.2,0.1c-0.1,0.1-0.2,0.2-0.4,0.2l-0.1,0.1c-0.1,0.1-0.2,0.2-0.2,0.3c0,0.1-0.1,0.2-0.1,0.3c0,0.1,0,0.2,0,0.3
				v0.4v0.2l-0.1,0.3L62,203.7"/>
		</g>
	</g>
	<g>
		<path class="st0" d="M130,28.7l0.6-1.5c0.1-0.4,0.4-0.9,0.6-1.2c0.3-0.3,0.5-0.7,0.7-1.1l0.7-1.2c0.1-0.1,0.2-0.3,0.3-0.4
			c0.1-0.3,0.4-0.9,0.4-0.9c0.1-0.1,0.3-0.5,0.3-0.6s0.1-0.4,0.2-0.4c0.2-0.2,0.3-0.5,0.5-0.8s0.4-0.5,0.7-0.8
			c0.1-0.2,0.2-0.3,0.4-0.4l1.2-1.3c0-0.1,0.5-0.4,0.5-0.4c0-0.1,0.4-0.4,0.4-0.4c0.1,0,0.4-0.2,0.5-0.3c0.3-0.3,1.8-1.7,2.2-2
			c0.5-0.4,1-0.7,1.6-1.2c0.4-0.3,0.8-0.6,1.3-0.9c0.1-0.1,0.7-0.5,0.7-0.5c0.4-0.5,1-0.9,1.6-1.3c0.1-0.1,0.5-0.3,0.6-0.3
			c0.1-0.1,0.4-0.3,0.5-0.4c0.3-0.1,0.7-0.1,1,0c0.2,0.2,0.2,1.2,0.3,1.5L148,12c0.3,0.1,0.5,0.2,0.8,0.4c0.3,0.1,0.6,0.2,0.8,0.4
			c0,0,0.3,0.2,0.4,0.2c0.3,0.3,0.6,0.5,0.9,0.8c0.3,0.3,0.6,0.6,0.9,0.9c0.6,0.8,1.1,1.6,1.5,2.6l0.3,0.6c0.3,0.8,0.7,1.6,0.8,2.5
			c0,0.5,0.1,1.1,0.1,1.6l-0.1,1.6v0.6c0,0.6-0.6,1-0.9,1.5c0,0-0.2,0.4-0.2,0.5c-0.1,0.1-0.3,0.3-0.3,0.4c-0.3,0.4-0.7,0.8-1.2,1
			c-0.6,0.3-1.2,0.5-1.9,0.8c-0.4,0.1-0.8,0.4-1.1,0.5c-0.1,0.1-0.7,0-0.8-0.1c-0.6,0.1-1.2,0-1.8,0l-1.2-0.2
			c-0.3-0.1-0.6-0.2-0.9-0.3c-0.6-0.3-1.2-0.7-1.7-1.1c-0.1-0.1-0.3-0.4-0.3-0.4c-0.1,0-0.3-0.4-0.4-0.5l-0.5-0.9
			c-0.1,0-0.5-0.7-0.6-0.6c-0.4,0.4-0.6,0.9-1,1.2c-0.7,0.4-1.1,1-1.8,1.3c-0.2,0.2-0.4,0.2-0.7,0.5l-0.5,0.3
			c-0.1,0-0.3,0.2-0.4,0.3l-0.2,0.2c-0.3,0.3-0.7,0.7-1.2,0.9l-0.4,0.1l-0.7,0.5c0,0-0.5,0.2-0.6,0.3c-0.5,0.2-1,0.5-1.6,0.7
			c-0.1,0-0.5,0.1-0.6,0.2c-0.2,0-0.5,0.3-0.7,0.5c-0.2-0.1-0.4,0-0.6,0c-0.1,0-0.3-0.1-0.4-0.2c-0.1-0.1-0.1-0.3-0.1-0.4l0.6-1.8
			C129.9,29.2,129.9,28.9,130,28.7z M142.6,23.2c0.2,0.2,0.4,0.6,0.6,0.8l0.3,0.2c0.2,0.1,0.3,0.3,0.6,0.4c0.1,0.1,0.6,0.1,0.8,0.1
			c0.2,0.1,0.4,0.2,0.6,0.2c0.2,0.1,1.4,0.2,1.5,0.1l0.4-0.1c0.4,0,0.7-0.3,1.1-0.5c0.4-0.2,0.7-0.4,1-0.6l0.6-0.7
			c0.4-0.4,0.6-0.7,0.9-1.2l0.2-0.7c0.1-0.3,0.2-0.4,0.2-0.6c0-0.1,0-0.2,0-0.3c0.2-0.2-0.1-0.7,0-0.8c0-0.6-0.2-1.2-0.4-1.8
			c-0.2-0.2-0.3-0.6-0.5-0.8c0-0.1-0.1-0.3-0.3-0.5l-0.2-0.2l-0.9-0.8c-0.1-0.1-0.4-0.2-0.4-0.2c-0.1,0-0.4-0.3-0.5-0.3
			s-0.3-0.2-0.4-0.1c-0.3,0.3-0.5,0.7-0.7,1c0,0.1-0.2,0.3-0.3,0.5l-0.4,0.8c0,0.1-0.3,0.4-0.4,0.6c0,0.1-0.6,0.9-0.8,1.1
			c-0.1,0.1-0.2,0.3-0.3,0.5c-0.3,0.5-0.7,1-1.1,1.6c0,0.1-0.4,0.5-0.4,0.6c-0.3,0.3-0.7,0.6-1,1C142.2,22.8,142.4,23,142.6,23.2z"
			/>
		<path class="st0" d="M141.4,46.2c-0.3-0.5-1.2-1.3-1.2-1.5l-0.5-1c0-0.2-0.5-1.1-0.7-1.4l-0.4-0.8l-0.7-1.3
			c-0.1-0.2-0.2-0.3-0.3-0.6c0-0.1,0.1-0.5,0.1-0.6c0.1-0.1,0.3-0.4,0.4-0.5c0.1-0.1,0.4-0.3,1.1-0.7c0.2-0.1,1.3-0.9,1.5-1.1
			c0.3-0.2,2.5-2,2.8-2.3c0.1,0,0.3-0.2,0.4-0.3l0.9-0.5c1.2-0.7,2.4-1.3,3.6-2l1-0.6c0.2-0.2,0.4-0.3,0.6-0.4
			c0.4-0.2,0.6-0.3,0.8-0.4c0.4-0.2,0.9-0.3,1.3-0.6c0,0,0.2,0,0.5-0.2l2.4-1c0.1-0.1,0.5-0.2,0.6-0.2c0.2-0.1,0.3-0.2,0.5-0.3
			c0.5-0.3,0.9-0.2,1.3-0.4l0.6-0.1l1-0.2h0.7c0.3,0,0.4,0.1,0.8,0c0.2,0,0.4,0.2,0.6,0.3c0.1,0.1,0.2,0.2,0.2,0.3l0.9,1.3l0.2,0.4
			l0.7,1.9c0,0.1,0.2,0.4,0.3,0.6c0.4,0.5,0.6,1.1,1,1.6c0,0,0.2,0.4,0.2,0.5c0.2,0.2,0.1,0.5,0.2,0.8c0.1,0.1,0.2,0.6,0.3,0.7
			c0.4,0.8,0.8,2,1.3,2.8c0.1,0.2,0.4,0.5,0.6,0.8c0,0.1,0.1,0.3,0.1,0.4v0.9c0,0.1-0.1,0.4-0.1,0.4l-0.1,0.1c-0.1,0-0.3,0.1-0.9,0
			c-0.4-0.1-0.7-0.5-0.9-0.9c0,0-0.2-0.3-0.3-0.3c-0.4-0.4-0.5-0.8-1-1.1c-0.3-0.6-0.6-1.1-1.2-1.7c-0.4-0.5-1-1.5-1.1-1.6l-0.6-1.4
			l-0.6-0.2l-0.5,0.4c-0.1,0.1-0.1,0.2-0.4,0.3c0,0.1-0.5,0.5-0.5,0.6c-0.1,0.1-0.2,0.2-0.3,0.2c0,0-0.2,0.1-0.3,0.1l-1.9,1.1
			c-0.1,0.1-0.4,0.1-0.4,0.1c-0.2,0.1-0.2,0.3-1.2,0.9c-0.1,0.1-0.6,0.3-0.7,0.3c0.1,0.4,0.3,0.8,0.4,1.2c0.2,0.3,0.3,0.9,0.4,1.4
			l0.3,1c0.1,0.2,0.2,0.4,0.3,0.6s0.3,0.4,0.5,0.5c0.1,0.1,0.3,0.4,0.3,0.5l0.5,0.9c0.1,0.1,0.2,0.4,0.3,0.5c0.1,0.2,0,0.6,0,0.9
			c-0.2,0.1,0,0.3-0.4,0.6c-0.1,0-0.1,0-0.2,0.1c-0.3,0-1-0.4-1.1-0.5l-0.3-0.6c0,0-0.2-0.1-0.2-0.2c0,0-0.3-0.5-0.4-0.5
			c-0.1-0.1-0.7-0.8-0.8-0.9l-0.4-0.4c-0.1-0.2-0.3-0.5-0.5-0.7l-1.1-2c0,0-0.1-0.2-0.2-0.2c-0.1-0.1-0.4-0.6-0.7-0.4
			c-0.6,0.4-2.2,1.4-2.3,1.5c-0.1,0-0.5,0.4-0.5,0.4c-0.7,0.4-0.9,0.5-0.9,0.5c-0.2,0-0.4,0.1-0.6,0c-0.3,0.2-1.7,0.8-2,1l-0.4,0.2
			c-0.1,0.1-0.3,0.1-0.5,0.2c0.2,0.5,0.1,1,0.3,1.5l0.9,2.2c0.1,0.2,0.2,0.4,0.2,0.5c0.1,0.2,0,0.3,0.2,0.4c0.3,0.4,0.4,1,0.7,1.2
			c0,0.1,0.3,0.4,0.4,0.5c0.1,0.2,0.3,0.5,0.6,0.7l0.3,0.8c0.1,0.1,0.2,0.2,0.3,0.4c0.2,0.5-0.1,0.5-0.5,0.7
			c-0.4,0.1-0.5,0.1-0.9,0.1c0,0-0.2,0-0.4,0c-0.6-0.3-0.7-0.4-0.7-0.4c-0.2-0.1-0.5-0.6-0.6-0.8l-0.2-0.4c-0.1-0.1-0.2-0.3-0.3-0.6
			l-0.5-1.1c-0.1-0.2-0.4-0.4-0.6-0.6c-0.1-0.1-0.5-0.7-0.6-0.9c-0.1-0.1-0.2-0.6-0.3-0.7L141.4,46.2z"/>
		<path class="st0" d="M153.9,64.5c0,0,0.1-0.2,0-0.2c0-0.1,0.1-0.9,0.1-1c0.1-0.3,0.3-0.6,0.4-0.9c0,0,0.1-0.3,0.1-0.4
			s0.1-0.6,0.1-0.6s0-0.1,0.1-0.1c0.1-0.3,0.3-0.6,0.4-0.9l0.2-0.8c0.1-0.2,0.2-0.3,0.3-0.5l0.3-0.4c0.5-0.6,0.9-1.9,1.3-2.6l-3,0.7
			c0,0-0.2,0-0.3,0s-0.1,0-0.3,0H153c-0.1,0-0.3-0.1-0.5,0h-0.1h-0.3l-0.9,0.2c-0.2,0.1-0.5,0.1-0.5,0.1c-0.3,0.1-0.7,0.3-1.1,0.3
			c-0.2,0-0.4,0-0.7,0c0,0-0.4,0.1-0.4,0.2c-0.2,0.1-0.6,0-0.8,0c-0.1,0-0.6,0.1-0.6,0.1c-0.2-0.1-0.3-0.1-0.5-0.3l0.2-0.5
			c0.1-0.2,0.3-0.3,0.3-0.4l0.9-0.9l0.2-0.1c0.3-0.1,0.4-0.3,0.5-0.6c0.1,0,0.3-0.3,0.3-0.3c0.1-0.1,0.3-0.3,0.5-0.5
			c0,0,0-0.1,0.1-0.1s0.3-0.2,0.4-0.3l0.2-0.2c0,0,0.1-0.2,0.4-0.3c0.3-0.2,0.4-0.4,0.7-0.6c0.4-0.5,0.9-0.9,1.4-1.3
			c0.1-0.1,1.2-0.7,1.4-0.8c0,0,0.3-0.3,0.4-0.3c0.1,0,0.9-0.5,1-0.5l1.7-1.2c0,0,0.4-0.2,0.6-0.3l0.8-0.4c0.1-0.1,0.4-0.1,0.5-0.2
			l0.3-0.2c0,0,0.3-0.1,0.3-0.2L160,47c0.1,0,0.9-0.3,1-0.3l0.5-0.2c0.1,0,0.6-0.2,0.6-0.3c0,0,0.3,0,0.4,0c0,0,0.1-0.1,0.2-0.1
			c0.2-0.1,0.5-0.1,0.7-0.2h0.2c0.2-0.1,0.4,0,0.5-0.1l0.5-0.2l0.2-0.1c0.2,0.1,0.4,0,0.6,0c0.7-0.2,1.4-0.2,2.1-0.2
			c0.2,0,0.4-0.1,0.7-0.1c0,0,0.3,0.1,0.4,0.1c0.2-0.1,0.6-0.2,0.6-0.2h0.2c0.1,0,0.4,0.1,0.4,0.2c0.1,0.3,0.1,0.5,0.3,0.9
			c0.1,0,0.4,0.4,0.4,0.5c0.1,0.1,0.3,0.4,0.4,0.4l0.2,0.4c0,0,0.3,0.4,0.4,0.4c0.2,0.4,0.5,0.7,0.8,1.2c0.1,0.2,0.2,0.2,0.2,0.3
			c0.1,0.2,0.2,0.3,0.4,0.8c0,0.1,0.2,0.3,0.2,0.3c0.1,0.2,0.2,0.4,0.5,1c0.1,0.2,0.2,0.4,0.2,0.9c0.2,0.5,0.3,1.1,0.2,1.7v0.1
			c-0.1,0.1,0,0.3-0.1,0.4c0,0.3-0.2,0.5-0.2,0.8V56c0,0.2-0.2,0.5-0.1,0.7l-0.2,0.9c-0.1,0.1-0.1,0.3-0.1,0.5l-0.2,0.4
			c0,0-0.4,0.4-0.4,0.5c-0.2,0.2-0.2,0.4-0.4,0.5l-0.3,0.2c0,0.1-0.4,0.4-0.5,0.4l-0.2,0.1c0,0-0.2,0.2-0.3,0.2c0,0-0.2,0.1-0.3,0.2
			l-0.3,0.2l-1.1,0.4l-1,0.2c-0.5,0.1-0.8-0.1-1.3-0.1c-0.1,0-0.8-0.1-0.8-0.1c-0.3,0-0.6-0.1-1-0.2l-0.4-0.3
			c-0.3-0.1-0.5-0.1-0.8-0.2c-0.2,0-0.3-0.2-0.5-0.3c-0.3-0.2-0.6-0.3-0.9-0.5l-0.3-0.3c-0.2-0.1-0.2-0.2-0.3-0.3
			c0,0-0.5-0.5-0.5-0.6s-0.3-0.3-0.4-0.2l-0.2,2c-0.2,0.2-0.7,1.1-0.8,1.4c-0.1,0.2-0.7,1.5-0.8,1.6l-0.6,1
			c-0.1,0.1-0.3,0.4-0.3,0.4l-0.1,0.2c-0.2,0.2-0.4,0.4-0.5,0.6c-0.1,0-0.3,0.3-0.4,0.4l-1.3,1.2c-0.1,0-0.3,0.3-0.3,0.3l-0.4,0.5
			l-0.5,0.8l-0.1,0.1l-0.6,0.7l-0.1,0.1c0,0-0.4,0.5-0.4,0.6c-0.1,0.1-0.2,0.1-0.3,0.2c-0.3,0.1-0.4,0.2-0.6,0.2
			c-0.1,0-0.2-0.2-0.3-0.3c0-0.1-0.1-0.3-0.1-0.4c0-0.3,0.1-0.4,0.2-0.6c0.1-0.2,0.1-0.3,0.1-0.5c0.1-0.8,0.5-1.4,0.8-2.2
			L153.9,64.5z M162,54.2c0,0,0.1,0.5,0.3,0.9l0.1,0.3c0.1,0,0.4,0.6,0.5,0.7l0.1,0.1c0.2,0.1,0.7,0.6,0.8,0.6l0.9,0.5
			c0.3,0.1,0.7,0.2,1,0.2h1c0.2,0,0.4-0.1,0.6-0.1c0.1,0,0.5-0.1,0.6-0.2c0.2-0.1,0.8-0.4,1-0.5c0.2-0.2,0.5-0.3,0.7-0.5l0.7-0.8
			c0,0,0.3-0.6,0.4-0.9c0.1-0.2,0.4-1,0.5-1.2l-0.1-0.8c0-0.1,0-0.7,0-0.7c0-0.1-0.2-0.6-0.2-0.7l-0.1-0.3c-0.6-0.6-1.3-1.4-1.3-1.4
			c-0.3,0.1-0.6,0.3-0.9,0.6c0,0.1-0.5,0.4-0.6,0.5c0,0-0.2,0.1-0.3,0.1l-0.1,0.1l-0.4,0.2c-0.3,0.2-0.6,0.4-0.9,0.5
			c-0.2,0.1-0.4,0.1-0.5,0.2c-0.3,0.2-0.6,0.4-0.9,0.6l-0.8,0.4c-0.2,0.1-0.8,0.4-0.8,0.4c-0.1,0-0.4,0.2-0.4,0.2s-0.1,0.1-0.2,0.1
			c0,0-0.1,0.1-0.8,0.4L162,54.2z"/>
		<path class="st0" d="M156.6,70.3c0.2-0.2,0.5-0.3,0.8-0.4l1.3-1l0.2-0.1l2.5-1.6c0.1,0,0.4-0.3,0.5-0.3c0.1-0.1,0.8-0.3,1-0.4
			l0.4-0.1c0.2,0,0.4-0.1,0.5-0.2l1.6-0.4c0,0,0.2,0,0.3-0.1c0.7-0.1,1.3,0.1,1.9,0.1l0.4,0.1c0.2-0.1,0.5,0,0.6,0.1
			c0.1,0,0.3,0.1,0.3,0.1l0.4,0.1c0.1,0,0.3,0.1,0.4,0.2l0.3,0.1h0.2l0.2,0.1v0.2c0,0.1-0.1,0.1-0.2,0.2c0,0.1-0.1,0.2-0.1,0.2
			c-0.1,0-0.1,0.2-0.1,0.3l-0.4,0.7c-0.4,0.3-0.6,0.7-1,1l-0.1,0.2c-0.3,0.3-0.8,0.4-1.1,0.6l-0.5,0.3c-0.1,0.1-0.6,0.3-0.6,0.3
			c-0.2,0.1-0.4,0.1-0.7,0.2c-0.1,0-0.5,0-0.6,0c-0.2,0.1-1.4,0.4-1.8,0.4l-0.7,0.2c-0.1,0-1,0.1-1.4,0.2c-0.3,0-0.5,0-0.8,0
			c-0.1,0-0.3,0-0.4-0.1c-0.1,0-0.7-0.1-0.8-0.2c-0.1,0-0.6,0-0.7,0h-0.1c0,0-0.1,0-0.2,0.1c-0.1,0-0.3,0-0.3,0
			c-0.3-0.1-0.7-0.1-1-0.1c-0.1,0-0.5,0.1-0.6,0.1c-0.2,0-0.7,0.1-0.7,0c-0.1,0-0.2-0.1-0.3-0.1c0-0.1-0.1-0.2-0.1-0.2
			s-0.1-0.2,0.1-0.3c0.2-0.1,0.3-0.2,0.5-0.2c0.1,0,0.3-0.2,0.4-0.2C156.4,70.5,156.4,70.3,156.6,70.3z M172.4,65
			c0-0.1,0.4-0.6,0.4-0.7c0,0,0.2-0.2,0.3-0.2l0.2-0.1c0.1,0,0.2-0.1,0.4-0.1c0,0,0.3-0.1,0.4-0.1l0.3-0.1c0.1,0,0.2,0,0.2,0h0.2
			c0,0,0.2,0,0.3,0c0,0,0.3,0.1,0.4,0.1c0.2,0,0.3,0.3,0.3,0.3c0,0.1,0,0.3,0,0.4c0,0.2,0.2,0.3,0.2,0.5c0.1,0.2,0,0.5,0,0.7
			s0,0.4-0.1,0.5c0,0,0,0.1-0.1,0.2l-0.1,0.3c-0.1,0.2-0.2,0.2-0.3,0.4l-0.1,0.1c-0.1,0.1-0.2,0.2-0.4,0.2c-0.3,0.1-0.6,0.1-1,0.1
			c-0.1,0-0.3,0.1-0.5,0c-0.1,0-0.2,0-0.3-0.1c-0.1,0-0.5-0.1-0.5-0.1c-0.1-0.1-0.3-0.2-0.3-0.2l-0.1-0.2c-0.1-0.1-0.1-0.2-0.2-0.3
			c0-0.2,0-0.2,0-0.4c0,0,0-0.2,0-0.3v-0.4c0,0,0-0.1,0-0.2L172.4,65z"/>
		<path class="st0" d="M162.9,73.6c0,0,0.3,0,0.4,0c0.1,0,0.2,0.1,0.3,0.2c0,0,0.2,0.1,0.2,0.2c0.2,0.1,0.4,0.4,0.5,0.6
			c0,0.1,0.1,0.4,0.1,0.5c0,0,0,0.1,0,0.2c0,0.1,0.1,0.2,0.1,0.2l0.1,0.2c0,0.1,0,0.1,0,0.1s0,0.1,0.1,0.2c0,0,0.4,1.5,0.4,2.2
			c0,0,0.1,0.4,0.2,0.6c0,0-0.1,0.1-0.1,0.3v0.3c0,0.1,0,0.1,0,0.2c0,0.1,0,0.2,0,0.2c0,0.2,0.1,0.8,0.1,0.8c0,0.1,0,0.2,0,0.3
			s0,0.3,0,0.4l0.1,0.4c0,0.1,0,0.3,0,0.3s0,0.2-0.1,0.3c0,0.1,0,0.2,0,0.2c-0.1,0.3,0.1,0.2-0.1,0.4l-0.3,0.4v0.1
			c-0.2,0.2-0.2,0.4-0.4,0.4h-0.3c-0.1,0-0.2-0.1-0.2-0.1l-0.2-0.3l-0.3-0.3c-0.1-0.1-0.2-0.2-0.2-0.3s-0.1-0.1-0.1-0.1l-0.1-0.2
			c-0.1-0.1-0.2-0.4-0.2-0.4c0-0.1-0.3-0.6-0.3-0.8c0,0,0-0.1,0-0.2c0-0.3,0.1-0.5,0-0.7c0-0.1,0-0.3,0-0.3c0-0.1-0.1-0.2-0.2-0.4
			c-0.1-0.4,0-0.8,0-1.1c0-0.1,0-0.3,0-0.3c0-0.1-0.1-0.5-0.1-0.5s0-0.1,0-0.2c0-0.1,0-0.5,0-0.5c0-0.1,0-0.1,0-0.2
			c0-0.3,0-0.5,0-0.8c0-0.2,0-0.4,0.1-0.6v-0.2v-0.1l0.1-0.2c0,0,0.1-0.1,0.1-0.2c0-0.1,0-0.2,0-0.3
			C162.6,74.5,162.5,73.8,162.9,73.6z"/>
		<path class="st0" d="M152.9,98.6c0-0.1-0.1-0.5-0.1-0.6s0-0.6,0-0.6v-0.3c-0.1-0.3-0.1-0.6,0-1c0-0.1,0.1-0.3,0-0.4l0.1-0.8
			c0.1-0.3,0.2-0.7,0.4-1l0.3-0.8c0-0.2,0.2-0.6,0.3-0.9c0-0.1,0.1-0.4,0.2-0.6l0.4-0.8l1-1.1l0.6-0.6c0.8-0.7,1.6-1.3,2.5-1.7
			l1.8-0.6c0,0,0.3-0.1,0.4-0.1c0.2-0.1,0.5-0.1,0.8-0.1c0.4,0,0.8,0,1.2,0c0.2-0.1,0.7-0.1,0.7-0.1c0.1,0,0.3,0,0.4,0l0.4,0.2
			l0.5,0.1c0.4,0.1,0.9,0.4,1.3,0.4l1,0.4c0,0,0.4,0.3,0.5,0.2l1.2,0.5l0.9,0.5c0,0,0.7,0.5,1,0.7c0.2,0.2,0.6,0.3,0.8,0.5
			c0.2,0.1,0.4,0.7,0.5,0.9l0.5,1.5c0,0.1,0.2,0.3,0.2,0.4l0.4,0.5c0,0.1,0.1,0.1,0.1,0.3c0.1,0.3,0.1,0.5,0.1,0.8
			c0.1,0.3,0.2,0.8,0.2,1.1s-0.1,0.6-0.1,0.9v0.3l0.1,0.3c0,0.1,0,0.2,0.1,0.5c0,0.1,0.1,0.3,0.2,0.6c0,0.2,0,1.5,0,1.5
			c-0.1,0.9-0.2,1.7-0.5,2.6c-0.3,0.6-1,1.4-1.2,1.9l-0.2,0.1l-0.4,0.5l-0.2,0.2l-1,0.9c-0.3,0.2-0.6,0.3-0.9,0.5l-0.6,0.4
			c0,0-0.1,0.1-0.7,0.3l-0.6,0.2c-0.2,0-0.3,0-0.5,0.1l-3.4,0.6c-0.1,0-0.3,0-0.3,0l-0.9-0.1c-0.4,0-2.2,0-2.6,0
			c-0.2-0.1-0.5-0.1-0.8-0.1l-1-0.3c-0.2-0.1-1.2-0.5-1.3-0.6s-0.8-0.6-0.9-0.7c0,0-0.1,0-0.2-0.1l-0.2-0.2
			c-0.2-0.2-0.5-0.3-0.6-0.6c-0.1-0.1-0.2-0.4-0.2-0.5s-0.1-0.2-0.2-0.5c-0.1-0.1-0.2-0.5-0.2-0.5l-0.8-1.3
			c-0.1-0.3-0.2-0.6-0.3-0.9l-0.1-0.4c-0.1-0.4-0.2-0.7-0.2-1C153.1,99.6,152.9,99,152.9,98.6z M158,96.5c0,0.1-0.3,0.5-0.3,0.6
			c-0.2,0.2-0.4,0.6-0.5,0.9c0,0.1-0.1,0.5-0.1,0.6l0.1,0.3c0,0.2,0.2,0.6,0.2,0.6l-0.1,0.8c0,0,0,0.5,0.1,0.6c0,0,0.1,0.3,0.2,0.5
			l0.1,0.5c0.1,0.1,0.3,0.7,0.4,0.7c0.1,0.2,0.7,1.1,0.8,1.3c0.3,0.3,0.6,0.7,1,0.8c0.3,0,1.4,0.4,1.6,0.5c0.1,0.1,0.7,0.2,0.8,0.3
			c0.1,0,0.3,0,0.3,0c0.2,0,1.3,0,1.6,0l0.9-0.1c0.3-0.1,0.6-0.1,0.9-0.2l1.5-0.5c0.1,0,0.5-0.2,0.5-0.2s0.3-0.2,0.4-0.3
			c0.2-0.1,0.7-0.4,0.7-0.5l1.4-1.4c0.2-0.2,0.4-0.4,0.5-0.7c0.1-0.1,0-0.3,0.2-0.4l0.1-0.4c-0.1-0.1,0-0.3,0.1-0.4l0.2-0.6
			c0-0.1,0.2-0.5,0.2-0.6c0,0,0-0.5-0.1-0.6c0-0.1-0.1-0.7-0.2-0.8c-0.1-0.4,0.1-0.9-0.1-1.4c0-0.1-0.1-0.2-0.1-0.2l-0.5-0.5
			c-0.2-0.2-0.5-0.5-0.9-0.7l-0.7-0.1l-0.8-0.4l-0.3-0.1c-0.7-0.2-1.5-0.3-2.1-0.4l-1.6,0.1h-0.2h-0.4c0,0-0.2,0-0.3,0
			c-0.7,0-1.4,0.1-2.1,0.4c-0.5,0.2-0.8,0.3-1.2,0.5c-0.2,0-1.1,0.6-1.4,0.7c-0.3,0.1-0.5,0.4-0.5,0.7
			C158.2,96.3,158.1,96.5,158,96.5z"/>
		<path class="st0" d="M152.5,117.4c0.1,0,0.5,0,0.6,0s0.1,0,0.4,0c0.2,0,0.3,0,0.5,0s0.3,0,0.5,0.1l0.6,0.1
			c0.6,0.1,1.1,0.2,1.6,0.4c0,0,0.2,0.1,0.3,0.1c0,0,0,0,0.4,0.1c0.1,0,0.7,0.2,0.8,0.2l0.9,0.2c0.4,0.1,0.7,0,1.1,0.1
			c0.1,0,0.5,0.1,0.6,0.1s0.1,0,0.6,0.1h0.2c0,0,0.3,0,0.4,0c0.2,0,0.4,0,0.6,0.1c0.2,0,0.5,0,0.8,0c0.1,0,0.6,0,0.7,0
			c0.1,0,0.6-0.2,0.7-0.2c0.4-0.3,0.5-0.3,0.5-0.3c0.2-0.1,0.3-0.2,0.4-0.4c0-0.1,0.1-0.4,0-0.6l-0.4-0.7c-0.1-0.1,0-0.3-0.3-0.5
			l-0.6-0.8c-0.1,0-0.4-0.4-0.5-0.5s-0.2-0.2-0.3-0.3l-0.7-0.5c-0.2-0.2-0.5-0.2-0.7-0.3c-0.1,0-0.3,0-0.5,0l-0.4-0.1
			c-0.1,0-1.1-0.1-1.2-0.2c-2.3-0.5-2.8-0.7-3.3-1c-0.6-0.4-1.2-0.8-1.8-1.2l-0.1-0.1c-0.1-0.1-0.3-0.2-0.5-0.3
			c-0.1,0-0.3-0.1-0.4-0.1c-0.2-0.1-0.5-0.3-0.5-0.5c0-0.1,0-0.2,0-0.2c0-0.1,0.1-0.1,0.1-0.3l0.9-0.2c0.1,0,0.3-0.1,0.4,0l1.6,0.2
			c0.1,0,0.6,0,0.7,0h0.3c0.1,0,0.4,0,0.4,0c0.1,0,0.9-0.1,1-0.1s0.6,0,0.7,0.1c0.1,0,0.9,0.2,1,0.1l0.4,0.1c0.1,0,1.1,0.2,1.3,0.2
			c0.4,0,0.6,0.1,1,0.2c0.8,0.2,1.6,0.4,2.4,0.7l1.3,0.5c0.2,0.1,0.4,0.1,0.6,0.2c0.2,0.1,0.5,0.2,0.6,0.4c0,0.1,0.1,0.2,0.1,0.4
			s-0.1,0.4-0.3,0.5c0,0.1-0.4,0.2-0.4,0.2l-0.6,0.3c-0.1,0.1-0.6,0.3-0.8,0.3l-0.9,0.3c-0.1,0-0.3,0.1-0.4,0.1
			c0.4,0.3,0.7,0.8,0.8,1c0.1,0.1,0.3,0.3,0.4,0.5c0.3,0.5,0.5,0.9,0.7,1.4c0,0.1,0.1,0.2,0.1,0.3l0.2,0.6c0,0.1,0,0.2,0,0.4
			s-0.2,0.4-0.3,0.7c-0.1,0.1-0.2,0.5-0.2,0.6l-0.1,0.1l-0.9,1.3c-0.1,0.1-0.2,0.4-0.5,0.5l-0.1,0.1c-0.1,0-0.3,0.3-0.3,0.4
			c-0.2,0.1-0.5,0.3-0.7,0.5c-0.1,0.1-0.5,0.4-0.6,0.4c0,0.1,0,0.1,0,0.2c0.2,0.2,0.4,0.5,0.7,0.8l0.2,0.4c0,0.1,0.2,0.3,0.2,0.4
			l0.3,0.4c0.3,0.6,0.8,1.1,1.2,1.6c0,0.1,0.1,0.3,0.1,0.4c0,0.1,0,0.3,0,0.5c0,0.1-0.1,0.4-0.2,0.5l-0.3,0.5
			c-0.1,0.1-0.1,0.3-0.2,0.4c-0.1,0.2-0.3,0.5-0.4,0.7l-0.7,0.7c-0.2,0.2-0.4,0.6-0.7,0.8c-0.2,0.2-1.3,0.9-1.5,1l-0.5,0.3l-0.5,0.2
			c-0.2,0.1-0.3,0.2-0.5,0.3l-0.7,0.2l-1.6,0.4c0,0-0.3,0.1-0.4,0.1c-0.4,0-0.8,0.1-1.2,0c-0.2-0.1-0.5-0.2-0.7-0.2s-0.5,0-0.7-0.1
			c-0.1,0-0.1,0-0.1,0s-0.5-0.3-0.7-0.3c-0.1,0-0.2-0.1-0.3-0.1c0,0-0.2-0.1-0.3-0.1c-0.2-0.1-0.5-0.4-0.7-0.5
			c-0.1-0.1-0.2-0.2-0.3-0.4c0,0-0.3-0.4-0.4-0.4c-0.5-0.6-0.7-1.3-0.9-2c0-0.2-0.1-0.5-0.2-0.7l-1.3-2c0-0.2-0.3-0.3-0.2-0.6v-0.1
			c0.2,0,0.3,0,0.6,0.1l0.4,0.1c0.2,0,0.4,0.1,0.7,0.1c0.2,0,0.4,0.1,0.5,0.2c0,0,0.2,0.1,0.3,0.1l2.5,0.6l0.6,0.2
			c0.3,0.2,0.6,0.2,0.9,0.3l0.6,0.1c0.2,0,0.4,0.1,0.7,0.2c0.3,0,0.6,0.1,0.8,0.1c1.7,0.2,1.7,0.2,1.7,0.2c0.2,0.1,0.9,0.1,0.9,0.1
			c0.1,0,0.4,0,0.4,0c0.2-0.1,0.5-0.1,0.6-0.1c0.2-0.1,0.3-0.2,0.6-0.3c0.2-0.2,0.5-0.3,0.5-0.6c0.1-0.2-0.1-0.5-0.2-0.8
			c-0.3-0.4-0.4-1.1-0.8-1.7l-0.6-0.7c-0.1-0.1-0.1-0.1-0.3-0.2H161c-0.3,0-0.5,0-0.9,0.1h-0.2l-0.4-0.1c-0.3,0-0.6,0.1-0.9,0.1
			h-0.2c-0.1,0-0.6-0.1-0.7-0.1c-0.1,0-0.3-0.1-0.4-0.2c-0.2-0.1-0.4-0.2-0.5-0.4l-0.7-0.4l-0.1-0.1c-0.4-0.4-0.6-0.7-0.9-1.2
			c-0.1,0-0.5-0.4-0.5-0.5c0,0-0.1,0-0.1-0.1l-0.4-0.3l-0.8-0.8c0,0-0.3-0.4-0.4-0.5l-0.1-0.1l-0.5-0.4l-0.4-0.4
			c-0.1,0-0.5-0.3-0.6-0.4c-0.1-0.2-0.4-0.4-0.4-0.7c0-0.2,0.2-0.3,0.4-0.3c0.1,0,0.3-0.1,0.4-0.1
			C152.2,117.4,152.4,117.4,152.5,117.4z"/>
		<path class="st0" d="M153.1,134.9c0.8,0.4,0.8,0.5,0.8,0.5c0.1,0,0.2,0.1,0.2,0.2c0.1,0.1,0.3,0.2,0.4,0.3l0.7,0.6
			c0.2,0.2,0.4,0.3,0.6,0.5l0.4,0.5c0.1,0,0.3,0.3,0.4,0.5c0.1,0.1,0.4,0.7,0.5,0.9l0.2,0.3c0.1,0.2,0.5,0.9,0.6,1
			c0.1,0.2,0.3,0.4,0.5,0.7l0.2,0.4c0,0.2,0,0.3,0,0.4c0.2,0.7,0.3,1.4,0.2,2.2c0,0.1-0.1,0.4,0,0.4c-0.1,0.4-0.2,0.7-0.2,1.1
			l-0.3,1.1c0,0.1,0,0.2-0.1,0.4c-0.1,0.4-0.3,0.7-0.5,1l-0.5,0.9c-0.1,0.3-0.4,0.6-0.7,0.9c-0.1,0.2-0.3,0.5-0.5,0.7l-0.6,0.5
			c-0.2,0-0.2,0.2-0.4,0.3c-0.4,0.2-0.7,0.5-1.1,0.6l-1.1,0.3c-0.2,0-0.7,0.1-0.9,0.1c-0.1,0-0.5-0.1-0.7-0.1
			c-0.2-0.1-0.7-0.3-0.8-0.3s-0.5-0.2-0.7-0.3c-0.3-0.2-0.7-0.5-1-0.7l-0.1-0.1c0,0-0.2-0.2-0.3-0.2l-0.1-0.2l-0.1-0.4
			c-0.1,0-0.2-0.4-0.3-0.5s0-0.3,0-0.5c0-0.1,0.1-0.3,0.1-0.4l-0.1-0.4c0-0.1,0-0.2,0-0.3c0-0.2-0.1-0.4-0.1-0.5s0.1-0.7,0.1-0.8
			v-0.2c0-0.3,0-0.5,0.1-0.8c0-0.1,0-0.5,0-0.6c0.1-0.2,0.1-0.4,0.2-0.8c0.1-0.3,0.2-0.6,0.4-0.9c0.2-0.6,0.5-1,0.9-1.6
			c0,0-0.1-0.1-0.2-0.1c-0.1,0-0.2-0.1-0.4-0.2c-0.1,0-0.1,0-0.2,0c-0.2,0-0.4-0.1-0.7-0.2l-1.4-0.2c-0.4-0.1-0.8,0-1.2,0.1
			l-0.1,0.1c-0.2,0.1-0.5-0.1-1.2,0.5c-0.1,0-0.9,0.8-1.1,1.2c-0.2,0.3-0.5,0.7-0.6,1c-0.1,0.2-0.2,0.4-0.2,0.6c0,0.1,0,0.2,0,0.2
			s-0.1,0.4,0,0.5c0,0.1,0,0.2,0,0.3l0.2,0.5c0.2,0.4,0.4,0.8,0.6,1.2c0.1,0.1,0.2,0.1,0.3,0.3c0.1,0.1,0.2,0.2,0.2,0.3
			s0.2,0.1,0.2,0.1c0.2,0.1,0.5,0,0.5,0c0.2,0.1,0.2-0.1,0.4-0.3s0.5-0.2,0.7-0.1c0.1,0,0.3,0.1,0.3,0.2c0.1,0.3,0.3,0.6,0.2,0.9
			c0,0.1-0.1,0.4-0.1,0.5v0.2v0.2l-0.3,0.5c-0.2,0.3-0.6,0.6-1,0.6l-0.2,0.1c-0.1,0-0.2,0.1-0.4,0l-0.3-0.1
			c-0.5-0.1-0.7-0.4-1.1-0.8l-0.3-0.2c0-0.1-0.3-0.2-0.3-0.3c-0.4-0.5-0.6-1-0.8-1.5c0-0.1-0.1-0.2-0.1-0.4l-0.1-0.4v-0.2l-0.1-1.4
			c0-0.4,0.1-0.8,0.1-1.2c0.1-1.1,0.2-1.4,0.2-1.5s0,0,0.1-0.3c0.1-0.2,0.2-0.6,0.3-0.7l0.4-0.9c0-0.1,0.5-1.2,0.5-1.4
			c0,0,0.2-0.4,0.3-0.5c0.4-0.7,0.8-1.3,1.4-1.8c0.2-0.2,0.5-0.5,0.8-0.6l1.9-1c0.1,0,0.3-0.1,0.4-0.1c0.3-0.2,0.7-0.3,1.1-0.4
			c0.3-0.1,0.7-0.2,1-0.2c0.1,0,0.3,0,0.5,0c0.1,0,0.3,0,0.3,0l2.1,0.3L153.1,134.9z M151.2,142.3c0,0-0.3,0.4-0.3,0.5
			c-0.1,0.1-0.2,0.2-0.3,0.3c-0.1,0.2-0.2,0.5-0.3,0.8s-0.2,0.6-0.3,1.1c0,0.3-0.1,0.6-0.1,0.8l-0.1,1c-0.1,0.2,0.1,0.4,0,0.6
			c0,0.2,0,0.3,0,0.5l0.2,1.8c0,0.1,0.2,0.2,0.3,0.2s0.3,0.2,0.3,0.2h0.2c0.4,0,0.8,0.1,1.1,0c0,0,0.2,0,0.2-0.1
			c0.5-0.1,0.9-0.1,1.4-0.3c0.3-0.2,0.6-0.3,0.8-0.6c0-0.1,0.2-0.2,0.3-0.4c0.1-0.5,0.2-0.9,0.3-1.3c0-0.1,0-0.2,0-0.3v-0.7
			c0-0.1,0-0.3-0.1-0.4l-0.3-0.6c-0.5-0.8-1-1.4-1.7-2l-0.8-0.7c-0.2-0.2-0.3-0.5-0.7-0.6C151.3,142.2,151.2,142.2,151.2,142.3z"/>
		<path class="st0" d="M142.8,151.7l0.4,0.3c0.1,0.1,0.3,0.2,0.5,0.3c0.7,0.6,0.8,0.6,0.8,0.6l1.2,0.9l0.3,0.3
			c0.1,0.1,0,0.1,0.1,0.2l0.7,0.6c0.3-0.2,0.5-0.4,0.7-0.7l0.5-0.7c0.1-0.1,0.3-0.2,0.5-0.2c0,0,0.1,0,0.2,0.1
			c0.1,0.1,0.1,0.1,0.2,0.3c0.1,0.1,0.2,0.3,0.1,0.5l-0.1,0.1c-0.2,0.2-0.1,0.2-0.5,0.7l-0.2,0.3l-0.5,0.6c0,0,0.5,0.6,0.6,0.8
			c0,0,0.1,0.1,0.1,0.2c0,0,0.4,0.4,0.5,0.4c0.2,0.2,0.4,0.5,0.4,0.7c0,0.1,0.1,0.1,0.2,0.2c0.1,0.2,0.3,0.3,0.4,0.6
			c0.1,0.1,0.4,0.5,0.4,0.6l0.1,0.3l0.3,0.4c0.1,0.1,0.2,0.2,0.3,0.2c0.2,0.2,0.3,0.6,0.3,0.8c0,0.1,0,0.1,0,0.2c0,0-0.1,0-0.1,0.1
			l-0.1,0.1c-0.1,0.1-0.2,0.1-0.3,0.2l-1,0.1h-0.3c-0.2,0.1-0.3,0-0.5,0s-1.1-0.2-1.2-0.2c-0.1,0-0.3-0.1-0.4-0.1
			c0,0-0.5-0.3-0.6-0.3c-0.2-0.1-0.4-0.2-0.6-0.2c0,0.1-0.3-0.1-0.3-0.1l-0.2-0.1c0,0-0.5-0.3-0.6-0.3l-0.6-0.4c0,0-0.4,0.6-0.7,1
			c-0.1,0.2-0.3,0.3-0.3,0.4c0,0-0.4,0.4-0.4,0.5c-0.2,0.2-0.5,0.5-0.8,0.5c0,0-0.2,0-0.3,0s-0.2-0.1-0.3-0.1l-0.1-0.1v-0.1
			c0-0.2,0.1-0.5,0.2-0.6l0.1-0.1c0,0,0.3-0.2,0.3-0.3l0.2-0.3c0-0.1,0.4-0.7,0.5-0.9c0-0.1,0.1-0.2,0.2-0.3
			c0.1-0.1,0.2-0.3,0.3-0.3l0.1-0.1c-0.1,0-0.3-0.3-0.3-0.3c-0.2-0.2-0.2-0.3-0.5-0.5c-0.2-0.1-0.3-0.3-0.4-0.3
			c-0.2-0.2-0.3-0.4-0.5-0.6c-0.1,0-0.1-0.1-0.2-0.1c0,0-0.1,0-0.1-0.1s-0.2-0.3-0.2-0.4l-0.1-0.2l-0.3-0.5l-0.2-0.2
			c-0.1-0.1-0.6-0.3-0.7-0.4l-0.3-0.2l-1.4-1.2c-0.3,0-0.4-0.2-0.7-0.2h-0.3c-0.1,0-0.4,0.1-0.5,0.2c-0.1,0-0.2,0.1-0.3,0.2
			l-0.1,0.1c-0.1,0.1-0.2,0.2-0.2,0.2s-0.1,0.3-0.1,0.4v0.1c0,0.2,0.1,0.5,0.1,0.7c0.1,0.2,0.4,0.7,0.5,0.8s0.2,0.3,0.2,0.3
			c0.1,0,0.3,0.1,0.3,0.1l0.1-0.1c0.2-0.2,0.4-0.4,0.7-0.2h0.1c0.1,0.1,0.2,0.2,0.2,0.4s-0.2,0.5-0.3,0.6s-0.2,0.1-0.3,0.1l-0.5,0.2
			c-0.1,0.1-0.3,0.1-0.4,0c-0.2,0-0.4-0.1-0.6-0.3c-0.3-0.2-0.5-0.5-0.8-0.7c-0.1-0.2-0.4-0.4-0.4-0.6l-0.1-0.5
			c-0.1-0.1-0.1-0.3-0.2-0.4c-0.1-0.3-0.1-0.6-0.1-0.9c0-0.1,0.1-0.3,0.1-0.4c0.1-0.2,0.1-0.6,0.2-0.7c0.1-0.1,0.1-0.2,0.1-0.3v-0.1
			c0.1-0.1,0.4-0.5,0.4-0.6s0.2-0.4,0.2-0.4l0.1-0.2c0.3-0.3,0.6-0.6,0.9-0.8l0.2-0.1l0.7-0.3l0.3-0.1l0.3-0.1
			c0.2-0.1,0.4-0.2,0.7-0.2c0.1,0,0.8,0,0.9,0h0.2l0.7,0.1c0,0,0.1,0,1.6,0.7C142.6,151.6,142.8,151.7,142.8,151.7z"/>
		<path class="st0" d="M138.2,160.9c0.5,0.5,0.5,0.5,0.5,0.5s0.1,0.1,0.1,0.2c0,0.1,0.2,0.2,0.2,0.3l0.4,0.6
			c0.1,0.2,0.3,0.3,0.3,0.5l0.2,0.5c0.1,0.1,0.1,0.3,0.2,0.4c0,0.1,0.1,0.6,0.2,0.7l0.1,0.3c0,0.2,0.2,0.7,0.2,0.9
			c0.1,0.2,0.2,0.4,0.2,0.6v0.3c0,0.1-0.1,0.2-0.1,0.3c0,0.6-0.1,1.1-0.3,1.7l-0.1,0.3c-0.1,0.3-0.3,0.5-0.4,0.8l-0.5,0.8
			c0,0.1,0,0.1-0.1,0.3c-0.2,0.3-0.3,0.4-0.6,0.7l-0.6,0.6c-0.2,0.2-0.4,0.4-0.7,0.5c-0.1,0.1-0.3,0.3-0.5,0.4l-0.5,0.2
			c-0.1,0-0.2,0.1-0.4,0.2c-0.3,0.1-0.6,0.2-0.9,0.2h-0.9c-0.1,0-0.5,0-0.7-0.1c-0.1,0-0.4-0.2-0.5-0.2c-0.1-0.1-0.5-0.3-0.5-0.4
			c0,0-0.3-0.3-0.5-0.4c-0.2-0.2-0.4-0.5-0.6-0.7v-0.1c0,0-0.1-0.2-0.2-0.2c0,0,0-0.1,0-0.2v-0.3l-0.1-0.4c0-0.1,0-0.2,0.1-0.4
			c0,0,0.1-0.2,0.2-0.3v-0.3c0-0.1,0-0.1,0-0.2c0-0.1,0-0.3,0.1-0.4c0-0.1,0.2-0.5,0.2-0.6c0,0,0.1-0.1,0.1-0.2
			c0-0.2,0.1-0.4,0.2-0.6c0-0.1,0.1-0.4,0.2-0.5c0.1-0.1,0.1-0.3,0.3-0.6c0.1-0.2,0.3-0.4,0.4-0.6c0.2-0.4,0.6-0.7,1-1l-0.1-0.1
			c-0.1-0.1-0.1-0.1-0.3-0.2c-0.1,0-0.1,0-0.2-0.1c-0.1-0.1-0.2-0.2-0.4-0.3l-1-0.4c-0.3-0.1-0.6-0.2-0.9-0.2h-0.1
			c-0.1,0-0.3-0.2-1,0.2c-0.1,0-0.8,0.5-1.1,0.7c-0.2,0.2-0.5,0.4-0.7,0.7c-0.1,0.2-0.2,0.3-0.3,0.4l-0.1,0.1l-0.1,0.3v0.2v0.4
			c0,0.3,0.2,0.7,0.2,1c0.1,0.1,0.1,0.1,0.2,0.3c0,0.1,0.1,0.2,0.1,0.3s0.1,0.1,0.1,0.1c0.1,0.1,0.3,0.1,0.3,0.1
			c0.1,0.1,0.2-0.1,0.3-0.1c0.2-0.1,0.4-0.1,0.5,0c0.1,0,0.2,0.1,0.2,0.2c0.1,0.2,0.1,0.5,0,0.8c0,0-0.1,0.3-0.2,0.3v0.1l-0.1,0.1
			l-0.3,0.3c-0.2,0.2-0.6,0.4-0.9,0.2h-0.2c-0.1,0-0.2,0-0.3,0l-0.2-0.1c-0.3-0.2-0.5-0.5-0.7-0.8l-0.2-0.2c0-0.1-0.1-0.2-0.2-0.3
			c-0.2-0.4-0.2-0.9-0.3-1.3c0.1-0.1,0-0.2,0-0.3V167v-0.1l0.2-1.1c0-0.3,0.2-0.6,0.3-0.9c0.3-0.8,0.4-1,0.4-1.1s0,0,0.1-0.2
			c0.1-0.1,0.3-0.4,0.4-0.5l0.5-0.6c0.1-0.1,0.6-0.8,0.7-0.9c0,0,0.2-0.3,0.3-0.3c0.4-0.4,0.9-0.8,1.4-1.1c0.2-0.1,0.5-0.2,0.7-0.3
			l1.6-0.4c0.1,0,0.2,0,0.3,0c0.3-0.1,0.6-0.1,0.9-0.1c0.3,0,0.5,0,0.8,0c0.1,0.1,0.2,0.1,0.4,0.1h0.2l1.5,0.6L138.2,160.9z
			 M135.3,166l-0.3,0.3c-0.1,0.1-0.2,0.1-0.3,0.2c-0.1,0.1-0.2,0.3-0.4,0.5c-0.1,0.2-0.2,0.4-0.4,0.8c-0.1,0.2-0.2,0.4-0.3,0.6
			l-0.2,0.7c-0.1,0.1,0,0.3-0.1,0.4c0,0.1-0.1,0.2-0.1,0.4l-0.2,1.4c0,0.1,0.1,0.2,0.2,0.2c0.1,0,0.2,0.2,0.2,0.2l0.1,0.1
			c0.3,0.1,0.6,0.2,0.8,0.2h0.1c0.4,0,0.7,0.1,1.1,0c0.2-0.1,0.5-0.1,0.7-0.3c0.1-0.1,0.2-0.1,0.3-0.2c0.2-0.3,0.3-0.6,0.5-0.9
			c0.1-0.1,0-0.2,0-0.2l0.1-0.5c0-0.1,0-0.3,0-0.3l-0.1-0.5c-0.2-0.7-0.5-1.3-0.9-1.8l-0.5-0.6C135.5,166.5,135.5,166.3,135.3,166
			C135.4,166,135.3,166,135.3,166z"/>
		<path class="st0" d="M122.9,169l0.3,0.2c0,0,0.1,0,0.2,0.1c0.1,0.1,0.2,0.1,0.3,0.2c0,0,0.3,0.1,0.4,0.1c0,0,0.2,0.1,0.2,0.2
			c0.1,0,0.4,0.3,0.6,0.4c0.1,0.1,0.3,0.3,0.4,0.3l1.4,0.9c0.1,0.1,0.3,0.3,0.5,0.4c0.1,0.1,0.4,0.5,0.4,0.5l0.5,0.8
			c0.2,0.2,0.3,0.4,0.5,0.7l0.3,0.3c0,0.1,0.2,0.3,0.2,0.3l0.6,0.9c0.1,0.1,0.3,0.5,0.3,0.5l0.3,0.3c0.2,0.3,0.3,0.6,0.5,0.9
			c0.2,0.3,0.4,0.6,0.3,1c-0.1,0.1-0.1,0.2-0.2,0.3c-0.1,0.1-0.1,0.1-0.2,0.1c-0.2,0.1-0.4,0-0.6-0.1l-0.3-0.1
			c-0.2-0.1-0.6-0.2-0.6-0.2s0,0.2-0.1,0.2v0.2l-0.1,0.7c0,0.1-0.1,0.3-0.1,0.3c0,0.1-0.1,0.3-0.2,0.4c0,0-0.1,0.1-0.1,0.2
			c0,0.1-0.2,0.3-0.2,0.3l-0.1,0.2l-0.2,0.2c-0.1,0.1-0.3,0.2-0.4,0.3l-0.3,0.3c-0.1,0.1-0.3,0.1-0.5,0.1h-0.1c-0.2,0-0.4,0-0.6,0
			c-0.1,0-0.1-0.1-0.2-0.1c-0.1,0-0.3-0.1-0.3-0.2c-0.1-0.1-0.3-0.2-0.2-0.4c0-0.3,0-0.4,0.3-0.7c0.2-0.3,0.4-0.3,0.7-0.2
			c0,0,0.1,0,0.2,0c0.1,0,0.2,0,0.3,0c0,0,0.2-0.1,0.3-0.2c0.1-0.2,0.2-0.4,0.3-0.6v-0.4c-0.1-0.2,0-0.2,0-0.4c0-0.1,0-0.2,0-0.3
			v-0.4c0-0.1,0-0.2,0-0.2c0-0.1-0.1-0.2-0.1-0.3c-0.1-0.1-0.1-0.1-0.2-0.1l-0.5-0.4l-0.5-0.2l-0.7-0.4c-0.1,0-0.4-0.3-0.5-0.4
			l-0.9-0.8c-0.3-0.3-0.6-0.7-0.9-1c0,0-0.1-0.1-0.1-0.2c0-0.2-0.1-0.4-0.2-0.7l-0.1-0.2c-0.1-0.1-0.1-0.3-0.2-0.4
			c0-0.4,0-0.6,0-0.9c0-0.1-0.1-0.2,0-0.7c0-0.1-0.1-0.3-0.1-0.5s-0.2-0.3-0.2-0.5v-0.3c0-0.1,0-0.1,0-0.2c0-0.1,0.1-0.1,0.1-0.2
			c0,0,0.2-0.1,0.3-0.1L122.9,169z"/>
	</g>
</g>
</svg>
