<?xml version="1.0" encoding="utf-8"?>
<!-- Generator: Adobe Illustrator 19.2.1, SVG Export Plug-In . SVG Version: 6.00 Build 0)  -->
<svg version="1.1" id="Layer_1" xmlns="http://www.w3.org/2000/svg" xmlns:xlink="http://www.w3.org/1999/xlink" x="0px" y="0px"
	 width="171.8px" height="224.3px" viewBox="0 0 171.8 224.3" style="enable-background:new 0 0 171.8 224.3;" xml:space="preserve"
	>
<style type="text/css">
	.st0{fill:#5A642D;}
	.st1{fill:#96C31E;}
	.st2{fill:#FAA500;}
	.st3{fill:#CE0A24;}
	.st4{fill:#46230F;}
	.st5{fill:#F7F5E9;}
</style>
<g>
	<g>
		<path class="st0" d="M50.2,192.5l-20,2.1c-2.3,4.5-5,8.8-8,12.9c-0.1,0.1-5.4,7.7,1,14.1c1.8,1.8,4.4,2.7,8,2.7
			c5.2,0,12.7-2.3,14.9-3.5l0,0c5.9-2,15.5-6.1,27.8-14.4c5.2-3.5,9.5-6.8,13-9.8c0.5-0.4,0.9-0.8,1.4-1.3L50.2,192.5z"/>
		<path class="st1" d="M66.8,155L42,157.5c-1.8,10.9-4.8,21.8-9.3,31.9l17.5,3h-0.3l38.2,2.9c0.2-0.2,0.4-0.3,0.6-0.5
			c1.9-1.6,3.6-3.2,4.8-4.4c6-5.7,7.7-8,12-13.6l0.1-0.2c0.7-1,1.6-2.2,2.4-3.3c1.3-1.7,2.5-3.3,3-4.3c3.1-4.5,5.1-8,7.2-11.9
			L66.8,155z"/>
		<path class="st2" d="M134,113.7l-61-0.1h0.3L44,117c0.6,10.5,0.4,22.1-1.1,33.8l24,4.1l0,0l51.3,2.3c1.4-2.7,2.8-5.6,4.4-9.2
			l4.8-12.4C130.3,128.9,132.5,119.9,134,113.7z"/>
		<path class="st3" d="M137.1,74.6l-76.3-3.2l-21.6,1.1c0,4.6,2.8,30.4,4.3,38.6l28.8,2.4l61.6,0.2c1-4.4,1.6-7.5,1.6-7.6
			C137.5,94.4,138,83.9,137.1,74.6z"/>
		<path class="st4" d="M136.3,68.1V68v-0.1c-1.5-8-4.2-15-8.1-20.8c-5.2-6.7-11.4-11.9-18.4-15.5c-1.7-1.2-3.3-2.3-4.7-3.4
			c-2.8-2.2-4.2-4.6-4.2-7.3v-0.1l0,0c0-0.6,0.1-1.2,0.2-1.8c0-0.1,0.1-0.2,0.1-0.4v-0.2c0.6-3.2,2.3-9.2,7.2-13.1l0.1-0.1l0.1-0.1
			c0.4-0.5,0.5-1,0.3-1.5c-0.1-0.4-0.4-0.7-0.8-0.8L102,0.1c-0.3-0.1-0.7-0.2-1-0.1h-0.1C96.6,1.1,93,3.8,90.4,7.9
			c-2.2,3.4-3.9,7.5-5.1,12.3l0,0c-0.9,2.2-2.8,3.9-5.8,5.1c-1.1,0.5-2.4,0.9-4,1.4h-0.1c-0.7,0.1-1.4,0.3-2.1,0.4
			c-1.7,0.3-7.7,2.3-8.4,2.5l-0.2,0.1L3.6,26L2.5,39.3l9.7,7.2l-10.9,7L0,68.6l60.3,2.6l0.4,0.1l76.4,3.3
			C136.9,72.4,136.7,70.2,136.3,68.1z"/>
	</g>
</g>
<g>
	<path class="st4" d="M125.8,28.7l0.6-1.5c0.1-0.4,0.4-0.9,0.6-1.2c0.3-0.3,0.5-0.7,0.7-1.1l0.7-1.2c0.1-0.1,0.2-0.3,0.3-0.4
		c0.1-0.3,0.4-0.9,0.4-0.9c0.1-0.1,0.3-0.5,0.3-0.6s0.1-0.4,0.2-0.4c0.2-0.2,0.3-0.5,0.5-0.8s0.4-0.5,0.7-0.8
		c0.1-0.2,0.2-0.3,0.4-0.4l1.2-1.3c0-0.1,0.5-0.4,0.5-0.4c0-0.1,0.4-0.4,0.4-0.4c0.1,0,0.4-0.2,0.5-0.3c0.3-0.3,1.8-1.7,2.2-2
		c0.5-0.4,1-0.7,1.6-1.2c0.4-0.3,0.8-0.6,1.3-0.9c0.1-0.1,0.7-0.5,0.7-0.5c0.4-0.5,1-0.9,1.6-1.3c0.1-0.1,0.5-0.3,0.6-0.3
		c0-0.1,0.4-0.3,0.5-0.4c0.3-0.1,0.7-0.1,1,0c0.2,0.2,0.2,1.2,0.3,1.5l0.2,0.1c0.3,0.1,0.5,0.2,0.8,0.4c0.3,0.1,0.6,0.2,0.8,0.4
		c0,0,0.3,0.2,0.4,0.2c0.3,0.3,0.6,0.5,0.9,0.8c0.3,0.3,0.6,0.6,0.9,0.9c0.6,0.8,1.1,1.6,1.5,2.6l0.3,0.6c0.3,0.8,0.7,1.6,0.8,2.5
		c0,0.5,0.1,1.1,0.1,1.6l-0.1,1.6v0.6c0,0.6-0.6,1-0.9,1.5c0,0-0.2,0.4-0.2,0.5c-0.1,0.1-0.3,0.3-0.3,0.4c-0.3,0.4-0.7,0.8-1.2,1
		c-0.6,0.3-1.2,0.5-1.9,0.8c-0.4,0.1-0.8,0.4-1.1,0.5c-0.1,0.1-0.7,0-0.8-0.1c-0.6,0.1-1.2,0-1.8,0l-1.2-0.2
		c-0.3-0.1-0.6-0.2-0.9-0.3c-0.6-0.3-1.2-0.7-1.7-1.1c-0.1-0.1-0.3-0.4-0.3-0.4c-0.1,0-0.3-0.4-0.4-0.5l-0.5-0.9
		c-0.1,0-0.5-0.7-0.6-0.6c-0.4,0.4-0.6,0.9-1,1.2c-0.7,0.4-1.1,1-1.8,1.3c-0.2,0.2-0.4,0.2-0.7,0.5l-0.5,0.3c-0.1,0-0.3,0.2-0.4,0.3
		l-0.2,0.2c-0.3,0.3-0.7,0.7-1.2,0.9l-0.4,0.1l-0.7,0.5c0,0-0.5,0.2-0.6,0.3c-0.5,0.2-1,0.5-1.6,0.7c-0.1,0-0.5,0.1-0.6,0.2
		c-0.2,0-0.5,0.3-0.7,0.5c-0.2-0.1-0.4,0-0.6,0c-0.1,0-0.3-0.1-0.4-0.2c-0.1-0.1-0.1-0.3-0.1-0.4l0.6-1.8
		C125.7,29.2,125.7,28.9,125.8,28.7z M138.4,23.2c0.2,0.2,0.4,0.6,0.6,0.8l0.3,0.2c0.2,0.1,0.3,0.3,0.6,0.4c0.1,0.1,0.6,0.1,0.8,0.1
		c0.2,0.1,0.4,0.2,0.6,0.2c0.2,0.1,1.4,0.2,1.5,0.1l0.4-0.1c0.4,0,0.7-0.3,1.1-0.5c0.4-0.2,0.7-0.4,1-0.6l0.6-0.7
		c0.4-0.4,0.6-0.7,0.9-1.2l0.2-0.7c0.1-0.3,0.2-0.4,0.2-0.6c0-0.1,0-0.2,0-0.3c0.2-0.2-0.1-0.7,0-0.8c0-0.6-0.2-1.2-0.4-1.8
		c-0.2-0.2-0.3-0.6-0.5-0.8c0-0.1-0.1-0.3-0.3-0.5l-0.2-0.2l-0.9-0.8c-0.1-0.1-0.4-0.2-0.4-0.2c-0.1,0-0.4-0.3-0.5-0.3
		s-0.3-0.2-0.4-0.1c-0.3,0.3-0.5,0.7-0.7,1c0,0.1-0.2,0.3-0.3,0.5l-0.4,0.8c0,0.1-0.3,0.4-0.4,0.6c0,0.1-0.6,0.9-0.8,1.1
		c-0.1,0.1-0.2,0.3-0.3,0.5c-0.3,0.5-0.7,1-1.1,1.6c-0.1,0.1-0.4,0.5-0.4,0.6c-0.3,0.3-0.7,0.6-1,1C138,22.8,138.2,23,138.4,23.2z"
		/>
	<path class="st4" d="M137.2,46.2c-0.3-0.5-1.2-1.3-1.2-1.5l-0.5-1c0-0.2-0.5-1.1-0.7-1.4l-0.4-0.8l-0.7-1.3
		c-0.1-0.2-0.2-0.3-0.3-0.6c0-0.1,0.1-0.5,0.1-0.6c0.1-0.1,0.3-0.4,0.4-0.5c0.1-0.1,0.4-0.3,1.1-0.7c0.2-0.1,1.3-0.9,1.5-1.1
		c0.3-0.2,2.5-2,2.8-2.3c0.1,0,0.3-0.2,0.4-0.3l0.9-0.5c1.2-0.7,2.4-1.3,3.6-2l1-0.6c0.2-0.2,0.4-0.3,0.6-0.4
		c0.4-0.2,0.6-0.3,0.8-0.4c0.4-0.2,0.9-0.3,1.3-0.6c0,0,0.2,0,0.5-0.2l2.4-1c0.1-0.1,0.5-0.2,0.6-0.2c0.2-0.1,0.3-0.2,0.5-0.3
		c0.5-0.3,0.9-0.2,1.3-0.4l0.6-0.1l1-0.2h0.7c0.3,0,0.4,0.1,0.8,0c0.2,0,0.4,0.2,0.6,0.3c0.1,0.1,0.2,0.2,0.2,0.3l0.9,1.3l0.2,0.4
		l0.7,1.9c0,0.1,0.2,0.4,0.3,0.6c0.4,0.5,0.6,1.1,1,1.6c0,0,0.2,0.4,0.2,0.5c0.2,0.2,0.1,0.5,0.2,0.8c0.1,0.1,0.2,0.6,0.3,0.7
		c0.4,0.8,0.8,2,1.3,2.8c0.1,0.2,0.4,0.5,0.6,0.8c0,0.1,0.1,0.3,0.1,0.4v0.9c0,0.1-0.1,0.4-0.1,0.4l-0.1,0.1c-0.1,0-0.3,0.1-0.9,0
		c-0.4-0.1-0.7-0.5-0.9-0.9c0,0-0.2-0.3-0.3-0.3c-0.4-0.4-0.5-0.8-1-1.1c-0.3-0.6-0.6-1.1-1.2-1.7c-0.4-0.5-1-1.5-1.1-1.6l-0.6-1.4
		l-0.6-0.2l-0.5,0.4c-0.1,0.1-0.1,0.2-0.4,0.3c0,0.1-0.5,0.5-0.5,0.6c-0.1,0.1-0.2,0.2-0.3,0.2c0,0-0.2,0.1-0.3,0.1l-1.9,1.1
		c-0.1,0.1-0.4,0.1-0.4,0.1c-0.2,0.1-0.2,0.3-1.2,0.9c-0.1,0.1-0.6,0.3-0.7,0.3c0.1,0.4,0.3,0.8,0.4,1.2c0.2,0.3,0.3,0.9,0.4,1.4
		l0.3,1c0.1,0.2,0.2,0.4,0.3,0.6s0.3,0.4,0.5,0.5c0.1,0.1,0.3,0.4,0.3,0.5l0.5,0.9c0.1,0.1,0.2,0.4,0.3,0.5c0.1,0.2,0,0.6,0,0.9
		c-0.2,0.1,0,0.3-0.4,0.6c-0.1,0-0.1,0-0.2,0.1c-0.3,0-1-0.4-1.1-0.5l-0.3-0.6c0,0-0.2-0.1-0.2-0.2c0,0-0.3-0.5-0.4-0.5
		c-0.1-0.1-0.7-0.8-0.8-0.9l-0.4-0.4c-0.1-0.2-0.3-0.5-0.5-0.7l-1.1-2c0,0-0.1-0.2-0.2-0.2c-0.1-0.1-0.4-0.6-0.7-0.4
		c-0.6,0.4-2.2,1.4-2.3,1.5c-0.1,0-0.5,0.4-0.5,0.4c-0.7,0.4-0.9,0.5-0.9,0.5c-0.2,0-0.4,0.1-0.6,0c-0.3,0.2-1.7,0.8-2,1l-0.4,0.2
		c-0.1,0.1-0.3,0.1-0.5,0.2c0.2,0.5,0.1,1,0.3,1.5l0.9,2.2c0.1,0.2,0.2,0.4,0.2,0.5c0.1,0.2,0,0.3,0.2,0.4c0.3,0.4,0.4,1,0.7,1.2
		c0,0.1,0.3,0.4,0.4,0.5c0.1,0.2,0.3,0.5,0.6,0.7l0.3,0.8c0.1,0.1,0.2,0.2,0.3,0.4c0.2,0.5-0.1,0.5-0.5,0.7
		c-0.4,0.1-0.5,0.1-0.9,0.1c0,0-0.2,0-0.4,0c-0.6-0.3-0.7-0.4-0.7-0.4c-0.2-0.1-0.5-0.6-0.6-0.8l-0.2-0.4c-0.1-0.1-0.2-0.3-0.3-0.6
		l-0.5-1.1c-0.1-0.2-0.4-0.4-0.6-0.6c-0.1-0.1-0.5-0.7-0.6-0.9c-0.1-0.1-0.2-0.6-0.3-0.7L137.2,46.2z"/>
	<path class="st4" d="M149.7,64.5c0,0,0.1-0.2,0-0.2c0-0.1,0.1-0.9,0.1-1c0.1-0.3,0.3-0.6,0.4-0.9c0,0,0.1-0.3,0.1-0.4
		s0.1-0.6,0.1-0.6s0-0.1,0.1-0.1c0.1-0.3,0.3-0.6,0.4-0.9l0.2-0.8c0.1-0.2,0.2-0.3,0.3-0.5l0.3-0.4c0.5-0.6,0.9-1.9,1.3-2.6l-3,0.7
		c0,0-0.2,0-0.3,0s-0.1,0-0.3,0h-0.6c-0.1,0-0.3-0.1-0.5,0h-0.1h-0.3L147,57c-0.2,0.1-0.5,0.1-0.5,0.1c-0.3,0.1-0.7,0.3-1.1,0.3
		c-0.2,0-0.4,0-0.7,0c0,0-0.4,0.1-0.4,0.2c-0.2,0.1-0.6,0-0.8,0c-0.1,0-0.6,0.1-0.6,0.1c-0.2-0.1-0.3-0.1-0.5-0.3l0.2-0.5
		c0.1-0.2,0.3-0.3,0.3-0.4l0.9-0.9l0.2-0.1c0.3-0.1,0.4-0.3,0.5-0.6c0.1,0,0.3-0.3,0.3-0.3c0.1-0.1,0.3-0.3,0.5-0.5
		c0,0,0-0.1,0.1-0.1s0.3-0.2,0.4-0.3l0.2-0.2c0,0,0.1-0.2,0.4-0.3c0.3-0.2,0.4-0.4,0.7-0.6c0.4-0.5,0.9-0.9,1.4-1.3
		c0.1-0.1,1.2-0.7,1.4-0.8c0,0,0.3-0.3,0.4-0.3c0.1,0,0.9-0.5,1-0.5l1.7-1.2c0,0,0.4-0.2,0.6-0.3l0.8-0.4c0.1-0.1,0.4-0.1,0.5-0.2
		l0.3-0.2c0,0,0.3-0.1,0.3-0.2l0.3-0.2c0.1,0,0.9-0.3,1-0.3l0.5-0.2c0.1,0,0.6-0.2,0.6-0.3c0,0,0.3,0,0.4,0c0,0,0.1-0.1,0.2-0.1
		c0.2-0.1,0.5-0.1,0.7-0.2h0.2c0.2-0.1,0.4,0,0.5-0.1l0.5-0.2l0.2-0.1c0.2,0.1,0.4,0,0.6,0c0.7-0.2,1.4-0.2,2.1-0.2
		c0.2,0,0.4-0.1,0.7-0.1c0,0,0.3,0.1,0.4,0.1c0.2-0.1,0.6-0.2,0.6-0.2h0.2c0.1,0,0.4,0.1,0.4,0.2c0.1,0.3,0.1,0.5,0.3,0.9
		c0.1,0,0.4,0.4,0.4,0.5c0.1,0.1,0.3,0.4,0.4,0.4l0.2,0.4c0,0,0.3,0.4,0.4,0.4c0.2,0.4,0.5,0.7,0.8,1.2c0.1,0.2,0.2,0.2,0.2,0.3
		c0.1,0.2,0.2,0.3,0.4,0.8c0,0.1,0.2,0.3,0.2,0.3c0.1,0.2,0.2,0.4,0.5,1c0.1,0.2,0.2,0.4,0.2,0.9c0.2,0.5,0.3,1.1,0.2,1.7v0.1
		c-0.1,0.1,0,0.3-0.1,0.4c0,0.3-0.2,0.5-0.2,0.8V56c0,0.2-0.2,0.5-0.1,0.7l-0.2,0.9c-0.1,0.1-0.1,0.3-0.1,0.5l-0.2,0.4
		c0,0-0.4,0.4-0.4,0.5c-0.2,0.2-0.2,0.4-0.4,0.5l-0.3,0.2c0,0.1-0.4,0.4-0.5,0.4l-0.2,0.1c0,0-0.2,0.2-0.3,0.2c0,0-0.2,0.1-0.3,0.2
		l-0.3,0.2l-1.1,0.4l-1,0.2c-0.5,0.1-0.8-0.1-1.3-0.1c-0.1,0-0.8-0.1-0.8-0.1c-0.3,0-0.6-0.1-1-0.2l-0.4-0.3
		c-0.3-0.1-0.5-0.1-0.8-0.2c-0.2,0-0.3-0.2-0.5-0.3c-0.3-0.2-0.6-0.3-0.9-0.5l-0.3-0.3c-0.2-0.1-0.2-0.2-0.3-0.3
		c0,0-0.5-0.5-0.5-0.6s-0.3-0.3-0.4-0.2l-0.2,2c-0.2,0.2-0.7,1.1-0.8,1.4c-0.1,0.2-0.7,1.5-0.8,1.6l-0.6,1c-0.1,0.1-0.3,0.4-0.3,0.4
		l-0.1,0.2c-0.2,0.2-0.4,0.4-0.5,0.6c-0.1,0-0.3,0.3-0.4,0.4l-1.3,1.2c-0.1,0-0.3,0.3-0.3,0.3l-0.4,0.5l-0.5,0.8l-0.1,0.1l-0.6,0.7
		l-0.1,0.1c0,0-0.4,0.5-0.4,0.6c-0.1,0.1-0.2,0.1-0.3,0.2c-0.3,0.1-0.4,0.2-0.6,0.2c-0.1,0-0.2-0.2-0.3-0.3c0-0.1-0.1-0.3-0.1-0.4
		c0-0.3,0.1-0.4,0.2-0.6c0.1-0.2,0.1-0.3,0.1-0.5c0.1-0.8,0.5-1.4,0.8-2.2L149.7,64.5z M157.8,54.2c0,0,0.1,0.5,0.3,0.9l0.1,0.3
		c0.1,0,0.4,0.6,0.5,0.7l0.1,0.1c0.2,0.1,0.7,0.6,0.8,0.6l0.9,0.5c0.3,0.1,0.7,0.2,1,0.2h1c0.2,0,0.4-0.1,0.6-0.1
		c0.1,0,0.5-0.1,0.6-0.2c0.2-0.1,0.8-0.4,1-0.5c0.2-0.2,0.5-0.3,0.7-0.5l0.7-0.8c0,0,0.3-0.6,0.4-0.9c0.1-0.2,0.4-1,0.5-1.2
		l-0.1-0.8c0-0.1,0-0.7,0-0.7c0-0.1-0.2-0.6-0.2-0.7l-0.1-0.3c-0.6-0.6-1.3-1.4-1.3-1.4c-0.3,0.1-0.6,0.3-0.9,0.6
		c0,0.1-0.5,0.4-0.6,0.5c0,0-0.2,0.1-0.3,0.1l-0.1,0.1l-0.4,0.2c-0.3,0.2-0.6,0.4-0.9,0.5c-0.2,0.1-0.4,0.1-0.5,0.2
		c-0.3,0.2-0.6,0.4-0.9,0.6l-0.8,0.4c-0.2,0.1-0.8,0.4-0.8,0.4c-0.1,0-0.4,0.2-0.4,0.2s-0.1,0.1-0.2,0.1c0,0-0.1,0.1-0.8,0.4
		L157.8,54.2z"/>
	<path class="st4" d="M152.4,70.3c0.2-0.2,0.5-0.3,0.8-0.4l1.3-1l0.2-0.1l2.5-1.6c0.1,0,0.4-0.3,0.5-0.3c0.1-0.1,0.8-0.3,1-0.4
		l0.4-0.1c0.2,0,0.4-0.1,0.5-0.2l1.6-0.4c0,0,0.2,0,0.3-0.1c0.7-0.1,1.3,0.1,1.9,0.1l0.4,0.1c0.2-0.1,0.5,0,0.6,0.1
		c0.1,0,0.3,0.1,0.3,0.1l0.4,0.1c0.1,0,0.3,0.1,0.4,0.2l0.3,0.1h0.2l0.2,0.1v0.2c0,0.1-0.1,0.1-0.2,0.2c0,0.1-0.1,0.2-0.1,0.2
		c-0.1,0-0.1,0.2-0.1,0.3l-0.4,0.7c-0.4,0.3-0.6,0.7-1,1l-0.1,0.2c-0.3,0.3-0.8,0.4-1.1,0.6l-0.5,0.3c-0.1,0.1-0.6,0.3-0.6,0.3
		c-0.2,0.1-0.4,0.1-0.7,0.2c-0.1,0-0.5,0-0.6,0c-0.2,0.1-1.4,0.4-1.8,0.4l-0.7,0.2c-0.1,0-1,0.1-1.4,0.2c-0.3,0-0.5,0-0.8,0
		c-0.1,0-0.3,0-0.4-0.1c-0.1,0-0.7-0.1-0.8-0.2c-0.1,0-0.6,0-0.7,0h-0.1c0,0-0.1,0-0.2,0.1c-0.1,0-0.3,0-0.3,0
		c-0.3-0.1-0.7-0.1-1-0.1c-0.1,0-0.5,0.1-0.6,0.1c-0.2,0-0.7,0.1-0.7,0c-0.1,0-0.2-0.1-0.3-0.1c0-0.1-0.1-0.2-0.1-0.2
		s-0.1-0.2,0.1-0.3c0.2-0.1,0.3-0.2,0.5-0.2c0.1,0,0.3-0.2,0.4-0.2C152.2,70.5,152.3,70.3,152.4,70.3z M168.2,65
		c0-0.1,0.4-0.6,0.4-0.7c0,0,0.2-0.2,0.3-0.2l0.2-0.1c0.1,0,0.2-0.1,0.4-0.1c0,0,0.3-0.1,0.4-0.1l0.3-0.1c0.1,0,0.2,0,0.2,0h0.2
		c0,0,0.2,0,0.3,0c0,0,0.3,0.1,0.4,0.1c0.2,0,0.3,0.3,0.3,0.3c0,0.1,0,0.3,0,0.4c0,0.2,0.2,0.3,0.2,0.5c0.1,0.2,0,0.5,0,0.7
		s0,0.4-0.1,0.5c0,0,0,0.1-0.1,0.2l-0.1,0.3c-0.1,0.2-0.2,0.2-0.3,0.4l-0.1,0.1c-0.1,0.1-0.2,0.2-0.4,0.2c-0.3,0.1-0.6,0.1-1,0.1
		c-0.1,0-0.3,0.1-0.5,0c-0.1,0-0.2,0-0.3-0.1c-0.1,0-0.5-0.1-0.5-0.1c-0.1-0.1-0.3-0.2-0.3-0.2l-0.1-0.2c-0.1-0.1-0.1-0.2-0.2-0.3
		c0-0.2,0-0.2,0-0.4c0,0,0-0.2,0-0.3v-0.4c0,0,0-0.1,0-0.2L168.2,65z"/>
	<path class="st4" d="M158.7,73.6c0,0,0.3,0,0.4,0c0.1,0,0.2,0.1,0.3,0.2c0,0,0.2,0.1,0.2,0.2c0.2,0.1,0.4,0.4,0.5,0.6
		c0,0.1,0.1,0.4,0.1,0.5c0,0,0,0.1,0.1,0.2c0,0.1,0.1,0.2,0.1,0.2l0.1,0.2c0,0.1,0,0.1,0,0.1s0,0.1,0.1,0.2c0,0,0.4,1.5,0.4,2.2
		c0,0,0.1,0.4,0.2,0.6c0,0-0.1,0.1-0.1,0.3v0.3c0,0.1,0,0.1,0,0.2c0,0.1,0,0.2,0,0.2c0,0.2,0.1,0.8,0.1,0.8c0,0.1,0,0.2,0,0.3
		s0,0.3,0,0.4l0.1,0.4c0,0.1,0,0.3,0,0.3s0,0.2-0.1,0.3c0,0.1,0,0.2,0,0.2c-0.1,0.3,0.1,0.2-0.1,0.4l-0.3,0.4v0.1
		c-0.2,0.2-0.2,0.4-0.4,0.4h-0.3c-0.1,0-0.2-0.1-0.2-0.1l-0.2-0.3l-0.3-0.3c-0.1-0.1-0.2-0.2-0.2-0.3s-0.1-0.1-0.1-0.1l-0.1-0.2
		c-0.1-0.1-0.2-0.4-0.2-0.4c0-0.1-0.3-0.6-0.3-0.8c0,0,0-0.1,0-0.2c0-0.3,0.1-0.5,0-0.7c0-0.1,0-0.3,0-0.3c0-0.1-0.1-0.2-0.2-0.4
		c-0.1-0.4,0-0.8,0-1.1c0-0.1,0-0.3,0-0.3c0-0.1-0.1-0.5-0.1-0.5s0-0.1,0-0.2c0-0.1,0-0.5,0-0.5c0-0.1,0-0.1,0-0.2
		c0-0.3,0-0.5,0-0.8c0-0.2,0-0.4,0.1-0.6v-0.2v-0.1l0.1-0.2c0,0,0.1-0.1,0.1-0.2c0-0.1,0-0.2,0-0.3
		C158.4,74.5,158.3,73.8,158.7,73.6z"/>
	<path class="st4" d="M148.8,98.6c0-0.1-0.1-0.5-0.1-0.6s0-0.6,0-0.6v-0.3c-0.1-0.3-0.1-0.6,0-1c0-0.1,0.1-0.3,0-0.4l0.1-0.8
		c0.1-0.3,0.2-0.7,0.4-1l0.3-0.8c0-0.2,0.2-0.6,0.3-0.9c0-0.1,0.1-0.4,0.2-0.6l0.4-0.8l1-1.1l0.6-0.6c0.8-0.7,1.6-1.3,2.5-1.7
		l1.8-0.6c0,0,0.3-0.1,0.4-0.1c0.2-0.1,0.5-0.1,0.8-0.1c0.4,0,0.8,0,1.2,0c0.2-0.1,0.7-0.1,0.7-0.1c0.1,0,0.3,0,0.4,0l0.4,0.2
		l0.5,0.1c0.4,0.1,0.9,0.4,1.3,0.4l1,0.4c0,0,0.4,0.3,0.5,0.2l1.2,0.5l0.9,0.5c0,0,0.7,0.5,1,0.7c0.2,0.2,0.6,0.3,0.8,0.5
		c0.2,0.1,0.4,0.7,0.5,0.9l0.5,1.5c0,0.1,0.2,0.3,0.2,0.4l0.4,0.5c0,0.1,0.1,0.1,0.1,0.3c0.1,0.3,0.1,0.5,0.1,0.8
		c0.1,0.3,0.2,0.8,0.2,1.1s-0.1,0.6-0.1,0.9v0.3l0.1,0.3c0,0.1,0,0.2,0.1,0.5c0,0.1,0.1,0.3,0.2,0.6c0,0.2,0,1.5,0,1.5
		c-0.1,0.9-0.2,1.7-0.5,2.6c-0.3,0.6-1,1.4-1.2,1.9l-0.2,0.1l-0.4,0.5l-0.2,0.2l-1,0.9c-0.3,0.2-0.6,0.3-0.9,0.5l-0.6,0.4
		c0,0-0.1,0.1-0.7,0.3l-0.6,0.2c-0.2,0-0.3,0-0.5,0.1l-3.4,0.6c-0.1,0-0.3,0-0.3,0l-0.6-0.2c-0.4,0-2.2,0-2.6,0
		c-0.2-0.1-0.5-0.1-0.8-0.1l-1-0.3c-0.2-0.1-1.2-0.5-1.3-0.6s-0.8-0.6-0.9-0.7c0,0-0.1,0-0.2-0.1l-0.2-0.2c-0.2-0.2-0.5-0.3-0.6-0.6
		c-0.1-0.1-0.2-0.4-0.2-0.5s-0.1-0.2-0.2-0.5c-0.1-0.1-0.2-0.5-0.2-0.5l-0.8-1.3c-0.1-0.3-0.2-0.6-0.3-0.9l-0.1-0.4
		c-0.1-0.4-0.2-0.7-0.2-1C148.9,99.6,148.7,99,148.8,98.6z M153.9,96.5c0,0.1-0.3,0.5-0.3,0.6c-0.2,0.2-0.4,0.6-0.5,0.9
		c0,0.1-0.1,0.5-0.1,0.6l0.1,0.3c0,0.2,0.2,0.6,0.2,0.6l-0.1,0.8c0,0,0,0.5,0.1,0.6c0,0,0.1,0.3,0.2,0.5l0.1,0.5
		c0.1,0.1,0.3,0.7,0.4,0.7c0.1,0.2,0.7,1.1,0.8,1.3c0.3,0.3,0.6,0.7,1,0.8c0.3,0,1.4,0.4,1.6,0.5c0.1,0.1,0.7,0.2,0.8,0.3
		c0.1,0,0.3,0,0.3,0c0.2,0,1.3,0,1.6,0l0.9-0.1c0.3-0.1,0.6-0.1,0.9-0.2l1.5-0.5c0.1,0,0.5-0.2,0.5-0.2s0.3-0.2,0.4-0.3
		c0.2-0.1,0.7-0.4,0.7-0.5l1.4-1.4c0.2-0.2,0.4-0.4,0.5-0.7c0.1-0.1,0-0.3,0.2-0.4l0.1-0.4c-0.1-0.1,0-0.3,0.1-0.4l0.2-0.6
		c0-0.1,0.2-0.5,0.2-0.6c0,0,0-0.5-0.1-0.6c0-0.1-0.1-0.7-0.2-0.8c-0.1-0.4,0.1-0.9-0.1-1.4c0-0.1-0.1-0.2-0.1-0.2l-0.6-0.5
		c-0.2-0.2-0.5-0.5-0.9-0.7l-0.7-0.1l-0.8-0.4l-0.3-0.1c-0.7-0.2-1.5-0.3-2.1-0.4l-1.6,0.1H160h-0.4c0,0-0.2,0-0.3,0
		c-0.7,0-1.4,0.1-2.1,0.4c-0.5,0.2-0.8,0.3-1.2,0.5c-0.2,0-1.1,0.6-1.4,0.7c-0.3,0.1-0.5,0.4-0.5,0.7
		C154,96.3,153.9,96.5,153.9,96.5z"/>
	<path class="st4" d="M148.3,117.4c0.1,0,0.5,0,0.6,0s0.1,0,0.4,0c0.2,0,0.3,0,0.5,0s0.3,0,0.5,0.1l0.6,0.1c0.6,0.1,1.1,0.2,1.6,0.4
		c0,0,0.2,0.1,0.3,0.1c0,0,0,0,0.4,0.1c0.1,0,0.7,0.2,0.8,0.2l0.9,0.2c0.4,0.1,0.7,0,1.1,0.1c0.1,0,0.5,0.1,0.6,0.1s0.1,0,0.6,0.1
		h0.2c0,0,0.3,0,0.4,0c0.2,0,0.4,0,0.6,0.1c0.2,0,0.5,0,0.8,0c0.1,0,0.6,0,0.7,0c0.1,0,0.6-0.2,0.7-0.2c0.4-0.3,0.5-0.3,0.5-0.3
		c0.2-0.1,0.3-0.2,0.4-0.4c0-0.1,0.1-0.4,0-0.6l-0.4-0.7c-0.1-0.1,0-0.3-0.3-0.5l-0.6-0.8c-0.1,0-0.4-0.4-0.5-0.5s-0.2-0.2-0.3-0.3
		l-0.7-0.5c-0.2-0.2-0.5-0.2-0.7-0.3c-0.1,0-0.3,0-0.5,0l-0.4-0.1c-0.1,0-1.1-0.1-1.2-0.2c-2.3-0.5-2.8-0.7-3.3-1
		c-0.6-0.4-1.2-0.8-1.8-1.2l-0.1-0.1c-0.1-0.1-0.3-0.2-0.5-0.3c-0.1,0-0.3-0.1-0.4-0.1c-0.2-0.1-0.5-0.3-0.5-0.5c0-0.1,0-0.2,0-0.2
		c0-0.1,0.1-0.1,0.1-0.3l0.9-0.2c0.1,0,0.3-0.1,0.4,0l1.6,0.2c0.1,0,0.6,0,0.7,0h0.3c0.1,0,0.4,0,0.4,0c0.1,0,0.9-0.1,1-0.1
		s0.6,0,0.7,0.1c0.1,0,0.9,0.2,1,0.1l0.4,0.1c0.1,0,1.1,0.2,1.3,0.2c0.4,0,0.6,0.1,1,0.2c0.8,0.2,1.6,0.4,2.4,0.7l1.3,0.5
		c0.2,0.1,0.4,0.1,0.6,0.2c0.2,0.1,0.5,0.2,0.6,0.4c0,0.1,0.1,0.2,0.1,0.4s-0.1,0.4-0.3,0.5c0,0.1-0.4,0.2-0.4,0.2l-0.6,0.3
		c-0.1,0.1-0.6,0.3-0.8,0.3l-0.9,0.3c-0.1,0-0.3,0.1-0.4,0.1c0.4,0.3,0.7,0.8,0.8,1c0.1,0.1,0.3,0.3,0.4,0.5
		c0.3,0.5,0.5,0.9,0.7,1.4c0,0.1,0.1,0.2,0.1,0.3l0.2,0.6c0,0.1,0,0.2,0,0.4s-0.2,0.4-0.3,0.7c-0.1,0.1-0.2,0.5-0.2,0.6l-0.1,0.1
		l-0.9,1.3c-0.1,0.1-0.2,0.4-0.5,0.5l-0.1,0.1c-0.1,0-0.3,0.3-0.3,0.4c-0.2,0.1-0.5,0.3-0.7,0.5c-0.1,0.1-0.5,0.4-0.6,0.4
		c0,0.1,0,0.1,0,0.2c0.2,0.2,0.4,0.5,0.7,0.8l0.2,0.4c0,0.1,0.2,0.3,0.2,0.4l0.3,0.4c0.3,0.6,0.8,1.1,1.2,1.6c0,0.1,0.1,0.3,0.1,0.4
		c0,0.1,0,0.3,0,0.5c0,0.1-0.1,0.4-0.2,0.5l-0.3,0.5c-0.1,0.1-0.1,0.3-0.2,0.4c-0.1,0.2-0.3,0.5-0.4,0.7l-0.7,0.7
		c-0.2,0.2-0.4,0.6-0.7,0.8c-0.2,0.2-1.3,0.9-1.5,1l-0.5,0.3l-0.5,0.2c-0.2,0.1-0.3,0.2-0.5,0.3l-0.7,0.2l-1.6,0.4
		c0,0-0.3,0.1-0.4,0.1c-0.4,0-0.8,0.1-1.2,0c-0.2-0.1-0.5-0.2-0.7-0.2s-0.5,0-0.7-0.1c-0.1,0-0.1,0-0.1,0s-0.5-0.3-0.7-0.3
		c-0.1,0-0.2-0.1-0.3-0.1c0,0-0.2-0.1-0.3-0.1c-0.2-0.1-0.5-0.4-0.7-0.5c-0.1-0.1-0.2-0.2-0.3-0.4c0,0-0.3-0.4-0.4-0.4
		c-0.5-0.6-0.7-1.3-0.9-2c0-0.2-0.1-0.5-0.2-0.7l-1.3-2c0-0.2-0.3-0.3-0.2-0.6v-0.1c0.2,0,0.3,0,0.6,0.1l0.4,0.1
		c0.2,0,0.4,0.1,0.7,0.1c0.2,0,0.4,0.1,0.5,0.2c0,0,0.2,0.1,0.3,0.1l2.5,0.6l0.6,0.2c0.3,0.2,0.6,0.2,0.9,0.3l0.6,0.1
		c0.2,0,0.4,0.1,0.7,0.2c0.3,0,0.6,0.1,0.8,0.1c1.7,0.2,1.7,0.2,1.7,0.2c0.2,0.1,0.9,0.1,0.9,0.1c0.1,0,0.4,0,0.4,0
		c0.2-0.1,0.5-0.1,0.6-0.1c0.2-0.1,0.3-0.2,0.6-0.3c0.2-0.2,0.5-0.3,0.5-0.6c0.1-0.2-0.1-0.5-0.2-0.8c-0.3-0.4-0.4-1.1-0.8-1.7
		l-0.6-0.7c-0.1-0.1-0.1-0.1-0.3-0.2h-0.3c-0.3,0-0.5,0-0.9,0.1h-0.2l-0.4-0.1c-0.3,0-0.6,0.1-0.9,0.1h-0.2c-0.1,0-0.6-0.1-0.7-0.1
		c-0.1,0-0.3-0.1-0.4-0.2c-0.2-0.1-0.4-0.2-0.5-0.4l-0.7-0.4l-0.1-0.1c-0.4-0.4-0.6-0.7-0.9-1.2c-0.1,0-0.5-0.4-0.5-0.5
		c0,0-0.1,0-0.1-0.1l-0.4-0.3l-0.8-0.8c0,0-0.3-0.4-0.4-0.5l-0.1-0.1l-0.5-0.4l-0.4-0.4c-0.1,0-0.5-0.3-0.6-0.4
		c-0.1-0.2-0.4-0.4-0.4-0.7c0-0.2,0.2-0.3,0.4-0.3c0.1,0,0.3-0.1,0.4-0.1C148,117.4,148.2,117.4,148.3,117.4z"/>
	<path class="st4" d="M149,134.9c0.8,0.4,0.8,0.5,0.8,0.5c0.1,0,0.2,0.1,0.2,0.2c0.1,0.1,0.3,0.2,0.4,0.3l0.7,0.6
		c0.2,0.2,0.4,0.3,0.6,0.5l0.4,0.5c0.1,0,0.3,0.3,0.4,0.5c0.1,0.1,0.4,0.7,0.5,0.9l0.2,0.3c0.1,0.2,0.5,0.9,0.6,1
		c0.1,0.2,0.3,0.4,0.5,0.7l0.2,0.4c0,0.2,0,0.3,0,0.4c0.2,0.7,0.3,1.4,0.2,2.2c0,0.1-0.1,0.4,0,0.4c-0.1,0.4-0.2,0.7-0.2,1.1
		l-0.3,1.1c0,0.1,0,0.2-0.1,0.4c-0.1,0.4-0.3,0.7-0.5,1l-0.5,0.9c-0.1,0.3-0.4,0.6-0.7,0.9c-0.1,0.2-0.3,0.5-0.5,0.7l-0.6,0.5
		c-0.2,0-0.2,0.2-0.4,0.3c-0.4,0.2-0.7,0.5-1.1,0.6l-1.1,0.3c-0.2,0-0.7,0.1-0.9,0.1c-0.1,0-0.5-0.1-0.7-0.1
		c-0.2-0.1-0.7-0.3-0.8-0.3s-0.5-0.2-0.7-0.3c-0.3-0.2-0.7-0.5-1-0.7l-0.1-0.1c0,0-0.2-0.2-0.3-0.2l-0.1-0.2l-0.1-0.4
		c-0.1,0-0.2-0.4-0.3-0.5s0-0.3,0-0.5c0-0.1,0.1-0.3,0.1-0.4l-0.1-0.4c0-0.1,0-0.2,0-0.3c0-0.2-0.1-0.4-0.1-0.5s0.1-0.7,0.1-0.8
		v-0.2c0-0.3,0-0.5,0.1-0.8c0-0.1,0-0.5,0-0.6c0.1-0.2,0.1-0.4,0.2-0.8c0.1-0.3,0.2-0.6,0.4-0.9c0.2-0.6,0.5-1,0.9-1.6
		c0,0-0.1-0.1-0.2-0.1c-0.1,0-0.2-0.1-0.4-0.2c-0.1,0-0.1,0-0.2,0c-0.2,0-0.4-0.1-0.7-0.2l-1.4-0.2c-0.4-0.1-0.8,0-1.2,0.1l-0.1,0.1
		c-0.2,0.1-0.5-0.1-1.2,0.5c-0.1,0-0.9,0.8-1.1,1.2c-0.2,0.3-0.5,0.7-0.6,1c-0.1,0.2-0.2,0.4-0.2,0.6c0,0.1,0,0.2,0,0.2
		s-0.1,0.4,0,0.5c0,0.1,0,0.2,0,0.3l0.2,0.5c0.2,0.4,0.4,0.8,0.6,1.2c0.1,0.1,0.2,0.1,0.3,0.3c0.1,0.1,0.2,0.2,0.2,0.3
		s0.2,0.1,0.2,0.1c0.2,0.1,0.5,0,0.5,0c0.2,0.1,0.2-0.1,0.4-0.3s0.5-0.2,0.7-0.1c0.1,0,0.3,0.1,0.3,0.2c0.1,0.3,0.3,0.6,0.2,0.9
		c0,0.1-0.1,0.4-0.1,0.5v0.2v0.2l-0.3,0.5c-0.2,0.3-0.6,0.6-1,0.6l-0.2,0.1c-0.1,0-0.2,0.1-0.4,0l-0.3-0.1c-0.5-0.1-0.7-0.4-1.1-0.8
		l-0.3-0.2c0-0.1-0.3-0.2-0.3-0.3c-0.4-0.5-0.6-1-0.8-1.5c0-0.1-0.1-0.2-0.1-0.4l-0.1-0.4v-0.2l-0.1-1.4c0-0.4,0.1-0.8,0.1-1.2
		c0.1-1.1,0.2-1.4,0.2-1.5s0,0,0.1-0.3c0.1-0.2,0.2-0.6,0.3-0.7l0.4-0.9c0-0.1,0.5-1.2,0.5-1.4c0,0,0.2-0.4,0.3-0.5
		c0.4-0.7,0.8-1.3,1.4-1.8c0.2-0.2,0.5-0.5,0.8-0.6l1.9-1c0.1,0,0.3-0.1,0.4-0.1c0.3-0.2,0.7-0.3,1.1-0.4c0.3-0.1,0.7-0.2,1-0.2
		c0.1,0,0.3,0,0.5,0c0.1,0,0.3,0,0.3,0l2.1,0.3L149,134.9z M147,142.3c0,0-0.3,0.4-0.3,0.5c-0.1,0.1-0.2,0.2-0.3,0.3
		c-0.1,0.2-0.2,0.5-0.3,0.8s-0.2,0.6-0.3,1.1c0,0.3-0.1,0.6-0.1,0.8l-0.1,1c-0.1,0.2,0.1,0.4,0,0.6c0,0.2,0,0.3,0,0.5l0.2,1.8
		c0,0.1,0.2,0.2,0.3,0.2s0.3,0.2,0.3,0.2h0.2c0.4,0,0.8,0.1,1.1,0c0,0,0.2,0,0.2-0.1c0.5-0.1,0.9-0.1,1.4-0.3
		c0.3-0.2,0.6-0.3,0.8-0.6c0-0.1,0.2-0.2,0.3-0.4c0.1-0.5,0.2-0.9,0.3-1.3c0-0.1,0-0.2,0-0.3v-0.7c0-0.1,0-0.3-0.1-0.4l-0.3-0.6
		c-0.5-0.8-1-1.4-1.7-2l-0.8-0.7c-0.2-0.2-0.3-0.5-0.7-0.6C147.1,142.2,147,142.2,147,142.3z"/>
	<path class="st4" d="M138.6,151.7l0.4,0.3c0.1,0.1,0.3,0.2,0.5,0.3c0.7,0.6,0.8,0.6,0.8,0.6l1.2,0.9l0.3,0.3c0.1,0.1,0,0.1,0.1,0.2
		l0.7,0.6c0.3-0.2,0.5-0.4,0.7-0.7l0.5-0.7c0.1-0.1,0.3-0.2,0.5-0.2c0,0,0.1,0,0.2,0.1c0.1,0.1,0.1,0.1,0.2,0.3
		c0.1,0.1,0.2,0.3,0.1,0.5l-0.1,0.1c-0.2,0.2-0.1,0.2-0.5,0.7l-0.2,0.3l-0.5,0.6c0,0,0.5,0.6,0.6,0.8c0,0,0.1,0.1,0.1,0.2
		c0,0,0.4,0.4,0.5,0.4c0.2,0.2,0.4,0.5,0.4,0.7c0,0.1,0.1,0.1,0.2,0.2c0.1,0.2,0.3,0.3,0.4,0.6c0.1,0.1,0.4,0.5,0.4,0.6l0.1,0.3
		l0.3,0.4c0.1,0.1,0.2,0.2,0.3,0.2c0.2,0.2,0.3,0.6,0.3,0.8c0,0.1,0,0.1,0,0.2c0,0-0.1,0-0.1,0.1l-0.1,0.1c-0.1,0.1-0.2,0.1-0.3,0.2
		l-1,0.1h-0.3c-0.2,0.1-0.3,0-0.5,0s-1.1-0.2-1.2-0.2c-0.1,0-0.3-0.1-0.4-0.1c0,0-0.5-0.3-0.6-0.3c-0.2-0.1-0.4-0.2-0.6-0.2
		c0,0.1-0.3-0.1-0.3-0.1l-0.2-0.1c0,0-0.5-0.3-0.6-0.3l-0.6-0.4c0,0-0.4,0.6-0.7,1c-0.1,0.2-0.3,0.3-0.3,0.4c0,0-0.4,0.4-0.4,0.5
		c-0.2,0.2-0.5,0.5-0.8,0.5c0,0-0.2,0-0.3,0s-0.2-0.1-0.3-0.1l-0.1-0.1v-0.1c0-0.2,0.1-0.5,0.2-0.6l0.1-0.1c0,0,0.3-0.2,0.3-0.3
		l0.2-0.3c0-0.1,0.4-0.7,0.5-0.9c0-0.1,0.1-0.2,0.2-0.3c0.1-0.1,0.2-0.3,0.3-0.3l0.1-0.1c-0.1,0-0.3-0.3-0.3-0.3
		c-0.2-0.2-0.2-0.3-0.5-0.5c-0.2-0.1-0.3-0.3-0.4-0.3c-0.2-0.2-0.3-0.4-0.5-0.6c-0.1,0-0.1-0.1-0.2-0.1c0,0-0.1,0-0.1-0.1
		s-0.2-0.3-0.2-0.4l-0.1-0.2l-0.3-0.5l-0.2-0.2c-0.1-0.1-0.6-0.3-0.7-0.4l-0.3-0.2l-1.4-1.2c-0.3,0-0.4-0.2-0.7-0.2h-0.3
		c-0.1,0-0.4,0.1-0.5,0.2c-0.1,0-0.2,0.1-0.3,0.2l-0.1,0.1c-0.1,0.1-0.2,0.2-0.2,0.2s-0.1,0.3-0.1,0.4v0.1c0,0.2,0.1,0.5,0.1,0.7
		c0.1,0.2,0.4,0.7,0.5,0.8s0.2,0.3,0.2,0.3c0.1,0,0.3,0.1,0.3,0.1l0.1-0.1c0.2-0.2,0.4-0.4,0.7-0.2h0.1c0.1,0.1,0.2,0.2,0.2,0.4
		s-0.2,0.5-0.3,0.6s-0.2,0.1-0.3,0.1l-0.5,0.2c-0.1,0.1-0.3,0.1-0.4,0c-0.2,0-0.4-0.1-0.6-0.3c-0.3-0.2-0.5-0.5-0.8-0.7
		c-0.1-0.2-0.4-0.4-0.4-0.6l-0.1-0.5c-0.1-0.1-0.1-0.3-0.2-0.4c-0.1-0.3-0.1-0.6-0.1-0.9c0-0.1,0.1-0.3,0.1-0.4
		c0.1-0.2,0.1-0.6,0.2-0.7c0.1-0.1,0.1-0.2,0.1-0.3v-0.1c0.1-0.1,0.4-0.5,0.4-0.6s0.2-0.4,0.2-0.4l0.1-0.2c0.3-0.3,0.6-0.6,0.9-0.8
		l0.2-0.1l0.7-0.3l0.3-0.1l0.3-0.1c0.2-0.1,0.4-0.2,0.7-0.2c0.1,0,0.8,0,0.9,0h0.2l0.7,0.1c0,0,0.1,0,1.6,0.7
		C138.4,151.6,138.6,151.7,138.6,151.7z"/>
	<path class="st4" d="M134,160.9c0.5,0.5,0.5,0.5,0.5,0.5s0.1,0.1,0.1,0.2c0,0.1,0.2,0.2,0.2,0.3l0.4,0.6c0.1,0.2,0.3,0.3,0.3,0.5
		l0.2,0.5c0.1,0.1,0.1,0.3,0.2,0.4c0,0.1,0.1,0.6,0.2,0.7l0.1,0.3c0,0.2,0.2,0.7,0.2,0.9c0.1,0.2,0.2,0.4,0.2,0.6v0.3
		c0,0.1-0.1,0.2-0.1,0.3c0,0.6-0.1,1.1-0.3,1.7l-0.1,0.3c-0.1,0.3-0.3,0.5-0.4,0.8l-0.5,0.8c0,0.1,0,0.1-0.1,0.3
		c-0.2,0.3-0.3,0.4-0.6,0.7l-0.6,0.6c-0.2,0.2-0.4,0.4-0.7,0.5c-0.1,0.1-0.3,0.3-0.5,0.4l-0.5,0.2c-0.1,0-0.2,0.1-0.4,0.2
		c-0.3,0.1-0.6,0.2-0.9,0.2H130c-0.1,0-0.5,0-0.7-0.1c-0.1,0-0.4-0.2-0.5-0.2c-0.1-0.1-0.5-0.3-0.5-0.4c0,0-0.3-0.3-0.5-0.4
		c-0.2-0.2-0.4-0.5-0.6-0.7v-0.1c0,0-0.1-0.2-0.2-0.2c0,0,0-0.1,0-0.2v-0.3l-0.1-0.4c0-0.1,0-0.2,0.1-0.4c0,0,0.1-0.2,0.2-0.3v-0.3
		c0-0.1,0-0.1,0-0.2c0-0.1,0-0.3,0.1-0.4c0-0.1,0.2-0.5,0.2-0.6c0,0,0.1-0.1,0.1-0.2c0-0.2,0.1-0.4,0.2-0.6c0-0.1,0.1-0.4,0.2-0.5
		c0.1-0.1,0.1-0.3,0.3-0.6c0.1-0.2,0.3-0.4,0.4-0.6c0.2-0.4,0.6-0.7,1-1l-0.1-0.1c-0.1-0.1-0.1-0.1-0.3-0.2c-0.1,0-0.1,0-0.2-0.1
		c-0.1-0.1-0.2-0.2-0.4-0.3l-1-0.4c-0.3-0.1-0.6-0.2-0.9-0.2h-0.1c-0.1,0-0.3-0.2-1,0.2c-0.1-0.1-0.8,0.5-1.1,0.7
		c-0.2,0.2-0.5,0.4-0.7,0.7c-0.1,0.2-0.2,0.3-0.3,0.4l-0.1,0.1l-0.1,0.3v0.2v0.4c0,0.3,0.2,0.7,0.2,1c0.1,0.1,0.1,0.1,0.2,0.3
		c0,0.1,0.1,0.2,0.1,0.3s0.1,0.1,0.1,0.1c0.1,0.1,0.3,0.1,0.3,0.1c0.1,0.1,0.2-0.1,0.3-0.1c0.2-0.1,0.4-0.1,0.5,0
		c0.1,0,0.2,0.1,0.2,0.2c0.1,0.2,0.1,0.5,0,0.8c0,0-0.1,0.3-0.2,0.3v0.1l-0.1,0.1l-0.3,0.3c-0.2,0.2-0.6,0.4-0.9,0.2h-0.2
		c-0.1,0-0.2,0-0.3,0l-0.2-0.1c-0.3-0.2-0.5-0.5-0.7-0.8l-0.2-0.2c0-0.1-0.1-0.2-0.2-0.3c-0.2-0.4-0.2-0.9-0.3-1.3
		c0.1-0.1,0-0.2,0-0.3V167v-0.1l0.2-1.1c0-0.3,0.2-0.6,0.3-0.9c0.3-0.8,0.4-1,0.4-1.1s0,0,0.1-0.2c0.1-0.1,0.3-0.4,0.4-0.5l0.5-0.6
		c0.1-0.1,0.6-0.8,0.7-0.9c0,0,0.2-0.3,0.3-0.3c0.4-0.4,0.9-0.8,1.4-1.1c0.2-0.1,0.5-0.2,0.7-0.3l1.6-0.4c0.1,0,0.2,0,0.3,0
		c0.3-0.1,0.6-0.1,0.9-0.1c0.3,0,0.5,0,0.8,0c0.1,0.1,0.2,0.1,0.4,0.1h0.2l1.5,0.6L134,160.9z M131.1,166l-0.3,0.3
		c-0.1,0.1-0.2,0.1-0.3,0.2c-0.1,0.1-0.2,0.3-0.4,0.5c-0.1,0.2-0.2,0.4-0.4,0.8c-0.1,0.2-0.2,0.4-0.3,0.6l-0.2,0.7
		c-0.1,0.1,0,0.3-0.1,0.4c0,0.1-0.1,0.2-0.1,0.4l-0.2,1.4c0,0.1,0.1,0.2,0.2,0.2c0.1,0,0.2,0.2,0.2,0.2l0.1,0.1
		c0.3,0.1,0.6,0.2,0.8,0.2h0.1c0.4,0,0.7,0.1,1.1,0c0.2-0.1,0.5-0.1,0.7-0.3c0.1-0.1,0.2-0.1,0.3-0.2c0.2-0.3,0.3-0.6,0.5-0.9
		c0.1-0.1,0-0.2,0-0.2l0.1-0.5c0-0.1,0-0.3,0-0.3l-0.1-0.5c-0.2-0.7-0.5-1.3-0.9-1.8l-0.5-0.6C131.3,166.5,131.3,166.3,131.1,166
		C131.2,166,131.1,166,131.1,166z"/>
	<path class="st4" d="M118.7,169l0.3,0.2c0,0,0.1,0,0.2,0.1c0.1,0.1,0.2,0.1,0.3,0.2c0,0,0.3,0.1,0.4,0.1c0,0,0.2,0.1,0.2,0.2
		c0.1,0,0.4,0.3,0.6,0.4c0.1,0.1,0.3,0.3,0.4,0.3l1.4,0.9c0.1,0.1,0.3,0.3,0.5,0.4c0.1,0.1,0.4,0.5,0.4,0.5l0.5,0.8
		c0.2,0.2,0.3,0.4,0.5,0.7l0.3,0.3c0,0.1,0.2,0.3,0.2,0.3l0.6,0.9c0.1,0.1,0.3,0.5,0.3,0.5l0.3,0.3c0.2,0.3,0.3,0.6,0.5,0.9
		c0.2,0.3,0.4,0.6,0.3,1c-0.1,0.1-0.1,0.2-0.2,0.3c-0.1,0.1-0.1,0.1-0.2,0.1c-0.2,0.1-0.4,0-0.6-0.1l-0.3-0.1
		c-0.2-0.1-0.6-0.2-0.6-0.2s0,0.2-0.1,0.2v0.2l-0.1,0.7c0,0.1-0.1,0.3-0.1,0.3c0,0.1-0.1,0.3-0.2,0.4c0,0-0.1,0.1-0.1,0.2
		c0,0.1-0.2,0.3-0.2,0.3l-0.1,0.2l-0.2,0.2c-0.1,0.1-0.3,0.2-0.4,0.3l-0.3,0.3c-0.1,0.1-0.3,0.1-0.5,0.1h-0.1c-0.2,0-0.4,0-0.6,0
		c-0.1,0-0.1-0.1-0.2-0.1c-0.1,0-0.3-0.1-0.3-0.2c-0.1-0.1-0.3-0.2-0.2-0.4c0-0.3,0-0.4,0.3-0.7c0.2-0.3,0.4-0.3,0.7-0.2
		c0,0,0.1,0,0.2,0c0.1,0,0.2,0,0.3,0c0,0,0.2-0.1,0.3-0.2c0.1-0.2,0.2-0.4,0.3-0.6v-0.4c-0.1-0.2,0-0.2,0-0.4c0-0.1,0-0.2,0-0.3
		v-0.4c0-0.1,0-0.2,0-0.2c0-0.1-0.1-0.2-0.1-0.3c-0.1-0.1-0.1-0.1-0.2-0.1l-0.5-0.4l-0.5-0.2l-0.7-0.4c-0.1,0-0.4-0.3-0.5-0.4
		l-0.9-0.8c-0.3-0.3-0.6-0.7-0.9-1c0,0-0.1-0.1-0.1-0.2c0-0.2-0.1-0.4-0.2-0.7l-0.1-0.2c-0.1-0.1-0.1-0.3-0.2-0.4c0-0.4,0-0.6,0-0.9
		c0-0.1-0.1-0.2,0-0.7c0-0.1-0.1-0.3-0.1-0.5s-0.2-0.3-0.2-0.5v-0.3c0-0.1,0-0.1,0-0.2c0-0.1,0.1-0.1,0.1-0.2c0,0,0.2-0.1,0.3-0.1
		L118.7,169z"/>
</g>
<g>
	<g>
		<path class="st5" d="M64,134.1c0.1-0.6,0.1-0.7,0.1-0.7s0-0.2,0.1-0.2c0.1-0.1,0-0.3,0.1-0.3l0.2-0.6c0.1-0.2,0.1-0.4,0.2-0.5
			l0.2-0.4c0-0.1,0.2-0.3,0.2-0.4c0-0.1,0.4-0.4,0.5-0.5l0.2-0.2c0.1-0.1,0.5-0.5,0.5-0.6c0.1-0.1,0.2-0.3,0.4-0.5l0.2-0.2
			c0.1-0.1,0.2,0,0.3-0.1c0.4-0.3,0.9-0.5,1.4-0.7l0.3-0.1c0.3-0.1,0.5-0.1,0.8-0.1h0.8c0.1,0,0.1,0,0.3,0c0.3,0,0.5,0,0.8,0.1
			l0.8,0.1c0.2,0,0.5,0.1,0.8,0.3c0.2,0,0.4,0.1,0.6,0.1l0.4,0.3c0.1,0.1,0.2,0.1,0.3,0.2c0.2,0.2,0.5,0.4,0.7,0.6l0.5,0.7
			c0,0.1,0.2,0.4,0.3,0.6c0,0.1,0.1,0.4,0.1,0.5s0,0.5,0,0.6c0,0,0,0.4,0,0.5c0,0.3-0.1,0.6-0.3,0.8v0.1l-0.1,0.2l-0.1,0.1l-0.2,0.2
			c0,0-0.2,0.2-0.3,0.3s-0.2,0.1-0.3,0.1c0,0-0.2,0-0.3,0l-0.2,0.1c-0.1,0-0.1,0-0.2,0.1c-0.1,0.1-0.2,0.2-0.3,0.2s-0.5,0.1-0.6,0.1
			c0,0-0.1,0-0.2,0c-0.2,0.1-0.4,0.1-0.6,0.1l-0.4,0.1c-0.2,0-0.3,0.1-0.6,0.1c-0.2,0-0.5,0-0.7,0c-0.4,0-0.8-0.1-1.3-0.2v0.1
			c0,0.1,0,0.2,0,0.3s0,0.1,0,0.2c0,0.1,0,0.3,0,0.5l0.2,1c0.1,0.3,0.2,0.6,0.3,0.8c0,0,0.1,0,0.1,0.1c0.1,0.1,0.1,0.3,0.6,0.7
			c0,0.1,0.8,0.4,1,0.5c0.2,0,0.5,0.2,0.8,0.2c0.2,0,0.3,0,0.4,0h0.1c0,0,0.3,0,0.3-0.1l0.2-0.1l0.3-0.2c0.2-0.2,0.4-0.5,0.6-0.7
			c0-0.1,0-0.2,0.1-0.3c0-0.1,0.1-0.2,0.1-0.2c0.1,0,0-0.1,0-0.2c0-0.1-0.1-0.3-0.1-0.3c0-0.1-0.1-0.1-0.3-0.2
			c-0.1-0.1-0.3-0.2-0.3-0.4c0-0.1,0-0.2,0-0.3c0.1-0.2,0.3-0.4,0.6-0.4h0.3l0.1-0.1h0.1l0.4,0.1c0.3,0.1,0.6,0.3,0.6,0.5l0.1,0.1
			c0,0.1,0.1,0.1,0.1,0.2v0.2c0,0.4-0.1,0.6-0.3,0.9c0,0,0,0.2-0.1,0.2c0,0-0.1,0.2-0.1,0.3c-0.2,0.3-0.5,0.6-0.8,0.9
			c-0.1,0-0.1,0.1-0.2,0.2l-0.3,0.2h-0.1l-0.9,0.4c-0.2,0.1-0.6,0.1-0.8,0.2c-0.8,0.2-1,0.2-1,0.2c-0.1,0,0,0-0.2,0
			c-0.1,0-0.4,0-0.6,0l-0.7-0.1c-0.1,0-0.9,0-1,0c0,0-0.3,0-0.4-0.1c-0.5-0.1-1.1-0.2-1.5-0.5c-0.2-0.1-0.4-0.2-0.6-0.4l-1.1-1
			c0-0.1-0.1-0.2-0.1-0.2c-0.2-0.2-0.3-0.4-0.5-0.6c-0.1-0.2-0.3-0.4-0.4-0.6c0-0.1,0-0.2-0.1-0.3l-0.1-0.2l-0.3-1.4L64,134.1z
			 M69.4,133.7c0,0,0.3,0.1,0.4,0.1c0.1,0,0.2,0.1,0.3,0.1c0.2,0,0.3,0,0.6,0c0.2,0,0.5,0,0.8-0.1c0.2-0.1,0.4-0.1,0.6-0.1l0.7-0.2
			c0.1,0,0.2-0.2,0.4-0.2c0.1,0,0.2,0,0.3-0.1l1.1-0.6c0,0,0.1-0.1,0.1-0.2c0-0.1,0-0.2,0-0.2v-0.1c-0.1-0.3-0.1-0.5-0.2-0.8
			l-0.1-0.1c-0.2-0.3-0.3-0.6-0.5-0.9c-0.2-0.1-0.3-0.3-0.6-0.4c-0.1,0-0.2-0.1-0.3-0.1c-0.3,0-0.6,0.1-0.9,0.1
			c-0.1,0-0.1,0.1-0.2,0.1l-0.5,0.2c-0.1,0-0.2,0.1-0.3,0.1l-0.3,0.3c-0.4,0.5-0.7,1-0.9,1.6l-0.2,0.7
			C69.4,133.2,69.3,133.3,69.4,133.7C69.3,133.6,69.3,133.7,69.4,133.7z"/>
		<path class="st5" d="M84,139.7c0-0.1,0-0.1,0-0.2c0,0,0-0.3,0-0.4l-0.2,0.1c-0.1,0.1-0.5,0.2-0.6,0.2c-0.2,0.1-0.5,0.1-0.7,0.2
			c0,0-0.7,0.1-1.3,0.1c0,0-0.8-0.2-1.1-0.2c-0.1,0-0.2-0.1-0.3-0.1c-0.3-0.1-0.6-0.3-0.8-0.6c-0.1-0.1-0.4-0.4-0.4-0.5
			c-0.1-0.2-0.2-0.4-0.3-0.6c-0.1-0.3-0.3-0.6-0.4-0.9v-0.4c0-0.2-0.1-0.3-0.2-0.5c0-0.1,0-0.3,0-0.4v-0.2c0-0.1,0-0.3,0.1-0.5
			c0.1-0.1,0.1-0.3,0.2-0.4c0.1-0.2,0.2-0.4,0.2-0.6c0.1-0.1,0.1-0.3,0.2-0.3c0-0.1,0.1-0.2,0.1-0.2c0.2-0.3,0.5-0.6,0.8-0.7
			l0.2-0.1l0.6-0.3c0.1-0.1,0.4-0.1,0.5-0.1c0.4-0.1,0.7-0.1,1-0.2c0,0,0,0,0.1,0c0.3,0,0.4,0.1,0.5,0.1h0.3c0.1,0,0.4,0.1,0.4,0.1
			c0.1,0,0.4,0.1,0.4,0.1c0.1,0,0.3,0,0.4,0.1v-0.1l0.1-0.8c0,0,0.2-1.1,0.3-1.5c0,0,0.1-0.3,0.1-0.4c0-0.1,0.1-0.3,0.1-0.5
			c0.1-0.2,0.1-0.5,0.2-0.7l0.1-1.2l0.1-0.3v-0.5c0-0.2,0.2-0.5,0.4-0.6c0-0.1,0-0.1,0.1-0.2c0,0,0.1-0.2,0.1-0.3l0.1-0.2l0.1-0.1
			c0.1-0.1,0.2-0.1,0.3-0.1s0.1,0,0.2,0.1c0.1,0.1,0.2,0.2,0.2,0.4c0,0,0,0.2,0.1,0.3l0.1,0.1c0,0.1,0.1,0.1,0.1,0.1
			c0.3,0.5,0.3,0.5,0.3,0.5s0.1,0.2,0.1,0.3c0.1,0.3,0.2,0.6,0.2,0.9c0.1,0.3,0.1,0.7,0.1,1c0,0,0.1,0.2,0.1,0.3s0,0.1,0,0.2
			c0,0.1,0,0.1,0,0.2c0.1,0.1,0,0.2,0,0.3v0.2c0,0.1,0,0.5,0,0.5c0,0.2,0,0.3,0,0.5c0,0.1,0.1,0.6,0,0.6c0,0,0,0.1,0,0.2
			c0,0.3-0.1,0.7-0.1,1c0,0,0,0.5,0,0.6v0.5v0.5l-0.1,0.3c0,0.3-0.1,0.5-0.2,0.8l-0.2,0.4c0,0.2-0.1,0.3-0.1,0.5
			c-0.1,0.2,0,0.4-0.1,0.6l-0.2,0.3l-0.2,0.2c-0.1,0.1-0.1,0.3-0.2,0.4c-0.1,0.1-0.2,0.2-0.2,0.4c0,0.1-0.1,0.3-0.1,0.4l-0.1,0.2
			c-0.1,0.2-0.2,0.4-0.3,0.6l-0.2,0.3c0,0.1-0.1,0.2-0.2,0.2c-0.2,0.2-0.2,0.2-0.3,0.4l-0.2,0.2c0,0.1-0.1,0.1-0.1,0.1H84
			c-0.1-0.1-0.1-0.2-0.1-0.2C83.9,140,83.9,139.9,84,139.7z M79.9,136.4c0,0,0,0.2,0,0.3c0,0,0,0.4,0,0.5l0.1,0.3
			c0,0,0.1,0.2,0.1,0.3c0.2,0.3,0.4,0.5,0.7,0.6c0,0.1,0.4,0.1,0.5,0.2c0.1,0,0.2,0,0.3,0c0.3,0,0.6,0,0.9-0.1
			c0.1,0,0.3-0.1,0.4-0.1c0,0,0.2-0.1,0.2-0.2c0.2-0.1,0.6-0.4,0.7-0.4v-0.1c0.1-0.8-0.1-1.6-0.1-2.5V135c0,0,0-0.4-0.1-0.4
			c0-0.3-0.1-0.7-0.1-0.9c0-0.1,0-0.2,0-0.4c0-0.1,0-0.3,0.1-0.4c0,0-0.1,0-0.2,0h-0.3c-0.2,0-0.3,0.2-0.6,0.2
			c-0.1,0-0.2,0.1-0.3,0.1l-0.2,0.1c0,0-0.3,0.1-0.3,0.2c-0.3,0.2-0.6,0.2-0.8,0.4l-0.5,0.6l-0.5,0.4c0,0.2-0.2,0.4-0.2,0.5
			c0,0,0,0.1,0,0.2c0,0.1,0,0.2,0,0.4C79.9,136,79.9,136.3,79.9,136.4z"/>
		<path class="st5" d="M89.8,140.5c-0.1-0.2-0.1-0.4-0.1-0.6l-0.4-1.1l-0.1-0.1l-0.6-2.1c0-0.1-0.1-0.4-0.1-0.4
			c0-0.1-0.1-0.6-0.1-0.8v-0.3c0-0.1,0-0.3,0-0.4v-1.2c0,0,0-0.1,0-0.2c0.1-0.5,0.3-0.9,0.5-1.3l0.1-0.2c0-0.1,0.1-0.3,0.2-0.4
			c0-0.1,0.2-0.2,0.2-0.2l0.1-0.3c0-0.1,0.1-0.2,0.2-0.3l0.1-0.2l0.1-0.1l0.1-0.1c0,0,0.1,0,0.2,0c0.1,0,0.1,0.1,0.1,0.2
			c0.1,0,0.1,0.2,0.1,0.2c0,0.1,0.1,0.1,0.2,0.2l0.4,0.4c0.1,0.3,0.3,0.6,0.5,0.9l0.1,0.2c0.1,0.3,0.1,0.6,0.2,0.9l0.1,0.4
			c0,0.1,0.1,0.4,0.1,0.5c0,0.2,0,0.3,0,0.5c0,0.1-0.1,0.4-0.1,0.4c0,0.2-0.1,1.1-0.1,1.3v0.5c0,0.1-0.1,0.7-0.2,1
			c0,0.2-0.1,0.4-0.2,0.5c-0.1,0.1-0.1,0.2-0.2,0.3c0,0.1-0.2,0.4-0.3,0.5c0,0.1-0.1,0.4-0.1,0.5v0.1v0.1c0,0.1,0,0.2-0.1,0.2
			c-0.1,0.2-0.2,0.4-0.3,0.6c0,0.1-0.1,0.4-0.1,0.4c0,0.1-0.1,0.5-0.1,0.5c0,0.1-0.1,0.1-0.2,0.2c-0.1,0-0.1,0-0.1,0s-0.2,0-0.2-0.1
			c0-0.2,0-0.3-0.1-0.4c0-0.1,0-0.2,0-0.3C89.9,140.6,89.8,140.5,89.8,140.5z M89.5,128.4c-0.1,0-0.3-0.4-0.4-0.4l-0.1-0.2
			c0,0,0-0.1,0-0.2c0-0.1,0-0.2,0-0.3c0,0,0-0.2,0-0.3v-0.3c0-0.1,0.1-0.2,0.1-0.2s0-0.1,0-0.2c0,0,0-0.2,0.1-0.2
			c0,0,0.1-0.2,0.2-0.2c0-0.1,0.2-0.2,0.3-0.2s0.2,0.1,0.3,0.1s0.2-0.1,0.4-0.1s0.3,0.1,0.5,0.1c0.1,0,0.3,0.1,0.4,0.2
			c0,0,0.1,0,0.1,0.1l0.2,0.1c0.1,0.1,0.1,0.2,0.2,0.3l0.1,0.1c0,0.1,0.1,0.2,0.1,0.3c0,0.2-0.1,0.4-0.2,0.7c0,0.1,0,0.2-0.1,0.3
			c0,0-0.1,0.1-0.1,0.2c0,0.1-0.2,0.3-0.2,0.3c-0.1,0-0.2,0.2-0.2,0.2h-0.1c-0.1,0-0.1,0-0.3,0c-0.1,0-0.2,0-0.3-0.1
			c0,0-0.1,0-0.2,0l-0.3-0.1c0,0-0.1,0-0.2,0L89.5,128.4z"/>
		<path class="st5" d="M100.2,140.4c0-0.1,0-0.4,0-0.5s0-0.2,0-0.3v-0.1l-0.6,0.2l-0.5,0.3l-0.3,0.2c-0.1,0.1-0.3,0.2-0.4,0.3
			c-0.1,0-0.4,0.3-0.5,0.4l-0.3,0.1c-0.1,0-0.3,0.1-0.4,0.1c-0.1,0-0.3,0-0.3,0c-0.2,0-0.5-0.1-0.7-0.1c0-0.1-0.5-0.2-0.6-0.4
			c-0.1,0-0.2-0.1-0.3-0.2l-0.4-0.4c-0.2-0.1-0.3-0.3-0.5-0.5l-0.3-0.5l-0.1-0.2c-0.1-0.2-0.1-0.4-0.2-0.7l-0.1-0.5
			c0,0,0-0.3-0.1-0.3v-0.1c0-0.1-0.1-0.3-0.1-0.4c0-0.1,0-0.2,0-0.3s0-0.7,0-0.9v-0.4v-0.1v-0.9c0-0.1,0-0.3,0-0.4l0.1-0.9
			c0-0.1,0.1-0.3,0.1-0.3s0.1-0.3,0.2-0.4c0-0.1,0.1-0.3,0.2-0.4l0.2-0.3v-0.2c0.1,0,0-0.2,0.2-0.3v-0.1c0.1-0.2,0.4-1,0.5-1.1
			c0.1-0.3,0.3-0.6,0.6-0.7c0.1,0,0.2-0.1,0.3-0.1c0.2,0,0.3,0.2,0.4,0.4v0.1c0,0.1,0.1,0.2,0.1,0.3v0.3c0,0.2,0,0.4,0,0.6
			c0.1,0.1,0.1,0.2,0.2,0.3c0,0,0,0.1,0.1,0.1l0.1,0.4c0,0.1,0,0.2,0,0.2c0,0.1-0.1,0.4-0.1,0.5v0.1c0,0.1-0.2,0.6-0.2,0.7
			c0,0.1,0,0.2-0.1,0.2l-0.1,0.1c-0.1,0.2-0.1,0.5-0.2,0.7l-0.1,0.6v0.5l-0.2,1.8v0.9v0.1c0,0.3,0.2,0.6,0.3,0.9l0.1,0.1
			c0,0,0.4,0.3,0.5,0.3c0.1,0.1,0.3,0.1,0.4,0.2c0.3,0,0.5,0,0.8,0c0.1,0,0.2,0,0.2,0s0.4-0.1,1.5-0.7l0.2-0.2l0.6-0.4
			c0.1-0.1,0.1-0.1,0.1-0.1v-0.2c0-0.2,0-0.5,0-0.7c0-0.3,0-0.5,0-0.9c0,0,0,0,0-0.1c0-0.2,0.1-0.4,0.1-0.5v-0.2
			c0.1-0.3,0.1-0.6,0.1-0.9c0-0.1,0.1-1,0.2-1.1v-0.2v-0.3c0-0.1,0.1-0.5,0.1-0.6c0-0.3,0.1-0.9,0.1-0.9c0-0.1,0.1-0.3,0.1-0.4
			l0.1-0.5c0-0.1,0.1-0.1,0.1-0.3l0.2-0.7c0,0,0.1-0.1,0.1-0.2c0.1-0.1,0.2-0.3,0.3-0.3c0,0,0.2-0.1,0.3-0.1c0.2,0,0.6,0.3,0.7,0.4
			c0.1,0.1,0.3,0.3,0.4,0.4l0.3,0.4l0.1,0.2c0.1,0.1,0.1,0.2,0.2,0.4c0.1,0.1,0.4,0.5,0.4,0.6l0.1,0.1l0.2,0.3
			c0.2,0.3,0.3,0.7,0.3,1v0.1c0,0.1,0.1,0.2,0.1,0.2v0.2c0,0,0.1,0.6,0.1,0.7v0.1c0,0.3,0,0.6,0,0.9c0,0-0.1,0.2-0.1,0.3l-0.1,0.4
			c0,0.4-0.2,0.7-0.2,1c0,0.1-0.1,0.3-0.1,0.3v0.3l-0.1,0.2l-0.1,0.2l-0.1,0.1v0.2c0,0.2-0.1,0.3-0.2,0.4c0,0.1-0.2,0.3-0.3,0.3
			l-0.3,0.3l-0.2,0.3c-0.2,0.2-0.4,0.3-0.6,0.5c0,0-0.1,0-0.1,0.1s-0.3,0.4-0.3,0.5s-0.1,0.2-0.1,0.2c-0.1,0.1-0.3,0.3-0.4,0.4
			c0,0-0.2,0.2-0.3,0.2c-0.1,0.1-0.1,0-0.1,0.1c-0.2,0.2-0.3,0.3-0.6,0.4h-0.1c-0.4,0-0.4-0.3-0.5-0.6L100.2,140.4z"/>
		<path class="st5" d="M111.7,139.7c0-0.1,0-0.4,0-0.4s0-0.1,0-0.2c0-0.1,0-0.2,0-0.3s0-0.2,0-0.4V138c0-0.4,0-0.7,0.1-1v-0.2
			c0,0,0,0,0-0.3c0-0.1,0-0.5,0-0.5v-0.6c0-0.2,0-0.5-0.1-0.7c0-0.1,0-0.4,0-0.4c0-0.1,0-0.1,0-0.4v-0.1v-0.2c0-0.1,0-0.3,0-0.4
			c0-0.1-0.1-0.3-0.1-0.5c0-0.1-0.1-0.4-0.1-0.4c0-0.1-0.2-0.4-0.2-0.4c-0.2-0.3-0.2-0.3-0.2-0.3c-0.1-0.1-0.1-0.2-0.3-0.2
			c-0.1,0-0.3,0-0.4,0.1l-0.4,0.3c0,0.1-0.2,0-0.3,0.3l-0.4,0.4c0,0.1-0.2,0.3-0.3,0.4c-0.1,0.1-0.1,0.1-0.2,0.2l-0.3,0.5
			c-0.1,0.2-0.1,0.3-0.2,0.5c0,0.1,0,0.2,0,0.3v0.2c0,0.1,0,0.7,0,0.8c-0.1,1.5-0.2,1.9-0.3,2.2c-0.2,0.5-0.4,0.8-0.6,1.3l-0.1,0.1
			c-0.1,0.1-0.1,0.2-0.1,0.3c0,0,0,0.2-0.1,0.3c0,0.1-0.1,0.3-0.2,0.4c-0.1,0-0.1,0-0.2,0c-0.1,0-0.1,0-0.2,0l-0.2-0.6
			c0-0.1-0.1-0.2-0.1-0.3v-1c0,0-0.1-0.4-0.1-0.5v-0.2c0-0.1,0-0.2,0-0.3s-0.1-0.6-0.2-0.7c0-0.1,0-0.4,0-0.4c0-0.1,0-0.6,0-0.6
			v-0.3c0-0.1,0-0.7,0-0.8c0-0.2,0-0.4,0-0.7c0-0.5,0.1-1.1,0.2-1.6l0.2-0.9c0.1-0.1,0.1-0.3,0.1-0.4c0-0.1,0.1-0.4,0.2-0.4
			c0,0,0.1-0.1,0.2-0.1c0.1,0,0.3,0.1,0.3,0.1l0.2,0.2l0.2,0.3c0.1,0.1,0.2,0.3,0.3,0.5l0.2,0.5c0,0.1,0.1,0.2,0.1,0.3
			c0.1-0.3,0.5-0.5,0.5-0.6c0.1-0.1,0.2-0.2,0.3-0.3c0.3-0.2,0.5-0.4,0.8-0.6c0.1,0,0.1-0.1,0.2-0.1l0.4-0.2c0.1,0,0.1,0,0.3,0
			c0.1,0,0.3,0.1,0.5,0.1c0.1,0,0.4,0.1,0.4,0.1h0.1l1,0.5c0.1,0,0.3,0.1,0.4,0.3l0.1,0.1c0,0,0.2,0.2,0.3,0.2
			c0.1,0.1,0.2,0.3,0.4,0.4c0.1,0,0.3,0.3,0.3,0.3h0.1c0.1-0.2,0.3-0.3,0.5-0.5l0.2-0.2c0,0,0.2-0.1,0.2-0.2l0.2-0.2
			c0.3-0.3,0.6-0.6,0.9-0.9c0.1,0,0.2-0.1,0.2-0.1c0.1,0,0.2,0,0.3,0s0.2,0,0.3,0.1l0.3,0.2c0.1,0.1,0.2,0,0.3,0.1
			c0.2,0.1,0.3,0.2,0.5,0.2l0.5,0.4c0.2,0.1,0.4,0.2,0.6,0.4c0.1,0.1,0.7,0.7,0.8,0.9l0.3,0.3l0.2,0.3c0.1,0.1,0.2,0.2,0.2,0.3
			l0.2,0.4l0.4,1l0.1,0.2c0.1,0.2,0.2,0.5,0.1,0.8c0,0.2-0.1,0.3-0.1,0.5c0,0.1,0,0.3,0,0.4v0.1c0,0-0.1,0.4-0.2,0.5
			c0,0.1,0,0.1,0,0.2v0.2c0,0.2-0.2,0.3-0.3,0.5c-0.1,0.1-0.1,0.1-0.2,0.2c0,0-0.2,0.2-0.2,0.3c-0.3,0.4-0.8,0.6-1.2,0.8
			c-0.1,0-0.3,0.1-0.4,0.2l-1.1,1c-0.1,0-0.2,0.2-0.4,0.2h-0.1c0-0.1,0-0.2,0-0.4v-0.3c0-0.1,0-0.3,0-0.4c0-0.1,0-0.2,0.1-0.4
			c0,0,0-0.1,0.1-0.2l0.2-1.7l0.1-0.4c0.1-0.2,0.1-0.4,0.1-0.6v-0.4c0-0.1,0-0.3,0.1-0.5c0-0.2,0-0.4,0-0.5c0-1.1,0-1.1,0-1.1
			c0-0.2,0-0.6,0-0.6c0-0.1,0-0.2,0-0.3c-0.1-0.1-0.1-0.3-0.1-0.4c-0.1-0.1-0.2-0.2-0.2-0.3c-0.1-0.1-0.3-0.3-0.5-0.3
			s-0.3,0.1-0.5,0.2c-0.3,0.2-0.6,0.4-1,0.7l-0.4,0.5c-0.1,0.1-0.1,0.1-0.1,0.2v0.2c0,0.2,0.1,0.3,0.1,0.5v0.1v0.3
			c0,0.2,0.1,0.4,0.2,0.5v0.1c0,0.1,0,0.4,0,0.4c0,0.1-0.1,0.2-0.1,0.3c-0.1,0.1-0.1,0.3-0.2,0.4L115,137v0.1
			c-0.2,0.3-0.4,0.4-0.7,0.7c0,0.1-0.2,0.4-0.3,0.4v0.1l-0.2,0.3l-0.4,0.6c0,0-0.2,0.2-0.3,0.3l-0.1,0.1l-0.2,0.4l-0.2,0.3
			c0,0.1-0.1,0.4-0.2,0.4c-0.1,0.1-0.2,0.3-0.4,0.3c-0.1,0-0.2-0.1-0.2-0.2l-0.1-0.2C111.8,139.9,111.7,139.8,111.7,139.7z"/>
		<g>
			<path class="st5" d="M61.5,138.3c0,0,0-0.3-0.1-0.3c-0.1-0.3-0.5-1.8-0.6-2.1c0-0.1-0.2-0.4-0.2-0.4l-0.1-0.2l-0.3-1
				c-0.1-0.1-0.1-0.2-0.2-0.3l-0.6,1.3v0.1c-0.2,0.4-0.4,0.8-0.6,1.2c-0.1,0.3-0.2,0.6-0.3,0.8c-0.1,0.3-0.5,0.5-0.5,0.8
				c-0.1,0-0.3,0.2-0.3,0.2s-0.1,0-0.2,0c0,0,0,0-0.1,0c-0.2,0-0.3-0.1-0.4-0.1c-0.2-0.1-0.3-0.3-0.5-0.5c0,0-0.1-0.1-0.1-0.2
				l-0.2-0.3c-0.1-0.1-0.2-0.3-0.2-0.4l-0.4-0.7l-0.1-0.2c0,0-0.1-0.3-0.1-0.4c-0.2-0.3-0.3-0.7-0.5-1c0,0-0.2-0.4-0.3-0.5
				c0-0.1,0-0.2-0.1-0.2c0-0.1-0.2-0.4-0.3-0.5l-0.1-0.2c0-0.1-0.2-0.3-0.2-0.3v0.2c-0.1,0.3-0.1,0.4-0.1,0.4c0,0.1,0,0.3-0.1,0.4
				c0,0,0,0.3,0,0.4l-0.1,0.8l-0.1,0.3c0,0.1,0,0.6,0,0.6l-0.1,0.5l-0.2,1.8c-0.1,0.1,0,0.3-0.1,0.5l-0.2,0.7l-0.1,0.3
				c0,0.1-0.2,0.6-0.3,0.8c-0.1,0.2-0.2,0.3-0.3,0.4c-0.1,0.1-0.3,0.1-0.4,0.2l-0.2,0.1l-0.3,0.2H51c-0.1,0-0.2-0.1-0.3-0.1
				c0,0-0.1-0.1-0.1-0.2c0-0.1,0-0.1,0-0.2c0-0.1-0.2-0.7-0.2-0.9s-0.1-0.8-0.1-0.9l0.1-2.1l0.2-1.3v-0.2c0.1-0.5,0.2-1,0.3-1.5
				c0,0,0.1-0.2,0.1-0.3l0.1-0.6c0.1-0.2,0.1-0.4,0.1-0.6c0-0.3,0.1-0.6,0.2-0.9l0.3-1.5c0,0,0.1-0.4,0.1-0.5
				c0.1-0.4,0.2-0.8,0.3-1.3l0.1-0.2c0.1-0.2,0.2-0.4,0.2-0.5l0.1-0.2l0.2-0.5c0.1,0,0.1-0.1,0.1-0.2c0.1-0.2,0.2-0.3,0.5-0.3
				c0.2,0,0.5,0.2,0.5,0.3s0.1,0.2,0.1,0.3c0.1,0.1,0.1,0.3,0.2,0.4l0.1,0.2c0,0.1,0.2,0.2,0.2,0.2c0.1,0.2,0.2,0.4,0.3,0.7
				c0,0,0,0.2,0.1,0.2s0.2,0.4,0.2,0.5l0.4,0.7l0.2,0.4l0.1,0.2c0,0,0.1,0.3,0.2,0.4c0.1,0.1,0.2,0.3,0.3,0.4l0.1,0.1
				c0.2,0.5,0.4,1,0.6,1.5c0.1,0.1,0.2,0.4,0.3,0.5c0-0.4,0.1-0.6,0.2-1l0.2-0.8c0,0,0.1-0.4,0.1-0.5c0-0.3,0-0.6,0.1-0.8
				c0-0.1,0.1-0.3,0.1-0.4l0.1-0.7l0.1-0.3c0.1-0.3,0-0.6,0.1-0.8s0.1-0.3,0.2-0.5l0.1-0.2c0,0,0-0.1,0-0.2c0.1-0.4,0.1-0.5,0.1-0.5
				c0-0.1,0.1-0.3,0.1-0.4l0.1-0.1c0,0,0-0.1,0.1-0.1s0.2-0.1,0.3-0.2c0.1,0,0.2,0,0.3,0.1l0.2,0.2c0,0,0.1,0,0.2,0.1
				s0.3,0.3,0.3,0.3l0.1,0.1c0.1,0.2,0.2,0.5,0.3,0.6l0.1,0.2c0,0,0.1,0.1,0.1,0.2c0.1,0.1,0.1,0.2,0.1,0.4l0.3,0.9
				c0,0.2,0.1,0.4,0.1,0.5c0,0.2,0.1,0.1,0.2,0.2c0,0.1,0.1,0.2,0.1,0.3l0.6,2.1c0,0,0,0.2,0,0.3s0.1,0.2,0.2,0.3
				c0.3,0.3,0.3,1.2,0.3,1.2c0,0.1,0.1,0.2,0.1,0.3c0.1,0.1,0,0.4,0.1,0.5c0,0,0,0.3,0.1,0.4c0,0.2,0.1,0.4,0.2,0.5v0.1
				c0.2,1,0.2,2,0.3,3c0,0.2,0.1,0.5,0.1,0.7c0,0.1,0,0.3,0,0.4c0,0.1,0,0.2,0,0.3c0,0.2,0,0.4-0.1,0.6c0,0.1-0.1,0.1-0.3,0.1
				c-0.1,0-0.2,0-0.2,0c-0.1,0-0.1,0-0.1-0.1c-0.4-0.2-0.5-0.6-0.6-1c0-0.1,0-0.2-0.1-0.3L61.5,138.3z"/>
		</g>
	</g>
	<g>
		<path class="st5" d="M70.1,181.2c-0.1-0.2-0.1-0.4-0.1-0.7l-0.4-1.2l-0.1-0.2l-0.6-2.3c0-0.1-0.1-0.4-0.1-0.5s0-0.7-0.1-0.9v-0.3
			c0-0.1,0-0.4,0-0.5l0.1-1.4V173c0.1-0.6,0.4-1,0.6-1.5l0.1-0.3c0-0.2,0.1-0.4,0.3-0.5c0-0.1,0.2-0.2,0.2-0.2l0.1-0.3
			c0-0.1,0.2-0.2,0.2-0.3l0.1-0.2l0.1-0.2l0.1-0.1c0,0,0.2,0,0.2,0.1c0.1,0,0.1,0.1,0.1,0.2c0.1,0,0.1,0.2,0.1,0.2
			c0,0.1,0.1,0.1,0.2,0.2l0.4,0.5c0.1,0.4,0.4,0.7,0.6,1c0,0,0.1,0.2,0.2,0.2c0.1,0.3,0.2,0.7,0.2,1l0.1,0.5c0,0.1,0.1,0.5,0.1,0.5
			c0,0.2,0,0.4,0,0.6c0,0.1-0.1,0.4-0.1,0.5c0,0.2-0.1,1.2-0.1,1.5v0.6c0,0.1-0.2,0.8-0.2,1.1c0,0.2-0.1,0.4-0.2,0.6
			c-0.1,0.1-0.1,0.2-0.2,0.3c0,0.1-0.3,0.5-0.3,0.6s-0.1,0.4-0.1,0.5v0.1c0,0,0,0.1,0,0.2c0,0.1-0.1,0.2-0.1,0.3
			c-0.1,0.2-0.3,0.5-0.3,0.7c0,0.1-0.1,0.4-0.1,0.5s-0.1,0.5-0.2,0.6c0,0.1-0.2,0.2-0.2,0.2c-0.1,0-0.2,0.1-0.2,0.1s-0.2,0-0.2-0.1
			c0-0.2,0-0.3-0.1-0.5c0-0.1,0-0.2,0-0.4C70.2,181.4,70.1,181.3,70.1,181.2z M69.9,167.6c-0.1,0-0.4-0.4-0.4-0.5
			c0,0-0.1-0.2-0.1-0.3c0,0,0-0.2-0.1-0.2c0-0.1,0-0.2,0-0.3c0,0,0-0.2,0-0.3v-0.3c0-0.1,0.1-0.2,0.1-0.2v-0.2l0.1-0.2
			c0,0,0.1-0.2,0.2-0.3c0-0.1,0.3-0.2,0.3-0.2c0.1,0,0.3,0.1,0.3,0.1c0.1,0,0.3-0.1,0.5-0.1s0.3,0.1,0.5,0.1c0.1,0,0.3,0.1,0.4,0.2
			c0,0,0.1,0,0.1,0.1l0.2,0.1c0.1,0.1,0.1,0.2,0.2,0.4l0.1,0.1c0,0.1,0.1,0.2,0.1,0.4s-0.1,0.5-0.2,0.8c0,0.1,0,0.2-0.1,0.4
			c0,0-0.1,0.1-0.1,0.2c0,0.1-0.2,0.4-0.2,0.4c-0.1,0-0.2,0.2-0.2,0.2h-0.2c-0.1,0-0.2,0.1-0.3,0c-0.1,0-0.2-0.1-0.3-0.1h-0.2
			l-0.3-0.1c0,0-0.1,0-0.2-0.1L69.9,167.6z"/>
		<path class="st5" d="M75.3,183c-0.1-0.2-0.1-0.4-0.2-0.6c-0.2-0.4-0.5-1.4-0.5-1.7c0,0,0-0.4-0.1-0.4c-0.1-0.1,0-0.4-0.1-0.5
			c0-0.2,0-0.4,0-0.6c0-0.2,0-0.4,0-0.6l0.1-1.6c0-0.5-0.1-0.9-0.1-1.4v-0.4c0-0.1,0-0.7,0-0.8c0-0.2,0-0.4-0.1-0.6v-0.6
			c0-1,0.1-2.3,0.1-2.3v-0.3l0.1-0.8c0-0.2,0.2-0.6,0.2-0.6v-0.4c0-0.1,0-0.3,0-0.3c0-0.2,0.1-1.4,0.2-1.5c0-0.2,0.2-1.1,0.3-1.3
			l0.3-1c0-0.2,0.2-0.5,0.4-0.7c0.1-0.1,0.1-0.2,0.1-0.3c0.1-0.1,0.1-0.3,0.1-0.4c0.1-0.1,0.3-0.4,0.5-0.4c0.1,0,0.1,0,0.2,0.1
			c0.1,0.1,0.2,0.2,0.3,0.3c0.3,0.4,0.3,0.6,0.4,0.7l0.2,0.4c0.1,0.3,0.1,0.6,0.2,0.7v0.1l0.3,0.4c0.2,0.2,0.3,0.7,0.4,0.9
			c0,0,0.1,0.3,0.1,0.6v0.4l-0.1,1.8c0.1,0.3,0.1,0.6,0.1,0.9c0,0.1,0,0.3,0,0.3v0.5v0.4c0,0.1,0,0.2,0,0.3l-0.1,0.9
			c0,0.1,0,0.2,0,0.4c0,0.1-0.1,0.3-0.1,0.3v0.6c0,0.2-0.2,1.3-0.2,1.5l-0.3,0.9c0,0-0.1,0.2-0.1,0.3s-0.2,0.2-0.2,0.3
			c-0.1,0.3-0.2,0.5-0.4,0.7c-0.1,0.2-0.1,0.4-0.2,0.5l-0.2,0.3c-0.1,0.2-0.1,0.4-0.1,0.7c0,0.2-0.2,1.2-0.3,1.5
			c0,0.2-0.1,0.6-0.3,0.8l-0.1,0.2c-0.1,0.1-0.1,0.4-0.2,0.5c0,0-0.1,0.3-0.1,0.4c0,0.1,0,0.2,0,0.3c-0.1,0.2-0.1,0.5-0.3,0.5h-0.1
			C75.5,183.3,75.3,183.1,75.3,183z"/>
		<path class="st5" d="M87.1,182.9c0-0.1,0-0.2,0-0.3c0,0-0.1-0.4,0-0.5l-0.3,0.1c-0.2,0.1-0.6,0.3-0.7,0.3
			c-0.2,0.1-0.5,0.2-0.8,0.2c0,0-0.8,0.1-1.6,0.1c0,0-1-0.2-1.3-0.3c-0.1,0-0.3-0.1-0.4-0.2c-0.3-0.1-0.7-0.4-1-0.6
			c-0.1-0.1-0.4-0.5-0.5-0.6c-0.2-0.2-0.3-0.5-0.4-0.8c-0.2-0.3-0.4-0.7-0.5-1c0,0-0.1-0.4,0-0.5c0-0.2-0.2-0.3-0.3-0.5
			c0-0.1,0-0.3,0-0.5c0,0,0-0.2,0-0.3c0-0.2,0-0.4,0-0.5c0.1-0.1,0.1-0.4,0.2-0.5c0.1-0.3,0.2-0.5,0.3-0.7c0.1-0.1,0.1-0.3,0.2-0.4
			c0-0.1,0.1-0.2,0.2-0.3c0.3-0.3,0.5-0.7,0.9-0.9l0.3-0.2l0.7-0.3c0.1-0.1,0.4-0.1,0.6-0.1c0.4-0.1,0.8-0.2,1.2-0.2c0,0,0,0,0.1,0
			c0.4,0,0.5,0,0.6,0.1H85c0.1,0,0.5,0,0.5,0c0.1,0,0.4,0.1,0.5,0.1c0.2,0,0.3,0,0.5,0v-0.1v-0.9c0,0,0.2-1.3,0.3-1.8
			c0,0,0.1-0.4,0.1-0.5c0-0.2,0.1-0.4,0.1-0.6c0.1-0.3,0.1-0.6,0.2-0.8l0.1-1.4l0.1-0.3v-0.5c0-0.3,0.2-0.6,0.4-0.8
			c0-0.1,0.1-0.1,0.1-0.2l0.1-0.3l0.1-0.2l0.1-0.1c0.1-0.1,0.2-0.1,0.4-0.1c0.1,0,0.1,0,0.2,0.1c0.1,0.1,0.2,0.2,0.3,0.4
			c0,0,0.1,0.2,0.2,0.3c0,0,0.1,0.1,0.1,0.2c0,0.1,0.1,0.1,0.1,0.1c0.3,0.6,0.3,0.6,0.3,0.6s0.1,0.2,0.1,0.3
			c0.1,0.3,0.3,0.7,0.3,1.1c0.1,0.4,0.2,0.8,0.1,1.2l0.1,0.3c0,0.1,0,0.2,0,0.2c0,0.1,0,0.2,0.1,0.2c0.1,0.1,0,0.3,0.1,0.4l0.1,0.2
			c0,0.1,0,0.5,0.1,0.6c0,0.2,0,0.4,0,0.6c0,0.1,0.1,0.7,0.1,0.8v0.2c0,0.4-0.1,0.8-0.1,1.2c0,0,0,0.6,0,0.7v0.6v0.6l-0.1,0.4
			c0,0.3-0.1,0.6-0.2,1l-0.2,0.5c0,0.2-0.1,0.3-0.1,0.6c-0.1,0.2,0,0.4-0.2,0.7l-0.2,0.4l-0.2,0.2c-0.1,0.2-0.1,0.4-0.2,0.5
			c-0.1,0.2-0.2,0.3-0.2,0.5c0,0.1-0.1,0.4-0.1,0.4l-0.1,0.3c-0.1,0.3-0.2,0.5-0.3,0.7l-0.3,0.4c0,0.1-0.2,0.3-0.2,0.3
			c-0.2,0.2-0.2,0.3-0.4,0.5l-0.2,0.3c-0.1,0.1-0.1,0.1-0.1,0.1h-0.2c-0.1-0.1-0.2-0.2-0.2-0.3C87,183.3,87.1,183.1,87.1,182.9z
			 M82.2,179.2v0.3v0.5l0.2,0.3l0.1,0.3c0.2,0.4,0.4,0.5,0.9,0.7c0,0.1,0.5,0.1,0.6,0.2c0.1,0,0.3,0,0.4,0c0.3,0,0.7-0.1,1-0.1
			c0.1,0,0.4-0.1,0.5-0.2c0,0,0.2-0.2,0.3-0.2c0.3-0.1,0.7-0.4,0.8-0.5v-0.1c0-1-0.1-1.9-0.2-2.9c0,0,0-0.2,0-0.3l-0.1-0.5
			c0-0.3-0.1-0.8-0.2-1.1c0-0.1,0-0.2,0-0.5c0-0.2,0-0.4,0-0.5c0,0-0.1,0-0.2,0h-0.4c-0.2,0-0.4,0.2-0.7,0.2c-0.1,0-0.2,0.1-0.3,0.1
			l-0.2,0.2l-0.3,0.2c-0.3,0.2-0.7,0.3-0.9,0.5l-0.6,0.8l-0.5,0.5c0,0.2-0.2,0.5-0.2,0.6c0,0,0,0.1,0,0.3c0,0.1,0,0.3,0.1,0.4
			C82.2,178.7,82.2,179.1,82.2,179.2z"/>
		<g>
			<path class="st5" d="M65,180c0,0,0-0.4-0.1-0.4c-0.1-0.4-0.5-2.3-0.6-2.6c0-0.1-0.2-0.5-0.2-0.6s-0.1-0.2-0.1-0.3l-0.2-1.3
				c-0.1-0.2-0.1-0.3-0.2-0.4l-0.9,1.6v0.1c-0.3,0.5-0.6,1-0.9,1.5c-0.2,0.3-0.3,0.7-0.5,1c-0.1,0.3-0.6,0.6-0.7,0.9
				c-0.1,0-0.3,0.3-0.4,0.3s-0.2,0-0.2,0h-0.1c-0.2,0-0.4-0.1-0.5-0.2c-0.2-0.2-0.4-0.4-0.5-0.7l-0.1-0.2c0-0.1-0.2-0.4-0.2-0.4
				c-0.1-0.1-0.3-0.4-0.3-0.5l-0.4-0.9c0,0-0.1-0.2-0.1-0.3c0,0-0.1-0.4-0.1-0.5c-0.2-0.4-0.3-0.9-0.5-1.3c0-0.1-0.3-0.6-0.3-0.7
				c0-0.1,0-0.3-0.1-0.3c0-0.1-0.2-0.5-0.3-0.7c0,0-0.1-0.2-0.1-0.3s-0.2-0.4-0.2-0.4l-0.1,0.2c-0.2,0.3-0.2,0.4-0.2,0.5
				s-0.1,0.4-0.2,0.5c0,0-0.1,0.4-0.1,0.5l-0.2,1l-0.1,0.3c0,0.1,0,0.7,0,0.8l-0.1,0.6l-0.5,2.2c-0.1,0.1-0.1,0.4-0.2,0.6l-0.3,0.9
				l-0.2,0.3c0,0.1-0.4,0.8-0.5,0.9c-0.1,0.2-0.2,0.3-0.4,0.5c-0.2,0.1-0.4,0.1-0.6,0.3l-0.3,0.1c-0.1,0-0.4,0.2-0.4,0.2h-0.4
				c-0.1,0-0.3-0.1-0.4-0.2l-0.1-0.2c0-0.1,0-0.1,0-0.2c0-0.2-0.2-0.9-0.2-1.2c0-0.2,0-1,0-1.2l0.3-2.6l0.3-1.6v-0.2
				c0.2-0.6,0.3-1.2,0.5-1.8c0.1,0,0.1-0.2,0.1-0.4l0.2-0.7c0.1-0.2,0.1-0.5,0.2-0.7c0.1-0.3,0.2-0.7,0.3-1.1l0.5-1.8
				c0,0,0.1-0.4,0.2-0.6c0.2-0.5,0.4-1,0.5-1.5c0.1,0,0.2-0.2,0.2-0.2c0.1-0.2,0.2-0.4,0.4-0.7l0.1-0.3l0.3-0.7
				c0.1,0,0.1-0.1,0.2-0.2c0.2-0.2,0.3-0.3,0.6-0.3c0.2,0,0.6,0.2,0.7,0.4c0,0.1,0.1,0.3,0.2,0.4c0.1,0.1,0.1,0.3,0.2,0.5l0.2,0.2
				c0,0.1,0.2,0.2,0.2,0.3c0.1,0.3,0.2,0.6,0.3,0.9c0,0,0,0.2,0.1,0.3c0.1,0,0.2,0.6,0.2,0.7l0.5,0.9l0.2,0.5c0,0.1,0.1,0.2,0.1,0.3
				c0,0,0.2,0.4,0.2,0.5c0.2,0.1,0.2,0.3,0.3,0.5c0,0,0.1,0.1,0.1,0.2c0.2,0.6,0.4,1.3,0.6,1.9c0.2,0.2,0.2,0.5,0.3,0.6
				c0-0.5,0.2-0.8,0.4-1.2l0.3-0.9c0,0,0.1-0.4,0.2-0.6c0-0.3,0.1-0.7,0.2-1c0-0.1,0.1-0.3,0.1-0.5l0.1-0.8c0,0,0.1-0.3,0.1-0.4
				c0.1-0.3,0.1-0.7,0.1-1c0.1-0.2,0.2-0.4,0.3-0.6l0.2-0.2c0-0.1,0.1-0.2,0.1-0.2c0.1-0.5,0.1-0.6,0.1-0.6c0-0.1,0.1-0.3,0.2-0.5
				l0.2-0.1c0.1,0,0-0.1,0.1-0.1c0.2,0,0.3-0.2,0.4-0.2c0.2,0,0.3,0.1,0.4,0.2l0.3,0.2c0,0,0.1,0.1,0.3,0.1c0.1,0.1,0.3,0.4,0.3,0.4
				l0.1,0.1c0.1,0.2,0.1,0.7,0.3,0.8l0.1,0.3c0,0,0.1,0.2,0.1,0.3c0.1,0.1,0.1,0.3,0.1,0.5l0.3,1.1c0,0.2,0.1,0.6,0.1,0.6
				c0,0.2,0.1,0.2,0.2,0.3c0,0.1,0.1,0.3,0.1,0.4l0.6,2.7c0,0,0,0.3,0,0.4c0,0.1,0.2,0.3,0.2,0.4c0.3,0.4,0.3,1.5,0.3,1.5
				c0,0.1,0.1,0.3,0.2,0.4c0.1,0.1,0,0.4,0.1,0.6c0,0.1,0,0.4,0.1,0.5c0,0.2,0.1,0.5,0.2,0.7v0.2c0.1,1.3,0,2.5,0.1,3.7
				c0,0.3,0.1,0.6,0.1,0.9c0,0.2,0,0.3,0,0.5c0,0.1,0,0.2,0,0.4s-0.1,0.5-0.2,0.7c0,0.1-0.2,0.1-0.3,0.2c-0.1,0-0.2,0-0.3,0
				c-0.1,0-0.1,0-0.1-0.1c-0.5-0.3-0.5-0.8-0.7-1.3c0-0.2,0-0.3-0.2-0.4L65,180z"/>
		</g>
	</g>
	<g>
		<path class="st5" d="M54,99.4L53.8,99L53,97.1c0,0-0.3-1.7-0.4-2.4c0,0-0.1-0.5-0.1-0.6v-0.3c0-0.3,0-0.5-0.2-0.7
			C52.1,92,52,90.8,52,89.7l-0.1-1.4c0-0.1,0-1.1,0-1.2V86c0-0.1,0-0.4,0.1-0.5c0-0.1,0.5-1.3,0.5-1.5c0.2-0.5,0.8-2.7,0.9-3.2
			c0.1-0.2,0.2-0.3,0.2-0.5c0.1-0.2,0.1-0.4,0.2-0.6c0-0.2,0.4-0.3,0.4-0.6c0.2-0.2,0.5-0.5,0.9-0.5c0.3,0,0.8,0.3,0.9,0.5
			c0.5,0.4,1,1.4,1.2,2c0.1,0.3,0.1,0.6,0.2,0.9l0.4,1.3c0,0,0.1,0.3,0.1,0.4l0.5,0.8c0,0,0,0.1,0,0.2c0.2,0.9,0.3,1.7,0.3,2.6
			c0,0.5,0,0.8,0,0.8c0,0.5,0.1,0.6,0.4,0.6l3.1-0.1c0.1,0,1.8,0.1,2.6,0.2c0.2,0,0.4,0.1,0.7,0v-2.5c0.1-0.4,0.4-2.1,0.5-2.5
			c0,0,0-0.6,0-0.7c0.1-0.1,0.1-0.8,0.3-1c0-0.1,0.3-0.7,0.3-0.8c0,0,0.1-0.5,0.1-0.7c0-0.3,0.1-0.7,0.2-1c0.1-0.3,0-0.7,0.1-1.1
			c0.2-0.4,0.5-0.6,0.5-1c0.1-0.2,0.3-0.2,0.4-0.2c0.2,0,0.2,0,0.3,0.1l0.7,0.3c0.2,0.1,0.9,0.8,1,1c0.3,0.3,0.5,0.7,0.8,1
			c0,0,0.5,0.4,0.5,0.5s0.5,0.7,0.6,0.9c0.2,0.3,0.4,0.4,0.4,0.7s0.1,0.7,0.2,0.9c0,0.2,0.1,0.4,0.2,0.6c0,0.2,0.2,0.7,0.3,1V85
			c0,0.6,0,1.1,0.3,1.7l0.3,2.4c0,0.4,0,0.8,0,1.2c0,0.2-0.1,0.4,0,0.6c0,0.2,0,0.2,0.1,0.9c0,0.5,0,0.8,0,1.2s-0.2,1.1-0.2,1.5
			c-0.1,0.4-0.2,0.7-0.3,1.2c0,0.1-0.2,0.5-0.2,0.7c0,0.3-0.2,0.8-0.3,1.2l-0.3,0.2c-0.5,1-0.7,2.2-1,3.3c-0.1,0.6-0.5,1.3-0.5,2
			c0,0.1-0.1,0.6-0.1,0.7v0.2l-0.3,0.7c0,0.1-0.3,0.4-0.5,0.4c-0.3,0-0.4-0.3-0.5-0.5l0,0l-0.2-0.4c-0.2-0.3-0.1-0.8-0.3-1.1
			l-0.4-0.6l-0.4-0.7c0-0.1-0.2-0.6-0.2-0.6c0-0.3-0.3-0.6-0.3-0.9c0-0.2-0.2-0.4-0.2-0.8c-0.1-0.3-0.6-1.6-0.7-1.9
			c0-0.1-0.4-1-0.4-1.1s-0.2-0.6-0.2-0.7c-0.1-0.1-0.2-0.8-0.2-1v-1c0,0-0.1-0.4-0.1-1.1c-0.1-0.2,0-0.4-0.2-0.6
			c-0.2-0.1-1.2-0.3-1.4-0.3c-0.3,0-0.6,0-0.8,0c-0.6,0-1,0.2-1.5,0.4l-1.6,0.1c-0.5,0.2-0.5,0.2-0.5,0.2c0,0.1,0.1,0.3,0.1,1.3
			c0,0.9,0,1.3,0,1.4c0,0.3,0,0.7-0.1,1l0.1,1.9c0,0.1,0,1-0.1,1.3c0,0.3-0.1,0.5-0.2,0.7l-0.2,0.5c-0.1,0.2-0.1,0.5-0.2,0.7
			c0,0.1-0.1,1-0.2,1.1c0,0.1-0.1,0.4-0.1,0.4c0,0.1-0.2,0.6-0.2,0.7c0,0-0.2,0.7-0.2,0.8c-0.1,0.3-0.1,0.6-0.3,0.8
			c-0.1,0.2-0.3,0.4-0.5,0.6c-0.1,0.2-0.3,0.5-0.5,0.6c-0.1,0-0.1,0.1-0.3,0.1c-0.1,0-0.3-0.1-0.4-0.3c-0.2-0.2-0.1-0.7-0.3-0.9
			c-0.1-0.5-0.1-0.9-0.3-1.3l-0.4-0.6c-0.1-0.3-0.1-0.5-0.2-0.9c-0.1-0.3-0.3-0.5-0.4-0.8C54.9,101.3,54.2,99.7,54,99.4z"/>
		<path class="st5" d="M90.2,107.4c-0.1,0-0.7-0.1-0.9-0.1c-0.1,0-0.8-0.2-0.8-0.2c-0.1,0-0.4-0.1-0.4-0.1c-0.4,0-0.9-0.1-1.4-0.2
			c-0.1,0-0.4-0.2-0.6-0.2l-1.1-0.4c-0.5-0.2-0.9-0.5-1.3-0.8l-1-0.7c-0.2,0-0.8-0.4-1.1-0.6c-0.1,0-0.6-0.3-0.7-0.5l-1-0.8
			l-1.3-1.7l-0.7-1c-0.7-1.3-1.3-2.6-1.6-4L76,93.5c0,0,0-0.5,0-0.6c0-0.3,0-0.7,0.1-1.1c0.1-0.5,0.3-1.1,0.3-1.6c0-0.3,0-1,0-1
			c0-0.2,0.1-0.4,0.2-0.6c0-0.1,0.3-0.5,0.3-0.5l0.3-0.7c0.2-0.6,0.8-1.2,0.9-1.7l0.9-1.3c0-0.1,0.5-0.4,0.5-0.6l1-1.6l0.9-1.1
			c0,0,0.9-0.8,1.3-1.2c0.3-0.3,0.6-0.7,1-0.9c0.2-0.2,1.1-0.3,1.4-0.4l2.2-0.2c0.1,0,0.4-0.2,0.6-0.2l0.9-0.4
			c0.1,0,0.2-0.1,0.4-0.1c0.4,0,0.7,0,1.1,0.1c0.4-0.1,1.1,0,1.6,0c0.4,0.1,0.8,0.3,1.2,0.4c0.1,0,0.4,0.1,0.4,0.1H94
			c0.2,0,0.3,0,0.7,0c0.2,0,0.5-0.1,0.8-0.1c0.2,0,2,0.4,2.1,0.4c1.2,0.4,2.3,0.8,3.4,1.5c0.7,0.6,1.7,1.7,2.2,2.3l0.1,0.2l0.6,0.8
			c0,0,0.2,0.3,0.2,0.4l0.9,1.6c0.2,0.4,0.3,1,0.5,1.5l0.4,1c0.1,0,0.1,0.1,0.2,1.1l0.1,0.8c0,0.2,0,0.4,0,0.7l-0.1,4.9
			c0,0.1,0,0.4,0,0.4l-0.4,1.2c-0.1,0.6-0.6,3-0.7,3.6c-0.2,0.3-0.3,0.7-0.4,1l-0.7,1.3c-0.2,0.3-1.1,1.4-1.3,1.5
			c-0.2,0.2-1.1,0.9-1.3,1.1c0,0.1,0,0.2-0.2,0.3c0,0-0.3,0.2-0.4,0.2c-0.3,0.2-0.6,0.6-1,0.6c-0.1,0.1-0.7,0.2-0.7,0.2
			c-0.1,0-0.3,0.1-0.7,0.1c-0.1,0.1-0.7,0.1-0.8,0.1l-2,0.7c-0.4,0.1-0.9,0.1-1.3,0.2l-0.5,0.1c-0.5,0-1,0.1-1.5,0
			C91.6,107.5,90.8,107.6,90.2,107.4z M88.8,99.7c0.1,0.1,0.6,0.6,0.7,0.6c0.2,0.3,0.7,0.7,1,0.9c0.1,0.1,0.6,0.3,0.8,0.3l0.4-0.1
			c0.2,0,0.9,0,0.9,0l1.1,0.4c0.1,0,0.6,0.1,0.8,0.1c0,0,0.5,0,0.7-0.1H96c0.2-0.1,1-0.2,1.1-0.3c0.3-0.1,1.8-0.6,2-0.7
			c0.5-0.3,1.1-0.6,1.4-1.1c0.1-0.4,1-1.8,1.1-2c0.1-0.1,0.5-0.9,0.6-1.1c0-0.1,0.1-0.4,0.1-0.4c0-0.3,0.4-1.9,0.4-2.2l0.1-1.3
			c0-0.4,0-0.8,0-1.3l-0.3-2.2c0-0.2-0.1-0.7-0.1-0.8c0,0-0.2-0.5-0.3-0.6c-0.1-0.3-0.4-1.1-0.4-1.2l-1.6-2.3
			c-0.3-0.3-0.4-0.6-0.8-0.9c-0.2-0.1-0.4-0.1-0.5-0.4l-0.2-0.3c-0.1,0.1-0.4-0.1-0.5-0.2L97.4,82c-0.1,0-0.7-0.4-0.8-0.4
			c0,0-0.7-0.1-0.8-0.1s-0.9-0.1-1.1,0c-0.6,0-1.3-0.4-1.9-0.3c-0.1,0-0.2,0.1-0.3,0.1l-0.9,0.6c-0.3,0.3-0.8,0.6-1.3,1.1l-0.4,1
			l-0.8,0.9c0,0-0.2,0.4-0.2,0.5c-0.5,0.9-0.9,1.9-1.2,2.8l-0.3,2.2c0,0,0,0.2,0,0.3c0,0-0.2,0.5-0.2,0.6c0,0-0.1,0.3-0.1,0.4
			c-0.2,1-0.2,1.9-0.1,3c0.1,0.7,0.1,1.2,0.3,1.9c0,0.2,0.4,1.7,0.5,2.1c0.1,0.4,0.5,0.8,0.8,1C88.5,99.4,88.8,99.6,88.8,99.7z"/>
		<path class="st5" d="M111.1,97v-0.9c0-0.3,0-0.7-0.1-0.9c0.1-1.5,0.2-1.6,0.2-1.6l0.1-2.6l0.1-0.7c0-0.3,0.1-0.1,0.2-0.4l0.2-1.5
			c-0.5-0.2-1-0.3-1.6-0.4l-1.5-0.1c-0.3-0.1-0.6-0.3-0.7-0.6c0,0-0.1-0.1-0.1-0.4c0-0.2,0.1-0.3,0.2-0.5c0.1-0.2,0.3-0.5,0.6-0.6
			h0.3c0.5,0.1,0.5,0,1.4,0h0.6l1.4,0.2c0,0,0.4-1.3,0.5-1.6c0,0,0.1-0.3,0.1-0.4c0-0.1,0.2-1,0.1-1c0.2-0.4,0.4-1,0.7-1.3
			c0.1-0.1,0-0.3,0.2-0.4c0.2-0.4,0.1-0.8,0.4-1.1c0-0.2,0.4-1,0.5-1.1c0,0,0.3-0.4,0.4-0.5l0.3-0.7c0-0.2,0.1-0.4,0.1-0.6
			c0.1-0.4,0.6-0.9,0.9-1.2c0.1-0.1,0.2-0.1,0.3-0.1c0,0,0.1,0.1,0.2,0.1h0.3c0.2,0,0.3,0.1,0.5,0.3l1.1,1.3c0,0,0.3,0.4,0.4,0.5
			c0.2,0.2,0.3,0.4,0.4,0.7c0.1,0.2,0.7,1.7,0.8,1.9s0.2,0.5,0.2,0.7c0,0.1,0.1,1,0.1,1.1c0,0.4,0.2,0.7,0.2,1.1
			c0.1,0,0.2,0.4,0.1,0.6c0,0.1,0,0.4,0,0.5c0,0,0.1,1,0.1,1.1v1.2c0,0,1.2,0,2.1,0c0.4,0,0.7,0.1,0.9,0.1c0.1,0,1,0.2,1,0.2
			c0.5,0.1,1.1,0.3,1.5,0.6c0,0,0.3,0.3,0.3,0.4c0.1,0.1,0.1,0.3,0.1,0.5c0,0.1,0,0.2-0.1,0.2c0,0-0.1,0.2-0.2,0.2
			c-0.2,0.2-0.8,0.3-1.1,0.3l-0.2-0.1c-0.1,0-0.6-0.2-0.7-0.2l-0.6-0.1c-0.2,0.1-1.4,0.1-1.7,0.1c-0.1,0-0.4,0-0.7,0s-0.6,0-0.7-0.1
			c-0.1,0-0.3,0.1-0.3,0.1c0,0.1-0.1,0.6-0.1,0.7c-0.1,0.5-0.2,0.6-0.3,1.1c0,0.3-0.1,0.8-0.1,0.9c-0.1,0.4-0.4,0.8-0.5,1.3
			c0,0.1,0,0.3,0,0.4c0,0,0,0.1-0.1,0.2c-0.1,0.1-0.3,0.6-0.3,0.7l-0.2,0.3l-0.4,0.9v0.5c0,0.2,0.1,1.2,0.1,1.3v0.7l-0.4,3.1
			c0.2,0.4,0.1,0.7,0.3,1.1c0,0,0.2,0.4,0.3,0.5c0.1,0.2,0.5,0.4,0.7,0.5c0.1,0.1,0.4,0.2,0.6,0.2h0.3c0.2,0,0.4,0.1,0.4,0.1
			s0.5-0.1,0.6-0.2l0.2-0.1c0.3-0.2,0.7-0.5,0.9-0.7c0.1-0.3,0.7-1.2,0.7-1.4s0.2-0.6,0.2-0.6c0-0.1-0.1-0.4-0.2-0.5h-0.2
			c-0.4-0.1-0.9-0.2-1-0.8v-0.1c0.1-0.3,0.1-0.5,0.4-0.7c0.2-0.2,0.9-0.2,1.2-0.2c0.2,0,0.4,0.1,0.5,0.3l0.7,0.5
			c0.2,0.1,0.4,0.3,0.4,0.6c0.1,0.3,0.2,0.7,0.1,1.1c-0.1,0.6-0.2,1.2-0.3,1.8c-0.1,0.4-0.3,0.9-0.5,1.2l-0.6,0.6
			c0,0.2-0.3,0.3-0.4,0.5c-0.3,0.3-0.8,0.7-1.2,0.9c-0.2,0.1-0.4,0.1-0.6,0.2c-0.3,0.1-0.9,0.4-1.2,0.4c-0.2,0-0.3,0-0.5,0.1h-0.1
			c-0.2,0-1.1,0-1.3-0.1c-0.1,0-0.7,0-0.7,0.1h-0.4c-0.7-0.1-1.3-0.3-2-0.6c0,0-0.3-0.1-0.4-0.1l-1-0.8l-0.4-0.4l-0.4-0.3
			c-0.4-0.2-0.6-0.5-0.9-0.9c-0.2-0.1-0.7-1.1-0.8-1.2c0,0-0.1-0.3-0.1-0.4l-0.5-1.2c0,0-0.1-0.2-0.4-3
			C111.1,97.4,111.2,97.1,111.1,97z"/>
	</g>
	<g>
		<g>
			<path class="st5" d="M76.3,56.9l-0.1-0.3l-0.4-1.3c0,0-0.1-1.1-0.2-1.6c0,0,0-0.3,0-0.4v-0.2c0-0.2,0-0.3-0.1-0.5
				c-0.1-0.7-0.1-1.5-0.1-2.3v-0.9c0-0.1,0.1-0.7,0.1-0.8v-0.7c0,0,0-0.2,0.1-0.3c0-0.1,0.4-0.8,0.4-0.9c0.2-0.3,0.7-1.7,0.8-2.1
				c0.1-0.1,0.1-0.2,0.2-0.3c0.1-0.1,0.1-0.3,0.2-0.4c0-0.1,0.3-0.2,0.3-0.3c0.2-0.1,0.4-0.3,0.6-0.3c0.2,0,0.5,0.2,0.6,0.4
				c0.3,0.3,0.6,1,0.7,1.3c0.1,0.2,0.1,0.4,0.1,0.6l0.2,0.9v0.2l0.3,0.6v0.1c0.1,0.6,0.1,1.1,0.1,1.7c0,0.3,0,0.5,0,0.5
				c0,0.3,0,0.4,0.2,0.4l2,0.1c0,0,1.2,0.2,1.7,0.3c0.1,0,0.2,0.1,0.4,0.1l0.1-1.6c0.1-0.2,0.4-1.3,0.4-1.6c0,0,0.1-0.4,0.1-0.5
				c0.1-0.1,0.1-0.5,0.2-0.6c0,0,0.2-0.4,0.2-0.5c0,0,0.1-0.3,0.1-0.4c0-0.2,0.1-0.4,0.2-0.6c0.1-0.2,0.1-0.5,0.1-0.7
				c0.1-0.2,0.3-0.4,0.4-0.6c0.1-0.1,0.2-0.1,0.3-0.1s0.1,0,0.2,0.1l0.4,0.2c0.1,0.1,0.5,0.6,0.6,0.7c0.2,0.2,0.3,0.5,0.5,0.7
				c0,0,0.3,0.3,0.3,0.4s0.3,0.5,0.3,0.6c0.1,0.2,0.2,0.3,0.2,0.5s0,0.4,0.1,0.6c0,0.1,0,0.3,0.1,0.4c0,0.1,0.1,0.5,0.1,0.7v0.4
				c0,0.4,0,0.7,0.1,1.1l0.1,1.6c0,0.3,0,0.5,0,0.8c0,0.1-0.1,0.3-0.1,0.4s0,0.2,0,0.6c0,0.3,0,0.5-0.1,0.8c0,0.2-0.2,0.7-0.2,1
				c-0.1,0.3-0.2,0.5-0.3,0.8c0,0-0.2,0.3-0.2,0.4c0,0.2-0.1,0.5-0.2,0.8L88.2,57c-0.4,0.7-0.6,1.4-0.8,2.1
				c-0.1,0.4-0.4,0.8-0.4,1.3c0,0.1-0.1,0.4-0.1,0.4v0.1l-0.3,0.5c0,0-0.2,0.3-0.4,0.3s-0.2-0.2-0.3-0.3l0,0l-0.1-0.3
				c-0.1-0.2,0-0.5-0.1-0.8l-0.2-0.4l-0.2-0.5c0-0.1-0.1-0.4-0.1-0.4c0-0.2-0.1-0.4-0.2-0.6c0-0.1-0.1-0.3-0.1-0.5
				c-0.1-0.2-0.3-1.1-0.4-1.3c0-0.1-0.2-0.7-0.2-0.8c0,0-0.1-0.4-0.1-0.5c-0.1-0.1-0.1-0.5-0.1-0.7V54c0,0,0-0.2,0-0.7
				c0-0.1,0-0.3-0.1-0.4s-0.8-0.2-0.9-0.3c-0.2,0-0.4,0-0.5,0c-0.4,0-0.6,0.1-1,0.2h-1.1c-0.4,0.1-0.4,0.1-0.4,0.1
				c0,0.1,0,0.2,0,0.8c0,0.6,0,0.8-0.1,0.9c0,0.2-0.1,0.5-0.1,0.7v1.3c0,0-0.1,0.6-0.1,0.8c0,0.2-0.1,0.3-0.2,0.4l-0.2,0.3
				c-0.1,0.1-0.1,0.3-0.2,0.4c0,0.1-0.1,0.6-0.2,0.7c0,0-0.1,0.2-0.1,0.3l-0.1,0.4c0,0-0.1,0.4-0.1,0.5c-0.1,0.2-0.1,0.4-0.2,0.5
				c-0.1,0.1-0.2,0.2-0.3,0.3c-0.1,0.1-0.2,0.3-0.4,0.3c-0.1,0-0.1,0.1-0.2,0.1c-0.1,0-0.2-0.1-0.2-0.2c-0.1-0.2,0-0.5-0.2-0.6
				c-0.1-0.3,0-0.6-0.1-0.9l-0.2-0.4c-0.1-0.2-0.1-0.4-0.1-0.6s-0.2-0.4-0.2-0.6C76.7,58.2,76.4,57.1,76.3,56.9z"/>
			<path class="st5" d="M98.4,62.4c-0.1,0-0.5-0.1-0.5-0.1c-0.1,0-0.4-0.2-0.5-0.2L97.2,62c-0.3,0-0.5-0.1-0.8-0.3
				c-0.1,0-0.2-0.2-0.4-0.2l-0.6-0.4c-0.3-0.2-0.5-0.4-0.7-0.6L94.2,60c-0.2,0-0.5-0.3-0.6-0.5c-0.1,0-0.3-0.3-0.4-0.4l-0.6-0.6
				L92,57.3l-0.3-0.7c-0.3-0.9-0.6-1.7-0.6-2.6l0.1-1.6c0,0,0-0.3,0-0.4c0-0.2,0.1-0.5,0.2-0.7c0.1-0.3,0.3-0.7,0.4-1
				c0-0.2,0.1-0.6,0.1-0.6c0-0.1,0.1-0.3,0.2-0.4l0.2-0.3l0.2-0.4c0.2-0.3,0.6-0.7,0.7-1l0.7-0.7c0,0,0.3-0.2,0.3-0.3l0.8-0.9
				l0.7-0.6c0,0,0.6-0.4,0.9-0.6c0.2-0.1,0.4-0.4,0.7-0.5c0.1-0.1,0.7-0.1,0.9-0.1l1.4,0.1c0.1,0,0.3-0.1,0.4-0.1l0.6-0.2
				c0.1,0,0.1,0,0.3,0s0.4,0,0.7,0.2c0.3,0,0.7,0.1,1,0.2s0.5,0.2,0.7,0.4c0,0,0.2,0.1,0.3,0.1h0.3c0.1,0,0.2,0.1,0.4,0
				c0.1,0,0.3,0,0.5,0s1.2,0.4,1.3,0.4c0.7,0.4,1.3,0.7,2,1.3c0.4,0.4,0.9,1.2,1.1,1.6v0.2l0.3,0.5c0,0,0.1,0.2,0.1,0.3L110,50
				c0.1,0.3,0.1,0.6,0.2,1l0.2,0.6c0,0,0.1,0.1,0,0.7v0.5c0,0.2-0.1,0.2,0,0.4l-0.5,3c0,0.1-0.1,0.2-0.1,0.2l-0.4,0.7
				c-0.1,0.3-0.7,1.8-0.8,2.2c-0.2,0.2-0.2,0.4-0.3,0.6l-0.6,0.7c-0.1,0.2-0.8,0.8-0.9,0.8c-0.1,0.1-0.8,0.5-0.9,0.5
				c0,0,0,0.1-0.1,0.2c0,0-0.2,0.1-0.3,0.1c-0.2,0.1-0.4,0.3-0.7,0.3c-0.1,0-0.4,0-0.5,0s-0.2,0-0.5,0c-0.1,0-0.5,0-0.5,0l-1.3,0.3
				c-0.3,0-0.6,0-0.8,0h-0.3c-0.3,0-0.6,0-0.9-0.2C99.3,62.6,98.8,62.6,98.4,62.4z M98.3,57.6c0.1,0.1,0.3,0.4,0.4,0.4
				c0.1,0.2,0.4,0.5,0.6,0.7c0.1,0.1,0.3,0.3,0.4,0.3h0.3c0.2,0,0.6,0.1,0.6,0.1l0.7,0.3c0,0,0.4,0.1,0.5,0.1c0,0,0.3,0,0.5,0
				l0.5,0.1c0.1,0,0.6,0,0.7-0.1c0.2,0,1.1-0.2,1.3-0.2c0.3-0.2,0.7-0.3,1-0.6c0.1-0.2,0.8-1,0.9-1.2c0.1-0.1,0.4-0.5,0.5-0.6
				c0-0.1,0.1-0.2,0.1-0.2c0.1-0.2,0.4-1.1,0.5-1.3l0.2-0.8c0-0.3,0.1-0.5,0.1-0.8v-1.4c0-0.1,0-0.4,0-0.5l-0.1-0.4
				c0-0.2-0.1-0.7-0.1-0.8l-0.8-1.6c-0.1-0.2-0.2-0.4-0.4-0.6c-0.1-0.1-0.2-0.1-0.3-0.3l-0.3-0.2c-0.1,0-0.2-0.1-0.3-0.2l-0.4-0.4
				c-0.1,0-0.4-0.3-0.4-0.3s-0.4-0.1-0.5-0.1s-0.6-0.1-0.7-0.1c-0.4,0-0.7-0.4-1.2-0.4c-0.1,0-0.2,0-0.2,0l-0.8,0.2
				c-0.2,0.1-0.6,0.3-0.9,0.5l-0.3,0.6l-0.6,0.5c0,0-0.1,0.2-0.2,0.3c-0.4,0.5-0.7,1.1-1,1.6l-0.4,1.4v0.2L98,52.1l-0.1,0.2
				c-0.2,0.6-0.3,1.2-0.3,1.8c0,0.4,0,0.8,0,1.2c0,0.2,0.1,1.1,0.1,1.4s0.2,0.5,0.4,0.7C98.1,57.3,98.3,57.5,98.3,57.6z"/>
			<path class="st5" d="M112.6,56.7v-0.5c0-0.2,0-0.4,0-0.6c0.1-0.9,0.2-1,0.2-1L113,53l0.1-0.4c0-0.2,0.1,0,0.1-0.2l0.2-0.9
				c-0.3-0.1-0.6-0.2-0.9-0.3l-0.9-0.1c-0.2-0.1-0.3-0.2-0.4-0.4c0,0-0.1-0.1,0-0.3c0-0.1,0.1-0.2,0.1-0.3c0.1-0.1,0.2-0.3,0.4-0.3
				h0.2c0.3,0.1,0.3,0,0.8,0.1h0.4l0.8,0.2c0,0,0.3-0.8,0.4-1l0.1-0.2c0-0.1,0.1-0.6,0.1-0.6c0.1-0.3,0.3-0.6,0.5-0.8
				c0.1,0,0-0.2,0.1-0.3c0.1-0.2,0.1-0.5,0.3-0.7c0-0.1,0.3-0.6,0.4-0.6c0,0,0.2-0.2,0.2-0.3l0.2-0.4c0-0.1,0.1-0.2,0.1-0.3
				c0-0.3,0.4-0.5,0.6-0.7c0,0,0.1-0.1,0.2,0h0.1h0.2c0.1,0,0.2,0.1,0.3,0.2l0.6,0.8l0.2,0.3c0.1,0.1,0.2,0.3,0.2,0.4
				c0.1,0.1,0.3,1.1,0.4,1.2c0,0.1,0.1,0.3,0.1,0.4s0,0.6,0,0.7c0,0.2,0.1,0.5,0.1,0.7c0.1,0,0.1,0.3,0.1,0.4s0,0.2,0,0.3
				c0,0,0,0.6,0,0.7V51c0,0,0.7,0,1.3,0.1c0.2,0,0.4,0.1,0.5,0.1s0.6,0.1,0.6,0.1c0.3,0.1,0.6,0.2,0.9,0.5c0,0,0.1,0.2,0.2,0.3
				c0,0.1,0,0.2,0,0.3c0,0.1,0,0.1-0.1,0.1l-0.1,0.1c-0.1,0.1-0.5,0.2-0.7,0.1h-0.1c-0.1,0-0.3-0.1-0.4-0.1l-0.4-0.1
				c-0.1,0-0.9,0-1,0s-0.2,0-0.4,0s-0.4,0-0.4-0.1c-0.1,0-0.2,0-0.2,0c0,0.1-0.1,0.4-0.1,0.4c-0.1,0.3-0.2,0.3-0.3,0.7
				c0,0.2-0.1,0.5-0.1,0.6c-0.1,0.2-0.3,0.5-0.3,0.7c0,0.1,0,0.2,0,0.2v0.1c-0.1,0-0.2,0.4-0.2,0.4l-0.2,0.2l-0.3,0.5v0.3
				c0,0.2,0,0.7,0,0.8l-0.1,0.4l-0.3,1.9c0.1,0.2,0,0.4,0.2,0.7c0,0,0.1,0.3,0.2,0.3c0.1,0.1,0.3,0.3,0.4,0.4
				c0.1,0.1,0.3,0.2,0.4,0.2h0.2c0.1,0,0.3,0,0.3,0s0.3,0,0.4-0.1l0.1-0.1c0.2-0.1,0.4-0.3,0.6-0.4c0.1-0.2,0.4-0.7,0.5-0.8
				c0-0.1,0.2-0.4,0.2-0.4c0-0.1-0.1-0.3-0.1-0.3h-0.1c-0.3,0-0.6-0.2-0.6-0.5v-0.1c0.1-0.2,0.1-0.3,0.3-0.4
				c0.1-0.1,0.6-0.1,0.7-0.1c0.1,0,0.2,0.1,0.3,0.2l0.4,0.3c0.1,0.1,0.2,0.2,0.2,0.4c0.1,0.2,0.1,0.5,0,0.7
				c-0.1,0.4-0.2,0.7-0.2,1.1c-0.1,0.2-0.2,0.5-0.4,0.7l-0.4,0.4c0,0.1-0.2,0.2-0.2,0.3c-0.2,0.2-0.5,0.4-0.8,0.5
				c-0.1,0.1-0.3,0.1-0.4,0.1c-0.2,0-0.5,0.2-0.7,0.2c-0.1,0-0.2,0-0.3,0.1h-0.1c-0.1,0-0.6-0.1-0.8-0.1c-0.1,0-0.4,0-0.4,0h-0.2
				c-0.4-0.1-0.8-0.2-1.2-0.5l-0.2-0.1l-0.6-0.6l-0.2-0.3l-0.2-0.2c-0.2-0.1-0.4-0.3-0.5-0.6c-0.1-0.1-0.4-0.7-0.5-0.8l-0.1-0.2
				l-0.2-0.7c0,0,0-0.1-0.1-1.8C112.6,57,112.7,56.8,112.6,56.7z"/>
		</g>
		<path class="st5" d="M21.9,57.5c-0.4,0-1.1,0.2-1.2,0.1L20,57.5c-0.1-0.1-0.8-0.1-1-0.1h-0.6h-0.9c-0.1,0-0.3,0-0.4,0l-0.3-0.3
			l-0.1-0.4c0-0.1,0-0.4,0-0.9c0-0.2-0.1-1.1-0.1-1.2c0-0.3-0.2-2.1-0.3-2.4v-0.3v-0.7c0-0.9,0.1-1.8,0.1-2.7v-0.7
			c0-0.2,0-0.3,0-0.5c0-0.3,0-0.4,0-0.6c0-0.3,0.1-0.6,0.1-0.9c0,0,0.1-0.1,0.1-0.4l0.3-1.7l0.1-0.4c0-0.2,0-0.3,0-0.4
			c0-0.4,0.2-0.6,0.2-0.9l0.2-0.4l0.2-0.6l0.2-0.4c0.1-0.2,0.2-0.2,0.2-0.5l0.4-0.2h0.3l1-0.1H20l1.3,0.3h0.4c0.4-0.1,0.8,0.1,1.2,0
			h0.3c0.2,0,0.3,0.1,0.5,0.2l0.5,0.1c0.6,0,1.4,0.3,2,0.3c0.2,0,0.4-0.1,0.6,0l0.3,0.1l0.5,0.3l0.2,0.2v0.1c0,0.1,0,0.2-0.3,0.5
			c-0.2,0.2-0.5,0.2-0.8,0.2h-0.3c-0.3,0.1-0.6,0-0.9,0.2c-0.4,0-0.8,0-1.4,0.1c-0.4,0-1.2,0-1.3,0l-1-0.1l-0.3,0.3l0.1,0.4
			c0,0.1,0,0.1,0,0.3l0.1,0.5V44l-0.1,0.2l-0.1,1.4l-0.1,0.3c0,0.1,0.1,0.2,0.1,1l-0.1,0.5c0.3,0.1,0.5,0.1,0.8,0.2
			c0.2,0,0.6,0.2,0.9,0.3l0.6,0.2c0.1,0,0.3,0,0.4,0s0.3-0.1,0.4-0.1h0.4h0.7H26c0.1,0,0.4,0.2,0.5,0.3c0,0.2,0.2,0.1,0.2,0.4v0.2
			c-0.1,0.2-0.6,0.4-0.7,0.4h-0.4h-0.2L25,49.4l-0.7,0.1L24,49.6c-0.2,0-0.4,0-0.6,0l-1.5-0.1h-0.2c-0.1,0-0.5,0.1-0.5,0.2
			c0,0.5,0,1.7,0,1.8l0.1,0.4c0,0.6,0,0.7,0,0.7c-0.1,0.1-0.1,0.2-0.2,0.3c0,0.3-0.1,1.2-0.1,1.5v0.3c0,0.1-0.1,0.2-0.1,0.4
			c0.3,0,0.6,0.3,0.9,0.3l1.5,0.3l0.4,0.1c0.1,0,0.2,0.1,0.3,0c0.3,0,0.7,0.1,0.9,0.1l0.4-0.1c0.2,0.1,0.4,0,0.6-0.1l0.5,0.1h0.3
			c0.3,0.1,0.2,0.2,0.2,0.5c-0.1,0.3-0.1,0.3-0.2,0.5c0,0,0,0.1-0.2,0.2c-0.4,0.2-0.5,0.2-0.5,0.2c-0.1,0.1-0.5,0.1-0.6,0.1
			l-0.3-0.1c-0.1,0-0.2,0-0.4,0L24,57.1c-0.2,0-0.3,0.1-0.5,0.1h-0.7l-0.5-0.1L21.9,57.5z"/>
		<path class="st5" d="M35.8,56l-0.4-0.4l-0.3-0.5l-0.2-0.3l-0.1-0.1c-0.3-0.4-0.5-0.7-0.8-1l-0.7,0.7l-0.2,0.2l-0.2,0.2
			c0,0.1-0.2,0.4-0.3,0.6l-0.7,0.9l-0.2,0.2l-0.2,0.2L31.4,57l-0.1,0.1l-0.6,0.6l-0.1,0.1l-0.1,0.1L30.2,58l-0.4,0.1h-0.4l-0.8-0.4
			c-0.1-0.1-0.2-0.4-0.3-0.4v-0.2l0.1-0.3l0.1-0.2l0.4-0.4v-0.1l0.3-0.5l0.6-0.8l0.6-0.6c0.1-0.1,0.2-0.3,0.4-0.5l0.4-0.4
			c0.1-0.2,0.3-0.3,0.4-0.5l0.3-0.4l0.7-0.7l-0.1-0.2l-0.3-0.3c-0.2-0.1-0.3-0.3-0.4-0.5l-0.2-0.4c-0.9-1.1-0.9-1.2-0.9-1.2L30,47.9
			l-0.1-0.1c-0.1-0.2-0.1-0.4-0.3-0.5L29.4,47c-0.2-0.3-0.2-0.6-0.2-0.9l-0.1-0.2v-0.3L29,45.4l0.1-0.3c0.1-0.1,0.1-0.2,0.4-0.2
			l0.2,0.1l0.4,0.2l0.2,0.1l0.4,0.2l0.9,0.3c0.2,0,0.3,0.1,0.4,0.2l0.1,0.1l0.3,0.2l0.2,0.1l0.2,0.1l0.6,0.3
			c0.2,0.1,0.2,0.2,0.3,0.3l0.2,0.1c0.1,0.1,0.3,0.2,0.5,0.3l0.7,0.5l0.2,0.2c0.2-0.1,0.3-0.3,0.5-0.6l0.2-0.3l0.4-0.4l0.4-0.5
			l0.2-0.3l0.7-0.7l0.4-0.2l0.1-0.1l0.3-0.4l0.2-0.1v-0.1c0.1-0.1,0.4-0.3,0.6-0.3l0.1,0.1l0.1,0.2v0.1l-0.1,0.2L39.3,45
			c0,0.6-0.3,1.1-0.3,1.7c0,0.1,0,0.3,0,0.4c0,0.4-0.1,0.7-0.4,0.9l-0.2,0.2l-0.2,0.6c0,0.1-0.3,0.5-0.4,0.6l-0.1,0.2
			c-0.1,0-0.1,0.2-0.1,0.3l0.2,0.2l0.6,0.7l0.5,0.5c0.2,0.1,0.2,0.4,0.4,0.5l0.4,0.4c0.3,0.3,0.2,0.8,0.3,1.2v0.1l0.1,0.2
			c0.1,0.1,0.1,0.3,0.1,0.4v2.3v0.2l0.1,0.4v0.7l-0.1,0.2c-0.1,0.2-0.3,0.5-0.6,0.5c-0.2,0-0.4-0.2-0.5-0.3l-0.3-0.2h-0.1
			c-0.2-0.1-0.4-0.2-0.6-0.3l-0.2-0.1l-0.3-0.3L35.8,56z"/>
		<path class="st5" d="M42.4,54.4l-0.1-0.5c0-0.1,0-0.4-0.1-0.5c0-0.9,0-0.9,0-0.9v-1.4v-0.4c0-0.2,0.1,0,0.1-0.2l0.1-0.8
			c-0.3-0.1-0.6-0.1-0.9-0.1h-0.8c-0.2,0-0.3-0.2-0.4-0.3c0,0-0.1,0-0.1-0.2c0-0.1,0-0.2,0.1-0.3c0.1-0.1,0.1-0.3,0.3-0.3h0.1
			c0.3,0,0.3,0,0.8,0h0.3h0.8c0,0,0.2-0.7,0.2-0.9l0.1-0.2v-0.6c0.1-0.3,0.2-0.6,0.3-0.8l0.1-0.3c0.1-0.2,0-0.4,0.2-0.6l0.2-0.6
			l0.2-0.3l0.1-0.4v-0.3c0-0.2,0.3-0.5,0.4-0.7l0.1-0.1h0.1h0.1l0.3,0.2l0.6,0.7l0.2,0.2c0.1,0.1,0.2,0.2,0.2,0.4l0.5,1l0.1,0.4
			l0.1,0.6c0,0.2,0.1,0.4,0.2,0.6l0.1,0.3v0.3l0.1,0.6l0.1,0.7c0,0,0.6-0.1,1.1-0.1c0.2,0,0.4,0,0.5,0h0.6c0.3,0.1,0.6,0.1,0.8,0.3
			l0.2,0.2l0.1,0.3l-0.1,0.1l-0.1,0.1c-0.1,0.1-0.4,0.2-0.6,0.2h-0.1l-0.4-0.1h-0.3c-0.1,0-0.8,0.1-0.9,0.1s-0.2,0-0.4,0
			c-0.2,0-0.3,0-0.4,0h-0.1v0.4c0,0.3-0.1,0.3-0.1,0.6c0,0.2,0,0.4,0,0.5c-0.1,0.2-0.2,0.5-0.2,0.7v0.2v0.1l-0.1,0.4l-0.1,0.2
			l-0.2,0.5v0.3c0,0.1,0.1,0.7,0.1,0.7v0.4l-0.1,1.7c0.1,0.2,0.1,0.4,0.2,0.6l0.2,0.2l0.4,0.3l0.4,0.1h0.2H48l0.3-0.2l0.1-0.1
			c0.2-0.1,0.3-0.3,0.5-0.4c0.1-0.2,0.3-0.7,0.3-0.8l0.1-0.4l-0.1-0.3h-0.1c-0.2,0-0.5-0.1-0.6-0.4V55c0-0.2,0.1-0.3,0.2-0.4
			s0.5-0.1,0.6-0.2l0.3,0.1l0.4,0.2c0.1,0.1,0.2,0.1,0.2,0.3c0.1,0.2,0.1,0.4,0.1,0.6c0,0.3-0.1,0.7-0.1,1c-0.1,0.2-0.1,0.5-0.2,0.7
			l-0.3,0.4L49.5,58c-0.2,0.2-0.4,0.4-0.6,0.6l-0.3,0.2c-0.2,0.1-0.4,0.3-0.6,0.3l-0.3,0.1h-0.1h-0.7l-0.4,0.1h-0.2
			c-0.4,0-0.7-0.1-1.1-0.2L45,59l-0.6-0.4l-0.2-0.2L44,58.3c-0.2-0.1-0.4-0.2-0.5-0.5L43,57.2L42.9,57l-0.3-0.6c0,0,0-0.1-0.4-1.6
			L42.4,54.4"/>
		<path class="st5" d="M52.2,57.9l-0.1-0.4L52,57.3c0-0.1-0.1-0.3-0.1-0.4l-0.2-0.4v-0.3c0-0.1-0.1-0.6-0.1-0.7s-0.1-0.4-0.1-0.5
			l-0.4-1.8c0-0.2,0-0.4,0-0.7c0-0.1,0.1-0.6,0.1-0.7l0.2-0.9c0-0.3,0.1-0.6,0.1-0.9v-0.4l0.1-0.3l0.2-1.1l0.1-0.6v-0.4
			c0.1-0.3,0.2-0.7,0.3-1c0.1-0.4,0.1-0.7,0.5-1c0.1,0,0.2-0.1,0.4-0.1l0.3,0.1c0.2,0.1,0.3,0.3,0.4,0.5L54,46
			c0.1,0.2,0.3,0.6,0.3,0.6l0.2-0.1l0.1-0.2l0.6-0.4l0.3-0.2l0.4-0.1l0.2-0.1l0.4-0.1h0.3h0.3c0.2,0,0.4,0.1,0.5,0h0.5
			c0.2,0,0.3,0.2,0.4,0.3h0.1c0.2,0.1,0.3,0.3,0.4,0.5l0.1,0.2l0.1,0.4c0,0.1,0,0.4-0.1,0.4c-0.3,0.2-0.3,0.3-0.7,0.3
			c-0.4,0-0.5-0.1-0.6-0.4l-0.1-0.2c-0.1-0.1-0.1-0.1-0.2-0.2l-0.3-0.1c-0.2,0-0.5,0.2-0.7,0.2l-0.3,0.4c-0.1,0.2-0.2,0.2-0.3,0.3
			l-0.3,0.2L55.3,48l-0.2,0.2L55,48.5l0.1,0.3l0.1,0.7l0.2,0.6l0.2,0.8l0.1,0.7v1.3c0,0.5,0,1-0.1,1.4l-0.1,0.2
			c-0.1,0.2-0.2,0.4-0.3,0.7l-0.1,0.3c0,0.2-0.1,0.3-0.2,0.4c-0.3,0.3-0.4,0.5-0.7,0.7c-0.1,0.1-0.1,0.2-0.5,0.6
			c-0.1,0.1-0.1,0.3-0.2,0.5c-0.1,0.1-0.1,0.4-0.2,0.6l-0.2,0.3L53,58.7h-0.2l-0.3-0.1L52.2,57.9z"/>
		<path class="st5" d="M65.2,58.6l-0.3,0.2L64.6,59l-0.3,0.1c-0.5,0.2-0.8,0.2-1.3,0.2h-0.3c0,0,0,0-0.3,0c-0.1,0-0.3,0-0.5,0
			L60.7,59h-0.1c-0.4,0-0.5-0.3-0.8-0.4c-0.2,0-0.5-0.4-0.7-0.5c-0.4-0.3-0.7-0.8-0.9-1.3v-0.2c-0.1-0.4-0.4-0.7-0.5-1.1v-0.2
			l-0.1-0.4c-0.1-0.4-0.1-0.9,0-1.3v-0.3c0.1-0.3,0.2-0.6,0.3-0.9c0,0,0.3-0.5,0.3-0.7l0.2-0.2c0.2-0.3,0.5-0.6,0.9-0.8l0.2-0.2
			c0.2-0.1,0.4-0.3,0.7-0.4c0.2-0.1,0.5-0.1,0.7-0.1l0.3-0.1h0.4l0.8,0.1h0.8h0.4c0.6,0.1,1.2,0.2,1.8,0.4l0.3,0.2
			c0.2,0,0.4,0.2,0.5,0.2v-0.2v-0.2v-0.3l-0.1-0.7v-0.7L66,48.3c-0.1-0.3-0.6-1.1-1-1.2L64.7,47l-1.2-0.1h-0.3L62.9,47l-0.6,0.3
			h-0.2l-0.3,0.1l-0.3,0.2l-0.1,0.2c-0.1,0.1-0.1,0.1-0.4,0.1l-0.2-0.2c-0.1-0.1-0.1-0.2-0.1-0.2v-0.4v-0.2c0.1-0.3,0.2-0.3,0.3-0.5
			l0.2-0.1l0.2-0.1l0.7-0.4c0.3-0.1,0.6-0.2,0.9-0.3h0.3l0.3-0.1h0.1h0.4c0,0,0.1,0,0.3,0c0.1,0,0.2,0,0.4,0.1l1,0.4l0.5,0.2
			l0.2,0.1l0.2,0.1l0.1,0.1c0.5,0.2,0.9,0.4,1.3,0.8l0.5,0.7l0.2,0.3c0.1,0.1,0.2,0.1,0.2,0.3l0.1,0.2l0.2,0.3c0.6,1,0.6,1,0.6,1
			c0.1,0.3,0.2,0.5,0.2,0.8V51c0,0.2,0.2,0.5,0.2,0.7v0.2v0.3c0.1,0.3,0.2,0.8,0.1,1.1v0.2v0.2l0.1,0.4v0.3v0.3l0.1,1.1v0.1
			c0,0.3-0.2,0.4-0.3,0.7l-0.2,0.5l-0.4,0.5c-0.1,0.1-0.3,0.3-0.4,0.4L69,58.5l-0.3,0.3l-0.2,0.3L68,59.6c-0.1,0.1-0.2,0.2-0.3,0.2
			c-0.1,0.1-0.3,0.2-0.4,0.2l-0.1,0.1l-0.3,0.4c-0.1,0.2-0.3,0.3-0.4,0.5l-0.1,0.1h-0.1c-0.2-0.1-0.3-0.4-0.4-0.6v-0.2v-0.7v-0.4
			l-0.1-0.3C65.8,58.3,65.4,58.4,65.2,58.6 M60.6,55.5l0.1,0.3v0.4c0,0.1,0.1,0.3,0.2,0.4l0.5,0.4c0.1,0.1,0.2,0.1,0.3,0.2h0.2
			l0.2,0.1l0.4,0.2l0.3,0.1h0.3h0.4h0.2l0.2-0.1c0.2-0.1,0.5-0.2,0.7-0.3l1.1-0.8c0-0.4,0,0,0.1-1.6v-0.5V54v-0.4
			c0-0.2,0.1-1,0.1-1.1c-0.1-0.4-0.1-0.5-0.1-0.5l-0.1-0.1l-0.6-0.3l-0.2-0.1l-0.6-0.2h-0.2c-0.2,0-0.4,0-0.5,0h-0.3L63,51.6
			l-0.6,0.2c-0.2,0-0.4,0.1-0.4,0.1c-0.3,0.2-0.5,0.3-0.8,0.3L61,52.3c-0.2,0.1-0.4,0.4-0.5,0.6s-0.1,0.3-0.2,0.5c0,0.2,0,0.3,0,0.5
			v0.6l-0.1,0.3l-0.1,0.4L60.6,55.5"/>
	</g>
	<g>
		<path class="st5" d="M40.7,217.2c0-0.1-0.1-0.2,0-0.4l-0.2-0.7V216l-0.3-1.3v-0.3c0-0.1,0-0.4,0-0.5v-0.2c0-0.1,0-0.2,0-0.3
			l0.1-0.7v-0.1c0.1-0.3,0.2-0.5,0.3-0.8l0.1-0.1c0-0.1,0.1-0.2,0.2-0.2l0.1-0.1l0.1-0.2l0.1-0.2l0.1-0.1l0.1-0.1l0.1-0.1h0.1
			l0.1,0.1l0.1,0.1l0.1,0.1l0.2,0.3c0.1,0.2,0.2,0.4,0.3,0.6l0.1,0.1c0.1,0.2,0.1,0.4,0.1,0.5v0.3v0.3c0,0.1,0,0.2,0,0.3l-0.1,0.3
			c0,0.1-0.1,0.7-0.1,0.8v0.3c0,0-0.1,0.5-0.1,0.6s-0.1,0.2-0.1,0.3l-0.1,0.2l-0.2,0.3l-0.1,0.3v0.1v0.1v0.1
			c-0.1,0.1-0.2,0.3-0.2,0.4v0.3c0,0.1-0.1,0.3-0.1,0.3l-0.1,0.1h-0.1l-0.1-0.1c0-0.1,0-0.2,0-0.3v-0.2L40.7,217.2 M40.8,209.7
			l-0.2-0.3l-0.1-0.1v-0.1V209v-0.2v-0.2l0.1-0.1v-0.1l0.1-0.1l0.1-0.1l0.2-0.1h0.2c0.1,0,0.1,0,0.3,0c0.1,0,0.2,0.1,0.3,0.1
			l0.2,0.1l0.1,0.1l0.1,0.1l0.1,0.2v0.1v0.2c0,0.1-0.1,0.3-0.1,0.4l-0.1,0.2l-0.1,0.1l-0.1,0.2l-0.1,0.1h-0.1h-0.2
			c-0.1,0-0.1,0-0.2,0h-0.1l-0.2-0.1h-0.1L40.8,209.7z"/>
		<path class="st5" d="M44,217.6c0-0.1-0.1-0.2-0.1-0.3c-0.1-0.2-0.2-0.6-0.2-0.8v-0.2v-0.2c0-0.1,0-0.2,0-0.3c0-0.1,0-0.2,0-0.3
			v-0.8c0-0.2,0-0.4,0-0.6v-0.2v-0.4c0-0.1,0-0.2,0-0.3v-0.3c0-0.5,0-1,0-1v-0.1v-0.4c0-0.1,0.1-0.3,0.1-0.3v-0.2v-0.2
			c0-0.1,0.1-0.6,0.1-0.7s0.1-0.5,0.1-0.6l0.1-0.4c0-0.1,0.1-0.2,0.2-0.3v-0.1l0.1-0.2c0-0.1,0.1-0.2,0.2-0.2h0.1l0.1,0.2
			c0.1,0.2,0.1,0.3,0.2,0.3l0.1,0.2c0.1,0.1,0,0.3,0.1,0.3v0.1l0.1,0.2c0.1,0.1,0.2,0.3,0.2,0.4c0,0,0,0.1,0,0.3v0.2v0.8
			c0,0.1,0.1,0.3,0.1,0.4v0.1v0.2v0.2v0.1v0.4c0,0.1,0,0.1,0,0.2v0.2v0.3c0,0.1-0.1,0.6-0.1,0.7l-0.1,0.4l-0.1,0.1l-0.1,0.2
			c0,0.1-0.1,0.2-0.2,0.3l-0.1,0.2l-0.1,0.1c0,0.1,0,0.2-0.1,0.3c0,0.1-0.1,0.6-0.1,0.7s-0.1,0.3-0.1,0.4v0.1l-0.1,0.2v0.2v0.1
			c0,0.1-0.1,0.2-0.2,0.2l0,0L44,217.6"/>
		<path class="st5" d="M50.3,216.4v-0.2V216h-0.2c-0.1,0-0.3,0.1-0.4,0.1s-0.3,0.1-0.4,0.1c0,0-0.4,0-0.8,0c0,0-0.5-0.1-0.7-0.2
			l-0.2-0.1c-0.2-0.1-0.4-0.2-0.5-0.4l-0.2-0.3c-0.1-0.1-0.1-0.3-0.2-0.4c-0.1-0.2-0.2-0.4-0.2-0.6v-0.3c0-0.1-0.1-0.2-0.1-0.3
			c0-0.1,0-0.2,0-0.3v-0.1c0-0.1,0-0.2,0-0.3l0.1-0.3c0-0.1,0.1-0.2,0.2-0.4l0.1-0.2l0.1-0.1c0.1-0.2,0.3-0.3,0.5-0.5l0.1-0.1
			l0.4-0.1l0.3-0.1c0.2-0.1,0.4-0.1,0.6-0.1h0.1c0.2,0,0.2,0,0.3,0h0.2h0.3l0.2,0.1c0.1,0,0.2,0,0.3,0V211l0.1-0.5
			c0,0,0.2-0.7,0.2-1l0.1-0.2c0-0.1,0.1-0.2,0.1-0.3c0.1-0.1,0.1-0.3,0.1-0.4l0.1-0.7l0.1-0.2v-0.3c0-0.2,0.1-0.3,0.2-0.4v-0.1
			l0.1-0.2l0.1-0.1l0.1-0.1l0.2-0.1l0.1,0.1c0.1,0.1,0.1,0.1,0.1,0.2l0.1,0.2v0.1l0.1,0.1c0.2,0.3,0.2,0.4,0.2,0.4l0.1,0.2
			c0,0.2,0.1,0.4,0.1,0.6s0.1,0.4,0,0.6v0.2v0.1v0.1c0,0.1,0,0.1,0,0.2v0.1v0.3c0,0.1,0,0.2,0,0.3v0.4v0.1c0,0.2-0.1,0.4-0.1,0.6
			v0.4v0.3v0.3v0.2c0,0.2-0.1,0.3-0.1,0.5l-0.1,0.2c0,0.1-0.1,0.2-0.1,0.3c-0.1,0.1,0,0.2-0.1,0.3l-0.1,0.2l-0.1,0.1
			c0,0.1,0,0.2-0.1,0.3c0,0.1-0.1,0.2-0.1,0.2l-0.1,0.2l-0.1,0.1c-0.1,0.1-0.1,0.3-0.2,0.4l-0.1,0.2l-0.1,0.2
			c-0.1,0.1-0.1,0.1-0.2,0.3l-0.1,0.1h-0.1h-0.1l-0.1-0.2C50.2,216.6,50.2,216.5,50.3,216.4 M47.8,214.3v0.2v0.3l0.1,0.2l0.1,0.2
			c0.1,0.2,0.2,0.3,0.4,0.4l0.3,0.2h0.2c0.2,0,0.4,0,0.6,0l0.3-0.1l0.1-0.1c0.1-0.1,0.4-0.2,0.5-0.3v-0.1c0.1-0.5,0-1,0-1.6v-0.2
			v-0.3c0-0.2,0-0.4,0-0.6c0,0,0-0.1,0-0.3c0-0.1,0-0.2,0-0.2h-0.1h-0.2c-0.1,0-0.2,0.1-0.4,0.1h-0.2l-0.1,0.1l-0.2,0.1
			c-0.2,0.1-0.4,0.1-0.5,0.3l-0.3,0.4l-0.3,0.3c0,0.1-0.1,0.3-0.2,0.3v0.1c0,0.1,0,0.2,0,0.2L47.8,214.3"/>
		<path class="st5" d="M37.8,216.3v-0.2c0-0.2-0.3-1.3-0.4-1.5l-0.1-0.3l-0.1-0.1l-0.1-0.7c-0.1-0.1-0.1-0.1-0.1-0.2l-0.5,0.9l0,0
			c-0.1,0.3-0.3,0.6-0.5,0.8c-0.1,0.2-0.1,0.4-0.2,0.6s-0.3,0.4-0.4,0.5l-0.2,0.2h-0.1l0,0c-0.1,0-0.2-0.1-0.3-0.1
			c-0.1-0.1-0.2-0.2-0.3-0.4l-0.1-0.1l-0.1-0.2l-0.2-0.3l-0.2-0.5v-0.2l-0.1-0.3c-0.1-0.2-0.2-0.5-0.3-0.7c0,0-0.1-0.3-0.2-0.4v-0.2
			l-0.2-0.4l-0.1-0.2l-0.1-0.2v0.1c-0.1,0.2-0.1,0.2-0.1,0.3c0,0.1,0,0.2-0.1,0.3v0.3l-0.1,0.6l-0.1,0.2v0.4l-0.1,0.3l-0.2,1.2
			c0,0.1,0,0.2-0.1,0.3l-0.1,0.5l-0.1,0.2c0,0.1-0.2,0.4-0.3,0.5c-0.1,0.1-0.1,0.2-0.2,0.3c-0.1,0.1-0.2,0.1-0.3,0.1h-0.2l-0.2,0.1
			h-0.2l-0.2-0.1v-0.1v-0.1c0-0.1-0.1-0.5-0.1-0.7c0-0.1,0-0.6,0-0.7l0.1-1.5l0.2-0.9v-0.1c0.1-0.3,0.2-0.7,0.3-1
			c0,0,0.1-0.1,0.1-0.2L31,212c0.1-0.1,0.1-0.3,0.1-0.4c0-0.2,0.1-0.4,0.1-0.6l0.3-1c0,0,0.1-0.2,0.1-0.3c0.1-0.3,0.2-0.6,0.3-0.9
			l0.1-0.1c0.1-0.1,0.1-0.2,0.2-0.4l0.1-0.2l0.1-0.4l0.1-0.1c0.1-0.1,0.2-0.2,0.3-0.2c0.1,0,0.3,0.1,0.4,0.2l0.1,0.2
			c0.1,0.1,0.1,0.2,0.1,0.3l0.1,0.1l0.1,0.2c0.1,0.2,0.1,0.3,0.2,0.5v0.2l-0.2,0.6l0.3,0.5l0.1,0.3l0.1,0.1l0.1,0.3
			c0.1,0.1,0.1,0.2,0.2,0.3v0.1c0.1,0.4,0.2,0.7,0.4,1.1c0.1,0.1,0.1,0.3,0.2,0.4c0-0.3,0.1-0.4,0.2-0.7l0.1-0.5l0.1-0.3
			c0-0.2,0-0.4,0.1-0.6c0-0.1,0-0.2,0.1-0.3l0.1-0.5l-0.1-0.2c0.1-0.2,0-0.4,0.1-0.6c0-0.1,0.1-0.2,0.1-0.3l0.1-0.1v-0.1
			c0.1-0.3,0.1-0.3,0.1-0.3c0-0.1,0.1-0.2,0.1-0.3l0.1-0.1v-0.1c0.1,0,0.1-0.1,0.2-0.1s0.1,0,0.2,0.1l0.2,0.1L37,208l0.2,0.2v0.1
			c0.1,0.1,0.1,0.4,0.2,0.5l0.1,0.2l0.1,0.1c0,0.1,0,0.2,0,0.3l0.2,0.6c0,0.1,0.1,0.3,0.1,0.3c0,0.1,0.1,0.1,0.1,0.2l0.1,0.2
			l0.4,1.5v0.2l0.1,0.2c0.2,0.2,0.2,0.8,0.2,0.8l0.1,0.2v0.3v0.3c0,0.1,0.1,0.3,0.1,0.4v0.1c0.1,0.7,0,1.4,0.1,2.1
			c0,0.2,0,0.3,0,0.5c0,0.1,0,0.2,0,0.3v0.2c0,0.1,0,0.3-0.1,0.4c0,0.1-0.1,0.1-0.2,0.1h-0.2h-0.1c-0.3-0.2-0.3-0.5-0.4-0.7
			c0-0.1,0-0.2-0.1-0.2L37.8,216.3z"/>
		<path class="st5" d="M36.2,206.6c-0.2,0-0.6,0.2-0.7,0.1h-0.4c-0.1,0-0.4,0-0.6,0h-0.3h-0.5c-0.1,0-0.1,0-0.2,0l-0.2-0.1l-0.1-0.2
			c0,0,0-0.2,0-0.5c0-0.1-0.1-0.6-0.1-0.7s-0.2-1.2-0.3-1.3v-0.2v-0.4c0-0.5,0-1-0.1-1.5v-0.4c0-0.1,0-0.2,0-0.3c0-0.2,0-0.2,0-0.3
			c0-0.2,0.1-0.3,0-0.5c0,0,0-0.1,0-0.2l0.1-0.9l0.1-0.2c0-0.1,0-0.1,0-0.2c0-0.2,0.1-0.3,0.1-0.5l0.1-0.2l0.1-0.3l0.1-0.2
			c0-0.1,0.1-0.1,0.1-0.3l0.2-0.1h0.1l0.6-0.1h0.2l0.7,0.1h0.2c0.2,0,0.4,0,0.7,0h0.2c0.1,0,0.2,0.1,0.3,0.1h0.3
			c0.3,0,0.8,0.1,1.1,0.1c0.1,0,0.2-0.1,0.3-0.1h0.2l0.3,0.1l0.1,0.1v0.1c0,0,0,0.1-0.1,0.3c-0.1,0.1-0.3,0.1-0.4,0.1h-0.2
			c-0.2,0.1-0.3,0-0.5,0.1c-0.2,0-0.4,0-0.8,0.1c-0.2,0-0.7,0.1-0.7,0.1h-0.5l-0.2,0.2v0.2c0,0.1,0,0.1,0,0.2l0.1,0.3v0.1v0.1v0.8
			v0.2c0,0.1,0,0.1,0.1,0.5v0.3c0.2,0,0.3,0,0.5,0.1c0.1,0,0.3,0.1,0.5,0.1l0.4,0.1c0.1,0,0.1,0,0.2,0l0.2-0.1h0.2h0.4h0.2l0.3,0.1
			c0,0.1,0.1,0,0.1,0.2v0.1c0,0.1-0.3,0.2-0.3,0.3h-0.2h-0.1l-0.2,0.1l-0.4,0.1l-0.2,0.1c-0.1,0-0.2,0-0.3,0h-0.8h-0.1
			c0,0-0.3,0.1-0.2,0.2c0,0.3,0.1,1,0.1,1v0.2c0,0.3,0,0.4,0,0.4l-0.1,0.2c0,0.1,0,0.7,0,0.8v0.2v0.2c0.2,0,0.3,0.1,0.5,0.1l0.9,0.1
			h0.2c0.1,0,0.1,0,0.2,0c0.2,0,0.4,0,0.5,0h0.2c0.1,0,0.2,0,0.3-0.1H39h0.2c0.2,0,0.1,0.1,0.2,0.3c0,0.1,0,0.2-0.1,0.3
			c0,0,0,0.1-0.1,0.1c-0.2,0.1-0.3,0.1-0.3,0.1l-0.3,0.1h-0.2c-0.1,0-0.1,0-0.2,0h-0.4c-0.1,0-0.2,0.1-0.3,0.1h-0.4h-0.3L36.2,206.6
			z"/>
		<path class="st5" d="M43.9,205.1l-0.3-0.2l-0.2-0.2l-0.1-0.2l-0.1-0.1c-0.2-0.2-0.3-0.4-0.5-0.5l-0.4,0.4l-0.1,0.1l-0.1,0.1
			c0,0.1-0.1,0.2-0.2,0.3l-0.4,0.5l-0.1,0.1l-0.1,0.1l-0.1,0.2v0.1l-0.3,0.3v0.1l-0.1,0.1h-0.2h-0.2h-0.2l-0.3-0.1l-0.2-0.2v-0.1
			v-0.2l0.1-0.1l0.2-0.2l0,0l0.1-0.3l0.5-0.4l0.3-0.4c0.1-0.1,0.1-0.2,0.2-0.3l0.2-0.3c0.1-0.1,0.1-0.2,0.2-0.3l0.1-0.2l0.3-0.4
			l-0.1-0.1l-0.2-0.2c-0.1-0.1-0.2-0.2-0.2-0.3l-0.1-0.2c-0.5-0.6-0.5-0.6-0.5-0.6l-0.5-0.6v-0.1c-0.1-0.1-0.1-0.2-0.2-0.2l-0.1-0.2
			c-0.1-0.1-0.1-0.3-0.1-0.5v-0.1v-0.1v-0.1v-0.2c0.1-0.1,0.1-0.1,0.2-0.1h0.1l0.2,0.1l0.1,0.1l0.2,0.1l0.5,0.1c0.1,0,0.2,0,0.2,0.1
			h0.1l0.2,0.1l0.1,0.1h0.1l0.3,0.2c0.1,0,0.1,0.1,0.2,0.1l0.1,0.1c0.1,0.1,0.2,0.1,0.3,0.2l0.4,0.3l0.1,0.1
			c0.1-0.1,0.2-0.2,0.3-0.3l0.1-0.2l0.2-0.2l0.2-0.3l0.1-0.2l0.4-0.4l0.2-0.1v-0.1l0.2-0.2l0.1-0.1l0,0c0-0.1,0.2-0.2,0.3-0.2h0.1
			v0.1v0.1v0.1v0.1c0,0.3-0.1,0.6-0.1,1c0,0.1,0,0.1,0,0.2c0,0.2,0,0.4-0.2,0.5l-0.1,0.1l-0.1,0.3c0,0.1-0.2,0.3-0.2,0.4v0.1
			l-0.1,0.2l0.1,0.1l0.3,0.4l0.3,0.2c0.1,0.1,0.1,0.2,0.2,0.3l0.2,0.2c0.2,0.2,0.2,0.4,0.2,0.7v0.1l0.1,0.1c0.1,0.1,0.1,0.1,0.1,0.2
			l0.1,1.3v0.1l0.1,0.2v0.4v0.1c-0.1,0.1-0.2,0.3-0.3,0.3c-0.1,0-0.2-0.1-0.3-0.2l-0.2-0.1h-0.1c-0.1-0.1-0.2-0.1-0.3-0.1h-0.1
			l-0.2-0.1L43.9,205.1z"/>
		<path class="st5" d="M47.6,203.9l-0.1-0.3c0-0.1,0-0.2-0.1-0.3c0-0.5,0-0.5,0-0.5l-0.1-0.8v-0.2c0-0.1,0,0,0-0.1v-0.5
			c-0.2,0-0.3-0.1-0.5,0l-0.5,0.1c-0.1,0-0.2-0.1-0.3-0.1c0,0,0,0,0-0.1s0-0.1,0-0.2s0.1-0.2,0.2-0.2h0.1c0.1,0,0.1,0,0.4-0.1h0.2
			h0.4c0,0,0.1-0.4,0.1-0.5V200v-0.3c0-0.1,0.1-0.3,0.1-0.4v-0.1c0-0.1,0-0.2,0.1-0.4l0.1-0.4l0.1-0.2l0.1-0.2v-0.2
			c0-0.1,0.1-0.3,0.2-0.4h0.1h0.1h0.1l0.2,0.1l0.4,0.4l0.1,0.1l0.1,0.2l0.3,0.5l0.1,0.2l0.1,0.3c0,0.1,0.1,0.2,0.1,0.3l0.1,0.2v0.1
			l0.1,0.3l0.1,0.4c0,0,0.4-0.1,0.6-0.1c0.1,0,0.2,0,0.3,0h0.3c0.2,0,0.3,0,0.5,0.1l0.1,0.1l0.1,0.1v0.1v0.1l-0.3,0.1h-0.1h-0.2
			h-0.2l-0.5,0.1c0,0-0.1,0-0.2,0s-0.2,0-0.2,0h-0.1v0.2c0,0.2,0,0.2,0,0.4c0,0.1,0,0.2,0,0.3c0,0.1-0.1,0.3-0.1,0.4v0.1v0.1
			l-0.1,0.2l-0.1,0.1l-0.1,0.3v0.1l0.1,0.4v0.2v1c0.1,0.1,0.1,0.2,0.2,0.3l0.1,0.1l0.2,0.1h0.2h0.1h0.1l0.2-0.1v-0.1
			c0.1-0.1,0.2-0.2,0.2-0.3c0-0.1,0.1-0.4,0.1-0.5v-0.2l-0.1-0.2h-0.1c-0.1,0-0.3,0-0.3-0.2l0,0c0-0.1,0-0.2,0.1-0.2l0.3-0.1
			l0.2,0.1l0.2,0.1c0.1,0,0.1,0.1,0.1,0.2c0.1,0.1,0.1,0.2,0.1,0.3c0,0.2,0,0.4,0,0.6c0,0.1,0,0.3-0.1,0.4l-0.1,0.2l-0.1,0.2
			c-0.1,0.1-0.2,0.3-0.3,0.3L51,206c-0.1,0-0.2,0.2-0.3,0.2l-0.2,0.1l0,0h-0.4l-0.2,0.1h-0.1c-0.2,0-0.4,0-0.6-0.1h-0.1l-0.4-0.2
			l-0.1-0.1l-0.1-0.1c-0.1,0-0.2-0.1-0.3-0.2l-0.3-0.3l-0.1-0.1l-0.2-0.3c0,0,0-0.1-0.3-0.9L47.6,203.9"/>
		<path class="st5" d="M53.2,205.4l-0.1-0.2v-0.1c0-0.1-0.1-0.1-0.1-0.2l-0.1-0.2v-0.2c0,0-0.1-0.3-0.1-0.4s0-0.2-0.1-0.3l-0.3-1
			c0-0.1,0-0.2-0.1-0.4V202l0.1-0.5c0-0.2,0-0.3,0-0.5v-0.2v-0.2l0.1-0.6v-0.4v-0.2c0-0.2,0.1-0.4,0.1-0.6s0-0.4,0.2-0.6
			c0.1,0,0.1-0.1,0.2-0.1h0.2c0.1,0,0.2,0.2,0.3,0.3l0.1,0.1c0.1,0.1,0.2,0.3,0.2,0.3l0.1-0.1l0.1-0.1l0.3-0.2l0.2-0.1l0.2-0.1h0.1
			l0.2-0.1h0.1h0.2c0.1,0,0.2,0,0.3,0h0.3c0.1,0,0.2,0.1,0.2,0.1h0.1c0.1,0.1,0.2,0.1,0.3,0.2v0.1l0.1,0.2l-0.1,0.2
			c-0.1,0.1-0.2,0.2-0.4,0.2c-0.2,0-0.3,0-0.4-0.2l-0.1-0.1l-0.1-0.1h-0.2c-0.1,0-0.3,0.1-0.4,0.2l-0.2,0.2c0,0.1-0.1,0.1-0.1,0.2
			l-0.1,0.1l-0.2,0.2l-0.1,0.1l-0.1,0.2v0.1l0.1,0.4l0.1,0.3l0.1,0.4l0.1,0.4l0.1,0.7c0,0.3,0,0.5,0,0.8v0.1
			c-0.1,0.1-0.1,0.2-0.2,0.4v0.1c0,0.1,0,0.2-0.1,0.3c-0.1,0.2-0.2,0.3-0.3,0.4c0,0.1-0.1,0.1-0.3,0.3c0,0.1-0.1,0.2-0.1,0.3
			c-0.1,0.1,0,0.2-0.1,0.3l-0.1,0.1l0.2,0.4h-0.1l-0.2-0.1L53.2,205.4z"/>
		<path class="st5" d="M60.5,205.2l-0.1,0.2l-0.2,0.1l-0.2,0.1c-0.3,0.1-0.5,0.2-0.7,0.2h-0.2c0,0,0,0-0.2,0c-0.1,0-0.2,0-0.3,0
			l-0.7-0.1h-0.1c-0.2,0-0.3-0.1-0.5-0.2c-0.1,0-0.3-0.2-0.4-0.2c-0.3-0.2-0.4-0.4-0.6-0.7v-0.1c-0.1-0.2-0.2-0.4-0.3-0.6v-0.1
			l-0.1-0.2c-0.1-0.2-0.1-0.5-0.1-0.7v-0.2c0-0.2,0.1-0.3,0.1-0.5c0,0,0.1-0.3,0.2-0.4l0.1-0.1c0.1-0.2,0.3-0.3,0.4-0.5l0.1-0.1
			c0.1-0.1,0.2-0.2,0.3-0.2c0.1-0.1,0.3-0.1,0.4-0.1l0.2-0.1h0.2h0.5h0.5H59c0.3,0,0.7,0.1,1,0.2l0.2,0.1c0.1,0,0.2,0.1,0.3,0.1V201
			v-0.1v-0.2l-0.1-0.4v-0.4l-0.1-0.2c-0.1-0.2-0.4-0.6-0.6-0.6h-0.2h-0.7h-0.1l-0.2,0.1l-0.3,0.2h-0.1h-0.2l-0.2,0.1l-0.1,0.1
			c-0.1,0.1-0.1,0.1-0.2,0.1l-0.1-0.1c-0.1-0.1-0.1-0.1-0.1-0.1v-0.2v-0.1c0-0.1,0.1-0.2,0.2-0.3l0.1-0.1h0.1l0.3-0.3
			c0.2-0.1,0.3-0.1,0.5-0.2h0.1h0.2h0.1H59c0,0,0,0,0.2,0c0.1,0,0.1,0,0.2,0l0.6,0.2l0.3,0.1h0.1l0.1,0.1h0.1
			c0.3,0.1,0.5,0.2,0.7,0.4l0.3,0.4l0.1,0.2l0.1,0.2l0.1,0.1l0.1,0.2c0.4,0.5,0.4,0.6,0.4,0.6c0.1,0.1,0.2,0.3,0.2,0.5v0.1
			c0,0.1,0.1,0.2,0.1,0.4v0.1v0.2c0.1,0.2,0.1,0.4,0.1,0.6v0.1v0.1l0.1,0.2v0.2v0.2l0.1,0.6v0.1c0,0.1-0.1,0.2-0.2,0.4l-0.1,0.3
			l-0.2,0.3l-0.2,0.3l-0.1,0.3L62,206l-0.1,0.2l-0.3,0.3l-0.2,0.2l-0.2,0.2v0.1l-0.1,0.2c0,0.1-0.2,0.2-0.2,0.3h-0.1h-0.1
			c-0.1-0.1-0.2-0.2-0.2-0.3v-0.1v-0.4v-0.2l-0.1-0.2C60.8,205.1,60.7,205.1,60.5,205.2 M57.8,203.7l0.1,0.2v0.2
			c0,0.1,0.1,0.2,0.1,0.2l0.3,0.2l0.2,0.1h0.1h0.1l0.2,0.1h0.2h0.2h0.2h0.1l0.1-0.1c0.1,0,0.3-0.1,0.4-0.2l0.6-0.5c0-0.2,0,0,0-0.9
			v-0.3v-0.2v-0.2c0-0.1,0-0.5,0-0.6c-0.1-0.2-0.1-0.3-0.1-0.3v-0.1l-0.4-0.1h-0.1l-0.3-0.1h-0.1c-0.1,0-0.2,0-0.3,0h-0.1l-0.2,0.2
			l-0.3,0.1c-0.1,0-0.2,0.1-0.2,0.1c-0.1,0.1-0.2,0.2-0.4,0.2l-0.1,0.1c-0.1,0.1-0.2,0.2-0.2,0.3c0,0.1-0.1,0.2-0.1,0.3
			c0,0.1,0,0.2,0,0.3v0.4v0.2l-0.1,0.3L57.8,203.7"/>
	</g>
</g>
</svg>
