<?xml version="1.0" encoding="utf-8"?>
<svg viewBox="0 0 80 80" xmlns="http://www.w3.org/2000/svg">
  <g id="earn" transform="matrix(2.485552, 0, 0, 2.162887, -69.779205, -52.493382)" style="color:white">
    <path id="Combined-Shape" class="cls-3" d="M 56.065 26.381 C 56.764 25.895 57.624 25.697 58.465 25.83 L 58.49 25.83 C 58.55 25.847 58.603 25.881 58.644 25.928 L 59.51 26.895 C 59.564 26.949 59.592 27.022 59.589 27.098 C 59.576 27.202 59.511 27.291 59.417 27.337 L 59.367 27.337 C 58.435 27.635 57.641 28.257 57.129 29.091 L 57.107 29.116 L 57.082 29.156 C 57.008 29.254 56.948 29.361 56.903 29.475 L 56.853 29.638 C 56.725 30.136 56.812 30.664 57.093 31.094 C 57.261 31.409 57.451 31.71 57.67 32.072 C 58.652 33.302 59.352 34.731 59.722 36.261 C 59.966 37.698 59.916 39.169 59.575 40.586 L 59.575 40.634 C 58.953 43.021 57.943 45.291 56.584 47.351 C 55.523 48.977 54.325 50.511 53.003 51.934 L 51.212 53.745 C 50.117 54.808 48.917 55.757 47.63 56.578 C 47.358 56.769 47.076 56.944 46.785 57.104 C 46.552 57.238 46.316 57.375 46.119 57.498 L 46.087 57.52 C 45.099 58.114 44.053 58.606 42.967 58.991 C 42.67 59.118 42.247 59.252 41.799 59.397 L 41.345 59.542 C 40.364 59.853 39.362 60.096 38.347 60.266 C 36.395 60.646 34.402 60.767 32.419 60.629 L 32.052 60.618 C 31.195 60.574 30.352 60.391 29.554 60.074 C 29.027 59.886 28.597 59.495 28.361 58.988 C 28.009 58.013 28.393 56.925 29.278 56.386 C 36.578 52.202 40.245 42.26 41.262 37.036 L 41.262 37.007 C 41.33 36.829 41.395 36.655 41.459 36.492 C 41.712 35.376 42.088 34.291 42.58 33.257 C 44.819 28.656 48.418 28.315 48.73 28.294 C 49.105 28.258 49.482 28.247 49.858 28.261 L 50.001 28.261 C 50.137 28.272 51.323 28.384 51.649 28.471 L 52.046 28.554 L 52.27 28.578 C 52.462 28.6 52.655 28.613 52.849 28.616 C 53.359 28.679 53.871 28.515 54.249 28.167 L 54.471 27.875 C 54.928 27.303 55.465 26.799 56.065 26.381 Z" style="fill: rgb(255, 255, 255);"/>
  </g>
</svg>